<?xml version="1.0" encoding="utf-8" standalone="no"?>
<!DOCTYPE svg PUBLIC "-//W3C//DTD SVG 1.1//EN"
  "http://www.w3.org/Graphics/SVG/1.1/DTD/svg11.dtd">
<svg xmlns:xlink="http://www.w3.org/1999/xlink" width="230.4pt" height="230.4pt" viewBox="0 0 230.4 230.4" xmlns="http://www.w3.org/2000/svg" version="1.1">
 <metadata>
  <rdf:RDF xmlns:dc="http://purl.org/dc/elements/1.1/" xmlns:cc="http://creativecommons.org/ns#" xmlns:rdf="http://www.w3.org/1999/02/22-rdf-syntax-ns#">
   <cc:Work>
    <dc:type rdf:resource="http://purl.org/dc/dcmitype/StillImage"/>
    <dc:date>2022-12-23T09:44:55.624445</dc:date>
    <dc:format>image/svg+xml</dc:format>
    <dc:creator>
     <cc:Agent>
      <dc:title>Matplotlib v3.5.2, https://matplotlib.org/</dc:title>
     </cc:Agent>
    </dc:creator>
   </cc:Work>
  </rdf:RDF>
 </metadata>
 <defs>
  <style type="text/css">*{stroke-linejoin: round; stroke-linecap: butt}</style>
 </defs>
 <g id="figure_1">
  <g id="patch_1">
   <path d="M 0 230.4 
L 230.4 230.4 
L 230.4 0 
L 0 0 
z
" style="fill: #ffffff"/>
  </g>
  <g id="axes_1">
   <g id="patch_2">
    <path d="M 31.874927 201.167885 
L 225.432651 201.167885 
L 225.432651 3.00024 
L 31.874927 3.00024 
z
" style="fill: #ffffff"/>
   </g>
   <g id="line2d_1">
    <path d="M -1 201.167885 
L 55.357818 201.167885 
L 58.586711 201.167885 
L 60.054391 198.675194 
L 61.522072 194.758139 
L 62.989753 186.211834 
L 64.457433 171.611875 
L 65.631582 150.246092 
L 67.099263 123.538864 
L 68.566943 94.338958 
L 69.741092 65.851255 
L 71.208773 42.348892 
L 72.676454 25.256265 
L 73.85058 15.641661 
L 75.318261 12.436795 
L 77.079496 14.929468 
L 78.253622 22.051396 
L 79.721303 32.022099 
L 81.188983 43.417179 
L 82.363132 55.524454 
L 83.830813 67.987827 
L 85.004962 79.382914 
L 86.472643 90.421903 
L 87.940323 100.392599 
L 89.114472 109.295009 
L 90.582153 117.485223 
L 92.049834 124.251059 
L 93.517514 130.660791 
L 94.691663 136.358342 
L 96.159344 140.631487 
L 97.627025 144.904646 
L 99.094705 149.177806 
L 101.736512 154.16316 
L 104.378342 158.080215 
L 107.020172 161.641179 
L 110.249065 164.489947 
L 113.477958 165.558234 
L 117.293936 166.270429 
L 120.522829 165.914338 
L 123.45819 164.846052 
L 126.687083 163.421661 
L 129.915999 160.928983 
L 133.731955 157.724124 
L 136.960848 154.875342 
L 139.602677 151.670483 
L 142.538039 148.46561 
L 145.179868 145.260751 
L 147.528166 142.055878 
L 150.169973 138.851005 
L 153.105335 135.646146 
L 155.453633 132.797378 
L 158.682526 129.236414 
L 161.617887 127.099828 
L 165.140334 123.894968 
L 168.369227 121.758382 
L 171.304588 119.621809 
L 175.120544 117.485223 
L 179.523586 116.773041 
L 183.926628 117.129132 
L 188.036138 118.553523 
L 191.852117 121.046186 
L 195.961627 124.60715 
L 199.777584 127.812023 
L 203.006486 130.660791 
L 206.528911 133.50956 
L 210.638421 136.002237 
L 214.160868 138.851005 
L 218.270356 140.631487 
L 222.673398 142.411969 
L 226.782908 143.124165 
L 231.18595 143.83636 
L 231.4 143.83636 
" clip-path="url(#p479d0b7139)" style="fill: none; stroke: #f0ebf5; stroke-width: 2; stroke-linecap: square"/>
   </g>
   <g id="line2d_2">
    <path d="M -1 201.167885 
L 43.039623 201.167885 
L 51.004976 201.005074 
L 53.177343 200.67563 
L 54.480765 199.68729 
L 55.494534 198.20479 
L 56.21866 196.557574 
L 57.232429 193.098414 
L 58.246203 188.650915 
L 58.535851 186.344801 
L 58.970323 183.873971 
L 60.41857 170.860926 
L 62.301293 149.282329 
L 62.446118 146.317335 
L 63.025414 139.563727 
L 63.025414 137.092897 
L 63.459887 133.469011 
L 63.459887 130.668733 
L 63.894364 125.727068 
L 64.039188 122.597352 
L 64.47366 117.161522 
L 64.908133 109.419585 
L 65.052957 106.784028 
L 65.342605 103.819031 
L 65.48743 100.854034 
L 65.777078 97.724312 
L 66.211555 89.488207 
L 66.790852 83.39349 
L 68.094274 66.921279 
L 69.542525 52.919901 
L 69.976993 50.44907 
L 70.266641 47.978238 
L 70.845938 45.342685 
L 72.14936 41.554076 
L 72.728657 41.224633 
L 73.74243 41.88352 
L 75.190682 45.342685 
L 75.48033 46.989905 
L 76.059627 48.96657 
L 76.928571 53.414069 
L 77.797526 58.355731 
L 78.087174 60.661839 
L 79.245768 66.921279 
L 80.694009 76.804606 
L 80.983667 79.275435 
L 81.418135 81.2521 
L 81.707783 83.558214 
L 82.142258 85.534878 
L 82.431907 88.005708 
L 82.866384 90.147094 
L 83.156032 92.453208 
L 84.024977 97.065424 
L 84.314625 99.371532 
L 85.328399 104.64264 
L 87.500766 116.008466 
L 88.804189 121.444296 
L 89.238662 123.750403 
L 89.962788 126.056517 
L 90.39726 128.197903 
L 91.700683 132.315954 
L 93.583401 138.575392 
L 95.031648 142.364 
L 98.652261 149.941221 
L 99.521211 151.423716 
L 101.548759 154.388716 
L 102.852171 155.706494 
L 104.155594 157.188994 
L 105.459016 158.342051 
L 108.355509 160.31871 
L 111.107172 161.471767 
L 112.700243 161.80121 
L 116.176042 162.130653 
L 118.058761 161.965937 
L 120.086299 161.636483 
L 121.969018 160.977596 
L 125.299988 159.33038 
L 127.037877 158.342051 
L 128.486129 157.188994 
L 130.079199 156.200664 
L 131.527441 155.047602 
L 135.727356 150.764829 
L 140.361748 145.329 
L 141.520341 143.681778 
L 148.47192 135.939841 
L 149.920171 134.457341 
L 152.816654 131.82179 
L 155.857976 129.515676 
L 157.306217 128.362625 
L 163.388851 124.90346 
L 167.00947 123.42096 
L 172.223149 122.43263 
L 174.250696 122.267909 
L 175.988596 122.267909 
L 177.726486 122.597352 
L 179.464385 122.762074 
L 181.202285 123.256238 
L 182.795355 123.915125 
L 184.388426 124.409295 
L 190.615869 127.044846 
L 192.353779 128.033182 
L 194.091668 128.85679 
L 195.829558 130.009846 
L 199.450177 131.657068 
L 205.677639 134.622062 
L 208.718942 135.775119 
L 210.312012 136.434006 
L 212.049921 136.928176 
L 213.787811 137.587062 
L 215.525701 137.916505 
L 218.422203 138.740119 
L 221.608345 139.399005 
L 224.649647 139.728449 
L 224.649647 139.728449 
" clip-path="url(#p479d0b7139)" style="fill: none; stroke: #e2d7ea; stroke-width: 2; stroke-linecap: square"/>
   </g>
   <g id="line2d_3">
    <path d="M -1 201.167885 
L 46.755128 201.167885 
L 51.740775 200.722366 
L 54.041832 198.58386 
L 55.959384 191.099129 
L 58.260441 172.921888 
L 60.177993 152.338843 
L 62.47905 122.667187 
L 64.780107 95.668649 
L 68.231706 69.47205 
L 68.615211 66.531614 
L 69.765754 63.323865 
L 70.916297 61.719991 
L 73.217354 64.92774 
L 74.751401 68.135489 
L 75.51841 71.343233 
L 76.28542 75.887543 
L 79.737019 89.787777 
L 82.42161 103.95533 
L 86.256714 118.390195 
L 89.708285 128.815367 
L 96.611484 143.250232 
L 102.364141 150.200347 
L 107.349788 154.210031 
L 113.485949 156.081218 
L 120.005615 156.348527 
L 125.374767 153.942722 
L 132.661471 149.933039 
L 138.030623 144.586794 
L 144.550289 139.240549 
L 150.68645 134.161612 
L 163.342306 128.548059 
L 173.697076 125.607618 
L 177.532181 124.805683 
L 184.43538 126.142244 
L 195.940693 129.617301 
L 206.295463 133.894304 
L 219.334824 137.903987 
L 231.223642 139.240549 
L 231.4 139.240549 
" clip-path="url(#p479d0b7139)" style="fill: none; stroke: #c5b0d4; stroke-width: 2; stroke-linecap: square"/>
   </g>
   <g id="line2d_4">
    <path d="M -1 201.167885 
L 48.863202 201.167885 
L 55.00788 199.223323 
L 57.176589 190.667245 
L 59.706771 162.665509 
L 60.429665 153.331587 
L 62.236927 125.329821 
L 62.598373 115.218085 
L 64.767082 87.216349 
L 65.490003 77.882427 
L 69.827419 61.548086 
L 73.080496 66.215032 
L 75.249204 75.548954 
L 80.670989 100.439403 
L 86.45422 119.885061 
L 90.791664 131.552456 
L 99.10505 144.77548 
L 105.97265 150.998114 
L 116.816219 154.109402 
L 127.659788 150.998114 
L 140.310619 143.219851 
L 148.985479 137.775061 
L 157.66034 132.33027 
L 168.503909 126.88548 
L 175.010034 124.552007 
L 186.215078 125.329821 
L 192.359756 127.663324 
L 210.070924 133.885929 
L 220.553047 137.775061 
L 227.782093 138.552875 
L 231.4 138.812399 
" clip-path="url(#p479d0b7139)" style="fill: none; stroke: #9d7ab8; stroke-width: 2; stroke-linecap: square"/>
   </g>
   <g id="line2d_5">
    <path d="M 31.874927 135.052654 
L 225.432651 135.052654 
" clip-path="url(#p479d0b7139)" style="fill: none; stroke-dasharray: 1.5,6; stroke-dashoffset: 0; stroke: #c0c0c0; stroke-width: 1.5"/>
   </g>
   <g id="line2d_6">
    <path d="M -1 201.167885 
L 0.076159 201.167885 
L 2.841269 201.167885 
L 5.606379 201.167885 
L 8.37149 201.167885 
L 11.1366 201.167885 
L 13.90171 201.167885 
L 16.666821 201.167885 
L 19.431931 201.167885 
L 22.197041 201.167885 
L 24.962152 201.167885 
L 27.727262 201.167885 
L 30.492372 201.167885 
L 33.257483 201.167885 
L 36.022593 201.167885 
L 38.787703 201.167885 
L 41.552814 201.167885 
L 44.317924 201.140505 
L 47.083034 200.801403 
L 49.848145 199.071985 
L 52.613255 192.948807 
L 55.378365 179.126613 
L 58.143476 157.638718 
L 60.908586 130.618371 
L 63.673696 107.08793 
L 66.438807 93.835402 
L 69.203917 85.313511 
L 71.969027 86.09735 
L 74.734138 88.864672 
L 77.499248 96.143305 
L 80.264358 105.542813 
L 83.029469 113.075706 
L 85.794579 121.463956 
L 88.559689 127.958439 
L 91.3248 134.16884 
L 94.08991 138.89943 
L 96.85502 142.817729 
L 99.620131 146.291595 
L 102.385241 149.135189 
L 105.150351 150.105528 
L 107.915462 151.931504 
L 110.680572 153.144292 
L 113.445682 153.095976 
L 116.210793 152.737678 
L 118.975903 152.447834 
L 121.741013 151.161812 
L 124.506124 149.546319 
L 127.271234 148.61444 
L 130.036344 146.77752 
L 132.801455 145.307087 
L 135.566565 144.373495 
L 138.331675 142.745767 
L 141.096786 140.474258 
L 143.861896 138.316001 
L 146.627006 137.486839 
L 149.392117 135.860969 
L 152.157227 134.706851 
L 154.922337 133.537278 
L 157.687448 133.193972 
L 160.452558 132.77011 
L 163.217668 131.703166 
L 165.982779 131.091042 
L 168.747889 130.886439 
L 171.512999 131.305339 
L 174.27811 131.184656 
L 177.04322 130.865677 
L 179.80833 131.875162 
L 182.573441 132.535486 
L 185.338551 131.762841 
L 188.103661 132.568642 
L 190.868771 132.22214 
L 193.633882 133.194798 
L 196.398992 133.560988 
L 199.164102 134.252271 
L 201.929213 134.520512 
L 204.694323 134.895508 
L 207.459433 134.880821 
L 210.224544 135.942831 
L 212.989654 135.712762 
L 215.754764 136.387642 
L 218.519875 137.002968 
L 221.284985 136.831398 
L 224.050095 137.002099 
" clip-path="url(#p479d0b7139)" style="fill: none; stroke: #61bfa3; stroke-width: 2; stroke-linecap: square"/>
   </g>
   <g id="line2d_7">
    <path d="M -1 201.167885 
L 49.093847 201.167885 
L 55.647896 200.560208 
L 57.664526 195.091117 
L 59.681156 176.496209 
L 61.193629 156.07827 
L 63.378317 115.120864 
L 65.058847 95.189059 
L 66.067162 84.737023 
L 67.075477 74.77112 
L 70.100423 66.50672 
L 73.797568 77.687969 
L 75.478098 87.410799 
L 79.847459 104.911889 
L 83.208519 116.822355 
L 86.905665 126.788258 
L 91.27504 134.809591 
L 99.341561 143.317058 
L 111.105228 147.692331 
L 117.155118 147.206197 
L 124.213324 145.747773 
L 133.960391 140.886355 
L 141.018597 137.969506 
L 149.421203 138.212573 
L 158.832154 136.511082 
L 170.931936 132.621955 
L 180.678972 130.920452 
L 190.426038 131.163531 
L 202.189704 132.865022 
L 214.961686 135.052658 
L 224.708753 136.024937 
L 231.4 136.521259 
" clip-path="url(#p479d0b7139)" style="fill: none; stroke-dasharray: 10,8; stroke-dashoffset: 0; stroke: #6c757d; stroke-width: 2"/>
   </g>
   <g id="matplotlib.axis_1">
    <g id="xtick_1">
     <g id="line2d_8">
      <defs>
       <path id="m7e112124f9" d="M 0 0 
L 0 3.5 
" style="stroke: #c2c1c1; stroke-width: 0.8"/>
      </defs>
      <g>
       <use xlink:href="#m7e112124f9" x="31.874927" y="201.167885" style="fill: #c2c1c1; stroke: #c2c1c1; stroke-width: 0.8"/>
      </g>
     </g>
     <g id="text_1">
      <!-- 2 -->
      <g style="fill: #191919" transform="translate(29.907818 213.417885)scale(0.07 -0.07)">
       <defs>
        <path id="Roboto-Regular-32" d="M 3359 475 
L 3359 0 
L 381 0 
L 381 416 
L 1925 2134 
Q 2306 2566 2439 2819 
Q 2572 3072 2572 3328 
Q 2572 3663 2364 3900 
Q 2156 4138 1778 4138 
Q 1322 4138 1097 3878 
Q 872 3619 872 3213 
L 294 3213 
Q 294 3788 672 4200 
Q 1050 4613 1778 4613 
Q 2422 4613 2786 4278 
Q 3150 3944 3150 3397 
Q 3150 2997 2903 2592 
Q 2656 2188 2297 1797 
L 1078 475 
L 3359 475 
z
" transform="scale(0.015625)"/>
       </defs>
       <use xlink:href="#Roboto-Regular-32"/>
      </g>
     </g>
    </g>
    <g id="xtick_2">
     <g id="line2d_9">
      <g>
       <use xlink:href="#m7e112124f9" x="59.526031" y="201.167885" style="fill: #c2c1c1; stroke: #c2c1c1; stroke-width: 0.8"/>
      </g>
     </g>
     <g id="text_2">
      <!-- 3 -->
      <g style="fill: #191919" transform="translate(57.558921 213.417885)scale(0.07 -0.07)">
       <defs>
        <path id="Roboto-Regular-33" d="M 1222 2084 
L 1222 2559 
L 1647 2559 
Q 2094 2563 2312 2784 
Q 2531 3006 2531 3338 
Q 2531 4138 1738 4138 
Q 1369 4138 1141 3927 
Q 913 3716 913 3359 
L 334 3359 
Q 334 3881 720 4247 
Q 1106 4613 1738 4613 
Q 2353 4613 2733 4286 
Q 3113 3959 3113 3325 
Q 3113 3072 2942 2784 
Q 2772 2497 2397 2338 
Q 2850 2191 3015 1884 
Q 3181 1578 3181 1269 
Q 3181 631 2768 284 
Q 2356 -63 1741 -63 
Q 1147 -63 722 267 
Q 297 597 297 1203 
L 875 1203 
Q 875 844 1108 628 
Q 1341 413 1741 413 
Q 2138 413 2369 622 
Q 2600 831 2600 1256 
Q 2600 1681 2337 1882 
Q 2075 2084 1634 2084 
L 1222 2084 
z
" transform="scale(0.015625)"/>
       </defs>
       <use xlink:href="#Roboto-Regular-33"/>
      </g>
     </g>
    </g>
    <g id="xtick_3">
     <g id="line2d_10">
      <g>
       <use xlink:href="#m7e112124f9" x="87.177134" y="201.167885" style="fill: #c2c1c1; stroke: #c2c1c1; stroke-width: 0.8"/>
      </g>
     </g>
     <g id="text_3">
      <!-- 4 -->
      <g style="fill: #191919" transform="translate(85.210025 213.417885)scale(0.07 -0.07)">
       <defs>
        <path id="Roboto-Regular-34" d="M 166 1397 
L 2203 4550 
L 2819 4550 
L 2819 1531 
L 3453 1531 
L 3453 1056 
L 2819 1056 
L 2819 0 
L 2241 0 
L 2241 1056 
L 166 1056 
L 166 1397 
z
M 822 1531 
L 2241 1531 
L 2241 3766 
L 2169 3638 
L 822 1531 
z
" transform="scale(0.015625)"/>
       </defs>
       <use xlink:href="#Roboto-Regular-34"/>
      </g>
     </g>
    </g>
    <g id="xtick_4">
     <g id="line2d_11">
      <g>
       <use xlink:href="#m7e112124f9" x="114.828237" y="201.167885" style="fill: #c2c1c1; stroke: #c2c1c1; stroke-width: 0.8"/>
      </g>
     </g>
     <g id="text_4">
      <!-- 5 -->
      <g style="fill: #191919" transform="translate(112.861128 213.417885)scale(0.07 -0.07)">
       <defs>
        <path id="Roboto-Regular-35" d="M 1109 2166 
L 647 2284 
L 875 4550 
L 3209 4550 
L 3209 4016 
L 1366 4016 
L 1228 2778 
Q 1572 2975 1988 2975 
Q 2616 2975 2980 2561 
Q 3344 2147 3344 1450 
Q 3344 797 2987 367 
Q 2631 -63 1903 -63 
Q 1350 -63 947 248 
Q 544 559 481 1197 
L 1031 1197 
Q 1141 413 1903 413 
Q 2313 413 2538 691 
Q 2763 969 2763 1444 
Q 2763 1872 2527 2164 
Q 2291 2456 1853 2456 
Q 1563 2456 1413 2378 
Q 1263 2300 1109 2166 
z
" transform="scale(0.015625)"/>
       </defs>
       <use xlink:href="#Roboto-Regular-35"/>
      </g>
     </g>
    </g>
    <g id="xtick_5">
     <g id="line2d_12">
      <g>
       <use xlink:href="#m7e112124f9" x="142.479341" y="201.167885" style="fill: #c2c1c1; stroke: #c2c1c1; stroke-width: 0.8"/>
      </g>
     </g>
     <g id="text_5">
      <!-- 6 -->
      <g style="fill: #191919" transform="translate(140.512231 213.417885)scale(0.07 -0.07)">
       <defs>
        <path id="Roboto-Regular-36" d="M 3291 1484 
Q 3291 838 2930 387 
Q 2569 -63 1878 -63 
Q 1388 -63 1063 198 
Q 738 459 577 861 
Q 416 1263 416 1684 
L 416 1956 
Q 416 2597 595 3194 
Q 775 3791 1247 4173 
Q 1719 4556 2597 4556 
L 2647 4556 
L 2647 4066 
Q 2041 4066 1705 3853 
Q 1369 3641 1205 3302 
Q 1041 2963 1006 2575 
Q 1369 2984 1984 2984 
Q 2438 2984 2727 2765 
Q 3016 2547 3153 2201 
Q 3291 1856 3291 1484 
z
M 997 1666 
Q 997 1059 1267 737 
Q 1538 416 1878 416 
Q 2278 416 2498 708 
Q 2719 1000 2719 1456 
Q 2719 1863 2516 2184 
Q 2313 2506 1891 2506 
Q 1588 2506 1341 2325 
Q 1094 2144 997 1884 
L 997 1666 
z
" transform="scale(0.015625)"/>
       </defs>
       <use xlink:href="#Roboto-Regular-36"/>
      </g>
     </g>
    </g>
    <g id="xtick_6">
     <g id="line2d_13">
      <g>
       <use xlink:href="#m7e112124f9" x="170.130444" y="201.167885" style="fill: #c2c1c1; stroke: #c2c1c1; stroke-width: 0.8"/>
      </g>
     </g>
     <g id="text_6">
      <!-- 7 -->
      <g style="fill: #191919" transform="translate(168.163335 213.417885)scale(0.07 -0.07)">
       <defs>
        <path id="Roboto-Regular-37" d="M 3319 4550 
L 3319 4225 
L 1434 0 
L 825 0 
L 2706 4075 
L 244 4075 
L 244 4550 
L 3319 4550 
z
" transform="scale(0.015625)"/>
       </defs>
       <use xlink:href="#Roboto-Regular-37"/>
      </g>
     </g>
    </g>
    <g id="xtick_7">
     <g id="line2d_14">
      <g>
       <use xlink:href="#m7e112124f9" x="197.781547" y="201.167885" style="fill: #c2c1c1; stroke: #c2c1c1; stroke-width: 0.8"/>
      </g>
     </g>
     <g id="text_7">
      <!-- 8 -->
      <g style="fill: #191919" transform="translate(195.814438 213.417885)scale(0.07 -0.07)">
       <defs>
        <path id="Roboto-Regular-38" d="M 3244 1231 
Q 3244 606 2826 271 
Q 2409 -63 1796 -63 
Q 1184 -63 767 271 
Q 350 606 350 1231 
Q 350 1613 554 1905 
Q 759 2197 1109 2347 
Q 806 2494 629 2762 
Q 453 3031 453 3366 
Q 453 3963 833 4288 
Q 1213 4613 1794 4613 
Q 2378 4613 2758 4288 
Q 3138 3963 3138 3366 
Q 3138 3028 2956 2761 
Q 2775 2494 2472 2347 
Q 2825 2197 3034 1903 
Q 3244 1609 3244 1231 
z
M 2559 3356 
Q 2559 3697 2346 3917 
Q 2134 4138 1793 4138 
Q 1453 4138 1243 3927 
Q 1034 3716 1034 3356 
Q 1034 3003 1243 2790 
Q 1453 2578 1797 2578 
Q 2138 2578 2348 2790 
Q 2559 3003 2559 3356 
z
M 2663 1244 
Q 2663 1625 2420 1865 
Q 2178 2106 1791 2106 
Q 1394 2106 1161 1865 
Q 928 1625 928 1244 
Q 928 850 1161 631 
Q 1394 413 1797 413 
Q 2200 413 2431 631 
Q 2663 850 2663 1244 
z
" transform="scale(0.015625)"/>
       </defs>
       <use xlink:href="#Roboto-Regular-38"/>
      </g>
     </g>
    </g>
    <g id="xtick_8">
     <g id="line2d_15">
      <g>
       <use xlink:href="#m7e112124f9" x="225.432651" y="201.167885" style="fill: #c2c1c1; stroke: #c2c1c1; stroke-width: 0.8"/>
      </g>
     </g>
     <g id="text_8">
      <!-- 9 -->
      <g style="fill: #191919" transform="translate(223.465541 213.417885)scale(0.07 -0.07)">
       <defs>
        <path id="Roboto-Regular-39" d="M 3175 2563 
Q 3175 2119 3098 1667 
Q 3022 1216 2801 836 
Q 2581 456 2151 225 
Q 1722 -6 953 -6 
L 953 484 
Q 1644 484 1980 700 
Q 2316 916 2448 1264 
Q 2581 1613 2597 2006 
Q 2416 1791 2162 1656 
Q 1909 1522 1613 1522 
Q 1163 1522 875 1747 
Q 588 1972 450 2320 
Q 313 2669 313 3041 
Q 313 3691 670 4152 
Q 1028 4613 1725 4613 
Q 2244 4613 2564 4344 
Q 2884 4075 3029 3653 
Q 3175 3231 3175 2772 
L 3175 2563 
z
M 881 3072 
Q 881 2666 1086 2334 
Q 1291 2003 1706 2003 
Q 2003 2003 2245 2181 
Q 2488 2359 2600 2622 
L 2600 2850 
Q 2600 3472 2336 3803 
Q 2072 4134 1725 4134 
Q 1322 4134 1101 3829 
Q 881 3525 881 3072 
z
" transform="scale(0.015625)"/>
       </defs>
       <use xlink:href="#Roboto-Regular-39"/>
      </g>
     </g>
    </g>
    <g id="text_9">
     <!-- r $\left( \mathbf{\AA} \right)$ -->
     <g style="fill: #191919" transform="translate(119.973789 225.77476)scale(0.08 -0.08)">
      <defs>
       <path id="Roboto-Bold-72" d="M 1922 2563 
Q 1413 2563 1253 2216 
L 1253 0 
L 347 0 
L 347 3381 
L 1200 3381 
L 1228 2978 
Q 1494 3444 1981 3444 
Q 2153 3444 2259 3403 
L 2250 2538 
L 1922 2563 
z
" transform="scale(0.015625)"/>
       <path id="Roboto-Bold-20" transform="scale(0.015625)"/>
       <path id="DejaVuSans-28" d="M 1984 4856 
Q 1566 4138 1362 3434 
Q 1159 2731 1159 2009 
Q 1159 1288 1364 580 
Q 1569 -128 1984 -844 
L 1484 -844 
Q 1016 -109 783 600 
Q 550 1309 550 2009 
Q 550 2706 781 3412 
Q 1013 4119 1484 4856 
L 1984 4856 
z
" transform="scale(0.015625)"/>
       <path id="DejaVuSans-Bold-c5" d="M 3225 4575 
L 4922 0 
L 3713 0 
L 3419 850 
L 1538 850 
L 1241 0 
L 31 0 
L 1728 4575 
Q 1656 4681 1622 4798 
Q 1588 4916 1588 5050 
Q 1588 5416 1848 5678 
Q 2109 5941 2478 5941 
Q 2841 5941 3103 5678 
Q 3366 5416 3366 5050 
Q 3366 4903 3331 4784 
Q 3297 4666 3225 4575 
z
M 2069 5050 
Q 2069 4881 2189 4761 
Q 2309 4641 2478 4641 
Q 2647 4641 2767 4761 
Q 2888 4881 2888 5050 
Q 2888 5219 2766 5339 
Q 2644 5459 2478 5459 
Q 2309 5459 2189 5339 
Q 2069 5219 2069 5050 
z
M 1838 1716 
L 3116 1716 
L 2478 3572 
L 1838 1716 
z
" transform="scale(0.015625)"/>
       <path id="DejaVuSans-29" d="M 513 4856 
L 1013 4856 
Q 1481 4119 1714 3412 
Q 1947 2706 1947 2009 
Q 1947 1309 1714 600 
Q 1481 -109 1013 -844 
L 513 -844 
Q 928 -128 1133 580 
Q 1338 1288 1338 2009 
Q 1338 2731 1133 3434 
Q 928 4138 513 4856 
z
" transform="scale(0.015625)"/>
      </defs>
      <use xlink:href="#Roboto-Bold-72" transform="translate(0 0.171875)"/>
      <use xlink:href="#Roboto-Bold-20" transform="translate(36.523438 0.171875)"/>
      <use xlink:href="#DejaVuSans-28" transform="translate(61.425781 0.171875)"/>
      <use xlink:href="#DejaVuSans-Bold-c5" transform="translate(100.439453 0.171875)"/>
      <use xlink:href="#DejaVuSans-29" transform="translate(177.832031 0.171875)"/>
     </g>
    </g>
   </g>
   <g id="matplotlib.axis_2">
    <g id="ytick_1">
     <g id="line2d_16">
      <defs>
       <path id="m219b7b2f29" d="M 0 0 
L -3.5 0 
" style="stroke: #c2c1c1; stroke-width: 0.8"/>
      </defs>
      <g>
       <use xlink:href="#m219b7b2f29" x="31.874927" y="201.167885" style="fill: #c2c1c1; stroke: #c2c1c1; stroke-width: 0.8"/>
      </g>
     </g>
     <g id="text_10">
      <!-- 0.0 -->
      <g style="fill: #191919" transform="translate(15.16024 203.792885)scale(0.07 -0.07)">
       <defs>
        <path id="Roboto-Regular-30" d="M 3234 1944 
Q 3234 825 2848 381 
Q 2463 -63 1800 -63 
Q 1156 -63 764 368 
Q 372 800 359 1872 
L 359 2638 
Q 359 3753 750 4183 
Q 1141 4613 1794 4613 
Q 2447 4613 2834 4195 
Q 3222 3778 3234 2709 
L 3234 1944 
z
M 2653 2734 
Q 2653 3503 2434 3822 
Q 2216 4141 1794 4141 
Q 1388 4141 1167 3831 
Q 947 3522 941 2778 
L 941 1850 
Q 941 1088 1164 750 
Q 1388 413 1800 413 
Q 2222 413 2436 745 
Q 2650 1078 2653 1825 
L 2653 2734 
z
" transform="scale(0.015625)"/>
        <path id="Roboto-Regular-2e" d="M 450 306 
Q 450 453 542 554 
Q 634 656 809 656 
Q 984 656 1076 554 
Q 1169 453 1169 306 
Q 1169 163 1076 62 
Q 984 -38 809 -38 
Q 634 -38 542 62 
Q 450 163 450 306 
z
" transform="scale(0.015625)"/>
       </defs>
       <use xlink:href="#Roboto-Regular-30"/>
       <use xlink:href="#Roboto-Regular-2e" x="56.201172"/>
       <use xlink:href="#Roboto-Regular-30" x="82.568359"/>
      </g>
     </g>
    </g>
    <g id="ytick_2">
     <g id="line2d_17">
      <g>
       <use xlink:href="#m219b7b2f29" x="31.874927" y="168.11027" style="fill: #c2c1c1; stroke: #c2c1c1; stroke-width: 0.8"/>
      </g>
     </g>
     <g id="text_11">
      <!-- 0.5 -->
      <g style="fill: #191919" transform="translate(15.16024 170.73527)scale(0.07 -0.07)">
       <use xlink:href="#Roboto-Regular-30"/>
       <use xlink:href="#Roboto-Regular-2e" x="56.201172"/>
       <use xlink:href="#Roboto-Regular-35" x="82.568359"/>
      </g>
     </g>
    </g>
    <g id="ytick_3">
     <g id="line2d_18">
      <g>
       <use xlink:href="#m219b7b2f29" x="31.874927" y="135.052654" style="fill: #c2c1c1; stroke: #c2c1c1; stroke-width: 0.8"/>
      </g>
     </g>
     <g id="text_12">
      <!-- 1.0 -->
      <g style="fill: #191919" transform="translate(15.16024 137.677654)scale(0.07 -0.07)">
       <defs>
        <path id="Roboto-Regular-31" d="M 2278 4575 
L 2278 0 
L 1700 0 
L 1700 3853 
L 534 3428 
L 534 3950 
L 2188 4575 
L 2278 4575 
z
" transform="scale(0.015625)"/>
       </defs>
       <use xlink:href="#Roboto-Regular-31"/>
       <use xlink:href="#Roboto-Regular-2e" x="56.201172"/>
       <use xlink:href="#Roboto-Regular-30" x="82.568359"/>
      </g>
     </g>
    </g>
    <g id="ytick_4">
     <g id="line2d_19">
      <g>
       <use xlink:href="#m219b7b2f29" x="31.874927" y="101.995039" style="fill: #c2c1c1; stroke: #c2c1c1; stroke-width: 0.8"/>
      </g>
     </g>
     <g id="text_13">
      <!-- 1.5 -->
      <g style="fill: #191919" transform="translate(15.16024 104.620039)scale(0.07 -0.07)">
       <use xlink:href="#Roboto-Regular-31"/>
       <use xlink:href="#Roboto-Regular-2e" x="56.201172"/>
       <use xlink:href="#Roboto-Regular-35" x="82.568359"/>
      </g>
     </g>
    </g>
    <g id="ytick_5">
     <g id="line2d_20">
      <g>
       <use xlink:href="#m219b7b2f29" x="31.874927" y="68.937424" style="fill: #c2c1c1; stroke: #c2c1c1; stroke-width: 0.8"/>
      </g>
     </g>
     <g id="text_14">
      <!-- 2.0 -->
      <g style="fill: #191919" transform="translate(15.16024 71.562424)scale(0.07 -0.07)">
       <use xlink:href="#Roboto-Regular-32"/>
       <use xlink:href="#Roboto-Regular-2e" x="56.201172"/>
       <use xlink:href="#Roboto-Regular-30" x="82.568359"/>
      </g>
     </g>
    </g>
    <g id="ytick_6">
     <g id="line2d_21">
      <g>
       <use xlink:href="#m219b7b2f29" x="31.874927" y="35.879808" style="fill: #c2c1c1; stroke: #c2c1c1; stroke-width: 0.8"/>
      </g>
     </g>
     <g id="text_15">
      <!-- 2.5 -->
      <g style="fill: #191919" transform="translate(15.16024 38.504808)scale(0.07 -0.07)">
       <use xlink:href="#Roboto-Regular-32"/>
       <use xlink:href="#Roboto-Regular-2e" x="56.201172"/>
       <use xlink:href="#Roboto-Regular-35" x="82.568359"/>
      </g>
     </g>
    </g>
    <g id="text_16">
     <!-- g$\mathregular{_{CN}}$(r) -->
     <g style="fill: #191919" transform="translate(9.32024 112.604062)rotate(-90)scale(0.08 -0.08)">
      <defs>
       <path id="Roboto-Bold-67" d="M 1681 -1331 
Q 1375 -1331 1008 -1203 
Q 641 -1075 422 -803 
L 822 -253 
Q 1156 -628 1644 -628 
Q 2003 -628 2203 -436 
Q 2403 -244 2403 113 
L 2403 294 
Q 2084 -63 1581 -63 
Q 953 -63 587 418 
Q 222 900 216 1625 
L 216 1716 
Q 216 2488 583 2966 
Q 950 3444 1588 3444 
Q 2147 3444 2456 3063 
L 2491 3381 
L 3309 3381 
L 3309 116 
Q 3309 -581 2857 -956 
Q 2406 -1331 1681 -1331 
z
M 1119 1650 
Q 1119 1244 1286 958 
Q 1453 672 1809 672 
Q 2222 672 2403 984 
L 2403 2403 
Q 2225 2713 1816 2713 
Q 1463 2713 1291 2423 
Q 1119 2134 1119 1716 
L 1119 1650 
z
" transform="scale(0.015625)"/>
       <path id="Roboto-Bold-43" d="M 3044 1516 
L 3981 1516 
Q 3934 822 3461 379 
Q 2988 -63 2150 -63 
Q 1275 -63 772 526 
Q 269 1116 269 2125 
L 269 2422 
Q 269 3431 784 4023 
Q 1300 4616 2159 4616 
Q 3013 4616 3466 4161 
Q 3919 3706 3984 3006 
L 3047 3006 
Q 3016 3413 2820 3630 
Q 2625 3847 2159 3847 
Q 1247 3847 1222 2500 
L 1222 2125 
Q 1222 1419 1436 1062 
Q 1650 706 2150 706 
Q 2594 706 2801 907 
Q 3009 1109 3044 1516 
z
" transform="scale(0.015625)"/>
       <path id="Roboto-Bold-4e" d="M 4109 4550 
L 4109 0 
L 3172 0 
L 1347 2997 
L 1347 0 
L 406 0 
L 406 4550 
L 1347 4550 
L 3172 1550 
L 3172 4550 
L 4109 4550 
z
" transform="scale(0.015625)"/>
       <path id="Roboto-Bold-28" d="M 391 1850 
Q 391 2731 633 3392 
Q 875 4053 1234 4473 
Q 1594 4894 1947 5053 
L 2122 4566 
Q 1772 4303 1465 3661 
Q 1159 3019 1153 1906 
L 1153 1772 
Q 1153 628 1461 -23 
Q 1769 -675 2122 -944 
L 1947 -1422 
Q 1594 -1266 1234 -845 
Q 875 -425 633 237 
Q 391 900 391 1778 
L 391 1850 
z
" transform="scale(0.015625)"/>
       <path id="Roboto-Bold-29" d="M 1906 1778 
Q 1906 928 1656 264 
Q 1406 -400 1034 -833 
Q 663 -1266 300 -1422 
L 125 -944 
Q 472 -684 780 -37 
Q 1088 609 1094 1722 
L 1094 1856 
Q 1094 3000 780 3656 
Q 466 4313 125 4572 
L 300 5053 
Q 663 4894 1034 4461 
Q 1406 4028 1656 3364 
Q 1906 2700 1906 1847 
L 1906 1778 
z
" transform="scale(0.015625)"/>
      </defs>
      <use xlink:href="#Roboto-Bold-67" transform="translate(0 0.046875)"/>
      <use xlink:href="#Roboto-Bold-43" transform="translate(58.053398 -15.801563)scale(0.7)"/>
      <use xlink:href="#Roboto-Bold-4e" transform="translate(103.888359 -15.801563)scale(0.7)"/>
      <use xlink:href="#Roboto-Bold-28" transform="translate(155.987773 0.046875)"/>
      <use xlink:href="#Roboto-Bold-72" transform="translate(191.095195 0.046875)"/>
      <use xlink:href="#Roboto-Bold-29" transform="translate(227.618633 0.046875)"/>
     </g>
    </g>
   </g>
   <g id="patch_3">
    <path d="M 31.874927 201.167885 
L 31.874927 3.00024 
" style="fill: none; stroke: #c2c1c1; stroke-width: 0.8; stroke-linejoin: miter; stroke-linecap: square"/>
   </g>
   <g id="patch_4">
    <path d="M 225.432651 201.167885 
L 225.432651 3.00024 
" style="fill: none; stroke: #c2c1c1; stroke-width: 0.8; stroke-linejoin: miter; stroke-linecap: square"/>
   </g>
   <g id="patch_5">
    <path d="M 31.874927 201.167885 
L 225.432651 201.167885 
" style="fill: none; stroke: #c2c1c1; stroke-width: 0.8; stroke-linejoin: miter; stroke-linecap: square"/>
   </g>
   <g id="patch_6">
    <path d="M 31.874927 3.00024 
L 225.432651 3.00024 
" style="fill: none; stroke: #c2c1c1; stroke-width: 0.8; stroke-linejoin: miter; stroke-linecap: square"/>
   </g>
   <g id="legend_1">
    <g id="line2d_22">
     <path d="M 112.861401 13.40024 
L 120.861401 13.40024 
L 128.861401 13.40024 
" style="fill: none; stroke: #61bfa3; stroke-width: 2; stroke-linecap: square"/>
    </g>
    <g id="text_17">
     <!-- mbGDML -->
     <g transform="translate(135.261401 16.20024)scale(0.08 -0.08)">
      <defs>
       <path id="Roboto-Regular-6d" d="M 1794 2956 
Q 1225 2956 1016 2478 
L 1016 0 
L 434 0 
L 434 3381 
L 984 3381 
L 1000 3013 
Q 1366 3444 2000 3444 
Q 2325 3444 2579 3314 
Q 2834 3184 2969 2900 
Q 3138 3144 3408 3294 
Q 3678 3444 4044 3444 
Q 4588 3444 4883 3153 
Q 5178 2863 5178 2222 
L 5178 0 
L 4597 0 
L 4597 2228 
Q 4597 2653 4401 2804 
Q 4206 2956 3875 2956 
Q 3525 2956 3325 2748 
Q 3125 2541 3094 2244 
L 3094 0 
L 2516 0 
L 2516 2225 
Q 2516 2622 2319 2789 
Q 2122 2956 1794 2956 
z
" transform="scale(0.015625)"/>
       <path id="Roboto-Regular-62" d="M 3303 1653 
Q 3303 913 2959 425 
Q 2616 -63 1988 -63 
Q 1347 -63 1000 391 
L 969 0 
L 438 0 
L 438 4800 
L 1019 4800 
L 1019 3016 
Q 1363 3444 1981 3444 
Q 2619 3444 2961 2969 
Q 3303 2494 3303 1719 
L 3303 1653 
z
M 1838 2956 
Q 1522 2956 1325 2804 
Q 1128 2653 1019 2431 
L 1019 959 
Q 1131 734 1331 581 
Q 1531 428 1844 428 
Q 2313 428 2517 789 
Q 2722 1150 2722 1653 
L 2722 1719 
Q 2722 2222 2526 2589 
Q 2331 2956 1838 2956 
z
" transform="scale(0.015625)"/>
       <path id="Roboto-Regular-47" d="M 3891 2266 
L 3891 600 
Q 3763 413 3403 175 
Q 3044 -63 2281 -63 
Q 1450 -63 915 507 
Q 381 1078 381 2100 
L 381 2453 
Q 381 3469 856 4041 
Q 1331 4613 2213 4613 
Q 2994 4613 3398 4219 
Q 3803 3825 3891 3219 
L 3288 3219 
Q 3225 3588 2979 3853 
Q 2734 4119 2213 4119 
Q 1584 4119 1287 3676 
Q 991 3234 988 2475 
L 988 2100 
Q 988 1313 1344 870 
Q 1700 428 2284 428 
Q 2769 428 2984 542 
Q 3200 656 3291 759 
L 3291 1778 
L 2238 1778 
L 2238 2266 
L 3891 2266 
z
" transform="scale(0.015625)"/>
       <path id="Roboto-Regular-44" d="M 528 0 
L 528 4550 
L 1816 4550 
Q 2713 4550 3267 3973 
Q 3822 3397 3822 2409 
L 3822 2138 
Q 3822 1150 3264 575 
Q 2706 0 1759 0 
L 528 0 
z
M 1131 4056 
L 1131 491 
L 1759 491 
Q 2488 491 2856 941 
Q 3225 1391 3225 2138 
L 3225 2416 
Q 3225 3200 2856 3628 
Q 2488 4056 1816 4056 
L 1131 4056 
z
" transform="scale(0.015625)"/>
       <path id="Roboto-Regular-4d" d="M 2794 841 
L 4281 4550 
L 5056 4550 
L 5056 0 
L 4456 0 
L 4456 1775 
L 4516 3678 
L 3019 0 
L 2563 0 
L 1069 3684 
L 1128 1775 
L 1128 0 
L 528 0 
L 528 4550 
L 1303 4550 
L 2794 841 
z
" transform="scale(0.015625)"/>
       <path id="Roboto-Regular-4c" d="M 3288 491 
L 3288 0 
L 528 0 
L 528 4550 
L 1131 4550 
L 1131 491 
L 3288 491 
z
" transform="scale(0.015625)"/>
      </defs>
      <use xlink:href="#Roboto-Regular-6d"/>
      <use xlink:href="#Roboto-Regular-62" x="87.695312"/>
      <use xlink:href="#Roboto-Regular-47" x="143.847656"/>
      <use xlink:href="#Roboto-Regular-44" x="211.962891"/>
      <use xlink:href="#Roboto-Regular-4d" x="277.587891"/>
      <use xlink:href="#Roboto-Regular-4c" x="364.892578"/>
     </g>
    </g>
    <g id="line2d_23">
     <path d="M 112.861401 25.02524 
L 120.861401 25.02524 
L 128.861401 25.02524 
" style="fill: none; stroke-dasharray: 10,8; stroke-dashoffset: 0; stroke: #6c757d; stroke-width: 2"/>
    </g>
    <g id="text_18">
     <!-- Experimental -->
     <g transform="translate(135.261401 27.82524)scale(0.08 -0.08)">
      <defs>
       <path id="Roboto-Regular-45" d="M 528 0 
L 528 4550 
L 3388 4550 
L 3388 4056 
L 1131 4056 
L 1131 2594 
L 3100 2594 
L 3100 2103 
L 1131 2103 
L 1131 491 
L 3419 491 
L 3419 0 
L 528 0 
z
" transform="scale(0.015625)"/>
       <path id="Roboto-Regular-78" d="M 831 3381 
L 1572 2150 
L 2322 3381 
L 3000 3381 
L 1894 1713 
L 3034 0 
L 2366 0 
L 1584 1269 
L 803 0 
L 131 0 
L 1269 1713 
L 166 3381 
L 831 3381 
z
" transform="scale(0.015625)"/>
       <path id="Roboto-Regular-70" d="M 1984 -63 
Q 1375 -63 1019 328 
L 1019 -1300 
L 438 -1300 
L 438 3381 
L 969 3381 
L 997 3009 
Q 1353 3444 1975 3444 
Q 2616 3444 2956 2969 
Q 3297 2494 3297 1719 
L 3297 1653 
Q 3297 913 2955 425 
Q 2613 -63 1984 -63 
z
M 1806 2956 
Q 1281 2956 1019 2491 
L 1019 872 
Q 1284 413 1813 413 
Q 2281 413 2498 781 
Q 2716 1150 2716 1653 
L 2716 1719 
Q 2716 2222 2498 2589 
Q 2281 2956 1806 2956 
z
" transform="scale(0.015625)"/>
       <path id="Roboto-Regular-65" d="M 3116 591 
Q 2950 341 2647 139 
Q 2344 -63 1844 -63 
Q 1138 -63 714 396 
Q 291 856 291 1572 
L 291 1703 
Q 291 2256 502 2645 
Q 713 3034 1050 3239 
Q 1388 3444 1769 3444 
Q 2494 3444 2826 2970 
Q 3159 2497 3159 1788 
L 3159 1528 
L 872 1528 
Q 884 1063 1148 736 
Q 1413 409 1875 409 
Q 2181 409 2393 534 
Q 2606 659 2766 869 
L 3116 591 
z
M 1769 2969 
Q 1425 2969 1187 2719 
Q 950 2469 891 2000 
L 2581 2000 
L 2581 2044 
Q 2559 2381 2386 2675 
Q 2213 2969 1769 2969 
z
" transform="scale(0.015625)"/>
       <path id="Roboto-Regular-72" d="M 1791 2888 
Q 1225 2888 1019 2400 
L 1019 0 
L 441 0 
L 441 3381 
L 1003 3381 
L 1016 2994 
Q 1294 3444 1819 3444 
Q 1981 3444 2075 3400 
L 2072 2863 
Q 1944 2888 1791 2888 
z
" transform="scale(0.015625)"/>
       <path id="Roboto-Regular-69" d="M 444 4278 
Q 444 4419 530 4516 
Q 616 4613 784 4613 
Q 950 4613 1039 4516 
Q 1128 4419 1128 4278 
Q 1128 4144 1039 4048 
Q 950 3953 784 3953 
Q 616 3953 530 4048 
Q 444 4144 444 4278 
z
M 1069 3381 
L 1069 0 
L 488 0 
L 488 3381 
L 1069 3381 
z
" transform="scale(0.015625)"/>
       <path id="Roboto-Regular-6e" d="M 1844 2956 
Q 1566 2956 1353 2806 
Q 1141 2656 1019 2416 
L 1019 0 
L 441 0 
L 441 3381 
L 988 3381 
L 1006 2959 
Q 1391 3444 2016 3444 
Q 2513 3444 2805 3166 
Q 3097 2888 3100 2231 
L 3100 0 
L 2519 0 
L 2519 2222 
Q 2519 2619 2345 2787 
Q 2172 2956 1844 2956 
z
" transform="scale(0.015625)"/>
       <path id="Roboto-Regular-74" d="M 1872 0 
Q 1675 -63 1425 -63 
Q 1103 -63 875 134 
Q 647 331 647 841 
L 647 2938 
L 28 2938 
L 28 3381 
L 647 3381 
L 647 4203 
L 1225 4203 
L 1225 3381 
L 1856 3381 
L 1856 2938 
L 1225 2938 
L 1225 838 
Q 1225 578 1337 506 
Q 1450 434 1597 434 
Q 1706 434 1869 472 
L 1872 0 
z
" transform="scale(0.015625)"/>
       <path id="Roboto-Regular-61" d="M 2528 0 
Q 2472 122 2447 356 
Q 2284 184 2040 60 
Q 1797 -63 1484 -63 
Q 966 -63 653 228 
Q 341 519 341 941 
Q 341 1484 753 1767 
Q 1166 2050 1863 2050 
L 2434 2050 
L 2434 2319 
Q 2434 2619 2254 2798 
Q 2075 2978 1722 2978 
Q 1394 2978 1192 2817 
Q 991 2656 991 2444 
L 413 2444 
Q 413 2806 778 3125 
Q 1144 3444 1756 3444 
Q 2306 3444 2659 3162 
Q 3013 2881 3013 2313 
L 3013 794 
Q 3013 325 3131 50 
L 3131 0 
L 2528 0 
z
M 1569 444 
Q 1881 444 2111 600 
Q 2341 756 2434 947 
L 2434 1644 
L 1897 1644 
Q 922 1625 922 1019 
Q 922 778 1084 611 
Q 1247 444 1569 444 
z
" transform="scale(0.015625)"/>
       <path id="Roboto-Regular-6c" d="M 1069 4800 
L 1069 0 
L 488 0 
L 488 4800 
L 1069 4800 
z
" transform="scale(0.015625)"/>
      </defs>
      <use xlink:href="#Roboto-Regular-45"/>
      <use xlink:href="#Roboto-Regular-78" x="56.835938"/>
      <use xlink:href="#Roboto-Regular-70" x="106.445312"/>
      <use xlink:href="#Roboto-Regular-65" x="162.597656"/>
      <use xlink:href="#Roboto-Regular-72" x="215.625"/>
      <use xlink:href="#Roboto-Regular-69" x="249.511719"/>
      <use xlink:href="#Roboto-Regular-6d" x="273.828125"/>
      <use xlink:href="#Roboto-Regular-65" x="361.523438"/>
      <use xlink:href="#Roboto-Regular-6e" x="414.550781"/>
      <use xlink:href="#Roboto-Regular-74" x="469.775391"/>
      <use xlink:href="#Roboto-Regular-61" x="502.490234"/>
      <use xlink:href="#Roboto-Regular-6c" x="556.884766"/>
     </g>
    </g>
    <g id="line2d_24">
     <path d="M 112.861401 36.65024 
L 120.861401 36.65024 
L 128.861401 36.65024 
" style="fill: none; stroke: #f0ebf5; stroke-width: 2; stroke-linecap: square"/>
    </g>
    <g id="text_19">
     <!-- Albertí et al. -->
     <g transform="translate(135.261401 39.45024)scale(0.08 -0.08)">
      <defs>
       <path id="Roboto-Regular-41" d="M 91 0 
L 1825 4550 
L 2353 4550 
L 4094 0 
L 3475 0 
L 3041 1191 
L 1138 1191 
L 706 0 
L 91 0 
z
M 1319 1684 
L 2863 1684 
L 2091 3806 
L 1319 1684 
z
" transform="scale(0.015625)"/>
       <path id="Roboto-Regular-ed" d="M 1066 3381 
L 1066 0 
L 488 0 
L 488 3381 
L 1066 3381 
z
M 469 3875 
L 1075 4794 
L 1772 4794 
L 934 3875 
L 469 3875 
z
" transform="scale(0.015625)"/>
       <path id="Roboto-Regular-20" transform="scale(0.015625)"/>
      </defs>
      <use xlink:href="#Roboto-Regular-41"/>
      <use xlink:href="#Roboto-Regular-6c" x="65.234375"/>
      <use xlink:href="#Roboto-Regular-62" x="89.550781"/>
      <use xlink:href="#Roboto-Regular-65" x="145.703125"/>
      <use xlink:href="#Roboto-Regular-72" x="198.730469"/>
      <use xlink:href="#Roboto-Regular-74" x="232.617188"/>
      <use xlink:href="#Roboto-Regular-ed" x="265.332031"/>
      <use xlink:href="#Roboto-Regular-20" x="290.087891"/>
      <use xlink:href="#Roboto-Regular-65" x="314.892578"/>
      <use xlink:href="#Roboto-Regular-74" x="367.919922"/>
      <use xlink:href="#Roboto-Regular-20" x="400.634766"/>
      <use xlink:href="#Roboto-Regular-61" x="425.439453"/>
      <use xlink:href="#Roboto-Regular-6c" x="479.833984"/>
      <use xlink:href="#Roboto-Regular-2e" x="504.150391"/>
     </g>
    </g>
    <g id="line2d_25">
     <path d="M 112.861401 48.27524 
L 120.861401 48.27524 
L 128.861401 48.27524 
" style="fill: none; stroke: #e2d7ea; stroke-width: 2; stroke-linecap: square"/>
    </g>
    <g id="text_20">
     <!-- Hernández-Cobos et al. -->
     <g transform="translate(135.261401 51.07524)scale(0.08 -0.08)">
      <defs>
       <path id="Roboto-Regular-48" d="M 3425 0 
L 3425 2103 
L 1131 2103 
L 1131 0 
L 528 0 
L 528 4550 
L 1131 4550 
L 1131 2594 
L 3425 2594 
L 3425 4550 
L 4025 4550 
L 4025 0 
L 3425 0 
z
" transform="scale(0.015625)"/>
       <path id="Roboto-Regular-e1" d="M 2528 0 
Q 2472 122 2447 356 
Q 2284 184 2040 60 
Q 1797 -63 1484 -63 
Q 966 -63 653 228 
Q 341 519 341 941 
Q 341 1484 753 1767 
Q 1166 2050 1863 2050 
L 2434 2050 
L 2434 2319 
Q 2434 2619 2254 2798 
Q 2075 2978 1722 2978 
Q 1394 2978 1192 2817 
Q 991 2656 991 2444 
L 413 2444 
Q 413 2806 778 3125 
Q 1144 3444 1756 3444 
Q 2306 3444 2659 3162 
Q 3013 2881 3013 2313 
L 3013 794 
Q 3013 325 3131 50 
L 3131 0 
L 2528 0 
z
M 1569 444 
Q 1881 444 2111 600 
Q 2341 756 2434 947 
L 2434 1644 
L 1897 1644 
Q 922 1625 922 1019 
Q 922 778 1084 611 
Q 1247 444 1569 444 
z
M 1500 3881 
L 2106 4800 
L 2803 4800 
L 1966 3881 
L 1500 3881 
z
" transform="scale(0.015625)"/>
       <path id="Roboto-Regular-64" d="M 2622 0 
L 2594 363 
Q 2247 -63 1628 -63 
Q 1034 -63 668 418 
Q 303 900 297 1628 
L 297 1719 
Q 297 2494 664 2969 
Q 1031 3444 1634 3444 
Q 2231 3444 2572 3044 
L 2572 4800 
L 3153 4800 
L 3153 0 
L 2622 0 
z
M 878 1653 
Q 878 1150 1090 789 
Q 1303 428 1772 428 
Q 2309 428 2572 919 
L 2572 2475 
Q 2313 2956 1778 2956 
Q 1306 2956 1092 2589 
Q 878 2222 878 1719 
L 878 1653 
z
" transform="scale(0.015625)"/>
       <path id="Roboto-Regular-7a" d="M 303 2903 
L 303 3381 
L 2869 3381 
L 2869 2972 
L 988 475 
L 2959 475 
L 2959 0 
L 278 0 
L 278 425 
L 2141 2903 
L 303 2903 
z
" transform="scale(0.015625)"/>
       <path id="Roboto-Regular-2d" d="M 1644 2172 
L 1644 1697 
L 119 1697 
L 119 2172 
L 1644 2172 
z
" transform="scale(0.015625)"/>
       <path id="Roboto-Regular-43" d="M 3275 1447 
L 3875 1447 
Q 3806 800 3387 368 
Q 2969 -63 2150 -63 
Q 1356 -63 870 504 
Q 384 1072 375 2013 
L 375 2500 
Q 375 3456 867 4034 
Q 1359 4613 2203 4613 
Q 2975 4613 3390 4188 
Q 3806 3763 3875 3091 
L 3275 3091 
Q 3206 3566 2968 3842 
Q 2731 4119 2203 4119 
Q 1600 4119 1287 3675 
Q 975 3231 975 2506 
L 975 2047 
Q 975 1375 1259 901 
Q 1544 428 2150 428 
Q 2725 428 2961 697 
Q 3197 966 3275 1447 
z
" transform="scale(0.015625)"/>
       <path id="Roboto-Regular-6f" d="M 288 1725 
Q 288 2459 700 2951 
Q 1113 3444 1822 3444 
Q 2531 3444 2943 2961 
Q 3356 2478 3366 1756 
L 3366 1653 
Q 3366 919 2952 428 
Q 2538 -63 1828 -63 
Q 1116 -63 702 428 
Q 288 919 288 1653 
L 288 1725 
z
M 866 1653 
Q 866 1150 1105 781 
Q 1344 413 1828 413 
Q 2300 413 2540 777 
Q 2781 1141 2784 1644 
L 2784 1725 
Q 2784 2222 2543 2595 
Q 2303 2969 1822 2969 
Q 1344 2969 1105 2595 
Q 866 2222 866 1725 
L 866 1653 
z
" transform="scale(0.015625)"/>
       <path id="Roboto-Regular-73" d="M 2409 897 
Q 2409 1081 2273 1229 
Q 2138 1378 1647 1478 
Q 1081 1594 747 1814 
Q 413 2034 413 2456 
Q 413 2856 755 3150 
Q 1097 3444 1666 3444 
Q 2272 3444 2612 3134 
Q 2953 2825 2953 2388 
L 2375 2388 
Q 2375 2597 2190 2783 
Q 2006 2969 1666 2969 
Q 1306 2969 1150 2812 
Q 994 2656 994 2472 
Q 994 2288 1139 2173 
Q 1284 2059 1756 1953 
Q 2378 1813 2683 1584 
Q 2988 1356 2988 941 
Q 2988 494 2630 215 
Q 2272 -63 1681 -63 
Q 1009 -63 653 281 
Q 297 625 297 1044 
L 878 1044 
Q 897 684 1155 548 
Q 1413 413 1681 413 
Q 2034 413 2221 550 
Q 2409 688 2409 897 
z
" transform="scale(0.015625)"/>
      </defs>
      <use xlink:href="#Roboto-Regular-48"/>
      <use xlink:href="#Roboto-Regular-65" x="71.337891"/>
      <use xlink:href="#Roboto-Regular-72" x="124.365234"/>
      <use xlink:href="#Roboto-Regular-6e" x="158.251953"/>
      <use xlink:href="#Roboto-Regular-e1" x="213.476562"/>
      <use xlink:href="#Roboto-Regular-6e" x="267.871094"/>
      <use xlink:href="#Roboto-Regular-64" x="323.095703"/>
      <use xlink:href="#Roboto-Regular-65" x="379.492188"/>
      <use xlink:href="#Roboto-Regular-7a" x="432.519531"/>
      <use xlink:href="#Roboto-Regular-2d" x="482.128906"/>
      <use xlink:href="#Roboto-Regular-43" x="509.765625"/>
      <use xlink:href="#Roboto-Regular-6f" x="574.853516"/>
      <use xlink:href="#Roboto-Regular-62" x="631.884766"/>
      <use xlink:href="#Roboto-Regular-6f" x="688.037109"/>
      <use xlink:href="#Roboto-Regular-73" x="745.068359"/>
      <use xlink:href="#Roboto-Regular-20" x="796.679688"/>
      <use xlink:href="#Roboto-Regular-65" x="821.484375"/>
      <use xlink:href="#Roboto-Regular-74" x="874.511719"/>
      <use xlink:href="#Roboto-Regular-20" x="907.226562"/>
      <use xlink:href="#Roboto-Regular-61" x="932.03125"/>
      <use xlink:href="#Roboto-Regular-6c" x="986.425781"/>
      <use xlink:href="#Roboto-Regular-2e" x="1010.742188"/>
     </g>
    </g>
    <g id="line2d_26">
     <path d="M 112.861401 59.90024 
L 120.861401 59.90024 
L 128.861401 59.90024 
" style="fill: none; stroke: #c5b0d4; stroke-width: 2; stroke-linecap: square"/>
    </g>
    <g id="text_21">
     <!-- Koverga et al. -->
     <g transform="translate(135.261401 62.70024)scale(0.08 -0.08)">
      <defs>
       <path id="Roboto-Regular-4b" d="M 3297 0 
L 1688 2119 
L 1131 1541 
L 1131 0 
L 528 0 
L 528 4550 
L 1131 4550 
L 1131 2306 
L 3153 4550 
L 3878 4550 
L 2091 2541 
L 4016 0 
L 3297 0 
z
" transform="scale(0.015625)"/>
       <path id="Roboto-Regular-76" d="M 2984 3381 
L 1769 0 
L 1328 0 
L 103 3381 
L 697 3381 
L 1556 791 
L 2394 3381 
L 2984 3381 
z
" transform="scale(0.015625)"/>
       <path id="Roboto-Regular-67" d="M 1725 -1334 
Q 1463 -1334 1081 -1206 
Q 700 -1078 472 -747 
L 775 -403 
Q 1150 -859 1681 -859 
Q 2091 -859 2334 -629 
Q 2578 -400 2578 44 
L 2578 341 
Q 2234 -63 1631 -63 
Q 1022 -63 662 425 
Q 303 913 303 1653 
L 303 1719 
Q 303 2494 661 2969 
Q 1019 3444 1638 3444 
Q 2259 3444 2603 3006 
L 2631 3381 
L 3156 3381 
L 3156 72 
Q 3156 -600 2756 -967 
Q 2356 -1334 1725 -1334 
z
M 881 1653 
Q 881 1150 1092 789 
Q 1303 428 1772 428 
Q 2322 428 2578 928 
L 2578 2469 
Q 2469 2678 2275 2817 
Q 2081 2956 1778 2956 
Q 1306 2956 1093 2589 
Q 881 2222 881 1719 
L 881 1653 
z
" transform="scale(0.015625)"/>
      </defs>
      <use xlink:href="#Roboto-Regular-4b"/>
      <use xlink:href="#Roboto-Regular-6f" x="62.744141"/>
      <use xlink:href="#Roboto-Regular-76" x="119.775391"/>
      <use xlink:href="#Roboto-Regular-65" x="168.212891"/>
      <use xlink:href="#Roboto-Regular-72" x="221.240234"/>
      <use xlink:href="#Roboto-Regular-67" x="255.126953"/>
      <use xlink:href="#Roboto-Regular-61" x="311.279297"/>
      <use xlink:href="#Roboto-Regular-20" x="365.673828"/>
      <use xlink:href="#Roboto-Regular-65" x="390.478516"/>
      <use xlink:href="#Roboto-Regular-74" x="443.505859"/>
      <use xlink:href="#Roboto-Regular-20" x="476.220703"/>
      <use xlink:href="#Roboto-Regular-61" x="501.025391"/>
      <use xlink:href="#Roboto-Regular-6c" x="555.419922"/>
      <use xlink:href="#Roboto-Regular-2e" x="579.736328"/>
     </g>
    </g>
    <g id="line2d_27">
     <path d="M 112.861401 71.56774 
L 120.861401 71.56774 
L 128.861401 71.56774 
" style="fill: none; stroke: #9d7ab8; stroke-width: 2; stroke-linecap: square"/>
    </g>
    <g id="text_22">
     <!-- Kowsari et al. -->
     <g transform="translate(135.261401 74.36774)scale(0.08 -0.08)">
      <defs>
       <path id="Roboto-Regular-77" d="M 4659 3381 
L 3678 0 
L 3209 0 
L 2388 2559 
L 1588 0 
L 1116 0 
L 134 3381 
L 713 3381 
L 1378 856 
L 2166 3381 
L 2631 3381 
L 3431 803 
L 4084 3381 
L 4659 3381 
z
" transform="scale(0.015625)"/>
      </defs>
      <use xlink:href="#Roboto-Regular-4b"/>
      <use xlink:href="#Roboto-Regular-6f" x="62.744141"/>
      <use xlink:href="#Roboto-Regular-77" x="119.775391"/>
      <use xlink:href="#Roboto-Regular-73" x="194.921875"/>
      <use xlink:href="#Roboto-Regular-61" x="246.533203"/>
      <use xlink:href="#Roboto-Regular-72" x="300.927734"/>
      <use xlink:href="#Roboto-Regular-69" x="334.814453"/>
      <use xlink:href="#Roboto-Regular-20" x="359.130859"/>
      <use xlink:href="#Roboto-Regular-65" x="383.935547"/>
      <use xlink:href="#Roboto-Regular-74" x="436.962891"/>
      <use xlink:href="#Roboto-Regular-20" x="469.677734"/>
      <use xlink:href="#Roboto-Regular-61" x="494.482422"/>
      <use xlink:href="#Roboto-Regular-6c" x="548.876953"/>
      <use xlink:href="#Roboto-Regular-2e" x="573.193359"/>
     </g>
    </g>
   </g>
  </g>
 </g>
 <defs>
  <clipPath id="p479d0b7139">
   <rect x="31.874927" y="3.00024" width="193.557723" height="198.167645"/>
  </clipPath>
 </defs>
</svg>
