<?xml version="1.0" encoding="utf-8" standalone="no"?>
<!DOCTYPE svg PUBLIC "-//W3C//DTD SVG 1.1//EN"
  "http://www.w3.org/Graphics/SVG/1.1/DTD/svg11.dtd">
<svg xmlns:xlink="http://www.w3.org/1999/xlink" width="230.4pt" height="230.4pt" viewBox="0 0 230.4 230.4" xmlns="http://www.w3.org/2000/svg" version="1.1">
 <metadata>
  <rdf:RDF xmlns:dc="http://purl.org/dc/elements/1.1/" xmlns:cc="http://creativecommons.org/ns#" xmlns:rdf="http://www.w3.org/1999/02/22-rdf-syntax-ns#">
   <cc:Work>
    <dc:type rdf:resource="http://purl.org/dc/dcmitype/StillImage"/>
    <dc:date>2022-12-25T23:04:26.661570</dc:date>
    <dc:format>image/svg+xml</dc:format>
    <dc:creator>
     <cc:Agent>
      <dc:title>Matplotlib v3.5.2, https://matplotlib.org/</dc:title>
     </cc:Agent>
    </dc:creator>
   </cc:Work>
  </rdf:RDF>
 </metadata>
 <defs>
  <style type="text/css">*{stroke-linejoin: round; stroke-linecap: butt}</style>
 </defs>
 <g id="figure_1">
  <g id="patch_1">
   <path d="M 0 230.4 
L 230.4 230.4 
L 230.4 0 
L 0 0 
z
" style="fill: #ffffff"/>
  </g>
  <g id="axes_1">
   <g id="patch_2">
    <path d="M 31.794928 201.167885 
L 225.432651 201.167885 
L 225.432651 3.00024 
L 31.794928 3.00024 
z
" style="fill: #ffffff"/>
   </g>
   <g id="line2d_1">
    <path d="M -1 201.167885 
L 52.269557 201.167885 
L 60.110905 200.769718 
L 63.704856 198.778884 
L 65.665193 195.991716 
L 66.972084 193.204548 
L 68.605698 188.824712 
L 69.91259 183.250376 
L 71.219481 176.879707 
L 72.526372 169.314536 
L 74.159986 160.554866 
L 75.140155 151.397028 
L 76.773769 141.442856 
L 78.08066 130.692351 
L 79.714274 119.941846 
L 81.021165 109.589508 
L 82.328057 99.237169 
L 83.634948 89.282998 
L 84.941839 79.726993 
L 86.24873 70.569156 
L 87.882344 62.207652 
L 89.189236 53.447981 
L 90.496127 46.280977 
L 91.803018 39.910308 
L 93.10991 33.937805 
L 94.743524 28.761636 
L 96.050415 24.3818 
L 97.357306 20.001965 
L 98.99092 16.418463 
L 101.27798 13.631295 
L 103.56504 12.436795 
L 106.505545 13.631295 
L 108.792605 16.418463 
L 110.426219 20.001965 
L 112.059833 23.1873 
L 113.366724 27.168968 
L 115.000338 30.75247 
L 116.30723 35.132305 
L 117.940844 40.308475 
L 119.574458 44.68831 
L 120.881349 49.068145 
L 122.18824 53.447981 
L 123.821854 57.429649 
L 125.128746 61.411318 
L 126.435637 65.392987 
L 128.069251 68.578321 
L 129.702865 72.55999 
L 131.336479 76.541659 
L 133.623539 79.726993 
L 135.257153 83.310495 
L 137.21749 86.49583 
L 140.157995 90.477499 
L 142.771778 95.255501 
L 145.712283 98.839003 
L 148.979511 102.422504 
L 152.573462 105.209672 
L 156.494136 107.200507 
L 160.41481 107.99684 
L 164.008761 107.99684 
L 167.929435 107.99684 
L 171.523386 107.598673 
L 174.790614 106.404173 
L 178.057842 105.209672 
L 181.32507 103.617005 
L 184.592298 101.626171 
L 187.532804 99.635336 
L 190.473309 97.246335 
L 193.413815 95.255501 
L 196.027597 92.468333 
L 198.968102 90.079332 
L 201.581885 87.690331 
L 203.868945 85.301329 
L 206.482727 82.912328 
L 208.769787 81.319661 
L 211.710292 79.328827 
L 214.324075 78.134326 
L 217.26458 76.541659 
L 221.185254 74.948991 
L 224.779205 74.152657 
L 228.373156 73.754491 
L 231.4 73.385619 
" clip-path="url(#pf4acbc7ba8)" style="fill: none; stroke: #f0ebf5; stroke-width: 2; stroke-linecap: square"/>
   </g>
   <g id="line2d_2">
    <path d="M -1 201.167885 
L 19.682609 201.167885 
L 41.197912 201.167885 
L 45.532847 201.167885 
L 51.015264 201.167885 
L 55.477697 199.791515 
L 59.557637 193.03481 
L 61.087615 188.029838 
L 62.107599 182.774622 
L 63.000087 178.270139 
L 63.765073 173.515412 
L 64.530065 168.260195 
L 65.295051 163.004979 
L 65.932542 158.000007 
L 66.570032 152.494536 
L 67.207523 147.990063 
L 67.845013 142.234347 
L 68.482503 136.979121 
L 69.374991 130.472661 
L 70.012481 124.466691 
L 70.777468 118.96122 
L 71.669956 111.203517 
L 72.307446 106.198545 
L 73.072438 100.693074 
L 73.96492 95.187603 
L 74.838811 89.411485 
L 76.132389 82.424928 
L 77.279874 76.669213 
L 78.554854 71.914485 
L 79.957331 67.159763 
L 81.614806 63.155784 
L 84.164772 59.652305 
L 86.714734 58.401062 
L 88.882198 58.401062 
L 90.922165 59.402056 
L 92.962142 60.653298 
L 94.747108 61.654292 
L 96.532083 63.406034 
L 98.189562 64.657277 
L 100.102033 66.15877 
L 102.014505 67.660262 
L 103.926976 68.911505 
L 105.584445 69.912499 
L 107.369421 70.913492 
L 109.281892 71.413991 
L 111.321859 71.914485 
L 113.106835 71.914485 
L 115.019306 71.914485 
L 116.931777 71.914485 
L 118.971745 71.163741 
L 121.011722 70.162748 
L 122.924193 69.16175 
L 124.836665 68.160756 
L 126.62163 66.909513 
L 128.151613 65.90852 
L 129.936588 65.157776 
L 131.976556 65.157776 
L 133.889027 66.15877 
L 135.674002 67.910507 
L 137.203976 69.912499 
L 138.606453 72.414984 
L 140.00893 75.167715 
L 141.411408 77.670201 
L 142.94139 80.673186 
L 144.726366 83.175672 
L 146.383834 85.928413 
L 148.16881 88.180644 
L 149.82629 89.682142 
L 151.483758 90.933385 
L 153.523726 91.934373 
L 155.6912 92.434872 
L 157.858663 92.685117 
L 160.026135 92.434872 
L 162.321096 92.434872 
L 164.233576 92.685117 
L 166.273535 92.685117 
L 168.058519 93.185616 
L 170.225983 93.43587 
L 172.520944 94.186614 
L 174.305918 94.687113 
L 176.218389 95.187603 
L 178.13086 95.688102 
L 179.915845 96.188601 
L 181.828316 96.6891 
L 183.868275 96.939345 
L 185.653259 97.189599 
L 187.820723 97.439844 
L 189.988186 97.189599 
L 192.155651 96.939345 
L 194.578125 96.438846 
L 196.873077 95.688102 
L 199.149675 95.098999 
L 201.463016 94.186614 
L 203.641085 93.108364 
L 205.814349 91.970865 
L 207.987614 91.11774 
L 210.515378 89.682142 
L 212.913681 88.558355 
L 215.666485 87.420851 
L 218.998842 85.714592 
L 221.172107 84.861467 
L 222.910715 84.292717 
L 224.794222 83.155217 
" clip-path="url(#pf4acbc7ba8)" style="fill: none; stroke: #e2d7ea; stroke-width: 2; stroke-linecap: square"/>
   </g>
   <g id="line2d_3">
    <path d="M -1 201.167885 
L 52.473803 201.167885 
L 58.278394 198.69289 
L 61.180698 194.32523 
L 62.994623 187.337002 
L 65.171347 177.728187 
L 66.985305 166.809057 
L 68.436432 156.326706 
L 69.524794 145.844354 
L 70.975954 134.925244 
L 72.064316 123.569357 
L 73.152678 113.087005 
L 74.603838 101.731138 
L 75.6922 92.122302 
L 77.143327 81.203193 
L 78.957286 70.720841 
L 80.771211 60.23849 
L 82.585136 50.192896 
L 88.026946 43.641426 
L 92.380393 46.262014 
L 96.73384 53.250262 
L 101.450086 61.548784 
L 106.529097 69.847305 
L 111.245343 75.525259 
L 115.59879 79.019363 
L 120.677801 79.456141 
L 125.756845 74.214965 
L 130.473058 67.663495 
L 134.826505 68.537011 
L 139.542751 75.962017 
L 143.896199 83.387023 
L 148.612444 89.501714 
L 152.965892 92.55908 
L 158.407701 93.432596 
L 163.486712 93.432596 
L 170.016883 93.869374 
L 175.458692 93.869374 
L 180.900502 93.869374 
L 186.342311 93.869374 
L 192.146919 92.995838 
L 197.951493 92.122302 
L 204.118899 89.938492 
L 209.19791 89.064956 
L 218.267603 86.881127 
L 222.983816 85.134075 
L 228.06286 83.823781 
L 231.4 83.288093 
" clip-path="url(#pf4acbc7ba8)" style="fill: none; stroke: #c5b0d4; stroke-width: 2; stroke-linecap: square"/>
   </g>
   <g id="line2d_4">
    <path d="M -1 201.167885 
L 58.556819 201.167885 
L 63.703336 198.885065 
L 68.163662 185.188124 
L 71.937764 163.273019 
L 74.682579 141.357914 
L 77.084282 120.355945 
L 79.829112 95.701452 
L 82.2308 74.699473 
L 86.004933 52.784367 
L 90.808339 33.60865 
L 96.297969 25.390486 
L 101.101374 29.043 
L 106.934084 36.348038 
L 114.139208 50.044979 
L 121.344333 64.655046 
L 128.549458 75.612598 
L 137.126997 86.570151 
L 145.018314 95.701452 
L 155.654461 101.180228 
L 162.859585 101.180228 
L 171.437125 98.44084 
L 180.357745 95.701452 
L 188.935285 91.135801 
L 197.512793 86.570151 
L 213.638569 82.917637 
L 224.274684 82.004511 
L 231.4 82.004511 
" clip-path="url(#pf4acbc7ba8)" style="fill: none; stroke: #9d7ab8; stroke-width: 2; stroke-linecap: square"/>
   </g>
   <g id="line2d_5">
    <path d="M -1 201.167885 
L 54.719678 201.167885 
L 57.77632 199.27605 
L 60.52729 191.078047 
L 62.972588 176.889228 
L 66.02923 150.403434 
L 68.7802 118.872731 
L 71.836843 93.332858 
L 74.28214 68.738906 
L 77.033111 57.703154 
L 79.784081 52.658246 
L 82.535051 50.135784 
L 85.286021 53.604167 
L 88.036991 54.86539 
L 91.093633 62.117458 
L 93.844603 67.162366 
L 96.595573 71.261368 
L 99.346543 75.675657 
L 102.403158 78.513421 
L 104.848483 82.612423 
L 107.293781 83.873646 
L 110.350423 85.450186 
L 112.795721 84.504265 
L 115.852363 86.396107 
L 118.603333 85.13487 
L 121.659948 81.981804 
L 124.105274 78.828738 
L 127.161888 75.045053 
L 129.301541 69.369518 
L 135.109154 64.324603 
L 137.860124 68.108287 
L 141.222411 72.207289 
L 143.973381 78.198119 
L 146.724351 81.666501 
L 148.864004 84.188948 
L 151.920618 87.972633 
L 154.671588 87.342029 
L 157.422558 88.28795 
L 160.479201 86.71141 
L 162.924498 89.549173 
L 165.369824 88.603252 
L 168.732111 89.864476 
L 171.177409 91.125714 
L 173.928379 92.071635 
L 177.290694 92.702239 
L 179.735991 95.224701 
L 182.181289 93.332858 
L 185.543604 95.85532 
L 188.600219 95.540003 
L 193.490841 94.278779 
L 199.298454 93.963477 
L 201.743751 93.017556 
L 207.245691 92.071635 
L 213.358949 89.864476 
L 218.249572 86.396107 
L 223.751512 85.765488 
L 228.947779 83.873646 
L 231.4 83.241249 
" clip-path="url(#pf4acbc7ba8)" style="fill: none; stroke: #754f92; stroke-width: 2; stroke-linecap: square"/>
   </g>
   <g id="line2d_6">
    <path d="M 31.794928 87.026719 
L 225.432651 87.026719 
" clip-path="url(#pf4acbc7ba8)" style="fill: none; stroke-dasharray: 1.5,6; stroke-dashoffset: 0; stroke: #c0c0c0; stroke-width: 1.5"/>
   </g>
   <g id="line2d_7">
    <path d="M -1 201.167885 
L -0.016984 201.167885 
L 2.749269 201.167885 
L 5.515522 201.167885 
L 8.281775 201.167885 
L 11.048029 201.167885 
L 13.814282 201.167885 
L 16.580535 201.167885 
L 19.346788 201.167885 
L 22.113041 201.167885 
L 24.879295 201.167885 
L 27.645548 201.167885 
L 30.411801 201.167885 
L 33.178054 201.167885 
L 35.944307 201.145049 
L 38.71056 201.08448 
L 41.476814 200.7356 
L 44.243067 200.391381 
L 47.00932 198.790194 
L 49.775573 195.417464 
L 52.541826 189.228637 
L 55.30808 178.774547 
L 58.074333 162.26879 
L 60.840586 144.038129 
L 63.606839 127.40855 
L 66.373092 107.002299 
L 69.139346 90.874296 
L 71.905599 78.325966 
L 74.671852 71.183805 
L 77.438105 67.707441 
L 80.204358 66.727884 
L 82.970611 66.995284 
L 85.736865 68.769857 
L 88.503118 74.543253 
L 91.269371 76.188037 
L 94.035624 78.008879 
L 96.801877 80.555936 
L 99.568131 84.585621 
L 102.334384 85.117398 
L 105.100637 84.417132 
L 107.86689 85.671264 
L 110.633143 86.759341 
L 113.399397 84.045794 
L 116.16565 83.584257 
L 118.931903 81.390081 
L 121.698156 77.478014 
L 124.464409 73.924633 
L 127.230662 72.270023 
L 129.996916 71.281807 
L 132.763169 69.781995 
L 135.529422 71.935144 
L 138.295675 73.546406 
L 141.061928 76.637491 
L 143.828182 80.037824 
L 146.594435 80.920624 
L 149.360688 81.917504 
L 152.126941 83.794076 
L 154.893194 84.264791 
L 157.659448 84.793876 
L 160.425701 85.621912 
L 163.191954 86.817366 
L 165.958207 87.432525 
L 168.72446 88.698443 
L 171.490713 88.366952 
L 174.256967 87.724879 
L 177.02322 89.747932 
L 179.789473 90.191024 
L 182.555726 89.586299 
L 185.321979 89.841052 
L 188.088233 89.43976 
L 190.854486 89.374653 
L 193.620739 89.353716 
L 196.386992 89.761624 
L 199.153245 89.283459 
L 201.919499 89.335453 
L 204.685752 88.833868 
L 207.452005 88.66861 
L 210.218258 87.927839 
L 212.984511 86.33678 
L 215.750764 86.397562 
L 218.517018 85.746251 
L 221.283271 85.335595 
L 224.049524 85.215536 
" clip-path="url(#pf4acbc7ba8)" style="fill: none; stroke: #61bfa3; stroke-width: 2; stroke-linecap: square"/>
   </g>
   <g id="line2d_8">
    <path d="M -1 201.167885 
L 48.596081 201.167885 
L 55.384445 200.108562 
L 60.051423 190.04508 
L 62.172789 179.981599 
L 64.294156 169.388443 
L 65.566971 158.265639 
L 67.264053 147.142834 
L 68.536869 136.549679 
L 69.809684 125.956547 
L 71.506766 114.833743 
L 73.203866 104.240588 
L 74.900948 93.117783 
L 77.022314 82.524628 
L 79.143661 72.461146 
L 82.537843 61.338341 
L 85.932025 54.452803 
L 89.750472 49.685887 
L 92.296104 47.567242 
L 96.963082 49.685887 
L 103.751446 55.512102 
L 110.964056 63.986636 
L 117.75242 70.342524 
L 124.116499 76.698413 
L 130.056294 81.994978 
L 135.571842 86.761895 
L 141.935921 93.647432 
L 150.421347 97.35505 
L 158.482527 96.825376 
L 166.543706 93.647432 
L 174.180601 89.939839 
L 181.393211 88.350867 
L 189.878637 86.761895 
L 198.364102 85.702572 
L 208.122344 86.761895 
L 218.30487 86.232245 
L 229.335928 86.761895 
L 231.4 86.66279 
" clip-path="url(#pf4acbc7ba8)" style="fill: none; stroke-dasharray: 10,8; stroke-dashoffset: 0; stroke: #6c757d; stroke-width: 2"/>
   </g>
   <g id="matplotlib.axis_1">
    <g id="xtick_1">
     <g id="line2d_9">
      <defs>
       <path id="m21cd533900" d="M 0 0 
L 0 3.5 
" style="stroke: #c2c1c1; stroke-width: 0.8"/>
      </defs>
      <g>
       <use xlink:href="#m21cd533900" x="31.794928" y="201.167885" style="fill: #c2c1c1; stroke: #c2c1c1; stroke-width: 0.8"/>
      </g>
     </g>
     <g id="text_1">
      <!-- 2 -->
      <g style="fill: #191919" transform="translate(29.827818 213.417885)scale(0.07 -0.07)">
       <defs>
        <path id="Roboto-Regular-32" d="M 3359 475 
L 3359 0 
L 381 0 
L 381 416 
L 1925 2134 
Q 2306 2566 2439 2819 
Q 2572 3072 2572 3328 
Q 2572 3663 2364 3900 
Q 2156 4138 1778 4138 
Q 1322 4138 1097 3878 
Q 872 3619 872 3213 
L 294 3213 
Q 294 3788 672 4200 
Q 1050 4613 1778 4613 
Q 2422 4613 2786 4278 
Q 3150 3944 3150 3397 
Q 3150 2997 2903 2592 
Q 2656 2188 2297 1797 
L 1078 475 
L 3359 475 
z
" transform="scale(0.015625)"/>
       </defs>
       <use xlink:href="#Roboto-Regular-32"/>
      </g>
     </g>
    </g>
    <g id="xtick_2">
     <g id="line2d_10">
      <g>
       <use xlink:href="#m21cd533900" x="59.457459" y="201.167885" style="fill: #c2c1c1; stroke: #c2c1c1; stroke-width: 0.8"/>
      </g>
     </g>
     <g id="text_2">
      <!-- 3 -->
      <g style="fill: #191919" transform="translate(57.49035 213.417885)scale(0.07 -0.07)">
       <defs>
        <path id="Roboto-Regular-33" d="M 1222 2084 
L 1222 2559 
L 1647 2559 
Q 2094 2563 2312 2784 
Q 2531 3006 2531 3338 
Q 2531 4138 1738 4138 
Q 1369 4138 1141 3927 
Q 913 3716 913 3359 
L 334 3359 
Q 334 3881 720 4247 
Q 1106 4613 1738 4613 
Q 2353 4613 2733 4286 
Q 3113 3959 3113 3325 
Q 3113 3072 2942 2784 
Q 2772 2497 2397 2338 
Q 2850 2191 3015 1884 
Q 3181 1578 3181 1269 
Q 3181 631 2768 284 
Q 2356 -63 1741 -63 
Q 1147 -63 722 267 
Q 297 597 297 1203 
L 875 1203 
Q 875 844 1108 628 
Q 1341 413 1741 413 
Q 2138 413 2369 622 
Q 2600 831 2600 1256 
Q 2600 1681 2337 1882 
Q 2075 2084 1634 2084 
L 1222 2084 
z
" transform="scale(0.015625)"/>
       </defs>
       <use xlink:href="#Roboto-Regular-33"/>
      </g>
     </g>
    </g>
    <g id="xtick_3">
     <g id="line2d_11">
      <g>
       <use xlink:href="#m21cd533900" x="87.119991" y="201.167885" style="fill: #c2c1c1; stroke: #c2c1c1; stroke-width: 0.8"/>
      </g>
     </g>
     <g id="text_3">
      <!-- 4 -->
      <g style="fill: #191919" transform="translate(85.152882 213.417885)scale(0.07 -0.07)">
       <defs>
        <path id="Roboto-Regular-34" d="M 166 1397 
L 2203 4550 
L 2819 4550 
L 2819 1531 
L 3453 1531 
L 3453 1056 
L 2819 1056 
L 2819 0 
L 2241 0 
L 2241 1056 
L 166 1056 
L 166 1397 
z
M 822 1531 
L 2241 1531 
L 2241 3766 
L 2169 3638 
L 822 1531 
z
" transform="scale(0.015625)"/>
       </defs>
       <use xlink:href="#Roboto-Regular-34"/>
      </g>
     </g>
    </g>
    <g id="xtick_4">
     <g id="line2d_12">
      <g>
       <use xlink:href="#m21cd533900" x="114.782523" y="201.167885" style="fill: #c2c1c1; stroke: #c2c1c1; stroke-width: 0.8"/>
      </g>
     </g>
     <g id="text_4">
      <!-- 5 -->
      <g style="fill: #191919" transform="translate(112.815414 213.417885)scale(0.07 -0.07)">
       <defs>
        <path id="Roboto-Regular-35" d="M 1109 2166 
L 647 2284 
L 875 4550 
L 3209 4550 
L 3209 4016 
L 1366 4016 
L 1228 2778 
Q 1572 2975 1988 2975 
Q 2616 2975 2980 2561 
Q 3344 2147 3344 1450 
Q 3344 797 2987 367 
Q 2631 -63 1903 -63 
Q 1350 -63 947 248 
Q 544 559 481 1197 
L 1031 1197 
Q 1141 413 1903 413 
Q 2313 413 2538 691 
Q 2763 969 2763 1444 
Q 2763 1872 2527 2164 
Q 2291 2456 1853 2456 
Q 1563 2456 1413 2378 
Q 1263 2300 1109 2166 
z
" transform="scale(0.015625)"/>
       </defs>
       <use xlink:href="#Roboto-Regular-35"/>
      </g>
     </g>
    </g>
    <g id="xtick_5">
     <g id="line2d_13">
      <g>
       <use xlink:href="#m21cd533900" x="142.445055" y="201.167885" style="fill: #c2c1c1; stroke: #c2c1c1; stroke-width: 0.8"/>
      </g>
     </g>
     <g id="text_5">
      <!-- 6 -->
      <g style="fill: #191919" transform="translate(140.477946 213.417885)scale(0.07 -0.07)">
       <defs>
        <path id="Roboto-Regular-36" d="M 3291 1484 
Q 3291 838 2930 387 
Q 2569 -63 1878 -63 
Q 1388 -63 1063 198 
Q 738 459 577 861 
Q 416 1263 416 1684 
L 416 1956 
Q 416 2597 595 3194 
Q 775 3791 1247 4173 
Q 1719 4556 2597 4556 
L 2647 4556 
L 2647 4066 
Q 2041 4066 1705 3853 
Q 1369 3641 1205 3302 
Q 1041 2963 1006 2575 
Q 1369 2984 1984 2984 
Q 2438 2984 2727 2765 
Q 3016 2547 3153 2201 
Q 3291 1856 3291 1484 
z
M 997 1666 
Q 997 1059 1267 737 
Q 1538 416 1878 416 
Q 2278 416 2498 708 
Q 2719 1000 2719 1456 
Q 2719 1863 2516 2184 
Q 2313 2506 1891 2506 
Q 1588 2506 1341 2325 
Q 1094 2144 997 1884 
L 997 1666 
z
" transform="scale(0.015625)"/>
       </defs>
       <use xlink:href="#Roboto-Regular-36"/>
      </g>
     </g>
    </g>
    <g id="xtick_6">
     <g id="line2d_14">
      <g>
       <use xlink:href="#m21cd533900" x="170.107587" y="201.167885" style="fill: #c2c1c1; stroke: #c2c1c1; stroke-width: 0.8"/>
      </g>
     </g>
     <g id="text_6">
      <!-- 7 -->
      <g style="fill: #191919" transform="translate(168.140478 213.417885)scale(0.07 -0.07)">
       <defs>
        <path id="Roboto-Regular-37" d="M 3319 4550 
L 3319 4225 
L 1434 0 
L 825 0 
L 2706 4075 
L 244 4075 
L 244 4550 
L 3319 4550 
z
" transform="scale(0.015625)"/>
       </defs>
       <use xlink:href="#Roboto-Regular-37"/>
      </g>
     </g>
    </g>
    <g id="xtick_7">
     <g id="line2d_15">
      <g>
       <use xlink:href="#m21cd533900" x="197.770119" y="201.167885" style="fill: #c2c1c1; stroke: #c2c1c1; stroke-width: 0.8"/>
      </g>
     </g>
     <g id="text_7">
      <!-- 8 -->
      <g style="fill: #191919" transform="translate(195.803009 213.417885)scale(0.07 -0.07)">
       <defs>
        <path id="Roboto-Regular-38" d="M 3244 1231 
Q 3244 606 2826 271 
Q 2409 -63 1796 -63 
Q 1184 -63 767 271 
Q 350 606 350 1231 
Q 350 1613 554 1905 
Q 759 2197 1109 2347 
Q 806 2494 629 2762 
Q 453 3031 453 3366 
Q 453 3963 833 4288 
Q 1213 4613 1794 4613 
Q 2378 4613 2758 4288 
Q 3138 3963 3138 3366 
Q 3138 3028 2956 2761 
Q 2775 2494 2472 2347 
Q 2825 2197 3034 1903 
Q 3244 1609 3244 1231 
z
M 2559 3356 
Q 2559 3697 2346 3917 
Q 2134 4138 1793 4138 
Q 1453 4138 1243 3927 
Q 1034 3716 1034 3356 
Q 1034 3003 1243 2790 
Q 1453 2578 1797 2578 
Q 2138 2578 2348 2790 
Q 2559 3003 2559 3356 
z
M 2663 1244 
Q 2663 1625 2420 1865 
Q 2178 2106 1791 2106 
Q 1394 2106 1161 1865 
Q 928 1625 928 1244 
Q 928 850 1161 631 
Q 1394 413 1797 413 
Q 2200 413 2431 631 
Q 2663 850 2663 1244 
z
" transform="scale(0.015625)"/>
       </defs>
       <use xlink:href="#Roboto-Regular-38"/>
      </g>
     </g>
    </g>
    <g id="xtick_8">
     <g id="line2d_16">
      <g>
       <use xlink:href="#m21cd533900" x="225.432651" y="201.167885" style="fill: #c2c1c1; stroke: #c2c1c1; stroke-width: 0.8"/>
      </g>
     </g>
     <g id="text_8">
      <!-- 9 -->
      <g style="fill: #191919" transform="translate(223.465541 213.417885)scale(0.07 -0.07)">
       <defs>
        <path id="Roboto-Regular-39" d="M 3175 2563 
Q 3175 2119 3098 1667 
Q 3022 1216 2801 836 
Q 2581 456 2151 225 
Q 1722 -6 953 -6 
L 953 484 
Q 1644 484 1980 700 
Q 2316 916 2448 1264 
Q 2581 1613 2597 2006 
Q 2416 1791 2162 1656 
Q 1909 1522 1613 1522 
Q 1163 1522 875 1747 
Q 588 1972 450 2320 
Q 313 2669 313 3041 
Q 313 3691 670 4152 
Q 1028 4613 1725 4613 
Q 2244 4613 2564 4344 
Q 2884 4075 3029 3653 
Q 3175 3231 3175 2772 
L 3175 2563 
z
M 881 3072 
Q 881 2666 1086 2334 
Q 1291 2003 1706 2003 
Q 2003 2003 2245 2181 
Q 2488 2359 2600 2622 
L 2600 2850 
Q 2600 3472 2336 3803 
Q 2072 4134 1725 4134 
Q 1322 4134 1101 3829 
Q 881 3525 881 3072 
z
" transform="scale(0.015625)"/>
       </defs>
       <use xlink:href="#Roboto-Regular-39"/>
      </g>
     </g>
    </g>
    <g id="text_9">
     <!-- r $\left( \mathbf{\AA} \right)$ -->
     <g style="fill: #191919" transform="translate(119.853789 225.77476)scale(0.08 -0.08)">
      <defs>
       <path id="Roboto-Black-72" d="M 1994 2453 
Q 1500 2453 1359 2144 
L 1359 0 
L 306 0 
L 306 3381 
L 1291 3381 
L 1325 2950 
Q 1591 3444 2069 3444 
Q 2244 3444 2359 3406 
L 2341 2428 
L 1994 2453 
z
" transform="scale(0.015625)"/>
       <path id="Roboto-Black-20" transform="scale(0.015625)"/>
       <path id="DejaVuSans-28" d="M 1984 4856 
Q 1566 4138 1362 3434 
Q 1159 2731 1159 2009 
Q 1159 1288 1364 580 
Q 1569 -128 1984 -844 
L 1484 -844 
Q 1016 -109 783 600 
Q 550 1309 550 2009 
Q 550 2706 781 3412 
Q 1013 4119 1484 4856 
L 1984 4856 
z
" transform="scale(0.015625)"/>
       <path id="DejaVuSans-Bold-c5" d="M 3225 4575 
L 4922 0 
L 3713 0 
L 3419 850 
L 1538 850 
L 1241 0 
L 31 0 
L 1728 4575 
Q 1656 4681 1622 4798 
Q 1588 4916 1588 5050 
Q 1588 5416 1848 5678 
Q 2109 5941 2478 5941 
Q 2841 5941 3103 5678 
Q 3366 5416 3366 5050 
Q 3366 4903 3331 4784 
Q 3297 4666 3225 4575 
z
M 2069 5050 
Q 2069 4881 2189 4761 
Q 2309 4641 2478 4641 
Q 2647 4641 2767 4761 
Q 2888 4881 2888 5050 
Q 2888 5219 2766 5339 
Q 2644 5459 2478 5459 
Q 2309 5459 2189 5339 
Q 2069 5219 2069 5050 
z
M 1838 1716 
L 3116 1716 
L 2478 3572 
L 1838 1716 
z
" transform="scale(0.015625)"/>
       <path id="DejaVuSans-29" d="M 513 4856 
L 1013 4856 
Q 1481 4119 1714 3412 
Q 1947 2706 1947 2009 
Q 1947 1309 1714 600 
Q 1481 -109 1013 -844 
L 513 -844 
Q 928 -128 1133 580 
Q 1338 1288 1338 2009 
Q 1338 2731 1133 3434 
Q 928 4138 513 4856 
z
" transform="scale(0.015625)"/>
      </defs>
      <use xlink:href="#Roboto-Black-72" transform="translate(0 0.171875)"/>
      <use xlink:href="#Roboto-Black-20" transform="translate(37.890625 0.171875)"/>
      <use xlink:href="#DejaVuSans-28" transform="translate(62.792969 0.171875)"/>
      <use xlink:href="#DejaVuSans-Bold-c5" transform="translate(101.806641 0.171875)"/>
      <use xlink:href="#DejaVuSans-29" transform="translate(179.199219 0.171875)"/>
     </g>
    </g>
   </g>
   <g id="matplotlib.axis_2">
    <g id="ytick_1">
     <g id="line2d_17">
      <defs>
       <path id="m653a956934" d="M 0 0 
L -3.5 0 
" style="stroke: #c2c1c1; stroke-width: 0.8"/>
      </defs>
      <g>
       <use xlink:href="#m653a956934" x="31.794928" y="201.167885" style="fill: #c2c1c1; stroke: #c2c1c1; stroke-width: 0.8"/>
      </g>
     </g>
     <g id="text_10">
      <!-- 0.0 -->
      <g style="fill: #191919" transform="translate(15.08024 203.792885)scale(0.07 -0.07)">
       <defs>
        <path id="Roboto-Regular-30" d="M 3234 1944 
Q 3234 825 2848 381 
Q 2463 -63 1800 -63 
Q 1156 -63 764 368 
Q 372 800 359 1872 
L 359 2638 
Q 359 3753 750 4183 
Q 1141 4613 1794 4613 
Q 2447 4613 2834 4195 
Q 3222 3778 3234 2709 
L 3234 1944 
z
M 2653 2734 
Q 2653 3503 2434 3822 
Q 2216 4141 1794 4141 
Q 1388 4141 1167 3831 
Q 947 3522 941 2778 
L 941 1850 
Q 941 1088 1164 750 
Q 1388 413 1800 413 
Q 2222 413 2436 745 
Q 2650 1078 2653 1825 
L 2653 2734 
z
" transform="scale(0.015625)"/>
        <path id="Roboto-Regular-2e" d="M 450 306 
Q 450 453 542 554 
Q 634 656 809 656 
Q 984 656 1076 554 
Q 1169 453 1169 306 
Q 1169 163 1076 62 
Q 984 -38 809 -38 
Q 634 -38 542 62 
Q 450 163 450 306 
z
" transform="scale(0.015625)"/>
       </defs>
       <use xlink:href="#Roboto-Regular-30"/>
       <use xlink:href="#Roboto-Regular-2e" x="56.201172"/>
       <use xlink:href="#Roboto-Regular-30" x="82.568359"/>
      </g>
     </g>
    </g>
    <g id="ytick_2">
     <g id="line2d_18">
      <g>
       <use xlink:href="#m653a956934" x="31.794928" y="178.339652" style="fill: #c2c1c1; stroke: #c2c1c1; stroke-width: 0.8"/>
      </g>
     </g>
     <g id="text_11">
      <!-- 0.2 -->
      <g style="fill: #191919" transform="translate(15.08024 180.964652)scale(0.07 -0.07)">
       <use xlink:href="#Roboto-Regular-30"/>
       <use xlink:href="#Roboto-Regular-2e" x="56.201172"/>
       <use xlink:href="#Roboto-Regular-32" x="82.568359"/>
      </g>
     </g>
    </g>
    <g id="ytick_3">
     <g id="line2d_19">
      <g>
       <use xlink:href="#m653a956934" x="31.794928" y="155.511419" style="fill: #c2c1c1; stroke: #c2c1c1; stroke-width: 0.8"/>
      </g>
     </g>
     <g id="text_12">
      <!-- 0.4 -->
      <g style="fill: #191919" transform="translate(15.08024 158.136419)scale(0.07 -0.07)">
       <use xlink:href="#Roboto-Regular-30"/>
       <use xlink:href="#Roboto-Regular-2e" x="56.201172"/>
       <use xlink:href="#Roboto-Regular-34" x="82.568359"/>
      </g>
     </g>
    </g>
    <g id="ytick_4">
     <g id="line2d_20">
      <g>
       <use xlink:href="#m653a956934" x="31.794928" y="132.683186" style="fill: #c2c1c1; stroke: #c2c1c1; stroke-width: 0.8"/>
      </g>
     </g>
     <g id="text_13">
      <!-- 0.6 -->
      <g style="fill: #191919" transform="translate(15.08024 135.308186)scale(0.07 -0.07)">
       <use xlink:href="#Roboto-Regular-30"/>
       <use xlink:href="#Roboto-Regular-2e" x="56.201172"/>
       <use xlink:href="#Roboto-Regular-36" x="82.568359"/>
      </g>
     </g>
    </g>
    <g id="ytick_5">
     <g id="line2d_21">
      <g>
       <use xlink:href="#m653a956934" x="31.794928" y="109.854952" style="fill: #c2c1c1; stroke: #c2c1c1; stroke-width: 0.8"/>
      </g>
     </g>
     <g id="text_14">
      <!-- 0.8 -->
      <g style="fill: #191919" transform="translate(15.08024 112.479952)scale(0.07 -0.07)">
       <use xlink:href="#Roboto-Regular-30"/>
       <use xlink:href="#Roboto-Regular-2e" x="56.201172"/>
       <use xlink:href="#Roboto-Regular-38" x="82.568359"/>
      </g>
     </g>
    </g>
    <g id="ytick_6">
     <g id="line2d_22">
      <g>
       <use xlink:href="#m653a956934" x="31.794928" y="87.026719" style="fill: #c2c1c1; stroke: #c2c1c1; stroke-width: 0.8"/>
      </g>
     </g>
     <g id="text_15">
      <!-- 1.0 -->
      <g style="fill: #191919" transform="translate(15.08024 89.651719)scale(0.07 -0.07)">
       <defs>
        <path id="Roboto-Regular-31" d="M 2278 4575 
L 2278 0 
L 1700 0 
L 1700 3853 
L 534 3428 
L 534 3950 
L 2188 4575 
L 2278 4575 
z
" transform="scale(0.015625)"/>
       </defs>
       <use xlink:href="#Roboto-Regular-31"/>
       <use xlink:href="#Roboto-Regular-2e" x="56.201172"/>
       <use xlink:href="#Roboto-Regular-30" x="82.568359"/>
      </g>
     </g>
    </g>
    <g id="ytick_7">
     <g id="line2d_23">
      <g>
       <use xlink:href="#m653a956934" x="31.794928" y="64.198486" style="fill: #c2c1c1; stroke: #c2c1c1; stroke-width: 0.8"/>
      </g>
     </g>
     <g id="text_16">
      <!-- 1.2 -->
      <g style="fill: #191919" transform="translate(15.08024 66.823486)scale(0.07 -0.07)">
       <use xlink:href="#Roboto-Regular-31"/>
       <use xlink:href="#Roboto-Regular-2e" x="56.201172"/>
       <use xlink:href="#Roboto-Regular-32" x="82.568359"/>
      </g>
     </g>
    </g>
    <g id="ytick_8">
     <g id="line2d_24">
      <g>
       <use xlink:href="#m653a956934" x="31.794928" y="41.370253" style="fill: #c2c1c1; stroke: #c2c1c1; stroke-width: 0.8"/>
      </g>
     </g>
     <g id="text_17">
      <!-- 1.4 -->
      <g style="fill: #191919" transform="translate(15.08024 43.995253)scale(0.07 -0.07)">
       <use xlink:href="#Roboto-Regular-31"/>
       <use xlink:href="#Roboto-Regular-2e" x="56.201172"/>
       <use xlink:href="#Roboto-Regular-34" x="82.568359"/>
      </g>
     </g>
    </g>
    <g id="ytick_9">
     <g id="line2d_25">
      <g>
       <use xlink:href="#m653a956934" x="31.794928" y="18.54202" style="fill: #c2c1c1; stroke: #c2c1c1; stroke-width: 0.8"/>
      </g>
     </g>
     <g id="text_18">
      <!-- 1.6 -->
      <g style="fill: #191919" transform="translate(15.08024 21.16702)scale(0.07 -0.07)">
       <use xlink:href="#Roboto-Regular-31"/>
       <use xlink:href="#Roboto-Regular-2e" x="56.201172"/>
       <use xlink:href="#Roboto-Regular-36" x="82.568359"/>
      </g>
     </g>
    </g>
    <g id="text_19">
     <!-- g$\mathregular{_{NN}}$(r) -->
     <g style="fill: #191919" transform="translate(9.32024 112.804063)rotate(-90)scale(0.08 -0.08)">
      <defs>
       <path id="Roboto-Black-67" d="M 1659 -1331 
Q 1319 -1331 966 -1203 
Q 613 -1075 403 -825 
L 844 -206 
Q 1147 -553 1622 -553 
Q 2313 -553 2322 119 
L 2322 275 
Q 2025 -63 1553 -63 
Q 913 -63 544 425 
Q 175 913 175 1650 
L 175 1716 
Q 175 2488 545 2966 
Q 916 3444 1559 3444 
Q 2091 3444 2384 3091 
L 2422 3381 
L 3378 3381 
L 3378 131 
Q 3378 -572 2904 -951 
Q 2431 -1331 1659 -1331 
z
M 1228 1650 
Q 1228 1269 1375 1009 
Q 1522 750 1822 750 
Q 2166 750 2322 981 
L 2322 2400 
Q 2172 2631 1828 2631 
Q 1531 2631 1379 2372 
Q 1228 2113 1228 1650 
z
" transform="scale(0.015625)"/>
       <path id="Roboto-Black-4e" d="M 4147 4550 
L 4147 0 
L 3053 0 
L 1444 2831 
L 1444 0 
L 347 0 
L 347 4550 
L 1444 4550 
L 3053 1719 
L 3053 4550 
L 4147 4550 
z
" transform="scale(0.015625)"/>
       <path id="Roboto-Black-28" d="M 378 1850 
Q 378 2713 608 3369 
Q 838 4025 1194 4444 
Q 1550 4863 1938 5019 
L 2134 4500 
Q 1788 4247 1505 3622 
Q 1222 2997 1216 1909 
L 1216 1756 
Q 1216 634 1500 1 
Q 1784 -631 2134 -888 
L 1938 -1406 
Q 1550 -1250 1195 -833 
Q 841 -416 612 229 
Q 384 875 378 1716 
L 378 1850 
z
" transform="scale(0.015625)"/>
       <path id="Roboto-Black-29" d="M 1956 1763 
Q 1956 941 1717 283 
Q 1478 -375 1104 -812 
Q 731 -1250 328 -1406 
L 125 -888 
Q 469 -634 753 -9 
Q 1038 616 1044 1703 
L 1044 1856 
Q 1044 2978 759 3611 
Q 475 4244 125 4500 
L 328 5019 
Q 731 4863 1104 4425 
Q 1478 3988 1717 3330 
Q 1956 2672 1956 1850 
L 1956 1763 
z
" transform="scale(0.015625)"/>
      </defs>
      <use xlink:href="#Roboto-Black-67" transform="translate(0 0.578125)"/>
      <use xlink:href="#Roboto-Black-4e" transform="translate(58.492852 -15.270313)scale(0.7)"/>
      <use xlink:href="#Roboto-Black-4e" transform="translate(107.643242 -15.270313)scale(0.7)"/>
      <use xlink:href="#Roboto-Black-28" transform="translate(159.435039 0.578125)"/>
      <use xlink:href="#Roboto-Black-72" transform="translate(194.737773 0.578125)"/>
      <use xlink:href="#Roboto-Black-29" transform="translate(232.628398 0.578125)"/>
     </g>
    </g>
   </g>
   <g id="patch_3">
    <path d="M 31.794928 201.167885 
L 31.794928 3.00024 
" style="fill: none; stroke: #c2c1c1; stroke-width: 0.8; stroke-linejoin: miter; stroke-linecap: square"/>
   </g>
   <g id="patch_4">
    <path d="M 225.432651 201.167885 
L 225.432651 3.00024 
" style="fill: none; stroke: #c2c1c1; stroke-width: 0.8; stroke-linejoin: miter; stroke-linecap: square"/>
   </g>
   <g id="patch_5">
    <path d="M 31.794928 201.167885 
L 225.432651 201.167885 
" style="fill: none; stroke: #c2c1c1; stroke-width: 0.8; stroke-linejoin: miter; stroke-linecap: square"/>
   </g>
   <g id="patch_6">
    <path d="M 31.794928 3.00024 
L 225.432651 3.00024 
" style="fill: none; stroke: #c2c1c1; stroke-width: 0.8; stroke-linejoin: miter; stroke-linecap: square"/>
   </g>
   <g id="legend_1">
    <g id="line2d_26">
     <path d="M 112.861401 119.750385 
L 120.861401 119.750385 
L 128.861401 119.750385 
" style="fill: none; stroke: #61bfa3; stroke-width: 2; stroke-linecap: square"/>
    </g>
    <g id="text_20">
     <!-- mbGDML -->
     <g transform="translate(135.261401 122.550385)scale(0.08 -0.08)">
      <defs>
       <path id="Roboto-Regular-6d" d="M 1794 2956 
Q 1225 2956 1016 2478 
L 1016 0 
L 434 0 
L 434 3381 
L 984 3381 
L 1000 3013 
Q 1366 3444 2000 3444 
Q 2325 3444 2579 3314 
Q 2834 3184 2969 2900 
Q 3138 3144 3408 3294 
Q 3678 3444 4044 3444 
Q 4588 3444 4883 3153 
Q 5178 2863 5178 2222 
L 5178 0 
L 4597 0 
L 4597 2228 
Q 4597 2653 4401 2804 
Q 4206 2956 3875 2956 
Q 3525 2956 3325 2748 
Q 3125 2541 3094 2244 
L 3094 0 
L 2516 0 
L 2516 2225 
Q 2516 2622 2319 2789 
Q 2122 2956 1794 2956 
z
" transform="scale(0.015625)"/>
       <path id="Roboto-Regular-62" d="M 3303 1653 
Q 3303 913 2959 425 
Q 2616 -63 1988 -63 
Q 1347 -63 1000 391 
L 969 0 
L 438 0 
L 438 4800 
L 1019 4800 
L 1019 3016 
Q 1363 3444 1981 3444 
Q 2619 3444 2961 2969 
Q 3303 2494 3303 1719 
L 3303 1653 
z
M 1838 2956 
Q 1522 2956 1325 2804 
Q 1128 2653 1019 2431 
L 1019 959 
Q 1131 734 1331 581 
Q 1531 428 1844 428 
Q 2313 428 2517 789 
Q 2722 1150 2722 1653 
L 2722 1719 
Q 2722 2222 2526 2589 
Q 2331 2956 1838 2956 
z
" transform="scale(0.015625)"/>
       <path id="Roboto-Regular-47" d="M 3891 2266 
L 3891 600 
Q 3763 413 3403 175 
Q 3044 -63 2281 -63 
Q 1450 -63 915 507 
Q 381 1078 381 2100 
L 381 2453 
Q 381 3469 856 4041 
Q 1331 4613 2213 4613 
Q 2994 4613 3398 4219 
Q 3803 3825 3891 3219 
L 3288 3219 
Q 3225 3588 2979 3853 
Q 2734 4119 2213 4119 
Q 1584 4119 1287 3676 
Q 991 3234 988 2475 
L 988 2100 
Q 988 1313 1344 870 
Q 1700 428 2284 428 
Q 2769 428 2984 542 
Q 3200 656 3291 759 
L 3291 1778 
L 2238 1778 
L 2238 2266 
L 3891 2266 
z
" transform="scale(0.015625)"/>
       <path id="Roboto-Regular-44" d="M 528 0 
L 528 4550 
L 1816 4550 
Q 2713 4550 3267 3973 
Q 3822 3397 3822 2409 
L 3822 2138 
Q 3822 1150 3264 575 
Q 2706 0 1759 0 
L 528 0 
z
M 1131 4056 
L 1131 491 
L 1759 491 
Q 2488 491 2856 941 
Q 3225 1391 3225 2138 
L 3225 2416 
Q 3225 3200 2856 3628 
Q 2488 4056 1816 4056 
L 1131 4056 
z
" transform="scale(0.015625)"/>
       <path id="Roboto-Regular-4d" d="M 2794 841 
L 4281 4550 
L 5056 4550 
L 5056 0 
L 4456 0 
L 4456 1775 
L 4516 3678 
L 3019 0 
L 2563 0 
L 1069 3684 
L 1128 1775 
L 1128 0 
L 528 0 
L 528 4550 
L 1303 4550 
L 2794 841 
z
" transform="scale(0.015625)"/>
       <path id="Roboto-Regular-4c" d="M 3288 491 
L 3288 0 
L 528 0 
L 528 4550 
L 1131 4550 
L 1131 491 
L 3288 491 
z
" transform="scale(0.015625)"/>
      </defs>
      <use xlink:href="#Roboto-Regular-6d"/>
      <use xlink:href="#Roboto-Regular-62" x="87.695312"/>
      <use xlink:href="#Roboto-Regular-47" x="143.847656"/>
      <use xlink:href="#Roboto-Regular-44" x="211.962891"/>
      <use xlink:href="#Roboto-Regular-4d" x="277.587891"/>
      <use xlink:href="#Roboto-Regular-4c" x="364.892578"/>
     </g>
    </g>
    <g id="line2d_27">
     <path d="M 112.861401 131.375385 
L 120.861401 131.375385 
L 128.861401 131.375385 
" style="fill: none; stroke-dasharray: 10,8; stroke-dashoffset: 0; stroke: #6c757d; stroke-width: 2"/>
    </g>
    <g id="text_21">
     <!-- Experimental -->
     <g transform="translate(135.261401 134.175385)scale(0.08 -0.08)">
      <defs>
       <path id="Roboto-Regular-45" d="M 528 0 
L 528 4550 
L 3388 4550 
L 3388 4056 
L 1131 4056 
L 1131 2594 
L 3100 2594 
L 3100 2103 
L 1131 2103 
L 1131 491 
L 3419 491 
L 3419 0 
L 528 0 
z
" transform="scale(0.015625)"/>
       <path id="Roboto-Regular-78" d="M 831 3381 
L 1572 2150 
L 2322 3381 
L 3000 3381 
L 1894 1713 
L 3034 0 
L 2366 0 
L 1584 1269 
L 803 0 
L 131 0 
L 1269 1713 
L 166 3381 
L 831 3381 
z
" transform="scale(0.015625)"/>
       <path id="Roboto-Regular-70" d="M 1984 -63 
Q 1375 -63 1019 328 
L 1019 -1300 
L 438 -1300 
L 438 3381 
L 969 3381 
L 997 3009 
Q 1353 3444 1975 3444 
Q 2616 3444 2956 2969 
Q 3297 2494 3297 1719 
L 3297 1653 
Q 3297 913 2955 425 
Q 2613 -63 1984 -63 
z
M 1806 2956 
Q 1281 2956 1019 2491 
L 1019 872 
Q 1284 413 1813 413 
Q 2281 413 2498 781 
Q 2716 1150 2716 1653 
L 2716 1719 
Q 2716 2222 2498 2589 
Q 2281 2956 1806 2956 
z
" transform="scale(0.015625)"/>
       <path id="Roboto-Regular-65" d="M 3116 591 
Q 2950 341 2647 139 
Q 2344 -63 1844 -63 
Q 1138 -63 714 396 
Q 291 856 291 1572 
L 291 1703 
Q 291 2256 502 2645 
Q 713 3034 1050 3239 
Q 1388 3444 1769 3444 
Q 2494 3444 2826 2970 
Q 3159 2497 3159 1788 
L 3159 1528 
L 872 1528 
Q 884 1063 1148 736 
Q 1413 409 1875 409 
Q 2181 409 2393 534 
Q 2606 659 2766 869 
L 3116 591 
z
M 1769 2969 
Q 1425 2969 1187 2719 
Q 950 2469 891 2000 
L 2581 2000 
L 2581 2044 
Q 2559 2381 2386 2675 
Q 2213 2969 1769 2969 
z
" transform="scale(0.015625)"/>
       <path id="Roboto-Regular-72" d="M 1791 2888 
Q 1225 2888 1019 2400 
L 1019 0 
L 441 0 
L 441 3381 
L 1003 3381 
L 1016 2994 
Q 1294 3444 1819 3444 
Q 1981 3444 2075 3400 
L 2072 2863 
Q 1944 2888 1791 2888 
z
" transform="scale(0.015625)"/>
       <path id="Roboto-Regular-69" d="M 444 4278 
Q 444 4419 530 4516 
Q 616 4613 784 4613 
Q 950 4613 1039 4516 
Q 1128 4419 1128 4278 
Q 1128 4144 1039 4048 
Q 950 3953 784 3953 
Q 616 3953 530 4048 
Q 444 4144 444 4278 
z
M 1069 3381 
L 1069 0 
L 488 0 
L 488 3381 
L 1069 3381 
z
" transform="scale(0.015625)"/>
       <path id="Roboto-Regular-6e" d="M 1844 2956 
Q 1566 2956 1353 2806 
Q 1141 2656 1019 2416 
L 1019 0 
L 441 0 
L 441 3381 
L 988 3381 
L 1006 2959 
Q 1391 3444 2016 3444 
Q 2513 3444 2805 3166 
Q 3097 2888 3100 2231 
L 3100 0 
L 2519 0 
L 2519 2222 
Q 2519 2619 2345 2787 
Q 2172 2956 1844 2956 
z
" transform="scale(0.015625)"/>
       <path id="Roboto-Regular-74" d="M 1872 0 
Q 1675 -63 1425 -63 
Q 1103 -63 875 134 
Q 647 331 647 841 
L 647 2938 
L 28 2938 
L 28 3381 
L 647 3381 
L 647 4203 
L 1225 4203 
L 1225 3381 
L 1856 3381 
L 1856 2938 
L 1225 2938 
L 1225 838 
Q 1225 578 1337 506 
Q 1450 434 1597 434 
Q 1706 434 1869 472 
L 1872 0 
z
" transform="scale(0.015625)"/>
       <path id="Roboto-Regular-61" d="M 2528 0 
Q 2472 122 2447 356 
Q 2284 184 2040 60 
Q 1797 -63 1484 -63 
Q 966 -63 653 228 
Q 341 519 341 941 
Q 341 1484 753 1767 
Q 1166 2050 1863 2050 
L 2434 2050 
L 2434 2319 
Q 2434 2619 2254 2798 
Q 2075 2978 1722 2978 
Q 1394 2978 1192 2817 
Q 991 2656 991 2444 
L 413 2444 
Q 413 2806 778 3125 
Q 1144 3444 1756 3444 
Q 2306 3444 2659 3162 
Q 3013 2881 3013 2313 
L 3013 794 
Q 3013 325 3131 50 
L 3131 0 
L 2528 0 
z
M 1569 444 
Q 1881 444 2111 600 
Q 2341 756 2434 947 
L 2434 1644 
L 1897 1644 
Q 922 1625 922 1019 
Q 922 778 1084 611 
Q 1247 444 1569 444 
z
" transform="scale(0.015625)"/>
       <path id="Roboto-Regular-6c" d="M 1069 4800 
L 1069 0 
L 488 0 
L 488 4800 
L 1069 4800 
z
" transform="scale(0.015625)"/>
      </defs>
      <use xlink:href="#Roboto-Regular-45"/>
      <use xlink:href="#Roboto-Regular-78" x="56.835938"/>
      <use xlink:href="#Roboto-Regular-70" x="106.445312"/>
      <use xlink:href="#Roboto-Regular-65" x="162.597656"/>
      <use xlink:href="#Roboto-Regular-72" x="215.625"/>
      <use xlink:href="#Roboto-Regular-69" x="249.511719"/>
      <use xlink:href="#Roboto-Regular-6d" x="273.828125"/>
      <use xlink:href="#Roboto-Regular-65" x="361.523438"/>
      <use xlink:href="#Roboto-Regular-6e" x="414.550781"/>
      <use xlink:href="#Roboto-Regular-74" x="469.775391"/>
      <use xlink:href="#Roboto-Regular-61" x="502.490234"/>
      <use xlink:href="#Roboto-Regular-6c" x="556.884766"/>
     </g>
    </g>
    <g id="line2d_28">
     <path d="M 112.861401 143.000385 
L 120.861401 143.000385 
L 128.861401 143.000385 
" style="fill: none; stroke: #f0ebf5; stroke-width: 2; stroke-linecap: square"/>
    </g>
    <g id="text_22">
     <!-- Albertí et al. -->
     <g transform="translate(135.261401 145.800385)scale(0.08 -0.08)">
      <defs>
       <path id="Roboto-Regular-41" d="M 91 0 
L 1825 4550 
L 2353 4550 
L 4094 0 
L 3475 0 
L 3041 1191 
L 1138 1191 
L 706 0 
L 91 0 
z
M 1319 1684 
L 2863 1684 
L 2091 3806 
L 1319 1684 
z
" transform="scale(0.015625)"/>
       <path id="Roboto-Regular-ed" d="M 1066 3381 
L 1066 0 
L 488 0 
L 488 3381 
L 1066 3381 
z
M 469 3875 
L 1075 4794 
L 1772 4794 
L 934 3875 
L 469 3875 
z
" transform="scale(0.015625)"/>
       <path id="Roboto-Regular-20" transform="scale(0.015625)"/>
      </defs>
      <use xlink:href="#Roboto-Regular-41"/>
      <use xlink:href="#Roboto-Regular-6c" x="65.234375"/>
      <use xlink:href="#Roboto-Regular-62" x="89.550781"/>
      <use xlink:href="#Roboto-Regular-65" x="145.703125"/>
      <use xlink:href="#Roboto-Regular-72" x="198.730469"/>
      <use xlink:href="#Roboto-Regular-74" x="232.617188"/>
      <use xlink:href="#Roboto-Regular-ed" x="265.332031"/>
      <use xlink:href="#Roboto-Regular-20" x="290.087891"/>
      <use xlink:href="#Roboto-Regular-65" x="314.892578"/>
      <use xlink:href="#Roboto-Regular-74" x="367.919922"/>
      <use xlink:href="#Roboto-Regular-20" x="400.634766"/>
      <use xlink:href="#Roboto-Regular-61" x="425.439453"/>
      <use xlink:href="#Roboto-Regular-6c" x="479.833984"/>
      <use xlink:href="#Roboto-Regular-2e" x="504.150391"/>
     </g>
    </g>
    <g id="line2d_29">
     <path d="M 112.861401 154.625385 
L 120.861401 154.625385 
L 128.861401 154.625385 
" style="fill: none; stroke: #e2d7ea; stroke-width: 2; stroke-linecap: square"/>
    </g>
    <g id="text_23">
     <!-- Hernández-Cobos et al. -->
     <g transform="translate(135.261401 157.425385)scale(0.08 -0.08)">
      <defs>
       <path id="Roboto-Regular-48" d="M 3425 0 
L 3425 2103 
L 1131 2103 
L 1131 0 
L 528 0 
L 528 4550 
L 1131 4550 
L 1131 2594 
L 3425 2594 
L 3425 4550 
L 4025 4550 
L 4025 0 
L 3425 0 
z
" transform="scale(0.015625)"/>
       <path id="Roboto-Regular-e1" d="M 2528 0 
Q 2472 122 2447 356 
Q 2284 184 2040 60 
Q 1797 -63 1484 -63 
Q 966 -63 653 228 
Q 341 519 341 941 
Q 341 1484 753 1767 
Q 1166 2050 1863 2050 
L 2434 2050 
L 2434 2319 
Q 2434 2619 2254 2798 
Q 2075 2978 1722 2978 
Q 1394 2978 1192 2817 
Q 991 2656 991 2444 
L 413 2444 
Q 413 2806 778 3125 
Q 1144 3444 1756 3444 
Q 2306 3444 2659 3162 
Q 3013 2881 3013 2313 
L 3013 794 
Q 3013 325 3131 50 
L 3131 0 
L 2528 0 
z
M 1569 444 
Q 1881 444 2111 600 
Q 2341 756 2434 947 
L 2434 1644 
L 1897 1644 
Q 922 1625 922 1019 
Q 922 778 1084 611 
Q 1247 444 1569 444 
z
M 1500 3881 
L 2106 4800 
L 2803 4800 
L 1966 3881 
L 1500 3881 
z
" transform="scale(0.015625)"/>
       <path id="Roboto-Regular-64" d="M 2622 0 
L 2594 363 
Q 2247 -63 1628 -63 
Q 1034 -63 668 418 
Q 303 900 297 1628 
L 297 1719 
Q 297 2494 664 2969 
Q 1031 3444 1634 3444 
Q 2231 3444 2572 3044 
L 2572 4800 
L 3153 4800 
L 3153 0 
L 2622 0 
z
M 878 1653 
Q 878 1150 1090 789 
Q 1303 428 1772 428 
Q 2309 428 2572 919 
L 2572 2475 
Q 2313 2956 1778 2956 
Q 1306 2956 1092 2589 
Q 878 2222 878 1719 
L 878 1653 
z
" transform="scale(0.015625)"/>
       <path id="Roboto-Regular-7a" d="M 303 2903 
L 303 3381 
L 2869 3381 
L 2869 2972 
L 988 475 
L 2959 475 
L 2959 0 
L 278 0 
L 278 425 
L 2141 2903 
L 303 2903 
z
" transform="scale(0.015625)"/>
       <path id="Roboto-Regular-2d" d="M 1644 2172 
L 1644 1697 
L 119 1697 
L 119 2172 
L 1644 2172 
z
" transform="scale(0.015625)"/>
       <path id="Roboto-Regular-43" d="M 3275 1447 
L 3875 1447 
Q 3806 800 3387 368 
Q 2969 -63 2150 -63 
Q 1356 -63 870 504 
Q 384 1072 375 2013 
L 375 2500 
Q 375 3456 867 4034 
Q 1359 4613 2203 4613 
Q 2975 4613 3390 4188 
Q 3806 3763 3875 3091 
L 3275 3091 
Q 3206 3566 2968 3842 
Q 2731 4119 2203 4119 
Q 1600 4119 1287 3675 
Q 975 3231 975 2506 
L 975 2047 
Q 975 1375 1259 901 
Q 1544 428 2150 428 
Q 2725 428 2961 697 
Q 3197 966 3275 1447 
z
" transform="scale(0.015625)"/>
       <path id="Roboto-Regular-6f" d="M 288 1725 
Q 288 2459 700 2951 
Q 1113 3444 1822 3444 
Q 2531 3444 2943 2961 
Q 3356 2478 3366 1756 
L 3366 1653 
Q 3366 919 2952 428 
Q 2538 -63 1828 -63 
Q 1116 -63 702 428 
Q 288 919 288 1653 
L 288 1725 
z
M 866 1653 
Q 866 1150 1105 781 
Q 1344 413 1828 413 
Q 2300 413 2540 777 
Q 2781 1141 2784 1644 
L 2784 1725 
Q 2784 2222 2543 2595 
Q 2303 2969 1822 2969 
Q 1344 2969 1105 2595 
Q 866 2222 866 1725 
L 866 1653 
z
" transform="scale(0.015625)"/>
       <path id="Roboto-Regular-73" d="M 2409 897 
Q 2409 1081 2273 1229 
Q 2138 1378 1647 1478 
Q 1081 1594 747 1814 
Q 413 2034 413 2456 
Q 413 2856 755 3150 
Q 1097 3444 1666 3444 
Q 2272 3444 2612 3134 
Q 2953 2825 2953 2388 
L 2375 2388 
Q 2375 2597 2190 2783 
Q 2006 2969 1666 2969 
Q 1306 2969 1150 2812 
Q 994 2656 994 2472 
Q 994 2288 1139 2173 
Q 1284 2059 1756 1953 
Q 2378 1813 2683 1584 
Q 2988 1356 2988 941 
Q 2988 494 2630 215 
Q 2272 -63 1681 -63 
Q 1009 -63 653 281 
Q 297 625 297 1044 
L 878 1044 
Q 897 684 1155 548 
Q 1413 413 1681 413 
Q 2034 413 2221 550 
Q 2409 688 2409 897 
z
" transform="scale(0.015625)"/>
      </defs>
      <use xlink:href="#Roboto-Regular-48"/>
      <use xlink:href="#Roboto-Regular-65" x="71.337891"/>
      <use xlink:href="#Roboto-Regular-72" x="124.365234"/>
      <use xlink:href="#Roboto-Regular-6e" x="158.251953"/>
      <use xlink:href="#Roboto-Regular-e1" x="213.476562"/>
      <use xlink:href="#Roboto-Regular-6e" x="267.871094"/>
      <use xlink:href="#Roboto-Regular-64" x="323.095703"/>
      <use xlink:href="#Roboto-Regular-65" x="379.492188"/>
      <use xlink:href="#Roboto-Regular-7a" x="432.519531"/>
      <use xlink:href="#Roboto-Regular-2d" x="482.128906"/>
      <use xlink:href="#Roboto-Regular-43" x="509.765625"/>
      <use xlink:href="#Roboto-Regular-6f" x="574.853516"/>
      <use xlink:href="#Roboto-Regular-62" x="631.884766"/>
      <use xlink:href="#Roboto-Regular-6f" x="688.037109"/>
      <use xlink:href="#Roboto-Regular-73" x="745.068359"/>
      <use xlink:href="#Roboto-Regular-20" x="796.679688"/>
      <use xlink:href="#Roboto-Regular-65" x="821.484375"/>
      <use xlink:href="#Roboto-Regular-74" x="874.511719"/>
      <use xlink:href="#Roboto-Regular-20" x="907.226562"/>
      <use xlink:href="#Roboto-Regular-61" x="932.03125"/>
      <use xlink:href="#Roboto-Regular-6c" x="986.425781"/>
      <use xlink:href="#Roboto-Regular-2e" x="1010.742188"/>
     </g>
    </g>
    <g id="line2d_30">
     <path d="M 112.861401 166.250385 
L 120.861401 166.250385 
L 128.861401 166.250385 
" style="fill: none; stroke: #c5b0d4; stroke-width: 2; stroke-linecap: square"/>
    </g>
    <g id="text_24">
     <!-- Koverga et al. -->
     <g transform="translate(135.261401 169.050385)scale(0.08 -0.08)">
      <defs>
       <path id="Roboto-Regular-4b" d="M 3297 0 
L 1688 2119 
L 1131 1541 
L 1131 0 
L 528 0 
L 528 4550 
L 1131 4550 
L 1131 2306 
L 3153 4550 
L 3878 4550 
L 2091 2541 
L 4016 0 
L 3297 0 
z
" transform="scale(0.015625)"/>
       <path id="Roboto-Regular-76" d="M 2984 3381 
L 1769 0 
L 1328 0 
L 103 3381 
L 697 3381 
L 1556 791 
L 2394 3381 
L 2984 3381 
z
" transform="scale(0.015625)"/>
       <path id="Roboto-Regular-67" d="M 1725 -1334 
Q 1463 -1334 1081 -1206 
Q 700 -1078 472 -747 
L 775 -403 
Q 1150 -859 1681 -859 
Q 2091 -859 2334 -629 
Q 2578 -400 2578 44 
L 2578 341 
Q 2234 -63 1631 -63 
Q 1022 -63 662 425 
Q 303 913 303 1653 
L 303 1719 
Q 303 2494 661 2969 
Q 1019 3444 1638 3444 
Q 2259 3444 2603 3006 
L 2631 3381 
L 3156 3381 
L 3156 72 
Q 3156 -600 2756 -967 
Q 2356 -1334 1725 -1334 
z
M 881 1653 
Q 881 1150 1092 789 
Q 1303 428 1772 428 
Q 2322 428 2578 928 
L 2578 2469 
Q 2469 2678 2275 2817 
Q 2081 2956 1778 2956 
Q 1306 2956 1093 2589 
Q 881 2222 881 1719 
L 881 1653 
z
" transform="scale(0.015625)"/>
      </defs>
      <use xlink:href="#Roboto-Regular-4b"/>
      <use xlink:href="#Roboto-Regular-6f" x="62.744141"/>
      <use xlink:href="#Roboto-Regular-76" x="119.775391"/>
      <use xlink:href="#Roboto-Regular-65" x="168.212891"/>
      <use xlink:href="#Roboto-Regular-72" x="221.240234"/>
      <use xlink:href="#Roboto-Regular-67" x="255.126953"/>
      <use xlink:href="#Roboto-Regular-61" x="311.279297"/>
      <use xlink:href="#Roboto-Regular-20" x="365.673828"/>
      <use xlink:href="#Roboto-Regular-65" x="390.478516"/>
      <use xlink:href="#Roboto-Regular-74" x="443.505859"/>
      <use xlink:href="#Roboto-Regular-20" x="476.220703"/>
      <use xlink:href="#Roboto-Regular-61" x="501.025391"/>
      <use xlink:href="#Roboto-Regular-6c" x="555.419922"/>
      <use xlink:href="#Roboto-Regular-2e" x="579.736328"/>
     </g>
    </g>
    <g id="line2d_31">
     <path d="M 112.861401 177.917885 
L 120.861401 177.917885 
L 128.861401 177.917885 
" style="fill: none; stroke: #9d7ab8; stroke-width: 2; stroke-linecap: square"/>
    </g>
    <g id="text_25">
     <!-- Kowsari et al. -->
     <g transform="translate(135.261401 180.717885)scale(0.08 -0.08)">
      <defs>
       <path id="Roboto-Regular-77" d="M 4659 3381 
L 3678 0 
L 3209 0 
L 2388 2559 
L 1588 0 
L 1116 0 
L 134 3381 
L 713 3381 
L 1378 856 
L 2166 3381 
L 2631 3381 
L 3431 803 
L 4084 3381 
L 4659 3381 
z
" transform="scale(0.015625)"/>
      </defs>
      <use xlink:href="#Roboto-Regular-4b"/>
      <use xlink:href="#Roboto-Regular-6f" x="62.744141"/>
      <use xlink:href="#Roboto-Regular-77" x="119.775391"/>
      <use xlink:href="#Roboto-Regular-73" x="194.921875"/>
      <use xlink:href="#Roboto-Regular-61" x="246.533203"/>
      <use xlink:href="#Roboto-Regular-72" x="300.927734"/>
      <use xlink:href="#Roboto-Regular-69" x="334.814453"/>
      <use xlink:href="#Roboto-Regular-20" x="359.130859"/>
      <use xlink:href="#Roboto-Regular-65" x="383.935547"/>
      <use xlink:href="#Roboto-Regular-74" x="436.962891"/>
      <use xlink:href="#Roboto-Regular-20" x="469.677734"/>
      <use xlink:href="#Roboto-Regular-61" x="494.482422"/>
      <use xlink:href="#Roboto-Regular-6c" x="548.876953"/>
      <use xlink:href="#Roboto-Regular-2e" x="573.193359"/>
     </g>
    </g>
    <g id="line2d_32">
     <path d="M 112.861401 189.542885 
L 120.861401 189.542885 
L 128.861401 189.542885 
" style="fill: none; stroke: #754f92; stroke-width: 2; stroke-linecap: square"/>
    </g>
    <g id="text_26">
     <!-- Pothoczki et al. -->
     <g transform="translate(135.261401 192.342885)scale(0.08 -0.08)">
      <defs>
       <path id="Roboto-Regular-50" d="M 1131 1784 
L 1131 0 
L 528 0 
L 528 4550 
L 2206 4550 
Q 2981 4550 3392 4159 
Q 3803 3769 3803 3163 
Q 3803 2503 3392 2143 
Q 2981 1784 2206 1784 
L 1131 1784 
z
M 1131 4056 
L 1131 2275 
L 2206 2275 
Q 2738 2275 2969 2522 
Q 3200 2769 3200 3156 
Q 3200 3506 2969 3781 
Q 2738 4056 2206 4056 
L 1131 4056 
z
" transform="scale(0.015625)"/>
       <path id="Roboto-Regular-68" d="M 1844 2956 
Q 1566 2956 1353 2806 
Q 1141 2656 1019 2416 
L 1019 0 
L 441 0 
L 441 4800 
L 1019 4800 
L 1019 2978 
Q 1403 3444 2016 3444 
Q 2513 3444 2805 3166 
Q 3097 2888 3100 2231 
L 3100 0 
L 2519 0 
L 2519 2222 
Q 2519 2619 2345 2787 
Q 2172 2956 1844 2956 
z
" transform="scale(0.015625)"/>
       <path id="Roboto-Regular-63" d="M 1794 413 
Q 2103 413 2336 597 
Q 2569 781 2591 1069 
L 3141 1069 
Q 3119 616 2725 276 
Q 2331 -63 1794 -63 
Q 1031 -63 661 440 
Q 291 944 291 1625 
L 291 1756 
Q 291 2438 661 2941 
Q 1031 3444 1794 3444 
Q 2388 3444 2753 3092 
Q 3119 2741 3141 2219 
L 2591 2219 
Q 2569 2531 2355 2750 
Q 2141 2969 1794 2969 
Q 1438 2969 1236 2787 
Q 1034 2606 951 2328 
Q 869 2050 869 1756 
L 869 1625 
Q 869 1328 950 1050 
Q 1031 772 1232 592 
Q 1434 413 1794 413 
z
" transform="scale(0.015625)"/>
       <path id="Roboto-Regular-6b" d="M 2559 0 
L 1388 1569 
L 1022 1191 
L 1022 0 
L 441 0 
L 441 4800 
L 1022 4800 
L 1022 1900 
L 1331 2269 
L 2381 3381 
L 3088 3381 
L 1769 1972 
L 3241 0 
L 2559 0 
z
" transform="scale(0.015625)"/>
      </defs>
      <use xlink:href="#Roboto-Regular-50"/>
      <use xlink:href="#Roboto-Regular-6f" x="63.085938"/>
      <use xlink:href="#Roboto-Regular-74" x="120.117188"/>
      <use xlink:href="#Roboto-Regular-68" x="152.832031"/>
      <use xlink:href="#Roboto-Regular-6f" x="207.910156"/>
      <use xlink:href="#Roboto-Regular-63" x="264.941406"/>
      <use xlink:href="#Roboto-Regular-7a" x="317.285156"/>
      <use xlink:href="#Roboto-Regular-6b" x="366.894531"/>
      <use xlink:href="#Roboto-Regular-69" x="417.578125"/>
      <use xlink:href="#Roboto-Regular-20" x="441.894531"/>
      <use xlink:href="#Roboto-Regular-65" x="466.699219"/>
      <use xlink:href="#Roboto-Regular-74" x="519.726562"/>
      <use xlink:href="#Roboto-Regular-20" x="552.441406"/>
      <use xlink:href="#Roboto-Regular-61" x="577.246094"/>
      <use xlink:href="#Roboto-Regular-6c" x="631.640625"/>
      <use xlink:href="#Roboto-Regular-2e" x="655.957031"/>
     </g>
    </g>
   </g>
  </g>
 </g>
 <defs>
  <clipPath id="pf4acbc7ba8">
   <rect x="31.794928" y="3.00024" width="193.637723" height="198.167645"/>
  </clipPath>
 </defs>
</svg>
