<?xml version="1.0" encoding="utf-8" standalone="no"?>
<!DOCTYPE svg PUBLIC "-//W3C//DTD SVG 1.1//EN"
  "http://www.w3.org/Graphics/SVG/1.1/DTD/svg11.dtd">
<svg xmlns:xlink="http://www.w3.org/1999/xlink" width="432pt" height="252pt" viewBox="0 0 432 252" xmlns="http://www.w3.org/2000/svg" version="1.1">
 <metadata>
  <rdf:RDF xmlns:dc="http://purl.org/dc/elements/1.1/" xmlns:cc="http://creativecommons.org/ns#" xmlns:rdf="http://www.w3.org/1999/02/22-rdf-syntax-ns#">
   <cc:Work>
    <dc:type rdf:resource="http://purl.org/dc/dcmitype/StillImage"/>
    <dc:date>2022-09-25T16:37:48.875742</dc:date>
    <dc:format>image/svg+xml</dc:format>
    <dc:creator>
     <cc:Agent>
      <dc:title>Matplotlib v3.5.1, https://matplotlib.org/</dc:title>
     </cc:Agent>
    </dc:creator>
   </cc:Work>
  </rdf:RDF>
 </metadata>
 <defs>
  <style type="text/css">*{stroke-linejoin: round; stroke-linecap: butt}</style>
 </defs>
 <g id="figure_1">
  <g id="patch_1">
   <path d="M 0 252 
L 432 252 
L 432 0 
L 0 0 
z
" style="fill: #ffffff"/>
  </g>
  <g id="axes_1">
   <g id="patch_2">
    <path d="M 26.83274 237.25726 
L 146.59351 237.25726 
L 146.59351 3.00024 
L 26.83274 3.00024 
z
" style="fill: #ffffff"/>
   </g>
   <g id="line2d_1">
    <path d="M 26.83274 218.099941 
L 49.644315 205.621568 
L 72.45589 204.587453 
L 95.267466 71.283505 
L 118.079041 31.997314 
L 140.890616 18.581229 
" clip-path="url(#p5f0056c49c)" style="fill: none; stroke-dasharray: 5.55,2.4; stroke-dashoffset: 0; stroke: #c0c0c0; stroke-width: 1.5"/>
    <defs>
     <path id="mb07a29d18a" d="M -2.5 2.5 
L 2.5 2.5 
L 2.5 -2.5 
L -2.5 -2.5 
z
"/>
    </defs>
    <g clip-path="url(#p5f0056c49c)">
     <use xlink:href="#mb07a29d18a" x="26.83274" y="218.099941" style="fill: #c0c0c0"/>
     <use xlink:href="#mb07a29d18a" x="49.644315" y="205.621568" style="fill: #c0c0c0"/>
     <use xlink:href="#mb07a29d18a" x="72.45589" y="204.587453" style="fill: #c0c0c0"/>
     <use xlink:href="#mb07a29d18a" x="95.267466" y="71.283505" style="fill: #c0c0c0"/>
     <use xlink:href="#mb07a29d18a" x="118.079041" y="31.997314" style="fill: #c0c0c0"/>
     <use xlink:href="#mb07a29d18a" x="140.890616" y="18.581229" style="fill: #c0c0c0"/>
    </g>
   </g>
   <g id="line2d_2">
    <path d="M 26.83274 220.816303 
L 49.644315 204.360329 
L 72.45589 203.189107 
L 95.267466 71.355148 
L 118.079041 32.487217 
L 140.890616 15.636647 
" clip-path="url(#p5f0056c49c)" style="fill: none; stroke-dasharray: 5.55,2.4; stroke-dashoffset: 0; stroke: #bfe5da; stroke-width: 1.5"/>
    <defs>
     <path id="m2257a8f59b" d="M -2.5 2.5 
L 2.5 2.5 
L 2.5 -2.5 
L -2.5 -2.5 
z
"/>
    </defs>
    <g clip-path="url(#p5f0056c49c)">
     <use xlink:href="#m2257a8f59b" x="26.83274" y="220.816303" style="fill: #bfe5da"/>
     <use xlink:href="#m2257a8f59b" x="49.644315" y="204.360329" style="fill: #bfe5da"/>
     <use xlink:href="#m2257a8f59b" x="72.45589" y="203.189107" style="fill: #bfe5da"/>
     <use xlink:href="#m2257a8f59b" x="95.267466" y="71.355148" style="fill: #bfe5da"/>
     <use xlink:href="#m2257a8f59b" x="118.079041" y="32.487217" style="fill: #bfe5da"/>
     <use xlink:href="#m2257a8f59b" x="140.890616" y="15.636647" style="fill: #bfe5da"/>
    </g>
   </g>
   <g id="matplotlib.axis_1">
    <g id="text_1">
     <!-- 4mer Isomers -->
     <g transform="translate(59.098125 247.33601)scale(0.08 -0.08)">
      <defs>
       <path id="DejaVuSans-34" d="M 2419 4116 
L 825 1625 
L 2419 1625 
L 2419 4116 
z
M 2253 4666 
L 3047 4666 
L 3047 1625 
L 3713 1625 
L 3713 1100 
L 3047 1100 
L 3047 0 
L 2419 0 
L 2419 1100 
L 313 1100 
L 313 1709 
L 2253 4666 
z
" transform="scale(0.015625)"/>
       <path id="DejaVuSans-6d" d="M 3328 2828 
Q 3544 3216 3844 3400 
Q 4144 3584 4550 3584 
Q 5097 3584 5394 3201 
Q 5691 2819 5691 2113 
L 5691 0 
L 5113 0 
L 5113 2094 
Q 5113 2597 4934 2840 
Q 4756 3084 4391 3084 
Q 3944 3084 3684 2787 
Q 3425 2491 3425 1978 
L 3425 0 
L 2847 0 
L 2847 2094 
Q 2847 2600 2669 2842 
Q 2491 3084 2119 3084 
Q 1678 3084 1418 2786 
Q 1159 2488 1159 1978 
L 1159 0 
L 581 0 
L 581 3500 
L 1159 3500 
L 1159 2956 
Q 1356 3278 1631 3431 
Q 1906 3584 2284 3584 
Q 2666 3584 2933 3390 
Q 3200 3197 3328 2828 
z
" transform="scale(0.015625)"/>
       <path id="DejaVuSans-65" d="M 3597 1894 
L 3597 1613 
L 953 1613 
Q 991 1019 1311 708 
Q 1631 397 2203 397 
Q 2534 397 2845 478 
Q 3156 559 3463 722 
L 3463 178 
Q 3153 47 2828 -22 
Q 2503 -91 2169 -91 
Q 1331 -91 842 396 
Q 353 884 353 1716 
Q 353 2575 817 3079 
Q 1281 3584 2069 3584 
Q 2775 3584 3186 3129 
Q 3597 2675 3597 1894 
z
M 3022 2063 
Q 3016 2534 2758 2815 
Q 2500 3097 2075 3097 
Q 1594 3097 1305 2825 
Q 1016 2553 972 2059 
L 3022 2063 
z
" transform="scale(0.015625)"/>
       <path id="DejaVuSans-72" d="M 2631 2963 
Q 2534 3019 2420 3045 
Q 2306 3072 2169 3072 
Q 1681 3072 1420 2755 
Q 1159 2438 1159 1844 
L 1159 0 
L 581 0 
L 581 3500 
L 1159 3500 
L 1159 2956 
Q 1341 3275 1631 3429 
Q 1922 3584 2338 3584 
Q 2397 3584 2469 3576 
Q 2541 3569 2628 3553 
L 2631 2963 
z
" transform="scale(0.015625)"/>
       <path id="DejaVuSans-20" transform="scale(0.015625)"/>
       <path id="DejaVuSans-49" d="M 628 4666 
L 1259 4666 
L 1259 0 
L 628 0 
L 628 4666 
z
" transform="scale(0.015625)"/>
       <path id="DejaVuSans-73" d="M 2834 3397 
L 2834 2853 
Q 2591 2978 2328 3040 
Q 2066 3103 1784 3103 
Q 1356 3103 1142 2972 
Q 928 2841 928 2578 
Q 928 2378 1081 2264 
Q 1234 2150 1697 2047 
L 1894 2003 
Q 2506 1872 2764 1633 
Q 3022 1394 3022 966 
Q 3022 478 2636 193 
Q 2250 -91 1575 -91 
Q 1294 -91 989 -36 
Q 684 19 347 128 
L 347 722 
Q 666 556 975 473 
Q 1284 391 1588 391 
Q 1994 391 2212 530 
Q 2431 669 2431 922 
Q 2431 1156 2273 1281 
Q 2116 1406 1581 1522 
L 1381 1569 
Q 847 1681 609 1914 
Q 372 2147 372 2553 
Q 372 3047 722 3315 
Q 1072 3584 1716 3584 
Q 2034 3584 2315 3537 
Q 2597 3491 2834 3397 
z
" transform="scale(0.015625)"/>
       <path id="DejaVuSans-6f" d="M 1959 3097 
Q 1497 3097 1228 2736 
Q 959 2375 959 1747 
Q 959 1119 1226 758 
Q 1494 397 1959 397 
Q 2419 397 2687 759 
Q 2956 1122 2956 1747 
Q 2956 2369 2687 2733 
Q 2419 3097 1959 3097 
z
M 1959 3584 
Q 2709 3584 3137 3096 
Q 3566 2609 3566 1747 
Q 3566 888 3137 398 
Q 2709 -91 1959 -91 
Q 1206 -91 779 398 
Q 353 888 353 1747 
Q 353 2609 779 3096 
Q 1206 3584 1959 3584 
z
" transform="scale(0.015625)"/>
      </defs>
      <use xlink:href="#DejaVuSans-34"/>
      <use xlink:href="#DejaVuSans-6d" x="63.623047"/>
      <use xlink:href="#DejaVuSans-65" x="161.035156"/>
      <use xlink:href="#DejaVuSans-72" x="222.558594"/>
      <use xlink:href="#DejaVuSans-20" x="263.671875"/>
      <use xlink:href="#DejaVuSans-49" x="295.458984"/>
      <use xlink:href="#DejaVuSans-73" x="324.951172"/>
      <use xlink:href="#DejaVuSans-6f" x="377.050781"/>
      <use xlink:href="#DejaVuSans-6d" x="438.232422"/>
      <use xlink:href="#DejaVuSans-65" x="535.644531"/>
      <use xlink:href="#DejaVuSans-72" x="597.167969"/>
      <use xlink:href="#DejaVuSans-73" x="638.28125"/>
     </g>
    </g>
   </g>
   <g id="matplotlib.axis_2">
    <g id="ytick_1">
     <g id="line2d_3">
      <defs>
       <path id="me2ab40d196" d="M 0 0 
L -3.5 0 
" style="stroke: #000000; stroke-width: 0.8"/>
      </defs>
      <g>
       <use xlink:href="#me2ab40d196" x="26.83274" y="218.099941" style="stroke: #000000; stroke-width: 0.8"/>
      </g>
     </g>
     <g id="text_2">
      <!-- 0 -->
      <g transform="translate(14.74274 221.139316)scale(0.08 -0.08)">
       <defs>
        <path id="DejaVuSans-30" d="M 2034 4250 
Q 1547 4250 1301 3770 
Q 1056 3291 1056 2328 
Q 1056 1369 1301 889 
Q 1547 409 2034 409 
Q 2525 409 2770 889 
Q 3016 1369 3016 2328 
Q 3016 3291 2770 3770 
Q 2525 4250 2034 4250 
z
M 2034 4750 
Q 2819 4750 3233 4129 
Q 3647 3509 3647 2328 
Q 3647 1150 3233 529 
Q 2819 -91 2034 -91 
Q 1250 -91 836 529 
Q 422 1150 422 2328 
Q 422 3509 836 4129 
Q 1250 4750 2034 4750 
z
" transform="scale(0.015625)"/>
       </defs>
       <use xlink:href="#DejaVuSans-30"/>
      </g>
     </g>
    </g>
    <g id="ytick_2">
     <g id="line2d_4">
      <g>
       <use xlink:href="#me2ab40d196" x="26.83274" y="188.521946" style="stroke: #000000; stroke-width: 0.8"/>
      </g>
     </g>
     <g id="text_3">
      <!-- 1 -->
      <g transform="translate(14.74274 191.561321)scale(0.08 -0.08)">
       <defs>
        <path id="DejaVuSans-31" d="M 794 531 
L 1825 531 
L 1825 4091 
L 703 3866 
L 703 4441 
L 1819 4666 
L 2450 4666 
L 2450 531 
L 3481 531 
L 3481 0 
L 794 0 
L 794 531 
z
" transform="scale(0.015625)"/>
       </defs>
       <use xlink:href="#DejaVuSans-31"/>
      </g>
     </g>
    </g>
    <g id="ytick_3">
     <g id="line2d_5">
      <g>
       <use xlink:href="#me2ab40d196" x="26.83274" y="158.94395" style="stroke: #000000; stroke-width: 0.8"/>
      </g>
     </g>
     <g id="text_4">
      <!-- 2 -->
      <g transform="translate(14.74274 161.983325)scale(0.08 -0.08)">
       <defs>
        <path id="DejaVuSans-32" d="M 1228 531 
L 3431 531 
L 3431 0 
L 469 0 
L 469 531 
Q 828 903 1448 1529 
Q 2069 2156 2228 2338 
Q 2531 2678 2651 2914 
Q 2772 3150 2772 3378 
Q 2772 3750 2511 3984 
Q 2250 4219 1831 4219 
Q 1534 4219 1204 4116 
Q 875 4013 500 3803 
L 500 4441 
Q 881 4594 1212 4672 
Q 1544 4750 1819 4750 
Q 2544 4750 2975 4387 
Q 3406 4025 3406 3419 
Q 3406 3131 3298 2873 
Q 3191 2616 2906 2266 
Q 2828 2175 2409 1742 
Q 1991 1309 1228 531 
z
" transform="scale(0.015625)"/>
       </defs>
       <use xlink:href="#DejaVuSans-32"/>
      </g>
     </g>
    </g>
    <g id="ytick_4">
     <g id="line2d_6">
      <g>
       <use xlink:href="#me2ab40d196" x="26.83274" y="129.365954" style="stroke: #000000; stroke-width: 0.8"/>
      </g>
     </g>
     <g id="text_5">
      <!-- 3 -->
      <g transform="translate(14.74274 132.405329)scale(0.08 -0.08)">
       <defs>
        <path id="DejaVuSans-33" d="M 2597 2516 
Q 3050 2419 3304 2112 
Q 3559 1806 3559 1356 
Q 3559 666 3084 287 
Q 2609 -91 1734 -91 
Q 1441 -91 1130 -33 
Q 819 25 488 141 
L 488 750 
Q 750 597 1062 519 
Q 1375 441 1716 441 
Q 2309 441 2620 675 
Q 2931 909 2931 1356 
Q 2931 1769 2642 2001 
Q 2353 2234 1838 2234 
L 1294 2234 
L 1294 2753 
L 1863 2753 
Q 2328 2753 2575 2939 
Q 2822 3125 2822 3475 
Q 2822 3834 2567 4026 
Q 2313 4219 1838 4219 
Q 1578 4219 1281 4162 
Q 984 4106 628 3988 
L 628 4550 
Q 988 4650 1302 4700 
Q 1616 4750 1894 4750 
Q 2613 4750 3031 4423 
Q 3450 4097 3450 3541 
Q 3450 3153 3228 2886 
Q 3006 2619 2597 2516 
z
" transform="scale(0.015625)"/>
       </defs>
       <use xlink:href="#DejaVuSans-33"/>
      </g>
     </g>
    </g>
    <g id="ytick_5">
     <g id="line2d_7">
      <g>
       <use xlink:href="#me2ab40d196" x="26.83274" y="99.787959" style="stroke: #000000; stroke-width: 0.8"/>
      </g>
     </g>
     <g id="text_6">
      <!-- 4 -->
      <g transform="translate(14.74274 102.827334)scale(0.08 -0.08)">
       <use xlink:href="#DejaVuSans-34"/>
      </g>
     </g>
    </g>
    <g id="ytick_6">
     <g id="line2d_8">
      <g>
       <use xlink:href="#me2ab40d196" x="26.83274" y="70.209963" style="stroke: #000000; stroke-width: 0.8"/>
      </g>
     </g>
     <g id="text_7">
      <!-- 5 -->
      <g transform="translate(14.74274 73.249338)scale(0.08 -0.08)">
       <defs>
        <path id="DejaVuSans-35" d="M 691 4666 
L 3169 4666 
L 3169 4134 
L 1269 4134 
L 1269 2991 
Q 1406 3038 1543 3061 
Q 1681 3084 1819 3084 
Q 2600 3084 3056 2656 
Q 3513 2228 3513 1497 
Q 3513 744 3044 326 
Q 2575 -91 1722 -91 
Q 1428 -91 1123 -41 
Q 819 9 494 109 
L 494 744 
Q 775 591 1075 516 
Q 1375 441 1709 441 
Q 2250 441 2565 725 
Q 2881 1009 2881 1497 
Q 2881 1984 2565 2268 
Q 2250 2553 1709 2553 
Q 1456 2553 1204 2497 
Q 953 2441 691 2322 
L 691 4666 
z
" transform="scale(0.015625)"/>
       </defs>
       <use xlink:href="#DejaVuSans-35"/>
      </g>
     </g>
    </g>
    <g id="ytick_7">
     <g id="line2d_9">
      <g>
       <use xlink:href="#me2ab40d196" x="26.83274" y="40.631968" style="stroke: #000000; stroke-width: 0.8"/>
      </g>
     </g>
     <g id="text_8">
      <!-- 6 -->
      <g transform="translate(14.74274 43.671343)scale(0.08 -0.08)">
       <defs>
        <path id="DejaVuSans-36" d="M 2113 2584 
Q 1688 2584 1439 2293 
Q 1191 2003 1191 1497 
Q 1191 994 1439 701 
Q 1688 409 2113 409 
Q 2538 409 2786 701 
Q 3034 994 3034 1497 
Q 3034 2003 2786 2293 
Q 2538 2584 2113 2584 
z
M 3366 4563 
L 3366 3988 
Q 3128 4100 2886 4159 
Q 2644 4219 2406 4219 
Q 1781 4219 1451 3797 
Q 1122 3375 1075 2522 
Q 1259 2794 1537 2939 
Q 1816 3084 2150 3084 
Q 2853 3084 3261 2657 
Q 3669 2231 3669 1497 
Q 3669 778 3244 343 
Q 2819 -91 2113 -91 
Q 1303 -91 875 529 
Q 447 1150 447 2328 
Q 447 3434 972 4092 
Q 1497 4750 2381 4750 
Q 2619 4750 2861 4703 
Q 3103 4656 3366 4563 
z
" transform="scale(0.015625)"/>
       </defs>
       <use xlink:href="#DejaVuSans-36"/>
      </g>
     </g>
    </g>
    <g id="ytick_8">
     <g id="line2d_10">
      <g>
       <use xlink:href="#me2ab40d196" x="26.83274" y="11.053972" style="stroke: #000000; stroke-width: 0.8"/>
      </g>
     </g>
     <g id="text_9">
      <!-- 7 -->
      <g transform="translate(14.74274 14.093347)scale(0.08 -0.08)">
       <defs>
        <path id="DejaVuSans-37" d="M 525 4666 
L 3525 4666 
L 3525 4397 
L 1831 0 
L 1172 0 
L 2766 4134 
L 525 4134 
L 525 4666 
z
" transform="scale(0.015625)"/>
       </defs>
       <use xlink:href="#DejaVuSans-37"/>
      </g>
     </g>
    </g>
    <g id="ytick_9">
     <g id="line2d_11">
      <defs>
       <path id="m99dbf0915b" d="M 0 0 
L -2 0 
" style="stroke: #000000; stroke-width: 0.6"/>
      </defs>
      <g>
       <use xlink:href="#m99dbf0915b" x="26.83274" y="232.888939" style="stroke: #000000; stroke-width: 0.6"/>
      </g>
     </g>
    </g>
    <g id="ytick_10">
     <g id="line2d_12">
      <g>
       <use xlink:href="#m99dbf0915b" x="26.83274" y="203.310943" style="stroke: #000000; stroke-width: 0.6"/>
      </g>
     </g>
    </g>
    <g id="ytick_11">
     <g id="line2d_13">
      <g>
       <use xlink:href="#m99dbf0915b" x="26.83274" y="173.732948" style="stroke: #000000; stroke-width: 0.6"/>
      </g>
     </g>
    </g>
    <g id="ytick_12">
     <g id="line2d_14">
      <g>
       <use xlink:href="#m99dbf0915b" x="26.83274" y="144.154952" style="stroke: #000000; stroke-width: 0.6"/>
      </g>
     </g>
    </g>
    <g id="ytick_13">
     <g id="line2d_15">
      <g>
       <use xlink:href="#m99dbf0915b" x="26.83274" y="114.576957" style="stroke: #000000; stroke-width: 0.6"/>
      </g>
     </g>
    </g>
    <g id="ytick_14">
     <g id="line2d_16">
      <g>
       <use xlink:href="#m99dbf0915b" x="26.83274" y="84.998961" style="stroke: #000000; stroke-width: 0.6"/>
      </g>
     </g>
    </g>
    <g id="ytick_15">
     <g id="line2d_17">
      <g>
       <use xlink:href="#m99dbf0915b" x="26.83274" y="55.420966" style="stroke: #000000; stroke-width: 0.6"/>
      </g>
     </g>
    </g>
    <g id="ytick_16">
     <g id="line2d_18">
      <g>
       <use xlink:href="#m99dbf0915b" x="26.83274" y="25.84297" style="stroke: #000000; stroke-width: 0.6"/>
      </g>
     </g>
    </g>
    <g id="text_10">
     <!-- $\Delta$E (kcal/mol) -->
     <g transform="translate(9.07899 146.68875)rotate(-90)scale(0.08 -0.08)">
      <defs>
       <path id="DejaVuSans-394" d="M 2188 4044 
L 906 525 
L 3472 525 
L 2188 4044 
z
M 50 0 
L 1831 4666 
L 2547 4666 
L 4325 0 
L 50 0 
z
" transform="scale(0.015625)"/>
       <path id="DejaVuSans-45" d="M 628 4666 
L 3578 4666 
L 3578 4134 
L 1259 4134 
L 1259 2753 
L 3481 2753 
L 3481 2222 
L 1259 2222 
L 1259 531 
L 3634 531 
L 3634 0 
L 628 0 
L 628 4666 
z
" transform="scale(0.015625)"/>
       <path id="DejaVuSans-28" d="M 1984 4856 
Q 1566 4138 1362 3434 
Q 1159 2731 1159 2009 
Q 1159 1288 1364 580 
Q 1569 -128 1984 -844 
L 1484 -844 
Q 1016 -109 783 600 
Q 550 1309 550 2009 
Q 550 2706 781 3412 
Q 1013 4119 1484 4856 
L 1984 4856 
z
" transform="scale(0.015625)"/>
       <path id="DejaVuSans-6b" d="M 581 4863 
L 1159 4863 
L 1159 1991 
L 2875 3500 
L 3609 3500 
L 1753 1863 
L 3688 0 
L 2938 0 
L 1159 1709 
L 1159 0 
L 581 0 
L 581 4863 
z
" transform="scale(0.015625)"/>
       <path id="DejaVuSans-63" d="M 3122 3366 
L 3122 2828 
Q 2878 2963 2633 3030 
Q 2388 3097 2138 3097 
Q 1578 3097 1268 2742 
Q 959 2388 959 1747 
Q 959 1106 1268 751 
Q 1578 397 2138 397 
Q 2388 397 2633 464 
Q 2878 531 3122 666 
L 3122 134 
Q 2881 22 2623 -34 
Q 2366 -91 2075 -91 
Q 1284 -91 818 406 
Q 353 903 353 1747 
Q 353 2603 823 3093 
Q 1294 3584 2113 3584 
Q 2378 3584 2631 3529 
Q 2884 3475 3122 3366 
z
" transform="scale(0.015625)"/>
       <path id="DejaVuSans-61" d="M 2194 1759 
Q 1497 1759 1228 1600 
Q 959 1441 959 1056 
Q 959 750 1161 570 
Q 1363 391 1709 391 
Q 2188 391 2477 730 
Q 2766 1069 2766 1631 
L 2766 1759 
L 2194 1759 
z
M 3341 1997 
L 3341 0 
L 2766 0 
L 2766 531 
Q 2569 213 2275 61 
Q 1981 -91 1556 -91 
Q 1019 -91 701 211 
Q 384 513 384 1019 
Q 384 1609 779 1909 
Q 1175 2209 1959 2209 
L 2766 2209 
L 2766 2266 
Q 2766 2663 2505 2880 
Q 2244 3097 1772 3097 
Q 1472 3097 1187 3025 
Q 903 2953 641 2809 
L 641 3341 
Q 956 3463 1253 3523 
Q 1550 3584 1831 3584 
Q 2591 3584 2966 3190 
Q 3341 2797 3341 1997 
z
" transform="scale(0.015625)"/>
       <path id="DejaVuSans-6c" d="M 603 4863 
L 1178 4863 
L 1178 0 
L 603 0 
L 603 4863 
z
" transform="scale(0.015625)"/>
       <path id="DejaVuSans-2f" d="M 1625 4666 
L 2156 4666 
L 531 -594 
L 0 -594 
L 1625 4666 
z
" transform="scale(0.015625)"/>
       <path id="DejaVuSans-29" d="M 513 4856 
L 1013 4856 
Q 1481 4119 1714 3412 
Q 1947 2706 1947 2009 
Q 1947 1309 1714 600 
Q 1481 -109 1013 -844 
L 513 -844 
Q 928 -128 1133 580 
Q 1338 1288 1338 2009 
Q 1338 2731 1133 3434 
Q 928 4138 513 4856 
z
" transform="scale(0.015625)"/>
      </defs>
      <use xlink:href="#DejaVuSans-394" transform="translate(0 0.015625)"/>
      <use xlink:href="#DejaVuSans-45" transform="translate(68.408203 0.015625)"/>
      <use xlink:href="#DejaVuSans-20" transform="translate(131.591797 0.015625)"/>
      <use xlink:href="#DejaVuSans-28" transform="translate(163.378906 0.015625)"/>
      <use xlink:href="#DejaVuSans-6b" transform="translate(202.392578 0.015625)"/>
      <use xlink:href="#DejaVuSans-63" transform="translate(260.302734 0.015625)"/>
      <use xlink:href="#DejaVuSans-61" transform="translate(315.283203 0.015625)"/>
      <use xlink:href="#DejaVuSans-6c" transform="translate(376.5625 0.015625)"/>
      <use xlink:href="#DejaVuSans-2f" transform="translate(404.345703 0.015625)"/>
      <use xlink:href="#DejaVuSans-6d" transform="translate(438.037109 0.015625)"/>
      <use xlink:href="#DejaVuSans-6f" transform="translate(535.449219 0.015625)"/>
      <use xlink:href="#DejaVuSans-6c" transform="translate(596.630859 0.015625)"/>
      <use xlink:href="#DejaVuSans-29" transform="translate(624.414062 0.015625)"/>
     </g>
    </g>
   </g>
   <g id="line2d_19">
    <path d="M 26.83274 214.904809 
L 49.644315 226.609214 
L 72.45589 225.995082 
L 95.267466 76.65855 
L 118.079041 50.637637 
L 140.890616 13.648286 
" clip-path="url(#p5f0056c49c)" style="fill: none; stroke: #61bfa3; stroke-width: 1.5; stroke-linecap: square"/>
    <defs>
     <path id="mede0046796" d="M 0 2.5 
C 0.663008 2.5 1.29895 2.236584 1.767767 1.767767 
C 2.236584 1.29895 2.5 0.663008 2.5 0 
C 2.5 -0.663008 2.236584 -1.29895 1.767767 -1.767767 
C 1.29895 -2.236584 0.663008 -2.5 0 -2.5 
C -0.663008 -2.5 -1.29895 -2.236584 -1.767767 -1.767767 
C -2.236584 -1.29895 -2.5 -0.663008 -2.5 0 
C -2.5 0.663008 -2.236584 1.29895 -1.767767 1.767767 
C -1.29895 2.236584 -0.663008 2.5 0 2.5 
z
"/>
    </defs>
    <g clip-path="url(#p5f0056c49c)">
     <use xlink:href="#mede0046796" x="26.83274" y="214.904809" style="fill: #61bfa3"/>
     <use xlink:href="#mede0046796" x="49.644315" y="226.609214" style="fill: #61bfa3"/>
     <use xlink:href="#mede0046796" x="72.45589" y="225.995082" style="fill: #61bfa3"/>
     <use xlink:href="#mede0046796" x="95.267466" y="76.65855" style="fill: #61bfa3"/>
     <use xlink:href="#mede0046796" x="118.079041" y="50.637637" style="fill: #61bfa3"/>
     <use xlink:href="#mede0046796" x="140.890616" y="13.648286" style="fill: #61bfa3"/>
    </g>
   </g>
   <g id="patch_3">
    <path d="M 26.83274 237.25726 
L 26.83274 3.00024 
" style="fill: none; stroke: #000000; stroke-width: 0.8; stroke-linejoin: miter; stroke-linecap: square"/>
   </g>
   <g id="patch_4">
    <path d="M 146.59351 237.25726 
L 146.59351 3.00024 
" style="fill: none; stroke: #000000; stroke-width: 0.8; stroke-linejoin: miter; stroke-linecap: square"/>
   </g>
   <g id="patch_5">
    <path d="M 26.83274 237.25726 
L 146.59351 237.25726 
" style="fill: none; stroke: #000000; stroke-width: 0.8; stroke-linejoin: miter; stroke-linecap: square"/>
   </g>
   <g id="patch_6">
    <path d="M 26.83274 3.00024 
L 146.59351 3.00024 
" style="fill: none; stroke: #000000; stroke-width: 0.8; stroke-linejoin: miter; stroke-linecap: square"/>
   </g>
   <g id="text_11">
    <!-- A -->
    <g transform="translate(35.335755 15.884376)scale(0.096 -0.096)">
     <defs>
      <path id="DejaVuSans-Bold-41" d="M 3419 850 
L 1538 850 
L 1241 0 
L 31 0 
L 1759 4666 
L 3194 4666 
L 4922 0 
L 3713 0 
L 3419 850 
z
M 1838 1716 
L 3116 1716 
L 2478 3572 
L 1838 1716 
z
" transform="scale(0.015625)"/>
     </defs>
     <use xlink:href="#DejaVuSans-Bold-41"/>
    </g>
   </g>
   <g id="legend_1">
    <g id="line2d_20">
     <path d="M 31.230348 23.388034 
L 39.230348 23.388034 
L 47.230348 23.388034 
" style="fill: none; stroke-dasharray: 5.55,2.4; stroke-dashoffset: 0; stroke: #c0c0c0; stroke-width: 1.5"/>
     <g>
      <use xlink:href="#mb07a29d18a" x="39.230348" y="23.388034" style="fill: #c0c0c0"/>
     </g>
    </g>
    <g id="text_12">
     <!-- MP2 -->
     <g transform="translate(53.630348 26.188034)scale(0.08 -0.08)">
      <defs>
       <path id="DejaVuSans-4d" d="M 628 4666 
L 1569 4666 
L 2759 1491 
L 3956 4666 
L 4897 4666 
L 4897 0 
L 4281 0 
L 4281 4097 
L 3078 897 
L 2444 897 
L 1241 4097 
L 1241 0 
L 628 0 
L 628 4666 
z
" transform="scale(0.015625)"/>
       <path id="DejaVuSans-50" d="M 1259 4147 
L 1259 2394 
L 2053 2394 
Q 2494 2394 2734 2622 
Q 2975 2850 2975 3272 
Q 2975 3691 2734 3919 
Q 2494 4147 2053 4147 
L 1259 4147 
z
M 628 4666 
L 2053 4666 
Q 2838 4666 3239 4311 
Q 3641 3956 3641 3272 
Q 3641 2581 3239 2228 
Q 2838 1875 2053 1875 
L 1259 1875 
L 1259 0 
L 628 0 
L 628 4666 
z
" transform="scale(0.015625)"/>
      </defs>
      <use xlink:href="#DejaVuSans-4d"/>
      <use xlink:href="#DejaVuSans-50" x="86.279297"/>
      <use xlink:href="#DejaVuSans-32" x="146.582031"/>
     </g>
    </g>
    <g id="line2d_21">
     <path d="M 31.230348 35.130534 
L 39.230348 35.130534 
L 47.230348 35.130534 
" style="fill: none; stroke-dasharray: 5.55,2.4; stroke-dashoffset: 0; stroke: #bfe5da; stroke-width: 1.5"/>
     <g>
      <use xlink:href="#m2257a8f59b" x="39.230348" y="35.130534" style="fill: #bfe5da"/>
     </g>
    </g>
    <g id="text_13">
     <!-- MBE -->
     <g transform="translate(53.630348 37.930534)scale(0.08 -0.08)">
      <defs>
       <path id="DejaVuSans-42" d="M 1259 2228 
L 1259 519 
L 2272 519 
Q 2781 519 3026 730 
Q 3272 941 3272 1375 
Q 3272 1813 3026 2020 
Q 2781 2228 2272 2228 
L 1259 2228 
z
M 1259 4147 
L 1259 2741 
L 2194 2741 
Q 2656 2741 2882 2914 
Q 3109 3088 3109 3444 
Q 3109 3797 2882 3972 
Q 2656 4147 2194 4147 
L 1259 4147 
z
M 628 4666 
L 2241 4666 
Q 2963 4666 3353 4366 
Q 3744 4066 3744 3513 
Q 3744 3084 3544 2831 
Q 3344 2578 2956 2516 
Q 3422 2416 3680 2098 
Q 3938 1781 3938 1306 
Q 3938 681 3513 340 
Q 3088 0 2303 0 
L 628 0 
L 628 4666 
z
" transform="scale(0.015625)"/>
      </defs>
      <use xlink:href="#DejaVuSans-4d"/>
      <use xlink:href="#DejaVuSans-42" x="86.279297"/>
      <use xlink:href="#DejaVuSans-45" x="154.882812"/>
     </g>
    </g>
    <g id="line2d_22">
     <path d="M 31.230348 46.873034 
L 39.230348 46.873034 
L 47.230348 46.873034 
" style="fill: none; stroke: #61bfa3; stroke-width: 1.5; stroke-linecap: square"/>
     <g>
      <use xlink:href="#mede0046796" x="39.230348" y="46.873034" style="fill: #61bfa3"/>
     </g>
    </g>
    <g id="text_14">
     <!-- mbSchNet -->
     <g transform="translate(53.630348 49.673034)scale(0.08 -0.08)">
      <defs>
       <path id="DejaVuSans-62" d="M 3116 1747 
Q 3116 2381 2855 2742 
Q 2594 3103 2138 3103 
Q 1681 3103 1420 2742 
Q 1159 2381 1159 1747 
Q 1159 1113 1420 752 
Q 1681 391 2138 391 
Q 2594 391 2855 752 
Q 3116 1113 3116 1747 
z
M 1159 2969 
Q 1341 3281 1617 3432 
Q 1894 3584 2278 3584 
Q 2916 3584 3314 3078 
Q 3713 2572 3713 1747 
Q 3713 922 3314 415 
Q 2916 -91 2278 -91 
Q 1894 -91 1617 61 
Q 1341 213 1159 525 
L 1159 0 
L 581 0 
L 581 4863 
L 1159 4863 
L 1159 2969 
z
" transform="scale(0.015625)"/>
       <path id="DejaVuSans-53" d="M 3425 4513 
L 3425 3897 
Q 3066 4069 2747 4153 
Q 2428 4238 2131 4238 
Q 1616 4238 1336 4038 
Q 1056 3838 1056 3469 
Q 1056 3159 1242 3001 
Q 1428 2844 1947 2747 
L 2328 2669 
Q 3034 2534 3370 2195 
Q 3706 1856 3706 1288 
Q 3706 609 3251 259 
Q 2797 -91 1919 -91 
Q 1588 -91 1214 -16 
Q 841 59 441 206 
L 441 856 
Q 825 641 1194 531 
Q 1563 422 1919 422 
Q 2459 422 2753 634 
Q 3047 847 3047 1241 
Q 3047 1584 2836 1778 
Q 2625 1972 2144 2069 
L 1759 2144 
Q 1053 2284 737 2584 
Q 422 2884 422 3419 
Q 422 4038 858 4394 
Q 1294 4750 2059 4750 
Q 2388 4750 2728 4690 
Q 3069 4631 3425 4513 
z
" transform="scale(0.015625)"/>
       <path id="DejaVuSans-68" d="M 3513 2113 
L 3513 0 
L 2938 0 
L 2938 2094 
Q 2938 2591 2744 2837 
Q 2550 3084 2163 3084 
Q 1697 3084 1428 2787 
Q 1159 2491 1159 1978 
L 1159 0 
L 581 0 
L 581 4863 
L 1159 4863 
L 1159 2956 
Q 1366 3272 1645 3428 
Q 1925 3584 2291 3584 
Q 2894 3584 3203 3211 
Q 3513 2838 3513 2113 
z
" transform="scale(0.015625)"/>
       <path id="DejaVuSans-4e" d="M 628 4666 
L 1478 4666 
L 3547 763 
L 3547 4666 
L 4159 4666 
L 4159 0 
L 3309 0 
L 1241 3903 
L 1241 0 
L 628 0 
L 628 4666 
z
" transform="scale(0.015625)"/>
       <path id="DejaVuSans-74" d="M 1172 4494 
L 1172 3500 
L 2356 3500 
L 2356 3053 
L 1172 3053 
L 1172 1153 
Q 1172 725 1289 603 
Q 1406 481 1766 481 
L 2356 481 
L 2356 0 
L 1766 0 
Q 1100 0 847 248 
Q 594 497 594 1153 
L 594 3053 
L 172 3053 
L 172 3500 
L 594 3500 
L 594 4494 
L 1172 4494 
z
" transform="scale(0.015625)"/>
      </defs>
      <use xlink:href="#DejaVuSans-6d"/>
      <use xlink:href="#DejaVuSans-62" x="97.412109"/>
      <use xlink:href="#DejaVuSans-53" x="160.888672"/>
      <use xlink:href="#DejaVuSans-63" x="224.365234"/>
      <use xlink:href="#DejaVuSans-68" x="279.345703"/>
      <use xlink:href="#DejaVuSans-4e" x="342.724609"/>
      <use xlink:href="#DejaVuSans-65" x="417.529297"/>
      <use xlink:href="#DejaVuSans-74" x="479.052734"/>
     </g>
    </g>
   </g>
  </g>
  <g id="axes_2">
   <g id="patch_7">
    <path d="M 171.38774 237.25726 
L 291.14851 237.25726 
L 291.14851 3.00024 
L 171.38774 3.00024 
z
" style="fill: #ffffff"/>
   </g>
   <g id="line2d_23">
    <path d="M 171.38774 165.096632 
L 178.516357 164.807147 
L 185.644975 157.249986 
L 192.773592 157.245774 
L 199.902209 157.244099 
L 207.030826 135.320438 
L 214.159444 133.73468 
L 221.288061 132.907795 
L 228.416678 130.301439 
L 235.545295 130.273364 
L 242.673913 130.035183 
L 249.80253 105.916321 
L 256.931147 103.856105 
L 264.059764 99.625411 
L 271.188382 92.332467 
L 278.316999 58.697113 
L 285.445616 12.633805 
" clip-path="url(#peab13050e9)" style="fill: none; stroke-dasharray: 5.55,2.4; stroke-dashoffset: 0; stroke: #c0c0c0; stroke-width: 1.5"/>
    <g clip-path="url(#peab13050e9)">
     <use xlink:href="#mb07a29d18a" x="171.38774" y="165.096632" style="fill: #c0c0c0"/>
     <use xlink:href="#mb07a29d18a" x="178.516357" y="164.807147" style="fill: #c0c0c0"/>
     <use xlink:href="#mb07a29d18a" x="185.644975" y="157.249986" style="fill: #c0c0c0"/>
     <use xlink:href="#mb07a29d18a" x="192.773592" y="157.245774" style="fill: #c0c0c0"/>
     <use xlink:href="#mb07a29d18a" x="199.902209" y="157.244099" style="fill: #c0c0c0"/>
     <use xlink:href="#mb07a29d18a" x="207.030826" y="135.320438" style="fill: #c0c0c0"/>
     <use xlink:href="#mb07a29d18a" x="214.159444" y="133.73468" style="fill: #c0c0c0"/>
     <use xlink:href="#mb07a29d18a" x="221.288061" y="132.907795" style="fill: #c0c0c0"/>
     <use xlink:href="#mb07a29d18a" x="228.416678" y="130.301439" style="fill: #c0c0c0"/>
     <use xlink:href="#mb07a29d18a" x="235.545295" y="130.273364" style="fill: #c0c0c0"/>
     <use xlink:href="#mb07a29d18a" x="242.673913" y="130.035183" style="fill: #c0c0c0"/>
     <use xlink:href="#mb07a29d18a" x="249.80253" y="105.916321" style="fill: #c0c0c0"/>
     <use xlink:href="#mb07a29d18a" x="256.931147" y="103.856105" style="fill: #c0c0c0"/>
     <use xlink:href="#mb07a29d18a" x="264.059764" y="99.625411" style="fill: #c0c0c0"/>
     <use xlink:href="#mb07a29d18a" x="271.188382" y="92.332467" style="fill: #c0c0c0"/>
     <use xlink:href="#mb07a29d18a" x="278.316999" y="58.697113" style="fill: #c0c0c0"/>
     <use xlink:href="#mb07a29d18a" x="285.445616" y="12.633805" style="fill: #c0c0c0"/>
    </g>
   </g>
   <g id="line2d_24">
    <path d="M 171.38774 164.330696 
L 178.516357 174.043437 
L 185.644975 165.693623 
L 192.773592 165.711056 
L 199.902209 165.650605 
L 207.030826 144.992199 
L 214.159444 143.252349 
L 221.288061 143.693617 
L 228.416678 124.686943 
L 235.545295 137.507578 
L 242.673913 137.319162 
L 249.80253 101.846105 
L 256.931147 99.368393 
L 264.059764 99.455967 
L 271.188382 98.26674 
L 278.316999 62.633568 
L 285.445616 12.880499 
" clip-path="url(#peab13050e9)" style="fill: none; stroke-dasharray: 5.55,2.4; stroke-dashoffset: 0; stroke: #bfe5da; stroke-width: 1.5"/>
    <g clip-path="url(#peab13050e9)">
     <use xlink:href="#m2257a8f59b" x="171.38774" y="164.330696" style="fill: #bfe5da"/>
     <use xlink:href="#m2257a8f59b" x="178.516357" y="174.043437" style="fill: #bfe5da"/>
     <use xlink:href="#m2257a8f59b" x="185.644975" y="165.693623" style="fill: #bfe5da"/>
     <use xlink:href="#m2257a8f59b" x="192.773592" y="165.711056" style="fill: #bfe5da"/>
     <use xlink:href="#m2257a8f59b" x="199.902209" y="165.650605" style="fill: #bfe5da"/>
     <use xlink:href="#m2257a8f59b" x="207.030826" y="144.992199" style="fill: #bfe5da"/>
     <use xlink:href="#m2257a8f59b" x="214.159444" y="143.252349" style="fill: #bfe5da"/>
     <use xlink:href="#m2257a8f59b" x="221.288061" y="143.693617" style="fill: #bfe5da"/>
     <use xlink:href="#m2257a8f59b" x="228.416678" y="124.686943" style="fill: #bfe5da"/>
     <use xlink:href="#m2257a8f59b" x="235.545295" y="137.507578" style="fill: #bfe5da"/>
     <use xlink:href="#m2257a8f59b" x="242.673913" y="137.319162" style="fill: #bfe5da"/>
     <use xlink:href="#m2257a8f59b" x="249.80253" y="101.846105" style="fill: #bfe5da"/>
     <use xlink:href="#m2257a8f59b" x="256.931147" y="99.368393" style="fill: #bfe5da"/>
     <use xlink:href="#m2257a8f59b" x="264.059764" y="99.455967" style="fill: #bfe5da"/>
     <use xlink:href="#m2257a8f59b" x="271.188382" y="98.26674" style="fill: #bfe5da"/>
     <use xlink:href="#m2257a8f59b" x="278.316999" y="62.633568" style="fill: #bfe5da"/>
     <use xlink:href="#m2257a8f59b" x="285.445616" y="12.880499" style="fill: #bfe5da"/>
    </g>
   </g>
   <g id="matplotlib.axis_3">
    <g id="text_15">
     <!-- 5mer Isomers -->
     <g transform="translate(203.653125 247.33601)scale(0.08 -0.08)">
      <use xlink:href="#DejaVuSans-35"/>
      <use xlink:href="#DejaVuSans-6d" x="63.623047"/>
      <use xlink:href="#DejaVuSans-65" x="161.035156"/>
      <use xlink:href="#DejaVuSans-72" x="222.558594"/>
      <use xlink:href="#DejaVuSans-20" x="263.671875"/>
      <use xlink:href="#DejaVuSans-49" x="295.458984"/>
      <use xlink:href="#DejaVuSans-73" x="324.951172"/>
      <use xlink:href="#DejaVuSans-6f" x="377.050781"/>
      <use xlink:href="#DejaVuSans-6d" x="438.232422"/>
      <use xlink:href="#DejaVuSans-65" x="535.644531"/>
      <use xlink:href="#DejaVuSans-72" x="597.167969"/>
      <use xlink:href="#DejaVuSans-73" x="638.28125"/>
     </g>
    </g>
   </g>
   <g id="matplotlib.axis_4">
    <g id="ytick_17">
     <g id="line2d_25">
      <g>
       <use xlink:href="#me2ab40d196" x="171.38774" y="237.25726" style="stroke: #000000; stroke-width: 0.8"/>
      </g>
     </g>
     <g id="text_16">
      <!-- −1 -->
      <g transform="translate(152.59399 240.296635)scale(0.08 -0.08)">
       <defs>
        <path id="DejaVuSans-2212" d="M 678 2272 
L 4684 2272 
L 4684 1741 
L 678 1741 
L 678 2272 
z
" transform="scale(0.015625)"/>
       </defs>
       <use xlink:href="#DejaVuSans-2212"/>
       <use xlink:href="#DejaVuSans-31" x="83.789062"/>
      </g>
     </g>
    </g>
    <g id="ytick_18">
     <g id="line2d_26">
      <g>
       <use xlink:href="#me2ab40d196" x="171.38774" y="165.096632" style="stroke: #000000; stroke-width: 0.8"/>
      </g>
     </g>
     <g id="text_17">
      <!-- 0 -->
      <g transform="translate(159.29774 168.136007)scale(0.08 -0.08)">
       <use xlink:href="#DejaVuSans-30"/>
      </g>
     </g>
    </g>
    <g id="ytick_19">
     <g id="line2d_27">
      <g>
       <use xlink:href="#me2ab40d196" x="171.38774" y="92.936003" style="stroke: #000000; stroke-width: 0.8"/>
      </g>
     </g>
     <g id="text_18">
      <!-- 1 -->
      <g transform="translate(159.29774 95.975378)scale(0.08 -0.08)">
       <use xlink:href="#DejaVuSans-31"/>
      </g>
     </g>
    </g>
    <g id="ytick_20">
     <g id="line2d_28">
      <g>
       <use xlink:href="#me2ab40d196" x="171.38774" y="20.775375" style="stroke: #000000; stroke-width: 0.8"/>
      </g>
     </g>
     <g id="text_19">
      <!-- 2 -->
      <g transform="translate(159.29774 23.81475)scale(0.08 -0.08)">
       <use xlink:href="#DejaVuSans-32"/>
      </g>
     </g>
    </g>
    <g id="ytick_21">
     <g id="line2d_29">
      <g>
       <use xlink:href="#m99dbf0915b" x="171.38774" y="201.176946" style="stroke: #000000; stroke-width: 0.6"/>
      </g>
     </g>
    </g>
    <g id="ytick_22">
     <g id="line2d_30">
      <g>
       <use xlink:href="#m99dbf0915b" x="171.38774" y="129.016318" style="stroke: #000000; stroke-width: 0.6"/>
      </g>
     </g>
    </g>
    <g id="ytick_23">
     <g id="line2d_31">
      <g>
       <use xlink:href="#m99dbf0915b" x="171.38774" y="56.855689" style="stroke: #000000; stroke-width: 0.6"/>
      </g>
     </g>
    </g>
   </g>
   <g id="line2d_32">
    <path d="M 171.38774 205.30511 
L 178.516357 165.402223 
L 185.644975 145.720445 
L 192.773592 145.711922 
L 199.902209 145.308826 
L 207.030826 133.867315 
L 214.159444 133.645873 
L 221.288061 113.932146 
L 228.416678 183.156708 
L 235.545295 138.917753 
L 242.673913 137.780131 
L 249.80253 179.783713 
L 256.931147 188.026914 
L 264.059764 145.070611 
L 271.188382 94.40134 
L 278.316999 54.507676 
L 285.445616 31.767811 
" clip-path="url(#peab13050e9)" style="fill: none; stroke: #61bfa3; stroke-width: 1.5; stroke-linecap: square"/>
    <g clip-path="url(#peab13050e9)">
     <use xlink:href="#mede0046796" x="171.38774" y="205.30511" style="fill: #61bfa3"/>
     <use xlink:href="#mede0046796" x="178.516357" y="165.402223" style="fill: #61bfa3"/>
     <use xlink:href="#mede0046796" x="185.644975" y="145.720445" style="fill: #61bfa3"/>
     <use xlink:href="#mede0046796" x="192.773592" y="145.711922" style="fill: #61bfa3"/>
     <use xlink:href="#mede0046796" x="199.902209" y="145.308826" style="fill: #61bfa3"/>
     <use xlink:href="#mede0046796" x="207.030826" y="133.867315" style="fill: #61bfa3"/>
     <use xlink:href="#mede0046796" x="214.159444" y="133.645873" style="fill: #61bfa3"/>
     <use xlink:href="#mede0046796" x="221.288061" y="113.932146" style="fill: #61bfa3"/>
     <use xlink:href="#mede0046796" x="228.416678" y="183.156708" style="fill: #61bfa3"/>
     <use xlink:href="#mede0046796" x="235.545295" y="138.917753" style="fill: #61bfa3"/>
     <use xlink:href="#mede0046796" x="242.673913" y="137.780131" style="fill: #61bfa3"/>
     <use xlink:href="#mede0046796" x="249.80253" y="179.783713" style="fill: #61bfa3"/>
     <use xlink:href="#mede0046796" x="256.931147" y="188.026914" style="fill: #61bfa3"/>
     <use xlink:href="#mede0046796" x="264.059764" y="145.070611" style="fill: #61bfa3"/>
     <use xlink:href="#mede0046796" x="271.188382" y="94.40134" style="fill: #61bfa3"/>
     <use xlink:href="#mede0046796" x="278.316999" y="54.507676" style="fill: #61bfa3"/>
     <use xlink:href="#mede0046796" x="285.445616" y="31.767811" style="fill: #61bfa3"/>
    </g>
   </g>
   <g id="patch_8">
    <path d="M 171.38774 237.25726 
L 171.38774 3.00024 
" style="fill: none; stroke: #000000; stroke-width: 0.8; stroke-linejoin: miter; stroke-linecap: square"/>
   </g>
   <g id="patch_9">
    <path d="M 291.14851 237.25726 
L 291.14851 3.00024 
" style="fill: none; stroke: #000000; stroke-width: 0.8; stroke-linejoin: miter; stroke-linecap: square"/>
   </g>
   <g id="patch_10">
    <path d="M 171.38774 237.25726 
L 291.14851 237.25726 
" style="fill: none; stroke: #000000; stroke-width: 0.8; stroke-linejoin: miter; stroke-linecap: square"/>
   </g>
   <g id="patch_11">
    <path d="M 171.38774 3.00024 
L 291.14851 3.00024 
" style="fill: none; stroke: #000000; stroke-width: 0.8; stroke-linejoin: miter; stroke-linecap: square"/>
   </g>
   <g id="text_20">
    <!-- B -->
    <g transform="translate(179.890755 15.884376)scale(0.096 -0.096)">
     <defs>
      <path id="DejaVuSans-Bold-42" d="M 2456 2859 
Q 2741 2859 2887 2984 
Q 3034 3109 3034 3353 
Q 3034 3594 2887 3720 
Q 2741 3847 2456 3847 
L 1791 3847 
L 1791 2859 
L 2456 2859 
z
M 2497 819 
Q 2859 819 3042 972 
Q 3225 1125 3225 1434 
Q 3225 1738 3044 1889 
Q 2863 2041 2497 2041 
L 1791 2041 
L 1791 819 
L 2497 819 
z
M 3616 2497 
Q 4003 2384 4215 2081 
Q 4428 1778 4428 1338 
Q 4428 663 3972 331 
Q 3516 0 2584 0 
L 588 0 
L 588 4666 
L 2394 4666 
Q 3366 4666 3802 4372 
Q 4238 4078 4238 3431 
Q 4238 3091 4078 2852 
Q 3919 2613 3616 2497 
z
" transform="scale(0.015625)"/>
     </defs>
     <use xlink:href="#DejaVuSans-Bold-42"/>
    </g>
   </g>
  </g>
  <g id="axes_3">
   <g id="patch_12">
    <path d="M 309.23899 237.25726 
L 428.99976 237.25726 
L 428.99976 3.00024 
L 309.23899 3.00024 
z
" style="fill: #ffffff"/>
   </g>
   <g id="line2d_33">
    <path d="M 309.23899 161.635047 
L 315.242036 160.880991 
L 321.245082 160.857132 
L 327.248128 152.467053 
L 333.251174 151.223213 
L 339.254221 135.774775 
L 345.257267 134.587426 
L 351.260313 134.58592 
L 357.263359 123.169154 
L 363.266405 121.878996 
L 369.269451 107.421408 
L 375.272497 86.114589 
L 381.275543 83.171184 
L 387.278589 79.255028 
L 393.281636 69.390103 
L 399.284682 54.087778 
L 405.287728 44.204992 
L 411.290774 34.839177 
L 417.29382 30.808165 
L 423.296866 15.591342 
" clip-path="url(#p72da82eebe)" style="fill: none; stroke-dasharray: 5.55,2.4; stroke-dashoffset: 0; stroke: #c0c0c0; stroke-width: 1.5"/>
    <g clip-path="url(#p72da82eebe)">
     <use xlink:href="#mb07a29d18a" x="309.23899" y="161.635047" style="fill: #c0c0c0"/>
     <use xlink:href="#mb07a29d18a" x="315.242036" y="160.880991" style="fill: #c0c0c0"/>
     <use xlink:href="#mb07a29d18a" x="321.245082" y="160.857132" style="fill: #c0c0c0"/>
     <use xlink:href="#mb07a29d18a" x="327.248128" y="152.467053" style="fill: #c0c0c0"/>
     <use xlink:href="#mb07a29d18a" x="333.251174" y="151.223213" style="fill: #c0c0c0"/>
     <use xlink:href="#mb07a29d18a" x="339.254221" y="135.774775" style="fill: #c0c0c0"/>
     <use xlink:href="#mb07a29d18a" x="345.257267" y="134.587426" style="fill: #c0c0c0"/>
     <use xlink:href="#mb07a29d18a" x="351.260313" y="134.58592" style="fill: #c0c0c0"/>
     <use xlink:href="#mb07a29d18a" x="357.263359" y="123.169154" style="fill: #c0c0c0"/>
     <use xlink:href="#mb07a29d18a" x="363.266405" y="121.878996" style="fill: #c0c0c0"/>
     <use xlink:href="#mb07a29d18a" x="369.269451" y="107.421408" style="fill: #c0c0c0"/>
     <use xlink:href="#mb07a29d18a" x="375.272497" y="86.114589" style="fill: #c0c0c0"/>
     <use xlink:href="#mb07a29d18a" x="381.275543" y="83.171184" style="fill: #c0c0c0"/>
     <use xlink:href="#mb07a29d18a" x="387.278589" y="79.255028" style="fill: #c0c0c0"/>
     <use xlink:href="#mb07a29d18a" x="393.281636" y="69.390103" style="fill: #c0c0c0"/>
     <use xlink:href="#mb07a29d18a" x="399.284682" y="54.087778" style="fill: #c0c0c0"/>
     <use xlink:href="#mb07a29d18a" x="405.287728" y="44.204992" style="fill: #c0c0c0"/>
     <use xlink:href="#mb07a29d18a" x="411.290774" y="34.839177" style="fill: #c0c0c0"/>
     <use xlink:href="#mb07a29d18a" x="417.29382" y="30.808165" style="fill: #c0c0c0"/>
     <use xlink:href="#mb07a29d18a" x="423.296866" y="15.591342" style="fill: #c0c0c0"/>
    </g>
   </g>
   <g id="line2d_34">
    <path d="M 309.23899 166.590959 
L 315.242036 174.652507 
L 321.245082 165.854051 
L 327.248128 147.848496 
L 333.251174 146.787496 
L 339.254221 141.602876 
L 345.257267 144.622667 
L 351.260313 144.624041 
L 357.263359 131.327723 
L 363.266405 127.310398 
L 369.269451 109.371242 
L 375.272497 94.633369 
L 381.275543 91.32764 
L 387.278589 80.915991 
L 393.281636 74.747497 
L 399.284682 58.380764 
L 405.287728 45.527648 
L 411.290774 30.791915 
L 417.29382 40.946399 
L 423.296866 22.817058 
" clip-path="url(#p72da82eebe)" style="fill: none; stroke-dasharray: 5.55,2.4; stroke-dashoffset: 0; stroke: #bfe5da; stroke-width: 1.5"/>
    <g clip-path="url(#p72da82eebe)">
     <use xlink:href="#m2257a8f59b" x="309.23899" y="166.590959" style="fill: #bfe5da"/>
     <use xlink:href="#m2257a8f59b" x="315.242036" y="174.652507" style="fill: #bfe5da"/>
     <use xlink:href="#m2257a8f59b" x="321.245082" y="165.854051" style="fill: #bfe5da"/>
     <use xlink:href="#m2257a8f59b" x="327.248128" y="147.848496" style="fill: #bfe5da"/>
     <use xlink:href="#m2257a8f59b" x="333.251174" y="146.787496" style="fill: #bfe5da"/>
     <use xlink:href="#m2257a8f59b" x="339.254221" y="141.602876" style="fill: #bfe5da"/>
     <use xlink:href="#m2257a8f59b" x="345.257267" y="144.622667" style="fill: #bfe5da"/>
     <use xlink:href="#m2257a8f59b" x="351.260313" y="144.624041" style="fill: #bfe5da"/>
     <use xlink:href="#m2257a8f59b" x="357.263359" y="131.327723" style="fill: #bfe5da"/>
     <use xlink:href="#m2257a8f59b" x="363.266405" y="127.310398" style="fill: #bfe5da"/>
     <use xlink:href="#m2257a8f59b" x="369.269451" y="109.371242" style="fill: #bfe5da"/>
     <use xlink:href="#m2257a8f59b" x="375.272497" y="94.633369" style="fill: #bfe5da"/>
     <use xlink:href="#m2257a8f59b" x="381.275543" y="91.32764" style="fill: #bfe5da"/>
     <use xlink:href="#m2257a8f59b" x="387.278589" y="80.915991" style="fill: #bfe5da"/>
     <use xlink:href="#m2257a8f59b" x="393.281636" y="74.747497" style="fill: #bfe5da"/>
     <use xlink:href="#m2257a8f59b" x="399.284682" y="58.380764" style="fill: #bfe5da"/>
     <use xlink:href="#m2257a8f59b" x="405.287728" y="45.527648" style="fill: #bfe5da"/>
     <use xlink:href="#m2257a8f59b" x="411.290774" y="30.791915" style="fill: #bfe5da"/>
     <use xlink:href="#m2257a8f59b" x="417.29382" y="40.946399" style="fill: #bfe5da"/>
     <use xlink:href="#m2257a8f59b" x="423.296866" y="22.817058" style="fill: #bfe5da"/>
    </g>
   </g>
   <g id="matplotlib.axis_5">
    <g id="text_21">
     <!-- 6mer Isomers -->
     <g transform="translate(341.504375 247.33601)scale(0.08 -0.08)">
      <use xlink:href="#DejaVuSans-36"/>
      <use xlink:href="#DejaVuSans-6d" x="63.623047"/>
      <use xlink:href="#DejaVuSans-65" x="161.035156"/>
      <use xlink:href="#DejaVuSans-72" x="222.558594"/>
      <use xlink:href="#DejaVuSans-20" x="263.671875"/>
      <use xlink:href="#DejaVuSans-49" x="295.458984"/>
      <use xlink:href="#DejaVuSans-73" x="324.951172"/>
      <use xlink:href="#DejaVuSans-6f" x="377.050781"/>
      <use xlink:href="#DejaVuSans-6d" x="438.232422"/>
      <use xlink:href="#DejaVuSans-65" x="535.644531"/>
      <use xlink:href="#DejaVuSans-72" x="597.167969"/>
      <use xlink:href="#DejaVuSans-73" x="638.28125"/>
     </g>
    </g>
   </g>
   <g id="matplotlib.axis_6">
    <g id="ytick_24">
     <g id="line2d_35">
      <g>
       <use xlink:href="#me2ab40d196" x="309.23899" y="161.635047" style="stroke: #000000; stroke-width: 0.8"/>
      </g>
     </g>
     <g id="text_22">
      <!-- 0 -->
      <g transform="translate(297.14899 164.674422)scale(0.08 -0.08)">
       <use xlink:href="#DejaVuSans-30"/>
      </g>
     </g>
    </g>
    <g id="ytick_25">
     <g id="line2d_36">
      <g>
       <use xlink:href="#me2ab40d196" x="309.23899" y="119.52899" style="stroke: #000000; stroke-width: 0.8"/>
      </g>
     </g>
     <g id="text_23">
      <!-- 1 -->
      <g transform="translate(297.14899 122.568365)scale(0.08 -0.08)">
       <use xlink:href="#DejaVuSans-31"/>
      </g>
     </g>
    </g>
    <g id="ytick_26">
     <g id="line2d_37">
      <g>
       <use xlink:href="#me2ab40d196" x="309.23899" y="77.422934" style="stroke: #000000; stroke-width: 0.8"/>
      </g>
     </g>
     <g id="text_24">
      <!-- 2 -->
      <g transform="translate(297.14899 80.462309)scale(0.08 -0.08)">
       <use xlink:href="#DejaVuSans-32"/>
      </g>
     </g>
    </g>
    <g id="ytick_27">
     <g id="line2d_38">
      <g>
       <use xlink:href="#me2ab40d196" x="309.23899" y="35.316877" style="stroke: #000000; stroke-width: 0.8"/>
      </g>
     </g>
     <g id="text_25">
      <!-- 3 -->
      <g transform="translate(297.14899 38.356252)scale(0.08 -0.08)">
       <use xlink:href="#DejaVuSans-33"/>
      </g>
     </g>
    </g>
    <g id="ytick_28">
     <g id="line2d_39">
      <g>
       <use xlink:href="#m99dbf0915b" x="309.23899" y="140.582018" style="stroke: #000000; stroke-width: 0.6"/>
      </g>
     </g>
    </g>
    <g id="ytick_29">
     <g id="line2d_40">
      <g>
       <use xlink:href="#m99dbf0915b" x="309.23899" y="98.475962" style="stroke: #000000; stroke-width: 0.6"/>
      </g>
     </g>
    </g>
    <g id="ytick_30">
     <g id="line2d_41">
      <g>
       <use xlink:href="#m99dbf0915b" x="309.23899" y="56.369906" style="stroke: #000000; stroke-width: 0.6"/>
      </g>
     </g>
    </g>
    <g id="ytick_31">
     <g id="line2d_42">
      <g>
       <use xlink:href="#m99dbf0915b" x="309.23899" y="14.263849" style="stroke: #000000; stroke-width: 0.6"/>
      </g>
     </g>
    </g>
   </g>
   <g id="line2d_43">
    <path d="M 309.23899 183.001167 
L 315.242036 155.89768 
L 321.245082 181.93526 
L 327.248128 224.372935 
L 333.251174 226.609214 
L 339.254221 141.051666 
L 345.257267 133.654724 
L 351.260313 133.417063 
L 357.263359 132.176555 
L 363.266405 136.66381 
L 369.269451 133.185448 
L 375.272497 92.860152 
L 381.275543 80.130296 
L 387.278589 108.424612 
L 393.281636 70.789875 
L 399.284682 68.108494 
L 405.287728 55.691277 
L 411.290774 38.824246 
L 417.29382 24.441109 
L 423.296866 13.648286 
" clip-path="url(#p72da82eebe)" style="fill: none; stroke: #61bfa3; stroke-width: 1.5; stroke-linecap: square"/>
    <g clip-path="url(#p72da82eebe)">
     <use xlink:href="#mede0046796" x="309.23899" y="183.001167" style="fill: #61bfa3"/>
     <use xlink:href="#mede0046796" x="315.242036" y="155.89768" style="fill: #61bfa3"/>
     <use xlink:href="#mede0046796" x="321.245082" y="181.93526" style="fill: #61bfa3"/>
     <use xlink:href="#mede0046796" x="327.248128" y="224.372935" style="fill: #61bfa3"/>
     <use xlink:href="#mede0046796" x="333.251174" y="226.609214" style="fill: #61bfa3"/>
     <use xlink:href="#mede0046796" x="339.254221" y="141.051666" style="fill: #61bfa3"/>
     <use xlink:href="#mede0046796" x="345.257267" y="133.654724" style="fill: #61bfa3"/>
     <use xlink:href="#mede0046796" x="351.260313" y="133.417063" style="fill: #61bfa3"/>
     <use xlink:href="#mede0046796" x="357.263359" y="132.176555" style="fill: #61bfa3"/>
     <use xlink:href="#mede0046796" x="363.266405" y="136.66381" style="fill: #61bfa3"/>
     <use xlink:href="#mede0046796" x="369.269451" y="133.185448" style="fill: #61bfa3"/>
     <use xlink:href="#mede0046796" x="375.272497" y="92.860152" style="fill: #61bfa3"/>
     <use xlink:href="#mede0046796" x="381.275543" y="80.130296" style="fill: #61bfa3"/>
     <use xlink:href="#mede0046796" x="387.278589" y="108.424612" style="fill: #61bfa3"/>
     <use xlink:href="#mede0046796" x="393.281636" y="70.789875" style="fill: #61bfa3"/>
     <use xlink:href="#mede0046796" x="399.284682" y="68.108494" style="fill: #61bfa3"/>
     <use xlink:href="#mede0046796" x="405.287728" y="55.691277" style="fill: #61bfa3"/>
     <use xlink:href="#mede0046796" x="411.290774" y="38.824246" style="fill: #61bfa3"/>
     <use xlink:href="#mede0046796" x="417.29382" y="24.441109" style="fill: #61bfa3"/>
     <use xlink:href="#mede0046796" x="423.296866" y="13.648286" style="fill: #61bfa3"/>
    </g>
   </g>
   <g id="patch_13">
    <path d="M 309.23899 237.25726 
L 309.23899 3.00024 
" style="fill: none; stroke: #000000; stroke-width: 0.8; stroke-linejoin: miter; stroke-linecap: square"/>
   </g>
   <g id="patch_14">
    <path d="M 428.99976 237.25726 
L 428.99976 3.00024 
" style="fill: none; stroke: #000000; stroke-width: 0.8; stroke-linejoin: miter; stroke-linecap: square"/>
   </g>
   <g id="patch_15">
    <path d="M 309.23899 237.25726 
L 428.99976 237.25726 
" style="fill: none; stroke: #000000; stroke-width: 0.8; stroke-linejoin: miter; stroke-linecap: square"/>
   </g>
   <g id="patch_16">
    <path d="M 309.23899 3.00024 
L 428.99976 3.00024 
" style="fill: none; stroke: #000000; stroke-width: 0.8; stroke-linejoin: miter; stroke-linecap: square"/>
   </g>
   <g id="text_26">
    <!-- C -->
    <g transform="translate(317.742005 15.884376)scale(0.096 -0.096)">
     <defs>
      <path id="DejaVuSans-Bold-43" d="M 4288 256 
Q 3956 84 3597 -3 
Q 3238 -91 2847 -91 
Q 1681 -91 1000 561 
Q 319 1213 319 2328 
Q 319 3447 1000 4098 
Q 1681 4750 2847 4750 
Q 3238 4750 3597 4662 
Q 3956 4575 4288 4403 
L 4288 3438 
Q 3953 3666 3628 3772 
Q 3303 3878 2944 3878 
Q 2300 3878 1931 3465 
Q 1563 3053 1563 2328 
Q 1563 1606 1931 1193 
Q 2300 781 2944 781 
Q 3303 781 3628 887 
Q 3953 994 4288 1222 
L 4288 256 
z
" transform="scale(0.015625)"/>
     </defs>
     <use xlink:href="#DejaVuSans-Bold-43"/>
    </g>
   </g>
  </g>
 </g>
 <defs>
  <clipPath id="p5f0056c49c">
   <rect x="26.83274" y="3.00024" width="119.76077" height="234.25702"/>
  </clipPath>
  <clipPath id="peab13050e9">
   <rect x="171.38774" y="3.00024" width="119.76077" height="234.25702"/>
  </clipPath>
  <clipPath id="p72da82eebe">
   <rect x="309.23899" y="3.00024" width="119.76077" height="234.25702"/>
  </clipPath>
 </defs>
</svg>
