<?xml version="1.0" encoding="utf-8" standalone="no"?>
<!DOCTYPE svg PUBLIC "-//W3C//DTD SVG 1.1//EN"
  "http://www.w3.org/Graphics/SVG/1.1/DTD/svg11.dtd">
<svg xmlns:xlink="http://www.w3.org/1999/xlink" width="432pt" height="252pt" viewBox="0 0 432 252" xmlns="http://www.w3.org/2000/svg" version="1.1">
 <metadata>
  <rdf:RDF xmlns:dc="http://purl.org/dc/elements/1.1/" xmlns:cc="http://creativecommons.org/ns#" xmlns:rdf="http://www.w3.org/1999/02/22-rdf-syntax-ns#">
   <cc:Work>
    <dc:type rdf:resource="http://purl.org/dc/dcmitype/StillImage"/>
    <dc:date>2023-05-18T21:23:06.153814</dc:date>
    <dc:format>image/svg+xml</dc:format>
    <dc:creator>
     <cc:Agent>
      <dc:title>Matplotlib v3.6.2, https://matplotlib.org/</dc:title>
     </cc:Agent>
    </dc:creator>
   </cc:Work>
  </rdf:RDF>
 </metadata>
 <defs>
  <style type="text/css">*{stroke-linejoin: round; stroke-linecap: butt}</style>
 </defs>
 <g id="figure_1">
  <g id="patch_1">
   <path d="M 0 252 
L 432 252 
L 432 0 
L 0 0 
z
" style="fill: #ffffff"/>
  </g>
  <g id="axes_1">
   <g id="patch_2">
    <path d="M 30.908678 233.87476 
L 149.693093 233.87476 
L 149.693093 3.00024 
L 30.908678 3.00024 
z
" style="fill: #ffffff"/>
   </g>
   <g id="line2d_1">
    <path d="M 30.908678 233.87476 
L 41.193043 218.595039 
L 51.477408 216.253338 
L 61.761773 199.801632 
L 72.046138 109.320664 
L 82.330503 103.743687 
L 92.614868 89.507165 
L 102.899233 89.261985 
L 113.183598 85.707556 
L 123.467963 83.726058 
L 133.752328 65.778738 
L 144.036693 51.849579 
" clip-path="url(#p4de144bf78)" style="fill: none; stroke-dasharray: 5.55,2.4; stroke-dashoffset: 0; stroke: #c0c0c0; stroke-width: 1.5"/>
    <defs>
     <path id="mcb01c54896" d="M -2.5 2.5 
L 2.5 2.5 
L 2.5 -2.5 
L -2.5 -2.5 
z
"/>
    </defs>
    <g clip-path="url(#p4de144bf78)">
     <use xlink:href="#mcb01c54896" x="30.908678" y="233.87476" style="fill: #c0c0c0"/>
     <use xlink:href="#mcb01c54896" x="41.193043" y="218.595039" style="fill: #c0c0c0"/>
     <use xlink:href="#mcb01c54896" x="51.477408" y="216.253338" style="fill: #c0c0c0"/>
     <use xlink:href="#mcb01c54896" x="61.761773" y="199.801632" style="fill: #c0c0c0"/>
     <use xlink:href="#mcb01c54896" x="72.046138" y="109.320664" style="fill: #c0c0c0"/>
     <use xlink:href="#mcb01c54896" x="82.330503" y="103.743687" style="fill: #c0c0c0"/>
     <use xlink:href="#mcb01c54896" x="92.614868" y="89.507165" style="fill: #c0c0c0"/>
     <use xlink:href="#mcb01c54896" x="102.899233" y="89.261985" style="fill: #c0c0c0"/>
     <use xlink:href="#mcb01c54896" x="113.183598" y="85.707556" style="fill: #c0c0c0"/>
     <use xlink:href="#mcb01c54896" x="123.467963" y="83.726058" style="fill: #c0c0c0"/>
     <use xlink:href="#mcb01c54896" x="133.752328" y="65.778738" style="fill: #c0c0c0"/>
     <use xlink:href="#mcb01c54896" x="144.036693" y="51.849579" style="fill: #c0c0c0"/>
    </g>
   </g>
   <g id="line2d_2">
    <path d="M 30.908678 221.562536 
L 41.193043 206.729242 
L 51.477408 204.382225 
L 61.761773 188.912964 
L 72.046138 107.4278 
L 82.330503 103.339764 
L 92.614868 89.323767 
L 102.899233 83.037653 
L 113.183598 86.028162 
L 123.467963 83.510636 
L 133.752328 66.171994 
L 144.036693 52.463007 
" clip-path="url(#p4de144bf78)" style="fill: none; stroke-dasharray: 5.55,2.4; stroke-dashoffset: 0; stroke: #ffe1e3; stroke-width: 1.5"/>
    <defs>
     <path id="m369f7d1b92" d="M -2.5 2.5 
L 2.5 2.5 
L 2.5 -2.5 
L -2.5 -2.5 
z
"/>
    </defs>
    <g clip-path="url(#p4de144bf78)">
     <use xlink:href="#m369f7d1b92" x="30.908678" y="221.562536" style="fill: #ffe1e3"/>
     <use xlink:href="#m369f7d1b92" x="41.193043" y="206.729242" style="fill: #ffe1e3"/>
     <use xlink:href="#m369f7d1b92" x="51.477408" y="204.382225" style="fill: #ffe1e3"/>
     <use xlink:href="#m369f7d1b92" x="61.761773" y="188.912964" style="fill: #ffe1e3"/>
     <use xlink:href="#m369f7d1b92" x="72.046138" y="107.4278" style="fill: #ffe1e3"/>
     <use xlink:href="#m369f7d1b92" x="82.330503" y="103.339764" style="fill: #ffe1e3"/>
     <use xlink:href="#m369f7d1b92" x="92.614868" y="89.323767" style="fill: #ffe1e3"/>
     <use xlink:href="#m369f7d1b92" x="102.899233" y="83.037653" style="fill: #ffe1e3"/>
     <use xlink:href="#m369f7d1b92" x="113.183598" y="86.028162" style="fill: #ffe1e3"/>
     <use xlink:href="#m369f7d1b92" x="123.467963" y="83.510636" style="fill: #ffe1e3"/>
     <use xlink:href="#m369f7d1b92" x="133.752328" y="66.171994" style="fill: #ffe1e3"/>
     <use xlink:href="#m369f7d1b92" x="144.036693" y="52.463007" style="fill: #ffe1e3"/>
    </g>
   </g>
   <g id="matplotlib.axis_1">
    <g id="text_1">
     <!-- 4mer Isomers -->
     <g style="fill: #191919" transform="translate(65.289635 247.37476) scale(0.08 -0.08)">
      <defs>
       <path id="Roboto-Bold-34" d="M 175 1553 
L 2072 4550 
L 2984 4550 
L 2984 1713 
L 3500 1713 
L 3500 984 
L 2984 984 
L 2984 0 
L 2081 0 
L 2081 984 
L 216 984 
L 175 1553 
z
M 1072 1713 
L 2081 1713 
L 2081 3328 
L 2019 3219 
L 1072 1713 
z
" transform="scale(0.015625)"/>
       <path id="Roboto-Bold-6d" d="M 1806 2713 
Q 1431 2713 1253 2394 
L 1253 0 
L 347 0 
L 347 3381 
L 1197 3381 
L 1228 3009 
Q 1581 3444 2197 3444 
Q 2850 3444 3094 2928 
Q 3441 3444 4109 3444 
Q 4597 3444 4894 3156 
Q 5191 2869 5194 2169 
L 5194 0 
L 4288 0 
L 4288 2156 
Q 4288 2494 4152 2603 
Q 4016 2713 3781 2713 
Q 3381 2713 3222 2334 
L 3222 0 
L 2319 0 
L 2319 2150 
Q 2319 2484 2181 2598 
Q 2044 2713 1806 2713 
z
" transform="scale(0.015625)"/>
       <path id="Roboto-Bold-65" d="M 3225 550 
Q 3063 319 2731 128 
Q 2400 -63 1906 -63 
Q 1119 -63 675 414 
Q 231 891 228 1566 
L 228 1697 
Q 228 2463 654 2953 
Q 1081 3444 1806 3444 
Q 2534 3444 2915 2987 
Q 3297 2531 3297 1781 
L 3297 1397 
L 1144 1397 
Q 1191 1069 1403 867 
Q 1616 666 1963 666 
Q 2478 666 2778 1044 
L 3225 550 
z
M 1800 2716 
Q 1513 2716 1356 2522 
Q 1200 2328 1153 2016 
L 2409 2016 
L 2409 2084 
Q 2403 2356 2258 2536 
Q 2113 2716 1800 2716 
z
" transform="scale(0.015625)"/>
       <path id="Roboto-Bold-72" d="M 1922 2563 
Q 1413 2563 1253 2216 
L 1253 0 
L 347 0 
L 347 3381 
L 1200 3381 
L 1228 2978 
Q 1494 3444 1981 3444 
Q 2153 3444 2259 3403 
L 2250 2538 
L 1922 2563 
z
" transform="scale(0.015625)"/>
       <path id="Roboto-Bold-20" transform="scale(0.015625)"/>
       <path id="Roboto-Bold-49" d="M 1403 4550 
L 1403 0 
L 466 0 
L 466 4550 
L 1403 4550 
z
" transform="scale(0.015625)"/>
       <path id="Roboto-Bold-73" d="M 2178 938 
Q 2178 1081 2045 1179 
Q 1913 1278 1475 1372 
Q 953 1484 618 1721 
Q 284 1959 284 2394 
Q 284 2816 642 3130 
Q 1000 3444 1631 3444 
Q 2291 3444 2669 3134 
Q 3047 2825 3047 2353 
L 2144 2353 
Q 2144 2547 2019 2675 
Q 1894 2803 1628 2803 
Q 1403 2803 1276 2698 
Q 1150 2594 1150 2438 
Q 1150 2294 1284 2200 
Q 1419 2106 1781 2034 
Q 2331 1925 2693 1700 
Q 3056 1475 3056 972 
Q 3056 525 2672 231 
Q 2288 -63 1634 -63 
Q 925 -63 550 301 
Q 175 666 175 1078 
L 1034 1078 
Q 1047 813 1230 697 
Q 1413 581 1653 581 
Q 2178 581 2178 938 
z
" transform="scale(0.015625)"/>
       <path id="Roboto-Bold-6f" d="M 206 1722 
Q 206 2459 625 2951 
Q 1044 3444 1806 3444 
Q 2578 3444 2993 2951 
Q 3409 2459 3409 1722 
L 3409 1656 
Q 3409 919 2993 428 
Q 2578 -63 1813 -63 
Q 1053 -63 636 415 
Q 219 894 206 1616 
L 206 1722 
z
M 1113 1656 
Q 1113 1244 1270 955 
Q 1428 666 1813 666 
Q 2191 666 2348 953 
Q 2506 1241 2506 1722 
Q 2506 2125 2348 2420 
Q 2191 2716 1806 2716 
Q 1425 2716 1269 2422 
Q 1113 2128 1113 1656 
z
" transform="scale(0.015625)"/>
      </defs>
      <use xlink:href="#Roboto-Bold-34"/>
      <use xlink:href="#Roboto-Bold-6d" x="57.373047"/>
      <use xlink:href="#Roboto-Bold-65" x="143.945312"/>
      <use xlink:href="#Roboto-Bold-72" x="197.998047"/>
      <use xlink:href="#Roboto-Bold-20" x="234.521484"/>
      <use xlink:href="#Roboto-Bold-49" x="259.423828"/>
      <use xlink:href="#Roboto-Bold-73" x="288.623047"/>
      <use xlink:href="#Roboto-Bold-6f" x="340.087891"/>
      <use xlink:href="#Roboto-Bold-6d" x="396.630859"/>
      <use xlink:href="#Roboto-Bold-65" x="483.203125"/>
      <use xlink:href="#Roboto-Bold-72" x="537.255859"/>
      <use xlink:href="#Roboto-Bold-73" x="573.779297"/>
     </g>
    </g>
   </g>
   <g id="matplotlib.axis_2">
    <g id="ytick_1">
     <g id="line2d_3">
      <defs>
       <path id="m5d58bb85e0" d="M 0 0 
L -3.5 0 
" style="stroke: #c2c1c1; stroke-width: 0.8"/>
      </defs>
      <g>
       <use xlink:href="#m5d58bb85e0" x="30.908678" y="233.87476" style="fill: #c2c1c1; stroke: #c2c1c1; stroke-width: 0.8"/>
      </g>
     </g>
     <g id="text_2">
      <!-- 0 -->
      <g style="fill: #191919" transform="translate(19.974459 236.49976) scale(0.07 -0.07)">
       <defs>
        <path id="Roboto-Regular-30" d="M 3234 1944 
Q 3234 825 2848 381 
Q 2463 -63 1800 -63 
Q 1156 -63 764 368 
Q 372 800 359 1872 
L 359 2638 
Q 359 3753 750 4183 
Q 1141 4613 1794 4613 
Q 2447 4613 2834 4195 
Q 3222 3778 3234 2709 
L 3234 1944 
z
M 2653 2734 
Q 2653 3503 2434 3822 
Q 2216 4141 1794 4141 
Q 1388 4141 1167 3831 
Q 947 3522 941 2778 
L 941 1850 
Q 941 1088 1164 750 
Q 1388 413 1800 413 
Q 2222 413 2436 745 
Q 2650 1078 2653 1825 
L 2653 2734 
z
" transform="scale(0.015625)"/>
       </defs>
       <use xlink:href="#Roboto-Regular-30"/>
      </g>
     </g>
    </g>
    <g id="ytick_2">
     <g id="line2d_4">
      <g>
       <use xlink:href="#m5d58bb85e0" x="30.908678" y="196.224169" style="fill: #c2c1c1; stroke: #c2c1c1; stroke-width: 0.8"/>
      </g>
     </g>
     <g id="text_3">
      <!-- 2 -->
      <g style="fill: #191919" transform="translate(19.974459 198.849169) scale(0.07 -0.07)">
       <defs>
        <path id="Roboto-Regular-32" d="M 3359 475 
L 3359 0 
L 381 0 
L 381 416 
L 1925 2134 
Q 2306 2566 2439 2819 
Q 2572 3072 2572 3328 
Q 2572 3663 2364 3900 
Q 2156 4138 1778 4138 
Q 1322 4138 1097 3878 
Q 872 3619 872 3213 
L 294 3213 
Q 294 3788 672 4200 
Q 1050 4613 1778 4613 
Q 2422 4613 2786 4278 
Q 3150 3944 3150 3397 
Q 3150 2997 2903 2592 
Q 2656 2188 2297 1797 
L 1078 475 
L 3359 475 
z
" transform="scale(0.015625)"/>
       </defs>
       <use xlink:href="#Roboto-Regular-32"/>
      </g>
     </g>
    </g>
    <g id="ytick_3">
     <g id="line2d_5">
      <g>
       <use xlink:href="#m5d58bb85e0" x="30.908678" y="158.573578" style="fill: #c2c1c1; stroke: #c2c1c1; stroke-width: 0.8"/>
      </g>
     </g>
     <g id="text_4">
      <!-- 4 -->
      <g style="fill: #191919" transform="translate(19.974459 161.198578) scale(0.07 -0.07)">
       <defs>
        <path id="Roboto-Regular-34" d="M 166 1397 
L 2203 4550 
L 2819 4550 
L 2819 1531 
L 3453 1531 
L 3453 1056 
L 2819 1056 
L 2819 0 
L 2241 0 
L 2241 1056 
L 166 1056 
L 166 1397 
z
M 822 1531 
L 2241 1531 
L 2241 3766 
L 2169 3638 
L 822 1531 
z
" transform="scale(0.015625)"/>
       </defs>
       <use xlink:href="#Roboto-Regular-34"/>
      </g>
     </g>
    </g>
    <g id="ytick_4">
     <g id="line2d_6">
      <g>
       <use xlink:href="#m5d58bb85e0" x="30.908678" y="120.922987" style="fill: #c2c1c1; stroke: #c2c1c1; stroke-width: 0.8"/>
      </g>
     </g>
     <g id="text_5">
      <!-- 6 -->
      <g style="fill: #191919" transform="translate(19.974459 123.547987) scale(0.07 -0.07)">
       <defs>
        <path id="Roboto-Regular-36" d="M 3291 1484 
Q 3291 838 2930 387 
Q 2569 -63 1878 -63 
Q 1388 -63 1063 198 
Q 738 459 577 861 
Q 416 1263 416 1684 
L 416 1956 
Q 416 2597 595 3194 
Q 775 3791 1247 4173 
Q 1719 4556 2597 4556 
L 2647 4556 
L 2647 4066 
Q 2041 4066 1705 3853 
Q 1369 3641 1205 3302 
Q 1041 2963 1006 2575 
Q 1369 2984 1984 2984 
Q 2438 2984 2727 2765 
Q 3016 2547 3153 2201 
Q 3291 1856 3291 1484 
z
M 997 1666 
Q 997 1059 1267 737 
Q 1538 416 1878 416 
Q 2278 416 2498 708 
Q 2719 1000 2719 1456 
Q 2719 1863 2516 2184 
Q 2313 2506 1891 2506 
Q 1588 2506 1341 2325 
Q 1094 2144 997 1884 
L 997 1666 
z
" transform="scale(0.015625)"/>
       </defs>
       <use xlink:href="#Roboto-Regular-36"/>
      </g>
     </g>
    </g>
    <g id="ytick_5">
     <g id="line2d_7">
      <g>
       <use xlink:href="#m5d58bb85e0" x="30.908678" y="83.272396" style="fill: #c2c1c1; stroke: #c2c1c1; stroke-width: 0.8"/>
      </g>
     </g>
     <g id="text_6">
      <!-- 8 -->
      <g style="fill: #191919" transform="translate(19.974459 85.897396) scale(0.07 -0.07)">
       <defs>
        <path id="Roboto-Regular-38" d="M 3244 1231 
Q 3244 606 2826 271 
Q 2409 -63 1796 -63 
Q 1184 -63 767 271 
Q 350 606 350 1231 
Q 350 1613 554 1905 
Q 759 2197 1109 2347 
Q 806 2494 629 2762 
Q 453 3031 453 3366 
Q 453 3963 833 4288 
Q 1213 4613 1794 4613 
Q 2378 4613 2758 4288 
Q 3138 3963 3138 3366 
Q 3138 3028 2956 2761 
Q 2775 2494 2472 2347 
Q 2825 2197 3034 1903 
Q 3244 1609 3244 1231 
z
M 2559 3356 
Q 2559 3697 2346 3917 
Q 2134 4138 1793 4138 
Q 1453 4138 1243 3927 
Q 1034 3716 1034 3356 
Q 1034 3003 1243 2790 
Q 1453 2578 1797 2578 
Q 2138 2578 2348 2790 
Q 2559 3003 2559 3356 
z
M 2663 1244 
Q 2663 1625 2420 1865 
Q 2178 2106 1791 2106 
Q 1394 2106 1161 1865 
Q 928 1625 928 1244 
Q 928 850 1161 631 
Q 1394 413 1797 413 
Q 2200 413 2431 631 
Q 2663 850 2663 1244 
z
" transform="scale(0.015625)"/>
       </defs>
       <use xlink:href="#Roboto-Regular-38"/>
      </g>
     </g>
    </g>
    <g id="ytick_6">
     <g id="line2d_8">
      <g>
       <use xlink:href="#m5d58bb85e0" x="30.908678" y="45.621805" style="fill: #c2c1c1; stroke: #c2c1c1; stroke-width: 0.8"/>
      </g>
     </g>
     <g id="text_7">
      <!-- 10 -->
      <g style="fill: #191919" transform="translate(16.04024 48.246805) scale(0.07 -0.07)">
       <defs>
        <path id="Roboto-Regular-31" d="M 2278 4575 
L 2278 0 
L 1700 0 
L 1700 3853 
L 534 3428 
L 534 3950 
L 2188 4575 
L 2278 4575 
z
" transform="scale(0.015625)"/>
       </defs>
       <use xlink:href="#Roboto-Regular-31"/>
       <use xlink:href="#Roboto-Regular-30" x="56.201172"/>
      </g>
     </g>
    </g>
    <g id="ytick_7">
     <g id="line2d_9">
      <g>
       <use xlink:href="#m5d58bb85e0" x="30.908678" y="7.971214" style="fill: #c2c1c1; stroke: #c2c1c1; stroke-width: 0.8"/>
      </g>
     </g>
     <g id="text_8">
      <!-- 12 -->
      <g style="fill: #191919" transform="translate(16.04024 10.596214) scale(0.07 -0.07)">
       <use xlink:href="#Roboto-Regular-31"/>
       <use xlink:href="#Roboto-Regular-32" x="56.201172"/>
      </g>
     </g>
    </g>
    <g id="ytick_8">
     <g id="line2d_10">
      <defs>
       <path id="m55ad3e0ada" d="M 0 0 
L -2 0 
" style="stroke: #c2c1c1; stroke-width: 0.6"/>
      </defs>
      <g>
       <use xlink:href="#m55ad3e0ada" x="30.908678" y="215.049464" style="fill: #c2c1c1; stroke: #c2c1c1; stroke-width: 0.6"/>
      </g>
     </g>
    </g>
    <g id="ytick_9">
     <g id="line2d_11">
      <g>
       <use xlink:href="#m55ad3e0ada" x="30.908678" y="177.398873" style="fill: #c2c1c1; stroke: #c2c1c1; stroke-width: 0.6"/>
      </g>
     </g>
    </g>
    <g id="ytick_10">
     <g id="line2d_12">
      <g>
       <use xlink:href="#m55ad3e0ada" x="30.908678" y="139.748282" style="fill: #c2c1c1; stroke: #c2c1c1; stroke-width: 0.6"/>
      </g>
     </g>
    </g>
    <g id="ytick_11">
     <g id="line2d_13">
      <g>
       <use xlink:href="#m55ad3e0ada" x="30.908678" y="102.097691" style="fill: #c2c1c1; stroke: #c2c1c1; stroke-width: 0.6"/>
      </g>
     </g>
    </g>
    <g id="ytick_12">
     <g id="line2d_14">
      <g>
       <use xlink:href="#m55ad3e0ada" x="30.908678" y="64.4471" style="fill: #c2c1c1; stroke: #c2c1c1; stroke-width: 0.6"/>
      </g>
     </g>
    </g>
    <g id="ytick_13">
     <g id="line2d_15">
      <g>
       <use xlink:href="#m55ad3e0ada" x="30.908678" y="26.796509" style="fill: #c2c1c1; stroke: #c2c1c1; stroke-width: 0.6"/>
      </g>
     </g>
    </g>
    <g id="text_9">
     <!-- $\Delta$E (kcal mol$^{\bf{-1}}$) -->
     <g style="fill: #191919" transform="translate(10.20024 146.9175) rotate(-90) scale(0.08 -0.08)">
      <defs>
       <path id="DejaVuSans-394" d="M 2188 4044 
L 906 525 
L 3472 525 
L 2188 4044 
z
M 50 0 
L 1831 4666 
L 2547 4666 
L 4325 0 
L 50 0 
z
" transform="scale(0.015625)"/>
       <path id="Roboto-Bold-45" d="M 406 0 
L 406 4550 
L 3450 4550 
L 3450 3791 
L 1347 3791 
L 1347 2706 
L 3144 2706 
L 3144 1972 
L 1347 1972 
L 1347 756 
L 3459 756 
L 3459 0 
L 406 0 
z
" transform="scale(0.015625)"/>
       <path id="Roboto-Bold-28" d="M 391 1850 
Q 391 2731 633 3392 
Q 875 4053 1234 4473 
Q 1594 4894 1947 5053 
L 2122 4566 
Q 1772 4303 1465 3661 
Q 1159 3019 1153 1906 
L 1153 1772 
Q 1153 628 1461 -23 
Q 1769 -675 2122 -944 
L 1947 -1422 
Q 1594 -1266 1234 -845 
Q 875 -425 633 237 
Q 391 900 391 1778 
L 391 1850 
z
" transform="scale(0.015625)"/>
       <path id="Roboto-Bold-6b" d="M 2444 0 
L 1575 1356 
L 1253 1034 
L 1253 0 
L 350 0 
L 350 4803 
L 1253 4803 
L 1253 2144 
L 1428 2369 
L 2291 3381 
L 3375 3381 
L 2156 1975 
L 3484 0 
L 2444 0 
z
" transform="scale(0.015625)"/>
       <path id="Roboto-Bold-63" d="M 1753 666 
Q 2000 666 2159 802 
Q 2319 938 2322 1169 
L 3172 1169 
Q 3166 631 2761 284 
Q 2356 -63 1769 -63 
Q 984 -63 595 432 
Q 206 928 206 1647 
L 206 1734 
Q 206 2450 593 2947 
Q 981 3444 1766 3444 
Q 2388 3444 2777 3087 
Q 3166 2731 3172 2122 
L 2322 2122 
Q 2319 2369 2172 2542 
Q 2025 2716 1750 2716 
Q 1356 2716 1234 2420 
Q 1113 2125 1113 1647 
Q 1113 1256 1233 961 
Q 1353 666 1753 666 
z
" transform="scale(0.015625)"/>
       <path id="Roboto-Bold-61" d="M 2306 0 
Q 2250 119 2216 303 
Q 1888 -63 1363 -63 
Q 878 -63 547 223 
Q 216 509 216 950 
Q 216 1481 609 1773 
Q 1003 2066 1775 2066 
L 2178 2066 
L 2178 2263 
Q 2178 2497 2058 2636 
Q 1938 2775 1678 2775 
Q 1194 2775 1194 2369 
L 291 2369 
Q 291 2809 681 3126 
Q 1072 3444 1728 3444 
Q 2313 3444 2698 3147 
Q 3084 2850 3084 2256 
L 3084 750 
Q 3091 300 3219 53 
L 3219 0 
L 2306 0 
z
M 1559 628 
Q 1788 628 1948 729 
Q 2109 831 2178 953 
L 2178 1541 
L 1809 1541 
Q 1450 1541 1284 1389 
Q 1119 1238 1119 1016 
Q 1119 847 1236 737 
Q 1353 628 1559 628 
z
" transform="scale(0.015625)"/>
       <path id="Roboto-Bold-6c" d="M 1303 4800 
L 1303 0 
L 397 0 
L 397 4800 
L 1303 4800 
z
" transform="scale(0.015625)"/>
       <path id="DejaVuSans-Bold-2212" d="M 678 2375 
L 4684 2375 
L 4684 1638 
L 678 1638 
L 678 2375 
z
" transform="scale(0.015625)"/>
       <path id="DejaVuSans-Bold-31" d="M 750 831 
L 1813 831 
L 1813 3847 
L 722 3622 
L 722 4441 
L 1806 4666 
L 2950 4666 
L 2950 831 
L 4013 831 
L 4013 0 
L 750 0 
L 750 831 
z
" transform="scale(0.015625)"/>
       <path id="Roboto-Bold-29" d="M 1906 1778 
Q 1906 928 1656 264 
Q 1406 -400 1034 -833 
Q 663 -1266 300 -1422 
L 125 -944 
Q 472 -684 780 -37 
Q 1088 609 1094 1722 
L 1094 1856 
Q 1094 3000 780 3656 
Q 466 4313 125 4572 
L 300 5053 
Q 663 4894 1034 4461 
Q 1406 4028 1656 3364 
Q 1906 2700 1906 1847 
L 1906 1778 
z
" transform="scale(0.015625)"/>
      </defs>
      <use xlink:href="#DejaVuSans-394" transform="translate(0 0.684375)"/>
      <use xlink:href="#Roboto-Bold-45" transform="translate(68.408203 0.684375)"/>
      <use xlink:href="#Roboto-Bold-20" transform="translate(124.658203 0.684375)"/>
      <use xlink:href="#Roboto-Bold-28" transform="translate(149.560547 0.684375)"/>
      <use xlink:href="#Roboto-Bold-6b" transform="translate(184.667969 0.684375)"/>
      <use xlink:href="#Roboto-Bold-63" transform="translate(238.085938 0.684375)"/>
      <use xlink:href="#Roboto-Bold-61" transform="translate(290.283203 0.684375)"/>
      <use xlink:href="#Roboto-Bold-6c" transform="translate(343.896484 0.684375)"/>
      <use xlink:href="#Roboto-Bold-20" transform="translate(370.410156 0.684375)"/>
      <use xlink:href="#Roboto-Bold-6d" transform="translate(395.3125 0.684375)"/>
      <use xlink:href="#Roboto-Bold-6f" transform="translate(481.884766 0.684375)"/>
      <use xlink:href="#Roboto-Bold-6c" transform="translate(538.427734 0.684375)"/>
      <use xlink:href="#DejaVuSans-Bold-2212" transform="translate(565.898438 38.965625) scale(0.7)"/>
      <use xlink:href="#DejaVuSans-Bold-31" transform="translate(624.550781 38.965625) scale(0.7)"/>
      <use xlink:href="#Roboto-Bold-29" transform="translate(675.991211 0.684375)"/>
     </g>
    </g>
   </g>
   <g id="line2d_16">
    <path d="M 30.908678 152.156664 
L 41.193043 147.802251 
L 51.477408 144.094316 
L 61.761773 131.301846 
L 72.046138 72.111959 
L 82.330503 54.455928 
L 92.614868 51.279271 
L 102.899233 60.505909 
L 113.183598 49.887359 
L 123.467963 44.282604 
L 133.752328 40.758935 
L 144.036693 13.994265 
" clip-path="url(#p4de144bf78)" style="fill: none; stroke: #ffb5ba; stroke-width: 1.5; stroke-linecap: square"/>
    <defs>
     <path id="mb3a301d833" d="M 0 2.5 
C 0.663008 2.5 1.29895 2.236584 1.767767 1.767767 
C 2.236584 1.29895 2.5 0.663008 2.5 0 
C 2.5 -0.663008 2.236584 -1.29895 1.767767 -1.767767 
C 1.29895 -2.236584 0.663008 -2.5 0 -2.5 
C -0.663008 -2.5 -1.29895 -2.236584 -1.767767 -1.767767 
C -2.236584 -1.29895 -2.5 -0.663008 -2.5 0 
C -2.5 0.663008 -2.236584 1.29895 -1.767767 1.767767 
C -1.29895 2.236584 -0.663008 2.5 0 2.5 
z
"/>
    </defs>
    <g clip-path="url(#p4de144bf78)">
     <use xlink:href="#mb3a301d833" x="30.908678" y="152.156664" style="fill: #ffb5ba"/>
     <use xlink:href="#mb3a301d833" x="41.193043" y="147.802251" style="fill: #ffb5ba"/>
     <use xlink:href="#mb3a301d833" x="51.477408" y="144.094316" style="fill: #ffb5ba"/>
     <use xlink:href="#mb3a301d833" x="61.761773" y="131.301846" style="fill: #ffb5ba"/>
     <use xlink:href="#mb3a301d833" x="72.046138" y="72.111959" style="fill: #ffb5ba"/>
     <use xlink:href="#mb3a301d833" x="82.330503" y="54.455928" style="fill: #ffb5ba"/>
     <use xlink:href="#mb3a301d833" x="92.614868" y="51.279271" style="fill: #ffb5ba"/>
     <use xlink:href="#mb3a301d833" x="102.899233" y="60.505909" style="fill: #ffb5ba"/>
     <use xlink:href="#mb3a301d833" x="113.183598" y="49.887359" style="fill: #ffb5ba"/>
     <use xlink:href="#mb3a301d833" x="123.467963" y="44.282604" style="fill: #ffb5ba"/>
     <use xlink:href="#mb3a301d833" x="133.752328" y="40.758935" style="fill: #ffb5ba"/>
     <use xlink:href="#mb3a301d833" x="144.036693" y="13.994265" style="fill: #ffb5ba"/>
    </g>
   </g>
   <g id="patch_3">
    <path d="M 30.908678 233.87476 
L 30.908678 3.00024 
" style="fill: none; stroke: #c2c1c1; stroke-width: 0.8; stroke-linejoin: miter; stroke-linecap: square"/>
   </g>
   <g id="patch_4">
    <path d="M 149.693093 233.87476 
L 149.693093 3.00024 
" style="fill: none; stroke: #c2c1c1; stroke-width: 0.8; stroke-linejoin: miter; stroke-linecap: square"/>
   </g>
   <g id="patch_5">
    <path d="M 30.908678 233.87476 
L 149.693093 233.87476 
" style="fill: none; stroke: #c2c1c1; stroke-width: 0.8; stroke-linejoin: miter; stroke-linecap: square"/>
   </g>
   <g id="patch_6">
    <path d="M 30.908678 3.00024 
L 149.693093 3.00024 
" style="fill: none; stroke: #c2c1c1; stroke-width: 0.8; stroke-linejoin: miter; stroke-linecap: square"/>
   </g>
   <g id="text_10">
    <!-- A -->
    <g transform="translate(39.342371 15.698339) scale(0.096 -0.096)">
     <defs>
      <path id="Roboto-Bold-41" d="M 25 0 
L 1719 4550 
L 2588 4550 
L 4291 0 
L 3291 0 
L 2978 938 
L 1331 938 
L 1019 0 
L 25 0 
z
M 1584 1697 
L 2725 1697 
L 2156 3406 
L 1584 1697 
z
" transform="scale(0.015625)"/>
     </defs>
     <use xlink:href="#Roboto-Bold-41"/>
    </g>
   </g>
   <g id="legend_1">
    <g id="line2d_17">
     <path d="M 35.296522 22.917634 
L 43.296522 22.917634 
L 51.296522 22.917634 
" style="fill: none; stroke-dasharray: 5.55,2.4; stroke-dashoffset: 0; stroke: #c0c0c0; stroke-width: 1.5"/>
     <g>
      <use xlink:href="#mcb01c54896" x="43.296522" y="22.917634" style="fill: #c0c0c0"/>
     </g>
    </g>
    <g id="text_11">
     <!-- MP2 -->
     <g transform="translate(57.696522 25.717634) scale(0.08 -0.08)">
      <defs>
       <path id="Roboto-Regular-4d" d="M 2794 841 
L 4281 4550 
L 5056 4550 
L 5056 0 
L 4456 0 
L 4456 1775 
L 4516 3678 
L 3019 0 
L 2563 0 
L 1069 3684 
L 1128 1775 
L 1128 0 
L 528 0 
L 528 4550 
L 1303 4550 
L 2794 841 
z
" transform="scale(0.015625)"/>
       <path id="Roboto-Regular-50" d="M 1131 1784 
L 1131 0 
L 528 0 
L 528 4550 
L 2206 4550 
Q 2981 4550 3392 4159 
Q 3803 3769 3803 3163 
Q 3803 2503 3392 2143 
Q 2981 1784 2206 1784 
L 1131 1784 
z
M 1131 4056 
L 1131 2275 
L 2206 2275 
Q 2738 2275 2969 2522 
Q 3200 2769 3200 3156 
Q 3200 3506 2969 3781 
Q 2738 4056 2206 4056 
L 1131 4056 
z
" transform="scale(0.015625)"/>
      </defs>
      <use xlink:href="#Roboto-Regular-4d"/>
      <use xlink:href="#Roboto-Regular-50" x="87.304688"/>
      <use xlink:href="#Roboto-Regular-32" x="150.390625"/>
     </g>
    </g>
    <g id="line2d_18">
     <path d="M 35.296522 34.542634 
L 43.296522 34.542634 
L 51.296522 34.542634 
" style="fill: none; stroke-dasharray: 5.55,2.4; stroke-dashoffset: 0; stroke: #ffe1e3; stroke-width: 1.5"/>
     <g>
      <use xlink:href="#m369f7d1b92" x="43.296522" y="34.542634" style="fill: #ffe1e3"/>
     </g>
    </g>
    <g id="text_12">
     <!-- MBE -->
     <g transform="translate(57.696522 37.342634) scale(0.08 -0.08)">
      <defs>
       <path id="Roboto-Regular-42" d="M 3625 1313 
Q 3625 675 3214 337 
Q 2803 0 2122 0 
L 528 0 
L 528 4550 
L 2019 4550 
Q 2719 4550 3111 4261 
Q 3503 3972 3503 3338 
Q 3503 3022 3323 2776 
Q 3144 2531 2831 2397 
Q 3216 2291 3420 1994 
Q 3625 1697 3625 1313 
z
M 1131 4056 
L 1131 2613 
L 2038 2613 
Q 2425 2613 2662 2806 
Q 2900 3000 2900 3344 
Q 2900 4041 2056 4056 
L 1131 4056 
z
M 3025 1306 
Q 3025 1688 2817 1908 
Q 2609 2128 2150 2128 
L 1131 2128 
L 1131 491 
L 2122 491 
Q 2550 491 2787 711 
Q 3025 931 3025 1306 
z
" transform="scale(0.015625)"/>
       <path id="Roboto-Regular-45" d="M 528 0 
L 528 4550 
L 3388 4550 
L 3388 4056 
L 1131 4056 
L 1131 2594 
L 3100 2594 
L 3100 2103 
L 1131 2103 
L 1131 491 
L 3419 491 
L 3419 0 
L 528 0 
z
" transform="scale(0.015625)"/>
      </defs>
      <use xlink:href="#Roboto-Regular-4d"/>
      <use xlink:href="#Roboto-Regular-42" x="87.304688"/>
      <use xlink:href="#Roboto-Regular-45" x="149.609375"/>
     </g>
    </g>
    <g id="line2d_19">
     <path d="M 35.296522 46.167634 
L 43.296522 46.167634 
L 51.296522 46.167634 
" style="fill: none; stroke: #ffb5ba; stroke-width: 1.5; stroke-linecap: square"/>
     <g>
      <use xlink:href="#mb3a301d833" x="43.296522" y="46.167634" style="fill: #ffb5ba"/>
     </g>
    </g>
    <g id="text_13">
     <!-- mbSchNet -->
     <g transform="translate(57.696522 48.967634) scale(0.08 -0.08)">
      <defs>
       <path id="Roboto-Regular-6d" d="M 1794 2956 
Q 1225 2956 1016 2478 
L 1016 0 
L 434 0 
L 434 3381 
L 984 3381 
L 1000 3013 
Q 1366 3444 2000 3444 
Q 2325 3444 2579 3314 
Q 2834 3184 2969 2900 
Q 3138 3144 3408 3294 
Q 3678 3444 4044 3444 
Q 4588 3444 4883 3153 
Q 5178 2863 5178 2222 
L 5178 0 
L 4597 0 
L 4597 2228 
Q 4597 2653 4401 2804 
Q 4206 2956 3875 2956 
Q 3525 2956 3325 2748 
Q 3125 2541 3094 2244 
L 3094 0 
L 2516 0 
L 2516 2225 
Q 2516 2622 2319 2789 
Q 2122 2956 1794 2956 
z
" transform="scale(0.015625)"/>
       <path id="Roboto-Regular-62" d="M 3303 1653 
Q 3303 913 2959 425 
Q 2616 -63 1988 -63 
Q 1347 -63 1000 391 
L 969 0 
L 438 0 
L 438 4800 
L 1019 4800 
L 1019 3016 
Q 1363 3444 1981 3444 
Q 2619 3444 2961 2969 
Q 3303 2494 3303 1719 
L 3303 1653 
z
M 1838 2956 
Q 1522 2956 1325 2804 
Q 1128 2653 1019 2431 
L 1019 959 
Q 1131 734 1331 581 
Q 1531 428 1844 428 
Q 2313 428 2517 789 
Q 2722 1150 2722 1653 
L 2722 1719 
Q 2722 2222 2526 2589 
Q 2331 2956 1838 2956 
z
" transform="scale(0.015625)"/>
       <path id="Roboto-Regular-53" d="M 2953 1150 
Q 2953 1463 2742 1650 
Q 2531 1838 1856 2036 
Q 1181 2234 789 2542 
Q 397 2850 397 3375 
Q 397 3906 820 4259 
Q 1244 4613 1944 4613 
Q 2713 4613 3130 4191 
Q 3547 3769 3547 3238 
L 2947 3238 
Q 2947 3619 2700 3869 
Q 2453 4119 1944 4119 
Q 1463 4119 1231 3908 
Q 1000 3697 1000 3381 
Q 1000 3097 1245 2908 
Q 1491 2719 2044 2563 
Q 2834 2341 3196 2014 
Q 3559 1688 3559 1156 
Q 3559 600 3125 268 
Q 2691 -63 1972 -63 
Q 1553 -63 1158 93 
Q 763 250 508 558 
Q 253 866 253 1319 
L 853 1319 
Q 853 853 1193 640 
Q 1534 428 1972 428 
Q 2444 428 2698 623 
Q 2953 819 2953 1150 
z
" transform="scale(0.015625)"/>
       <path id="Roboto-Regular-63" d="M 1794 413 
Q 2103 413 2336 597 
Q 2569 781 2591 1069 
L 3141 1069 
Q 3119 616 2725 276 
Q 2331 -63 1794 -63 
Q 1031 -63 661 440 
Q 291 944 291 1625 
L 291 1756 
Q 291 2438 661 2941 
Q 1031 3444 1794 3444 
Q 2388 3444 2753 3092 
Q 3119 2741 3141 2219 
L 2591 2219 
Q 2569 2531 2355 2750 
Q 2141 2969 1794 2969 
Q 1438 2969 1236 2787 
Q 1034 2606 951 2328 
Q 869 2050 869 1756 
L 869 1625 
Q 869 1328 950 1050 
Q 1031 772 1232 592 
Q 1434 413 1794 413 
z
" transform="scale(0.015625)"/>
       <path id="Roboto-Regular-68" d="M 1844 2956 
Q 1566 2956 1353 2806 
Q 1141 2656 1019 2416 
L 1019 0 
L 441 0 
L 441 4800 
L 1019 4800 
L 1019 2978 
Q 1403 3444 2016 3444 
Q 2513 3444 2805 3166 
Q 3097 2888 3100 2231 
L 3100 0 
L 2519 0 
L 2519 2222 
Q 2519 2619 2345 2787 
Q 2172 2956 1844 2956 
z
" transform="scale(0.015625)"/>
       <path id="Roboto-Regular-4e" d="M 4028 4550 
L 4028 0 
L 3422 0 
L 1131 3509 
L 1131 0 
L 528 0 
L 528 4550 
L 1131 4550 
L 3431 1031 
L 3431 4550 
L 4028 4550 
z
" transform="scale(0.015625)"/>
       <path id="Roboto-Regular-65" d="M 3116 591 
Q 2950 341 2647 139 
Q 2344 -63 1844 -63 
Q 1138 -63 714 396 
Q 291 856 291 1572 
L 291 1703 
Q 291 2256 502 2645 
Q 713 3034 1050 3239 
Q 1388 3444 1769 3444 
Q 2494 3444 2826 2970 
Q 3159 2497 3159 1788 
L 3159 1528 
L 872 1528 
Q 884 1063 1148 736 
Q 1413 409 1875 409 
Q 2181 409 2393 534 
Q 2606 659 2766 869 
L 3116 591 
z
M 1769 2969 
Q 1425 2969 1187 2719 
Q 950 2469 891 2000 
L 2581 2000 
L 2581 2044 
Q 2559 2381 2386 2675 
Q 2213 2969 1769 2969 
z
" transform="scale(0.015625)"/>
       <path id="Roboto-Regular-74" d="M 1872 0 
Q 1675 -63 1425 -63 
Q 1103 -63 875 134 
Q 647 331 647 841 
L 647 2938 
L 28 2938 
L 28 3381 
L 647 3381 
L 647 4203 
L 1225 4203 
L 1225 3381 
L 1856 3381 
L 1856 2938 
L 1225 2938 
L 1225 838 
Q 1225 578 1337 506 
Q 1450 434 1597 434 
Q 1706 434 1869 472 
L 1872 0 
z
" transform="scale(0.015625)"/>
      </defs>
      <use xlink:href="#Roboto-Regular-6d"/>
      <use xlink:href="#Roboto-Regular-62" x="87.695312"/>
      <use xlink:href="#Roboto-Regular-53" x="143.847656"/>
      <use xlink:href="#Roboto-Regular-63" x="203.222656"/>
      <use xlink:href="#Roboto-Regular-68" x="255.566406"/>
      <use xlink:href="#Roboto-Regular-4e" x="310.644531"/>
      <use xlink:href="#Roboto-Regular-65" x="381.982422"/>
      <use xlink:href="#Roboto-Regular-74" x="435.009766"/>
     </g>
    </g>
   </g>
  </g>
  <g id="axes_2">
   <g id="patch_7">
    <path d="M 170.562011 233.87476 
L 289.346427 233.87476 
L 289.346427 3.00024 
L 170.562011 3.00024 
z
" style="fill: #ffffff"/>
   </g>
   <g id="line2d_20">
    <path d="M 170.562011 233.87476 
L 179.264166 223.821882 
L 187.966321 223.616901 
L 196.668476 180.906995 
L 205.370631 179.424919 
L 214.072786 157.159367 
L 222.774941 155.574324 
L 231.477096 150.684392 
L 240.179251 148.572369 
L 248.881406 131.376406 
L 257.583561 95.779663 
L 266.285716 70.863855 
L 274.987871 68.218285 
L 283.690026 33.147409 
" clip-path="url(#p8a05c58eef)" style="fill: none; stroke-dasharray: 5.55,2.4; stroke-dashoffset: 0; stroke: #c0c0c0; stroke-width: 1.5"/>
    <g clip-path="url(#p8a05c58eef)">
     <use xlink:href="#mcb01c54896" x="170.562011" y="233.87476" style="fill: #c0c0c0"/>
     <use xlink:href="#mcb01c54896" x="179.264166" y="223.821882" style="fill: #c0c0c0"/>
     <use xlink:href="#mcb01c54896" x="187.966321" y="223.616901" style="fill: #c0c0c0"/>
     <use xlink:href="#mcb01c54896" x="196.668476" y="180.906995" style="fill: #c0c0c0"/>
     <use xlink:href="#mcb01c54896" x="205.370631" y="179.424919" style="fill: #c0c0c0"/>
     <use xlink:href="#mcb01c54896" x="214.072786" y="157.159367" style="fill: #c0c0c0"/>
     <use xlink:href="#mcb01c54896" x="222.774941" y="155.574324" style="fill: #c0c0c0"/>
     <use xlink:href="#mcb01c54896" x="231.477096" y="150.684392" style="fill: #c0c0c0"/>
     <use xlink:href="#mcb01c54896" x="240.179251" y="148.572369" style="fill: #c0c0c0"/>
     <use xlink:href="#mcb01c54896" x="248.881406" y="131.376406" style="fill: #c0c0c0"/>
     <use xlink:href="#mcb01c54896" x="257.583561" y="95.779663" style="fill: #c0c0c0"/>
     <use xlink:href="#mcb01c54896" x="266.285716" y="70.863855" style="fill: #c0c0c0"/>
     <use xlink:href="#mcb01c54896" x="274.987871" y="68.218285" style="fill: #c0c0c0"/>
     <use xlink:href="#mcb01c54896" x="283.690026" y="33.147409" style="fill: #c0c0c0"/>
    </g>
   </g>
   <g id="line2d_21">
    <path d="M 170.562011 212.722686 
L 179.264166 208.419803 
L 187.966321 204.052588 
L 196.668476 169.26991 
L 205.370631 168.015903 
L 214.072786 149.430907 
L 222.774941 146.612533 
L 231.477096 140.34692 
L 240.179251 139.596824 
L 248.881406 122.949895 
L 257.583561 94.954266 
L 266.285716 67.337367 
L 274.987871 64.738713 
L 283.690026 33.735659 
" clip-path="url(#p8a05c58eef)" style="fill: none; stroke-dasharray: 5.55,2.4; stroke-dashoffset: 0; stroke: #ffe1e3; stroke-width: 1.5"/>
    <g clip-path="url(#p8a05c58eef)">
     <use xlink:href="#m369f7d1b92" x="170.562011" y="212.722686" style="fill: #ffe1e3"/>
     <use xlink:href="#m369f7d1b92" x="179.264166" y="208.419803" style="fill: #ffe1e3"/>
     <use xlink:href="#m369f7d1b92" x="187.966321" y="204.052588" style="fill: #ffe1e3"/>
     <use xlink:href="#m369f7d1b92" x="196.668476" y="169.26991" style="fill: #ffe1e3"/>
     <use xlink:href="#m369f7d1b92" x="205.370631" y="168.015903" style="fill: #ffe1e3"/>
     <use xlink:href="#m369f7d1b92" x="214.072786" y="149.430907" style="fill: #ffe1e3"/>
     <use xlink:href="#m369f7d1b92" x="222.774941" y="146.612533" style="fill: #ffe1e3"/>
     <use xlink:href="#m369f7d1b92" x="231.477096" y="140.34692" style="fill: #ffe1e3"/>
     <use xlink:href="#m369f7d1b92" x="240.179251" y="139.596824" style="fill: #ffe1e3"/>
     <use xlink:href="#m369f7d1b92" x="248.881406" y="122.949895" style="fill: #ffe1e3"/>
     <use xlink:href="#m369f7d1b92" x="257.583561" y="94.954266" style="fill: #ffe1e3"/>
     <use xlink:href="#m369f7d1b92" x="266.285716" y="67.337367" style="fill: #ffe1e3"/>
     <use xlink:href="#m369f7d1b92" x="274.987871" y="64.738713" style="fill: #ffe1e3"/>
     <use xlink:href="#m369f7d1b92" x="283.690026" y="33.735659" style="fill: #ffe1e3"/>
    </g>
   </g>
   <g id="matplotlib.axis_3">
    <g id="text_14">
     <!-- 5mer Isomers -->
     <g style="fill: #191919" transform="translate(204.942969 247.37476) scale(0.08 -0.08)">
      <defs>
       <path id="Roboto-Bold-35" d="M 1166 2063 
L 447 2238 
L 706 4550 
L 3256 4550 
L 3256 3800 
L 1450 3800 
L 1338 2819 
Q 1650 2991 2019 2991 
Q 2681 2991 3043 2587 
Q 3406 2184 3406 1463 
Q 3406 856 3031 396 
Q 2656 -63 1872 -63 
Q 1281 -63 814 287 
Q 347 638 331 1269 
L 1225 1269 
Q 1284 666 1866 666 
Q 2206 666 2354 911 
Q 2503 1156 2503 1513 
Q 2503 1872 2325 2092 
Q 2147 2313 1772 2313 
Q 1525 2313 1390 2233 
Q 1256 2153 1166 2063 
z
" transform="scale(0.015625)"/>
      </defs>
      <use xlink:href="#Roboto-Bold-35"/>
      <use xlink:href="#Roboto-Bold-6d" x="57.373047"/>
      <use xlink:href="#Roboto-Bold-65" x="143.945312"/>
      <use xlink:href="#Roboto-Bold-72" x="197.998047"/>
      <use xlink:href="#Roboto-Bold-20" x="234.521484"/>
      <use xlink:href="#Roboto-Bold-49" x="259.423828"/>
      <use xlink:href="#Roboto-Bold-73" x="288.623047"/>
      <use xlink:href="#Roboto-Bold-6f" x="340.087891"/>
      <use xlink:href="#Roboto-Bold-6d" x="396.630859"/>
      <use xlink:href="#Roboto-Bold-65" x="483.203125"/>
      <use xlink:href="#Roboto-Bold-72" x="537.255859"/>
      <use xlink:href="#Roboto-Bold-73" x="573.779297"/>
     </g>
    </g>
   </g>
   <g id="matplotlib.axis_4">
    <g id="ytick_14">
     <g id="line2d_22">
      <g>
       <use xlink:href="#m5d58bb85e0" x="170.562011" y="233.87476" style="fill: #c2c1c1; stroke: #c2c1c1; stroke-width: 0.8"/>
      </g>
     </g>
     <g id="text_15">
      <!-- 0 -->
      <g style="fill: #191919" transform="translate(159.627792 236.49976) scale(0.07 -0.07)">
       <use xlink:href="#Roboto-Regular-30"/>
      </g>
     </g>
    </g>
    <g id="ytick_15">
     <g id="line2d_23">
      <g>
       <use xlink:href="#m5d58bb85e0" x="170.562011" y="202.494041" style="fill: #c2c1c1; stroke: #c2c1c1; stroke-width: 0.8"/>
      </g>
     </g>
     <g id="text_16">
      <!-- 2 -->
      <g style="fill: #191919" transform="translate(159.627792 205.119041) scale(0.07 -0.07)">
       <use xlink:href="#Roboto-Regular-32"/>
      </g>
     </g>
    </g>
    <g id="ytick_16">
     <g id="line2d_24">
      <g>
       <use xlink:href="#m5d58bb85e0" x="170.562011" y="171.113321" style="fill: #c2c1c1; stroke: #c2c1c1; stroke-width: 0.8"/>
      </g>
     </g>
     <g id="text_17">
      <!-- 4 -->
      <g style="fill: #191919" transform="translate(159.627792 173.738321) scale(0.07 -0.07)">
       <use xlink:href="#Roboto-Regular-34"/>
      </g>
     </g>
    </g>
    <g id="ytick_17">
     <g id="line2d_25">
      <g>
       <use xlink:href="#m5d58bb85e0" x="170.562011" y="139.732602" style="fill: #c2c1c1; stroke: #c2c1c1; stroke-width: 0.8"/>
      </g>
     </g>
     <g id="text_18">
      <!-- 6 -->
      <g style="fill: #191919" transform="translate(159.627792 142.357602) scale(0.07 -0.07)">
       <use xlink:href="#Roboto-Regular-36"/>
      </g>
     </g>
    </g>
    <g id="ytick_18">
     <g id="line2d_26">
      <g>
       <use xlink:href="#m5d58bb85e0" x="170.562011" y="108.351882" style="fill: #c2c1c1; stroke: #c2c1c1; stroke-width: 0.8"/>
      </g>
     </g>
     <g id="text_19">
      <!-- 8 -->
      <g style="fill: #191919" transform="translate(159.627792 110.976882) scale(0.07 -0.07)">
       <use xlink:href="#Roboto-Regular-38"/>
      </g>
     </g>
    </g>
    <g id="ytick_19">
     <g id="line2d_27">
      <g>
       <use xlink:href="#m5d58bb85e0" x="170.562011" y="76.971163" style="fill: #c2c1c1; stroke: #c2c1c1; stroke-width: 0.8"/>
      </g>
     </g>
     <g id="text_20">
      <!-- 10 -->
      <g style="fill: #191919" transform="translate(155.693573 79.596163) scale(0.07 -0.07)">
       <use xlink:href="#Roboto-Regular-31"/>
       <use xlink:href="#Roboto-Regular-30" x="56.201172"/>
      </g>
     </g>
    </g>
    <g id="ytick_20">
     <g id="line2d_28">
      <g>
       <use xlink:href="#m5d58bb85e0" x="170.562011" y="45.590443" style="fill: #c2c1c1; stroke: #c2c1c1; stroke-width: 0.8"/>
      </g>
     </g>
     <g id="text_21">
      <!-- 12 -->
      <g style="fill: #191919" transform="translate(155.693573 48.215443) scale(0.07 -0.07)">
       <use xlink:href="#Roboto-Regular-31"/>
       <use xlink:href="#Roboto-Regular-32" x="56.201172"/>
      </g>
     </g>
    </g>
    <g id="ytick_21">
     <g id="line2d_29">
      <g>
       <use xlink:href="#m5d58bb85e0" x="170.562011" y="14.209724" style="fill: #c2c1c1; stroke: #c2c1c1; stroke-width: 0.8"/>
      </g>
     </g>
     <g id="text_22">
      <!-- 14 -->
      <g style="fill: #191919" transform="translate(155.693573 16.834724) scale(0.07 -0.07)">
       <use xlink:href="#Roboto-Regular-31"/>
       <use xlink:href="#Roboto-Regular-34" x="56.201172"/>
      </g>
     </g>
    </g>
    <g id="ytick_22">
     <g id="line2d_30">
      <g>
       <use xlink:href="#m55ad3e0ada" x="170.562011" y="218.1844" style="fill: #c2c1c1; stroke: #c2c1c1; stroke-width: 0.6"/>
      </g>
     </g>
    </g>
    <g id="ytick_23">
     <g id="line2d_31">
      <g>
       <use xlink:href="#m55ad3e0ada" x="170.562011" y="186.803681" style="fill: #c2c1c1; stroke: #c2c1c1; stroke-width: 0.6"/>
      </g>
     </g>
    </g>
    <g id="ytick_24">
     <g id="line2d_32">
      <g>
       <use xlink:href="#m55ad3e0ada" x="170.562011" y="155.422961" style="fill: #c2c1c1; stroke: #c2c1c1; stroke-width: 0.6"/>
      </g>
     </g>
    </g>
    <g id="ytick_25">
     <g id="line2d_33">
      <g>
       <use xlink:href="#m55ad3e0ada" x="170.562011" y="124.042242" style="fill: #c2c1c1; stroke: #c2c1c1; stroke-width: 0.6"/>
      </g>
     </g>
    </g>
    <g id="ytick_26">
     <g id="line2d_34">
      <g>
       <use xlink:href="#m55ad3e0ada" x="170.562011" y="92.661523" style="fill: #c2c1c1; stroke: #c2c1c1; stroke-width: 0.6"/>
      </g>
     </g>
    </g>
    <g id="ytick_27">
     <g id="line2d_35">
      <g>
       <use xlink:href="#m55ad3e0ada" x="170.562011" y="61.280803" style="fill: #c2c1c1; stroke: #c2c1c1; stroke-width: 0.6"/>
      </g>
     </g>
    </g>
    <g id="ytick_28">
     <g id="line2d_36">
      <g>
       <use xlink:href="#m55ad3e0ada" x="170.562011" y="29.900084" style="fill: #c2c1c1; stroke: #c2c1c1; stroke-width: 0.6"/>
      </g>
     </g>
    </g>
   </g>
   <g id="line2d_37">
    <path d="M 170.562011 160.783375 
L 179.264166 155.874346 
L 187.966321 156.821695 
L 196.668476 125.039792 
L 205.370631 104.426694 
L 214.072786 92.567511 
L 222.774941 104.907284 
L 231.477096 96.129096 
L 240.179251 97.807079 
L 248.881406 89.738112 
L 257.583561 53.673331 
L 266.285716 39.389276 
L 274.987871 36.517795 
L 283.690026 13.994265 
" clip-path="url(#p8a05c58eef)" style="fill: none; stroke: #ffb5ba; stroke-width: 1.5; stroke-linecap: square"/>
    <g clip-path="url(#p8a05c58eef)">
     <use xlink:href="#mb3a301d833" x="170.562011" y="160.783375" style="fill: #ffb5ba"/>
     <use xlink:href="#mb3a301d833" x="179.264166" y="155.874346" style="fill: #ffb5ba"/>
     <use xlink:href="#mb3a301d833" x="187.966321" y="156.821695" style="fill: #ffb5ba"/>
     <use xlink:href="#mb3a301d833" x="196.668476" y="125.039792" style="fill: #ffb5ba"/>
     <use xlink:href="#mb3a301d833" x="205.370631" y="104.426694" style="fill: #ffb5ba"/>
     <use xlink:href="#mb3a301d833" x="214.072786" y="92.567511" style="fill: #ffb5ba"/>
     <use xlink:href="#mb3a301d833" x="222.774941" y="104.907284" style="fill: #ffb5ba"/>
     <use xlink:href="#mb3a301d833" x="231.477096" y="96.129096" style="fill: #ffb5ba"/>
     <use xlink:href="#mb3a301d833" x="240.179251" y="97.807079" style="fill: #ffb5ba"/>
     <use xlink:href="#mb3a301d833" x="248.881406" y="89.738112" style="fill: #ffb5ba"/>
     <use xlink:href="#mb3a301d833" x="257.583561" y="53.673331" style="fill: #ffb5ba"/>
     <use xlink:href="#mb3a301d833" x="266.285716" y="39.389276" style="fill: #ffb5ba"/>
     <use xlink:href="#mb3a301d833" x="274.987871" y="36.517795" style="fill: #ffb5ba"/>
     <use xlink:href="#mb3a301d833" x="283.690026" y="13.994265" style="fill: #ffb5ba"/>
    </g>
   </g>
   <g id="patch_8">
    <path d="M 170.562011 233.87476 
L 170.562011 3.00024 
" style="fill: none; stroke: #c2c1c1; stroke-width: 0.8; stroke-linejoin: miter; stroke-linecap: square"/>
   </g>
   <g id="patch_9">
    <path d="M 289.346427 233.87476 
L 289.346427 3.00024 
" style="fill: none; stroke: #c2c1c1; stroke-width: 0.8; stroke-linejoin: miter; stroke-linecap: square"/>
   </g>
   <g id="patch_10">
    <path d="M 170.562011 233.87476 
L 289.346427 233.87476 
" style="fill: none; stroke: #c2c1c1; stroke-width: 0.8; stroke-linejoin: miter; stroke-linecap: square"/>
   </g>
   <g id="patch_11">
    <path d="M 170.562011 3.00024 
L 289.346427 3.00024 
" style="fill: none; stroke: #c2c1c1; stroke-width: 0.8; stroke-linejoin: miter; stroke-linecap: square"/>
   </g>
   <g id="text_23">
    <!-- B -->
    <g transform="translate(178.995704 15.698339) scale(0.096 -0.096)">
     <defs>
      <path id="Roboto-Bold-42" d="M 3788 1341 
Q 3788 684 3369 345 
Q 2950 6 2175 0 
L 406 0 
L 406 4550 
L 2003 4550 
Q 2794 4550 3241 4247 
Q 3688 3944 3688 3306 
Q 3688 2997 3531 2737 
Q 3375 2478 3038 2344 
Q 3438 2244 3613 1956 
Q 3788 1669 3788 1341 
z
M 1347 3791 
L 1347 2647 
L 2003 2647 
Q 2747 2647 2747 3209 
Q 2747 3778 2034 3791 
L 1347 3791 
z
M 2850 1350 
Q 2850 1963 2231 1984 
L 1347 1984 
L 1347 756 
L 2147 756 
Q 2506 756 2678 925 
Q 2850 1094 2850 1350 
z
" transform="scale(0.015625)"/>
     </defs>
     <use xlink:href="#Roboto-Bold-42"/>
    </g>
   </g>
  </g>
  <g id="axes_3">
   <g id="patch_12">
    <path d="M 310.215344 233.87476 
L 428.99976 233.87476 
L 428.99976 3.00024 
L 310.215344 3.00024 
z
" style="fill: #ffffff"/>
   </g>
   <g id="line2d_38">
    <path d="M 310.215344 233.87476 
L 329.070013 206.253789 
L 347.924683 175.121473 
L 366.779352 136.531232 
L 385.634021 105.220326 
L 404.48869 81.530342 
L 423.343359 31.21625 
" clip-path="url(#p7ab96eb103)" style="fill: none; stroke-dasharray: 5.55,2.4; stroke-dashoffset: 0; stroke: #c0c0c0; stroke-width: 1.5"/>
    <g clip-path="url(#p7ab96eb103)">
     <use xlink:href="#mcb01c54896" x="310.215344" y="233.87476" style="fill: #c0c0c0"/>
     <use xlink:href="#mcb01c54896" x="329.070013" y="206.253789" style="fill: #c0c0c0"/>
     <use xlink:href="#mcb01c54896" x="347.924683" y="175.121473" style="fill: #c0c0c0"/>
     <use xlink:href="#mcb01c54896" x="366.779352" y="136.531232" style="fill: #c0c0c0"/>
     <use xlink:href="#mcb01c54896" x="385.634021" y="105.220326" style="fill: #c0c0c0"/>
     <use xlink:href="#mcb01c54896" x="404.48869" y="81.530342" style="fill: #c0c0c0"/>
     <use xlink:href="#mcb01c54896" x="423.343359" y="31.21625" style="fill: #c0c0c0"/>
    </g>
   </g>
   <g id="line2d_39">
    <path d="M 310.215344 208.172734 
L 329.070013 188.389622 
L 347.924683 162.361807 
L 366.779352 129.422109 
L 385.634021 103.138537 
L 404.48869 79.216239 
L 423.343359 30.386545 
" clip-path="url(#p7ab96eb103)" style="fill: none; stroke-dasharray: 5.55,2.4; stroke-dashoffset: 0; stroke: #ffe1e3; stroke-width: 1.5"/>
    <g clip-path="url(#p7ab96eb103)">
     <use xlink:href="#m369f7d1b92" x="310.215344" y="208.172734" style="fill: #ffe1e3"/>
     <use xlink:href="#m369f7d1b92" x="329.070013" y="188.389622" style="fill: #ffe1e3"/>
     <use xlink:href="#m369f7d1b92" x="347.924683" y="162.361807" style="fill: #ffe1e3"/>
     <use xlink:href="#m369f7d1b92" x="366.779352" y="129.422109" style="fill: #ffe1e3"/>
     <use xlink:href="#m369f7d1b92" x="385.634021" y="103.138537" style="fill: #ffe1e3"/>
     <use xlink:href="#m369f7d1b92" x="404.48869" y="79.216239" style="fill: #ffe1e3"/>
     <use xlink:href="#m369f7d1b92" x="423.343359" y="30.386545" style="fill: #ffe1e3"/>
    </g>
   </g>
   <g id="matplotlib.axis_5">
    <g id="text_24">
     <!-- 6mer Isomers -->
     <g style="fill: #191919" transform="translate(344.596302 247.37476) scale(0.08 -0.08)">
      <defs>
       <path id="Roboto-Bold-36" d="M 3450 1500 
Q 3450 838 3033 387 
Q 2616 -63 1916 -63 
Q 1188 -63 752 443 
Q 316 950 316 1750 
L 316 2097 
Q 316 3200 925 3898 
Q 1534 4597 2634 4597 
L 2763 4597 
L 2763 3853 
L 2672 3853 
Q 2050 3844 1688 3538 
Q 1313 3219 1238 2675 
Q 1603 3047 2156 3047 
Q 2800 3047 3125 2589 
Q 3450 2131 3450 1500 
z
M 1219 1631 
Q 1219 1150 1408 909 
Q 1597 669 1900 669 
Q 2194 669 2370 901 
Q 2547 1134 2547 1491 
Q 2547 1853 2370 2087 
Q 2194 2322 1881 2322 
Q 1641 2322 1469 2198 
Q 1297 2075 1219 1903 
L 1219 1631 
z
" transform="scale(0.015625)"/>
      </defs>
      <use xlink:href="#Roboto-Bold-36"/>
      <use xlink:href="#Roboto-Bold-6d" x="57.373047"/>
      <use xlink:href="#Roboto-Bold-65" x="143.945312"/>
      <use xlink:href="#Roboto-Bold-72" x="197.998047"/>
      <use xlink:href="#Roboto-Bold-20" x="234.521484"/>
      <use xlink:href="#Roboto-Bold-49" x="259.423828"/>
      <use xlink:href="#Roboto-Bold-73" x="288.623047"/>
      <use xlink:href="#Roboto-Bold-6f" x="340.087891"/>
      <use xlink:href="#Roboto-Bold-6d" x="396.630859"/>
      <use xlink:href="#Roboto-Bold-65" x="483.203125"/>
      <use xlink:href="#Roboto-Bold-72" x="537.255859"/>
      <use xlink:href="#Roboto-Bold-73" x="573.779297"/>
     </g>
    </g>
   </g>
   <g id="matplotlib.axis_6">
    <g id="ytick_29">
     <g id="line2d_40">
      <g>
       <use xlink:href="#m5d58bb85e0" x="310.215344" y="233.87476" style="fill: #c2c1c1; stroke: #c2c1c1; stroke-width: 0.8"/>
      </g>
     </g>
     <g id="text_25">
      <!-- 0 -->
      <g style="fill: #191919" transform="translate(299.281125 236.49976) scale(0.07 -0.07)">
       <use xlink:href="#Roboto-Regular-30"/>
      </g>
     </g>
    </g>
    <g id="ytick_30">
     <g id="line2d_41">
      <g>
       <use xlink:href="#m5d58bb85e0" x="310.215344" y="207.12406" style="fill: #c2c1c1; stroke: #c2c1c1; stroke-width: 0.8"/>
      </g>
     </g>
     <g id="text_26">
      <!-- 2 -->
      <g style="fill: #191919" transform="translate(299.281125 209.74906) scale(0.07 -0.07)">
       <use xlink:href="#Roboto-Regular-32"/>
      </g>
     </g>
    </g>
    <g id="ytick_31">
     <g id="line2d_42">
      <g>
       <use xlink:href="#m5d58bb85e0" x="310.215344" y="180.37336" style="fill: #c2c1c1; stroke: #c2c1c1; stroke-width: 0.8"/>
      </g>
     </g>
     <g id="text_27">
      <!-- 4 -->
      <g style="fill: #191919" transform="translate(299.281125 182.99836) scale(0.07 -0.07)">
       <use xlink:href="#Roboto-Regular-34"/>
      </g>
     </g>
    </g>
    <g id="ytick_32">
     <g id="line2d_43">
      <g>
       <use xlink:href="#m5d58bb85e0" x="310.215344" y="153.62266" style="fill: #c2c1c1; stroke: #c2c1c1; stroke-width: 0.8"/>
      </g>
     </g>
     <g id="text_28">
      <!-- 6 -->
      <g style="fill: #191919" transform="translate(299.281125 156.24766) scale(0.07 -0.07)">
       <use xlink:href="#Roboto-Regular-36"/>
      </g>
     </g>
    </g>
    <g id="ytick_33">
     <g id="line2d_44">
      <g>
       <use xlink:href="#m5d58bb85e0" x="310.215344" y="126.871961" style="fill: #c2c1c1; stroke: #c2c1c1; stroke-width: 0.8"/>
      </g>
     </g>
     <g id="text_29">
      <!-- 8 -->
      <g style="fill: #191919" transform="translate(299.281125 129.496961) scale(0.07 -0.07)">
       <use xlink:href="#Roboto-Regular-38"/>
      </g>
     </g>
    </g>
    <g id="ytick_34">
     <g id="line2d_45">
      <g>
       <use xlink:href="#m5d58bb85e0" x="310.215344" y="100.121261" style="fill: #c2c1c1; stroke: #c2c1c1; stroke-width: 0.8"/>
      </g>
     </g>
     <g id="text_30">
      <!-- 10 -->
      <g style="fill: #191919" transform="translate(295.346907 102.746261) scale(0.07 -0.07)">
       <use xlink:href="#Roboto-Regular-31"/>
       <use xlink:href="#Roboto-Regular-30" x="56.201172"/>
      </g>
     </g>
    </g>
    <g id="ytick_35">
     <g id="line2d_46">
      <g>
       <use xlink:href="#m5d58bb85e0" x="310.215344" y="73.370561" style="fill: #c2c1c1; stroke: #c2c1c1; stroke-width: 0.8"/>
      </g>
     </g>
     <g id="text_31">
      <!-- 12 -->
      <g style="fill: #191919" transform="translate(295.346907 75.995561) scale(0.07 -0.07)">
       <use xlink:href="#Roboto-Regular-31"/>
       <use xlink:href="#Roboto-Regular-32" x="56.201172"/>
      </g>
     </g>
    </g>
    <g id="ytick_36">
     <g id="line2d_47">
      <g>
       <use xlink:href="#m5d58bb85e0" x="310.215344" y="46.619861" style="fill: #c2c1c1; stroke: #c2c1c1; stroke-width: 0.8"/>
      </g>
     </g>
     <g id="text_32">
      <!-- 14 -->
      <g style="fill: #191919" transform="translate(295.346907 49.244861) scale(0.07 -0.07)">
       <use xlink:href="#Roboto-Regular-31"/>
       <use xlink:href="#Roboto-Regular-34" x="56.201172"/>
      </g>
     </g>
    </g>
    <g id="ytick_37">
     <g id="line2d_48">
      <g>
       <use xlink:href="#m5d58bb85e0" x="310.215344" y="19.869161" style="fill: #c2c1c1; stroke: #c2c1c1; stroke-width: 0.8"/>
      </g>
     </g>
     <g id="text_33">
      <!-- 16 -->
      <g style="fill: #191919" transform="translate(295.346907 22.494161) scale(0.07 -0.07)">
       <use xlink:href="#Roboto-Regular-31"/>
       <use xlink:href="#Roboto-Regular-36" x="56.201172"/>
      </g>
     </g>
    </g>
    <g id="ytick_38">
     <g id="line2d_49">
      <g>
       <use xlink:href="#m55ad3e0ada" x="310.215344" y="220.49941" style="fill: #c2c1c1; stroke: #c2c1c1; stroke-width: 0.6"/>
      </g>
     </g>
    </g>
    <g id="ytick_39">
     <g id="line2d_50">
      <g>
       <use xlink:href="#m55ad3e0ada" x="310.215344" y="193.74871" style="fill: #c2c1c1; stroke: #c2c1c1; stroke-width: 0.6"/>
      </g>
     </g>
    </g>
    <g id="ytick_40">
     <g id="line2d_51">
      <g>
       <use xlink:href="#m55ad3e0ada" x="310.215344" y="166.99801" style="fill: #c2c1c1; stroke: #c2c1c1; stroke-width: 0.6"/>
      </g>
     </g>
    </g>
    <g id="ytick_41">
     <g id="line2d_52">
      <g>
       <use xlink:href="#m55ad3e0ada" x="310.215344" y="140.247311" style="fill: #c2c1c1; stroke: #c2c1c1; stroke-width: 0.6"/>
      </g>
     </g>
    </g>
    <g id="ytick_42">
     <g id="line2d_53">
      <g>
       <use xlink:href="#m55ad3e0ada" x="310.215344" y="113.496611" style="fill: #c2c1c1; stroke: #c2c1c1; stroke-width: 0.6"/>
      </g>
     </g>
    </g>
    <g id="ytick_43">
     <g id="line2d_54">
      <g>
       <use xlink:href="#m55ad3e0ada" x="310.215344" y="86.745911" style="fill: #c2c1c1; stroke: #c2c1c1; stroke-width: 0.6"/>
      </g>
     </g>
    </g>
    <g id="ytick_44">
     <g id="line2d_55">
      <g>
       <use xlink:href="#m55ad3e0ada" x="310.215344" y="59.995211" style="fill: #c2c1c1; stroke: #c2c1c1; stroke-width: 0.6"/>
      </g>
     </g>
    </g>
    <g id="ytick_45">
     <g id="line2d_56">
      <g>
       <use xlink:href="#m55ad3e0ada" x="310.215344" y="33.244511" style="fill: #c2c1c1; stroke: #c2c1c1; stroke-width: 0.6"/>
      </g>
     </g>
    </g>
    <g id="ytick_46">
     <g id="line2d_57">
      <g>
       <use xlink:href="#m55ad3e0ada" x="310.215344" y="6.493811" style="fill: #c2c1c1; stroke: #c2c1c1; stroke-width: 0.6"/>
      </g>
     </g>
    </g>
   </g>
   <g id="line2d_58">
    <path d="M 310.215344 151.560919 
L 329.070013 143.438378 
L 347.924683 129.744122 
L 366.779352 78.370102 
L 385.634021 50.738013 
L 404.48869 50.681851 
L 423.343359 13.994265 
" clip-path="url(#p7ab96eb103)" style="fill: none; stroke: #ffb5ba; stroke-width: 1.5; stroke-linecap: square"/>
    <g clip-path="url(#p7ab96eb103)">
     <use xlink:href="#mb3a301d833" x="310.215344" y="151.560919" style="fill: #ffb5ba"/>
     <use xlink:href="#mb3a301d833" x="329.070013" y="143.438378" style="fill: #ffb5ba"/>
     <use xlink:href="#mb3a301d833" x="347.924683" y="129.744122" style="fill: #ffb5ba"/>
     <use xlink:href="#mb3a301d833" x="366.779352" y="78.370102" style="fill: #ffb5ba"/>
     <use xlink:href="#mb3a301d833" x="385.634021" y="50.738013" style="fill: #ffb5ba"/>
     <use xlink:href="#mb3a301d833" x="404.48869" y="50.681851" style="fill: #ffb5ba"/>
     <use xlink:href="#mb3a301d833" x="423.343359" y="13.994265" style="fill: #ffb5ba"/>
    </g>
   </g>
   <g id="patch_13">
    <path d="M 310.215344 233.87476 
L 310.215344 3.00024 
" style="fill: none; stroke: #c2c1c1; stroke-width: 0.8; stroke-linejoin: miter; stroke-linecap: square"/>
   </g>
   <g id="patch_14">
    <path d="M 428.99976 233.87476 
L 428.99976 3.00024 
" style="fill: none; stroke: #c2c1c1; stroke-width: 0.8; stroke-linejoin: miter; stroke-linecap: square"/>
   </g>
   <g id="patch_15">
    <path d="M 310.215344 233.87476 
L 428.99976 233.87476 
" style="fill: none; stroke: #c2c1c1; stroke-width: 0.8; stroke-linejoin: miter; stroke-linecap: square"/>
   </g>
   <g id="patch_16">
    <path d="M 310.215344 3.00024 
L 428.99976 3.00024 
" style="fill: none; stroke: #c2c1c1; stroke-width: 0.8; stroke-linejoin: miter; stroke-linecap: square"/>
   </g>
   <g id="text_34">
    <!-- C -->
    <g transform="translate(318.649038 15.698339) scale(0.096 -0.096)">
     <defs>
      <path id="Roboto-Bold-43" d="M 3044 1516 
L 3981 1516 
Q 3934 822 3461 379 
Q 2988 -63 2150 -63 
Q 1275 -63 772 526 
Q 269 1116 269 2125 
L 269 2422 
Q 269 3431 784 4023 
Q 1300 4616 2159 4616 
Q 3013 4616 3466 4161 
Q 3919 3706 3984 3006 
L 3047 3006 
Q 3016 3413 2820 3630 
Q 2625 3847 2159 3847 
Q 1247 3847 1222 2500 
L 1222 2125 
Q 1222 1419 1436 1062 
Q 1650 706 2150 706 
Q 2594 706 2801 907 
Q 3009 1109 3044 1516 
z
" transform="scale(0.015625)"/>
     </defs>
     <use xlink:href="#Roboto-Bold-43"/>
    </g>
   </g>
  </g>
 </g>
 <defs>
  <clipPath id="p4de144bf78">
   <rect x="30.908678" y="3.00024" width="118.784416" height="230.87452"/>
  </clipPath>
  <clipPath id="p8a05c58eef">
   <rect x="170.562011" y="3.00024" width="118.784416" height="230.87452"/>
  </clipPath>
  <clipPath id="p7ab96eb103">
   <rect x="310.215344" y="3.00024" width="118.784416" height="230.87452"/>
  </clipPath>
 </defs>
</svg>
