<?xml version="1.0" encoding="utf-8" standalone="no"?>
<!DOCTYPE svg PUBLIC "-//W3C//DTD SVG 1.1//EN"
  "http://www.w3.org/Graphics/SVG/1.1/DTD/svg11.dtd">
<svg xmlns:xlink="http://www.w3.org/1999/xlink" width="432pt" height="252pt" viewBox="0 0 432 252" xmlns="http://www.w3.org/2000/svg" version="1.1">
 <metadata>
  <rdf:RDF xmlns:dc="http://purl.org/dc/elements/1.1/" xmlns:cc="http://creativecommons.org/ns#" xmlns:rdf="http://www.w3.org/1999/02/22-rdf-syntax-ns#">
   <cc:Work>
    <dc:type rdf:resource="http://purl.org/dc/dcmitype/StillImage"/>
    <dc:date>2022-09-25T16:37:49.697866</dc:date>
    <dc:format>image/svg+xml</dc:format>
    <dc:creator>
     <cc:Agent>
      <dc:title>Matplotlib v3.5.1, https://matplotlib.org/</dc:title>
     </cc:Agent>
    </dc:creator>
   </cc:Work>
  </rdf:RDF>
 </metadata>
 <defs>
  <style type="text/css">*{stroke-linejoin: round; stroke-linecap: butt}</style>
 </defs>
 <g id="figure_1">
  <g id="patch_1">
   <path d="M 0 252 
L 432 252 
L 432 0 
L 0 0 
z
" style="fill: #ffffff"/>
  </g>
  <g id="axes_1">
   <g id="patch_2">
    <path d="M 31.92274 237.25726 
L 148.828093 237.25726 
L 148.828093 3.00024 
L 31.92274 3.00024 
z
" style="fill: #ffffff"/>
   </g>
   <g id="line2d_1">
    <path d="M 31.92274 237.25726 
L 42.044416 221.753678 
L 52.166091 219.377669 
L 62.287767 202.684933 
L 72.409442 110.878345 
L 82.531118 105.219661 
L 92.652794 90.774562 
L 102.774469 90.52579 
L 112.896145 86.919286 
L 123.017821 84.908757 
L 133.139496 66.698494 
L 143.261172 52.565262 
" clip-path="url(#p946bdfd244)" style="fill: none; stroke-dasharray: 5.55,2.4; stroke-dashoffset: 0; stroke: #c0c0c0; stroke-width: 1.5"/>
    <defs>
     <path id="me235c969de" d="M -2.5 2.5 
L 2.5 2.5 
L 2.5 -2.5 
L -2.5 -2.5 
z
"/>
    </defs>
    <g clip-path="url(#p946bdfd244)">
     <use xlink:href="#me235c969de" x="31.92274" y="237.25726" style="fill: #c0c0c0"/>
     <use xlink:href="#me235c969de" x="42.044416" y="221.753678" style="fill: #c0c0c0"/>
     <use xlink:href="#me235c969de" x="52.166091" y="219.377669" style="fill: #c0c0c0"/>
     <use xlink:href="#me235c969de" x="62.287767" y="202.684933" style="fill: #c0c0c0"/>
     <use xlink:href="#me235c969de" x="72.409442" y="110.878345" style="fill: #c0c0c0"/>
     <use xlink:href="#me235c969de" x="82.531118" y="105.219661" style="fill: #c0c0c0"/>
     <use xlink:href="#me235c969de" x="92.652794" y="90.774562" style="fill: #c0c0c0"/>
     <use xlink:href="#me235c969de" x="102.774469" y="90.52579" style="fill: #c0c0c0"/>
     <use xlink:href="#me235c969de" x="112.896145" y="86.919286" style="fill: #c0c0c0"/>
     <use xlink:href="#me235c969de" x="123.017821" y="84.908757" style="fill: #c0c0c0"/>
     <use xlink:href="#me235c969de" x="133.139496" y="66.698494" style="fill: #c0c0c0"/>
     <use xlink:href="#me235c969de" x="143.261172" y="52.565262" style="fill: #c0c0c0"/>
    </g>
   </g>
   <g id="line2d_2">
    <path d="M 31.92274 224.764652 
L 42.044416 209.714038 
L 52.166091 207.332636 
L 62.287767 191.636737 
L 72.409442 108.957749 
L 82.531118 104.809819 
L 92.652794 90.588477 
L 102.774469 84.210266 
L 112.896145 87.244589 
L 123.017821 84.690179 
L 133.139496 67.097512 
L 143.261172 53.187677 
" clip-path="url(#p946bdfd244)" style="fill: none; stroke-dasharray: 5.55,2.4; stroke-dashoffset: 0; stroke: #ffe1e3; stroke-width: 1.5"/>
    <defs>
     <path id="m798277846d" d="M -2.5 2.5 
L 2.5 2.5 
L 2.5 -2.5 
L -2.5 -2.5 
z
"/>
    </defs>
    <g clip-path="url(#p946bdfd244)">
     <use xlink:href="#m798277846d" x="31.92274" y="224.764652" style="fill: #ffe1e3"/>
     <use xlink:href="#m798277846d" x="42.044416" y="209.714038" style="fill: #ffe1e3"/>
     <use xlink:href="#m798277846d" x="52.166091" y="207.332636" style="fill: #ffe1e3"/>
     <use xlink:href="#m798277846d" x="62.287767" y="191.636737" style="fill: #ffe1e3"/>
     <use xlink:href="#m798277846d" x="72.409442" y="108.957749" style="fill: #ffe1e3"/>
     <use xlink:href="#m798277846d" x="82.531118" y="104.809819" style="fill: #ffe1e3"/>
     <use xlink:href="#m798277846d" x="92.652794" y="90.588477" style="fill: #ffe1e3"/>
     <use xlink:href="#m798277846d" x="102.774469" y="84.210266" style="fill: #ffe1e3"/>
     <use xlink:href="#m798277846d" x="112.896145" y="87.244589" style="fill: #ffe1e3"/>
     <use xlink:href="#m798277846d" x="123.017821" y="84.690179" style="fill: #ffe1e3"/>
     <use xlink:href="#m798277846d" x="133.139496" y="67.097512" style="fill: #ffe1e3"/>
     <use xlink:href="#m798277846d" x="143.261172" y="53.187677" style="fill: #ffe1e3"/>
    </g>
   </g>
   <g id="matplotlib.axis_1">
    <g id="text_1">
     <!-- 4mer Isomers -->
     <g transform="translate(62.760417 247.33601)scale(0.08 -0.08)">
      <defs>
       <path id="DejaVuSans-34" d="M 2419 4116 
L 825 1625 
L 2419 1625 
L 2419 4116 
z
M 2253 4666 
L 3047 4666 
L 3047 1625 
L 3713 1625 
L 3713 1100 
L 3047 1100 
L 3047 0 
L 2419 0 
L 2419 1100 
L 313 1100 
L 313 1709 
L 2253 4666 
z
" transform="scale(0.015625)"/>
       <path id="DejaVuSans-6d" d="M 3328 2828 
Q 3544 3216 3844 3400 
Q 4144 3584 4550 3584 
Q 5097 3584 5394 3201 
Q 5691 2819 5691 2113 
L 5691 0 
L 5113 0 
L 5113 2094 
Q 5113 2597 4934 2840 
Q 4756 3084 4391 3084 
Q 3944 3084 3684 2787 
Q 3425 2491 3425 1978 
L 3425 0 
L 2847 0 
L 2847 2094 
Q 2847 2600 2669 2842 
Q 2491 3084 2119 3084 
Q 1678 3084 1418 2786 
Q 1159 2488 1159 1978 
L 1159 0 
L 581 0 
L 581 3500 
L 1159 3500 
L 1159 2956 
Q 1356 3278 1631 3431 
Q 1906 3584 2284 3584 
Q 2666 3584 2933 3390 
Q 3200 3197 3328 2828 
z
" transform="scale(0.015625)"/>
       <path id="DejaVuSans-65" d="M 3597 1894 
L 3597 1613 
L 953 1613 
Q 991 1019 1311 708 
Q 1631 397 2203 397 
Q 2534 397 2845 478 
Q 3156 559 3463 722 
L 3463 178 
Q 3153 47 2828 -22 
Q 2503 -91 2169 -91 
Q 1331 -91 842 396 
Q 353 884 353 1716 
Q 353 2575 817 3079 
Q 1281 3584 2069 3584 
Q 2775 3584 3186 3129 
Q 3597 2675 3597 1894 
z
M 3022 2063 
Q 3016 2534 2758 2815 
Q 2500 3097 2075 3097 
Q 1594 3097 1305 2825 
Q 1016 2553 972 2059 
L 3022 2063 
z
" transform="scale(0.015625)"/>
       <path id="DejaVuSans-72" d="M 2631 2963 
Q 2534 3019 2420 3045 
Q 2306 3072 2169 3072 
Q 1681 3072 1420 2755 
Q 1159 2438 1159 1844 
L 1159 0 
L 581 0 
L 581 3500 
L 1159 3500 
L 1159 2956 
Q 1341 3275 1631 3429 
Q 1922 3584 2338 3584 
Q 2397 3584 2469 3576 
Q 2541 3569 2628 3553 
L 2631 2963 
z
" transform="scale(0.015625)"/>
       <path id="DejaVuSans-20" transform="scale(0.015625)"/>
       <path id="DejaVuSans-49" d="M 628 4666 
L 1259 4666 
L 1259 0 
L 628 0 
L 628 4666 
z
" transform="scale(0.015625)"/>
       <path id="DejaVuSans-73" d="M 2834 3397 
L 2834 2853 
Q 2591 2978 2328 3040 
Q 2066 3103 1784 3103 
Q 1356 3103 1142 2972 
Q 928 2841 928 2578 
Q 928 2378 1081 2264 
Q 1234 2150 1697 2047 
L 1894 2003 
Q 2506 1872 2764 1633 
Q 3022 1394 3022 966 
Q 3022 478 2636 193 
Q 2250 -91 1575 -91 
Q 1294 -91 989 -36 
Q 684 19 347 128 
L 347 722 
Q 666 556 975 473 
Q 1284 391 1588 391 
Q 1994 391 2212 530 
Q 2431 669 2431 922 
Q 2431 1156 2273 1281 
Q 2116 1406 1581 1522 
L 1381 1569 
Q 847 1681 609 1914 
Q 372 2147 372 2553 
Q 372 3047 722 3315 
Q 1072 3584 1716 3584 
Q 2034 3584 2315 3537 
Q 2597 3491 2834 3397 
z
" transform="scale(0.015625)"/>
       <path id="DejaVuSans-6f" d="M 1959 3097 
Q 1497 3097 1228 2736 
Q 959 2375 959 1747 
Q 959 1119 1226 758 
Q 1494 397 1959 397 
Q 2419 397 2687 759 
Q 2956 1122 2956 1747 
Q 2956 2369 2687 2733 
Q 2419 3097 1959 3097 
z
M 1959 3584 
Q 2709 3584 3137 3096 
Q 3566 2609 3566 1747 
Q 3566 888 3137 398 
Q 2709 -91 1959 -91 
Q 1206 -91 779 398 
Q 353 888 353 1747 
Q 353 2609 779 3096 
Q 1206 3584 1959 3584 
z
" transform="scale(0.015625)"/>
      </defs>
      <use xlink:href="#DejaVuSans-34"/>
      <use xlink:href="#DejaVuSans-6d" x="63.623047"/>
      <use xlink:href="#DejaVuSans-65" x="161.035156"/>
      <use xlink:href="#DejaVuSans-72" x="222.558594"/>
      <use xlink:href="#DejaVuSans-20" x="263.671875"/>
      <use xlink:href="#DejaVuSans-49" x="295.458984"/>
      <use xlink:href="#DejaVuSans-73" x="324.951172"/>
      <use xlink:href="#DejaVuSans-6f" x="377.050781"/>
      <use xlink:href="#DejaVuSans-6d" x="438.232422"/>
      <use xlink:href="#DejaVuSans-65" x="535.644531"/>
      <use xlink:href="#DejaVuSans-72" x="597.167969"/>
      <use xlink:href="#DejaVuSans-73" x="638.28125"/>
     </g>
    </g>
   </g>
   <g id="matplotlib.axis_2">
    <g id="ytick_1">
     <g id="line2d_3">
      <defs>
       <path id="m01c5f9c18a" d="M 0 0 
L -3.5 0 
" style="stroke: #000000; stroke-width: 0.8"/>
      </defs>
      <g>
       <use xlink:href="#m01c5f9c18a" x="31.92274" y="237.25726" style="stroke: #000000; stroke-width: 0.8"/>
      </g>
     </g>
     <g id="text_2">
      <!-- 0 -->
      <g transform="translate(19.83274 240.296635)scale(0.08 -0.08)">
       <defs>
        <path id="DejaVuSans-30" d="M 2034 4250 
Q 1547 4250 1301 3770 
Q 1056 3291 1056 2328 
Q 1056 1369 1301 889 
Q 1547 409 2034 409 
Q 2525 409 2770 889 
Q 3016 1369 3016 2328 
Q 3016 3291 2770 3770 
Q 2525 4250 2034 4250 
z
M 2034 4750 
Q 2819 4750 3233 4129 
Q 3647 3509 3647 2328 
Q 3647 1150 3233 529 
Q 2819 -91 2034 -91 
Q 1250 -91 836 529 
Q 422 1150 422 2328 
Q 422 3509 836 4129 
Q 1250 4750 2034 4750 
z
" transform="scale(0.015625)"/>
       </defs>
       <use xlink:href="#DejaVuSans-30"/>
      </g>
     </g>
    </g>
    <g id="ytick_2">
     <g id="line2d_4">
      <g>
       <use xlink:href="#m01c5f9c18a" x="31.92274" y="199.055057" style="stroke: #000000; stroke-width: 0.8"/>
      </g>
     </g>
     <g id="text_3">
      <!-- 2 -->
      <g transform="translate(19.83274 202.094432)scale(0.08 -0.08)">
       <defs>
        <path id="DejaVuSans-32" d="M 1228 531 
L 3431 531 
L 3431 0 
L 469 0 
L 469 531 
Q 828 903 1448 1529 
Q 2069 2156 2228 2338 
Q 2531 2678 2651 2914 
Q 2772 3150 2772 3378 
Q 2772 3750 2511 3984 
Q 2250 4219 1831 4219 
Q 1534 4219 1204 4116 
Q 875 4013 500 3803 
L 500 4441 
Q 881 4594 1212 4672 
Q 1544 4750 1819 4750 
Q 2544 4750 2975 4387 
Q 3406 4025 3406 3419 
Q 3406 3131 3298 2873 
Q 3191 2616 2906 2266 
Q 2828 2175 2409 1742 
Q 1991 1309 1228 531 
z
" transform="scale(0.015625)"/>
       </defs>
       <use xlink:href="#DejaVuSans-32"/>
      </g>
     </g>
    </g>
    <g id="ytick_3">
     <g id="line2d_5">
      <g>
       <use xlink:href="#m01c5f9c18a" x="31.92274" y="160.852854" style="stroke: #000000; stroke-width: 0.8"/>
      </g>
     </g>
     <g id="text_4">
      <!-- 4 -->
      <g transform="translate(19.83274 163.892229)scale(0.08 -0.08)">
       <use xlink:href="#DejaVuSans-34"/>
      </g>
     </g>
    </g>
    <g id="ytick_4">
     <g id="line2d_6">
      <g>
       <use xlink:href="#m01c5f9c18a" x="31.92274" y="122.650651" style="stroke: #000000; stroke-width: 0.8"/>
      </g>
     </g>
     <g id="text_5">
      <!-- 6 -->
      <g transform="translate(19.83274 125.690026)scale(0.08 -0.08)">
       <defs>
        <path id="DejaVuSans-36" d="M 2113 2584 
Q 1688 2584 1439 2293 
Q 1191 2003 1191 1497 
Q 1191 994 1439 701 
Q 1688 409 2113 409 
Q 2538 409 2786 701 
Q 3034 994 3034 1497 
Q 3034 2003 2786 2293 
Q 2538 2584 2113 2584 
z
M 3366 4563 
L 3366 3988 
Q 3128 4100 2886 4159 
Q 2644 4219 2406 4219 
Q 1781 4219 1451 3797 
Q 1122 3375 1075 2522 
Q 1259 2794 1537 2939 
Q 1816 3084 2150 3084 
Q 2853 3084 3261 2657 
Q 3669 2231 3669 1497 
Q 3669 778 3244 343 
Q 2819 -91 2113 -91 
Q 1303 -91 875 529 
Q 447 1150 447 2328 
Q 447 3434 972 4092 
Q 1497 4750 2381 4750 
Q 2619 4750 2861 4703 
Q 3103 4656 3366 4563 
z
" transform="scale(0.015625)"/>
       </defs>
       <use xlink:href="#DejaVuSans-36"/>
      </g>
     </g>
    </g>
    <g id="ytick_5">
     <g id="line2d_7">
      <g>
       <use xlink:href="#m01c5f9c18a" x="31.92274" y="84.448448" style="stroke: #000000; stroke-width: 0.8"/>
      </g>
     </g>
     <g id="text_6">
      <!-- 8 -->
      <g transform="translate(19.83274 87.487823)scale(0.08 -0.08)">
       <defs>
        <path id="DejaVuSans-38" d="M 2034 2216 
Q 1584 2216 1326 1975 
Q 1069 1734 1069 1313 
Q 1069 891 1326 650 
Q 1584 409 2034 409 
Q 2484 409 2743 651 
Q 3003 894 3003 1313 
Q 3003 1734 2745 1975 
Q 2488 2216 2034 2216 
z
M 1403 2484 
Q 997 2584 770 2862 
Q 544 3141 544 3541 
Q 544 4100 942 4425 
Q 1341 4750 2034 4750 
Q 2731 4750 3128 4425 
Q 3525 4100 3525 3541 
Q 3525 3141 3298 2862 
Q 3072 2584 2669 2484 
Q 3125 2378 3379 2068 
Q 3634 1759 3634 1313 
Q 3634 634 3220 271 
Q 2806 -91 2034 -91 
Q 1263 -91 848 271 
Q 434 634 434 1313 
Q 434 1759 690 2068 
Q 947 2378 1403 2484 
z
M 1172 3481 
Q 1172 3119 1398 2916 
Q 1625 2713 2034 2713 
Q 2441 2713 2670 2916 
Q 2900 3119 2900 3481 
Q 2900 3844 2670 4047 
Q 2441 4250 2034 4250 
Q 1625 4250 1398 4047 
Q 1172 3844 1172 3481 
z
" transform="scale(0.015625)"/>
       </defs>
       <use xlink:href="#DejaVuSans-38"/>
      </g>
     </g>
    </g>
    <g id="ytick_6">
     <g id="line2d_8">
      <g>
       <use xlink:href="#m01c5f9c18a" x="31.92274" y="46.246245" style="stroke: #000000; stroke-width: 0.8"/>
      </g>
     </g>
     <g id="text_7">
      <!-- 10 -->
      <g transform="translate(14.74274 49.28562)scale(0.08 -0.08)">
       <defs>
        <path id="DejaVuSans-31" d="M 794 531 
L 1825 531 
L 1825 4091 
L 703 3866 
L 703 4441 
L 1819 4666 
L 2450 4666 
L 2450 531 
L 3481 531 
L 3481 0 
L 794 0 
L 794 531 
z
" transform="scale(0.015625)"/>
       </defs>
       <use xlink:href="#DejaVuSans-31"/>
       <use xlink:href="#DejaVuSans-30" x="63.623047"/>
      </g>
     </g>
    </g>
    <g id="ytick_7">
     <g id="line2d_9">
      <g>
       <use xlink:href="#m01c5f9c18a" x="31.92274" y="8.044042" style="stroke: #000000; stroke-width: 0.8"/>
      </g>
     </g>
     <g id="text_8">
      <!-- 12 -->
      <g transform="translate(14.74274 11.083417)scale(0.08 -0.08)">
       <use xlink:href="#DejaVuSans-31"/>
       <use xlink:href="#DejaVuSans-32" x="63.623047"/>
      </g>
     </g>
    </g>
    <g id="ytick_8">
     <g id="line2d_10">
      <defs>
       <path id="m2d3bb55078" d="M 0 0 
L -2 0 
" style="stroke: #000000; stroke-width: 0.6"/>
      </defs>
      <g>
       <use xlink:href="#m2d3bb55078" x="31.92274" y="218.156159" style="stroke: #000000; stroke-width: 0.6"/>
      </g>
     </g>
    </g>
    <g id="ytick_9">
     <g id="line2d_11">
      <g>
       <use xlink:href="#m2d3bb55078" x="31.92274" y="179.953956" style="stroke: #000000; stroke-width: 0.6"/>
      </g>
     </g>
    </g>
    <g id="ytick_10">
     <g id="line2d_12">
      <g>
       <use xlink:href="#m2d3bb55078" x="31.92274" y="141.751753" style="stroke: #000000; stroke-width: 0.6"/>
      </g>
     </g>
    </g>
    <g id="ytick_11">
     <g id="line2d_13">
      <g>
       <use xlink:href="#m2d3bb55078" x="31.92274" y="103.54955" style="stroke: #000000; stroke-width: 0.6"/>
      </g>
     </g>
    </g>
    <g id="ytick_12">
     <g id="line2d_14">
      <g>
       <use xlink:href="#m2d3bb55078" x="31.92274" y="65.347347" style="stroke: #000000; stroke-width: 0.6"/>
      </g>
     </g>
    </g>
    <g id="ytick_13">
     <g id="line2d_15">
      <g>
       <use xlink:href="#m2d3bb55078" x="31.92274" y="27.145144" style="stroke: #000000; stroke-width: 0.6"/>
      </g>
     </g>
    </g>
    <g id="text_9">
     <!-- $\Delta$E (kcal/mol) -->
     <g transform="translate(9.07899 146.68875)rotate(-90)scale(0.08 -0.08)">
      <defs>
       <path id="DejaVuSans-394" d="M 2188 4044 
L 906 525 
L 3472 525 
L 2188 4044 
z
M 50 0 
L 1831 4666 
L 2547 4666 
L 4325 0 
L 50 0 
z
" transform="scale(0.015625)"/>
       <path id="DejaVuSans-45" d="M 628 4666 
L 3578 4666 
L 3578 4134 
L 1259 4134 
L 1259 2753 
L 3481 2753 
L 3481 2222 
L 1259 2222 
L 1259 531 
L 3634 531 
L 3634 0 
L 628 0 
L 628 4666 
z
" transform="scale(0.015625)"/>
       <path id="DejaVuSans-28" d="M 1984 4856 
Q 1566 4138 1362 3434 
Q 1159 2731 1159 2009 
Q 1159 1288 1364 580 
Q 1569 -128 1984 -844 
L 1484 -844 
Q 1016 -109 783 600 
Q 550 1309 550 2009 
Q 550 2706 781 3412 
Q 1013 4119 1484 4856 
L 1984 4856 
z
" transform="scale(0.015625)"/>
       <path id="DejaVuSans-6b" d="M 581 4863 
L 1159 4863 
L 1159 1991 
L 2875 3500 
L 3609 3500 
L 1753 1863 
L 3688 0 
L 2938 0 
L 1159 1709 
L 1159 0 
L 581 0 
L 581 4863 
z
" transform="scale(0.015625)"/>
       <path id="DejaVuSans-63" d="M 3122 3366 
L 3122 2828 
Q 2878 2963 2633 3030 
Q 2388 3097 2138 3097 
Q 1578 3097 1268 2742 
Q 959 2388 959 1747 
Q 959 1106 1268 751 
Q 1578 397 2138 397 
Q 2388 397 2633 464 
Q 2878 531 3122 666 
L 3122 134 
Q 2881 22 2623 -34 
Q 2366 -91 2075 -91 
Q 1284 -91 818 406 
Q 353 903 353 1747 
Q 353 2603 823 3093 
Q 1294 3584 2113 3584 
Q 2378 3584 2631 3529 
Q 2884 3475 3122 3366 
z
" transform="scale(0.015625)"/>
       <path id="DejaVuSans-61" d="M 2194 1759 
Q 1497 1759 1228 1600 
Q 959 1441 959 1056 
Q 959 750 1161 570 
Q 1363 391 1709 391 
Q 2188 391 2477 730 
Q 2766 1069 2766 1631 
L 2766 1759 
L 2194 1759 
z
M 3341 1997 
L 3341 0 
L 2766 0 
L 2766 531 
Q 2569 213 2275 61 
Q 1981 -91 1556 -91 
Q 1019 -91 701 211 
Q 384 513 384 1019 
Q 384 1609 779 1909 
Q 1175 2209 1959 2209 
L 2766 2209 
L 2766 2266 
Q 2766 2663 2505 2880 
Q 2244 3097 1772 3097 
Q 1472 3097 1187 3025 
Q 903 2953 641 2809 
L 641 3341 
Q 956 3463 1253 3523 
Q 1550 3584 1831 3584 
Q 2591 3584 2966 3190 
Q 3341 2797 3341 1997 
z
" transform="scale(0.015625)"/>
       <path id="DejaVuSans-6c" d="M 603 4863 
L 1178 4863 
L 1178 0 
L 603 0 
L 603 4863 
z
" transform="scale(0.015625)"/>
       <path id="DejaVuSans-2f" d="M 1625 4666 
L 2156 4666 
L 531 -594 
L 0 -594 
L 1625 4666 
z
" transform="scale(0.015625)"/>
       <path id="DejaVuSans-29" d="M 513 4856 
L 1013 4856 
Q 1481 4119 1714 3412 
Q 1947 2706 1947 2009 
Q 1947 1309 1714 600 
Q 1481 -109 1013 -844 
L 513 -844 
Q 928 -128 1133 580 
Q 1338 1288 1338 2009 
Q 1338 2731 1133 3434 
Q 928 4138 513 4856 
z
" transform="scale(0.015625)"/>
      </defs>
      <use xlink:href="#DejaVuSans-394" transform="translate(0 0.015625)"/>
      <use xlink:href="#DejaVuSans-45" transform="translate(68.408203 0.015625)"/>
      <use xlink:href="#DejaVuSans-20" transform="translate(131.591797 0.015625)"/>
      <use xlink:href="#DejaVuSans-28" transform="translate(163.378906 0.015625)"/>
      <use xlink:href="#DejaVuSans-6b" transform="translate(202.392578 0.015625)"/>
      <use xlink:href="#DejaVuSans-63" transform="translate(260.302734 0.015625)"/>
      <use xlink:href="#DejaVuSans-61" transform="translate(315.283203 0.015625)"/>
      <use xlink:href="#DejaVuSans-6c" transform="translate(376.5625 0.015625)"/>
      <use xlink:href="#DejaVuSans-2f" transform="translate(404.345703 0.015625)"/>
      <use xlink:href="#DejaVuSans-6d" transform="translate(438.037109 0.015625)"/>
      <use xlink:href="#DejaVuSans-6f" transform="translate(535.449219 0.015625)"/>
      <use xlink:href="#DejaVuSans-6c" transform="translate(596.630859 0.015625)"/>
      <use xlink:href="#DejaVuSans-29" transform="translate(624.414062 0.015625)"/>
     </g>
    </g>
   </g>
   <g id="line2d_16">
    <path d="M 31.92274 154.341928 
L 42.044416 149.923718 
L 52.166091 146.16146 
L 62.287767 133.181569 
L 72.409442 73.124502 
L 82.531118 55.209796 
L 92.652794 51.986598 
L 102.774469 61.348414 
L 112.896145 50.574294 
L 123.017821 44.887424 
L 133.139496 41.31213 
L 143.261172 14.155336 
" clip-path="url(#p946bdfd244)" style="fill: none; stroke: #ffb5ba; stroke-width: 1.5; stroke-linecap: square"/>
    <defs>
     <path id="m640626de90" d="M 0 2.5 
C 0.663008 2.5 1.29895 2.236584 1.767767 1.767767 
C 2.236584 1.29895 2.5 0.663008 2.5 0 
C 2.5 -0.663008 2.236584 -1.29895 1.767767 -1.767767 
C 1.29895 -2.236584 0.663008 -2.5 0 -2.5 
C -0.663008 -2.5 -1.29895 -2.236584 -1.767767 -1.767767 
C -2.236584 -1.29895 -2.5 -0.663008 -2.5 0 
C -2.5 0.663008 -2.236584 1.29895 -1.767767 1.767767 
C -1.29895 2.236584 -0.663008 2.5 0 2.5 
z
"/>
    </defs>
    <g clip-path="url(#p946bdfd244)">
     <use xlink:href="#m640626de90" x="31.92274" y="154.341928" style="fill: #ffb5ba"/>
     <use xlink:href="#m640626de90" x="42.044416" y="149.923718" style="fill: #ffb5ba"/>
     <use xlink:href="#m640626de90" x="52.166091" y="146.16146" style="fill: #ffb5ba"/>
     <use xlink:href="#m640626de90" x="62.287767" y="133.181569" style="fill: #ffb5ba"/>
     <use xlink:href="#m640626de90" x="72.409442" y="73.124502" style="fill: #ffb5ba"/>
     <use xlink:href="#m640626de90" x="82.531118" y="55.209796" style="fill: #ffb5ba"/>
     <use xlink:href="#m640626de90" x="92.652794" y="51.986598" style="fill: #ffb5ba"/>
     <use xlink:href="#m640626de90" x="102.774469" y="61.348414" style="fill: #ffb5ba"/>
     <use xlink:href="#m640626de90" x="112.896145" y="50.574294" style="fill: #ffb5ba"/>
     <use xlink:href="#m640626de90" x="123.017821" y="44.887424" style="fill: #ffb5ba"/>
     <use xlink:href="#m640626de90" x="133.139496" y="41.31213" style="fill: #ffb5ba"/>
     <use xlink:href="#m640626de90" x="143.261172" y="14.155336" style="fill: #ffb5ba"/>
    </g>
   </g>
   <g id="patch_3">
    <path d="M 31.92274 237.25726 
L 31.92274 3.00024 
" style="fill: none; stroke: #000000; stroke-width: 0.8; stroke-linejoin: miter; stroke-linecap: square"/>
   </g>
   <g id="patch_4">
    <path d="M 148.828093 237.25726 
L 148.828093 3.00024 
" style="fill: none; stroke: #000000; stroke-width: 0.8; stroke-linejoin: miter; stroke-linecap: square"/>
   </g>
   <g id="patch_5">
    <path d="M 31.92274 237.25726 
L 148.828093 237.25726 
" style="fill: none; stroke: #000000; stroke-width: 0.8; stroke-linejoin: miter; stroke-linecap: square"/>
   </g>
   <g id="patch_6">
    <path d="M 31.92274 3.00024 
L 148.828093 3.00024 
" style="fill: none; stroke: #000000; stroke-width: 0.8; stroke-linejoin: miter; stroke-linecap: square"/>
   </g>
   <g id="text_10">
    <!-- A -->
    <g transform="translate(40.22302 15.884376)scale(0.096 -0.096)">
     <defs>
      <path id="DejaVuSans-Bold-41" d="M 3419 850 
L 1538 850 
L 1241 0 
L 31 0 
L 1759 4666 
L 3194 4666 
L 4922 0 
L 3713 0 
L 3419 850 
z
M 1838 1716 
L 3116 1716 
L 2478 3572 
L 1838 1716 
z
" transform="scale(0.015625)"/>
     </defs>
     <use xlink:href="#DejaVuSans-Bold-41"/>
    </g>
   </g>
   <g id="legend_1">
    <g id="line2d_17">
     <path d="M 36.291794 23.388034 
L 44.291794 23.388034 
L 52.291794 23.388034 
" style="fill: none; stroke-dasharray: 5.55,2.4; stroke-dashoffset: 0; stroke: #c0c0c0; stroke-width: 1.5"/>
     <g>
      <use xlink:href="#me235c969de" x="44.291794" y="23.388034" style="fill: #c0c0c0"/>
     </g>
    </g>
    <g id="text_11">
     <!-- MP2 -->
     <g transform="translate(58.691794 26.188034)scale(0.08 -0.08)">
      <defs>
       <path id="DejaVuSans-4d" d="M 628 4666 
L 1569 4666 
L 2759 1491 
L 3956 4666 
L 4897 4666 
L 4897 0 
L 4281 0 
L 4281 4097 
L 3078 897 
L 2444 897 
L 1241 4097 
L 1241 0 
L 628 0 
L 628 4666 
z
" transform="scale(0.015625)"/>
       <path id="DejaVuSans-50" d="M 1259 4147 
L 1259 2394 
L 2053 2394 
Q 2494 2394 2734 2622 
Q 2975 2850 2975 3272 
Q 2975 3691 2734 3919 
Q 2494 4147 2053 4147 
L 1259 4147 
z
M 628 4666 
L 2053 4666 
Q 2838 4666 3239 4311 
Q 3641 3956 3641 3272 
Q 3641 2581 3239 2228 
Q 2838 1875 2053 1875 
L 1259 1875 
L 1259 0 
L 628 0 
L 628 4666 
z
" transform="scale(0.015625)"/>
      </defs>
      <use xlink:href="#DejaVuSans-4d"/>
      <use xlink:href="#DejaVuSans-50" x="86.279297"/>
      <use xlink:href="#DejaVuSans-32" x="146.582031"/>
     </g>
    </g>
    <g id="line2d_18">
     <path d="M 36.291794 35.130534 
L 44.291794 35.130534 
L 52.291794 35.130534 
" style="fill: none; stroke-dasharray: 5.55,2.4; stroke-dashoffset: 0; stroke: #ffe1e3; stroke-width: 1.5"/>
     <g>
      <use xlink:href="#m798277846d" x="44.291794" y="35.130534" style="fill: #ffe1e3"/>
     </g>
    </g>
    <g id="text_12">
     <!-- MBE -->
     <g transform="translate(58.691794 37.930534)scale(0.08 -0.08)">
      <defs>
       <path id="DejaVuSans-42" d="M 1259 2228 
L 1259 519 
L 2272 519 
Q 2781 519 3026 730 
Q 3272 941 3272 1375 
Q 3272 1813 3026 2020 
Q 2781 2228 2272 2228 
L 1259 2228 
z
M 1259 4147 
L 1259 2741 
L 2194 2741 
Q 2656 2741 2882 2914 
Q 3109 3088 3109 3444 
Q 3109 3797 2882 3972 
Q 2656 4147 2194 4147 
L 1259 4147 
z
M 628 4666 
L 2241 4666 
Q 2963 4666 3353 4366 
Q 3744 4066 3744 3513 
Q 3744 3084 3544 2831 
Q 3344 2578 2956 2516 
Q 3422 2416 3680 2098 
Q 3938 1781 3938 1306 
Q 3938 681 3513 340 
Q 3088 0 2303 0 
L 628 0 
L 628 4666 
z
" transform="scale(0.015625)"/>
      </defs>
      <use xlink:href="#DejaVuSans-4d"/>
      <use xlink:href="#DejaVuSans-42" x="86.279297"/>
      <use xlink:href="#DejaVuSans-45" x="154.882812"/>
     </g>
    </g>
    <g id="line2d_19">
     <path d="M 36.291794 46.873034 
L 44.291794 46.873034 
L 52.291794 46.873034 
" style="fill: none; stroke: #ffb5ba; stroke-width: 1.5; stroke-linecap: square"/>
     <g>
      <use xlink:href="#m640626de90" x="44.291794" y="46.873034" style="fill: #ffb5ba"/>
     </g>
    </g>
    <g id="text_13">
     <!-- mbSchNet -->
     <g transform="translate(58.691794 49.673034)scale(0.08 -0.08)">
      <defs>
       <path id="DejaVuSans-62" d="M 3116 1747 
Q 3116 2381 2855 2742 
Q 2594 3103 2138 3103 
Q 1681 3103 1420 2742 
Q 1159 2381 1159 1747 
Q 1159 1113 1420 752 
Q 1681 391 2138 391 
Q 2594 391 2855 752 
Q 3116 1113 3116 1747 
z
M 1159 2969 
Q 1341 3281 1617 3432 
Q 1894 3584 2278 3584 
Q 2916 3584 3314 3078 
Q 3713 2572 3713 1747 
Q 3713 922 3314 415 
Q 2916 -91 2278 -91 
Q 1894 -91 1617 61 
Q 1341 213 1159 525 
L 1159 0 
L 581 0 
L 581 4863 
L 1159 4863 
L 1159 2969 
z
" transform="scale(0.015625)"/>
       <path id="DejaVuSans-53" d="M 3425 4513 
L 3425 3897 
Q 3066 4069 2747 4153 
Q 2428 4238 2131 4238 
Q 1616 4238 1336 4038 
Q 1056 3838 1056 3469 
Q 1056 3159 1242 3001 
Q 1428 2844 1947 2747 
L 2328 2669 
Q 3034 2534 3370 2195 
Q 3706 1856 3706 1288 
Q 3706 609 3251 259 
Q 2797 -91 1919 -91 
Q 1588 -91 1214 -16 
Q 841 59 441 206 
L 441 856 
Q 825 641 1194 531 
Q 1563 422 1919 422 
Q 2459 422 2753 634 
Q 3047 847 3047 1241 
Q 3047 1584 2836 1778 
Q 2625 1972 2144 2069 
L 1759 2144 
Q 1053 2284 737 2584 
Q 422 2884 422 3419 
Q 422 4038 858 4394 
Q 1294 4750 2059 4750 
Q 2388 4750 2728 4690 
Q 3069 4631 3425 4513 
z
" transform="scale(0.015625)"/>
       <path id="DejaVuSans-68" d="M 3513 2113 
L 3513 0 
L 2938 0 
L 2938 2094 
Q 2938 2591 2744 2837 
Q 2550 3084 2163 3084 
Q 1697 3084 1428 2787 
Q 1159 2491 1159 1978 
L 1159 0 
L 581 0 
L 581 4863 
L 1159 4863 
L 1159 2956 
Q 1366 3272 1645 3428 
Q 1925 3584 2291 3584 
Q 2894 3584 3203 3211 
Q 3513 2838 3513 2113 
z
" transform="scale(0.015625)"/>
       <path id="DejaVuSans-4e" d="M 628 4666 
L 1478 4666 
L 3547 763 
L 3547 4666 
L 4159 4666 
L 4159 0 
L 3309 0 
L 1241 3903 
L 1241 0 
L 628 0 
L 628 4666 
z
" transform="scale(0.015625)"/>
       <path id="DejaVuSans-74" d="M 1172 4494 
L 1172 3500 
L 2356 3500 
L 2356 3053 
L 1172 3053 
L 1172 1153 
Q 1172 725 1289 603 
Q 1406 481 1766 481 
L 2356 481 
L 2356 0 
L 1766 0 
Q 1100 0 847 248 
Q 594 497 594 1153 
L 594 3053 
L 172 3053 
L 172 3500 
L 594 3500 
L 594 4494 
L 1172 4494 
z
" transform="scale(0.015625)"/>
      </defs>
      <use xlink:href="#DejaVuSans-6d"/>
      <use xlink:href="#DejaVuSans-62" x="97.412109"/>
      <use xlink:href="#DejaVuSans-53" x="160.888672"/>
      <use xlink:href="#DejaVuSans-63" x="224.365234"/>
      <use xlink:href="#DejaVuSans-68" x="279.345703"/>
      <use xlink:href="#DejaVuSans-4e" x="342.724609"/>
      <use xlink:href="#DejaVuSans-65" x="417.529297"/>
      <use xlink:href="#DejaVuSans-74" x="479.052734"/>
     </g>
    </g>
   </g>
  </g>
  <g id="axes_2">
   <g id="patch_7">
    <path d="M 172.008573 237.25726 
L 288.913927 237.25726 
L 288.913927 3.00024 
L 172.008573 3.00024 
z
" style="fill: #ffffff"/>
   </g>
   <g id="line2d_20">
    <path d="M 172.008573 237.25726 
L 180.573068 227.057099 
L 189.137563 226.849115 
L 197.702058 183.513474 
L 206.266552 182.009684 
L 214.831047 159.417924 
L 223.395542 157.809658 
L 231.960037 152.848086 
L 240.524531 150.705119 
L 249.089026 133.257222 
L 257.653521 97.138957 
L 266.218016 71.858113 
L 274.78251 69.173783 
L 283.347005 33.58909 
" clip-path="url(#p31c44426ff)" style="fill: none; stroke-dasharray: 5.55,2.4; stroke-dashoffset: 0; stroke: #c0c0c0; stroke-width: 1.5"/>
    <g clip-path="url(#p31c44426ff)">
     <use xlink:href="#me235c969de" x="172.008573" y="237.25726" style="fill: #c0c0c0"/>
     <use xlink:href="#me235c969de" x="180.573068" y="227.057099" style="fill: #c0c0c0"/>
     <use xlink:href="#me235c969de" x="189.137563" y="226.849115" style="fill: #c0c0c0"/>
     <use xlink:href="#me235c969de" x="197.702058" y="183.513474" style="fill: #c0c0c0"/>
     <use xlink:href="#me235c969de" x="206.266552" y="182.009684" style="fill: #c0c0c0"/>
     <use xlink:href="#me235c969de" x="214.831047" y="159.417924" style="fill: #c0c0c0"/>
     <use xlink:href="#me235c969de" x="223.395542" y="157.809658" style="fill: #c0c0c0"/>
     <use xlink:href="#me235c969de" x="231.960037" y="152.848086" style="fill: #c0c0c0"/>
     <use xlink:href="#me235c969de" x="240.524531" y="150.705119" style="fill: #c0c0c0"/>
     <use xlink:href="#me235c969de" x="249.089026" y="133.257222" style="fill: #c0c0c0"/>
     <use xlink:href="#me235c969de" x="257.653521" y="97.138957" style="fill: #c0c0c0"/>
     <use xlink:href="#me235c969de" x="266.218016" y="71.858113" style="fill: #c0c0c0"/>
     <use xlink:href="#me235c969de" x="274.78251" y="69.173783" style="fill: #c0c0c0"/>
     <use xlink:href="#me235c969de" x="283.347005" y="33.58909" style="fill: #c0c0c0"/>
    </g>
   </g>
   <g id="line2d_21">
    <path d="M 172.008573 215.79529 
L 180.573068 211.429367 
L 189.137563 206.998169 
L 197.702058 171.705896 
L 206.266552 170.433517 
L 214.831047 151.576236 
L 223.395542 148.71657 
L 231.960037 142.359161 
L 240.524531 141.598075 
L 249.089026 124.707255 
L 257.653521 96.301467 
L 266.218016 68.279959 
L 274.78251 65.643232 
L 283.347005 34.185958 
" clip-path="url(#p31c44426ff)" style="fill: none; stroke-dasharray: 5.55,2.4; stroke-dashoffset: 0; stroke: #ffe1e3; stroke-width: 1.5"/>
    <g clip-path="url(#p31c44426ff)">
     <use xlink:href="#m798277846d" x="172.008573" y="215.79529" style="fill: #ffe1e3"/>
     <use xlink:href="#m798277846d" x="180.573068" y="211.429367" style="fill: #ffe1e3"/>
     <use xlink:href="#m798277846d" x="189.137563" y="206.998169" style="fill: #ffe1e3"/>
     <use xlink:href="#m798277846d" x="197.702058" y="171.705896" style="fill: #ffe1e3"/>
     <use xlink:href="#m798277846d" x="206.266552" y="170.433517" style="fill: #ffe1e3"/>
     <use xlink:href="#m798277846d" x="214.831047" y="151.576236" style="fill: #ffe1e3"/>
     <use xlink:href="#m798277846d" x="223.395542" y="148.71657" style="fill: #ffe1e3"/>
     <use xlink:href="#m798277846d" x="231.960037" y="142.359161" style="fill: #ffe1e3"/>
     <use xlink:href="#m798277846d" x="240.524531" y="141.598075" style="fill: #ffe1e3"/>
     <use xlink:href="#m798277846d" x="249.089026" y="124.707255" style="fill: #ffe1e3"/>
     <use xlink:href="#m798277846d" x="257.653521" y="96.301467" style="fill: #ffe1e3"/>
     <use xlink:href="#m798277846d" x="266.218016" y="68.279959" style="fill: #ffe1e3"/>
     <use xlink:href="#m798277846d" x="274.78251" y="65.643232" style="fill: #ffe1e3"/>
     <use xlink:href="#m798277846d" x="283.347005" y="34.185958" style="fill: #ffe1e3"/>
    </g>
   </g>
   <g id="matplotlib.axis_3">
    <g id="text_14">
     <!-- 5mer Isomers -->
     <g transform="translate(202.84625 247.33601)scale(0.08 -0.08)">
      <defs>
       <path id="DejaVuSans-35" d="M 691 4666 
L 3169 4666 
L 3169 4134 
L 1269 4134 
L 1269 2991 
Q 1406 3038 1543 3061 
Q 1681 3084 1819 3084 
Q 2600 3084 3056 2656 
Q 3513 2228 3513 1497 
Q 3513 744 3044 326 
Q 2575 -91 1722 -91 
Q 1428 -91 1123 -41 
Q 819 9 494 109 
L 494 744 
Q 775 591 1075 516 
Q 1375 441 1709 441 
Q 2250 441 2565 725 
Q 2881 1009 2881 1497 
Q 2881 1984 2565 2268 
Q 2250 2553 1709 2553 
Q 1456 2553 1204 2497 
Q 953 2441 691 2322 
L 691 4666 
z
" transform="scale(0.015625)"/>
      </defs>
      <use xlink:href="#DejaVuSans-35"/>
      <use xlink:href="#DejaVuSans-6d" x="63.623047"/>
      <use xlink:href="#DejaVuSans-65" x="161.035156"/>
      <use xlink:href="#DejaVuSans-72" x="222.558594"/>
      <use xlink:href="#DejaVuSans-20" x="263.671875"/>
      <use xlink:href="#DejaVuSans-49" x="295.458984"/>
      <use xlink:href="#DejaVuSans-73" x="324.951172"/>
      <use xlink:href="#DejaVuSans-6f" x="377.050781"/>
      <use xlink:href="#DejaVuSans-6d" x="438.232422"/>
      <use xlink:href="#DejaVuSans-65" x="535.644531"/>
      <use xlink:href="#DejaVuSans-72" x="597.167969"/>
      <use xlink:href="#DejaVuSans-73" x="638.28125"/>
     </g>
    </g>
   </g>
   <g id="matplotlib.axis_4">
    <g id="ytick_14">
     <g id="line2d_22">
      <g>
       <use xlink:href="#m01c5f9c18a" x="172.008573" y="237.25726" style="stroke: #000000; stroke-width: 0.8"/>
      </g>
     </g>
     <g id="text_15">
      <!-- 0 -->
      <g transform="translate(159.918573 240.296635)scale(0.08 -0.08)">
       <use xlink:href="#DejaVuSans-30"/>
      </g>
     </g>
    </g>
    <g id="ytick_15">
     <g id="line2d_23">
      <g>
       <use xlink:href="#m01c5f9c18a" x="172.008573" y="205.416787" style="stroke: #000000; stroke-width: 0.8"/>
      </g>
     </g>
     <g id="text_16">
      <!-- 2 -->
      <g transform="translate(159.918573 208.456162)scale(0.08 -0.08)">
       <use xlink:href="#DejaVuSans-32"/>
      </g>
     </g>
    </g>
    <g id="ytick_16">
     <g id="line2d_24">
      <g>
       <use xlink:href="#m01c5f9c18a" x="172.008573" y="173.576315" style="stroke: #000000; stroke-width: 0.8"/>
      </g>
     </g>
     <g id="text_17">
      <!-- 4 -->
      <g transform="translate(159.918573 176.61569)scale(0.08 -0.08)">
       <use xlink:href="#DejaVuSans-34"/>
      </g>
     </g>
    </g>
    <g id="ytick_17">
     <g id="line2d_25">
      <g>
       <use xlink:href="#m01c5f9c18a" x="172.008573" y="141.735842" style="stroke: #000000; stroke-width: 0.8"/>
      </g>
     </g>
     <g id="text_18">
      <!-- 6 -->
      <g transform="translate(159.918573 144.775217)scale(0.08 -0.08)">
       <use xlink:href="#DejaVuSans-36"/>
      </g>
     </g>
    </g>
    <g id="ytick_18">
     <g id="line2d_26">
      <g>
       <use xlink:href="#m01c5f9c18a" x="172.008573" y="109.89537" style="stroke: #000000; stroke-width: 0.8"/>
      </g>
     </g>
     <g id="text_19">
      <!-- 8 -->
      <g transform="translate(159.918573 112.934745)scale(0.08 -0.08)">
       <use xlink:href="#DejaVuSans-38"/>
      </g>
     </g>
    </g>
    <g id="ytick_19">
     <g id="line2d_27">
      <g>
       <use xlink:href="#m01c5f9c18a" x="172.008573" y="78.054897" style="stroke: #000000; stroke-width: 0.8"/>
      </g>
     </g>
     <g id="text_20">
      <!-- 10 -->
      <g transform="translate(154.828573 81.094272)scale(0.08 -0.08)">
       <use xlink:href="#DejaVuSans-31"/>
       <use xlink:href="#DejaVuSans-30" x="63.623047"/>
      </g>
     </g>
    </g>
    <g id="ytick_20">
     <g id="line2d_28">
      <g>
       <use xlink:href="#m01c5f9c18a" x="172.008573" y="46.214425" style="stroke: #000000; stroke-width: 0.8"/>
      </g>
     </g>
     <g id="text_21">
      <!-- 12 -->
      <g transform="translate(154.828573 49.2538)scale(0.08 -0.08)">
       <use xlink:href="#DejaVuSans-31"/>
       <use xlink:href="#DejaVuSans-32" x="63.623047"/>
      </g>
     </g>
    </g>
    <g id="ytick_21">
     <g id="line2d_29">
      <g>
       <use xlink:href="#m01c5f9c18a" x="172.008573" y="14.373952" style="stroke: #000000; stroke-width: 0.8"/>
      </g>
     </g>
     <g id="text_22">
      <!-- 14 -->
      <g transform="translate(154.828573 17.413327)scale(0.08 -0.08)">
       <use xlink:href="#DejaVuSans-31"/>
       <use xlink:href="#DejaVuSans-34" x="63.623047"/>
      </g>
     </g>
    </g>
    <g id="ytick_22">
     <g id="line2d_30">
      <g>
       <use xlink:href="#m2d3bb55078" x="172.008573" y="221.337024" style="stroke: #000000; stroke-width: 0.6"/>
      </g>
     </g>
    </g>
    <g id="ytick_23">
     <g id="line2d_31">
      <g>
       <use xlink:href="#m2d3bb55078" x="172.008573" y="189.496551" style="stroke: #000000; stroke-width: 0.6"/>
      </g>
     </g>
    </g>
    <g id="ytick_24">
     <g id="line2d_32">
      <g>
       <use xlink:href="#m2d3bb55078" x="172.008573" y="157.656079" style="stroke: #000000; stroke-width: 0.6"/>
      </g>
     </g>
    </g>
    <g id="ytick_25">
     <g id="line2d_33">
      <g>
       <use xlink:href="#m2d3bb55078" x="172.008573" y="125.815606" style="stroke: #000000; stroke-width: 0.6"/>
      </g>
     </g>
    </g>
    <g id="ytick_26">
     <g id="line2d_34">
      <g>
       <use xlink:href="#m2d3bb55078" x="172.008573" y="93.975134" style="stroke: #000000; stroke-width: 0.6"/>
      </g>
     </g>
    </g>
    <g id="ytick_27">
     <g id="line2d_35">
      <g>
       <use xlink:href="#m2d3bb55078" x="172.008573" y="62.134661" style="stroke: #000000; stroke-width: 0.6"/>
      </g>
     </g>
    </g>
    <g id="ytick_28">
     <g id="line2d_36">
      <g>
       <use xlink:href="#m2d3bb55078" x="172.008573" y="30.294188" style="stroke: #000000; stroke-width: 0.6"/>
      </g>
     </g>
    </g>
   </g>
   <g id="line2d_37">
    <path d="M 172.008573 163.095026 
L 180.573068 158.114076 
L 189.137563 159.075305 
L 197.702058 126.827771 
L 206.266552 105.912675 
L 214.831047 93.879745 
L 223.395542 106.400306 
L 231.960037 97.49351 
L 240.524531 99.196076 
L 249.089026 91.008893 
L 257.653521 54.415734 
L 266.218016 39.922406 
L 274.78251 37.008854 
L 283.347005 14.155336 
" clip-path="url(#p31c44426ff)" style="fill: none; stroke: #ffb5ba; stroke-width: 1.5; stroke-linecap: square"/>
    <g clip-path="url(#p31c44426ff)">
     <use xlink:href="#m640626de90" x="172.008573" y="163.095026" style="fill: #ffb5ba"/>
     <use xlink:href="#m640626de90" x="180.573068" y="158.114076" style="fill: #ffb5ba"/>
     <use xlink:href="#m640626de90" x="189.137563" y="159.075305" style="fill: #ffb5ba"/>
     <use xlink:href="#m640626de90" x="197.702058" y="126.827771" style="fill: #ffb5ba"/>
     <use xlink:href="#m640626de90" x="206.266552" y="105.912675" style="fill: #ffb5ba"/>
     <use xlink:href="#m640626de90" x="214.831047" y="93.879745" style="fill: #ffb5ba"/>
     <use xlink:href="#m640626de90" x="223.395542" y="106.400306" style="fill: #ffb5ba"/>
     <use xlink:href="#m640626de90" x="231.960037" y="97.49351" style="fill: #ffb5ba"/>
     <use xlink:href="#m640626de90" x="240.524531" y="99.196076" style="fill: #ffb5ba"/>
     <use xlink:href="#m640626de90" x="249.089026" y="91.008893" style="fill: #ffb5ba"/>
     <use xlink:href="#m640626de90" x="257.653521" y="54.415734" style="fill: #ffb5ba"/>
     <use xlink:href="#m640626de90" x="266.218016" y="39.922406" style="fill: #ffb5ba"/>
     <use xlink:href="#m640626de90" x="274.78251" y="37.008854" style="fill: #ffb5ba"/>
     <use xlink:href="#m640626de90" x="283.347005" y="14.155336" style="fill: #ffb5ba"/>
    </g>
   </g>
   <g id="patch_8">
    <path d="M 172.008573 237.25726 
L 172.008573 3.00024 
" style="fill: none; stroke: #000000; stroke-width: 0.8; stroke-linejoin: miter; stroke-linecap: square"/>
   </g>
   <g id="patch_9">
    <path d="M 288.913927 237.25726 
L 288.913927 3.00024 
" style="fill: none; stroke: #000000; stroke-width: 0.8; stroke-linejoin: miter; stroke-linecap: square"/>
   </g>
   <g id="patch_10">
    <path d="M 172.008573 237.25726 
L 288.913927 237.25726 
" style="fill: none; stroke: #000000; stroke-width: 0.8; stroke-linejoin: miter; stroke-linecap: square"/>
   </g>
   <g id="patch_11">
    <path d="M 172.008573 3.00024 
L 288.913927 3.00024 
" style="fill: none; stroke: #000000; stroke-width: 0.8; stroke-linejoin: miter; stroke-linecap: square"/>
   </g>
   <g id="text_23">
    <!-- B -->
    <g transform="translate(180.308853 15.884376)scale(0.096 -0.096)">
     <defs>
      <path id="DejaVuSans-Bold-42" d="M 2456 2859 
Q 2741 2859 2887 2984 
Q 3034 3109 3034 3353 
Q 3034 3594 2887 3720 
Q 2741 3847 2456 3847 
L 1791 3847 
L 1791 2859 
L 2456 2859 
z
M 2497 819 
Q 2859 819 3042 972 
Q 3225 1125 3225 1434 
Q 3225 1738 3044 1889 
Q 2863 2041 2497 2041 
L 1791 2041 
L 1791 819 
L 2497 819 
z
M 3616 2497 
Q 4003 2384 4215 2081 
Q 4428 1778 4428 1338 
Q 4428 663 3972 331 
Q 3516 0 2584 0 
L 588 0 
L 588 4666 
L 2394 4666 
Q 3366 4666 3802 4372 
Q 4238 4078 4238 3431 
Q 4238 3091 4078 2852 
Q 3919 2613 3616 2497 
z
" transform="scale(0.015625)"/>
     </defs>
     <use xlink:href="#DejaVuSans-Bold-42"/>
    </g>
   </g>
  </g>
  <g id="axes_3">
   <g id="patch_12">
    <path d="M 312.094407 237.25726 
L 428.99976 237.25726 
L 428.99976 3.00024 
L 312.094407 3.00024 
z
" style="fill: #ffffff"/>
   </g>
   <g id="line2d_38">
    <path d="M 312.094407 237.25726 
L 330.650812 209.23162 
L 349.207217 177.64319 
L 367.763623 138.48757 
L 386.320028 106.717934 
L 404.876433 82.680872 
L 423.432838 31.629638 
" clip-path="url(#p859761d627)" style="fill: none; stroke-dasharray: 5.55,2.4; stroke-dashoffset: 0; stroke: #c0c0c0; stroke-width: 1.5"/>
    <g clip-path="url(#p859761d627)">
     <use xlink:href="#me235c969de" x="312.094407" y="237.25726" style="fill: #c0c0c0"/>
     <use xlink:href="#me235c969de" x="330.650812" y="209.23162" style="fill: #c0c0c0"/>
     <use xlink:href="#me235c969de" x="349.207217" y="177.64319" style="fill: #c0c0c0"/>
     <use xlink:href="#me235c969de" x="367.763623" y="138.48757" style="fill: #c0c0c0"/>
     <use xlink:href="#me235c969de" x="386.320028" y="106.717934" style="fill: #c0c0c0"/>
     <use xlink:href="#me235c969de" x="404.876433" y="82.680872" style="fill: #c0c0c0"/>
     <use xlink:href="#me235c969de" x="423.432838" y="31.629638" style="fill: #c0c0c0"/>
    </g>
   </g>
   <g id="line2d_39">
    <path d="M 312.094407 211.178678 
L 330.650812 191.105728 
L 349.207217 164.696584 
L 367.763623 131.274292 
L 386.320028 104.605645 
L 404.876433 80.332865 
L 423.432838 30.787776 
" clip-path="url(#p859761d627)" style="fill: none; stroke-dasharray: 5.55,2.4; stroke-dashoffset: 0; stroke: #ffe1e3; stroke-width: 1.5"/>
    <g clip-path="url(#p859761d627)">
     <use xlink:href="#m798277846d" x="312.094407" y="211.178678" style="fill: #ffe1e3"/>
     <use xlink:href="#m798277846d" x="330.650812" y="191.105728" style="fill: #ffe1e3"/>
     <use xlink:href="#m798277846d" x="349.207217" y="164.696584" style="fill: #ffe1e3"/>
     <use xlink:href="#m798277846d" x="367.763623" y="131.274292" style="fill: #ffe1e3"/>
     <use xlink:href="#m798277846d" x="386.320028" y="104.605645" style="fill: #ffe1e3"/>
     <use xlink:href="#m798277846d" x="404.876433" y="80.332865" style="fill: #ffe1e3"/>
     <use xlink:href="#m798277846d" x="423.432838" y="30.787776" style="fill: #ffe1e3"/>
    </g>
   </g>
   <g id="matplotlib.axis_5">
    <g id="text_24">
     <!-- 6mer Isomers -->
     <g transform="translate(342.932083 247.33601)scale(0.08 -0.08)">
      <use xlink:href="#DejaVuSans-36"/>
      <use xlink:href="#DejaVuSans-6d" x="63.623047"/>
      <use xlink:href="#DejaVuSans-65" x="161.035156"/>
      <use xlink:href="#DejaVuSans-72" x="222.558594"/>
      <use xlink:href="#DejaVuSans-20" x="263.671875"/>
      <use xlink:href="#DejaVuSans-49" x="295.458984"/>
      <use xlink:href="#DejaVuSans-73" x="324.951172"/>
      <use xlink:href="#DejaVuSans-6f" x="377.050781"/>
      <use xlink:href="#DejaVuSans-6d" x="438.232422"/>
      <use xlink:href="#DejaVuSans-65" x="535.644531"/>
      <use xlink:href="#DejaVuSans-72" x="597.167969"/>
      <use xlink:href="#DejaVuSans-73" x="638.28125"/>
     </g>
    </g>
   </g>
   <g id="matplotlib.axis_6">
    <g id="ytick_29">
     <g id="line2d_40">
      <g>
       <use xlink:href="#m01c5f9c18a" x="312.094407" y="237.25726" style="stroke: #000000; stroke-width: 0.8"/>
      </g>
     </g>
     <g id="text_25">
      <!-- 0 -->
      <g transform="translate(300.004407 240.296635)scale(0.08 -0.08)">
       <use xlink:href="#DejaVuSans-30"/>
      </g>
     </g>
    </g>
    <g id="ytick_30">
     <g id="line2d_41">
      <g>
       <use xlink:href="#m01c5f9c18a" x="312.094407" y="210.114641" style="stroke: #000000; stroke-width: 0.8"/>
      </g>
     </g>
     <g id="text_26">
      <!-- 2 -->
      <g transform="translate(300.004407 213.154016)scale(0.08 -0.08)">
       <use xlink:href="#DejaVuSans-32"/>
      </g>
     </g>
    </g>
    <g id="ytick_31">
     <g id="line2d_42">
      <g>
       <use xlink:href="#m01c5f9c18a" x="312.094407" y="182.972021" style="stroke: #000000; stroke-width: 0.8"/>
      </g>
     </g>
     <g id="text_27">
      <!-- 4 -->
      <g transform="translate(300.004407 186.011396)scale(0.08 -0.08)">
       <use xlink:href="#DejaVuSans-34"/>
      </g>
     </g>
    </g>
    <g id="ytick_32">
     <g id="line2d_43">
      <g>
       <use xlink:href="#m01c5f9c18a" x="312.094407" y="155.829402" style="stroke: #000000; stroke-width: 0.8"/>
      </g>
     </g>
     <g id="text_28">
      <!-- 6 -->
      <g transform="translate(300.004407 158.868777)scale(0.08 -0.08)">
       <use xlink:href="#DejaVuSans-36"/>
      </g>
     </g>
    </g>
    <g id="ytick_33">
     <g id="line2d_44">
      <g>
       <use xlink:href="#m01c5f9c18a" x="312.094407" y="128.686782" style="stroke: #000000; stroke-width: 0.8"/>
      </g>
     </g>
     <g id="text_29">
      <!-- 8 -->
      <g transform="translate(300.004407 131.726157)scale(0.08 -0.08)">
       <use xlink:href="#DejaVuSans-38"/>
      </g>
     </g>
    </g>
    <g id="ytick_34">
     <g id="line2d_45">
      <g>
       <use xlink:href="#m01c5f9c18a" x="312.094407" y="101.544163" style="stroke: #000000; stroke-width: 0.8"/>
      </g>
     </g>
     <g id="text_30">
      <!-- 10 -->
      <g transform="translate(294.914407 104.583538)scale(0.08 -0.08)">
       <use xlink:href="#DejaVuSans-31"/>
       <use xlink:href="#DejaVuSans-30" x="63.623047"/>
      </g>
     </g>
    </g>
    <g id="ytick_35">
     <g id="line2d_46">
      <g>
       <use xlink:href="#m01c5f9c18a" x="312.094407" y="74.401544" style="stroke: #000000; stroke-width: 0.8"/>
      </g>
     </g>
     <g id="text_31">
      <!-- 12 -->
      <g transform="translate(294.914407 77.440919)scale(0.08 -0.08)">
       <use xlink:href="#DejaVuSans-31"/>
       <use xlink:href="#DejaVuSans-32" x="63.623047"/>
      </g>
     </g>
    </g>
    <g id="ytick_36">
     <g id="line2d_47">
      <g>
       <use xlink:href="#m01c5f9c18a" x="312.094407" y="47.258924" style="stroke: #000000; stroke-width: 0.8"/>
      </g>
     </g>
     <g id="text_32">
      <!-- 14 -->
      <g transform="translate(294.914407 50.298299)scale(0.08 -0.08)">
       <use xlink:href="#DejaVuSans-31"/>
       <use xlink:href="#DejaVuSans-34" x="63.623047"/>
      </g>
     </g>
    </g>
    <g id="ytick_37">
     <g id="line2d_48">
      <g>
       <use xlink:href="#m01c5f9c18a" x="312.094407" y="20.116305" style="stroke: #000000; stroke-width: 0.8"/>
      </g>
     </g>
     <g id="text_33">
      <!-- 16 -->
      <g transform="translate(294.914407 23.15568)scale(0.08 -0.08)">
       <use xlink:href="#DejaVuSans-31"/>
       <use xlink:href="#DejaVuSans-36" x="63.623047"/>
      </g>
     </g>
    </g>
    <g id="ytick_38">
     <g id="line2d_49">
      <g>
       <use xlink:href="#m2d3bb55078" x="312.094407" y="223.68595" style="stroke: #000000; stroke-width: 0.6"/>
      </g>
     </g>
    </g>
    <g id="ytick_39">
     <g id="line2d_50">
      <g>
       <use xlink:href="#m2d3bb55078" x="312.094407" y="196.543331" style="stroke: #000000; stroke-width: 0.6"/>
      </g>
     </g>
    </g>
    <g id="ytick_40">
     <g id="line2d_51">
      <g>
       <use xlink:href="#m2d3bb55078" x="312.094407" y="169.400711" style="stroke: #000000; stroke-width: 0.6"/>
      </g>
     </g>
    </g>
    <g id="ytick_41">
     <g id="line2d_52">
      <g>
       <use xlink:href="#m2d3bb55078" x="312.094407" y="142.258092" style="stroke: #000000; stroke-width: 0.6"/>
      </g>
     </g>
    </g>
    <g id="ytick_42">
     <g id="line2d_53">
      <g>
       <use xlink:href="#m2d3bb55078" x="312.094407" y="115.115473" style="stroke: #000000; stroke-width: 0.6"/>
      </g>
     </g>
    </g>
    <g id="ytick_43">
     <g id="line2d_54">
      <g>
       <use xlink:href="#m2d3bb55078" x="312.094407" y="87.972853" style="stroke: #000000; stroke-width: 0.6"/>
      </g>
     </g>
    </g>
    <g id="ytick_44">
     <g id="line2d_55">
      <g>
       <use xlink:href="#m2d3bb55078" x="312.094407" y="60.830234" style="stroke: #000000; stroke-width: 0.6"/>
      </g>
     </g>
    </g>
    <g id="ytick_45">
     <g id="line2d_56">
      <g>
       <use xlink:href="#m2d3bb55078" x="312.094407" y="33.687614" style="stroke: #000000; stroke-width: 0.6"/>
      </g>
     </g>
    </g>
    <g id="ytick_46">
     <g id="line2d_57">
      <g>
       <use xlink:href="#m2d3bb55078" x="312.094407" y="6.544995" style="stroke: #000000; stroke-width: 0.6"/>
      </g>
     </g>
    </g>
   </g>
   <g id="line2d_58">
    <path d="M 312.094407 153.737454 
L 330.650812 145.495912 
L 349.207217 131.601023 
L 367.763623 79.474332 
L 386.320028 51.437411 
L 404.876433 51.380425 
L 423.432838 14.155336 
" clip-path="url(#p859761d627)" style="fill: none; stroke: #ffb5ba; stroke-width: 1.5; stroke-linecap: square"/>
    <g clip-path="url(#p859761d627)">
     <use xlink:href="#m640626de90" x="312.094407" y="153.737454" style="fill: #ffb5ba"/>
     <use xlink:href="#m640626de90" x="330.650812" y="145.495912" style="fill: #ffb5ba"/>
     <use xlink:href="#m640626de90" x="349.207217" y="131.601023" style="fill: #ffb5ba"/>
     <use xlink:href="#m640626de90" x="367.763623" y="79.474332" style="fill: #ffb5ba"/>
     <use xlink:href="#m640626de90" x="386.320028" y="51.437411" style="fill: #ffb5ba"/>
     <use xlink:href="#m640626de90" x="404.876433" y="51.380425" style="fill: #ffb5ba"/>
     <use xlink:href="#m640626de90" x="423.432838" y="14.155336" style="fill: #ffb5ba"/>
    </g>
   </g>
   <g id="patch_13">
    <path d="M 312.094407 237.25726 
L 312.094407 3.00024 
" style="fill: none; stroke: #000000; stroke-width: 0.8; stroke-linejoin: miter; stroke-linecap: square"/>
   </g>
   <g id="patch_14">
    <path d="M 428.99976 237.25726 
L 428.99976 3.00024 
" style="fill: none; stroke: #000000; stroke-width: 0.8; stroke-linejoin: miter; stroke-linecap: square"/>
   </g>
   <g id="patch_15">
    <path d="M 312.094407 237.25726 
L 428.99976 237.25726 
" style="fill: none; stroke: #000000; stroke-width: 0.8; stroke-linejoin: miter; stroke-linecap: square"/>
   </g>
   <g id="patch_16">
    <path d="M 312.094407 3.00024 
L 428.99976 3.00024 
" style="fill: none; stroke: #000000; stroke-width: 0.8; stroke-linejoin: miter; stroke-linecap: square"/>
   </g>
   <g id="text_34">
    <!-- C -->
    <g transform="translate(320.394687 15.884376)scale(0.096 -0.096)">
     <defs>
      <path id="DejaVuSans-Bold-43" d="M 4288 256 
Q 3956 84 3597 -3 
Q 3238 -91 2847 -91 
Q 1681 -91 1000 561 
Q 319 1213 319 2328 
Q 319 3447 1000 4098 
Q 1681 4750 2847 4750 
Q 3238 4750 3597 4662 
Q 3956 4575 4288 4403 
L 4288 3438 
Q 3953 3666 3628 3772 
Q 3303 3878 2944 3878 
Q 2300 3878 1931 3465 
Q 1563 3053 1563 2328 
Q 1563 1606 1931 1193 
Q 2300 781 2944 781 
Q 3303 781 3628 887 
Q 3953 994 4288 1222 
L 4288 256 
z
" transform="scale(0.015625)"/>
     </defs>
     <use xlink:href="#DejaVuSans-Bold-43"/>
    </g>
   </g>
  </g>
 </g>
 <defs>
  <clipPath id="p946bdfd244">
   <rect x="31.92274" y="3.00024" width="116.905353" height="234.25702"/>
  </clipPath>
  <clipPath id="p31c44426ff">
   <rect x="172.008573" y="3.00024" width="116.905353" height="234.25702"/>
  </clipPath>
  <clipPath id="p859761d627">
   <rect x="312.094407" y="3.00024" width="116.905353" height="234.25702"/>
  </clipPath>
 </defs>
</svg>
