<?xml version="1.0" encoding="utf-8" standalone="no"?>
<!DOCTYPE svg PUBLIC "-//W3C//DTD SVG 1.1//EN"
  "http://www.w3.org/Graphics/SVG/1.1/DTD/svg11.dtd">
<svg xmlns:xlink="http://www.w3.org/1999/xlink" width="432pt" height="252pt" viewBox="0 0 432 252" xmlns="http://www.w3.org/2000/svg" version="1.1">
 <metadata>
  <rdf:RDF xmlns:dc="http://purl.org/dc/elements/1.1/" xmlns:cc="http://creativecommons.org/ns#" xmlns:rdf="http://www.w3.org/1999/02/22-rdf-syntax-ns#">
   <cc:Work>
    <dc:type rdf:resource="http://purl.org/dc/dcmitype/StillImage"/>
    <dc:date>2023-05-18T21:23:05.707734</dc:date>
    <dc:format>image/svg+xml</dc:format>
    <dc:creator>
     <cc:Agent>
      <dc:title>Matplotlib v3.6.2, https://matplotlib.org/</dc:title>
     </cc:Agent>
    </dc:creator>
   </cc:Work>
  </rdf:RDF>
 </metadata>
 <defs>
  <style type="text/css">*{stroke-linejoin: round; stroke-linecap: butt}</style>
 </defs>
 <g id="figure_1">
  <g id="patch_1">
   <path d="M 0 252 
L 432 252 
L 432 0 
L 0 0 
z
" style="fill: #ffffff"/>
  </g>
  <g id="axes_1">
   <g id="patch_2">
    <path d="M 26.974459 233.87476 
L 148.359083 233.87476 
L 148.359083 3.00024 
L 26.974459 3.00024 
z
" style="fill: #ffffff"/>
   </g>
   <g id="line2d_1">
    <path d="M 26.974459 214.994059 
L 50.09534 202.695865 
L 73.21622 201.676681 
L 96.337101 70.297544 
L 119.457982 31.578617 
L 142.578863 18.356251 
" clip-path="url(#pd5a8f17ad2)" style="fill: none; stroke-dasharray: 5.55,2.4; stroke-dashoffset: 0; stroke: #c0c0c0; stroke-width: 1.5"/>
    <defs>
     <path id="mdfe7df0741" d="M -2.5 2.5 
L 2.5 2.5 
L 2.5 -2.5 
L -2.5 -2.5 
z
"/>
    </defs>
    <g clip-path="url(#pd5a8f17ad2)">
     <use xlink:href="#mdfe7df0741" x="26.974459" y="214.994059" style="fill: #c0c0c0"/>
     <use xlink:href="#mdfe7df0741" x="50.09534" y="202.695865" style="fill: #c0c0c0"/>
     <use xlink:href="#mdfe7df0741" x="73.21622" y="201.676681" style="fill: #c0c0c0"/>
     <use xlink:href="#mdfe7df0741" x="96.337101" y="70.297544" style="fill: #c0c0c0"/>
     <use xlink:href="#mdfe7df0741" x="119.457982" y="31.578617" style="fill: #c0c0c0"/>
     <use xlink:href="#mdfe7df0741" x="142.578863" y="18.356251" style="fill: #c0c0c0"/>
    </g>
   </g>
   <g id="line2d_2">
    <path d="M 26.974459 217.671199 
L 50.09534 201.452836 
L 73.21622 200.298526 
L 96.337101 70.368153 
L 119.457982 32.061447 
L 142.578863 15.454187 
" clip-path="url(#pd5a8f17ad2)" style="fill: none; stroke-dasharray: 5.55,2.4; stroke-dashoffset: 0; stroke: #bfe5da; stroke-width: 1.5"/>
    <defs>
     <path id="m1af7cdc18a" d="M -2.5 2.5 
L 2.5 2.5 
L 2.5 -2.5 
L -2.5 -2.5 
z
"/>
    </defs>
    <g clip-path="url(#pd5a8f17ad2)">
     <use xlink:href="#m1af7cdc18a" x="26.974459" y="217.671199" style="fill: #bfe5da"/>
     <use xlink:href="#m1af7cdc18a" x="50.09534" y="201.452836" style="fill: #bfe5da"/>
     <use xlink:href="#m1af7cdc18a" x="73.21622" y="200.298526" style="fill: #bfe5da"/>
     <use xlink:href="#m1af7cdc18a" x="96.337101" y="70.368153" style="fill: #bfe5da"/>
     <use xlink:href="#m1af7cdc18a" x="119.457982" y="32.061447" style="fill: #bfe5da"/>
     <use xlink:href="#m1af7cdc18a" x="142.578863" y="15.454187" style="fill: #bfe5da"/>
    </g>
   </g>
   <g id="matplotlib.axis_1">
    <g id="text_1">
     <!-- 4mer Isomers -->
     <g style="fill: #191919" transform="translate(62.655521 247.37476) scale(0.08 -0.08)">
      <defs>
       <path id="Roboto-Bold-34" d="M 175 1553 
L 2072 4550 
L 2984 4550 
L 2984 1713 
L 3500 1713 
L 3500 984 
L 2984 984 
L 2984 0 
L 2081 0 
L 2081 984 
L 216 984 
L 175 1553 
z
M 1072 1713 
L 2081 1713 
L 2081 3328 
L 2019 3219 
L 1072 1713 
z
" transform="scale(0.015625)"/>
       <path id="Roboto-Bold-6d" d="M 1806 2713 
Q 1431 2713 1253 2394 
L 1253 0 
L 347 0 
L 347 3381 
L 1197 3381 
L 1228 3009 
Q 1581 3444 2197 3444 
Q 2850 3444 3094 2928 
Q 3441 3444 4109 3444 
Q 4597 3444 4894 3156 
Q 5191 2869 5194 2169 
L 5194 0 
L 4288 0 
L 4288 2156 
Q 4288 2494 4152 2603 
Q 4016 2713 3781 2713 
Q 3381 2713 3222 2334 
L 3222 0 
L 2319 0 
L 2319 2150 
Q 2319 2484 2181 2598 
Q 2044 2713 1806 2713 
z
" transform="scale(0.015625)"/>
       <path id="Roboto-Bold-65" d="M 3225 550 
Q 3063 319 2731 128 
Q 2400 -63 1906 -63 
Q 1119 -63 675 414 
Q 231 891 228 1566 
L 228 1697 
Q 228 2463 654 2953 
Q 1081 3444 1806 3444 
Q 2534 3444 2915 2987 
Q 3297 2531 3297 1781 
L 3297 1397 
L 1144 1397 
Q 1191 1069 1403 867 
Q 1616 666 1963 666 
Q 2478 666 2778 1044 
L 3225 550 
z
M 1800 2716 
Q 1513 2716 1356 2522 
Q 1200 2328 1153 2016 
L 2409 2016 
L 2409 2084 
Q 2403 2356 2258 2536 
Q 2113 2716 1800 2716 
z
" transform="scale(0.015625)"/>
       <path id="Roboto-Bold-72" d="M 1922 2563 
Q 1413 2563 1253 2216 
L 1253 0 
L 347 0 
L 347 3381 
L 1200 3381 
L 1228 2978 
Q 1494 3444 1981 3444 
Q 2153 3444 2259 3403 
L 2250 2538 
L 1922 2563 
z
" transform="scale(0.015625)"/>
       <path id="Roboto-Bold-20" transform="scale(0.015625)"/>
       <path id="Roboto-Bold-49" d="M 1403 4550 
L 1403 0 
L 466 0 
L 466 4550 
L 1403 4550 
z
" transform="scale(0.015625)"/>
       <path id="Roboto-Bold-73" d="M 2178 938 
Q 2178 1081 2045 1179 
Q 1913 1278 1475 1372 
Q 953 1484 618 1721 
Q 284 1959 284 2394 
Q 284 2816 642 3130 
Q 1000 3444 1631 3444 
Q 2291 3444 2669 3134 
Q 3047 2825 3047 2353 
L 2144 2353 
Q 2144 2547 2019 2675 
Q 1894 2803 1628 2803 
Q 1403 2803 1276 2698 
Q 1150 2594 1150 2438 
Q 1150 2294 1284 2200 
Q 1419 2106 1781 2034 
Q 2331 1925 2693 1700 
Q 3056 1475 3056 972 
Q 3056 525 2672 231 
Q 2288 -63 1634 -63 
Q 925 -63 550 301 
Q 175 666 175 1078 
L 1034 1078 
Q 1047 813 1230 697 
Q 1413 581 1653 581 
Q 2178 581 2178 938 
z
" transform="scale(0.015625)"/>
       <path id="Roboto-Bold-6f" d="M 206 1722 
Q 206 2459 625 2951 
Q 1044 3444 1806 3444 
Q 2578 3444 2993 2951 
Q 3409 2459 3409 1722 
L 3409 1656 
Q 3409 919 2993 428 
Q 2578 -63 1813 -63 
Q 1053 -63 636 415 
Q 219 894 206 1616 
L 206 1722 
z
M 1113 1656 
Q 1113 1244 1270 955 
Q 1428 666 1813 666 
Q 2191 666 2348 953 
Q 2506 1241 2506 1722 
Q 2506 2125 2348 2420 
Q 2191 2716 1806 2716 
Q 1425 2716 1269 2422 
Q 1113 2128 1113 1656 
z
" transform="scale(0.015625)"/>
      </defs>
      <use xlink:href="#Roboto-Bold-34"/>
      <use xlink:href="#Roboto-Bold-6d" x="57.373047"/>
      <use xlink:href="#Roboto-Bold-65" x="143.945312"/>
      <use xlink:href="#Roboto-Bold-72" x="197.998047"/>
      <use xlink:href="#Roboto-Bold-20" x="234.521484"/>
      <use xlink:href="#Roboto-Bold-49" x="259.423828"/>
      <use xlink:href="#Roboto-Bold-73" x="288.623047"/>
      <use xlink:href="#Roboto-Bold-6f" x="340.087891"/>
      <use xlink:href="#Roboto-Bold-6d" x="396.630859"/>
      <use xlink:href="#Roboto-Bold-65" x="483.203125"/>
      <use xlink:href="#Roboto-Bold-72" x="537.255859"/>
      <use xlink:href="#Roboto-Bold-73" x="573.779297"/>
     </g>
    </g>
   </g>
   <g id="matplotlib.axis_2">
    <g id="ytick_1">
     <g id="line2d_3">
      <defs>
       <path id="me0f07f2e06" d="M 0 0 
L -3.5 0 
" style="stroke: #c2c1c1; stroke-width: 0.8"/>
      </defs>
      <g>
       <use xlink:href="#me0f07f2e06" x="26.974459" y="214.994059" style="fill: #c2c1c1; stroke: #c2c1c1; stroke-width: 0.8"/>
      </g>
     </g>
     <g id="text_2">
      <!-- 0 -->
      <g style="fill: #191919" transform="translate(16.04024 217.619059) scale(0.07 -0.07)">
       <defs>
        <path id="Roboto-Regular-30" d="M 3234 1944 
Q 3234 825 2848 381 
Q 2463 -63 1800 -63 
Q 1156 -63 764 368 
Q 372 800 359 1872 
L 359 2638 
Q 359 3753 750 4183 
Q 1141 4613 1794 4613 
Q 2447 4613 2834 4195 
Q 3222 3778 3234 2709 
L 3234 1944 
z
M 2653 2734 
Q 2653 3503 2434 3822 
Q 2216 4141 1794 4141 
Q 1388 4141 1167 3831 
Q 947 3522 941 2778 
L 941 1850 
Q 941 1088 1164 750 
Q 1388 413 1800 413 
Q 2222 413 2436 745 
Q 2650 1078 2653 1825 
L 2653 2734 
z
" transform="scale(0.015625)"/>
       </defs>
       <use xlink:href="#Roboto-Regular-30"/>
      </g>
     </g>
    </g>
    <g id="ytick_2">
     <g id="line2d_4">
      <g>
       <use xlink:href="#me0f07f2e06" x="26.974459" y="185.843148" style="fill: #c2c1c1; stroke: #c2c1c1; stroke-width: 0.8"/>
      </g>
     </g>
     <g id="text_3">
      <!-- 1 -->
      <g style="fill: #191919" transform="translate(16.04024 188.468148) scale(0.07 -0.07)">
       <defs>
        <path id="Roboto-Regular-31" d="M 2278 4575 
L 2278 0 
L 1700 0 
L 1700 3853 
L 534 3428 
L 534 3950 
L 2188 4575 
L 2278 4575 
z
" transform="scale(0.015625)"/>
       </defs>
       <use xlink:href="#Roboto-Regular-31"/>
      </g>
     </g>
    </g>
    <g id="ytick_3">
     <g id="line2d_5">
      <g>
       <use xlink:href="#me0f07f2e06" x="26.974459" y="156.692237" style="fill: #c2c1c1; stroke: #c2c1c1; stroke-width: 0.8"/>
      </g>
     </g>
     <g id="text_4">
      <!-- 2 -->
      <g style="fill: #191919" transform="translate(16.04024 159.317237) scale(0.07 -0.07)">
       <defs>
        <path id="Roboto-Regular-32" d="M 3359 475 
L 3359 0 
L 381 0 
L 381 416 
L 1925 2134 
Q 2306 2566 2439 2819 
Q 2572 3072 2572 3328 
Q 2572 3663 2364 3900 
Q 2156 4138 1778 4138 
Q 1322 4138 1097 3878 
Q 872 3619 872 3213 
L 294 3213 
Q 294 3788 672 4200 
Q 1050 4613 1778 4613 
Q 2422 4613 2786 4278 
Q 3150 3944 3150 3397 
Q 3150 2997 2903 2592 
Q 2656 2188 2297 1797 
L 1078 475 
L 3359 475 
z
" transform="scale(0.015625)"/>
       </defs>
       <use xlink:href="#Roboto-Regular-32"/>
      </g>
     </g>
    </g>
    <g id="ytick_4">
     <g id="line2d_6">
      <g>
       <use xlink:href="#me0f07f2e06" x="26.974459" y="127.541326" style="fill: #c2c1c1; stroke: #c2c1c1; stroke-width: 0.8"/>
      </g>
     </g>
     <g id="text_5">
      <!-- 3 -->
      <g style="fill: #191919" transform="translate(16.04024 130.166326) scale(0.07 -0.07)">
       <defs>
        <path id="Roboto-Regular-33" d="M 1222 2084 
L 1222 2559 
L 1647 2559 
Q 2094 2563 2312 2784 
Q 2531 3006 2531 3338 
Q 2531 4138 1738 4138 
Q 1369 4138 1141 3927 
Q 913 3716 913 3359 
L 334 3359 
Q 334 3881 720 4247 
Q 1106 4613 1738 4613 
Q 2353 4613 2733 4286 
Q 3113 3959 3113 3325 
Q 3113 3072 2942 2784 
Q 2772 2497 2397 2338 
Q 2850 2191 3015 1884 
Q 3181 1578 3181 1269 
Q 3181 631 2768 284 
Q 2356 -63 1741 -63 
Q 1147 -63 722 267 
Q 297 597 297 1203 
L 875 1203 
Q 875 844 1108 628 
Q 1341 413 1741 413 
Q 2138 413 2369 622 
Q 2600 831 2600 1256 
Q 2600 1681 2337 1882 
Q 2075 2084 1634 2084 
L 1222 2084 
z
" transform="scale(0.015625)"/>
       </defs>
       <use xlink:href="#Roboto-Regular-33"/>
      </g>
     </g>
    </g>
    <g id="ytick_5">
     <g id="line2d_7">
      <g>
       <use xlink:href="#me0f07f2e06" x="26.974459" y="98.390415" style="fill: #c2c1c1; stroke: #c2c1c1; stroke-width: 0.8"/>
      </g>
     </g>
     <g id="text_6">
      <!-- 4 -->
      <g style="fill: #191919" transform="translate(16.04024 101.015415) scale(0.07 -0.07)">
       <defs>
        <path id="Roboto-Regular-34" d="M 166 1397 
L 2203 4550 
L 2819 4550 
L 2819 1531 
L 3453 1531 
L 3453 1056 
L 2819 1056 
L 2819 0 
L 2241 0 
L 2241 1056 
L 166 1056 
L 166 1397 
z
M 822 1531 
L 2241 1531 
L 2241 3766 
L 2169 3638 
L 822 1531 
z
" transform="scale(0.015625)"/>
       </defs>
       <use xlink:href="#Roboto-Regular-34"/>
      </g>
     </g>
    </g>
    <g id="ytick_6">
     <g id="line2d_8">
      <g>
       <use xlink:href="#me0f07f2e06" x="26.974459" y="69.239504" style="fill: #c2c1c1; stroke: #c2c1c1; stroke-width: 0.8"/>
      </g>
     </g>
     <g id="text_7">
      <!-- 5 -->
      <g style="fill: #191919" transform="translate(16.04024 71.864504) scale(0.07 -0.07)">
       <defs>
        <path id="Roboto-Regular-35" d="M 1109 2166 
L 647 2284 
L 875 4550 
L 3209 4550 
L 3209 4016 
L 1366 4016 
L 1228 2778 
Q 1572 2975 1988 2975 
Q 2616 2975 2980 2561 
Q 3344 2147 3344 1450 
Q 3344 797 2987 367 
Q 2631 -63 1903 -63 
Q 1350 -63 947 248 
Q 544 559 481 1197 
L 1031 1197 
Q 1141 413 1903 413 
Q 2313 413 2538 691 
Q 2763 969 2763 1444 
Q 2763 1872 2527 2164 
Q 2291 2456 1853 2456 
Q 1563 2456 1413 2378 
Q 1263 2300 1109 2166 
z
" transform="scale(0.015625)"/>
       </defs>
       <use xlink:href="#Roboto-Regular-35"/>
      </g>
     </g>
    </g>
    <g id="ytick_7">
     <g id="line2d_9">
      <g>
       <use xlink:href="#me0f07f2e06" x="26.974459" y="40.088593" style="fill: #c2c1c1; stroke: #c2c1c1; stroke-width: 0.8"/>
      </g>
     </g>
     <g id="text_8">
      <!-- 6 -->
      <g style="fill: #191919" transform="translate(16.04024 42.713593) scale(0.07 -0.07)">
       <defs>
        <path id="Roboto-Regular-36" d="M 3291 1484 
Q 3291 838 2930 387 
Q 2569 -63 1878 -63 
Q 1388 -63 1063 198 
Q 738 459 577 861 
Q 416 1263 416 1684 
L 416 1956 
Q 416 2597 595 3194 
Q 775 3791 1247 4173 
Q 1719 4556 2597 4556 
L 2647 4556 
L 2647 4066 
Q 2041 4066 1705 3853 
Q 1369 3641 1205 3302 
Q 1041 2963 1006 2575 
Q 1369 2984 1984 2984 
Q 2438 2984 2727 2765 
Q 3016 2547 3153 2201 
Q 3291 1856 3291 1484 
z
M 997 1666 
Q 997 1059 1267 737 
Q 1538 416 1878 416 
Q 2278 416 2498 708 
Q 2719 1000 2719 1456 
Q 2719 1863 2516 2184 
Q 2313 2506 1891 2506 
Q 1588 2506 1341 2325 
Q 1094 2144 997 1884 
L 997 1666 
z
" transform="scale(0.015625)"/>
       </defs>
       <use xlink:href="#Roboto-Regular-36"/>
      </g>
     </g>
    </g>
    <g id="ytick_8">
     <g id="line2d_10">
      <g>
       <use xlink:href="#me0f07f2e06" x="26.974459" y="10.937682" style="fill: #c2c1c1; stroke: #c2c1c1; stroke-width: 0.8"/>
      </g>
     </g>
     <g id="text_9">
      <!-- 7 -->
      <g style="fill: #191919" transform="translate(16.04024 13.562682) scale(0.07 -0.07)">
       <defs>
        <path id="Roboto-Regular-37" d="M 3319 4550 
L 3319 4225 
L 1434 0 
L 825 0 
L 2706 4075 
L 244 4075 
L 244 4550 
L 3319 4550 
z
" transform="scale(0.015625)"/>
       </defs>
       <use xlink:href="#Roboto-Regular-37"/>
      </g>
     </g>
    </g>
    <g id="ytick_9">
     <g id="line2d_11">
      <defs>
       <path id="md3ced2c02f" d="M 0 0 
L -2 0 
" style="stroke: #c2c1c1; stroke-width: 0.6"/>
      </defs>
      <g>
       <use xlink:href="#md3ced2c02f" x="26.974459" y="229.569514" style="fill: #c2c1c1; stroke: #c2c1c1; stroke-width: 0.6"/>
      </g>
     </g>
    </g>
    <g id="ytick_10">
     <g id="line2d_12">
      <g>
       <use xlink:href="#md3ced2c02f" x="26.974459" y="200.418603" style="fill: #c2c1c1; stroke: #c2c1c1; stroke-width: 0.6"/>
      </g>
     </g>
    </g>
    <g id="ytick_11">
     <g id="line2d_13">
      <g>
       <use xlink:href="#md3ced2c02f" x="26.974459" y="171.267692" style="fill: #c2c1c1; stroke: #c2c1c1; stroke-width: 0.6"/>
      </g>
     </g>
    </g>
    <g id="ytick_12">
     <g id="line2d_14">
      <g>
       <use xlink:href="#md3ced2c02f" x="26.974459" y="142.116781" style="fill: #c2c1c1; stroke: #c2c1c1; stroke-width: 0.6"/>
      </g>
     </g>
    </g>
    <g id="ytick_13">
     <g id="line2d_15">
      <g>
       <use xlink:href="#md3ced2c02f" x="26.974459" y="112.965871" style="fill: #c2c1c1; stroke: #c2c1c1; stroke-width: 0.6"/>
      </g>
     </g>
    </g>
    <g id="ytick_14">
     <g id="line2d_16">
      <g>
       <use xlink:href="#md3ced2c02f" x="26.974459" y="83.81496" style="fill: #c2c1c1; stroke: #c2c1c1; stroke-width: 0.6"/>
      </g>
     </g>
    </g>
    <g id="ytick_15">
     <g id="line2d_17">
      <g>
       <use xlink:href="#md3ced2c02f" x="26.974459" y="54.664049" style="fill: #c2c1c1; stroke: #c2c1c1; stroke-width: 0.6"/>
      </g>
     </g>
    </g>
    <g id="ytick_16">
     <g id="line2d_18">
      <g>
       <use xlink:href="#md3ced2c02f" x="26.974459" y="25.513138" style="fill: #c2c1c1; stroke: #c2c1c1; stroke-width: 0.6"/>
      </g>
     </g>
    </g>
    <g id="text_10">
     <!-- $\Delta$E (kcal mol$^{\bf{-1}}$) -->
     <g style="fill: #191919" transform="translate(10.20024 146.9175) rotate(-90) scale(0.08 -0.08)">
      <defs>
       <path id="DejaVuSans-394" d="M 2188 4044 
L 906 525 
L 3472 525 
L 2188 4044 
z
M 50 0 
L 1831 4666 
L 2547 4666 
L 4325 0 
L 50 0 
z
" transform="scale(0.015625)"/>
       <path id="Roboto-Bold-45" d="M 406 0 
L 406 4550 
L 3450 4550 
L 3450 3791 
L 1347 3791 
L 1347 2706 
L 3144 2706 
L 3144 1972 
L 1347 1972 
L 1347 756 
L 3459 756 
L 3459 0 
L 406 0 
z
" transform="scale(0.015625)"/>
       <path id="Roboto-Bold-28" d="M 391 1850 
Q 391 2731 633 3392 
Q 875 4053 1234 4473 
Q 1594 4894 1947 5053 
L 2122 4566 
Q 1772 4303 1465 3661 
Q 1159 3019 1153 1906 
L 1153 1772 
Q 1153 628 1461 -23 
Q 1769 -675 2122 -944 
L 1947 -1422 
Q 1594 -1266 1234 -845 
Q 875 -425 633 237 
Q 391 900 391 1778 
L 391 1850 
z
" transform="scale(0.015625)"/>
       <path id="Roboto-Bold-6b" d="M 2444 0 
L 1575 1356 
L 1253 1034 
L 1253 0 
L 350 0 
L 350 4803 
L 1253 4803 
L 1253 2144 
L 1428 2369 
L 2291 3381 
L 3375 3381 
L 2156 1975 
L 3484 0 
L 2444 0 
z
" transform="scale(0.015625)"/>
       <path id="Roboto-Bold-63" d="M 1753 666 
Q 2000 666 2159 802 
Q 2319 938 2322 1169 
L 3172 1169 
Q 3166 631 2761 284 
Q 2356 -63 1769 -63 
Q 984 -63 595 432 
Q 206 928 206 1647 
L 206 1734 
Q 206 2450 593 2947 
Q 981 3444 1766 3444 
Q 2388 3444 2777 3087 
Q 3166 2731 3172 2122 
L 2322 2122 
Q 2319 2369 2172 2542 
Q 2025 2716 1750 2716 
Q 1356 2716 1234 2420 
Q 1113 2125 1113 1647 
Q 1113 1256 1233 961 
Q 1353 666 1753 666 
z
" transform="scale(0.015625)"/>
       <path id="Roboto-Bold-61" d="M 2306 0 
Q 2250 119 2216 303 
Q 1888 -63 1363 -63 
Q 878 -63 547 223 
Q 216 509 216 950 
Q 216 1481 609 1773 
Q 1003 2066 1775 2066 
L 2178 2066 
L 2178 2263 
Q 2178 2497 2058 2636 
Q 1938 2775 1678 2775 
Q 1194 2775 1194 2369 
L 291 2369 
Q 291 2809 681 3126 
Q 1072 3444 1728 3444 
Q 2313 3444 2698 3147 
Q 3084 2850 3084 2256 
L 3084 750 
Q 3091 300 3219 53 
L 3219 0 
L 2306 0 
z
M 1559 628 
Q 1788 628 1948 729 
Q 2109 831 2178 953 
L 2178 1541 
L 1809 1541 
Q 1450 1541 1284 1389 
Q 1119 1238 1119 1016 
Q 1119 847 1236 737 
Q 1353 628 1559 628 
z
" transform="scale(0.015625)"/>
       <path id="Roboto-Bold-6c" d="M 1303 4800 
L 1303 0 
L 397 0 
L 397 4800 
L 1303 4800 
z
" transform="scale(0.015625)"/>
       <path id="DejaVuSans-Bold-2212" d="M 678 2375 
L 4684 2375 
L 4684 1638 
L 678 1638 
L 678 2375 
z
" transform="scale(0.015625)"/>
       <path id="DejaVuSans-Bold-31" d="M 750 831 
L 1813 831 
L 1813 3847 
L 722 3622 
L 722 4441 
L 1806 4666 
L 2950 4666 
L 2950 831 
L 4013 831 
L 4013 0 
L 750 0 
L 750 831 
z
" transform="scale(0.015625)"/>
       <path id="Roboto-Bold-29" d="M 1906 1778 
Q 1906 928 1656 264 
Q 1406 -400 1034 -833 
Q 663 -1266 300 -1422 
L 125 -944 
Q 472 -684 780 -37 
Q 1088 609 1094 1722 
L 1094 1856 
Q 1094 3000 780 3656 
Q 466 4313 125 4572 
L 300 5053 
Q 663 4894 1034 4461 
Q 1406 4028 1656 3364 
Q 1906 2700 1906 1847 
L 1906 1778 
z
" transform="scale(0.015625)"/>
      </defs>
      <use xlink:href="#DejaVuSans-394" transform="translate(0 0.684375)"/>
      <use xlink:href="#Roboto-Bold-45" transform="translate(68.408203 0.684375)"/>
      <use xlink:href="#Roboto-Bold-20" transform="translate(124.658203 0.684375)"/>
      <use xlink:href="#Roboto-Bold-28" transform="translate(149.560547 0.684375)"/>
      <use xlink:href="#Roboto-Bold-6b" transform="translate(184.667969 0.684375)"/>
      <use xlink:href="#Roboto-Bold-63" transform="translate(238.085938 0.684375)"/>
      <use xlink:href="#Roboto-Bold-61" transform="translate(290.283203 0.684375)"/>
      <use xlink:href="#Roboto-Bold-6c" transform="translate(343.896484 0.684375)"/>
      <use xlink:href="#Roboto-Bold-20" transform="translate(370.410156 0.684375)"/>
      <use xlink:href="#Roboto-Bold-6d" transform="translate(395.3125 0.684375)"/>
      <use xlink:href="#Roboto-Bold-6f" transform="translate(481.884766 0.684375)"/>
      <use xlink:href="#Roboto-Bold-6c" transform="translate(538.427734 0.684375)"/>
      <use xlink:href="#DejaVuSans-Bold-2212" transform="translate(565.898438 38.965625) scale(0.7)"/>
      <use xlink:href="#DejaVuSans-Bold-31" transform="translate(624.550781 38.965625) scale(0.7)"/>
      <use xlink:href="#Roboto-Bold-29" transform="translate(675.991211 0.684375)"/>
     </g>
    </g>
   </g>
   <g id="line2d_19">
    <path d="M 26.974459 211.845062 
L 50.09534 223.380464 
L 73.21622 222.7752 
L 96.337101 75.594978 
L 119.457982 49.949788 
L 142.578863 13.494536 
" clip-path="url(#pd5a8f17ad2)" style="fill: none; stroke: #61bfa3; stroke-width: 1.5; stroke-linecap: square"/>
    <defs>
     <path id="ma3f03cdb71" d="M 0 2.5 
C 0.663008 2.5 1.29895 2.236584 1.767767 1.767767 
C 2.236584 1.29895 2.5 0.663008 2.5 0 
C 2.5 -0.663008 2.236584 -1.29895 1.767767 -1.767767 
C 1.29895 -2.236584 0.663008 -2.5 0 -2.5 
C -0.663008 -2.5 -1.29895 -2.236584 -1.767767 -1.767767 
C -2.236584 -1.29895 -2.5 -0.663008 -2.5 0 
C -2.5 0.663008 -2.236584 1.29895 -1.767767 1.767767 
C -1.29895 2.236584 -0.663008 2.5 0 2.5 
z
"/>
    </defs>
    <g clip-path="url(#pd5a8f17ad2)">
     <use xlink:href="#ma3f03cdb71" x="26.974459" y="211.845062" style="fill: #61bfa3"/>
     <use xlink:href="#ma3f03cdb71" x="50.09534" y="223.380464" style="fill: #61bfa3"/>
     <use xlink:href="#ma3f03cdb71" x="73.21622" y="222.7752" style="fill: #61bfa3"/>
     <use xlink:href="#ma3f03cdb71" x="96.337101" y="75.594978" style="fill: #61bfa3"/>
     <use xlink:href="#ma3f03cdb71" x="119.457982" y="49.949788" style="fill: #61bfa3"/>
     <use xlink:href="#ma3f03cdb71" x="142.578863" y="13.494536" style="fill: #61bfa3"/>
    </g>
   </g>
   <g id="patch_3">
    <path d="M 26.974459 233.87476 
L 26.974459 3.00024 
" style="fill: none; stroke: #c2c1c1; stroke-width: 0.8; stroke-linejoin: miter; stroke-linecap: square"/>
   </g>
   <g id="patch_4">
    <path d="M 148.359083 233.87476 
L 148.359083 3.00024 
" style="fill: none; stroke: #c2c1c1; stroke-width: 0.8; stroke-linejoin: miter; stroke-linecap: square"/>
   </g>
   <g id="patch_5">
    <path d="M 26.974459 233.87476 
L 148.359083 233.87476 
" style="fill: none; stroke: #c2c1c1; stroke-width: 0.8; stroke-linejoin: miter; stroke-linecap: square"/>
   </g>
   <g id="patch_6">
    <path d="M 26.974459 3.00024 
L 148.359083 3.00024 
" style="fill: none; stroke: #c2c1c1; stroke-width: 0.8; stroke-linejoin: miter; stroke-linecap: square"/>
   </g>
   <g id="text_11">
    <!-- A -->
    <g transform="translate(35.592767 15.698339) scale(0.096 -0.096)">
     <defs>
      <path id="Roboto-Bold-41" d="M 25 0 
L 1719 4550 
L 2588 4550 
L 4291 0 
L 3291 0 
L 2978 938 
L 1331 938 
L 1019 0 
L 25 0 
z
M 1584 1697 
L 2725 1697 
L 2156 3406 
L 1584 1697 
z
" transform="scale(0.015625)"/>
     </defs>
     <use xlink:href="#Roboto-Bold-41"/>
    </g>
   </g>
   <g id="legend_1">
    <g id="line2d_20">
     <path d="M 31.388305 22.917634 
L 39.388305 22.917634 
L 47.388305 22.917634 
" style="fill: none; stroke-dasharray: 5.55,2.4; stroke-dashoffset: 0; stroke: #c0c0c0; stroke-width: 1.5"/>
     <g>
      <use xlink:href="#mdfe7df0741" x="39.388305" y="22.917634" style="fill: #c0c0c0"/>
     </g>
    </g>
    <g id="text_12">
     <!-- MP2 -->
     <g transform="translate(53.788305 25.717634) scale(0.08 -0.08)">
      <defs>
       <path id="Roboto-Regular-4d" d="M 2794 841 
L 4281 4550 
L 5056 4550 
L 5056 0 
L 4456 0 
L 4456 1775 
L 4516 3678 
L 3019 0 
L 2563 0 
L 1069 3684 
L 1128 1775 
L 1128 0 
L 528 0 
L 528 4550 
L 1303 4550 
L 2794 841 
z
" transform="scale(0.015625)"/>
       <path id="Roboto-Regular-50" d="M 1131 1784 
L 1131 0 
L 528 0 
L 528 4550 
L 2206 4550 
Q 2981 4550 3392 4159 
Q 3803 3769 3803 3163 
Q 3803 2503 3392 2143 
Q 2981 1784 2206 1784 
L 1131 1784 
z
M 1131 4056 
L 1131 2275 
L 2206 2275 
Q 2738 2275 2969 2522 
Q 3200 2769 3200 3156 
Q 3200 3506 2969 3781 
Q 2738 4056 2206 4056 
L 1131 4056 
z
" transform="scale(0.015625)"/>
      </defs>
      <use xlink:href="#Roboto-Regular-4d"/>
      <use xlink:href="#Roboto-Regular-50" x="87.304688"/>
      <use xlink:href="#Roboto-Regular-32" x="150.390625"/>
     </g>
    </g>
    <g id="line2d_21">
     <path d="M 31.388305 34.542634 
L 39.388305 34.542634 
L 47.388305 34.542634 
" style="fill: none; stroke-dasharray: 5.55,2.4; stroke-dashoffset: 0; stroke: #bfe5da; stroke-width: 1.5"/>
     <g>
      <use xlink:href="#m1af7cdc18a" x="39.388305" y="34.542634" style="fill: #bfe5da"/>
     </g>
    </g>
    <g id="text_13">
     <!-- MBE -->
     <g transform="translate(53.788305 37.342634) scale(0.08 -0.08)">
      <defs>
       <path id="Roboto-Regular-42" d="M 3625 1313 
Q 3625 675 3214 337 
Q 2803 0 2122 0 
L 528 0 
L 528 4550 
L 2019 4550 
Q 2719 4550 3111 4261 
Q 3503 3972 3503 3338 
Q 3503 3022 3323 2776 
Q 3144 2531 2831 2397 
Q 3216 2291 3420 1994 
Q 3625 1697 3625 1313 
z
M 1131 4056 
L 1131 2613 
L 2038 2613 
Q 2425 2613 2662 2806 
Q 2900 3000 2900 3344 
Q 2900 4041 2056 4056 
L 1131 4056 
z
M 3025 1306 
Q 3025 1688 2817 1908 
Q 2609 2128 2150 2128 
L 1131 2128 
L 1131 491 
L 2122 491 
Q 2550 491 2787 711 
Q 3025 931 3025 1306 
z
" transform="scale(0.015625)"/>
       <path id="Roboto-Regular-45" d="M 528 0 
L 528 4550 
L 3388 4550 
L 3388 4056 
L 1131 4056 
L 1131 2594 
L 3100 2594 
L 3100 2103 
L 1131 2103 
L 1131 491 
L 3419 491 
L 3419 0 
L 528 0 
z
" transform="scale(0.015625)"/>
      </defs>
      <use xlink:href="#Roboto-Regular-4d"/>
      <use xlink:href="#Roboto-Regular-42" x="87.304688"/>
      <use xlink:href="#Roboto-Regular-45" x="149.609375"/>
     </g>
    </g>
    <g id="line2d_22">
     <path d="M 31.388305 46.167634 
L 39.388305 46.167634 
L 47.388305 46.167634 
" style="fill: none; stroke: #61bfa3; stroke-width: 1.5; stroke-linecap: square"/>
     <g>
      <use xlink:href="#ma3f03cdb71" x="39.388305" y="46.167634" style="fill: #61bfa3"/>
     </g>
    </g>
    <g id="text_14">
     <!-- mbSchNet -->
     <g transform="translate(53.788305 48.967634) scale(0.08 -0.08)">
      <defs>
       <path id="Roboto-Regular-6d" d="M 1794 2956 
Q 1225 2956 1016 2478 
L 1016 0 
L 434 0 
L 434 3381 
L 984 3381 
L 1000 3013 
Q 1366 3444 2000 3444 
Q 2325 3444 2579 3314 
Q 2834 3184 2969 2900 
Q 3138 3144 3408 3294 
Q 3678 3444 4044 3444 
Q 4588 3444 4883 3153 
Q 5178 2863 5178 2222 
L 5178 0 
L 4597 0 
L 4597 2228 
Q 4597 2653 4401 2804 
Q 4206 2956 3875 2956 
Q 3525 2956 3325 2748 
Q 3125 2541 3094 2244 
L 3094 0 
L 2516 0 
L 2516 2225 
Q 2516 2622 2319 2789 
Q 2122 2956 1794 2956 
z
" transform="scale(0.015625)"/>
       <path id="Roboto-Regular-62" d="M 3303 1653 
Q 3303 913 2959 425 
Q 2616 -63 1988 -63 
Q 1347 -63 1000 391 
L 969 0 
L 438 0 
L 438 4800 
L 1019 4800 
L 1019 3016 
Q 1363 3444 1981 3444 
Q 2619 3444 2961 2969 
Q 3303 2494 3303 1719 
L 3303 1653 
z
M 1838 2956 
Q 1522 2956 1325 2804 
Q 1128 2653 1019 2431 
L 1019 959 
Q 1131 734 1331 581 
Q 1531 428 1844 428 
Q 2313 428 2517 789 
Q 2722 1150 2722 1653 
L 2722 1719 
Q 2722 2222 2526 2589 
Q 2331 2956 1838 2956 
z
" transform="scale(0.015625)"/>
       <path id="Roboto-Regular-53" d="M 2953 1150 
Q 2953 1463 2742 1650 
Q 2531 1838 1856 2036 
Q 1181 2234 789 2542 
Q 397 2850 397 3375 
Q 397 3906 820 4259 
Q 1244 4613 1944 4613 
Q 2713 4613 3130 4191 
Q 3547 3769 3547 3238 
L 2947 3238 
Q 2947 3619 2700 3869 
Q 2453 4119 1944 4119 
Q 1463 4119 1231 3908 
Q 1000 3697 1000 3381 
Q 1000 3097 1245 2908 
Q 1491 2719 2044 2563 
Q 2834 2341 3196 2014 
Q 3559 1688 3559 1156 
Q 3559 600 3125 268 
Q 2691 -63 1972 -63 
Q 1553 -63 1158 93 
Q 763 250 508 558 
Q 253 866 253 1319 
L 853 1319 
Q 853 853 1193 640 
Q 1534 428 1972 428 
Q 2444 428 2698 623 
Q 2953 819 2953 1150 
z
" transform="scale(0.015625)"/>
       <path id="Roboto-Regular-63" d="M 1794 413 
Q 2103 413 2336 597 
Q 2569 781 2591 1069 
L 3141 1069 
Q 3119 616 2725 276 
Q 2331 -63 1794 -63 
Q 1031 -63 661 440 
Q 291 944 291 1625 
L 291 1756 
Q 291 2438 661 2941 
Q 1031 3444 1794 3444 
Q 2388 3444 2753 3092 
Q 3119 2741 3141 2219 
L 2591 2219 
Q 2569 2531 2355 2750 
Q 2141 2969 1794 2969 
Q 1438 2969 1236 2787 
Q 1034 2606 951 2328 
Q 869 2050 869 1756 
L 869 1625 
Q 869 1328 950 1050 
Q 1031 772 1232 592 
Q 1434 413 1794 413 
z
" transform="scale(0.015625)"/>
       <path id="Roboto-Regular-68" d="M 1844 2956 
Q 1566 2956 1353 2806 
Q 1141 2656 1019 2416 
L 1019 0 
L 441 0 
L 441 4800 
L 1019 4800 
L 1019 2978 
Q 1403 3444 2016 3444 
Q 2513 3444 2805 3166 
Q 3097 2888 3100 2231 
L 3100 0 
L 2519 0 
L 2519 2222 
Q 2519 2619 2345 2787 
Q 2172 2956 1844 2956 
z
" transform="scale(0.015625)"/>
       <path id="Roboto-Regular-4e" d="M 4028 4550 
L 4028 0 
L 3422 0 
L 1131 3509 
L 1131 0 
L 528 0 
L 528 4550 
L 1131 4550 
L 3431 1031 
L 3431 4550 
L 4028 4550 
z
" transform="scale(0.015625)"/>
       <path id="Roboto-Regular-65" d="M 3116 591 
Q 2950 341 2647 139 
Q 2344 -63 1844 -63 
Q 1138 -63 714 396 
Q 291 856 291 1572 
L 291 1703 
Q 291 2256 502 2645 
Q 713 3034 1050 3239 
Q 1388 3444 1769 3444 
Q 2494 3444 2826 2970 
Q 3159 2497 3159 1788 
L 3159 1528 
L 872 1528 
Q 884 1063 1148 736 
Q 1413 409 1875 409 
Q 2181 409 2393 534 
Q 2606 659 2766 869 
L 3116 591 
z
M 1769 2969 
Q 1425 2969 1187 2719 
Q 950 2469 891 2000 
L 2581 2000 
L 2581 2044 
Q 2559 2381 2386 2675 
Q 2213 2969 1769 2969 
z
" transform="scale(0.015625)"/>
       <path id="Roboto-Regular-74" d="M 1872 0 
Q 1675 -63 1425 -63 
Q 1103 -63 875 134 
Q 647 331 647 841 
L 647 2938 
L 28 2938 
L 28 3381 
L 647 3381 
L 647 4203 
L 1225 4203 
L 1225 3381 
L 1856 3381 
L 1856 2938 
L 1225 2938 
L 1225 838 
Q 1225 578 1337 506 
Q 1450 434 1597 434 
Q 1706 434 1869 472 
L 1872 0 
z
" transform="scale(0.015625)"/>
      </defs>
      <use xlink:href="#Roboto-Regular-6d"/>
      <use xlink:href="#Roboto-Regular-62" x="87.695312"/>
      <use xlink:href="#Roboto-Regular-53" x="143.847656"/>
      <use xlink:href="#Roboto-Regular-63" x="203.222656"/>
      <use xlink:href="#Roboto-Regular-68" x="255.566406"/>
      <use xlink:href="#Roboto-Regular-4e" x="310.644531"/>
      <use xlink:href="#Roboto-Regular-65" x="381.982422"/>
      <use xlink:href="#Roboto-Regular-74" x="435.009766"/>
     </g>
    </g>
   </g>
  </g>
  <g id="axes_2">
   <g id="patch_7">
    <path d="M 169.295813 233.87476 
L 290.680437 233.87476 
L 290.680437 3.00024 
L 169.295813 3.00024 
z
" style="fill: #ffffff"/>
   </g>
   <g id="line2d_23">
    <path d="M 169.295813 162.756078 
L 176.521088 162.470774 
L 183.746363 155.022732 
L 190.971639 155.018582 
L 198.196914 155.01693 
L 205.422189 133.409831 
L 212.647464 131.846971 
L 219.87274 131.032025 
L 227.098015 128.463302 
L 234.32329 128.435633 
L 241.548565 128.200892 
L 248.773841 104.430288 
L 255.999116 102.39982 
L 263.224391 98.230214 
L 270.449666 91.042575 
L 277.674942 57.892891 
L 284.900217 12.494704 
" clip-path="url(#p26c8d9a668)" style="fill: none; stroke-dasharray: 5.55,2.4; stroke-dashoffset: 0; stroke: #c0c0c0; stroke-width: 1.5"/>
    <g clip-path="url(#p26c8d9a668)">
     <use xlink:href="#mdfe7df0741" x="169.295813" y="162.756078" style="fill: #c0c0c0"/>
     <use xlink:href="#mdfe7df0741" x="176.521088" y="162.470774" style="fill: #c0c0c0"/>
     <use xlink:href="#mdfe7df0741" x="183.746363" y="155.022732" style="fill: #c0c0c0"/>
     <use xlink:href="#mdfe7df0741" x="190.971639" y="155.018582" style="fill: #c0c0c0"/>
     <use xlink:href="#mdfe7df0741" x="198.196914" y="155.01693" style="fill: #c0c0c0"/>
     <use xlink:href="#mdfe7df0741" x="205.422189" y="133.409831" style="fill: #c0c0c0"/>
     <use xlink:href="#mdfe7df0741" x="212.647464" y="131.846971" style="fill: #c0c0c0"/>
     <use xlink:href="#mdfe7df0741" x="219.87274" y="131.032025" style="fill: #c0c0c0"/>
     <use xlink:href="#mdfe7df0741" x="227.098015" y="128.463302" style="fill: #c0c0c0"/>
     <use xlink:href="#mdfe7df0741" x="234.32329" y="128.435633" style="fill: #c0c0c0"/>
     <use xlink:href="#mdfe7df0741" x="241.548565" y="128.200892" style="fill: #c0c0c0"/>
     <use xlink:href="#mdfe7df0741" x="248.773841" y="104.430288" style="fill: #c0c0c0"/>
     <use xlink:href="#mdfe7df0741" x="255.999116" y="102.39982" style="fill: #c0c0c0"/>
     <use xlink:href="#mdfe7df0741" x="263.224391" y="98.230214" style="fill: #c0c0c0"/>
     <use xlink:href="#mdfe7df0741" x="270.449666" y="91.042575" style="fill: #c0c0c0"/>
     <use xlink:href="#mdfe7df0741" x="277.674942" y="57.892891" style="fill: #c0c0c0"/>
     <use xlink:href="#mdfe7df0741" x="284.900217" y="12.494704" style="fill: #c0c0c0"/>
    </g>
   </g>
   <g id="line2d_24">
    <path d="M 169.295813 162.001202 
L 176.521088 171.573698 
L 183.746363 163.344449 
L 190.971639 163.361631 
L 198.196914 163.302053 
L 205.422189 142.941939 
L 212.647464 141.227211 
L 219.87274 141.662107 
L 227.098015 122.929876 
L 234.32329 135.565391 
L 241.548565 135.379695 
L 248.773841 100.418843 
L 255.999116 97.976907 
L 263.224391 98.063217 
L 270.449666 96.891161 
L 277.674942 61.772506 
L 284.900217 12.737835 
" clip-path="url(#p26c8d9a668)" style="fill: none; stroke-dasharray: 5.55,2.4; stroke-dashoffset: 0; stroke: #bfe5da; stroke-width: 1.5"/>
    <g clip-path="url(#p26c8d9a668)">
     <use xlink:href="#m1af7cdc18a" x="169.295813" y="162.001202" style="fill: #bfe5da"/>
     <use xlink:href="#m1af7cdc18a" x="176.521088" y="171.573698" style="fill: #bfe5da"/>
     <use xlink:href="#m1af7cdc18a" x="183.746363" y="163.344449" style="fill: #bfe5da"/>
     <use xlink:href="#m1af7cdc18a" x="190.971639" y="163.361631" style="fill: #bfe5da"/>
     <use xlink:href="#m1af7cdc18a" x="198.196914" y="163.302053" style="fill: #bfe5da"/>
     <use xlink:href="#m1af7cdc18a" x="205.422189" y="142.941939" style="fill: #bfe5da"/>
     <use xlink:href="#m1af7cdc18a" x="212.647464" y="141.227211" style="fill: #bfe5da"/>
     <use xlink:href="#m1af7cdc18a" x="219.87274" y="141.662107" style="fill: #bfe5da"/>
     <use xlink:href="#m1af7cdc18a" x="227.098015" y="122.929876" style="fill: #bfe5da"/>
     <use xlink:href="#m1af7cdc18a" x="234.32329" y="135.565391" style="fill: #bfe5da"/>
     <use xlink:href="#m1af7cdc18a" x="241.548565" y="135.379695" style="fill: #bfe5da"/>
     <use xlink:href="#m1af7cdc18a" x="248.773841" y="100.418843" style="fill: #bfe5da"/>
     <use xlink:href="#m1af7cdc18a" x="255.999116" y="97.976907" style="fill: #bfe5da"/>
     <use xlink:href="#m1af7cdc18a" x="263.224391" y="98.063217" style="fill: #bfe5da"/>
     <use xlink:href="#m1af7cdc18a" x="270.449666" y="96.891161" style="fill: #bfe5da"/>
     <use xlink:href="#m1af7cdc18a" x="277.674942" y="61.772506" style="fill: #bfe5da"/>
     <use xlink:href="#m1af7cdc18a" x="284.900217" y="12.737835" style="fill: #bfe5da"/>
    </g>
   </g>
   <g id="matplotlib.axis_3">
    <g id="text_15">
     <!-- 5mer Isomers -->
     <g style="fill: #191919" transform="translate(204.976875 247.37476) scale(0.08 -0.08)">
      <defs>
       <path id="Roboto-Bold-35" d="M 1166 2063 
L 447 2238 
L 706 4550 
L 3256 4550 
L 3256 3800 
L 1450 3800 
L 1338 2819 
Q 1650 2991 2019 2991 
Q 2681 2991 3043 2587 
Q 3406 2184 3406 1463 
Q 3406 856 3031 396 
Q 2656 -63 1872 -63 
Q 1281 -63 814 287 
Q 347 638 331 1269 
L 1225 1269 
Q 1284 666 1866 666 
Q 2206 666 2354 911 
Q 2503 1156 2503 1513 
Q 2503 1872 2325 2092 
Q 2147 2313 1772 2313 
Q 1525 2313 1390 2233 
Q 1256 2153 1166 2063 
z
" transform="scale(0.015625)"/>
      </defs>
      <use xlink:href="#Roboto-Bold-35"/>
      <use xlink:href="#Roboto-Bold-6d" x="57.373047"/>
      <use xlink:href="#Roboto-Bold-65" x="143.945312"/>
      <use xlink:href="#Roboto-Bold-72" x="197.998047"/>
      <use xlink:href="#Roboto-Bold-20" x="234.521484"/>
      <use xlink:href="#Roboto-Bold-49" x="259.423828"/>
      <use xlink:href="#Roboto-Bold-73" x="288.623047"/>
      <use xlink:href="#Roboto-Bold-6f" x="340.087891"/>
      <use xlink:href="#Roboto-Bold-6d" x="396.630859"/>
      <use xlink:href="#Roboto-Bold-65" x="483.203125"/>
      <use xlink:href="#Roboto-Bold-72" x="537.255859"/>
      <use xlink:href="#Roboto-Bold-73" x="573.779297"/>
     </g>
    </g>
   </g>
   <g id="matplotlib.axis_4">
    <g id="ytick_17">
     <g id="line2d_25">
      <g>
       <use xlink:href="#me0f07f2e06" x="169.295813" y="233.87476" style="fill: #c2c1c1; stroke: #c2c1c1; stroke-width: 0.8"/>
      </g>
     </g>
     <g id="text_16">
      <!-- −1 -->
      <g style="fill: #191919" transform="translate(154.359563 236.49976) scale(0.07 -0.07)">
       <defs>
        <path id="Roboto-Regular-2212" d="M 3134 2509 
L 3134 2034 
L 525 2034 
L 525 2509 
L 3134 2509 
z
" transform="scale(0.015625)"/>
       </defs>
       <use xlink:href="#Roboto-Regular-2212"/>
       <use xlink:href="#Roboto-Regular-31" x="57.177734"/>
      </g>
     </g>
    </g>
    <g id="ytick_18">
     <g id="line2d_26">
      <g>
       <use xlink:href="#me0f07f2e06" x="169.295813" y="162.756078" style="fill: #c2c1c1; stroke: #c2c1c1; stroke-width: 0.8"/>
      </g>
     </g>
     <g id="text_17">
      <!-- 0 -->
      <g style="fill: #191919" transform="translate(158.361594 165.381078) scale(0.07 -0.07)">
       <use xlink:href="#Roboto-Regular-30"/>
      </g>
     </g>
    </g>
    <g id="ytick_19">
     <g id="line2d_27">
      <g>
       <use xlink:href="#me0f07f2e06" x="169.295813" y="91.637397" style="fill: #c2c1c1; stroke: #c2c1c1; stroke-width: 0.8"/>
      </g>
     </g>
     <g id="text_18">
      <!-- 1 -->
      <g style="fill: #191919" transform="translate(158.361594 94.262397) scale(0.07 -0.07)">
       <use xlink:href="#Roboto-Regular-31"/>
      </g>
     </g>
    </g>
    <g id="ytick_20">
     <g id="line2d_28">
      <g>
       <use xlink:href="#me0f07f2e06" x="169.295813" y="20.518715" style="fill: #c2c1c1; stroke: #c2c1c1; stroke-width: 0.8"/>
      </g>
     </g>
     <g id="text_19">
      <!-- 2 -->
      <g style="fill: #191919" transform="translate(158.361594 23.143715) scale(0.07 -0.07)">
       <use xlink:href="#Roboto-Regular-32"/>
      </g>
     </g>
    </g>
    <g id="ytick_21">
     <g id="line2d_29">
      <g>
       <use xlink:href="#md3ced2c02f" x="169.295813" y="198.315419" style="fill: #c2c1c1; stroke: #c2c1c1; stroke-width: 0.6"/>
      </g>
     </g>
    </g>
    <g id="ytick_22">
     <g id="line2d_30">
      <g>
       <use xlink:href="#md3ced2c02f" x="169.295813" y="127.196738" style="fill: #c2c1c1; stroke: #c2c1c1; stroke-width: 0.6"/>
      </g>
     </g>
    </g>
    <g id="ytick_23">
     <g id="line2d_31">
      <g>
       <use xlink:href="#md3ced2c02f" x="169.295813" y="56.078056" style="fill: #c2c1c1; stroke: #c2c1c1; stroke-width: 0.6"/>
      </g>
     </g>
    </g>
   </g>
   <g id="line2d_32">
    <path d="M 169.295813 202.383975 
L 176.521088 163.057257 
L 183.746363 143.65967 
L 190.971639 143.651269 
L 198.196914 143.253994 
L 205.422189 131.97769 
L 212.647464 131.759446 
L 219.87274 112.33037 
L 227.098015 180.55538 
L 234.32329 136.955203 
L 241.548565 135.834008 
L 248.773841 177.231089 
L 255.999116 185.355265 
L 263.224391 143.019219 
L 270.449666 93.081575 
L 277.674942 53.763947 
L 284.900217 31.352429 
" clip-path="url(#p26c8d9a668)" style="fill: none; stroke: #61bfa3; stroke-width: 1.5; stroke-linecap: square"/>
    <g clip-path="url(#p26c8d9a668)">
     <use xlink:href="#ma3f03cdb71" x="169.295813" y="202.383975" style="fill: #61bfa3"/>
     <use xlink:href="#ma3f03cdb71" x="176.521088" y="163.057257" style="fill: #61bfa3"/>
     <use xlink:href="#ma3f03cdb71" x="183.746363" y="143.65967" style="fill: #61bfa3"/>
     <use xlink:href="#ma3f03cdb71" x="190.971639" y="143.651269" style="fill: #61bfa3"/>
     <use xlink:href="#ma3f03cdb71" x="198.196914" y="143.253994" style="fill: #61bfa3"/>
     <use xlink:href="#ma3f03cdb71" x="205.422189" y="131.97769" style="fill: #61bfa3"/>
     <use xlink:href="#ma3f03cdb71" x="212.647464" y="131.759446" style="fill: #61bfa3"/>
     <use xlink:href="#ma3f03cdb71" x="219.87274" y="112.33037" style="fill: #61bfa3"/>
     <use xlink:href="#ma3f03cdb71" x="227.098015" y="180.55538" style="fill: #61bfa3"/>
     <use xlink:href="#ma3f03cdb71" x="234.32329" y="136.955203" style="fill: #61bfa3"/>
     <use xlink:href="#ma3f03cdb71" x="241.548565" y="135.834008" style="fill: #61bfa3"/>
     <use xlink:href="#ma3f03cdb71" x="248.773841" y="177.231089" style="fill: #61bfa3"/>
     <use xlink:href="#ma3f03cdb71" x="255.999116" y="185.355265" style="fill: #61bfa3"/>
     <use xlink:href="#ma3f03cdb71" x="263.224391" y="143.019219" style="fill: #61bfa3"/>
     <use xlink:href="#ma3f03cdb71" x="270.449666" y="93.081575" style="fill: #61bfa3"/>
     <use xlink:href="#ma3f03cdb71" x="277.674942" y="53.763947" style="fill: #61bfa3"/>
     <use xlink:href="#ma3f03cdb71" x="284.900217" y="31.352429" style="fill: #61bfa3"/>
    </g>
   </g>
   <g id="patch_8">
    <path d="M 169.295813 233.87476 
L 169.295813 3.00024 
" style="fill: none; stroke: #c2c1c1; stroke-width: 0.8; stroke-linejoin: miter; stroke-linecap: square"/>
   </g>
   <g id="patch_9">
    <path d="M 290.680437 233.87476 
L 290.680437 3.00024 
" style="fill: none; stroke: #c2c1c1; stroke-width: 0.8; stroke-linejoin: miter; stroke-linecap: square"/>
   </g>
   <g id="patch_10">
    <path d="M 169.295813 233.87476 
L 290.680437 233.87476 
" style="fill: none; stroke: #c2c1c1; stroke-width: 0.8; stroke-linejoin: miter; stroke-linecap: square"/>
   </g>
   <g id="patch_11">
    <path d="M 169.295813 3.00024 
L 290.680437 3.00024 
" style="fill: none; stroke: #c2c1c1; stroke-width: 0.8; stroke-linejoin: miter; stroke-linecap: square"/>
   </g>
   <g id="text_20">
    <!-- B -->
    <g transform="translate(177.914121 15.698339) scale(0.096 -0.096)">
     <defs>
      <path id="Roboto-Bold-42" d="M 3788 1341 
Q 3788 684 3369 345 
Q 2950 6 2175 0 
L 406 0 
L 406 4550 
L 2003 4550 
Q 2794 4550 3241 4247 
Q 3688 3944 3688 3306 
Q 3688 2997 3531 2737 
Q 3375 2478 3038 2344 
Q 3438 2244 3613 1956 
Q 3788 1669 3788 1341 
z
M 1347 3791 
L 1347 2647 
L 2003 2647 
Q 2747 2647 2747 3209 
Q 2747 3778 2034 3791 
L 1347 3791 
z
M 2850 1350 
Q 2850 1963 2231 1984 
L 1347 1984 
L 1347 756 
L 2147 756 
Q 2506 756 2678 925 
Q 2850 1094 2850 1350 
z
" transform="scale(0.015625)"/>
     </defs>
     <use xlink:href="#Roboto-Bold-42"/>
    </g>
   </g>
  </g>
  <g id="axes_3">
   <g id="patch_12">
    <path d="M 307.615136 233.87476 
L 428.99976 233.87476 
L 428.99976 3.00024 
L 307.615136 3.00024 
z
" style="fill: #ffffff"/>
   </g>
   <g id="line2d_33">
    <path d="M 307.615136 159.344476 
L 313.699578 158.601308 
L 319.78402 158.577794 
L 325.868463 150.308862 
L 331.952905 149.082982 
L 338.037347 133.857608 
L 344.12179 132.687403 
L 350.206232 132.685919 
L 356.290674 121.434003 
L 362.375117 120.162474 
L 368.459559 105.913642 
L 374.544001 84.914479 
L 380.628444 82.013574 
L 386.712886 78.153965 
L 392.797328 68.431482 
L 398.881771 53.350112 
L 404.966213 43.610025 
L 411.050655 34.379446 
L 417.135097 30.406639 
L 423.21954 15.409535 
" clip-path="url(#p4e7f467de6)" style="fill: none; stroke-dasharray: 5.55,2.4; stroke-dashoffset: 0; stroke: #c0c0c0; stroke-width: 1.5"/>
    <g clip-path="url(#p4e7f467de6)">
     <use xlink:href="#mdfe7df0741" x="307.615136" y="159.344476" style="fill: #c0c0c0"/>
     <use xlink:href="#mdfe7df0741" x="313.699578" y="158.601308" style="fill: #c0c0c0"/>
     <use xlink:href="#mdfe7df0741" x="319.78402" y="158.577794" style="fill: #c0c0c0"/>
     <use xlink:href="#mdfe7df0741" x="325.868463" y="150.308862" style="fill: #c0c0c0"/>
     <use xlink:href="#mdfe7df0741" x="331.952905" y="149.082982" style="fill: #c0c0c0"/>
     <use xlink:href="#mdfe7df0741" x="338.037347" y="133.857608" style="fill: #c0c0c0"/>
     <use xlink:href="#mdfe7df0741" x="344.12179" y="132.687403" style="fill: #c0c0c0"/>
     <use xlink:href="#mdfe7df0741" x="350.206232" y="132.685919" style="fill: #c0c0c0"/>
     <use xlink:href="#mdfe7df0741" x="356.290674" y="121.434003" style="fill: #c0c0c0"/>
     <use xlink:href="#mdfe7df0741" x="362.375117" y="120.162474" style="fill: #c0c0c0"/>
     <use xlink:href="#mdfe7df0741" x="368.459559" y="105.913642" style="fill: #c0c0c0"/>
     <use xlink:href="#mdfe7df0741" x="374.544001" y="84.914479" style="fill: #c0c0c0"/>
     <use xlink:href="#mdfe7df0741" x="380.628444" y="82.013574" style="fill: #c0c0c0"/>
     <use xlink:href="#mdfe7df0741" x="386.712886" y="78.153965" style="fill: #c0c0c0"/>
     <use xlink:href="#mdfe7df0741" x="392.797328" y="68.431482" style="fill: #c0c0c0"/>
     <use xlink:href="#mdfe7df0741" x="398.881771" y="53.350112" style="fill: #c0c0c0"/>
     <use xlink:href="#mdfe7df0741" x="404.966213" y="43.610025" style="fill: #c0c0c0"/>
     <use xlink:href="#mdfe7df0741" x="411.050655" y="34.379446" style="fill: #c0c0c0"/>
     <use xlink:href="#mdfe7df0741" x="417.135097" y="30.406639" style="fill: #c0c0c0"/>
     <use xlink:href="#mdfe7df0741" x="423.21954" y="15.409535" style="fill: #c0c0c0"/>
    </g>
   </g>
   <g id="line2d_34">
    <path d="M 307.615136 164.228829 
L 313.699578 172.173974 
L 319.78402 163.502561 
L 325.868463 145.756993 
L 331.952905 144.711314 
L 338.037347 139.601555 
L 344.12179 142.577743 
L 350.206232 142.579097 
L 356.290674 129.474768 
L 362.375117 125.51545 
L 368.459559 107.835322 
L 374.544001 93.310254 
L 380.628444 90.052257 
L 386.712886 79.790945 
L 392.797328 73.711519 
L 398.881771 57.58111 
L 404.966213 44.913583 
L 411.050655 30.390624 
L 417.135097 40.398484 
L 423.21954 22.530917 
" clip-path="url(#p4e7f467de6)" style="fill: none; stroke-dasharray: 5.55,2.4; stroke-dashoffset: 0; stroke: #bfe5da; stroke-width: 1.5"/>
    <g clip-path="url(#p4e7f467de6)">
     <use xlink:href="#m1af7cdc18a" x="307.615136" y="164.228829" style="fill: #bfe5da"/>
     <use xlink:href="#m1af7cdc18a" x="313.699578" y="172.173974" style="fill: #bfe5da"/>
     <use xlink:href="#m1af7cdc18a" x="319.78402" y="163.502561" style="fill: #bfe5da"/>
     <use xlink:href="#m1af7cdc18a" x="325.868463" y="145.756993" style="fill: #bfe5da"/>
     <use xlink:href="#m1af7cdc18a" x="331.952905" y="144.711314" style="fill: #bfe5da"/>
     <use xlink:href="#m1af7cdc18a" x="338.037347" y="139.601555" style="fill: #bfe5da"/>
     <use xlink:href="#m1af7cdc18a" x="344.12179" y="142.577743" style="fill: #bfe5da"/>
     <use xlink:href="#m1af7cdc18a" x="350.206232" y="142.579097" style="fill: #bfe5da"/>
     <use xlink:href="#m1af7cdc18a" x="356.290674" y="129.474768" style="fill: #bfe5da"/>
     <use xlink:href="#m1af7cdc18a" x="362.375117" y="125.51545" style="fill: #bfe5da"/>
     <use xlink:href="#m1af7cdc18a" x="368.459559" y="107.835322" style="fill: #bfe5da"/>
     <use xlink:href="#m1af7cdc18a" x="374.544001" y="93.310254" style="fill: #bfe5da"/>
     <use xlink:href="#m1af7cdc18a" x="380.628444" y="90.052257" style="fill: #bfe5da"/>
     <use xlink:href="#m1af7cdc18a" x="386.712886" y="79.790945" style="fill: #bfe5da"/>
     <use xlink:href="#m1af7cdc18a" x="392.797328" y="73.711519" style="fill: #bfe5da"/>
     <use xlink:href="#m1af7cdc18a" x="398.881771" y="57.58111" style="fill: #bfe5da"/>
     <use xlink:href="#m1af7cdc18a" x="404.966213" y="44.913583" style="fill: #bfe5da"/>
     <use xlink:href="#m1af7cdc18a" x="411.050655" y="30.390624" style="fill: #bfe5da"/>
     <use xlink:href="#m1af7cdc18a" x="417.135097" y="40.398484" style="fill: #bfe5da"/>
     <use xlink:href="#m1af7cdc18a" x="423.21954" y="22.530917" style="fill: #bfe5da"/>
    </g>
   </g>
   <g id="matplotlib.axis_5">
    <g id="text_21">
     <!-- 6mer Isomers -->
     <g style="fill: #191919" transform="translate(343.296198 247.37476) scale(0.08 -0.08)">
      <defs>
       <path id="Roboto-Bold-36" d="M 3450 1500 
Q 3450 838 3033 387 
Q 2616 -63 1916 -63 
Q 1188 -63 752 443 
Q 316 950 316 1750 
L 316 2097 
Q 316 3200 925 3898 
Q 1534 4597 2634 4597 
L 2763 4597 
L 2763 3853 
L 2672 3853 
Q 2050 3844 1688 3538 
Q 1313 3219 1238 2675 
Q 1603 3047 2156 3047 
Q 2800 3047 3125 2589 
Q 3450 2131 3450 1500 
z
M 1219 1631 
Q 1219 1150 1408 909 
Q 1597 669 1900 669 
Q 2194 669 2370 901 
Q 2547 1134 2547 1491 
Q 2547 1853 2370 2087 
Q 2194 2322 1881 2322 
Q 1641 2322 1469 2198 
Q 1297 2075 1219 1903 
L 1219 1631 
z
" transform="scale(0.015625)"/>
      </defs>
      <use xlink:href="#Roboto-Bold-36"/>
      <use xlink:href="#Roboto-Bold-6d" x="57.373047"/>
      <use xlink:href="#Roboto-Bold-65" x="143.945312"/>
      <use xlink:href="#Roboto-Bold-72" x="197.998047"/>
      <use xlink:href="#Roboto-Bold-20" x="234.521484"/>
      <use xlink:href="#Roboto-Bold-49" x="259.423828"/>
      <use xlink:href="#Roboto-Bold-73" x="288.623047"/>
      <use xlink:href="#Roboto-Bold-6f" x="340.087891"/>
      <use xlink:href="#Roboto-Bold-6d" x="396.630859"/>
      <use xlink:href="#Roboto-Bold-65" x="483.203125"/>
      <use xlink:href="#Roboto-Bold-72" x="537.255859"/>
      <use xlink:href="#Roboto-Bold-73" x="573.779297"/>
     </g>
    </g>
   </g>
   <g id="matplotlib.axis_6">
    <g id="ytick_24">
     <g id="line2d_35">
      <g>
       <use xlink:href="#me0f07f2e06" x="307.615136" y="159.344476" style="fill: #c2c1c1; stroke: #c2c1c1; stroke-width: 0.8"/>
      </g>
     </g>
     <g id="text_22">
      <!-- 0 -->
      <g style="fill: #191919" transform="translate(296.680917 161.969476) scale(0.07 -0.07)">
       <use xlink:href="#Roboto-Regular-30"/>
      </g>
     </g>
    </g>
    <g id="ytick_25">
     <g id="line2d_36">
      <g>
       <use xlink:href="#me0f07f2e06" x="307.615136" y="117.8464" style="fill: #c2c1c1; stroke: #c2c1c1; stroke-width: 0.8"/>
      </g>
     </g>
     <g id="text_23">
      <!-- 1 -->
      <g style="fill: #191919" transform="translate(296.680917 120.4714) scale(0.07 -0.07)">
       <use xlink:href="#Roboto-Regular-31"/>
      </g>
     </g>
    </g>
    <g id="ytick_26">
     <g id="line2d_37">
      <g>
       <use xlink:href="#me0f07f2e06" x="307.615136" y="76.348325" style="fill: #c2c1c1; stroke: #c2c1c1; stroke-width: 0.8"/>
      </g>
     </g>
     <g id="text_24">
      <!-- 2 -->
      <g style="fill: #191919" transform="translate(296.680917 78.973325) scale(0.07 -0.07)">
       <use xlink:href="#Roboto-Regular-32"/>
      </g>
     </g>
    </g>
    <g id="ytick_27">
     <g id="line2d_38">
      <g>
       <use xlink:href="#me0f07f2e06" x="307.615136" y="34.850249" style="fill: #c2c1c1; stroke: #c2c1c1; stroke-width: 0.8"/>
      </g>
     </g>
     <g id="text_25">
      <!-- 3 -->
      <g style="fill: #191919" transform="translate(296.680917 37.475249) scale(0.07 -0.07)">
       <use xlink:href="#Roboto-Regular-33"/>
      </g>
     </g>
    </g>
    <g id="ytick_28">
     <g id="line2d_39">
      <g>
       <use xlink:href="#md3ced2c02f" x="307.615136" y="138.595438" style="fill: #c2c1c1; stroke: #c2c1c1; stroke-width: 0.6"/>
      </g>
     </g>
    </g>
    <g id="ytick_29">
     <g id="line2d_40">
      <g>
       <use xlink:href="#md3ced2c02f" x="307.615136" y="97.097362" style="fill: #c2c1c1; stroke: #c2c1c1; stroke-width: 0.6"/>
      </g>
     </g>
    </g>
    <g id="ytick_30">
     <g id="line2d_41">
      <g>
       <use xlink:href="#md3ced2c02f" x="307.615136" y="55.599287" style="fill: #c2c1c1; stroke: #c2c1c1; stroke-width: 0.6"/>
      </g>
     </g>
    </g>
    <g id="ytick_31">
     <g id="line2d_42">
      <g>
       <use xlink:href="#md3ced2c02f" x="307.615136" y="14.101211" style="fill: #c2c1c1; stroke: #c2c1c1; stroke-width: 0.6"/>
      </g>
     </g>
    </g>
   </g>
   <g id="line2d_43">
    <path d="M 307.615136 180.402085 
L 313.699578 153.689952 
L 319.78402 179.351569 
L 325.868463 221.176476 
L 331.952905 223.380464 
L 338.037347 139.058305 
L 344.12179 131.768169 
L 350.206232 131.533939 
L 356.290674 130.311344 
L 362.375117 134.733806 
L 368.459559 131.305669 
L 374.544001 91.562641 
L 380.628444 79.016594 
L 386.712886 106.902361 
L 392.797328 69.811042 
L 398.881771 67.168379 
L 404.966213 54.930457 
L 411.050655 38.306974 
L 417.135097 24.131519 
L 423.21954 13.494536 
" clip-path="url(#p4e7f467de6)" style="fill: none; stroke: #61bfa3; stroke-width: 1.5; stroke-linecap: square"/>
    <g clip-path="url(#p4e7f467de6)">
     <use xlink:href="#ma3f03cdb71" x="307.615136" y="180.402085" style="fill: #61bfa3"/>
     <use xlink:href="#ma3f03cdb71" x="313.699578" y="153.689952" style="fill: #61bfa3"/>
     <use xlink:href="#ma3f03cdb71" x="319.78402" y="179.351569" style="fill: #61bfa3"/>
     <use xlink:href="#ma3f03cdb71" x="325.868463" y="221.176476" style="fill: #61bfa3"/>
     <use xlink:href="#ma3f03cdb71" x="331.952905" y="223.380464" style="fill: #61bfa3"/>
     <use xlink:href="#ma3f03cdb71" x="338.037347" y="139.058305" style="fill: #61bfa3"/>
     <use xlink:href="#ma3f03cdb71" x="344.12179" y="131.768169" style="fill: #61bfa3"/>
     <use xlink:href="#ma3f03cdb71" x="350.206232" y="131.533939" style="fill: #61bfa3"/>
     <use xlink:href="#ma3f03cdb71" x="356.290674" y="130.311344" style="fill: #61bfa3"/>
     <use xlink:href="#ma3f03cdb71" x="362.375117" y="134.733806" style="fill: #61bfa3"/>
     <use xlink:href="#ma3f03cdb71" x="368.459559" y="131.305669" style="fill: #61bfa3"/>
     <use xlink:href="#ma3f03cdb71" x="374.544001" y="91.562641" style="fill: #61bfa3"/>
     <use xlink:href="#ma3f03cdb71" x="380.628444" y="79.016594" style="fill: #61bfa3"/>
     <use xlink:href="#ma3f03cdb71" x="386.712886" y="106.902361" style="fill: #61bfa3"/>
     <use xlink:href="#ma3f03cdb71" x="392.797328" y="69.811042" style="fill: #61bfa3"/>
     <use xlink:href="#ma3f03cdb71" x="398.881771" y="67.168379" style="fill: #61bfa3"/>
     <use xlink:href="#ma3f03cdb71" x="404.966213" y="54.930457" style="fill: #61bfa3"/>
     <use xlink:href="#ma3f03cdb71" x="411.050655" y="38.306974" style="fill: #61bfa3"/>
     <use xlink:href="#ma3f03cdb71" x="417.135097" y="24.131519" style="fill: #61bfa3"/>
     <use xlink:href="#ma3f03cdb71" x="423.21954" y="13.494536" style="fill: #61bfa3"/>
    </g>
   </g>
   <g id="patch_13">
    <path d="M 307.615136 233.87476 
L 307.615136 3.00024 
" style="fill: none; stroke: #c2c1c1; stroke-width: 0.8; stroke-linejoin: miter; stroke-linecap: square"/>
   </g>
   <g id="patch_14">
    <path d="M 428.99976 233.87476 
L 428.99976 3.00024 
" style="fill: none; stroke: #c2c1c1; stroke-width: 0.8; stroke-linejoin: miter; stroke-linecap: square"/>
   </g>
   <g id="patch_15">
    <path d="M 307.615136 233.87476 
L 428.99976 233.87476 
" style="fill: none; stroke: #c2c1c1; stroke-width: 0.8; stroke-linejoin: miter; stroke-linecap: square"/>
   </g>
   <g id="patch_16">
    <path d="M 307.615136 3.00024 
L 428.99976 3.00024 
" style="fill: none; stroke: #c2c1c1; stroke-width: 0.8; stroke-linejoin: miter; stroke-linecap: square"/>
   </g>
   <g id="text_26">
    <!-- C -->
    <g transform="translate(316.233444 15.698339) scale(0.096 -0.096)">
     <defs>
      <path id="Roboto-Bold-43" d="M 3044 1516 
L 3981 1516 
Q 3934 822 3461 379 
Q 2988 -63 2150 -63 
Q 1275 -63 772 526 
Q 269 1116 269 2125 
L 269 2422 
Q 269 3431 784 4023 
Q 1300 4616 2159 4616 
Q 3013 4616 3466 4161 
Q 3919 3706 3984 3006 
L 3047 3006 
Q 3016 3413 2820 3630 
Q 2625 3847 2159 3847 
Q 1247 3847 1222 2500 
L 1222 2125 
Q 1222 1419 1436 1062 
Q 1650 706 2150 706 
Q 2594 706 2801 907 
Q 3009 1109 3044 1516 
z
" transform="scale(0.015625)"/>
     </defs>
     <use xlink:href="#Roboto-Bold-43"/>
    </g>
   </g>
  </g>
 </g>
 <defs>
  <clipPath id="pd5a8f17ad2">
   <rect x="26.974459" y="3.00024" width="121.384624" height="230.87452"/>
  </clipPath>
  <clipPath id="p26c8d9a668">
   <rect x="169.295813" y="3.00024" width="121.384624" height="230.87452"/>
  </clipPath>
  <clipPath id="p4e7f467de6">
   <rect x="307.615136" y="3.00024" width="121.384624" height="230.87452"/>
  </clipPath>
 </defs>
</svg>
