<?xml version="1.0" encoding="utf-8" standalone="no"?>
<!DOCTYPE svg PUBLIC "-//W3C//DTD SVG 1.1//EN"
  "http://www.w3.org/Graphics/SVG/1.1/DTD/svg11.dtd">
<svg height="432pt" version="1.1" viewBox="0 0 432 432" width="432pt" xmlns="http://www.w3.org/2000/svg" xmlns:xlink="http://www.w3.org/1999/xlink">
 <metadata>
  <rdf:RDF xmlns:cc="http://creativecommons.org/ns#" xmlns:dc="http://purl.org/dc/elements/1.1/" xmlns:rdf="http://www.w3.org/1999/02/22-rdf-syntax-ns#">
   <cc:Work>
    <dc:type rdf:resource="http://purl.org/dc/dcmitype/StillImage"/>
    <dc:date>2021-11-05T11:23:34.717344</dc:date>
    <dc:format>image/svg+xml</dc:format>
    <dc:creator>
     <cc:Agent>
      <dc:title>Matplotlib v3.4.3, https://matplotlib.org/</dc:title>
     </cc:Agent>
    </dc:creator>
   </cc:Work>
  </rdf:RDF>
 </metadata>
 <defs>
  <style type="text/css">*{stroke-linecap:butt;stroke-linejoin:round;}</style>
 </defs>
 <g id="figure_1">
  <g id="patch_1">
   <path d="M 0 432 
L 432 432 
L 432 0 
L 0 0 
z
" style="fill:#ffffff;"/>
  </g>
  <g id="axes_1">
   <g id="patch_2">
    <path d="M 61.885865 383.15851 
L 412.987281 383.15851 
L 412.987281 3.00024 
L 61.885865 3.00024 
z
" style="fill:#ffffff;"/>
   </g>
   <g id="matplotlib.axis_1">
    <g id="xtick_1">
     <g id="line2d_1">
      <defs>
       <path d="M 0 0 
L 0 3.5 
" id="mf717559965" style="stroke:#000000;stroke-width:0.8;"/>
      </defs>
      <g>
       <use style="stroke:#000000;stroke-width:0.8;" x="61.885865" xlink:href="#mf717559965" y="383.15851"/>
      </g>
     </g>
     <g id="text_1">
      <!-- 0 -->
      <g transform="translate(56.159615 403.835697)scale(0.18 -0.18)">
       <defs>
        <path d="M 2034 4250 
Q 1547 4250 1301 3770 
Q 1056 3291 1056 2328 
Q 1056 1369 1301 889 
Q 1547 409 2034 409 
Q 2525 409 2770 889 
Q 3016 1369 3016 2328 
Q 3016 3291 2770 3770 
Q 2525 4250 2034 4250 
z
M 2034 4750 
Q 2819 4750 3233 4129 
Q 3647 3509 3647 2328 
Q 3647 1150 3233 529 
Q 2819 -91 2034 -91 
Q 1250 -91 836 529 
Q 422 1150 422 2328 
Q 422 3509 836 4129 
Q 1250 4750 2034 4750 
z
" id="DejaVuSans-30" transform="scale(0.015625)"/>
       </defs>
       <use xlink:href="#DejaVuSans-30"/>
      </g>
     </g>
    </g>
    <g id="xtick_2">
     <g id="line2d_2">
      <g>
       <use style="stroke:#000000;stroke-width:0.8;" x="178.530854" xlink:href="#mf717559965" y="383.15851"/>
      </g>
     </g>
     <g id="text_2">
      <!-- 100 -->
      <g transform="translate(161.352104 403.835697)scale(0.18 -0.18)">
       <defs>
        <path d="M 794 531 
L 1825 531 
L 1825 4091 
L 703 3866 
L 703 4441 
L 1819 4666 
L 2450 4666 
L 2450 531 
L 3481 531 
L 3481 0 
L 794 0 
L 794 531 
z
" id="DejaVuSans-31" transform="scale(0.015625)"/>
       </defs>
       <use xlink:href="#DejaVuSans-31"/>
       <use x="63.623047" xlink:href="#DejaVuSans-30"/>
       <use x="127.246094" xlink:href="#DejaVuSans-30"/>
      </g>
     </g>
    </g>
    <g id="xtick_3">
     <g id="line2d_3">
      <g>
       <use style="stroke:#000000;stroke-width:0.8;" x="295.175842" xlink:href="#mf717559965" y="383.15851"/>
      </g>
     </g>
     <g id="text_3">
      <!-- 200 -->
      <g transform="translate(277.997092 403.835697)scale(0.18 -0.18)">
       <defs>
        <path d="M 1228 531 
L 3431 531 
L 3431 0 
L 469 0 
L 469 531 
Q 828 903 1448 1529 
Q 2069 2156 2228 2338 
Q 2531 2678 2651 2914 
Q 2772 3150 2772 3378 
Q 2772 3750 2511 3984 
Q 2250 4219 1831 4219 
Q 1534 4219 1204 4116 
Q 875 4013 500 3803 
L 500 4441 
Q 881 4594 1212 4672 
Q 1544 4750 1819 4750 
Q 2544 4750 2975 4387 
Q 3406 4025 3406 3419 
Q 3406 3131 3298 2873 
Q 3191 2616 2906 2266 
Q 2828 2175 2409 1742 
Q 1991 1309 1228 531 
z
" id="DejaVuSans-32" transform="scale(0.015625)"/>
       </defs>
       <use xlink:href="#DejaVuSans-32"/>
       <use x="63.623047" xlink:href="#DejaVuSans-30"/>
       <use x="127.246094" xlink:href="#DejaVuSans-30"/>
      </g>
     </g>
    </g>
    <g id="xtick_4">
     <g id="line2d_4">
      <g>
       <use style="stroke:#000000;stroke-width:0.8;" x="411.820831" xlink:href="#mf717559965" y="383.15851"/>
      </g>
     </g>
     <g id="text_4">
      <!-- 300 -->
      <g transform="translate(394.642081 403.835697)scale(0.18 -0.18)">
       <defs>
        <path d="M 2597 2516 
Q 3050 2419 3304 2112 
Q 3559 1806 3559 1356 
Q 3559 666 3084 287 
Q 2609 -91 1734 -91 
Q 1441 -91 1130 -33 
Q 819 25 488 141 
L 488 750 
Q 750 597 1062 519 
Q 1375 441 1716 441 
Q 2309 441 2620 675 
Q 2931 909 2931 1356 
Q 2931 1769 2642 2001 
Q 2353 2234 1838 2234 
L 1294 2234 
L 1294 2753 
L 1863 2753 
Q 2328 2753 2575 2939 
Q 2822 3125 2822 3475 
Q 2822 3834 2567 4026 
Q 2313 4219 1838 4219 
Q 1578 4219 1281 4162 
Q 984 4106 628 3988 
L 628 4550 
Q 988 4650 1302 4700 
Q 1616 4750 1894 4750 
Q 2613 4750 3031 4423 
Q 3450 4097 3450 3541 
Q 3450 3153 3228 2886 
Q 3006 2619 2597 2516 
z
" id="DejaVuSans-33" transform="scale(0.015625)"/>
       </defs>
       <use xlink:href="#DejaVuSans-33"/>
       <use x="63.623047" xlink:href="#DejaVuSans-30"/>
       <use x="127.246094" xlink:href="#DejaVuSans-30"/>
      </g>
     </g>
    </g>
    <g id="text_5">
     <!-- Time (fs) -->
     <g transform="translate(197.67626 425.256323)scale(0.18 -0.18)">
      <defs>
       <path d="M -19 4666 
L 3928 4666 
L 3928 4134 
L 2272 4134 
L 2272 0 
L 1638 0 
L 1638 4134 
L -19 4134 
L -19 4666 
z
" id="DejaVuSans-54" transform="scale(0.015625)"/>
       <path d="M 603 3500 
L 1178 3500 
L 1178 0 
L 603 0 
L 603 3500 
z
M 603 4863 
L 1178 4863 
L 1178 4134 
L 603 4134 
L 603 4863 
z
" id="DejaVuSans-69" transform="scale(0.015625)"/>
       <path d="M 3328 2828 
Q 3544 3216 3844 3400 
Q 4144 3584 4550 3584 
Q 5097 3584 5394 3201 
Q 5691 2819 5691 2113 
L 5691 0 
L 5113 0 
L 5113 2094 
Q 5113 2597 4934 2840 
Q 4756 3084 4391 3084 
Q 3944 3084 3684 2787 
Q 3425 2491 3425 1978 
L 3425 0 
L 2847 0 
L 2847 2094 
Q 2847 2600 2669 2842 
Q 2491 3084 2119 3084 
Q 1678 3084 1418 2786 
Q 1159 2488 1159 1978 
L 1159 0 
L 581 0 
L 581 3500 
L 1159 3500 
L 1159 2956 
Q 1356 3278 1631 3431 
Q 1906 3584 2284 3584 
Q 2666 3584 2933 3390 
Q 3200 3197 3328 2828 
z
" id="DejaVuSans-6d" transform="scale(0.015625)"/>
       <path d="M 3597 1894 
L 3597 1613 
L 953 1613 
Q 991 1019 1311 708 
Q 1631 397 2203 397 
Q 2534 397 2845 478 
Q 3156 559 3463 722 
L 3463 178 
Q 3153 47 2828 -22 
Q 2503 -91 2169 -91 
Q 1331 -91 842 396 
Q 353 884 353 1716 
Q 353 2575 817 3079 
Q 1281 3584 2069 3584 
Q 2775 3584 3186 3129 
Q 3597 2675 3597 1894 
z
M 3022 2063 
Q 3016 2534 2758 2815 
Q 2500 3097 2075 3097 
Q 1594 3097 1305 2825 
Q 1016 2553 972 2059 
L 3022 2063 
z
" id="DejaVuSans-65" transform="scale(0.015625)"/>
       <path id="DejaVuSans-20" transform="scale(0.015625)"/>
       <path d="M 1984 4856 
Q 1566 4138 1362 3434 
Q 1159 2731 1159 2009 
Q 1159 1288 1364 580 
Q 1569 -128 1984 -844 
L 1484 -844 
Q 1016 -109 783 600 
Q 550 1309 550 2009 
Q 550 2706 781 3412 
Q 1013 4119 1484 4856 
L 1984 4856 
z
" id="DejaVuSans-28" transform="scale(0.015625)"/>
       <path d="M 2375 4863 
L 2375 4384 
L 1825 4384 
Q 1516 4384 1395 4259 
Q 1275 4134 1275 3809 
L 1275 3500 
L 2222 3500 
L 2222 3053 
L 1275 3053 
L 1275 0 
L 697 0 
L 697 3053 
L 147 3053 
L 147 3500 
L 697 3500 
L 697 3744 
Q 697 4328 969 4595 
Q 1241 4863 1831 4863 
L 2375 4863 
z
" id="DejaVuSans-66" transform="scale(0.015625)"/>
       <path d="M 2834 3397 
L 2834 2853 
Q 2591 2978 2328 3040 
Q 2066 3103 1784 3103 
Q 1356 3103 1142 2972 
Q 928 2841 928 2578 
Q 928 2378 1081 2264 
Q 1234 2150 1697 2047 
L 1894 2003 
Q 2506 1872 2764 1633 
Q 3022 1394 3022 966 
Q 3022 478 2636 193 
Q 2250 -91 1575 -91 
Q 1294 -91 989 -36 
Q 684 19 347 128 
L 347 722 
Q 666 556 975 473 
Q 1284 391 1588 391 
Q 1994 391 2212 530 
Q 2431 669 2431 922 
Q 2431 1156 2273 1281 
Q 2116 1406 1581 1522 
L 1381 1569 
Q 847 1681 609 1914 
Q 372 2147 372 2553 
Q 372 3047 722 3315 
Q 1072 3584 1716 3584 
Q 2034 3584 2315 3537 
Q 2597 3491 2834 3397 
z
" id="DejaVuSans-73" transform="scale(0.015625)"/>
       <path d="M 513 4856 
L 1013 4856 
Q 1481 4119 1714 3412 
Q 1947 2706 1947 2009 
Q 1947 1309 1714 600 
Q 1481 -109 1013 -844 
L 513 -844 
Q 928 -128 1133 580 
Q 1338 1288 1338 2009 
Q 1338 2731 1133 3434 
Q 928 4138 513 4856 
z
" id="DejaVuSans-29" transform="scale(0.015625)"/>
      </defs>
      <use xlink:href="#DejaVuSans-54"/>
      <use x="57.958984" xlink:href="#DejaVuSans-69"/>
      <use x="85.742188" xlink:href="#DejaVuSans-6d"/>
      <use x="183.154297" xlink:href="#DejaVuSans-65"/>
      <use x="244.677734" xlink:href="#DejaVuSans-20"/>
      <use x="276.464844" xlink:href="#DejaVuSans-28"/>
      <use x="315.478516" xlink:href="#DejaVuSans-66"/>
      <use x="350.683594" xlink:href="#DejaVuSans-73"/>
      <use x="402.783203" xlink:href="#DejaVuSans-29"/>
     </g>
    </g>
   </g>
   <g id="matplotlib.axis_2">
    <g id="ytick_1">
     <g id="line2d_5">
      <defs>
       <path d="M 0 0 
L -3.5 0 
" id="mc230531b9f" style="stroke:#000000;stroke-width:0.8;"/>
      </defs>
      <g>
       <use style="stroke:#000000;stroke-width:0.8;" x="61.885865" xlink:href="#mc230531b9f" y="365.878589"/>
      </g>
     </g>
     <g id="text_6">
      <!-- 0.0 -->
      <g transform="translate(26.26024 372.717182)scale(0.18 -0.18)">
       <defs>
        <path d="M 684 794 
L 1344 794 
L 1344 0 
L 684 0 
L 684 794 
z
" id="DejaVuSans-2e" transform="scale(0.015625)"/>
       </defs>
       <use xlink:href="#DejaVuSans-30"/>
       <use x="63.623047" xlink:href="#DejaVuSans-2e"/>
       <use x="95.410156" xlink:href="#DejaVuSans-30"/>
      </g>
     </g>
    </g>
    <g id="ytick_2">
     <g id="line2d_6">
      <g>
       <use style="stroke:#000000;stroke-width:0.8;" x="61.885865" xlink:href="#mc230531b9f" y="318.580563"/>
      </g>
     </g>
     <g id="text_7">
      <!-- 0.1 -->
      <g transform="translate(26.26024 325.419157)scale(0.18 -0.18)">
       <use xlink:href="#DejaVuSans-30"/>
       <use x="63.623047" xlink:href="#DejaVuSans-2e"/>
       <use x="95.410156" xlink:href="#DejaVuSans-31"/>
      </g>
     </g>
    </g>
    <g id="ytick_3">
     <g id="line2d_7">
      <g>
       <use style="stroke:#000000;stroke-width:0.8;" x="61.885865" xlink:href="#mc230531b9f" y="271.282538"/>
      </g>
     </g>
     <g id="text_8">
      <!-- 0.2 -->
      <g transform="translate(26.26024 278.121131)scale(0.18 -0.18)">
       <use xlink:href="#DejaVuSans-30"/>
       <use x="63.623047" xlink:href="#DejaVuSans-2e"/>
       <use x="95.410156" xlink:href="#DejaVuSans-32"/>
      </g>
     </g>
    </g>
    <g id="ytick_4">
     <g id="line2d_8">
      <g>
       <use style="stroke:#000000;stroke-width:0.8;" x="61.885865" xlink:href="#mc230531b9f" y="223.984512"/>
      </g>
     </g>
     <g id="text_9">
      <!-- 0.3 -->
      <g transform="translate(26.26024 230.823106)scale(0.18 -0.18)">
       <use xlink:href="#DejaVuSans-30"/>
       <use x="63.623047" xlink:href="#DejaVuSans-2e"/>
       <use x="95.410156" xlink:href="#DejaVuSans-33"/>
      </g>
     </g>
    </g>
    <g id="ytick_5">
     <g id="line2d_9">
      <g>
       <use style="stroke:#000000;stroke-width:0.8;" x="61.885865" xlink:href="#mc230531b9f" y="176.686487"/>
      </g>
     </g>
     <g id="text_10">
      <!-- 0.4 -->
      <g transform="translate(26.26024 183.52508)scale(0.18 -0.18)">
       <defs>
        <path d="M 2419 4116 
L 825 1625 
L 2419 1625 
L 2419 4116 
z
M 2253 4666 
L 3047 4666 
L 3047 1625 
L 3713 1625 
L 3713 1100 
L 3047 1100 
L 3047 0 
L 2419 0 
L 2419 1100 
L 313 1100 
L 313 1709 
L 2253 4666 
z
" id="DejaVuSans-34" transform="scale(0.015625)"/>
       </defs>
       <use xlink:href="#DejaVuSans-30"/>
       <use x="63.623047" xlink:href="#DejaVuSans-2e"/>
       <use x="95.410156" xlink:href="#DejaVuSans-34"/>
      </g>
     </g>
    </g>
    <g id="ytick_6">
     <g id="line2d_10">
      <g>
       <use style="stroke:#000000;stroke-width:0.8;" x="61.885865" xlink:href="#mc230531b9f" y="129.388461"/>
      </g>
     </g>
     <g id="text_11">
      <!-- 0.5 -->
      <g transform="translate(26.26024 136.227055)scale(0.18 -0.18)">
       <defs>
        <path d="M 691 4666 
L 3169 4666 
L 3169 4134 
L 1269 4134 
L 1269 2991 
Q 1406 3038 1543 3061 
Q 1681 3084 1819 3084 
Q 2600 3084 3056 2656 
Q 3513 2228 3513 1497 
Q 3513 744 3044 326 
Q 2575 -91 1722 -91 
Q 1428 -91 1123 -41 
Q 819 9 494 109 
L 494 744 
Q 775 591 1075 516 
Q 1375 441 1709 441 
Q 2250 441 2565 725 
Q 2881 1009 2881 1497 
Q 2881 1984 2565 2268 
Q 2250 2553 1709 2553 
Q 1456 2553 1204 2497 
Q 953 2441 691 2322 
L 691 4666 
z
" id="DejaVuSans-35" transform="scale(0.015625)"/>
       </defs>
       <use xlink:href="#DejaVuSans-30"/>
       <use x="63.623047" xlink:href="#DejaVuSans-2e"/>
       <use x="95.410156" xlink:href="#DejaVuSans-35"/>
      </g>
     </g>
    </g>
    <g id="ytick_7">
     <g id="line2d_11">
      <g>
       <use style="stroke:#000000;stroke-width:0.8;" x="61.885865" xlink:href="#mc230531b9f" y="82.090436"/>
      </g>
     </g>
     <g id="text_12">
      <!-- 0.6 -->
      <g transform="translate(26.26024 88.929029)scale(0.18 -0.18)">
       <defs>
        <path d="M 2113 2584 
Q 1688 2584 1439 2293 
Q 1191 2003 1191 1497 
Q 1191 994 1439 701 
Q 1688 409 2113 409 
Q 2538 409 2786 701 
Q 3034 994 3034 1497 
Q 3034 2003 2786 2293 
Q 2538 2584 2113 2584 
z
M 3366 4563 
L 3366 3988 
Q 3128 4100 2886 4159 
Q 2644 4219 2406 4219 
Q 1781 4219 1451 3797 
Q 1122 3375 1075 2522 
Q 1259 2794 1537 2939 
Q 1816 3084 2150 3084 
Q 2853 3084 3261 2657 
Q 3669 2231 3669 1497 
Q 3669 778 3244 343 
Q 2819 -91 2113 -91 
Q 1303 -91 875 529 
Q 447 1150 447 2328 
Q 447 3434 972 4092 
Q 1497 4750 2381 4750 
Q 2619 4750 2861 4703 
Q 3103 4656 3366 4563 
z
" id="DejaVuSans-36" transform="scale(0.015625)"/>
       </defs>
       <use xlink:href="#DejaVuSans-30"/>
       <use x="63.623047" xlink:href="#DejaVuSans-2e"/>
       <use x="95.410156" xlink:href="#DejaVuSans-36"/>
      </g>
     </g>
    </g>
    <g id="ytick_8">
     <g id="line2d_12">
      <g>
       <use style="stroke:#000000;stroke-width:0.8;" x="61.885865" xlink:href="#mc230531b9f" y="34.79241"/>
      </g>
     </g>
     <g id="text_13">
      <!-- 0.7 -->
      <g transform="translate(26.26024 41.631004)scale(0.18 -0.18)">
       <defs>
        <path d="M 525 4666 
L 3525 4666 
L 3525 4397 
L 1831 0 
L 1172 0 
L 2766 4134 
L 525 4134 
L 525 4666 
z
" id="DejaVuSans-37" transform="scale(0.015625)"/>
       </defs>
       <use xlink:href="#DejaVuSans-30"/>
       <use x="63.623047" xlink:href="#DejaVuSans-2e"/>
       <use x="95.410156" xlink:href="#DejaVuSans-37"/>
      </g>
     </g>
    </g>
    <g id="text_14">
     <!-- RMSD ($\AA$) -->
     <g transform="translate(18.516803 235.829375)rotate(-90)scale(0.18 -0.18)">
      <defs>
       <path d="M 2841 2188 
Q 3044 2119 3236 1894 
Q 3428 1669 3622 1275 
L 4263 0 
L 3584 0 
L 2988 1197 
Q 2756 1666 2539 1819 
Q 2322 1972 1947 1972 
L 1259 1972 
L 1259 0 
L 628 0 
L 628 4666 
L 2053 4666 
Q 2853 4666 3247 4331 
Q 3641 3997 3641 3322 
Q 3641 2881 3436 2590 
Q 3231 2300 2841 2188 
z
M 1259 4147 
L 1259 2491 
L 2053 2491 
Q 2509 2491 2742 2702 
Q 2975 2913 2975 3322 
Q 2975 3731 2742 3939 
Q 2509 4147 2053 4147 
L 1259 4147 
z
" id="DejaVuSans-52" transform="scale(0.015625)"/>
       <path d="M 628 4666 
L 1569 4666 
L 2759 1491 
L 3956 4666 
L 4897 4666 
L 4897 0 
L 4281 0 
L 4281 4097 
L 3078 897 
L 2444 897 
L 1241 4097 
L 1241 0 
L 628 0 
L 628 4666 
z
" id="DejaVuSans-4d" transform="scale(0.015625)"/>
       <path d="M 3425 4513 
L 3425 3897 
Q 3066 4069 2747 4153 
Q 2428 4238 2131 4238 
Q 1616 4238 1336 4038 
Q 1056 3838 1056 3469 
Q 1056 3159 1242 3001 
Q 1428 2844 1947 2747 
L 2328 2669 
Q 3034 2534 3370 2195 
Q 3706 1856 3706 1288 
Q 3706 609 3251 259 
Q 2797 -91 1919 -91 
Q 1588 -91 1214 -16 
Q 841 59 441 206 
L 441 856 
Q 825 641 1194 531 
Q 1563 422 1919 422 
Q 2459 422 2753 634 
Q 3047 847 3047 1241 
Q 3047 1584 2836 1778 
Q 2625 1972 2144 2069 
L 1759 2144 
Q 1053 2284 737 2584 
Q 422 2884 422 3419 
Q 422 4038 858 4394 
Q 1294 4750 2059 4750 
Q 2388 4750 2728 4690 
Q 3069 4631 3425 4513 
z
" id="DejaVuSans-53" transform="scale(0.015625)"/>
       <path d="M 1259 4147 
L 1259 519 
L 2022 519 
Q 2988 519 3436 956 
Q 3884 1394 3884 2338 
Q 3884 3275 3436 3711 
Q 2988 4147 2022 4147 
L 1259 4147 
z
M 628 4666 
L 1925 4666 
Q 3281 4666 3915 4102 
Q 4550 3538 4550 2338 
Q 4550 1131 3912 565 
Q 3275 0 1925 0 
L 628 0 
L 628 4666 
z
" id="DejaVuSans-44" transform="scale(0.015625)"/>
       <path d="M 3188 5081 
Q 3188 5278 3048 5417 
Q 2909 5556 2713 5556 
Q 2513 5556 2377 5420 
Q 2241 5284 2241 5081 
Q 2241 4884 2377 4746 
Q 2513 4609 2713 4609 
Q 2909 4609 3048 4746 
Q 3188 4884 3188 5081 
z
M 2203 4397 
Q 2034 4513 1945 4689 
Q 1856 4866 1856 5081 
Q 1856 5438 2106 5689 
Q 2356 5941 2713 5941 
Q 3069 5941 3320 5689 
Q 3572 5438 3572 5081 
Q 3572 4834 3458 4643 
Q 3344 4453 3128 4341 
L 3938 0 
L 3278 0 
L 3084 1197 
L 984 1197 
L 325 0 
L -341 0 
L 2203 4397 
z
M 2584 4044 
L 1275 1722 
L 2988 1722 
L 2584 4044 
z
" id="DejaVuSans-Oblique-c5" transform="scale(0.015625)"/>
      </defs>
      <use transform="translate(0 0.171875)" xlink:href="#DejaVuSans-52"/>
      <use transform="translate(69.482422 0.171875)" xlink:href="#DejaVuSans-4d"/>
      <use transform="translate(155.761719 0.171875)" xlink:href="#DejaVuSans-53"/>
      <use transform="translate(219.238281 0.171875)" xlink:href="#DejaVuSans-44"/>
      <use transform="translate(296.240234 0.171875)" xlink:href="#DejaVuSans-20"/>
      <use transform="translate(328.027344 0.171875)" xlink:href="#DejaVuSans-28"/>
      <use transform="translate(367.041016 0.171875)" xlink:href="#DejaVuSans-Oblique-c5"/>
      <use transform="translate(435.449219 0.171875)" xlink:href="#DejaVuSans-29"/>
     </g>
    </g>
   </g>
   <g id="line2d_13">
    <path clip-path="url(#pba4226f1a9)" d="M 61.885865 365.878589 
L 63.052315 365.648065 
L 67.718114 363.582916 
L 68.884564 363.268649 
L 70.051014 362.768149 
L 72.383914 361.321108 
L 73.550364 360.755708 
L 74.716814 359.914188 
L 75.883264 358.820543 
L 77.049714 357.93063 
L 78.216163 357.288034 
L 79.382613 356.374295 
L 81.715513 353.518027 
L 84.048413 351.58554 
L 85.214863 349.913664 
L 86.381313 347.962242 
L 87.547762 346.550481 
L 88.714212 345.502269 
L 89.880662 344.078823 
L 91.047112 342.395124 
L 92.213562 341.189637 
L 93.380012 340.566999 
L 94.546462 339.655557 
L 96.879362 335.958062 
L 99.212261 333.461731 
L 101.545161 329.315709 
L 102.711611 327.957663 
L 103.878061 326.985118 
L 105.044511 325.496313 
L 106.210961 323.433015 
L 107.377411 321.665557 
L 108.54386 320.565184 
L 109.71031 319.119815 
L 110.87676 316.900798 
L 112.04321 315.167052 
L 114.37611 313.789621 
L 115.54256 312.416434 
L 116.70901 310.621951 
L 117.87546 309.241662 
L 119.041909 308.043967 
L 120.208359 305.642543 
L 121.374809 302.210035 
L 122.541259 299.409746 
L 124.874159 295.446327 
L 127.207059 290.350273 
L 129.539958 286.108866 
L 131.872858 279.322603 
L 133.039308 276.941488 
L 134.205758 275.613601 
L 136.538658 273.598175 
L 138.871557 271.993019 
L 140.038007 270.54895 
L 141.204457 267.609915 
L 142.370907 264.144149 
L 143.537357 261.455221 
L 145.870257 257.249749 
L 147.036707 254.586821 
L 149.369606 248.196661 
L 150.536056 244.198531 
L 152.868956 234.73393 
L 154.035406 231.572867 
L 155.201856 229.72488 
L 158.701206 225.944896 
L 159.867655 224.385618 
L 161.034105 222.34202 
L 162.200555 219.867486 
L 163.367005 217.820999 
L 164.533455 216.841939 
L 165.699905 216.51569 
L 166.866355 215.870748 
L 168.032805 214.252645 
L 169.199254 211.642401 
L 171.532154 204.878546 
L 172.698604 201.371264 
L 173.865054 198.525524 
L 175.031504 196.855391 
L 176.197954 195.844299 
L 177.364404 194.398414 
L 178.530854 191.865265 
L 182.030203 181.738941 
L 183.196653 179.573805 
L 184.363103 178.295074 
L 185.529553 177.777493 
L 186.696003 177.124349 
L 187.862453 175.346997 
L 190.195352 169.368066 
L 191.361802 167.217695 
L 192.528252 166.335157 
L 194.861152 165.967616 
L 196.027602 165.337637 
L 197.194052 163.40101 
L 198.360502 159.795177 
L 199.526951 155.289483 
L 200.693401 151.423244 
L 201.859851 149.555603 
L 203.026301 149.692992 
L 204.192751 150.688841 
L 205.359201 151.380451 
L 206.525651 150.888788 
L 207.692101 148.519951 
L 208.858551 144.401766 
L 210.025 139.762755 
L 211.19145 136.435433 
L 212.3579 135.649891 
L 213.52435 136.87133 
L 214.6908 138.324867 
L 215.85725 138.571607 
L 217.0237 137.045531 
L 218.19015 133.736798 
L 219.3566 129.346899 
L 220.523049 125.410277 
L 221.689499 123.557184 
L 222.855949 124.327351 
L 224.022399 126.603845 
L 225.188849 128.417394 
L 226.355299 128.462488 
L 227.521749 126.639656 
L 228.688199 123.432618 
L 229.854649 119.714136 
L 231.021098 116.862308 
L 232.187548 116.076273 
L 233.353998 117.452049 
L 234.520448 119.69959 
L 235.686898 121.017593 
L 236.853348 120.544305 
L 238.019798 118.565587 
L 240.352697 112.514118 
L 241.519147 110.47393 
L 242.685597 110.335098 
L 243.852047 112.023737 
L 245.018497 114.419995 
L 246.184947 116.165742 
L 247.351397 116.808294 
L 249.684297 116.5547 
L 250.850746 117.183283 
L 252.017196 119.473925 
L 253.183646 123.788168 
L 256.682996 141.476158 
L 257.849446 145.728707 
L 259.015896 148.920715 
L 262.515245 156.947135 
L 264.848145 162.912756 
L 266.014595 165.497089 
L 267.181045 167.205059 
L 268.347495 167.853227 
L 269.513945 167.556727 
L 270.680395 167.020973 
L 271.846844 166.741351 
L 273.013294 166.777334 
L 274.179744 167.302908 
L 275.346194 168.480653 
L 277.679094 171.69576 
L 278.845544 172.279464 
L 280.011994 171.456918 
L 281.178443 169.714543 
L 283.511343 165.267697 
L 284.677793 163.667182 
L 285.844243 163.249997 
L 288.177143 164.513573 
L 289.343593 164.117269 
L 290.510043 162.628378 
L 292.842942 158.949692 
L 294.009392 158.000274 
L 295.175842 158.329563 
L 296.342292 160.046385 
L 297.508742 162.518268 
L 298.675192 164.448925 
L 299.841642 164.97293 
L 301.008092 164.08546 
L 302.174541 162.074735 
L 304.507441 157.253099 
L 305.673891 155.862763 
L 306.840341 155.571137 
L 308.006791 155.804916 
L 309.173241 155.724394 
L 310.339691 154.905412 
L 311.506141 152.920084 
L 312.67259 149.735351 
L 313.83904 146.100057 
L 315.00549 142.906686 
L 316.17194 140.737209 
L 317.33839 139.644084 
L 318.50484 139.222195 
L 319.67129 139.270726 
L 320.83774 139.612261 
L 322.004189 139.616607 
L 323.170639 139.014986 
L 324.337089 138.192808 
L 325.503539 137.520493 
L 327.836439 136.365296 
L 329.002889 135.690653 
L 331.335789 135.13955 
L 332.502238 134.170134 
L 333.668688 132.21336 
L 334.835138 129.550829 
L 336.001588 126.165719 
L 339.500938 113.533229 
L 340.667388 111.318805 
L 341.833838 110.252395 
L 343.000287 109.398428 
L 344.166737 108.050271 
L 345.333187 105.701902 
L 346.499637 101.945331 
L 348.832537 92.492663 
L 349.998987 89.506189 
L 351.165437 88.251814 
L 353.498336 87.416624 
L 354.664786 86.191954 
L 355.831236 83.738224 
L 358.164136 76.127877 
L 359.330586 73.270832 
L 360.497036 72.032565 
L 361.663486 72.175193 
L 363.996385 74.032572 
L 365.162835 74.048543 
L 366.329285 72.644323 
L 367.495735 70.315106 
L 368.662185 68.339959 
L 369.828635 67.470459 
L 370.995085 67.46664 
L 373.327984 68.072047 
L 374.494434 67.673068 
L 375.660884 66.189861 
L 377.993784 61.517278 
L 379.160234 60.278195 
L 380.326684 59.925792 
L 381.493134 59.758775 
L 382.659584 59.361728 
L 383.826033 58.457199 
L 384.992483 56.644876 
L 388.491833 48.614411 
L 389.658283 47.396298 
L 390.824733 46.876729 
L 391.991183 46.225479 
L 393.157633 44.778554 
L 394.324082 42.333339 
L 396.656982 36.464456 
L 397.823432 34.341831 
L 398.989882 33.055783 
L 400.156332 32.558468 
L 401.322782 32.405521 
L 402.489232 31.646299 
L 403.655681 29.65054 
L 405.988581 24.301479 
L 407.155031 22.650006 
L 408.321481 21.753658 
L 409.487931 21.230537 
L 410.654381 20.89902 
L 411.820831 20.280161 
L 411.820831 20.280161 
" style="fill:none;stroke:#4abbf3;stroke-linecap:square;stroke-opacity:0.25;stroke-width:1.5;"/>
   </g>
   <g id="line2d_14">
    <path clip-path="url(#pba4226f1a9)" d="M 61.885865 365.878589 
L 63.052315 365.807229 
L 66.551665 365.160252 
L 68.884564 364.651968 
L 72.383914 363.522787 
L 74.716814 362.414808 
L 79.382613 359.617942 
L 84.048413 356.246329 
L 87.547762 353.75943 
L 91.047112 351.500761 
L 94.546462 348.96254 
L 95.712912 347.910139 
L 98.045811 345.309814 
L 100.378711 342.277262 
L 102.711611 338.957069 
L 105.044511 336.145724 
L 107.377411 333.674221 
L 108.54386 332.574377 
L 110.87676 330.845899 
L 112.04321 330.187159 
L 114.37611 329.284054 
L 115.54256 328.825895 
L 116.70901 328.071037 
L 117.87546 326.953443 
L 120.208359 324.312167 
L 121.374809 322.751906 
L 123.707709 319.089107 
L 128.373508 311.083074 
L 129.539958 309.570845 
L 134.205758 304.803141 
L 135.372208 303.758961 
L 136.538658 302.888309 
L 137.705108 302.207 
L 141.204457 300.591934 
L 142.370907 299.39737 
L 143.537357 297.668081 
L 145.870257 293.421803 
L 148.203157 289.292104 
L 149.369606 287.508075 
L 154.035406 281.39004 
L 155.201856 280.121496 
L 156.368306 279.241526 
L 157.534756 278.783549 
L 161.034105 278.376229 
L 162.200555 278.015268 
L 164.533455 276.993989 
L 165.699905 276.780738 
L 166.866355 276.966269 
L 168.032805 277.522328 
L 170.365704 278.885955 
L 172.698604 279.683758 
L 175.031504 280.208244 
L 176.197954 280.346496 
L 177.364404 280.181174 
L 178.530854 279.433036 
L 179.697303 278.001215 
L 180.863753 275.929417 
L 183.196653 271.238715 
L 184.363103 269.294914 
L 187.862453 264.152336 
L 190.195352 259.896636 
L 191.361802 258.295622 
L 192.528252 257.364845 
L 193.694702 257.208309 
L 196.027602 258.003426 
L 197.194052 257.95035 
L 198.360502 257.027111 
L 200.693401 253.652405 
L 201.859851 252.718815 
L 203.026301 252.739393 
L 204.192751 253.440573 
L 205.359201 254.343092 
L 206.525651 254.68952 
L 207.692101 253.738534 
L 208.858551 251.053192 
L 211.19145 243.238353 
L 212.3579 240.773589 
L 213.52435 240.485428 
L 214.6908 241.96804 
L 215.85725 243.938601 
L 217.0237 245.019159 
L 218.19015 244.332342 
L 219.3566 241.993329 
L 220.523049 239.193055 
L 221.689499 237.327195 
L 222.855949 237.362353 
L 224.022399 239.481294 
L 225.188849 242.610889 
L 226.355299 244.70305 
L 227.521749 244.228909 
L 228.688199 241.224872 
L 231.021098 232.582496 
L 232.187548 229.55508 
L 233.353998 228.478557 
L 234.520448 229.479474 
L 235.686898 231.479301 
L 236.853348 232.116408 
L 238.019798 229.773144 
L 239.186248 224.987911 
L 240.352697 219.294224 
L 241.519147 214.188368 
L 242.685597 210.772938 
L 243.852047 209.686596 
L 245.018497 210.87574 
L 246.184947 212.978946 
L 247.351397 213.584404 
L 248.517847 211.544105 
L 249.684297 208.072299 
L 250.850746 205.102831 
L 252.017196 203.960196 
L 253.183646 205.107611 
L 254.350096 208.311959 
L 255.516546 212.680112 
L 256.682996 216.487379 
L 257.849446 217.714236 
L 259.015896 216.005322 
L 260.182346 213.095276 
L 261.348795 210.885094 
L 262.515245 210.109898 
L 263.681695 210.577257 
L 266.014595 212.908203 
L 267.181045 213.204956 
L 268.347495 211.861876 
L 270.680395 206.346959 
L 271.846844 204.881728 
L 273.013294 204.920469 
L 274.179744 205.931016 
L 275.346194 207.243384 
L 276.512644 208.333272 
L 277.679094 208.892715 
L 278.845544 208.601287 
L 280.011994 207.254348 
L 281.178443 205.51094 
L 282.344893 204.526439 
L 283.511343 204.94346 
L 284.677793 206.660909 
L 288.177143 214.12177 
L 289.343593 215.505778 
L 290.510043 215.678968 
L 291.676492 215.21821 
L 292.842942 215.15776 
L 294.009392 215.967683 
L 295.175842 217.144691 
L 296.342292 217.832976 
L 297.508742 217.647552 
L 298.675192 216.796238 
L 299.841642 215.468587 
L 301.008092 213.61145 
L 305.673891 204.1943 
L 306.840341 202.104737 
L 308.006791 200.45708 
L 309.173241 199.695773 
L 310.339691 199.82676 
L 311.506141 200.238955 
L 312.67259 200.182929 
L 315.00549 199.110129 
L 316.17194 198.943089 
L 317.33839 199.441629 
L 318.50484 200.988276 
L 319.67129 203.821408 
L 323.170639 215.650824 
L 324.337089 217.998545 
L 325.503539 219.638266 
L 326.669989 220.914699 
L 330.169339 224.218517 
L 331.335789 225.652305 
L 332.502238 226.442136 
L 333.668688 225.35604 
L 334.835138 222.12204 
L 338.334488 208.596819 
L 339.500938 204.843939 
L 340.667388 202.183442 
L 341.833838 200.747971 
L 343.000287 199.845551 
L 344.166737 198.162534 
L 345.333187 194.983199 
L 347.666087 186.92256 
L 348.832537 183.432084 
L 349.998987 180.686887 
L 351.165437 178.872219 
L 352.331887 177.848888 
L 353.498336 177.024746 
L 354.664786 175.37266 
L 355.831236 172.274155 
L 358.164136 164.686037 
L 359.330586 161.947326 
L 360.497036 160.32654 
L 361.663486 159.718917 
L 362.829935 159.832546 
L 363.996385 160.065105 
L 365.162835 159.448562 
L 366.329285 157.389405 
L 367.495735 154.530521 
L 368.662185 152.202819 
L 369.828635 151.222943 
L 370.995085 151.527012 
L 373.327984 153.792404 
L 374.494434 154.534854 
L 375.660884 154.186793 
L 376.827334 152.266917 
L 377.993784 149.204913 
L 379.160234 146.515731 
L 380.326684 145.169017 
L 381.493134 144.824704 
L 382.659584 144.686221 
L 383.826033 144.049463 
L 384.992483 142.488372 
L 386.158933 139.856076 
L 387.325383 136.030855 
L 388.491833 131.506302 
L 389.658283 127.962128 
L 390.824733 126.584684 
L 391.991183 127.032827 
L 394.324082 129.396947 
L 395.490532 130.104083 
L 397.823432 131.077749 
L 398.989882 131.492861 
L 400.156332 132.667776 
L 401.322782 135.178477 
L 402.489232 138.323749 
L 403.655681 140.747997 
L 404.822131 141.682817 
L 405.988581 141.452069 
L 407.155031 140.834471 
L 408.321481 140.040658 
L 410.654381 137.618107 
L 411.820831 137.165572 
L 411.820831 137.165572 
" style="fill:none;stroke:#4abbf3;stroke-linecap:square;stroke-opacity:0.5;stroke-width:1.5;"/>
   </g>
   <g id="line2d_15">
    <path clip-path="url(#pba4226f1a9)" d="M 61.885865 365.878589 
L 63.052315 365.802393 
L 67.718114 365.001424 
L 72.383914 363.687824 
L 74.716814 362.701544 
L 79.382613 360.51039 
L 91.047112 353.498408 
L 95.712912 350.052939 
L 98.045811 347.869537 
L 99.212261 346.680643 
L 103.878061 341.21006 
L 107.377411 338.015869 
L 110.87676 334.850698 
L 112.04321 333.868295 
L 113.20966 333.103188 
L 115.54256 332.052854 
L 116.70901 331.267287 
L 117.87546 330.091162 
L 120.208359 327.156116 
L 122.541259 323.431975 
L 127.207059 315.611877 
L 128.373508 313.521279 
L 129.539958 311.700827 
L 131.872858 308.764269 
L 134.205758 306.293492 
L 136.538658 304.356214 
L 141.204457 300.64865 
L 142.370907 299.332013 
L 143.537357 297.62778 
L 145.870257 293.538527 
L 149.369606 287.117806 
L 150.536056 285.462787 
L 154.035406 281.664956 
L 155.201856 280.651872 
L 156.368306 279.96182 
L 157.534756 279.671192 
L 159.867655 279.783729 
L 162.200555 279.87498 
L 163.367005 279.698907 
L 165.699905 279.193506 
L 166.866355 279.225163 
L 168.032805 279.529229 
L 169.199254 279.976563 
L 170.365704 280.255303 
L 171.532154 280.414602 
L 173.865054 280.972103 
L 175.031504 281.027271 
L 176.197954 280.891424 
L 177.364404 280.46672 
L 178.530854 279.674644 
L 179.697303 278.471952 
L 180.863753 276.701284 
L 182.030203 274.623892 
L 183.196653 272.86359 
L 187.862453 267.086226 
L 190.195352 263.73971 
L 191.361802 262.598013 
L 192.528252 261.925733 
L 193.694702 261.993347 
L 194.861152 262.564015 
L 196.027602 262.962762 
L 197.194052 262.749223 
L 198.360502 261.650276 
L 199.526951 259.937368 
L 200.693401 258.441292 
L 201.859851 257.862786 
L 203.026301 258.202013 
L 204.192751 259.220582 
L 205.359201 260.464352 
L 206.525651 261.008208 
L 207.692101 260.151115 
L 208.858551 257.722054 
L 210.025 254.406027 
L 211.19145 251.491995 
L 212.3579 250.191325 
L 213.52435 250.872619 
L 215.85725 254.808582 
L 217.0237 255.502004 
L 218.19015 254.432956 
L 220.523049 249.649412 
L 221.689499 248.381283 
L 222.855949 249.057914 
L 224.022399 251.606308 
L 225.188849 254.730951 
L 226.355299 256.422989 
L 227.521749 255.403532 
L 228.688199 252.119416 
L 229.854649 247.934764 
L 231.021098 244.191735 
L 232.187548 241.829771 
L 233.353998 241.381002 
L 234.520448 242.800174 
L 235.686898 244.799808 
L 236.853348 245.057302 
L 238.019798 242.412901 
L 240.352697 233.504073 
L 241.519147 230.333192 
L 242.685597 229.246427 
L 243.852047 230.56816 
L 246.184947 237.502493 
L 247.351397 238.9009 
L 248.517847 237.504853 
L 249.684297 235.11707 
L 250.850746 233.815003 
L 252.017196 234.623556 
L 253.183646 237.544279 
L 255.516546 246.838381 
L 256.682996 250.1588 
L 257.849446 250.118839 
L 259.015896 247.076625 
L 260.182346 243.533363 
L 261.348795 241.709687 
L 262.515245 242.028321 
L 263.681695 243.697879 
L 264.848145 245.64524 
L 266.014595 246.922176 
L 267.181045 246.685954 
L 268.347495 244.404009 
L 269.513945 240.762784 
L 270.680395 237.821231 
L 271.846844 237.121999 
L 273.013294 238.404939 
L 274.179744 240.338593 
L 275.346194 241.601338 
L 276.512644 241.560429 
L 277.679094 240.289486 
L 278.845544 237.80896 
L 281.178443 231.03678 
L 282.344893 229.369511 
L 283.511343 229.210563 
L 284.677793 229.479099 
L 285.844243 229.138763 
L 287.010693 228.032056 
L 289.343593 225.588236 
L 290.510043 224.43899 
L 291.676492 224.034109 
L 292.842942 225.155586 
L 294.009392 227.429288 
L 295.175842 229.394829 
L 296.342292 229.790141 
L 297.508742 228.708458 
L 299.841642 225.902284 
L 302.174541 223.534686 
L 303.340991 222.964359 
L 304.507441 222.70416 
L 305.673891 221.764302 
L 306.840341 219.645474 
L 308.006791 217.094263 
L 309.173241 215.348504 
L 310.339691 214.975217 
L 313.83904 216.373291 
L 315.00549 216.299869 
L 316.17194 215.113662 
L 318.50484 210.426952 
L 319.67129 209.173445 
L 320.83774 209.703312 
L 322.004189 211.26069 
L 323.170639 212.440619 
L 324.337089 212.535136 
L 325.503539 211.358134 
L 326.669989 208.886212 
L 329.002889 202.555982 
L 330.169339 201.042886 
L 331.335789 201.590983 
L 332.502238 202.876097 
L 333.668688 202.633896 
L 334.835138 199.820797 
L 336.001588 195.074931 
L 338.334488 184.543439 
L 339.500938 180.825087 
L 340.667388 179.363823 
L 341.833838 180.075255 
L 343.000287 181.276621 
L 344.166737 180.672093 
L 345.333187 177.561533 
L 347.666087 169.361775 
L 348.832537 166.579728 
L 349.998987 165.422047 
L 351.165437 166.16989 
L 352.331887 168.292455 
L 353.498336 170.149363 
L 354.664786 169.793882 
L 355.831236 166.862711 
L 356.997686 163.062978 
L 358.164136 160.27899 
L 359.330586 159.419189 
L 360.497036 160.732319 
L 361.663486 163.948088 
L 362.829935 168.067674 
L 363.996385 171.368361 
L 365.162835 172.372326 
L 366.329285 171.276266 
L 367.495735 170.024266 
L 368.662185 170.505117 
L 369.828635 173.253151 
L 370.995085 177.817371 
L 373.327984 189.223312 
L 374.494434 194.021233 
L 375.660884 197.180619 
L 376.827334 198.902365 
L 377.993784 200.14925 
L 379.160234 202.142479 
L 380.326684 205.127679 
L 382.659584 211.641999 
L 383.826033 214.404283 
L 384.992483 216.249741 
L 386.158933 216.879776 
L 387.325383 216.376219 
L 388.491833 215.37522 
L 389.658283 215.204503 
L 390.824733 216.171166 
L 391.991183 217.362163 
L 393.157633 218.194508 
L 394.324082 218.605032 
L 395.490532 218.511189 
L 396.656982 217.811418 
L 397.823432 216.42774 
L 400.156332 212.750422 
L 401.322782 211.202589 
L 402.489232 209.260402 
L 404.822131 204.111449 
L 405.988581 202.034472 
L 407.155031 200.817021 
L 408.321481 200.339441 
L 409.487931 200.244342 
L 410.654381 200.368946 
L 411.820831 200.721994 
L 411.820831 200.721994 
" style="fill:none;stroke:#4abbf3;stroke-linecap:square;stroke-width:1.5;"/>
   </g>
   <g id="patch_3">
    <path d="M 61.885865 383.15851 
L 61.885865 3.00024 
" style="fill:none;stroke:#000000;stroke-linecap:square;stroke-linejoin:miter;stroke-width:0.8;"/>
   </g>
   <g id="patch_4">
    <path d="M 412.987281 383.15851 
L 412.987281 3.00024 
" style="fill:none;stroke:#000000;stroke-linecap:square;stroke-linejoin:miter;stroke-width:0.8;"/>
   </g>
   <g id="patch_5">
    <path d="M 61.885865 383.15851 
L 412.987281 383.15851 
" style="fill:none;stroke:#000000;stroke-linecap:square;stroke-linejoin:miter;stroke-width:0.8;"/>
   </g>
   <g id="patch_6">
    <path d="M 61.885865 3.00024 
L 412.987281 3.00024 
" style="fill:none;stroke:#000000;stroke-linecap:square;stroke-linejoin:miter;stroke-width:0.8;"/>
   </g>
   <g id="legend_1">
    <g id="line2d_16">
     <path d="M 78.085865 26.577427 
L 114.085865 26.577427 
" style="fill:none;stroke:#4abbf3;stroke-linecap:square;stroke-opacity:0.25;stroke-width:1.5;"/>
    </g>
    <g id="line2d_17"/>
    <g id="text_15">
     <!-- mbGDML(3) @   200 -->
     <g transform="translate(128.485865 32.877427)scale(0.18 -0.18)">
      <defs>
       <path d="M 3116 1747 
Q 3116 2381 2855 2742 
Q 2594 3103 2138 3103 
Q 1681 3103 1420 2742 
Q 1159 2381 1159 1747 
Q 1159 1113 1420 752 
Q 1681 391 2138 391 
Q 2594 391 2855 752 
Q 3116 1113 3116 1747 
z
M 1159 2969 
Q 1341 3281 1617 3432 
Q 1894 3584 2278 3584 
Q 2916 3584 3314 3078 
Q 3713 2572 3713 1747 
Q 3713 922 3314 415 
Q 2916 -91 2278 -91 
Q 1894 -91 1617 61 
Q 1341 213 1159 525 
L 1159 0 
L 581 0 
L 581 4863 
L 1159 4863 
L 1159 2969 
z
" id="DejaVuSans-62" transform="scale(0.015625)"/>
       <path d="M 3809 666 
L 3809 1919 
L 2778 1919 
L 2778 2438 
L 4434 2438 
L 4434 434 
Q 4069 175 3628 42 
Q 3188 -91 2688 -91 
Q 1594 -91 976 548 
Q 359 1188 359 2328 
Q 359 3472 976 4111 
Q 1594 4750 2688 4750 
Q 3144 4750 3555 4637 
Q 3966 4525 4313 4306 
L 4313 3634 
Q 3963 3931 3569 4081 
Q 3175 4231 2741 4231 
Q 1884 4231 1454 3753 
Q 1025 3275 1025 2328 
Q 1025 1384 1454 906 
Q 1884 428 2741 428 
Q 3075 428 3337 486 
Q 3600 544 3809 666 
z
" id="DejaVuSans-47" transform="scale(0.015625)"/>
       <path d="M 628 4666 
L 1259 4666 
L 1259 531 
L 3531 531 
L 3531 0 
L 628 0 
L 628 4666 
z
" id="DejaVuSans-4c" transform="scale(0.015625)"/>
       <path d="M 2381 1678 
Q 2381 1231 2603 976 
Q 2825 722 3213 722 
Q 3597 722 3817 978 
Q 4038 1234 4038 1678 
Q 4038 2116 3813 2373 
Q 3588 2631 3206 2631 
Q 2828 2631 2604 2375 
Q 2381 2119 2381 1678 
z
M 4084 744 
Q 3897 503 3655 389 
Q 3413 275 3091 275 
Q 2553 275 2217 664 
Q 1881 1053 1881 1678 
Q 1881 2303 2218 2693 
Q 2556 3084 3091 3084 
Q 3413 3084 3656 2967 
Q 3900 2850 4084 2613 
L 4084 3022 
L 4531 3022 
L 4531 722 
Q 4988 791 5245 1139 
Q 5503 1488 5503 2041 
Q 5503 2375 5404 2669 
Q 5306 2963 5106 3213 
Q 4781 3622 4314 3839 
Q 3847 4056 3297 4056 
Q 2913 4056 2559 3954 
Q 2206 3853 1906 3653 
Q 1416 3334 1139 2817 
Q 863 2300 863 1697 
Q 863 1200 1042 765 
Q 1222 331 1563 0 
Q 1891 -325 2322 -495 
Q 2753 -666 3244 -666 
Q 3647 -666 4036 -530 
Q 4425 -394 4750 -141 
L 5031 -488 
Q 4641 -791 4180 -952 
Q 3719 -1113 3244 -1113 
Q 2666 -1113 2153 -908 
Q 1641 -703 1241 -313 
Q 841 78 631 592 
Q 422 1106 422 1697 
Q 422 2266 634 2781 
Q 847 3297 1241 3688 
Q 1644 4084 2172 4295 
Q 2700 4506 3291 4506 
Q 3953 4506 4520 4234 
Q 5088 3963 5472 3463 
Q 5706 3156 5829 2797 
Q 5953 2438 5953 2053 
Q 5953 1231 5456 756 
Q 4959 281 4084 263 
L 4084 744 
z
" id="DejaVuSans-40" transform="scale(0.015625)"/>
      </defs>
      <use xlink:href="#DejaVuSans-6d"/>
      <use x="97.412109" xlink:href="#DejaVuSans-62"/>
      <use x="160.888672" xlink:href="#DejaVuSans-47"/>
      <use x="238.378906" xlink:href="#DejaVuSans-44"/>
      <use x="315.380859" xlink:href="#DejaVuSans-4d"/>
      <use x="401.660156" xlink:href="#DejaVuSans-4c"/>
      <use x="457.373047" xlink:href="#DejaVuSans-28"/>
      <use x="496.386719" xlink:href="#DejaVuSans-33"/>
      <use x="560.009766" xlink:href="#DejaVuSans-29"/>
      <use x="599.023438" xlink:href="#DejaVuSans-20"/>
      <use x="630.810547" xlink:href="#DejaVuSans-40"/>
      <use x="730.810547" xlink:href="#DejaVuSans-20"/>
      <use x="762.597656" xlink:href="#DejaVuSans-20"/>
      <use x="794.384766" xlink:href="#DejaVuSans-20"/>
      <use x="826.171875" xlink:href="#DejaVuSans-32"/>
      <use x="889.794922" xlink:href="#DejaVuSans-30"/>
      <use x="953.417969" xlink:href="#DejaVuSans-30"/>
     </g>
    </g>
    <g id="line2d_18">
     <path d="M 78.085865 52.998052 
L 114.085865 52.998052 
" style="fill:none;stroke:#4abbf3;stroke-linecap:square;stroke-opacity:0.5;stroke-width:1.5;"/>
    </g>
    <g id="line2d_19"/>
    <g id="text_16">
     <!-- mbGDML(3) @   500 -->
     <g transform="translate(128.485865 59.298052)scale(0.18 -0.18)">
      <use xlink:href="#DejaVuSans-6d"/>
      <use x="97.412109" xlink:href="#DejaVuSans-62"/>
      <use x="160.888672" xlink:href="#DejaVuSans-47"/>
      <use x="238.378906" xlink:href="#DejaVuSans-44"/>
      <use x="315.380859" xlink:href="#DejaVuSans-4d"/>
      <use x="401.660156" xlink:href="#DejaVuSans-4c"/>
      <use x="457.373047" xlink:href="#DejaVuSans-28"/>
      <use x="496.386719" xlink:href="#DejaVuSans-33"/>
      <use x="560.009766" xlink:href="#DejaVuSans-29"/>
      <use x="599.023438" xlink:href="#DejaVuSans-20"/>
      <use x="630.810547" xlink:href="#DejaVuSans-40"/>
      <use x="730.810547" xlink:href="#DejaVuSans-20"/>
      <use x="762.597656" xlink:href="#DejaVuSans-20"/>
      <use x="794.384766" xlink:href="#DejaVuSans-20"/>
      <use x="826.171875" xlink:href="#DejaVuSans-35"/>
      <use x="889.794922" xlink:href="#DejaVuSans-30"/>
      <use x="953.417969" xlink:href="#DejaVuSans-30"/>
     </g>
    </g>
    <g id="line2d_20">
     <path d="M 78.085865 79.418677 
L 114.085865 79.418677 
" style="fill:none;stroke:#4abbf3;stroke-linecap:square;stroke-width:1.5;"/>
    </g>
    <g id="line2d_21"/>
    <g id="text_17">
     <!-- mbGDML(3) @ 1000 -->
     <g transform="translate(128.485865 85.718677)scale(0.18 -0.18)">
      <use xlink:href="#DejaVuSans-6d"/>
      <use x="97.412109" xlink:href="#DejaVuSans-62"/>
      <use x="160.888672" xlink:href="#DejaVuSans-47"/>
      <use x="238.378906" xlink:href="#DejaVuSans-44"/>
      <use x="315.380859" xlink:href="#DejaVuSans-4d"/>
      <use x="401.660156" xlink:href="#DejaVuSans-4c"/>
      <use x="457.373047" xlink:href="#DejaVuSans-28"/>
      <use x="496.386719" xlink:href="#DejaVuSans-33"/>
      <use x="560.009766" xlink:href="#DejaVuSans-29"/>
      <use x="599.023438" xlink:href="#DejaVuSans-20"/>
      <use x="630.810547" xlink:href="#DejaVuSans-40"/>
      <use x="730.810547" xlink:href="#DejaVuSans-20"/>
      <use x="762.597656" xlink:href="#DejaVuSans-31"/>
      <use x="826.220703" xlink:href="#DejaVuSans-30"/>
      <use x="889.84375" xlink:href="#DejaVuSans-30"/>
      <use x="953.466797" xlink:href="#DejaVuSans-30"/>
     </g>
    </g>
   </g>
  </g>
 </g>
 <defs>
  <clipPath id="pba4226f1a9">
   <rect height="380.15827" width="351.101416" x="61.885865" y="3.00024"/>
  </clipPath>
 </defs>
</svg>
