<?xml version="1.0" encoding="utf-8" standalone="no"?>
<!DOCTYPE svg PUBLIC "-//W3C//DTD SVG 1.1//EN"
  "http://www.w3.org/Graphics/SVG/1.1/DTD/svg11.dtd">
<svg xmlns:xlink="http://www.w3.org/1999/xlink" width="230.4pt" height="432pt" viewBox="0 0 230.4 432" xmlns="http://www.w3.org/2000/svg" version="1.1">
 <metadata>
  <rdf:RDF xmlns:dc="http://purl.org/dc/elements/1.1/" xmlns:cc="http://creativecommons.org/ns#" xmlns:rdf="http://www.w3.org/1999/02/22-rdf-syntax-ns#">
   <cc:Work>
    <dc:type rdf:resource="http://purl.org/dc/dcmitype/StillImage"/>
    <dc:date>2022-10-04T17:19:53.081969</dc:date>
    <dc:format>image/svg+xml</dc:format>
    <dc:creator>
     <cc:Agent>
      <dc:title>Matplotlib v3.6.0, https://matplotlib.org/</dc:title>
     </cc:Agent>
    </dc:creator>
   </cc:Work>
  </rdf:RDF>
 </metadata>
 <defs>
  <style type="text/css">*{stroke-linejoin: round; stroke-linecap: butt}</style>
 </defs>
 <g id="figure_1">
  <g id="patch_1">
   <path d="M 0 432 
L 230.4 432 
L 230.4 0 
L 0 0 
z
" style="fill: #ffffff"/>
  </g>
  <g id="axes_1">
   <g id="patch_2">
    <path d="M 26.094459 129.713302 
L 225.432651 129.713302 
L 225.432651 3.00024 
L 26.094459 3.00024 
z
" style="fill: #ffffff"/>
   </g>
   <g id="line2d_1">
    <path d="M 26.094459 81.367411 
L 225.432651 81.367411 
" clip-path="url(#pad45976ded)" style="fill: none; stroke-dasharray: 1.5,6; stroke-dashoffset: 0; stroke: #c0c0c0; stroke-width: 1.5"/>
   </g>
   <g id="line2d_2">
    <path d="M 27.340322 129.713302 
L 29.83205 129.713302 
L 32.323777 129.713302 
L 34.815505 129.713302 
L 37.307232 129.713302 
L 39.798959 129.713302 
L 42.290687 129.713302 
L 44.782414 129.713302 
L 47.274142 129.713302 
L 49.765869 129.713302 
L 52.257596 129.713302 
L 54.749324 129.713302 
L 57.241051 129.713302 
L 59.732779 129.713302 
L 62.224506 129.713302 
L 64.716233 129.713302 
L 67.207961 129.713302 
L 69.699688 129.713302 
L 72.191416 129.713302 
L 74.683143 129.713302 
L 77.17487 129.713302 
L 79.666598 129.713302 
L 82.158325 129.713302 
L 84.650053 129.651044 
L 87.14178 126.55353 
L 89.633507 100.706923 
L 92.125235 44.537285 
L 94.616962 9.034195 
L 97.10869 15.12339 
L 99.600417 41.650357 
L 102.092144 65.900237 
L 104.583872 80.191368 
L 107.075599 85.675267 
L 109.567327 87.719319 
L 112.059054 87.57663 
L 114.550781 86.723951 
L 117.042509 85.739492 
L 119.534236 84.654362 
L 122.025964 81.799008 
L 124.517691 80.183042 
L 127.009418 78.43017 
L 129.501146 77.770942 
L 131.992873 75.651991 
L 134.484601 76.304432 
L 136.976328 76.760427 
L 139.468055 76.116595 
L 141.959783 76.229552 
L 144.45151 76.435747 
L 146.943238 78.917548 
L 149.434965 79.900024 
L 151.926692 81.760073 
L 154.41842 83.864907 
L 156.910147 85.199688 
L 159.401875 87.003561 
L 161.893602 87.029167 
L 164.385329 86.775203 
L 166.877057 86.793966 
L 169.368784 85.888044 
L 171.860512 85.062771 
L 174.352239 84.513911 
L 176.843966 83.142522 
L 179.335694 81.627865 
L 181.827421 80.297634 
L 184.319149 79.770179 
L 186.810876 78.884836 
L 189.302603 77.750144 
L 191.794331 76.830095 
L 194.286058 77.089739 
L 196.777786 77.491515 
L 199.269513 77.553841 
L 201.76124 78.331554 
L 204.252968 78.897215 
L 206.744695 79.727388 
L 209.236423 80.718061 
L 211.72815 81.305281 
L 214.219877 81.615717 
L 216.711605 82.001513 
L 219.203332 81.980023 
L 221.69506 82.237072 
L 224.186787 81.930194 
" clip-path="url(#pad45976ded)" style="fill: none; stroke: #4abbf3; stroke-width: 1.5; stroke-linecap: square"/>
   </g>
   <g id="line2d_3">
    <path d="M 26.094459 129.713302 
L 84.40088 129.606941 
L 85.148398 129.210504 
L 85.895916 127.948677 
L 86.643435 124.941562 
L 87.390953 119.589672 
L 88.138471 111.714127 
L 88.885989 101.638843 
L 90.381026 76.537657 
L 92.62358 35.298612 
L 93.371099 24.145215 
L 94.118617 15.766872 
L 94.866135 10.763073 
L 95.613653 9.075801 
L 96.361171 10.550351 
L 97.10869 14.558225 
L 97.856208 20.615965 
L 99.351244 36.03347 
L 101.593799 59.592422 
L 103.088835 72.099504 
L 103.836354 77.001777 
L 104.583872 80.96614 
L 105.33139 84.108623 
L 106.078908 86.492076 
L 106.826426 88.247031 
L 107.573945 89.460513 
L 108.321463 90.243717 
L 109.068981 90.736845 
L 110.564018 91.012416 
L 112.059054 90.877048 
L 114.301609 90.161529 
L 116.544163 89.064077 
L 118.786718 87.502505 
L 120.281754 86.260015 
L 127.009418 80.149095 
L 129.999491 78.055718 
L 132.242046 76.876078 
L 134.484601 76.030025 
L 135.979637 75.648092 
L 138.222192 75.362852 
L 139.717228 75.367686 
L 141.959783 75.73028 
L 143.454819 76.213739 
L 145.697374 77.219334 
L 147.939929 78.587522 
L 150.930001 80.680899 
L 153.920074 82.808119 
L 156.910147 84.669435 
L 159.90022 86.042459 
L 162.142775 86.704797 
L 163.637811 86.941692 
L 165.132848 87.004542 
L 166.627884 86.888512 
L 168.870439 86.463068 
L 171.112993 85.723376 
L 174.103066 84.451879 
L 179.335694 82.034584 
L 183.073285 80.511689 
L 187.558394 79.196681 
L 189.800949 78.761568 
L 192.791022 78.442485 
L 195.781095 78.452154 
L 200.266204 78.96462 
L 206.993868 80.37632 
L 213.721532 81.759013 
L 217.459123 82.276314 
L 222.69175 82.537382 
L 226.429342 82.435855 
L 231.4 82.055164 
L 231.4 82.055164 
" clip-path="url(#pad45976ded)" style="fill: none; stroke-dasharray: 7.5,6; stroke-dashoffset: 0; stroke: #6c757d; stroke-width: 1.5"/>
   </g>
   <g id="matplotlib.axis_1">
    <g id="xtick_1">
     <g id="line2d_4">
      <defs>
       <path id="mdd60e6a4cf" d="M 0 0 
L 0 3.5 
" style="stroke: #c2c1c1; stroke-width: 0.8"/>
      </defs>
      <g>
       <use xlink:href="#mdd60e6a4cf" x="26.094459" y="129.713302" style="fill: #c2c1c1; stroke: #c2c1c1; stroke-width: 0.8"/>
      </g>
     </g>
    </g>
    <g id="xtick_2">
     <g id="line2d_5">
      <g>
       <use xlink:href="#mdd60e6a4cf" x="51.011733" y="129.713302" style="fill: #c2c1c1; stroke: #c2c1c1; stroke-width: 0.8"/>
      </g>
     </g>
    </g>
    <g id="xtick_3">
     <g id="line2d_6">
      <g>
       <use xlink:href="#mdd60e6a4cf" x="75.929007" y="129.713302" style="fill: #c2c1c1; stroke: #c2c1c1; stroke-width: 0.8"/>
      </g>
     </g>
    </g>
    <g id="xtick_4">
     <g id="line2d_7">
      <g>
       <use xlink:href="#mdd60e6a4cf" x="100.846281" y="129.713302" style="fill: #c2c1c1; stroke: #c2c1c1; stroke-width: 0.8"/>
      </g>
     </g>
    </g>
    <g id="xtick_5">
     <g id="line2d_8">
      <g>
       <use xlink:href="#mdd60e6a4cf" x="125.763555" y="129.713302" style="fill: #c2c1c1; stroke: #c2c1c1; stroke-width: 0.8"/>
      </g>
     </g>
    </g>
    <g id="xtick_6">
     <g id="line2d_9">
      <g>
       <use xlink:href="#mdd60e6a4cf" x="150.680829" y="129.713302" style="fill: #c2c1c1; stroke: #c2c1c1; stroke-width: 0.8"/>
      </g>
     </g>
    </g>
    <g id="xtick_7">
     <g id="line2d_10">
      <g>
       <use xlink:href="#mdd60e6a4cf" x="175.598103" y="129.713302" style="fill: #c2c1c1; stroke: #c2c1c1; stroke-width: 0.8"/>
      </g>
     </g>
    </g>
    <g id="xtick_8">
     <g id="line2d_11">
      <g>
       <use xlink:href="#mdd60e6a4cf" x="200.515377" y="129.713302" style="fill: #c2c1c1; stroke: #c2c1c1; stroke-width: 0.8"/>
      </g>
     </g>
    </g>
    <g id="xtick_9">
     <g id="line2d_12">
      <g>
       <use xlink:href="#mdd60e6a4cf" x="225.432651" y="129.713302" style="fill: #c2c1c1; stroke: #c2c1c1; stroke-width: 0.8"/>
      </g>
     </g>
    </g>
   </g>
   <g id="matplotlib.axis_2">
    <g id="ytick_1">
     <g id="line2d_13">
      <defs>
       <path id="m87a72dcb35" d="M 0 0 
L -3.5 0 
" style="stroke: #c2c1c1; stroke-width: 0.8"/>
      </defs>
      <g>
       <use xlink:href="#m87a72dcb35" x="26.094459" y="129.713302" style="fill: #c2c1c1; stroke: #c2c1c1; stroke-width: 0.8"/>
      </g>
     </g>
     <g id="text_1">
      <!-- 0 -->
      <g style="fill: #191919" transform="translate(15.16024 132.338302) scale(0.07 -0.07)">
       <defs>
        <path id="Roboto-Regular-30" d="M 3234 1944 
Q 3234 825 2848 381 
Q 2463 -63 1800 -63 
Q 1156 -63 764 368 
Q 372 800 359 1872 
L 359 2638 
Q 359 3753 750 4183 
Q 1141 4613 1794 4613 
Q 2447 4613 2834 4195 
Q 3222 3778 3234 2709 
L 3234 1944 
z
M 2653 2734 
Q 2653 3503 2434 3822 
Q 2216 4141 1794 4141 
Q 1388 4141 1167 3831 
Q 947 3522 941 2778 
L 941 1850 
Q 941 1088 1164 750 
Q 1388 413 1800 413 
Q 2222 413 2436 745 
Q 2650 1078 2653 1825 
L 2653 2734 
z
" transform="scale(0.015625)"/>
       </defs>
       <use xlink:href="#Roboto-Regular-30"/>
      </g>
     </g>
    </g>
    <g id="ytick_2">
     <g id="line2d_14">
      <g>
       <use xlink:href="#m87a72dcb35" x="26.094459" y="81.367411" style="fill: #c2c1c1; stroke: #c2c1c1; stroke-width: 0.8"/>
      </g>
     </g>
     <g id="text_2">
      <!-- 1 -->
      <g style="fill: #191919" transform="translate(15.16024 83.992411) scale(0.07 -0.07)">
       <defs>
        <path id="Roboto-Regular-31" d="M 2278 4575 
L 2278 0 
L 1700 0 
L 1700 3853 
L 534 3428 
L 534 3950 
L 2188 4575 
L 2278 4575 
z
" transform="scale(0.015625)"/>
       </defs>
       <use xlink:href="#Roboto-Regular-31"/>
      </g>
     </g>
    </g>
    <g id="ytick_3">
     <g id="line2d_15">
      <g>
       <use xlink:href="#m87a72dcb35" x="26.094459" y="33.021521" style="fill: #c2c1c1; stroke: #c2c1c1; stroke-width: 0.8"/>
      </g>
     </g>
     <g id="text_3">
      <!-- 2 -->
      <g style="fill: #191919" transform="translate(15.16024 35.646521) scale(0.07 -0.07)">
       <defs>
        <path id="Roboto-Regular-32" d="M 3359 475 
L 3359 0 
L 381 0 
L 381 416 
L 1925 2134 
Q 2306 2566 2439 2819 
Q 2572 3072 2572 3328 
Q 2572 3663 2364 3900 
Q 2156 4138 1778 4138 
Q 1322 4138 1097 3878 
Q 872 3619 872 3213 
L 294 3213 
Q 294 3788 672 4200 
Q 1050 4613 1778 4613 
Q 2422 4613 2786 4278 
Q 3150 3944 3150 3397 
Q 3150 2997 2903 2592 
Q 2656 2188 2297 1797 
L 1078 475 
L 3359 475 
z
" transform="scale(0.015625)"/>
       </defs>
       <use xlink:href="#Roboto-Regular-32"/>
      </g>
     </g>
    </g>
    <g id="ytick_4">
     <g id="line2d_16">
      <defs>
       <path id="mff578443ea" d="M 0 0 
L -2 0 
" style="stroke: #c2c1c1; stroke-width: 0.6"/>
      </defs>
      <g>
       <use xlink:href="#mff578443ea" x="26.094459" y="105.540356" style="fill: #c2c1c1; stroke: #c2c1c1; stroke-width: 0.6"/>
      </g>
     </g>
    </g>
    <g id="ytick_5">
     <g id="line2d_17">
      <g>
       <use xlink:href="#mff578443ea" x="26.094459" y="57.194466" style="fill: #c2c1c1; stroke: #c2c1c1; stroke-width: 0.6"/>
      </g>
     </g>
    </g>
    <g id="ytick_6">
     <g id="line2d_18">
      <g>
       <use xlink:href="#mff578443ea" x="26.094459" y="8.848575" style="fill: #c2c1c1; stroke: #c2c1c1; stroke-width: 0.6"/>
      </g>
     </g>
    </g>
    <g id="text_4">
     <!-- g$\mathregular{_{OO}}$(r) -->
     <g style="fill: #191919" transform="translate(9.32024 76.956771) rotate(-90) scale(0.08 -0.08)">
      <defs>
       <path id="Roboto-Bold-67" d="M 1681 -1331 
Q 1375 -1331 1008 -1203 
Q 641 -1075 422 -803 
L 822 -253 
Q 1156 -628 1644 -628 
Q 2003 -628 2203 -436 
Q 2403 -244 2403 113 
L 2403 294 
Q 2084 -63 1581 -63 
Q 953 -63 587 418 
Q 222 900 216 1625 
L 216 1716 
Q 216 2488 583 2966 
Q 950 3444 1588 3444 
Q 2147 3444 2456 3063 
L 2491 3381 
L 3309 3381 
L 3309 116 
Q 3309 -581 2857 -956 
Q 2406 -1331 1681 -1331 
z
M 1119 1650 
Q 1119 1244 1286 958 
Q 1453 672 1809 672 
Q 2222 672 2403 984 
L 2403 2403 
Q 2225 2713 1816 2713 
Q 1463 2713 1291 2423 
Q 1119 2134 1119 1716 
L 1119 1650 
z
" transform="scale(0.015625)"/>
       <path id="Roboto-Bold-4f" d="M 4147 2172 
Q 4147 1131 3608 534 
Q 3069 -63 2212 -63 
Q 1356 -63 812 534 
Q 269 1131 269 2172 
L 269 2375 
Q 269 3416 809 4014 
Q 1350 4613 2206 4613 
Q 3063 4613 3605 4014 
Q 4147 3416 4147 2375 
L 4147 2172 
z
M 3197 2381 
Q 3197 3094 2937 3466 
Q 2678 3838 2206 3838 
Q 1734 3838 1478 3470 
Q 1222 3103 1219 2397 
L 1219 2172 
Q 1219 1463 1478 1086 
Q 1738 709 2213 709 
Q 2684 709 2939 1081 
Q 3194 1453 3197 2156 
L 3197 2381 
z
" transform="scale(0.015625)"/>
       <path id="Roboto-Bold-28" d="M 391 1850 
Q 391 2731 633 3392 
Q 875 4053 1234 4473 
Q 1594 4894 1947 5053 
L 2122 4566 
Q 1772 4303 1465 3661 
Q 1159 3019 1153 1906 
L 1153 1772 
Q 1153 628 1461 -23 
Q 1769 -675 2122 -944 
L 1947 -1422 
Q 1594 -1266 1234 -845 
Q 875 -425 633 237 
Q 391 900 391 1778 
L 391 1850 
z
" transform="scale(0.015625)"/>
       <path id="Roboto-Bold-72" d="M 1922 2563 
Q 1413 2563 1253 2216 
L 1253 0 
L 347 0 
L 347 3381 
L 1200 3381 
L 1228 2978 
Q 1494 3444 1981 3444 
Q 2153 3444 2259 3403 
L 2250 2538 
L 1922 2563 
z
" transform="scale(0.015625)"/>
       <path id="Roboto-Bold-29" d="M 1906 1778 
Q 1906 928 1656 264 
Q 1406 -400 1034 -833 
Q 663 -1266 300 -1422 
L 125 -944 
Q 472 -684 780 -37 
Q 1088 609 1094 1722 
L 1094 1856 
Q 1094 3000 780 3656 
Q 466 4313 125 4572 
L 300 5053 
Q 663 4894 1034 4461 
Q 1406 4028 1656 3364 
Q 1906 2700 1906 1847 
L 1906 1778 
z
" transform="scale(0.015625)"/>
      </defs>
      <use xlink:href="#Roboto-Bold-67" transform="translate(0 0.046875)"/>
      <use xlink:href="#Roboto-Bold-4f" transform="translate(58.053398 -15.801563) scale(0.7)"/>
      <use xlink:href="#Roboto-Bold-4f" transform="translate(106.383477 -15.801563) scale(0.7)"/>
      <use xlink:href="#Roboto-Bold-28" transform="translate(157.354961 0.046875)"/>
      <use xlink:href="#Roboto-Bold-72" transform="translate(192.462383 0.046875)"/>
      <use xlink:href="#Roboto-Bold-29" transform="translate(228.98582 0.046875)"/>
     </g>
    </g>
   </g>
   <g id="patch_3">
    <path d="M 26.094459 129.713302 
L 26.094459 3.00024 
" style="fill: none; stroke: #c2c1c1; stroke-width: 0.8; stroke-linejoin: miter; stroke-linecap: square"/>
   </g>
   <g id="patch_4">
    <path d="M 225.432651 129.713302 
L 225.432651 3.00024 
" style="fill: none; stroke: #c2c1c1; stroke-width: 0.8; stroke-linejoin: miter; stroke-linecap: square"/>
   </g>
   <g id="patch_5">
    <path d="M 26.094459 129.713302 
L 225.432651 129.713302 
" style="fill: none; stroke: #c2c1c1; stroke-width: 0.8; stroke-linejoin: miter; stroke-linecap: square"/>
   </g>
   <g id="patch_6">
    <path d="M 26.094459 3.00024 
L 225.432651 3.00024 
" style="fill: none; stroke: #c2c1c1; stroke-width: 0.8; stroke-linejoin: miter; stroke-linecap: square"/>
   </g>
   <g id="text_5">
    <!-- A -->
    <g transform="translate(30.081223 15.671546) scale(0.096 -0.096)">
     <defs>
      <path id="Roboto-Bold-41" d="M 25 0 
L 1719 4550 
L 2588 4550 
L 4291 0 
L 3291 0 
L 2978 938 
L 1331 938 
L 1019 0 
L 25 0 
z
M 1584 1697 
L 2725 1697 
L 2156 3406 
L 1584 1697 
z
" transform="scale(0.015625)"/>
     </defs>
     <use xlink:href="#Roboto-Bold-41"/>
    </g>
   </g>
   <g id="legend_1">
    <g id="line2d_19">
     <path d="M 181.112651 118.088302 
L 189.112651 118.088302 
L 197.112651 118.088302 
" style="fill: none; stroke: #4abbf3; stroke-width: 1.5; stroke-linecap: square"/>
    </g>
    <g id="text_6">
     <!-- H$\mathregular{_2}$O -->
     <g transform="translate(203.512651 120.888302) scale(0.08 -0.08)">
      <defs>
       <path id="Roboto-Regular-48" d="M 3425 0 
L 3425 2103 
L 1131 2103 
L 1131 0 
L 528 0 
L 528 4550 
L 1131 4550 
L 1131 2594 
L 3425 2594 
L 3425 4550 
L 4025 4550 
L 4025 0 
L 3425 0 
z
" transform="scale(0.015625)"/>
       <path id="Roboto-Regular-4f" d="M 4031 2131 
Q 4031 1106 3534 521 
Q 3038 -63 2206 -63 
Q 1397 -63 884 521 
Q 372 1106 372 2131 
L 372 2419 
Q 372 3441 881 4027 
Q 1391 4613 2200 4613 
Q 3025 4613 3523 4036 
Q 4022 3459 4031 2456 
L 4031 2131 
z
M 3434 2425 
Q 3434 3238 3109 3669 
Q 2784 4100 2200 4100 
Q 1641 4100 1305 3669 
Q 969 3238 969 2425 
L 969 2131 
Q 969 1313 1308 880 
Q 1647 447 2206 447 
Q 2794 447 3114 880 
Q 3434 1313 3434 2131 
L 3434 2425 
z
" transform="scale(0.015625)"/>
      </defs>
      <use xlink:href="#Roboto-Regular-48" transform="translate(0 0.921875)"/>
      <use xlink:href="#Roboto-Regular-32" transform="translate(72.262383 -14.926563) scale(0.7)"/>
      <use xlink:href="#Roboto-Regular-4f" transform="translate(114.244609 0.921875)"/>
     </g>
    </g>
   </g>
  </g>
  <g id="axes_2">
   <g id="patch_7">
    <path d="M 26.094459 266.473718 
L 225.432651 266.473718 
L 225.432651 139.760657 
L 26.094459 139.760657 
z
" style="fill: #ffffff"/>
   </g>
   <g id="line2d_20">
    <path d="M 26.094459 169.991541 
L 225.432651 169.991541 
" clip-path="url(#pfbc648556d)" style="fill: none; stroke-dasharray: 1.5,6; stroke-dashoffset: 0; stroke: #c0c0c0; stroke-width: 1.5"/>
   </g>
   <g id="line2d_21">
    <path d="M 27.340322 266.473718 
L 29.83205 266.473718 
L 32.323777 266.473718 
L 34.815505 266.473718 
L 37.307232 266.473718 
L 39.798959 266.473718 
L 42.290687 266.473718 
L 44.782414 266.473718 
L 47.274142 266.473718 
L 49.765869 266.473718 
L 52.257596 266.473718 
L 54.749324 266.473718 
L 57.241051 266.473718 
L 59.732779 266.473718 
L 62.224506 266.473718 
L 64.716233 266.473718 
L 67.207961 266.473718 
L 69.699688 266.473718 
L 72.191416 266.473718 
L 74.683143 266.473718 
L 77.17487 266.473718 
L 79.666598 266.454416 
L 82.158325 266.403217 
L 84.650053 266.108313 
L 87.14178 265.817348 
L 89.633507 264.463884 
L 92.125235 261.612955 
L 94.616962 256.381613 
L 97.10869 247.544895 
L 99.600417 233.592773 
L 102.092144 218.182612 
L 104.583872 204.125825 
L 107.075599 186.876662 
L 109.567327 173.243852 
L 112.059054 162.636897 
L 114.550781 156.599713 
L 117.042509 153.661184 
L 119.534236 152.833176 
L 122.025964 153.059206 
L 124.517691 154.559232 
L 127.009418 159.439415 
L 129.501146 160.829731 
L 131.992873 162.368867 
L 134.484601 164.521865 
L 136.976328 167.92811 
L 139.468055 168.377615 
L 141.959783 167.785688 
L 144.45151 168.845791 
L 146.943238 169.76553 
L 149.434965 167.471801 
L 151.926692 167.081669 
L 154.41842 165.226958 
L 156.910147 161.920133 
L 159.401875 158.916503 
L 161.893602 157.51788 
L 164.385329 156.682554 
L 166.877057 155.41478 
L 169.368784 157.234811 
L 171.860512 158.596792 
L 174.352239 161.209649 
L 176.843966 164.083911 
L 179.335694 164.830131 
L 181.827421 165.672782 
L 184.319149 167.259026 
L 186.810876 167.656916 
L 189.302603 168.104145 
L 191.794331 168.804075 
L 194.286058 169.814577 
L 196.777786 170.334564 
L 199.269513 171.40463 
L 201.76124 171.124424 
L 204.252968 170.581688 
L 206.744695 172.291751 
L 209.236423 172.666291 
L 211.72815 172.155124 
L 214.219877 172.370464 
L 216.711605 172.031257 
L 219.203332 171.976222 
L 221.69506 171.958524 
L 224.186787 172.303324 
L 226.678514 171.899137 
L 229.170242 171.943087 
L 231.4 171.563679 
" clip-path="url(#pfbc648556d)" style="fill: none; stroke: #61bfa3; stroke-width: 1.5; stroke-linecap: square"/>
   </g>
   <g id="line2d_22">
    <path d="M 26.094459 266.473718 
L 65.018727 266.473718 
L 84.398829 266.473718 
L 88.303561 266.473718 
L 93.241898 266.473718 
L 97.261474 265.310289 
L 100.936517 259.598927 
L 102.314658 255.368283 
L 103.233418 250.92611 
L 104.037334 247.118525 
L 104.726402 243.09941 
L 105.415475 238.657238 
L 106.104544 234.215065 
L 106.678769 229.984422 
L 107.252994 225.330712 
L 107.82722 221.523134 
L 108.401445 216.657896 
L 108.97567 212.215715 
L 109.779586 206.715882 
L 110.353812 201.639106 
L 111.04288 196.985397 
L 111.846796 190.427903 
L 112.421022 186.197259 
L 113.110095 181.543549 
L 113.914006 176.88984 
L 114.701171 172.007356 
L 115.866373 166.101702 
L 116.89998 161.236463 
L 118.048431 157.217349 
L 119.311725 153.198238 
L 120.804709 149.813723 
L 123.101615 146.852273 
L 125.398516 145.794612 
L 127.350878 145.794612 
L 129.188397 146.64074 
L 131.025925 147.698401 
L 132.633748 148.544529 
L 134.241581 150.025256 
L 135.73457 151.082916 
L 137.457246 152.35211 
L 139.179922 153.621304 
L 140.902597 154.678965 
L 142.395578 155.525093 
L 144.00341 156.371221 
L 145.726086 156.794287 
L 147.563605 157.217349 
L 149.171437 157.217349 
L 150.894113 157.217349 
L 152.616789 157.217349 
L 154.454308 156.582754 
L 156.291836 155.736626 
L 158.014511 154.890494 
L 159.737187 154.044366 
L 161.345011 152.986705 
L 162.723157 152.140577 
L 164.330989 151.505982 
L 166.168508 151.505982 
L 167.891184 152.35211 
L 169.499016 153.832833 
L 170.877153 155.525093 
L 172.140447 157.640415 
L 173.403741 159.967266 
L 174.667036 162.082587 
L 176.04518 164.620975 
L 177.653014 166.736297 
L 179.145993 169.063156 
L 180.753827 170.96694 
L 182.246816 172.236138 
L 183.739795 173.293799 
L 185.577315 174.139923 
L 187.529686 174.562989 
L 189.482049 174.774518 
L 191.434419 174.562989 
L 193.501625 174.562989 
L 195.224309 174.774518 
L 197.06182 174.774518 
L 198.66966 175.197584 
L 200.622023 175.409121 
L 202.689229 176.043716 
L 204.297061 176.466782 
L 206.019736 176.88984 
L 207.742412 177.312906 
L 209.350253 177.735972 
L 211.072929 178.159038 
L 212.91044 178.370567 
L 214.518281 178.582104 
L 216.470643 178.793633 
L 218.423005 178.582104 
L 220.375369 178.370567 
L 222.557434 177.947501 
L 224.624632 177.312906 
L 226.675299 176.814944 
L 228.759061 176.043716 
L 230.720976 175.132284 
L 231.4 174.798765 
" clip-path="url(#pfbc648556d)" style="fill: none; stroke-dasharray: 7.5,6; stroke-dashoffset: 0; stroke: #6c757d; stroke-width: 1.5"/>
   </g>
   <g id="matplotlib.axis_3">
    <g id="xtick_10">
     <g id="line2d_23">
      <g>
       <use xlink:href="#mdd60e6a4cf" x="26.094459" y="266.473718" style="fill: #c2c1c1; stroke: #c2c1c1; stroke-width: 0.8"/>
      </g>
     </g>
    </g>
    <g id="xtick_11">
     <g id="line2d_24">
      <g>
       <use xlink:href="#mdd60e6a4cf" x="51.011733" y="266.473718" style="fill: #c2c1c1; stroke: #c2c1c1; stroke-width: 0.8"/>
      </g>
     </g>
    </g>
    <g id="xtick_12">
     <g id="line2d_25">
      <g>
       <use xlink:href="#mdd60e6a4cf" x="75.929007" y="266.473718" style="fill: #c2c1c1; stroke: #c2c1c1; stroke-width: 0.8"/>
      </g>
     </g>
    </g>
    <g id="xtick_13">
     <g id="line2d_26">
      <g>
       <use xlink:href="#mdd60e6a4cf" x="100.846281" y="266.473718" style="fill: #c2c1c1; stroke: #c2c1c1; stroke-width: 0.8"/>
      </g>
     </g>
    </g>
    <g id="xtick_14">
     <g id="line2d_27">
      <g>
       <use xlink:href="#mdd60e6a4cf" x="125.763555" y="266.473718" style="fill: #c2c1c1; stroke: #c2c1c1; stroke-width: 0.8"/>
      </g>
     </g>
    </g>
    <g id="xtick_15">
     <g id="line2d_28">
      <g>
       <use xlink:href="#mdd60e6a4cf" x="150.680829" y="266.473718" style="fill: #c2c1c1; stroke: #c2c1c1; stroke-width: 0.8"/>
      </g>
     </g>
    </g>
    <g id="xtick_16">
     <g id="line2d_29">
      <g>
       <use xlink:href="#mdd60e6a4cf" x="175.598103" y="266.473718" style="fill: #c2c1c1; stroke: #c2c1c1; stroke-width: 0.8"/>
      </g>
     </g>
    </g>
    <g id="xtick_17">
     <g id="line2d_30">
      <g>
       <use xlink:href="#mdd60e6a4cf" x="200.515377" y="266.473718" style="fill: #c2c1c1; stroke: #c2c1c1; stroke-width: 0.8"/>
      </g>
     </g>
    </g>
    <g id="xtick_18">
     <g id="line2d_31">
      <g>
       <use xlink:href="#mdd60e6a4cf" x="225.432651" y="266.473718" style="fill: #c2c1c1; stroke: #c2c1c1; stroke-width: 0.8"/>
      </g>
     </g>
    </g>
   </g>
   <g id="matplotlib.axis_4">
    <g id="ytick_7">
     <g id="line2d_32">
      <g>
       <use xlink:href="#m87a72dcb35" x="26.094459" y="266.473718" style="fill: #c2c1c1; stroke: #c2c1c1; stroke-width: 0.8"/>
      </g>
     </g>
     <g id="text_7">
      <!-- 0 -->
      <g style="fill: #191919" transform="translate(15.16024 269.098718) scale(0.07 -0.07)">
       <use xlink:href="#Roboto-Regular-30"/>
      </g>
     </g>
    </g>
    <g id="ytick_8">
     <g id="line2d_33">
      <g>
       <use xlink:href="#m87a72dcb35" x="26.094459" y="169.991541" style="fill: #c2c1c1; stroke: #c2c1c1; stroke-width: 0.8"/>
      </g>
     </g>
     <g id="text_8">
      <!-- 1 -->
      <g style="fill: #191919" transform="translate(15.16024 172.616541) scale(0.07 -0.07)">
       <use xlink:href="#Roboto-Regular-31"/>
      </g>
     </g>
    </g>
    <g id="ytick_9">
     <g id="line2d_34">
      <g>
       <use xlink:href="#mff578443ea" x="26.094459" y="218.23263" style="fill: #c2c1c1; stroke: #c2c1c1; stroke-width: 0.6"/>
      </g>
     </g>
    </g>
    <g id="text_9">
     <!-- g$\mathregular{_{NN}}$(r) -->
     <g style="fill: #191919" transform="translate(9.32024 213.797188) rotate(-90) scale(0.08 -0.08)">
      <defs>
       <path id="Roboto-Bold-4e" d="M 4109 4550 
L 4109 0 
L 3172 0 
L 1347 2997 
L 1347 0 
L 406 0 
L 406 4550 
L 1347 4550 
L 3172 1550 
L 3172 4550 
L 4109 4550 
z
" transform="scale(0.015625)"/>
      </defs>
      <use xlink:href="#Roboto-Bold-67" transform="translate(0 0.046875)"/>
      <use xlink:href="#Roboto-Bold-4e" transform="translate(58.053398 -15.801563) scale(0.7)"/>
      <use xlink:href="#Roboto-Bold-4e" transform="translate(107.511406 -15.801563) scale(0.7)"/>
      <use xlink:href="#Roboto-Bold-28" transform="translate(159.61082 0.046875)"/>
      <use xlink:href="#Roboto-Bold-72" transform="translate(194.718242 0.046875)"/>
      <use xlink:href="#Roboto-Bold-29" transform="translate(231.24168 0.046875)"/>
     </g>
    </g>
   </g>
   <g id="patch_8">
    <path d="M 26.094459 266.473718 
L 26.094459 139.760657 
" style="fill: none; stroke: #c2c1c1; stroke-width: 0.8; stroke-linejoin: miter; stroke-linecap: square"/>
   </g>
   <g id="patch_9">
    <path d="M 225.432651 266.473718 
L 225.432651 139.760657 
" style="fill: none; stroke: #c2c1c1; stroke-width: 0.8; stroke-linejoin: miter; stroke-linecap: square"/>
   </g>
   <g id="patch_10">
    <path d="M 26.094459 266.473718 
L 225.432651 266.473718 
" style="fill: none; stroke: #c2c1c1; stroke-width: 0.8; stroke-linejoin: miter; stroke-linecap: square"/>
   </g>
   <g id="patch_11">
    <path d="M 26.094459 139.760657 
L 225.432651 139.760657 
" style="fill: none; stroke: #c2c1c1; stroke-width: 0.8; stroke-linejoin: miter; stroke-linecap: square"/>
   </g>
   <g id="text_10">
    <!-- B -->
    <g transform="translate(30.081223 152.431963) scale(0.096 -0.096)">
     <defs>
      <path id="Roboto-Bold-42" d="M 3788 1341 
Q 3788 684 3369 345 
Q 2950 6 2175 0 
L 406 0 
L 406 4550 
L 2003 4550 
Q 2794 4550 3241 4247 
Q 3688 3944 3688 3306 
Q 3688 2997 3531 2737 
Q 3375 2478 3038 2344 
Q 3438 2244 3613 1956 
Q 3788 1669 3788 1341 
z
M 1347 3791 
L 1347 2647 
L 2003 2647 
Q 2747 2647 2747 3209 
Q 2747 3778 2034 3791 
L 1347 3791 
z
M 2850 1350 
Q 2850 1963 2231 1984 
L 1347 1984 
L 1347 756 
L 2147 756 
Q 2506 756 2678 925 
Q 2850 1094 2850 1350 
z
" transform="scale(0.015625)"/>
     </defs>
     <use xlink:href="#Roboto-Bold-42"/>
    </g>
   </g>
   <g id="legend_2">
    <g id="line2d_35">
     <path d="M 173.690151 254.848718 
L 181.690151 254.848718 
L 189.690151 254.848718 
" style="fill: none; stroke: #61bfa3; stroke-width: 1.5; stroke-linecap: square"/>
    </g>
    <g id="text_11">
     <!-- MeCN -->
     <g transform="translate(196.090151 257.648718) scale(0.08 -0.08)">
      <defs>
       <path id="Roboto-Regular-4d" d="M 2794 841 
L 4281 4550 
L 5056 4550 
L 5056 0 
L 4456 0 
L 4456 1775 
L 4516 3678 
L 3019 0 
L 2563 0 
L 1069 3684 
L 1128 1775 
L 1128 0 
L 528 0 
L 528 4550 
L 1303 4550 
L 2794 841 
z
" transform="scale(0.015625)"/>
       <path id="Roboto-Regular-65" d="M 3116 591 
Q 2950 341 2647 139 
Q 2344 -63 1844 -63 
Q 1138 -63 714 396 
Q 291 856 291 1572 
L 291 1703 
Q 291 2256 502 2645 
Q 713 3034 1050 3239 
Q 1388 3444 1769 3444 
Q 2494 3444 2826 2970 
Q 3159 2497 3159 1788 
L 3159 1528 
L 872 1528 
Q 884 1063 1148 736 
Q 1413 409 1875 409 
Q 2181 409 2393 534 
Q 2606 659 2766 869 
L 3116 591 
z
M 1769 2969 
Q 1425 2969 1187 2719 
Q 950 2469 891 2000 
L 2581 2000 
L 2581 2044 
Q 2559 2381 2386 2675 
Q 2213 2969 1769 2969 
z
" transform="scale(0.015625)"/>
       <path id="Roboto-Regular-43" d="M 3275 1447 
L 3875 1447 
Q 3806 800 3387 368 
Q 2969 -63 2150 -63 
Q 1356 -63 870 504 
Q 384 1072 375 2013 
L 375 2500 
Q 375 3456 867 4034 
Q 1359 4613 2203 4613 
Q 2975 4613 3390 4188 
Q 3806 3763 3875 3091 
L 3275 3091 
Q 3206 3566 2968 3842 
Q 2731 4119 2203 4119 
Q 1600 4119 1287 3675 
Q 975 3231 975 2506 
L 975 2047 
Q 975 1375 1259 901 
Q 1544 428 2150 428 
Q 2725 428 2961 697 
Q 3197 966 3275 1447 
z
" transform="scale(0.015625)"/>
       <path id="Roboto-Regular-4e" d="M 4028 4550 
L 4028 0 
L 3422 0 
L 1131 3509 
L 1131 0 
L 528 0 
L 528 4550 
L 1131 4550 
L 3431 1031 
L 3431 4550 
L 4028 4550 
z
" transform="scale(0.015625)"/>
      </defs>
      <use xlink:href="#Roboto-Regular-4d"/>
      <use xlink:href="#Roboto-Regular-65" x="87.304688"/>
      <use xlink:href="#Roboto-Regular-43" x="140.332031"/>
      <use xlink:href="#Roboto-Regular-4e" x="205.419922"/>
     </g>
    </g>
   </g>
  </g>
  <g id="axes_3">
   <g id="patch_12">
    <path d="M 26.094459 403.234135 
L 225.432651 403.234135 
L 225.432651 276.521073 
L 26.094459 276.521073 
z
" style="fill: #ffffff"/>
   </g>
   <g id="line2d_36">
    <path d="M 26.094459 347.737884 
L 225.432651 347.737884 
" clip-path="url(#pb982d8dad3)" style="fill: none; stroke-dasharray: 1.5,6; stroke-dashoffset: 0; stroke: #c0c0c0; stroke-width: 1.5"/>
   </g>
   <g id="line2d_37">
    <path d="M 27.340322 403.234135 
L 29.83205 403.234135 
L 32.323777 403.234135 
L 34.815505 403.234135 
L 37.307232 403.234135 
L 39.798959 403.234135 
L 42.290687 403.234135 
L 44.782414 403.234135 
L 47.274142 403.234135 
L 49.765869 403.234135 
L 52.257596 403.234135 
L 54.749324 403.234135 
L 57.241051 403.234135 
L 59.732779 403.234135 
L 62.224506 403.234135 
L 64.716233 403.234135 
L 67.207961 403.234135 
L 69.699688 403.234135 
L 72.191416 403.234135 
L 74.683143 403.234135 
L 77.17487 403.234135 
L 79.666598 403.234135 
L 82.158325 403.234135 
L 84.650053 403.057123 
L 87.14178 399.859774 
L 89.633507 380.577113 
L 92.125235 338.125415 
L 94.616962 296.975257 
L 97.10869 282.555029 
L 99.600417 295.983868 
L 102.092144 315.806888 
L 104.583872 335.05436 
L 107.075599 348.126202 
L 109.567327 354.402732 
L 112.059054 358.866097 
L 114.550781 361.636535 
L 117.042509 361.966408 
L 119.534236 361.363255 
L 122.025964 360.737672 
L 124.517691 359.234156 
L 127.009418 356.454285 
L 129.501146 353.153485 
L 131.992873 350.329409 
L 134.484601 347.585604 
L 136.976328 345.675934 
L 139.468055 343.44048 
L 141.959783 343.310568 
L 144.45151 342.939226 
L 146.943238 344.173958 
L 149.434965 346.362816 
L 151.926692 348.026303 
L 154.41842 349.093459 
L 156.910147 350.114952 
L 159.401875 350.532523 
L 161.893602 351.436246 
L 164.385329 351.509047 
L 166.877057 350.784519 
L 169.368784 349.561493 
L 171.860512 349.999585 
L 174.352239 349.587077 
L 176.843966 348.682376 
L 179.335694 348.173753 
L 181.827421 348.245455 
L 184.319149 347.979345 
L 186.810876 347.743147 
L 189.302603 346.644935 
L 191.794331 346.901409 
L 194.286058 346.819687 
L 196.777786 345.775306 
L 199.269513 345.654361 
L 201.76124 344.942606 
L 204.252968 345.157396 
L 206.744695 345.258594 
L 209.236423 344.747554 
L 211.72815 345.166273 
L 214.219877 345.239259 
L 216.711605 345.820314 
L 219.203332 345.684058 
L 221.69506 346.010995 
L 224.186787 345.130443 
" clip-path="url(#pb982d8dad3)" style="fill: none; stroke: #ffb5ba; stroke-width: 1.5; stroke-linecap: square"/>
   </g>
   <g id="line2d_38">
    <path d="M 30.830583 403.234135 
L 63.98345 403.234135 
L 80.823001 403.234135 
L 84.243535 402.564968 
L 86.085361 400.6913 
L 86.874715 397.211632 
L 87.664069 393.464297 
L 87.927187 389.181628 
L 88.453423 385.701959 
L 88.453423 381.954624 
L 88.716541 377.404288 
L 88.716541 372.318619 
L 88.979659 368.303617 
L 89.242777 363.753281 
L 89.505895 351.708275 
L 89.769013 347.157939 
L 90.032131 343.142937 
L 90.558367 338.592601 
L 90.821485 329.49193 
L 91.347721 325.744595 
L 91.610839 320.391259 
L 91.873957 315.037922 
L 92.137075 304.598917 
L 92.663311 300.316248 
L 92.926429 297.104246 
L 93.715783 293.892245 
L 94.768255 297.371913 
L 95.557609 300.048581 
L 96.083845 302.725249 
L 96.346963 305.401917 
L 96.873199 308.346252 
L 97.136317 311.290587 
L 97.662553 314.234922 
L 97.925671 317.446924 
L 98.188789 320.658925 
L 98.451907 324.138594 
L 98.715025 327.350595 
L 99.241261 330.29493 
L 99.767497 332.971598 
L 100.030615 336.1836 
L 100.819969 339.395602 
L 101.346205 342.607603 
L 102.135559 345.819605 
L 102.924913 349.56694 
L 103.714267 352.778942 
L 104.766739 355.723277 
L 106.082329 358.399945 
L 107.661037 360.273613 
L 109.502863 362.414947 
L 111.607807 364.556282 
L 113.712751 364.823948 
L 116.343931 364.556282 
L 118.711992 363.217947 
L 120.816936 361.076613 
L 122.92188 359.202945 
L 124.763706 357.864611 
L 126.605532 356.258611 
L 127.921122 353.849609 
L 129.236712 351.975942 
L 131.078538 349.834607 
L 132.920364 347.425606 
L 134.76219 344.748938 
L 136.604016 342.339937 
L 138.70896 339.930935 
L 141.34014 340.198602 
L 143.708202 341.001603 
L 146.339382 342.607603 
L 148.707444 343.945937 
L 150.286152 345.819605 
L 152.391096 347.157939 
L 154.759158 347.96094 
L 156.864102 348.496273 
L 160.021517 349.56694 
L 162.915815 350.102274 
L 165.810113 350.637608 
L 168.178175 350.637608 
L 170.546237 350.369941 
L 173.440535 350.369941 
L 176.071715 349.834607 
L 178.966013 349.56694 
L 181.334075 348.76394 
L 183.175901 348.496273 
L 185.280845 347.96094 
L 187.648907 347.425606 
L 190.280087 347.157939 
L 193.174385 346.890272 
L 195.279329 346.890272 
L 197.910509 346.890272 
L 199.752334 346.890272 
L 202.383514 346.622606 
L 204.751576 347.157939 
L 207.645874 347.425606 
L 210.277054 347.693273 
L 212.908234 347.693273 
L 215.276296 347.96094 
L 217.907476 348.496273 
L 221.064892 348.76394 
L 224.485426 349.031607 
L 228.169078 349.031607 
L 231.063376 349.031607 
L 231.4 349.031607 
" clip-path="url(#pb982d8dad3)" style="fill: none; stroke-dasharray: 7.5,6; stroke-dashoffset: 0; stroke: #6c757d; stroke-width: 1.5"/>
   </g>
   <g id="matplotlib.axis_5">
    <g id="xtick_19">
     <g id="line2d_39">
      <g>
       <use xlink:href="#mdd60e6a4cf" x="26.094459" y="403.234135" style="fill: #c2c1c1; stroke: #c2c1c1; stroke-width: 0.8"/>
      </g>
     </g>
     <g id="text_12">
      <!-- 0 -->
      <g style="fill: #191919" transform="translate(24.127349 415.484135) scale(0.07 -0.07)">
       <use xlink:href="#Roboto-Regular-30"/>
      </g>
     </g>
    </g>
    <g id="xtick_20">
     <g id="line2d_40">
      <g>
       <use xlink:href="#mdd60e6a4cf" x="51.011733" y="403.234135" style="fill: #c2c1c1; stroke: #c2c1c1; stroke-width: 0.8"/>
      </g>
     </g>
     <g id="text_13">
      <!-- 1 -->
      <g style="fill: #191919" transform="translate(49.044623 415.484135) scale(0.07 -0.07)">
       <use xlink:href="#Roboto-Regular-31"/>
      </g>
     </g>
    </g>
    <g id="xtick_21">
     <g id="line2d_41">
      <g>
       <use xlink:href="#mdd60e6a4cf" x="75.929007" y="403.234135" style="fill: #c2c1c1; stroke: #c2c1c1; stroke-width: 0.8"/>
      </g>
     </g>
     <g id="text_14">
      <!-- 2 -->
      <g style="fill: #191919" transform="translate(73.961897 415.484135) scale(0.07 -0.07)">
       <use xlink:href="#Roboto-Regular-32"/>
      </g>
     </g>
    </g>
    <g id="xtick_22">
     <g id="line2d_42">
      <g>
       <use xlink:href="#mdd60e6a4cf" x="100.846281" y="403.234135" style="fill: #c2c1c1; stroke: #c2c1c1; stroke-width: 0.8"/>
      </g>
     </g>
     <g id="text_15">
      <!-- 3 -->
      <g style="fill: #191919" transform="translate(98.879171 415.484135) scale(0.07 -0.07)">
       <defs>
        <path id="Roboto-Regular-33" d="M 1222 2084 
L 1222 2559 
L 1647 2559 
Q 2094 2563 2312 2784 
Q 2531 3006 2531 3338 
Q 2531 4138 1738 4138 
Q 1369 4138 1141 3927 
Q 913 3716 913 3359 
L 334 3359 
Q 334 3881 720 4247 
Q 1106 4613 1738 4613 
Q 2353 4613 2733 4286 
Q 3113 3959 3113 3325 
Q 3113 3072 2942 2784 
Q 2772 2497 2397 2338 
Q 2850 2191 3015 1884 
Q 3181 1578 3181 1269 
Q 3181 631 2768 284 
Q 2356 -63 1741 -63 
Q 1147 -63 722 267 
Q 297 597 297 1203 
L 875 1203 
Q 875 844 1108 628 
Q 1341 413 1741 413 
Q 2138 413 2369 622 
Q 2600 831 2600 1256 
Q 2600 1681 2337 1882 
Q 2075 2084 1634 2084 
L 1222 2084 
z
" transform="scale(0.015625)"/>
       </defs>
       <use xlink:href="#Roboto-Regular-33"/>
      </g>
     </g>
    </g>
    <g id="xtick_23">
     <g id="line2d_43">
      <g>
       <use xlink:href="#mdd60e6a4cf" x="125.763555" y="403.234135" style="fill: #c2c1c1; stroke: #c2c1c1; stroke-width: 0.8"/>
      </g>
     </g>
     <g id="text_16">
      <!-- 4 -->
      <g style="fill: #191919" transform="translate(123.796445 415.484135) scale(0.07 -0.07)">
       <defs>
        <path id="Roboto-Regular-34" d="M 166 1397 
L 2203 4550 
L 2819 4550 
L 2819 1531 
L 3453 1531 
L 3453 1056 
L 2819 1056 
L 2819 0 
L 2241 0 
L 2241 1056 
L 166 1056 
L 166 1397 
z
M 822 1531 
L 2241 1531 
L 2241 3766 
L 2169 3638 
L 822 1531 
z
" transform="scale(0.015625)"/>
       </defs>
       <use xlink:href="#Roboto-Regular-34"/>
      </g>
     </g>
    </g>
    <g id="xtick_24">
     <g id="line2d_44">
      <g>
       <use xlink:href="#mdd60e6a4cf" x="150.680829" y="403.234135" style="fill: #c2c1c1; stroke: #c2c1c1; stroke-width: 0.8"/>
      </g>
     </g>
     <g id="text_17">
      <!-- 5 -->
      <g style="fill: #191919" transform="translate(148.713719 415.484135) scale(0.07 -0.07)">
       <defs>
        <path id="Roboto-Regular-35" d="M 1109 2166 
L 647 2284 
L 875 4550 
L 3209 4550 
L 3209 4016 
L 1366 4016 
L 1228 2778 
Q 1572 2975 1988 2975 
Q 2616 2975 2980 2561 
Q 3344 2147 3344 1450 
Q 3344 797 2987 367 
Q 2631 -63 1903 -63 
Q 1350 -63 947 248 
Q 544 559 481 1197 
L 1031 1197 
Q 1141 413 1903 413 
Q 2313 413 2538 691 
Q 2763 969 2763 1444 
Q 2763 1872 2527 2164 
Q 2291 2456 1853 2456 
Q 1563 2456 1413 2378 
Q 1263 2300 1109 2166 
z
" transform="scale(0.015625)"/>
       </defs>
       <use xlink:href="#Roboto-Regular-35"/>
      </g>
     </g>
    </g>
    <g id="xtick_25">
     <g id="line2d_45">
      <g>
       <use xlink:href="#mdd60e6a4cf" x="175.598103" y="403.234135" style="fill: #c2c1c1; stroke: #c2c1c1; stroke-width: 0.8"/>
      </g>
     </g>
     <g id="text_18">
      <!-- 6 -->
      <g style="fill: #191919" transform="translate(173.630993 415.484135) scale(0.07 -0.07)">
       <defs>
        <path id="Roboto-Regular-36" d="M 3291 1484 
Q 3291 838 2930 387 
Q 2569 -63 1878 -63 
Q 1388 -63 1063 198 
Q 738 459 577 861 
Q 416 1263 416 1684 
L 416 1956 
Q 416 2597 595 3194 
Q 775 3791 1247 4173 
Q 1719 4556 2597 4556 
L 2647 4556 
L 2647 4066 
Q 2041 4066 1705 3853 
Q 1369 3641 1205 3302 
Q 1041 2963 1006 2575 
Q 1369 2984 1984 2984 
Q 2438 2984 2727 2765 
Q 3016 2547 3153 2201 
Q 3291 1856 3291 1484 
z
M 997 1666 
Q 997 1059 1267 737 
Q 1538 416 1878 416 
Q 2278 416 2498 708 
Q 2719 1000 2719 1456 
Q 2719 1863 2516 2184 
Q 2313 2506 1891 2506 
Q 1588 2506 1341 2325 
Q 1094 2144 997 1884 
L 997 1666 
z
" transform="scale(0.015625)"/>
       </defs>
       <use xlink:href="#Roboto-Regular-36"/>
      </g>
     </g>
    </g>
    <g id="xtick_26">
     <g id="line2d_46">
      <g>
       <use xlink:href="#mdd60e6a4cf" x="200.515377" y="403.234135" style="fill: #c2c1c1; stroke: #c2c1c1; stroke-width: 0.8"/>
      </g>
     </g>
     <g id="text_19">
      <!-- 7 -->
      <g style="fill: #191919" transform="translate(198.548267 415.484135) scale(0.07 -0.07)">
       <defs>
        <path id="Roboto-Regular-37" d="M 3319 4550 
L 3319 4225 
L 1434 0 
L 825 0 
L 2706 4075 
L 244 4075 
L 244 4550 
L 3319 4550 
z
" transform="scale(0.015625)"/>
       </defs>
       <use xlink:href="#Roboto-Regular-37"/>
      </g>
     </g>
    </g>
    <g id="xtick_27">
     <g id="line2d_47">
      <g>
       <use xlink:href="#mdd60e6a4cf" x="225.432651" y="403.234135" style="fill: #c2c1c1; stroke: #c2c1c1; stroke-width: 0.8"/>
      </g>
     </g>
     <g id="text_20">
      <!-- 8 -->
      <g style="fill: #191919" transform="translate(223.465541 415.484135) scale(0.07 -0.07)">
       <defs>
        <path id="Roboto-Regular-38" d="M 3244 1231 
Q 3244 606 2826 271 
Q 2409 -63 1796 -63 
Q 1184 -63 767 271 
Q 350 606 350 1231 
Q 350 1613 554 1905 
Q 759 2197 1109 2347 
Q 806 2494 629 2762 
Q 453 3031 453 3366 
Q 453 3963 833 4288 
Q 1213 4613 1794 4613 
Q 2378 4613 2758 4288 
Q 3138 3963 3138 3366 
Q 3138 3028 2956 2761 
Q 2775 2494 2472 2347 
Q 2825 2197 3034 1903 
Q 3244 1609 3244 1231 
z
M 2559 3356 
Q 2559 3697 2346 3917 
Q 2134 4138 1793 4138 
Q 1453 4138 1243 3927 
Q 1034 3716 1034 3356 
Q 1034 3003 1243 2790 
Q 1453 2578 1797 2578 
Q 2138 2578 2348 2790 
Q 2559 3003 2559 3356 
z
M 2663 1244 
Q 2663 1625 2420 1865 
Q 2178 2106 1791 2106 
Q 1394 2106 1161 1865 
Q 928 1625 928 1244 
Q 928 850 1161 631 
Q 1394 413 1797 413 
Q 2200 413 2431 631 
Q 2663 850 2663 1244 
z
" transform="scale(0.015625)"/>
       </defs>
       <use xlink:href="#Roboto-Regular-38"/>
      </g>
     </g>
    </g>
    <g id="text_21">
     <!-- r (Ang.) -->
     <g style="fill: #191919" transform="translate(112.10918 427.22226) scale(0.08 -0.08)">
      <defs>
       <path id="Roboto-Bold-20" transform="scale(0.015625)"/>
       <path id="Roboto-Bold-6e" d="M 1806 2713 
Q 1422 2713 1234 2388 
L 1234 0 
L 331 0 
L 331 3381 
L 1178 3381 
L 1209 2994 
Q 1572 3444 2181 3444 
Q 2659 3444 2953 3159 
Q 3247 2875 3250 2169 
L 3250 0 
L 2344 0 
L 2344 2156 
Q 2344 2481 2205 2597 
Q 2066 2713 1806 2713 
z
" transform="scale(0.015625)"/>
       <path id="Roboto-Bold-2e" d="M 394 447 
Q 394 653 533 792 
Q 672 931 906 931 
Q 1141 931 1278 792 
Q 1416 653 1416 447 
Q 1416 244 1278 105 
Q 1141 -34 906 -34 
Q 672 -34 533 105 
Q 394 244 394 447 
z
" transform="scale(0.015625)"/>
      </defs>
      <use xlink:href="#Roboto-Bold-72"/>
      <use xlink:href="#Roboto-Bold-20" x="36.523438"/>
      <use xlink:href="#Roboto-Bold-28" x="61.425781"/>
      <use xlink:href="#Roboto-Bold-41" x="96.533203"/>
      <use xlink:href="#Roboto-Bold-6e" x="163.867188"/>
      <use xlink:href="#Roboto-Bold-67" x="219.873047"/>
      <use xlink:href="#Roboto-Bold-2e" x="277.001953"/>
      <use xlink:href="#Roboto-Bold-29" x="306.103516"/>
     </g>
    </g>
   </g>
   <g id="matplotlib.axis_6">
    <g id="ytick_10">
     <g id="line2d_48">
      <g>
       <use xlink:href="#m87a72dcb35" x="26.094459" y="403.234135" style="fill: #c2c1c1; stroke: #c2c1c1; stroke-width: 0.8"/>
      </g>
     </g>
     <g id="text_22">
      <!-- 0 -->
      <g style="fill: #191919" transform="translate(15.16024 405.859135) scale(0.07 -0.07)">
       <use xlink:href="#Roboto-Regular-30"/>
      </g>
     </g>
    </g>
    <g id="ytick_11">
     <g id="line2d_49">
      <g>
       <use xlink:href="#m87a72dcb35" x="26.094459" y="347.737884" style="fill: #c2c1c1; stroke: #c2c1c1; stroke-width: 0.8"/>
      </g>
     </g>
     <g id="text_23">
      <!-- 1 -->
      <g style="fill: #191919" transform="translate(15.16024 350.362884) scale(0.07 -0.07)">
       <use xlink:href="#Roboto-Regular-31"/>
      </g>
     </g>
    </g>
    <g id="ytick_12">
     <g id="line2d_50">
      <g>
       <use xlink:href="#m87a72dcb35" x="26.094459" y="292.241633" style="fill: #c2c1c1; stroke: #c2c1c1; stroke-width: 0.8"/>
      </g>
     </g>
     <g id="text_24">
      <!-- 2 -->
      <g style="fill: #191919" transform="translate(15.16024 294.866633) scale(0.07 -0.07)">
       <use xlink:href="#Roboto-Regular-32"/>
      </g>
     </g>
    </g>
    <g id="ytick_13">
     <g id="line2d_51">
      <g>
       <use xlink:href="#mff578443ea" x="26.094459" y="375.486009" style="fill: #c2c1c1; stroke: #c2c1c1; stroke-width: 0.6"/>
      </g>
     </g>
    </g>
    <g id="ytick_14">
     <g id="line2d_52">
      <g>
       <use xlink:href="#mff578443ea" x="26.094459" y="319.989758" style="fill: #c2c1c1; stroke: #c2c1c1; stroke-width: 0.6"/>
      </g>
     </g>
    </g>
    <g id="text_25">
     <!-- g$\mathregular{_{OO}}$(r) -->
     <g style="fill: #191919" transform="translate(9.32024 350.477604) rotate(-90) scale(0.08 -0.08)">
      <use xlink:href="#Roboto-Bold-67" transform="translate(0 0.046875)"/>
      <use xlink:href="#Roboto-Bold-4f" transform="translate(58.053398 -15.801563) scale(0.7)"/>
      <use xlink:href="#Roboto-Bold-4f" transform="translate(106.383477 -15.801563) scale(0.7)"/>
      <use xlink:href="#Roboto-Bold-28" transform="translate(157.354961 0.046875)"/>
      <use xlink:href="#Roboto-Bold-72" transform="translate(192.462383 0.046875)"/>
      <use xlink:href="#Roboto-Bold-29" transform="translate(228.98582 0.046875)"/>
     </g>
    </g>
   </g>
   <g id="patch_13">
    <path d="M 26.094459 403.234135 
L 26.094459 276.521073 
" style="fill: none; stroke: #c2c1c1; stroke-width: 0.8; stroke-linejoin: miter; stroke-linecap: square"/>
   </g>
   <g id="patch_14">
    <path d="M 225.432651 403.234135 
L 225.432651 276.521073 
" style="fill: none; stroke: #c2c1c1; stroke-width: 0.8; stroke-linejoin: miter; stroke-linecap: square"/>
   </g>
   <g id="patch_15">
    <path d="M 26.094459 403.234135 
L 225.432651 403.234135 
" style="fill: none; stroke: #c2c1c1; stroke-width: 0.8; stroke-linejoin: miter; stroke-linecap: square"/>
   </g>
   <g id="patch_16">
    <path d="M 26.094459 276.521073 
L 225.432651 276.521073 
" style="fill: none; stroke: #c2c1c1; stroke-width: 0.8; stroke-linejoin: miter; stroke-linecap: square"/>
   </g>
   <g id="text_26">
    <!-- C -->
    <g transform="translate(30.081223 289.192379) scale(0.096 -0.096)">
     <defs>
      <path id="Roboto-Bold-43" d="M 3044 1516 
L 3981 1516 
Q 3934 822 3461 379 
Q 2988 -63 2150 -63 
Q 1275 -63 772 526 
Q 269 1116 269 2125 
L 269 2422 
Q 269 3431 784 4023 
Q 1300 4616 2159 4616 
Q 3013 4616 3466 4161 
Q 3919 3706 3984 3006 
L 3047 3006 
Q 3016 3413 2820 3630 
Q 2625 3847 2159 3847 
Q 1247 3847 1222 2500 
L 1222 2125 
Q 1222 1419 1436 1062 
Q 1650 706 2150 706 
Q 2594 706 2801 907 
Q 3009 1109 3044 1516 
z
" transform="scale(0.015625)"/>
     </defs>
     <use xlink:href="#Roboto-Bold-43"/>
    </g>
   </g>
   <g id="legend_3">
    <g id="line2d_53">
     <path d="M 173.393901 391.609135 
L 181.393901 391.609135 
L 189.393901 391.609135 
" style="fill: none; stroke: #ffb5ba; stroke-width: 1.5; stroke-linecap: square"/>
    </g>
    <g id="text_27">
     <!-- MeOH -->
     <g transform="translate(195.793901 394.409135) scale(0.08 -0.08)">
      <use xlink:href="#Roboto-Regular-4d"/>
      <use xlink:href="#Roboto-Regular-65" x="87.304688"/>
      <use xlink:href="#Roboto-Regular-4f" x="140.332031"/>
      <use xlink:href="#Roboto-Regular-48" x="209.130859"/>
     </g>
    </g>
   </g>
  </g>
 </g>
 <defs>
  <clipPath id="pad45976ded">
   <rect x="26.094459" y="3.00024" width="199.338192" height="126.713062"/>
  </clipPath>
  <clipPath id="pfbc648556d">
   <rect x="26.094459" y="139.760657" width="199.338192" height="126.713062"/>
  </clipPath>
  <clipPath id="pb982d8dad3">
   <rect x="26.094459" y="276.521073" width="199.338192" height="126.713062"/>
  </clipPath>
 </defs>
</svg>
