<?xml version="1.0" encoding="utf-8" standalone="no"?>
<!DOCTYPE svg PUBLIC "-//W3C//DTD SVG 1.1//EN"
  "http://www.w3.org/Graphics/SVG/1.1/DTD/svg11.dtd">
<svg xmlns:xlink="http://www.w3.org/1999/xlink" width="230.4pt" height="360pt" viewBox="0 0 230.4 360" xmlns="http://www.w3.org/2000/svg" version="1.1">
 <metadata>
  <rdf:RDF xmlns:dc="http://purl.org/dc/elements/1.1/" xmlns:cc="http://creativecommons.org/ns#" xmlns:rdf="http://www.w3.org/1999/02/22-rdf-syntax-ns#">
   <cc:Work>
    <dc:type rdf:resource="http://purl.org/dc/dcmitype/StillImage"/>
    <dc:date>2022-11-16T08:27:17.334364</dc:date>
    <dc:format>image/svg+xml</dc:format>
    <dc:creator>
     <cc:Agent>
      <dc:title>Matplotlib v3.6.0, https://matplotlib.org/</dc:title>
     </cc:Agent>
    </dc:creator>
   </cc:Work>
  </rdf:RDF>
 </metadata>
 <defs>
  <style type="text/css">*{stroke-linejoin: round; stroke-linecap: butt}</style>
 </defs>
 <g id="figure_1">
  <g id="patch_1">
   <path d="M 0 360 
L 230.4 360 
L 230.4 0 
L 0 0 
z
" style="fill: #ffffff"/>
  </g>
  <g id="axes_1">
   <g id="patch_2">
    <path d="M 26.094459 105.557885 
L 225.432651 105.557885 
L 225.432651 3.00024 
L 26.094459 3.00024 
z
" style="fill: #ffffff"/>
   </g>
   <g id="line2d_1">
    <path d="M 26.094459 66.428212 
L 225.432651 66.428212 
" clip-path="url(#pddcf040f91)" style="fill: none; stroke-dasharray: 1.5,6; stroke-dashoffset: 0; stroke: #c0c0c0; stroke-width: 1.5"/>
   </g>
   <g id="line2d_2">
    <path d="M -1 105.557885 
L 1.177185 105.557885 
L 4.499488 105.557885 
L 7.821791 105.557885 
L 11.144094 105.557885 
L 14.466398 105.557885 
L 17.788701 105.557885 
L 21.111004 105.557885 
L 24.433307 105.557885 
L 27.75561 105.557885 
L 31.077914 105.557885 
L 34.400217 105.557885 
L 37.72252 105.507495 
L 41.044823 103.000463 
L 44.367126 82.081016 
L 47.68943 36.619044 
L 51.011733 7.883937 
L 54.334036 12.812344 
L 57.656339 34.282453 
L 60.978642 53.909558 
L 64.300946 65.476359 
L 67.623249 69.914858 
L 70.945552 71.56925 
L 74.267855 71.453762 
L 77.590158 70.76363 
L 80.912462 69.96684 
L 84.234765 69.088569 
L 87.557068 66.777533 
L 90.879371 65.46962 
L 94.201674 64.050899 
L 97.523978 63.517341 
L 100.846281 61.802327 
L 104.168584 62.330393 
L 107.490887 62.699461 
L 110.81319 62.178363 
L 114.135493 62.269787 
L 117.457797 62.436675 
L 120.7801 64.445368 
L 124.102403 65.240554 
L 127.424706 66.74602 
L 130.747009 68.449608 
L 134.069313 69.529938 
L 137.391616 70.989938 
L 140.713919 71.010663 
L 144.036222 70.805112 
L 147.358525 70.820298 
L 150.680829 70.087073 
L 154.003132 69.419122 
L 157.325435 68.974892 
L 160.647738 67.864932 
L 163.970041 66.639015 
L 167.292345 65.562367 
L 170.614648 65.135461 
L 173.936951 64.418892 
L 177.259254 63.500508 
L 180.581557 62.755848 
L 183.903861 62.965996 
L 187.226164 63.291181 
L 190.548467 63.341626 
L 193.87077 63.971082 
L 197.193073 64.428911 
L 200.515377 65.100828 
L 203.83768 65.902648 
L 207.159983 66.377926 
L 210.482286 66.629183 
L 213.804589 66.941434 
L 217.126893 66.924041 
L 220.449196 67.132089 
L 223.771499 66.883711 
" clip-path="url(#pddcf040f91)" style="fill: none; stroke: #4abbf3; stroke-width: 1.5; stroke-linecap: square"/>
   </g>
   <g id="line2d_3">
    <path d="M -1 105.557885 
L 37.39029 105.4718 
L 38.386981 105.150936 
L 39.383672 104.129652 
L 40.380363 101.695786 
L 41.377053 97.364131 
L 42.373744 90.989908 
L 43.370435 82.835284 
L 45.363817 62.519158 
L 48.35389 29.141546 
L 49.350581 20.114331 
L 50.347272 13.333159 
L 51.343963 9.283237 
L 52.340654 7.917612 
L 53.337345 9.111067 
L 54.334036 12.354917 
L 55.330727 17.257865 
L 57.324109 29.736317 
L 59.317491 42.852584 
L 61.310873 54.231493 
L 62.307564 58.927054 
L 63.304255 62.894802 
L 64.300946 66.103436 
L 65.297636 68.646864 
L 66.294327 70.575957 
L 67.291018 71.996364 
L 68.287709 72.978519 
L 69.2844 73.61242 
L 70.281091 74.011543 
L 72.274473 74.234582 
L 74.267855 74.125019 
L 78.254619 73.275905 
L 80.248001 72.657656 
L 83.238074 71.393767 
L 85.231456 70.388135 
L 95.198365 64.996066 
L 98.188438 63.747829 
L 101.178511 62.793065 
L 104.168584 62.108296 
L 107.158657 61.693521 
L 109.152039 61.568307 
L 111.145421 61.572219 
L 114.135493 61.865692 
L 116.128875 62.256989 
L 119.118948 63.070886 
L 122.109021 64.178256 
L 126.095785 65.872571 
L 130.082549 67.594276 
L 134.069313 69.100769 
L 138.056077 70.212051 
L 141.046149 70.748128 
L 144.036222 70.978993 
L 146.029604 70.963341 
L 149.019677 70.705085 
L 152.00975 70.180748 
L 155.996514 69.190767 
L 169.950187 65.543881 
L 173.936951 64.819982 
L 177.923715 64.319123 
L 181.910479 64.060867 
L 185.897243 64.068693 
L 191.877388 64.483467 
L 201.844298 65.759095 
L 209.817826 66.745162 
L 215.797971 67.206892 
L 219.784735 67.355585 
L 224.76819 67.33602 
L 230.748336 67.120807 
L 231.4 67.092665 
L 231.4 67.092665 
" clip-path="url(#pddcf040f91)" style="fill: none; stroke-dasharray: 7.5,6; stroke-dashoffset: 0; stroke: #6c757d; stroke-width: 1.5"/>
   </g>
   <g id="matplotlib.axis_1">
    <g id="xtick_1">
     <g id="line2d_4">
      <defs>
       <path id="m91696c1bdb" d="M 0 0 
L 0 3.5 
" style="stroke: #c2c1c1; stroke-width: 0.8"/>
      </defs>
      <g>
       <use xlink:href="#m91696c1bdb" x="26.094459" y="105.557885" style="fill: #c2c1c1; stroke: #c2c1c1; stroke-width: 0.8"/>
      </g>
     </g>
    </g>
    <g id="xtick_2">
     <g id="line2d_5">
      <g>
       <use xlink:href="#m91696c1bdb" x="59.317491" y="105.557885" style="fill: #c2c1c1; stroke: #c2c1c1; stroke-width: 0.8"/>
      </g>
     </g>
    </g>
    <g id="xtick_3">
     <g id="line2d_6">
      <g>
       <use xlink:href="#m91696c1bdb" x="92.540523" y="105.557885" style="fill: #c2c1c1; stroke: #c2c1c1; stroke-width: 0.8"/>
      </g>
     </g>
    </g>
    <g id="xtick_4">
     <g id="line2d_7">
      <g>
       <use xlink:href="#m91696c1bdb" x="125.763555" y="105.557885" style="fill: #c2c1c1; stroke: #c2c1c1; stroke-width: 0.8"/>
      </g>
     </g>
    </g>
    <g id="xtick_5">
     <g id="line2d_8">
      <g>
       <use xlink:href="#m91696c1bdb" x="158.986587" y="105.557885" style="fill: #c2c1c1; stroke: #c2c1c1; stroke-width: 0.8"/>
      </g>
     </g>
    </g>
    <g id="xtick_6">
     <g id="line2d_9">
      <g>
       <use xlink:href="#m91696c1bdb" x="192.209619" y="105.557885" style="fill: #c2c1c1; stroke: #c2c1c1; stroke-width: 0.8"/>
      </g>
     </g>
    </g>
    <g id="xtick_7">
     <g id="line2d_10">
      <g>
       <use xlink:href="#m91696c1bdb" x="225.432651" y="105.557885" style="fill: #c2c1c1; stroke: #c2c1c1; stroke-width: 0.8"/>
      </g>
     </g>
    </g>
   </g>
   <g id="matplotlib.axis_2">
    <g id="ytick_1">
     <g id="line2d_11">
      <defs>
       <path id="m29526b5ea4" d="M 0 0 
L -3.5 0 
" style="stroke: #c2c1c1; stroke-width: 0.8"/>
      </defs>
      <g>
       <use xlink:href="#m29526b5ea4" x="26.094459" y="105.557885" style="fill: #c2c1c1; stroke: #c2c1c1; stroke-width: 0.8"/>
      </g>
     </g>
     <g id="text_1">
      <!-- 0 -->
      <g style="fill: #191919" transform="translate(15.16024 108.182885) scale(0.07 -0.07)">
       <defs>
        <path id="Roboto-Regular-30" d="M 3234 1944 
Q 3234 825 2848 381 
Q 2463 -63 1800 -63 
Q 1156 -63 764 368 
Q 372 800 359 1872 
L 359 2638 
Q 359 3753 750 4183 
Q 1141 4613 1794 4613 
Q 2447 4613 2834 4195 
Q 3222 3778 3234 2709 
L 3234 1944 
z
M 2653 2734 
Q 2653 3503 2434 3822 
Q 2216 4141 1794 4141 
Q 1388 4141 1167 3831 
Q 947 3522 941 2778 
L 941 1850 
Q 941 1088 1164 750 
Q 1388 413 1800 413 
Q 2222 413 2436 745 
Q 2650 1078 2653 1825 
L 2653 2734 
z
" transform="scale(0.015625)"/>
       </defs>
       <use xlink:href="#Roboto-Regular-30"/>
      </g>
     </g>
    </g>
    <g id="ytick_2">
     <g id="line2d_12">
      <g>
       <use xlink:href="#m29526b5ea4" x="26.094459" y="66.428212" style="fill: #c2c1c1; stroke: #c2c1c1; stroke-width: 0.8"/>
      </g>
     </g>
     <g id="text_2">
      <!-- 1 -->
      <g style="fill: #191919" transform="translate(15.16024 69.053212) scale(0.07 -0.07)">
       <defs>
        <path id="Roboto-Regular-31" d="M 2278 4575 
L 2278 0 
L 1700 0 
L 1700 3853 
L 534 3428 
L 534 3950 
L 2188 4575 
L 2278 4575 
z
" transform="scale(0.015625)"/>
       </defs>
       <use xlink:href="#Roboto-Regular-31"/>
      </g>
     </g>
    </g>
    <g id="ytick_3">
     <g id="line2d_13">
      <g>
       <use xlink:href="#m29526b5ea4" x="26.094459" y="27.298539" style="fill: #c2c1c1; stroke: #c2c1c1; stroke-width: 0.8"/>
      </g>
     </g>
     <g id="text_3">
      <!-- 2 -->
      <g style="fill: #191919" transform="translate(15.16024 29.923539) scale(0.07 -0.07)">
       <defs>
        <path id="Roboto-Regular-32" d="M 3359 475 
L 3359 0 
L 381 0 
L 381 416 
L 1925 2134 
Q 2306 2566 2439 2819 
Q 2572 3072 2572 3328 
Q 2572 3663 2364 3900 
Q 2156 4138 1778 4138 
Q 1322 4138 1097 3878 
Q 872 3619 872 3213 
L 294 3213 
Q 294 3788 672 4200 
Q 1050 4613 1778 4613 
Q 2422 4613 2786 4278 
Q 3150 3944 3150 3397 
Q 3150 2997 2903 2592 
Q 2656 2188 2297 1797 
L 1078 475 
L 3359 475 
z
" transform="scale(0.015625)"/>
       </defs>
       <use xlink:href="#Roboto-Regular-32"/>
      </g>
     </g>
    </g>
    <g id="ytick_4">
     <g id="line2d_14">
      <defs>
       <path id="m6b385fd75e" d="M 0 0 
L -2 0 
" style="stroke: #c2c1c1; stroke-width: 0.6"/>
      </defs>
      <g>
       <use xlink:href="#m6b385fd75e" x="26.094459" y="85.993048" style="fill: #c2c1c1; stroke: #c2c1c1; stroke-width: 0.6"/>
      </g>
     </g>
    </g>
    <g id="ytick_5">
     <g id="line2d_15">
      <g>
       <use xlink:href="#m6b385fd75e" x="26.094459" y="46.863375" style="fill: #c2c1c1; stroke: #c2c1c1; stroke-width: 0.6"/>
      </g>
     </g>
    </g>
    <g id="ytick_6">
     <g id="line2d_16">
      <g>
       <use xlink:href="#m6b385fd75e" x="26.094459" y="7.733702" style="fill: #c2c1c1; stroke: #c2c1c1; stroke-width: 0.6"/>
      </g>
     </g>
    </g>
    <g id="text_4">
     <!-- g$\mathregular{_{OO}}$(r) -->
     <g style="fill: #191919" transform="translate(9.32024 64.879063) rotate(-90) scale(0.08 -0.08)">
      <defs>
       <path id="Roboto-Bold-67" d="M 1681 -1331 
Q 1375 -1331 1008 -1203 
Q 641 -1075 422 -803 
L 822 -253 
Q 1156 -628 1644 -628 
Q 2003 -628 2203 -436 
Q 2403 -244 2403 113 
L 2403 294 
Q 2084 -63 1581 -63 
Q 953 -63 587 418 
Q 222 900 216 1625 
L 216 1716 
Q 216 2488 583 2966 
Q 950 3444 1588 3444 
Q 2147 3444 2456 3063 
L 2491 3381 
L 3309 3381 
L 3309 116 
Q 3309 -581 2857 -956 
Q 2406 -1331 1681 -1331 
z
M 1119 1650 
Q 1119 1244 1286 958 
Q 1453 672 1809 672 
Q 2222 672 2403 984 
L 2403 2403 
Q 2225 2713 1816 2713 
Q 1463 2713 1291 2423 
Q 1119 2134 1119 1716 
L 1119 1650 
z
" transform="scale(0.015625)"/>
       <path id="Roboto-Bold-4f" d="M 4147 2172 
Q 4147 1131 3608 534 
Q 3069 -63 2212 -63 
Q 1356 -63 812 534 
Q 269 1131 269 2172 
L 269 2375 
Q 269 3416 809 4014 
Q 1350 4613 2206 4613 
Q 3063 4613 3605 4014 
Q 4147 3416 4147 2375 
L 4147 2172 
z
M 3197 2381 
Q 3197 3094 2937 3466 
Q 2678 3838 2206 3838 
Q 1734 3838 1478 3470 
Q 1222 3103 1219 2397 
L 1219 2172 
Q 1219 1463 1478 1086 
Q 1738 709 2213 709 
Q 2684 709 2939 1081 
Q 3194 1453 3197 2156 
L 3197 2381 
z
" transform="scale(0.015625)"/>
       <path id="Roboto-Bold-28" d="M 391 1850 
Q 391 2731 633 3392 
Q 875 4053 1234 4473 
Q 1594 4894 1947 5053 
L 2122 4566 
Q 1772 4303 1465 3661 
Q 1159 3019 1153 1906 
L 1153 1772 
Q 1153 628 1461 -23 
Q 1769 -675 2122 -944 
L 1947 -1422 
Q 1594 -1266 1234 -845 
Q 875 -425 633 237 
Q 391 900 391 1778 
L 391 1850 
z
" transform="scale(0.015625)"/>
       <path id="Roboto-Bold-72" d="M 1922 2563 
Q 1413 2563 1253 2216 
L 1253 0 
L 347 0 
L 347 3381 
L 1200 3381 
L 1228 2978 
Q 1494 3444 1981 3444 
Q 2153 3444 2259 3403 
L 2250 2538 
L 1922 2563 
z
" transform="scale(0.015625)"/>
       <path id="Roboto-Bold-29" d="M 1906 1778 
Q 1906 928 1656 264 
Q 1406 -400 1034 -833 
Q 663 -1266 300 -1422 
L 125 -944 
Q 472 -684 780 -37 
Q 1088 609 1094 1722 
L 1094 1856 
Q 1094 3000 780 3656 
Q 466 4313 125 4572 
L 300 5053 
Q 663 4894 1034 4461 
Q 1406 4028 1656 3364 
Q 1906 2700 1906 1847 
L 1906 1778 
z
" transform="scale(0.015625)"/>
      </defs>
      <use xlink:href="#Roboto-Bold-67" transform="translate(0 0.046875)"/>
      <use xlink:href="#Roboto-Bold-4f" transform="translate(58.053398 -15.801563) scale(0.7)"/>
      <use xlink:href="#Roboto-Bold-4f" transform="translate(106.383477 -15.801563) scale(0.7)"/>
      <use xlink:href="#Roboto-Bold-28" transform="translate(157.354961 0.046875)"/>
      <use xlink:href="#Roboto-Bold-72" transform="translate(192.462383 0.046875)"/>
      <use xlink:href="#Roboto-Bold-29" transform="translate(228.98582 0.046875)"/>
     </g>
    </g>
   </g>
   <g id="patch_3">
    <path d="M 26.094459 105.557885 
L 26.094459 3.00024 
" style="fill: none; stroke: #c2c1c1; stroke-width: 0.8; stroke-linejoin: miter; stroke-linecap: square"/>
   </g>
   <g id="patch_4">
    <path d="M 225.432651 105.557885 
L 225.432651 3.00024 
" style="fill: none; stroke: #c2c1c1; stroke-width: 0.8; stroke-linejoin: miter; stroke-linecap: square"/>
   </g>
   <g id="patch_5">
    <path d="M 26.094459 105.557885 
L 225.432651 105.557885 
" style="fill: none; stroke: #c2c1c1; stroke-width: 0.8; stroke-linejoin: miter; stroke-linecap: square"/>
   </g>
   <g id="patch_6">
    <path d="M 26.094459 3.00024 
L 225.432651 3.00024 
" style="fill: none; stroke: #c2c1c1; stroke-width: 0.8; stroke-linejoin: miter; stroke-linecap: square"/>
   </g>
   <g id="text_5">
    <!-- A -->
    <g transform="translate(30.081223 13.256004) scale(0.096 -0.096)">
     <defs>
      <path id="Roboto-Bold-41" d="M 25 0 
L 1719 4550 
L 2588 4550 
L 4291 0 
L 3291 0 
L 2978 938 
L 1331 938 
L 1019 0 
L 25 0 
z
M 1584 1697 
L 2725 1697 
L 2156 3406 
L 1584 1697 
z
" transform="scale(0.015625)"/>
     </defs>
     <use xlink:href="#Roboto-Bold-41"/>
    </g>
   </g>
   <g id="text_6">
    <!--    H$_2$O -->
    <g transform="translate(199.518686 13.256004) scale(0.08 -0.08)">
     <defs>
      <path id="Roboto-Regular-20" transform="scale(0.015625)"/>
      <path id="Roboto-Regular-48" d="M 3425 0 
L 3425 2103 
L 1131 2103 
L 1131 0 
L 528 0 
L 528 4550 
L 1131 4550 
L 1131 2594 
L 3425 2594 
L 3425 4550 
L 4025 4550 
L 4025 0 
L 3425 0 
z
" transform="scale(0.015625)"/>
      <path id="DejaVuSans-32" d="M 1228 531 
L 3431 531 
L 3431 0 
L 469 0 
L 469 531 
Q 828 903 1448 1529 
Q 2069 2156 2228 2338 
Q 2531 2678 2651 2914 
Q 2772 3150 2772 3378 
Q 2772 3750 2511 3984 
Q 2250 4219 1831 4219 
Q 1534 4219 1204 4116 
Q 875 4013 500 3803 
L 500 4441 
Q 881 4594 1212 4672 
Q 1544 4750 1819 4750 
Q 2544 4750 2975 4387 
Q 3406 4025 3406 3419 
Q 3406 3131 3298 2873 
Q 3191 2616 2906 2266 
Q 2828 2175 2409 1742 
Q 1991 1309 1228 531 
z
" transform="scale(0.015625)"/>
      <path id="Roboto-Regular-4f" d="M 4031 2131 
Q 4031 1106 3534 521 
Q 3038 -63 2206 -63 
Q 1397 -63 884 521 
Q 372 1106 372 2131 
L 372 2419 
Q 372 3441 881 4027 
Q 1391 4613 2200 4613 
Q 3025 4613 3523 4036 
Q 4022 3459 4031 2456 
L 4031 2131 
z
M 3434 2425 
Q 3434 3238 3109 3669 
Q 2784 4100 2200 4100 
Q 1641 4100 1305 3669 
Q 969 3238 969 2425 
L 969 2131 
Q 969 1313 1308 880 
Q 1647 447 2206 447 
Q 2794 447 3114 880 
Q 3434 1313 3434 2131 
L 3434 2425 
z
" transform="scale(0.015625)"/>
     </defs>
     <use xlink:href="#Roboto-Regular-20" transform="translate(0 0.921875)"/>
     <use xlink:href="#Roboto-Regular-20" transform="translate(24.804688 0.921875)"/>
     <use xlink:href="#Roboto-Regular-20" transform="translate(49.609375 0.921875)"/>
     <use xlink:href="#Roboto-Regular-48" transform="translate(74.414062 0.921875)"/>
     <use xlink:href="#DejaVuSans-32" transform="translate(146.708984 -15.484375) scale(0.7)"/>
     <use xlink:href="#Roboto-Regular-4f" transform="translate(193.979492 0.921875)"/>
    </g>
   </g>
   <g id="legend_1">
    <g id="line2d_17">
     <path d="M 159.835151 82.307885 
L 167.835151 82.307885 
L 175.835151 82.307885 
" style="fill: none; stroke: #4abbf3; stroke-width: 1.5; stroke-linecap: square"/>
    </g>
    <g id="text_7">
     <!-- mbGDML -->
     <g transform="translate(182.235151 85.107885) scale(0.08 -0.08)">
      <defs>
       <path id="Roboto-Regular-6d" d="M 1794 2956 
Q 1225 2956 1016 2478 
L 1016 0 
L 434 0 
L 434 3381 
L 984 3381 
L 1000 3013 
Q 1366 3444 2000 3444 
Q 2325 3444 2579 3314 
Q 2834 3184 2969 2900 
Q 3138 3144 3408 3294 
Q 3678 3444 4044 3444 
Q 4588 3444 4883 3153 
Q 5178 2863 5178 2222 
L 5178 0 
L 4597 0 
L 4597 2228 
Q 4597 2653 4401 2804 
Q 4206 2956 3875 2956 
Q 3525 2956 3325 2748 
Q 3125 2541 3094 2244 
L 3094 0 
L 2516 0 
L 2516 2225 
Q 2516 2622 2319 2789 
Q 2122 2956 1794 2956 
z
" transform="scale(0.015625)"/>
       <path id="Roboto-Regular-62" d="M 3303 1653 
Q 3303 913 2959 425 
Q 2616 -63 1988 -63 
Q 1347 -63 1000 391 
L 969 0 
L 438 0 
L 438 4800 
L 1019 4800 
L 1019 3016 
Q 1363 3444 1981 3444 
Q 2619 3444 2961 2969 
Q 3303 2494 3303 1719 
L 3303 1653 
z
M 1838 2956 
Q 1522 2956 1325 2804 
Q 1128 2653 1019 2431 
L 1019 959 
Q 1131 734 1331 581 
Q 1531 428 1844 428 
Q 2313 428 2517 789 
Q 2722 1150 2722 1653 
L 2722 1719 
Q 2722 2222 2526 2589 
Q 2331 2956 1838 2956 
z
" transform="scale(0.015625)"/>
       <path id="Roboto-Regular-47" d="M 3891 2266 
L 3891 600 
Q 3763 413 3403 175 
Q 3044 -63 2281 -63 
Q 1450 -63 915 507 
Q 381 1078 381 2100 
L 381 2453 
Q 381 3469 856 4041 
Q 1331 4613 2213 4613 
Q 2994 4613 3398 4219 
Q 3803 3825 3891 3219 
L 3288 3219 
Q 3225 3588 2979 3853 
Q 2734 4119 2213 4119 
Q 1584 4119 1287 3676 
Q 991 3234 988 2475 
L 988 2100 
Q 988 1313 1344 870 
Q 1700 428 2284 428 
Q 2769 428 2984 542 
Q 3200 656 3291 759 
L 3291 1778 
L 2238 1778 
L 2238 2266 
L 3891 2266 
z
" transform="scale(0.015625)"/>
       <path id="Roboto-Regular-44" d="M 528 0 
L 528 4550 
L 1816 4550 
Q 2713 4550 3267 3973 
Q 3822 3397 3822 2409 
L 3822 2138 
Q 3822 1150 3264 575 
Q 2706 0 1759 0 
L 528 0 
z
M 1131 4056 
L 1131 491 
L 1759 491 
Q 2488 491 2856 941 
Q 3225 1391 3225 2138 
L 3225 2416 
Q 3225 3200 2856 3628 
Q 2488 4056 1816 4056 
L 1131 4056 
z
" transform="scale(0.015625)"/>
       <path id="Roboto-Regular-4d" d="M 2794 841 
L 4281 4550 
L 5056 4550 
L 5056 0 
L 4456 0 
L 4456 1775 
L 4516 3678 
L 3019 0 
L 2563 0 
L 1069 3684 
L 1128 1775 
L 1128 0 
L 528 0 
L 528 4550 
L 1303 4550 
L 2794 841 
z
" transform="scale(0.015625)"/>
       <path id="Roboto-Regular-4c" d="M 3288 491 
L 3288 0 
L 528 0 
L 528 4550 
L 1131 4550 
L 1131 491 
L 3288 491 
z
" transform="scale(0.015625)"/>
      </defs>
      <use xlink:href="#Roboto-Regular-6d"/>
      <use xlink:href="#Roboto-Regular-62" x="87.695312"/>
      <use xlink:href="#Roboto-Regular-47" x="143.847656"/>
      <use xlink:href="#Roboto-Regular-44" x="211.962891"/>
      <use xlink:href="#Roboto-Regular-4d" x="277.587891"/>
      <use xlink:href="#Roboto-Regular-4c" x="364.892578"/>
     </g>
    </g>
    <g id="line2d_18">
     <path d="M 159.835151 93.932885 
L 167.835151 93.932885 
L 175.835151 93.932885 
" style="fill: none; stroke-dasharray: 7.5,6; stroke-dashoffset: 0; stroke: #6c757d; stroke-width: 1.5"/>
    </g>
    <g id="text_8">
     <!-- Reference -->
     <g transform="translate(182.235151 96.732885) scale(0.08 -0.08)">
      <defs>
       <path id="Roboto-Regular-52" d="M 3188 0 
L 2200 1844 
L 1131 1844 
L 1131 0 
L 528 0 
L 528 4550 
L 2034 4550 
Q 2800 4550 3214 4200 
Q 3628 3850 3628 3184 
Q 3628 2759 3398 2442 
Q 3169 2125 2763 1969 
L 3831 38 
L 3831 0 
L 3188 0 
z
M 1131 4056 
L 1131 2334 
L 2053 2334 
Q 2538 2334 2783 2582 
Q 3028 2831 3028 3184 
Q 3028 3578 2792 3817 
Q 2556 4056 2034 4056 
L 1131 4056 
z
" transform="scale(0.015625)"/>
       <path id="Roboto-Regular-65" d="M 3116 591 
Q 2950 341 2647 139 
Q 2344 -63 1844 -63 
Q 1138 -63 714 396 
Q 291 856 291 1572 
L 291 1703 
Q 291 2256 502 2645 
Q 713 3034 1050 3239 
Q 1388 3444 1769 3444 
Q 2494 3444 2826 2970 
Q 3159 2497 3159 1788 
L 3159 1528 
L 872 1528 
Q 884 1063 1148 736 
Q 1413 409 1875 409 
Q 2181 409 2393 534 
Q 2606 659 2766 869 
L 3116 591 
z
M 1769 2969 
Q 1425 2969 1187 2719 
Q 950 2469 891 2000 
L 2581 2000 
L 2581 2044 
Q 2559 2381 2386 2675 
Q 2213 2969 1769 2969 
z
" transform="scale(0.015625)"/>
       <path id="Roboto-Regular-66" d="M 2022 2938 
L 1303 2938 
L 1303 0 
L 725 0 
L 725 2938 
L 191 2938 
L 191 3381 
L 725 3381 
L 725 3759 
Q 731 4297 1026 4581 
Q 1322 4866 1834 4866 
Q 2025 4866 2234 4816 
L 2203 4344 
Q 2072 4372 1891 4372 
Q 1313 4372 1303 3756 
L 1303 3381 
L 2022 3381 
L 2022 2938 
z
" transform="scale(0.015625)"/>
       <path id="Roboto-Regular-72" d="M 1791 2888 
Q 1225 2888 1019 2400 
L 1019 0 
L 441 0 
L 441 3381 
L 1003 3381 
L 1016 2994 
Q 1294 3444 1819 3444 
Q 1981 3444 2075 3400 
L 2072 2863 
Q 1944 2888 1791 2888 
z
" transform="scale(0.015625)"/>
       <path id="Roboto-Regular-6e" d="M 1844 2956 
Q 1566 2956 1353 2806 
Q 1141 2656 1019 2416 
L 1019 0 
L 441 0 
L 441 3381 
L 988 3381 
L 1006 2959 
Q 1391 3444 2016 3444 
Q 2513 3444 2805 3166 
Q 3097 2888 3100 2231 
L 3100 0 
L 2519 0 
L 2519 2222 
Q 2519 2619 2345 2787 
Q 2172 2956 1844 2956 
z
" transform="scale(0.015625)"/>
       <path id="Roboto-Regular-63" d="M 1794 413 
Q 2103 413 2336 597 
Q 2569 781 2591 1069 
L 3141 1069 
Q 3119 616 2725 276 
Q 2331 -63 1794 -63 
Q 1031 -63 661 440 
Q 291 944 291 1625 
L 291 1756 
Q 291 2438 661 2941 
Q 1031 3444 1794 3444 
Q 2388 3444 2753 3092 
Q 3119 2741 3141 2219 
L 2591 2219 
Q 2569 2531 2355 2750 
Q 2141 2969 1794 2969 
Q 1438 2969 1236 2787 
Q 1034 2606 951 2328 
Q 869 2050 869 1756 
L 869 1625 
Q 869 1328 950 1050 
Q 1031 772 1232 592 
Q 1434 413 1794 413 
z
" transform="scale(0.015625)"/>
      </defs>
      <use xlink:href="#Roboto-Regular-52"/>
      <use xlink:href="#Roboto-Regular-65" x="61.621094"/>
      <use xlink:href="#Roboto-Regular-66" x="114.648438"/>
      <use xlink:href="#Roboto-Regular-65" x="149.414062"/>
      <use xlink:href="#Roboto-Regular-72" x="202.441406"/>
      <use xlink:href="#Roboto-Regular-65" x="236.328125"/>
      <use xlink:href="#Roboto-Regular-6e" x="289.355469"/>
      <use xlink:href="#Roboto-Regular-63" x="344.580078"/>
      <use xlink:href="#Roboto-Regular-65" x="396.923828"/>
     </g>
    </g>
   </g>
  </g>
  <g id="axes_2">
   <g id="patch_7">
    <path d="M 26.094459 218.162885 
L 225.432651 218.162885 
L 225.432651 115.60524 
L 26.094459 115.60524 
z
" style="fill: #ffffff"/>
   </g>
   <g id="line2d_19">
    <path d="M 26.094459 140.073186 
L 225.432651 140.073186 
" clip-path="url(#p71df18b09b)" style="fill: none; stroke-dasharray: 1.5,6; stroke-dashoffset: 0; stroke: #c0c0c0; stroke-width: 1.5"/>
   </g>
   <g id="line2d_20">
    <path d="M -1 218.162885 
L 1.177185 218.162885 
L 4.499488 218.162885 
L 7.821791 218.162885 
L 11.144094 218.162885 
L 14.466398 218.162885 
L 17.788701 218.162885 
L 21.111004 218.162885 
L 24.433307 218.162885 
L 27.75561 218.162885 
L 31.077914 218.147262 
L 34.400217 218.105824 
L 37.72252 217.867137 
L 41.044823 217.631639 
L 44.367126 216.536187 
L 47.68943 214.228733 
L 51.011733 209.994647 
L 54.334036 202.842479 
L 57.656339 191.550062 
L 60.978642 179.077552 
L 64.300946 167.700423 
L 67.623249 153.739482 
L 70.945552 142.705506 
L 74.267855 134.120564 
L 77.590158 129.234253 
L 80.912462 126.855898 
L 84.234765 126.185734 
L 87.557068 126.368676 
L 90.879371 127.582751 
L 94.201674 131.53262 
L 97.523978 132.657899 
L 100.846281 133.903629 
L 104.168584 135.646198 
L 107.490887 138.403108 
L 110.81319 138.766924 
L 114.135493 138.287836 
L 117.457797 139.145851 
L 120.7801 139.890259 
L 124.102403 138.033786 
L 127.424706 137.718025 
L 130.747009 136.216879 
L 134.069313 133.540437 
L 137.391616 131.109392 
L 140.713919 129.977389 
L 144.036222 129.301302 
L 147.358525 128.275204 
L 150.680829 129.748282 
L 154.003132 130.850627 
L 157.325435 132.965393 
L 160.647738 135.291732 
L 163.970041 135.8957 
L 167.292345 136.577715 
L 170.614648 137.861573 
L 173.936951 138.183612 
L 177.259254 138.545586 
L 180.581557 139.112087 
L 183.903861 139.929957 
L 187.226164 140.350818 
L 190.548467 141.216896 
L 193.87077 140.990106 
L 197.193073 140.550832 
L 200.515377 141.934904 
L 203.83768 142.238046 
L 207.159983 141.824323 
L 210.482286 141.998612 
L 213.804589 141.724068 
L 217.126893 141.679525 
L 220.449196 141.665201 
L 223.771499 141.944271 
" clip-path="url(#p71df18b09b)" style="fill: none; stroke: #61bfa3; stroke-width: 1.5; stroke-linecap: square"/>
   </g>
   <g id="line2d_21">
    <path d="M -1 218.162885 
L 11.547419 218.162885 
L 37.387555 218.162885 
L 42.593865 218.162885 
L 49.178313 218.162885 
L 54.537749 217.221241 
L 59.437805 212.598641 
L 61.275327 209.174488 
L 62.50034 205.579131 
L 63.572228 202.497388 
L 64.490986 199.244441 
L 65.40975 195.649083 
L 66.328508 192.053726 
L 67.094142 188.629573 
L 67.859776 184.863004 
L 68.625409 181.781268 
L 69.391043 177.843494 
L 70.156677 174.24813 
L 71.228565 169.796735 
L 71.994199 165.687749 
L 72.912957 161.92118 
L 73.984845 156.613746 
L 74.750479 153.189594 
L 75.669243 149.423025 
L 76.741125 145.656456 
L 77.790678 141.704724 
L 79.344281 136.92487 
L 80.722424 132.987096 
L 82.253691 129.734148 
L 83.938083 126.481204 
L 85.928729 123.741882 
L 88.991269 121.344975 
L 92.053804 120.488937 
L 94.656954 120.488937 
L 97.106979 121.173767 
L 99.557016 122.029805 
L 101.700781 122.714635 
L 103.844558 123.91309 
L 105.83521 124.769128 
L 108.132111 125.796374 
L 110.429012 126.823621 
L 112.725913 127.679659 
L 114.716553 128.364489 
L 116.86033 129.049319 
L 119.157231 129.391735 
L 121.607256 129.734148 
L 123.751033 129.734148 
L 126.047934 129.734148 
L 128.344835 129.734148 
L 130.79486 129.220527 
L 133.244897 128.535697 
L 135.541798 127.850864 
L 137.838699 127.166034 
L 139.982464 126.309996 
L 141.819992 125.625166 
L 143.963768 125.111545 
L 146.413794 125.111545 
L 148.710695 125.796374 
L 150.854471 126.994826 
L 152.691987 128.364489 
L 154.376379 130.076565 
L 156.060771 131.959846 
L 157.745164 133.671922 
L 159.58269 135.726415 
L 161.726468 137.438491 
L 163.717107 139.321779 
L 165.860885 140.862644 
L 167.851538 141.889894 
L 169.842177 142.745932 
L 172.292204 143.430758 
L 174.895365 143.773175 
L 177.498515 143.94438 
L 180.101675 143.773175 
L 182.85795 143.773175 
L 185.154862 143.94438 
L 187.604877 143.94438 
L 189.748664 144.286796 
L 192.351813 144.458008 
L 195.108089 144.971629 
L 197.251864 145.314046 
L 199.548765 145.656456 
L 201.845666 145.998873 
L 203.989454 146.341289 
L 206.286355 146.683706 
L 208.73637 146.854911 
L 210.880157 147.026122 
L 213.483307 147.197327 
L 216.086457 147.026122 
L 218.689608 146.854911 
L 221.599028 146.512494 
L 224.355292 145.998873 
L 227.089515 145.595837 
L 229.867864 144.971629 
L 231.4 144.539564 
" clip-path="url(#p71df18b09b)" style="fill: none; stroke-dasharray: 7.5,6; stroke-dashoffset: 0; stroke: #6c757d; stroke-width: 1.5"/>
   </g>
   <g id="matplotlib.axis_3">
    <g id="xtick_8">
     <g id="line2d_22">
      <g>
       <use xlink:href="#m91696c1bdb" x="26.094459" y="218.162885" style="fill: #c2c1c1; stroke: #c2c1c1; stroke-width: 0.8"/>
      </g>
     </g>
    </g>
    <g id="xtick_9">
     <g id="line2d_23">
      <g>
       <use xlink:href="#m91696c1bdb" x="59.317491" y="218.162885" style="fill: #c2c1c1; stroke: #c2c1c1; stroke-width: 0.8"/>
      </g>
     </g>
    </g>
    <g id="xtick_10">
     <g id="line2d_24">
      <g>
       <use xlink:href="#m91696c1bdb" x="92.540523" y="218.162885" style="fill: #c2c1c1; stroke: #c2c1c1; stroke-width: 0.8"/>
      </g>
     </g>
    </g>
    <g id="xtick_11">
     <g id="line2d_25">
      <g>
       <use xlink:href="#m91696c1bdb" x="125.763555" y="218.162885" style="fill: #c2c1c1; stroke: #c2c1c1; stroke-width: 0.8"/>
      </g>
     </g>
    </g>
    <g id="xtick_12">
     <g id="line2d_26">
      <g>
       <use xlink:href="#m91696c1bdb" x="158.986587" y="218.162885" style="fill: #c2c1c1; stroke: #c2c1c1; stroke-width: 0.8"/>
      </g>
     </g>
    </g>
    <g id="xtick_13">
     <g id="line2d_27">
      <g>
       <use xlink:href="#m91696c1bdb" x="192.209619" y="218.162885" style="fill: #c2c1c1; stroke: #c2c1c1; stroke-width: 0.8"/>
      </g>
     </g>
    </g>
    <g id="xtick_14">
     <g id="line2d_28">
      <g>
       <use xlink:href="#m91696c1bdb" x="225.432651" y="218.162885" style="fill: #c2c1c1; stroke: #c2c1c1; stroke-width: 0.8"/>
      </g>
     </g>
    </g>
   </g>
   <g id="matplotlib.axis_4">
    <g id="ytick_7">
     <g id="line2d_29">
      <g>
       <use xlink:href="#m29526b5ea4" x="26.094459" y="218.162885" style="fill: #c2c1c1; stroke: #c2c1c1; stroke-width: 0.8"/>
      </g>
     </g>
     <g id="text_9">
      <!-- 0 -->
      <g style="fill: #191919" transform="translate(15.16024 220.787885) scale(0.07 -0.07)">
       <use xlink:href="#Roboto-Regular-30"/>
      </g>
     </g>
    </g>
    <g id="ytick_8">
     <g id="line2d_30">
      <g>
       <use xlink:href="#m29526b5ea4" x="26.094459" y="140.073186" style="fill: #c2c1c1; stroke: #c2c1c1; stroke-width: 0.8"/>
      </g>
     </g>
     <g id="text_10">
      <!-- 1 -->
      <g style="fill: #191919" transform="translate(15.16024 142.698186) scale(0.07 -0.07)">
       <use xlink:href="#Roboto-Regular-31"/>
      </g>
     </g>
    </g>
    <g id="ytick_9">
     <g id="line2d_31">
      <g>
       <use xlink:href="#m6b385fd75e" x="26.094459" y="179.118035" style="fill: #c2c1c1; stroke: #c2c1c1; stroke-width: 0.6"/>
      </g>
     </g>
    </g>
    <g id="text_11">
     <!-- g$\mathregular{_{NN}}$(r) -->
     <g style="fill: #191919" transform="translate(9.32024 177.564063) rotate(-90) scale(0.08 -0.08)">
      <defs>
       <path id="Roboto-Bold-4e" d="M 4109 4550 
L 4109 0 
L 3172 0 
L 1347 2997 
L 1347 0 
L 406 0 
L 406 4550 
L 1347 4550 
L 3172 1550 
L 3172 4550 
L 4109 4550 
z
" transform="scale(0.015625)"/>
      </defs>
      <use xlink:href="#Roboto-Bold-67" transform="translate(0 0.046875)"/>
      <use xlink:href="#Roboto-Bold-4e" transform="translate(58.053398 -15.801563) scale(0.7)"/>
      <use xlink:href="#Roboto-Bold-4e" transform="translate(107.511406 -15.801563) scale(0.7)"/>
      <use xlink:href="#Roboto-Bold-28" transform="translate(159.61082 0.046875)"/>
      <use xlink:href="#Roboto-Bold-72" transform="translate(194.718242 0.046875)"/>
      <use xlink:href="#Roboto-Bold-29" transform="translate(231.24168 0.046875)"/>
     </g>
    </g>
   </g>
   <g id="patch_8">
    <path d="M 26.094459 218.162885 
L 26.094459 115.60524 
" style="fill: none; stroke: #c2c1c1; stroke-width: 0.8; stroke-linejoin: miter; stroke-linecap: square"/>
   </g>
   <g id="patch_9">
    <path d="M 225.432651 218.162885 
L 225.432651 115.60524 
" style="fill: none; stroke: #c2c1c1; stroke-width: 0.8; stroke-linejoin: miter; stroke-linecap: square"/>
   </g>
   <g id="patch_10">
    <path d="M 26.094459 218.162885 
L 225.432651 218.162885 
" style="fill: none; stroke: #c2c1c1; stroke-width: 0.8; stroke-linejoin: miter; stroke-linecap: square"/>
   </g>
   <g id="patch_11">
    <path d="M 26.094459 115.60524 
L 225.432651 115.60524 
" style="fill: none; stroke: #c2c1c1; stroke-width: 0.8; stroke-linejoin: miter; stroke-linecap: square"/>
   </g>
   <g id="text_12">
    <!-- B -->
    <g transform="translate(30.081223 125.861005) scale(0.096 -0.096)">
     <defs>
      <path id="Roboto-Bold-42" d="M 3788 1341 
Q 3788 684 3369 345 
Q 2950 6 2175 0 
L 406 0 
L 406 4550 
L 2003 4550 
Q 2794 4550 3241 4247 
Q 3688 3944 3688 3306 
Q 3688 2997 3531 2737 
Q 3375 2478 3038 2344 
Q 3438 2244 3613 1956 
Q 3788 1669 3788 1341 
z
M 1347 3791 
L 1347 2647 
L 2003 2647 
Q 2747 2647 2747 3209 
Q 2747 3778 2034 3791 
L 1347 3791 
z
M 2850 1350 
Q 2850 1963 2231 1984 
L 1347 1984 
L 1347 756 
L 2147 756 
Q 2506 756 2678 925 
Q 2850 1094 2850 1350 
z
" transform="scale(0.015625)"/>
     </defs>
     <use xlink:href="#Roboto-Bold-42"/>
    </g>
   </g>
   <g id="text_13">
    <!-- MeCN -->
    <g transform="translate(199.518686 125.861005) scale(0.08 -0.08)">
     <defs>
      <path id="Roboto-Regular-43" d="M 3275 1447 
L 3875 1447 
Q 3806 800 3387 368 
Q 2969 -63 2150 -63 
Q 1356 -63 870 504 
Q 384 1072 375 2013 
L 375 2500 
Q 375 3456 867 4034 
Q 1359 4613 2203 4613 
Q 2975 4613 3390 4188 
Q 3806 3763 3875 3091 
L 3275 3091 
Q 3206 3566 2968 3842 
Q 2731 4119 2203 4119 
Q 1600 4119 1287 3675 
Q 975 3231 975 2506 
L 975 2047 
Q 975 1375 1259 901 
Q 1544 428 2150 428 
Q 2725 428 2961 697 
Q 3197 966 3275 1447 
z
" transform="scale(0.015625)"/>
      <path id="Roboto-Regular-4e" d="M 4028 4550 
L 4028 0 
L 3422 0 
L 1131 3509 
L 1131 0 
L 528 0 
L 528 4550 
L 1131 4550 
L 3431 1031 
L 3431 4550 
L 4028 4550 
z
" transform="scale(0.015625)"/>
     </defs>
     <use xlink:href="#Roboto-Regular-4d"/>
     <use xlink:href="#Roboto-Regular-65" x="87.304688"/>
     <use xlink:href="#Roboto-Regular-43" x="140.332031"/>
     <use xlink:href="#Roboto-Regular-4e" x="205.419922"/>
    </g>
   </g>
  </g>
  <g id="axes_3">
   <g id="patch_12">
    <path d="M 26.094459 330.767885 
L 225.432651 330.767885 
L 225.432651 228.21024 
L 26.094459 228.21024 
z
" style="fill: #ffffff"/>
   </g>
   <g id="line2d_32">
    <path d="M 26.094459 285.850931 
L 225.432651 285.850931 
" clip-path="url(#peb528c3f64)" style="fill: none; stroke-dasharray: 1.5,6; stroke-dashoffset: 0; stroke: #c0c0c0; stroke-width: 1.5"/>
   </g>
   <g id="line2d_33">
    <path d="M -1 330.767885 
L 1.177185 330.767885 
L 4.499488 330.767885 
L 7.821791 330.767885 
L 11.144094 330.767885 
L 14.466398 330.767885 
L 17.788701 330.767885 
L 21.111004 330.767885 
L 24.433307 330.767885 
L 27.75561 330.767885 
L 31.077914 330.767885 
L 34.400217 330.767885 
L 37.72252 330.624617 
L 41.044823 328.036781 
L 44.367126 312.42999 
L 47.68943 278.070894 
L 51.011733 244.765226 
L 54.334036 233.093937 
L 57.656339 243.962826 
L 60.978642 260.006967 
L 64.300946 275.585277 
L 67.623249 286.165223 
L 70.945552 291.245253 
L 74.267855 294.857763 
L 77.590158 297.10007 
L 80.912462 297.367059 
L 84.234765 296.878886 
L 87.557068 296.372558 
L 90.879371 295.155659 
L 94.201674 292.905717 
L 97.523978 290.234151 
L 100.846281 287.948431 
L 104.168584 285.72768 
L 107.490887 284.182052 
L 110.81319 282.372744 
L 114.135493 282.267598 
L 117.457797 281.967045 
L 120.7801 282.966399 
L 124.102403 284.737993 
L 127.424706 286.084368 
L 130.747009 286.948091 
L 134.069313 287.774857 
L 137.391616 288.112825 
L 140.713919 288.844271 
L 144.036222 288.903194 
L 147.358525 288.316783 
L 150.680829 287.326903 
L 154.003132 287.681481 
L 157.325435 287.34761 
L 160.647738 286.615373 
L 163.970041 286.203709 
L 167.292345 286.261743 
L 170.614648 286.046362 
L 173.936951 285.855191 
L 177.259254 284.966331 
L 180.581557 285.173914 
L 183.903861 285.10777 
L 187.226164 284.26248 
L 190.548467 284.164592 
L 193.87077 283.588519 
L 197.193073 283.762363 
L 200.515377 283.84427 
L 203.83768 283.430649 
L 207.159983 283.769548 
L 210.482286 283.828621 
L 213.804589 284.298908 
L 217.126893 284.188627 
L 220.449196 284.45324 
L 223.771499 283.740548 
" clip-path="url(#peb528c3f64)" style="fill: none; stroke: #ffb5ba; stroke-width: 1.5; stroke-linecap: square"/>
   </g>
   <g id="line2d_34">
    <path d="M -1 330.767885 
L 10.16705 330.767885 
L 32.619785 330.767885 
L 37.180497 330.226282 
L 39.636265 328.709793 
L 40.688737 325.893457 
L 41.741209 322.860479 
L 42.092033 319.394219 
L 42.793681 316.577883 
L 42.793681 313.544905 
L 43.144505 309.862003 
L 43.144505 305.74582 
L 43.495329 302.496201 
L 43.846153 298.813299 
L 44.196977 289.064443 
L 44.547801 285.381541 
L 44.898625 282.131922 
L 45.600273 278.449021 
L 45.951097 271.083218 
L 46.652745 268.05024 
L 47.003569 263.717415 
L 47.354393 259.38459 
L 47.705217 250.935581 
L 48.406865 247.469321 
L 48.757689 244.869626 
L 49.810161 242.26993 
L 51.213457 245.086267 
L 52.265929 247.252679 
L 52.967576 249.419092 
L 53.3184 251.585505 
L 54.020048 253.968558 
L 54.370872 256.351612 
L 55.07252 258.734666 
L 55.423344 261.334361 
L 55.774168 263.934056 
L 56.124992 266.750393 
L 56.475816 269.350088 
L 57.177464 271.733142 
L 57.879112 273.899554 
L 58.229936 276.499249 
L 59.282408 279.098945 
L 59.984056 281.69864 
L 61.036528 284.298335 
L 62.089 287.331312 
L 63.141472 289.931008 
L 64.544768 292.314061 
L 66.298888 294.480474 
L 68.403832 295.996963 
L 70.8596 297.730093 
L 73.666192 299.463223 
L 76.472784 299.679864 
L 79.981024 299.463223 
L 83.13844 298.380017 
L 85.945032 296.646887 
L 88.751624 295.130398 
L 91.207392 294.047192 
L 93.663159 292.747344 
L 95.417279 290.797573 
L 97.171399 289.281084 
L 99.627167 287.547954 
L 102.082935 285.598182 
L 104.538703 283.43177 
L 106.994471 281.481998 
L 109.801063 279.532227 
L 113.309303 279.748868 
L 116.466719 280.398792 
L 119.974959 281.69864 
L 123.132375 282.781846 
L 125.237319 284.298335 
L 128.043911 285.381541 
L 131.201327 286.031465 
L 134.007918 286.464747 
L 138.217806 287.331312 
L 142.07687 287.764595 
L 145.935934 288.197878 
L 149.09335 288.197878 
L 152.250766 287.981236 
L 156.10983 287.981236 
L 159.61807 287.547954 
L 163.477134 287.331312 
L 166.63455 286.681389 
L 169.090318 286.464747 
L 171.89691 286.031465 
L 175.054325 285.598182 
L 178.562565 285.381541 
L 182.421629 285.1649 
L 185.228221 285.1649 
L 188.736461 285.1649 
L 191.192229 285.1649 
L 194.700469 284.948259 
L 197.857885 285.381541 
L 201.716949 285.598182 
L 205.225189 285.814824 
L 208.733429 285.814824 
L 211.890845 286.031465 
L 215.399084 286.464747 
L 219.608972 286.681389 
L 224.169684 286.89803 
L 229.08122 286.89803 
L 231.4 286.89803 
" clip-path="url(#peb528c3f64)" style="fill: none; stroke-dasharray: 7.5,6; stroke-dashoffset: 0; stroke: #6c757d; stroke-width: 1.5"/>
   </g>
   <g id="matplotlib.axis_5">
    <g id="xtick_15">
     <g id="line2d_35">
      <g>
       <use xlink:href="#m91696c1bdb" x="26.094459" y="330.767885" style="fill: #c2c1c1; stroke: #c2c1c1; stroke-width: 0.8"/>
      </g>
     </g>
     <g id="text_14">
      <!-- 2 -->
      <g style="fill: #191919" transform="translate(24.127349 343.017885) scale(0.07 -0.07)">
       <use xlink:href="#Roboto-Regular-32"/>
      </g>
     </g>
    </g>
    <g id="xtick_16">
     <g id="line2d_36">
      <g>
       <use xlink:href="#m91696c1bdb" x="59.317491" y="330.767885" style="fill: #c2c1c1; stroke: #c2c1c1; stroke-width: 0.8"/>
      </g>
     </g>
     <g id="text_15">
      <!-- 3 -->
      <g style="fill: #191919" transform="translate(57.350381 343.017885) scale(0.07 -0.07)">
       <defs>
        <path id="Roboto-Regular-33" d="M 1222 2084 
L 1222 2559 
L 1647 2559 
Q 2094 2563 2312 2784 
Q 2531 3006 2531 3338 
Q 2531 4138 1738 4138 
Q 1369 4138 1141 3927 
Q 913 3716 913 3359 
L 334 3359 
Q 334 3881 720 4247 
Q 1106 4613 1738 4613 
Q 2353 4613 2733 4286 
Q 3113 3959 3113 3325 
Q 3113 3072 2942 2784 
Q 2772 2497 2397 2338 
Q 2850 2191 3015 1884 
Q 3181 1578 3181 1269 
Q 3181 631 2768 284 
Q 2356 -63 1741 -63 
Q 1147 -63 722 267 
Q 297 597 297 1203 
L 875 1203 
Q 875 844 1108 628 
Q 1341 413 1741 413 
Q 2138 413 2369 622 
Q 2600 831 2600 1256 
Q 2600 1681 2337 1882 
Q 2075 2084 1634 2084 
L 1222 2084 
z
" transform="scale(0.015625)"/>
       </defs>
       <use xlink:href="#Roboto-Regular-33"/>
      </g>
     </g>
    </g>
    <g id="xtick_17">
     <g id="line2d_37">
      <g>
       <use xlink:href="#m91696c1bdb" x="92.540523" y="330.767885" style="fill: #c2c1c1; stroke: #c2c1c1; stroke-width: 0.8"/>
      </g>
     </g>
     <g id="text_16">
      <!-- 4 -->
      <g style="fill: #191919" transform="translate(90.573413 343.017885) scale(0.07 -0.07)">
       <defs>
        <path id="Roboto-Regular-34" d="M 166 1397 
L 2203 4550 
L 2819 4550 
L 2819 1531 
L 3453 1531 
L 3453 1056 
L 2819 1056 
L 2819 0 
L 2241 0 
L 2241 1056 
L 166 1056 
L 166 1397 
z
M 822 1531 
L 2241 1531 
L 2241 3766 
L 2169 3638 
L 822 1531 
z
" transform="scale(0.015625)"/>
       </defs>
       <use xlink:href="#Roboto-Regular-34"/>
      </g>
     </g>
    </g>
    <g id="xtick_18">
     <g id="line2d_38">
      <g>
       <use xlink:href="#m91696c1bdb" x="125.763555" y="330.767885" style="fill: #c2c1c1; stroke: #c2c1c1; stroke-width: 0.8"/>
      </g>
     </g>
     <g id="text_17">
      <!-- 5 -->
      <g style="fill: #191919" transform="translate(123.796445 343.017885) scale(0.07 -0.07)">
       <defs>
        <path id="Roboto-Regular-35" d="M 1109 2166 
L 647 2284 
L 875 4550 
L 3209 4550 
L 3209 4016 
L 1366 4016 
L 1228 2778 
Q 1572 2975 1988 2975 
Q 2616 2975 2980 2561 
Q 3344 2147 3344 1450 
Q 3344 797 2987 367 
Q 2631 -63 1903 -63 
Q 1350 -63 947 248 
Q 544 559 481 1197 
L 1031 1197 
Q 1141 413 1903 413 
Q 2313 413 2538 691 
Q 2763 969 2763 1444 
Q 2763 1872 2527 2164 
Q 2291 2456 1853 2456 
Q 1563 2456 1413 2378 
Q 1263 2300 1109 2166 
z
" transform="scale(0.015625)"/>
       </defs>
       <use xlink:href="#Roboto-Regular-35"/>
      </g>
     </g>
    </g>
    <g id="xtick_19">
     <g id="line2d_39">
      <g>
       <use xlink:href="#m91696c1bdb" x="158.986587" y="330.767885" style="fill: #c2c1c1; stroke: #c2c1c1; stroke-width: 0.8"/>
      </g>
     </g>
     <g id="text_18">
      <!-- 6 -->
      <g style="fill: #191919" transform="translate(157.019477 343.017885) scale(0.07 -0.07)">
       <defs>
        <path id="Roboto-Regular-36" d="M 3291 1484 
Q 3291 838 2930 387 
Q 2569 -63 1878 -63 
Q 1388 -63 1063 198 
Q 738 459 577 861 
Q 416 1263 416 1684 
L 416 1956 
Q 416 2597 595 3194 
Q 775 3791 1247 4173 
Q 1719 4556 2597 4556 
L 2647 4556 
L 2647 4066 
Q 2041 4066 1705 3853 
Q 1369 3641 1205 3302 
Q 1041 2963 1006 2575 
Q 1369 2984 1984 2984 
Q 2438 2984 2727 2765 
Q 3016 2547 3153 2201 
Q 3291 1856 3291 1484 
z
M 997 1666 
Q 997 1059 1267 737 
Q 1538 416 1878 416 
Q 2278 416 2498 708 
Q 2719 1000 2719 1456 
Q 2719 1863 2516 2184 
Q 2313 2506 1891 2506 
Q 1588 2506 1341 2325 
Q 1094 2144 997 1884 
L 997 1666 
z
" transform="scale(0.015625)"/>
       </defs>
       <use xlink:href="#Roboto-Regular-36"/>
      </g>
     </g>
    </g>
    <g id="xtick_20">
     <g id="line2d_40">
      <g>
       <use xlink:href="#m91696c1bdb" x="192.209619" y="330.767885" style="fill: #c2c1c1; stroke: #c2c1c1; stroke-width: 0.8"/>
      </g>
     </g>
     <g id="text_19">
      <!-- 7 -->
      <g style="fill: #191919" transform="translate(190.242509 343.017885) scale(0.07 -0.07)">
       <defs>
        <path id="Roboto-Regular-37" d="M 3319 4550 
L 3319 4225 
L 1434 0 
L 825 0 
L 2706 4075 
L 244 4075 
L 244 4550 
L 3319 4550 
z
" transform="scale(0.015625)"/>
       </defs>
       <use xlink:href="#Roboto-Regular-37"/>
      </g>
     </g>
    </g>
    <g id="xtick_21">
     <g id="line2d_41">
      <g>
       <use xlink:href="#m91696c1bdb" x="225.432651" y="330.767885" style="fill: #c2c1c1; stroke: #c2c1c1; stroke-width: 0.8"/>
      </g>
     </g>
     <g id="text_20">
      <!-- 8 -->
      <g style="fill: #191919" transform="translate(223.465541 343.017885) scale(0.07 -0.07)">
       <defs>
        <path id="Roboto-Regular-38" d="M 3244 1231 
Q 3244 606 2826 271 
Q 2409 -63 1796 -63 
Q 1184 -63 767 271 
Q 350 606 350 1231 
Q 350 1613 554 1905 
Q 759 2197 1109 2347 
Q 806 2494 629 2762 
Q 453 3031 453 3366 
Q 453 3963 833 4288 
Q 1213 4613 1794 4613 
Q 2378 4613 2758 4288 
Q 3138 3963 3138 3366 
Q 3138 3028 2956 2761 
Q 2775 2494 2472 2347 
Q 2825 2197 3034 1903 
Q 3244 1609 3244 1231 
z
M 2559 3356 
Q 2559 3697 2346 3917 
Q 2134 4138 1793 4138 
Q 1453 4138 1243 3927 
Q 1034 3716 1034 3356 
Q 1034 3003 1243 2790 
Q 1453 2578 1797 2578 
Q 2138 2578 2348 2790 
Q 2559 3003 2559 3356 
z
M 2663 1244 
Q 2663 1625 2420 1865 
Q 2178 2106 1791 2106 
Q 1394 2106 1161 1865 
Q 928 1625 928 1244 
Q 928 850 1161 631 
Q 1394 413 1797 413 
Q 2200 413 2431 631 
Q 2663 850 2663 1244 
z
" transform="scale(0.015625)"/>
       </defs>
       <use xlink:href="#Roboto-Regular-38"/>
      </g>
     </g>
    </g>
    <g id="text_21">
     <!-- r $\left( \mathbf{\AA} \right)$ -->
     <g style="fill: #191919" transform="translate(117.083555 355.37476) scale(0.08 -0.08)">
      <defs>
       <path id="Roboto-Bold-20" transform="scale(0.015625)"/>
       <path id="DejaVuSans-28" d="M 1984 4856 
Q 1566 4138 1362 3434 
Q 1159 2731 1159 2009 
Q 1159 1288 1364 580 
Q 1569 -128 1984 -844 
L 1484 -844 
Q 1016 -109 783 600 
Q 550 1309 550 2009 
Q 550 2706 781 3412 
Q 1013 4119 1484 4856 
L 1984 4856 
z
" transform="scale(0.015625)"/>
       <path id="DejaVuSans-Bold-c5" d="M 3225 4575 
L 4922 0 
L 3713 0 
L 3419 850 
L 1538 850 
L 1241 0 
L 31 0 
L 1728 4575 
Q 1656 4681 1622 4798 
Q 1588 4916 1588 5050 
Q 1588 5416 1848 5678 
Q 2109 5941 2478 5941 
Q 2841 5941 3103 5678 
Q 3366 5416 3366 5050 
Q 3366 4903 3331 4784 
Q 3297 4666 3225 4575 
z
M 2069 5050 
Q 2069 4881 2189 4761 
Q 2309 4641 2478 4641 
Q 2647 4641 2767 4761 
Q 2888 4881 2888 5050 
Q 2888 5219 2766 5339 
Q 2644 5459 2478 5459 
Q 2309 5459 2189 5339 
Q 2069 5219 2069 5050 
z
M 1838 1716 
L 3116 1716 
L 2478 3572 
L 1838 1716 
z
" transform="scale(0.015625)"/>
       <path id="DejaVuSans-29" d="M 513 4856 
L 1013 4856 
Q 1481 4119 1714 3412 
Q 1947 2706 1947 2009 
Q 1947 1309 1714 600 
Q 1481 -109 1013 -844 
L 513 -844 
Q 928 -128 1133 580 
Q 1338 1288 1338 2009 
Q 1338 2731 1133 3434 
Q 928 4138 513 4856 
z
" transform="scale(0.015625)"/>
      </defs>
      <use xlink:href="#Roboto-Bold-72" transform="translate(0 0.171875)"/>
      <use xlink:href="#Roboto-Bold-20" transform="translate(36.523438 0.171875)"/>
      <use xlink:href="#DejaVuSans-28" transform="translate(61.425781 0.171875)"/>
      <use xlink:href="#DejaVuSans-Bold-c5" transform="translate(100.439453 0.171875)"/>
      <use xlink:href="#DejaVuSans-29" transform="translate(177.832031 0.171875)"/>
     </g>
    </g>
   </g>
   <g id="matplotlib.axis_6">
    <g id="ytick_10">
     <g id="line2d_42">
      <g>
       <use xlink:href="#m29526b5ea4" x="26.094459" y="330.767885" style="fill: #c2c1c1; stroke: #c2c1c1; stroke-width: 0.8"/>
      </g>
     </g>
     <g id="text_22">
      <!-- 0 -->
      <g style="fill: #191919" transform="translate(15.16024 333.392885) scale(0.07 -0.07)">
       <use xlink:href="#Roboto-Regular-30"/>
      </g>
     </g>
    </g>
    <g id="ytick_11">
     <g id="line2d_43">
      <g>
       <use xlink:href="#m29526b5ea4" x="26.094459" y="285.850931" style="fill: #c2c1c1; stroke: #c2c1c1; stroke-width: 0.8"/>
      </g>
     </g>
     <g id="text_23">
      <!-- 1 -->
      <g style="fill: #191919" transform="translate(15.16024 288.475931) scale(0.07 -0.07)">
       <use xlink:href="#Roboto-Regular-31"/>
      </g>
     </g>
    </g>
    <g id="ytick_12">
     <g id="line2d_44">
      <g>
       <use xlink:href="#m29526b5ea4" x="26.094459" y="240.933976" style="fill: #c2c1c1; stroke: #c2c1c1; stroke-width: 0.8"/>
      </g>
     </g>
     <g id="text_24">
      <!-- 2 -->
      <g style="fill: #191919" transform="translate(15.16024 243.558976) scale(0.07 -0.07)">
       <use xlink:href="#Roboto-Regular-32"/>
      </g>
     </g>
    </g>
    <g id="ytick_13">
     <g id="line2d_45">
      <g>
       <use xlink:href="#m6b385fd75e" x="26.094459" y="308.309408" style="fill: #c2c1c1; stroke: #c2c1c1; stroke-width: 0.6"/>
      </g>
     </g>
    </g>
    <g id="ytick_14">
     <g id="line2d_46">
      <g>
       <use xlink:href="#m6b385fd75e" x="26.094459" y="263.392453" style="fill: #c2c1c1; stroke: #c2c1c1; stroke-width: 0.6"/>
      </g>
     </g>
    </g>
    <g id="text_25">
     <!-- g$\mathregular{_{OO}}$(r) -->
     <g style="fill: #191919" transform="translate(9.32024 290.089062) rotate(-90) scale(0.08 -0.08)">
      <use xlink:href="#Roboto-Bold-67" transform="translate(0 0.046875)"/>
      <use xlink:href="#Roboto-Bold-4f" transform="translate(58.053398 -15.801563) scale(0.7)"/>
      <use xlink:href="#Roboto-Bold-4f" transform="translate(106.383477 -15.801563) scale(0.7)"/>
      <use xlink:href="#Roboto-Bold-28" transform="translate(157.354961 0.046875)"/>
      <use xlink:href="#Roboto-Bold-72" transform="translate(192.462383 0.046875)"/>
      <use xlink:href="#Roboto-Bold-29" transform="translate(228.98582 0.046875)"/>
     </g>
    </g>
   </g>
   <g id="patch_13">
    <path d="M 26.094459 330.767885 
L 26.094459 228.21024 
" style="fill: none; stroke: #c2c1c1; stroke-width: 0.8; stroke-linejoin: miter; stroke-linecap: square"/>
   </g>
   <g id="patch_14">
    <path d="M 225.432651 330.767885 
L 225.432651 228.21024 
" style="fill: none; stroke: #c2c1c1; stroke-width: 0.8; stroke-linejoin: miter; stroke-linecap: square"/>
   </g>
   <g id="patch_15">
    <path d="M 26.094459 330.767885 
L 225.432651 330.767885 
" style="fill: none; stroke: #c2c1c1; stroke-width: 0.8; stroke-linejoin: miter; stroke-linecap: square"/>
   </g>
   <g id="patch_16">
    <path d="M 26.094459 228.21024 
L 225.432651 228.21024 
" style="fill: none; stroke: #c2c1c1; stroke-width: 0.8; stroke-linejoin: miter; stroke-linecap: square"/>
   </g>
   <g id="text_26">
    <!-- C -->
    <g transform="translate(30.081223 238.466004) scale(0.096 -0.096)">
     <defs>
      <path id="Roboto-Bold-43" d="M 3044 1516 
L 3981 1516 
Q 3934 822 3461 379 
Q 2988 -63 2150 -63 
Q 1275 -63 772 526 
Q 269 1116 269 2125 
L 269 2422 
Q 269 3431 784 4023 
Q 1300 4616 2159 4616 
Q 3013 4616 3466 4161 
Q 3919 3706 3984 3006 
L 3047 3006 
Q 3016 3413 2820 3630 
Q 2625 3847 2159 3847 
Q 1247 3847 1222 2500 
L 1222 2125 
Q 1222 1419 1436 1062 
Q 1650 706 2150 706 
Q 2594 706 2801 907 
Q 3009 1109 3044 1516 
z
" transform="scale(0.015625)"/>
     </defs>
     <use xlink:href="#Roboto-Bold-43"/>
    </g>
   </g>
   <g id="text_27">
    <!-- MeOH -->
    <g transform="translate(199.518686 238.466004) scale(0.08 -0.08)">
     <use xlink:href="#Roboto-Regular-4d"/>
     <use xlink:href="#Roboto-Regular-65" x="87.304688"/>
     <use xlink:href="#Roboto-Regular-4f" x="140.332031"/>
     <use xlink:href="#Roboto-Regular-48" x="209.130859"/>
    </g>
   </g>
  </g>
 </g>
 <defs>
  <clipPath id="pddcf040f91">
   <rect x="26.094459" y="3.00024" width="199.338192" height="102.557645"/>
  </clipPath>
  <clipPath id="p71df18b09b">
   <rect x="26.094459" y="115.60524" width="199.338192" height="102.557645"/>
  </clipPath>
  <clipPath id="peb528c3f64">
   <rect x="26.094459" y="228.21024" width="199.338192" height="102.557645"/>
  </clipPath>
 </defs>
</svg>
