<?xml version="1.0" encoding="utf-8" standalone="no"?>
<!DOCTYPE svg PUBLIC "-//W3C//DTD SVG 1.1//EN"
  "http://www.w3.org/Graphics/SVG/1.1/DTD/svg11.dtd">
<svg xmlns:xlink="http://www.w3.org/1999/xlink" width="230.4pt" height="360pt" viewBox="0 0 230.4 360" xmlns="http://www.w3.org/2000/svg" version="1.1">
 <metadata>
  <rdf:RDF xmlns:dc="http://purl.org/dc/elements/1.1/" xmlns:cc="http://creativecommons.org/ns#" xmlns:rdf="http://www.w3.org/1999/02/22-rdf-syntax-ns#">
   <cc:Work>
    <dc:type rdf:resource="http://purl.org/dc/dcmitype/StillImage"/>
    <dc:date>2022-12-21T12:56:26.767963</dc:date>
    <dc:format>image/svg+xml</dc:format>
    <dc:creator>
     <cc:Agent>
      <dc:title>Matplotlib v3.5.2, https://matplotlib.org/</dc:title>
     </cc:Agent>
    </dc:creator>
   </cc:Work>
  </rdf:RDF>
 </metadata>
 <defs>
  <style type="text/css">*{stroke-linejoin: round; stroke-linecap: butt}</style>
 </defs>
 <g id="figure_1">
  <g id="patch_1">
   <path d="M 0 360 
L 230.4 360 
L 230.4 0 
L 0 0 
z
" style="fill: #ffffff"/>
  </g>
  <g id="axes_1">
   <g id="patch_2">
    <path d="M 26.094459 105.557885 
L 225.432651 105.557885 
L 225.432651 3.00024 
L 26.094459 3.00024 
z
" style="fill: #ffffff"/>
   </g>
   <g id="line2d_1">
    <path d="M 26.094459 76.255701 
L 225.432651 76.255701 
" clip-path="url(#pcd20c17dbe)" style="fill: none; stroke-dasharray: 1.5,6; stroke-dashoffset: 0; stroke: #c0c0c0; stroke-width: 1.5"/>
   </g>
   <g id="line2d_2">
    <path d="M -1 105.557885 
L 36.010391 105.557885 
L 39.253932 104.908034 
L 41.200051 103.017567 
L 42.497474 100.654491 
L 43.14617 97.818795 
L 43.14617 94.9831 
L 43.794866 92.147404 
L 43.794866 89.548013 
L 44.11923 86.948622 
L 44.443593 84.112926 
L 44.443593 81.51354 
L 45.092289 78.914155 
L 45.092289 76.078459 
L 45.092289 73.479068 
L 45.416652 70.879682 
L 45.740985 68.280296 
L 45.740985 65.680905 
L 45.740985 62.608905 
L 46.065348 59.536899 
L 46.389711 53.156584 
L 46.714045 49.611965 
L 47.038408 46.776269 
L 47.038408 43.704264 
L 47.362771 41.104878 
L 47.362771 38.032873 
L 48.011467 35.197177 
L 48.33583 32.125174 
L 48.660164 29.289479 
L 49.633223 27.162707 
L 51.255009 28.816862 
L 51.903705 31.888867 
L 52.552402 34.724563 
L 53.201128 38.032873 
L 54.174187 41.577492 
L 54.822883 44.885807 
L 55.47158 47.721503 
L 55.795943 50.557199 
L 56.444639 53.865508 
L 57.417699 56.701204 
L 58.066425 59.536899 
L 59.039484 62.608905 
L 60.012544 65.4446 
L 60.985603 68.043986 
L 62.282996 70.643372 
L 64.229115 73.242763 
L 66.82396 75.369535 
L 69.743138 76.787383 
L 73.311013 77.732611 
L 77.203251 77.968921 
L 81.419852 77.968921 
L 85.960786 77.732611 
L 90.50172 77.259997 
L 94.718321 77.023687 
L 99.259255 76.551073 
L 103.475856 76.551073 
L 107.368094 76.314763 
L 111.584695 76.314763 
L 116.125629 76.314763 
L 120.990926 76.314763 
L 126.50492 76.314763 
L 130.721521 76.314763 
L 135.586818 76.314763 
L 139.479056 76.787383 
L 143.371294 76.787383 
L 148.560954 77.023687 
L 153.426251 77.023687 
L 157.967185 76.787383 
L 161.859423 76.551073 
L 165.427298 76.314763 
L 169.319536 75.842149 
L 173.536137 75.605839 
L 177.752737 75.605839 
L 181.969309 75.369535 
L 185.861546 75.133225 
L 189.429451 75.369535 
L 193.321689 75.369535 
L 196.889563 75.605839 
L 200.781801 75.605839 
L 204.349676 75.842149 
L 208.241914 75.842149 
L 211.809818 76.078459 
L 216.026389 76.078459 
L 219.594294 76.078459 
L 223.810865 76.078459 
L 227.703103 76.078459 
L 231.271007 76.078459 
L 231.4 76.078459 
" clip-path="url(#pcd20c17dbe)" style="fill: none; stroke: #e1e1e1; stroke-width: 1.5; stroke-linecap: square"/>
   </g>
   <g id="line2d_3">
    <path d="M -1 105.557885 
L 38.605221 105.557885 
L 40.875688 103.253882 
L 42.497474 101.127111 
L 42.821807 98.291415 
L 43.14617 95.692024 
L 43.794866 92.856328 
L 43.794866 89.784328 
L 44.11923 86.948633 
L 44.443593 83.876622 
L 44.767926 80.804622 
L 44.767926 77.732622 
L 45.092289 74.896926 
L 45.416652 72.061231 
L 45.092289 69.461839 
L 45.740985 66.626144 
L 45.740985 63.317829 
L 46.065348 60.482133 
L 46.065348 57.173829 
L 46.065348 53.865514 
L 46.389711 50.793508 
L 46.389711 47.721503 
L 46.714045 44.176883 
L 47.038408 41.104883 
L 47.362771 38.269188 
L 47.038408 35.669797 
L 47.362771 32.597797 
L 47.362771 29.762101 
L 47.687104 27.16271 
L 48.33583 24.563324 
L 48.660164 21.727628 
L 49.957586 19.128243 
L 50.930646 21.727628 
L 51.903705 25.272248 
L 52.552402 29.053177 
L 52.876765 32.361487 
L 53.525461 35.669797 
L 53.849824 38.978112 
L 54.49852 42.050112 
L 55.147247 45.122117 
L 55.47158 48.194122 
L 55.795943 51.502432 
L 56.444639 54.574438 
L 56.769002 57.410133 
L 57.417699 60.245829 
L 58.066425 63.081524 
L 59.039484 65.91722 
L 59.688181 68.98922 
L 60.66124 71.588611 
L 61.6343 74.660611 
L 63.256056 77.023698 
L 64.877841 79.623078 
L 68.121353 81.277241 
L 71.040531 81.513546 
L 74.932769 81.040926 
L 78.17631 80.095698 
L 81.744185 78.914155 
L 84.987727 77.968926 
L 88.231268 76.787383 
L 91.47478 75.60585 
L 95.042684 74.660611 
L 98.610559 73.951687 
L 102.178434 73.242763 
L 106.070671 73.006459 
L 110.287272 73.479078 
L 113.855147 73.715383 
L 117.423051 74.424307 
L 120.990926 75.133231 
L 124.234468 75.842155 
L 127.802342 76.551078 
L 131.370217 77.023698 
L 135.262455 77.732622 
L 139.479056 78.205231 
L 143.371294 78.67785 
L 147.263531 78.67785 
L 151.155769 78.205231 
L 155.048007 77.968926 
L 158.615882 77.023698 
L 163.156846 76.314774 
L 167.69778 75.60585 
L 171.590018 74.896926 
L 175.806619 74.660611 
L 180.347553 74.424307 
L 184.239791 74.188002 
L 187.807665 74.660611 
L 191.37557 74.660611 
L 194.943445 74.896926 
L 198.835682 75.133231 
L 203.376617 75.369535 
L 207.268854 75.60585 
L 211.485455 75.842155 
L 216.026389 75.842155 
L 220.24299 75.842155 
L 224.459591 76.078459 
L 228.676162 75.842155 
L 231.4 75.842155 
" clip-path="url(#pcd20c17dbe)" style="fill: none; stroke: #e1e1e1; stroke-width: 1.5; stroke-linecap: square"/>
   </g>
   <g id="line2d_4">
    <path d="M -1 105.557885 
L 36.061368 105.557885 
L 38.929569 104.848961 
L 40.875688 102.722189 
L 41.848748 100.122798 
L 42.173111 97.287103 
L 42.497474 94.687722 
L 42.821807 92.088331 
L 43.14617 89.48894 
L 43.14617 86.889559 
L 43.470533 84.053864 
L 43.794866 81.454472 
L 43.794866 78.855081 
L 44.11923 76.255701 
L 44.11923 73.656309 
L 44.11923 71.056918 
L 44.767926 68.457538 
L 44.767926 65.858147 
L 45.092289 62.549831 
L 45.092289 59.950451 
L 45.092289 55.933212 
L 45.092289 53.097516 
L 45.092289 49.789201 
L 45.740985 45.771973 
L 46.065348 41.991038 
L 46.389711 37.97381 
L 46.389711 34.429191 
L 47.038408 31.593495 
L 47.362771 28.521484 
L 47.362771 24.74056 
L 48.011467 20.959631 
L 48.984527 18.123935 
L 50.606283 20.250707 
L 50.930646 23.322713 
L 51.579342 27.339952 
L 52.228068 31.35718 
L 52.876765 36.555962 
L 53.525461 39.864267 
L 53.849824 43.408886 
L 54.822883 46.717201 
L 55.147247 50.261821 
L 56.120306 54.042745 
L 56.444639 57.587364 
L 56.769002 60.895679 
L 57.093365 64.440299 
L 58.390758 67.984918 
L 60.012544 71.056918 
L 61.309937 74.601538 
L 63.256056 77.909853 
L 65.202174 80.272929 
L 68.121353 81.927092 
L 71.689257 82.399701 
L 75.581495 82.163396 
L 79.798066 80.509244 
L 83.365971 79.327701 
L 86.609482 77.909853 
L 90.177387 76.255701 
L 93.420899 74.837853 
L 96.988803 73.656309 
L 100.881041 72.474766 
L 104.773279 71.765842 
L 108.341153 71.765842 
L 111.584695 72.002157 
L 115.15257 72.711081 
L 118.720444 73.656309 
L 121.963986 74.837853 
L 125.53186 75.783081 
L 129.099765 76.964625 
L 132.66764 77.909853 
L 136.559877 78.382472 
L 140.776478 78.855081 
L 145.641776 79.091396 
L 149.858347 78.618777 
L 153.750585 78.146157 
L 158.291548 77.437233 
L 163.156846 76.492005 
L 168.022143 75.546777 
L 172.238714 74.837853 
L 176.455315 74.365233 
L 180.996249 74.128929 
L 185.21285 73.892614 
L 189.429451 74.365233 
L 193.646022 74.601538 
L 197.53826 74.837853 
L 201.430498 75.074157 
L 205.971462 75.546777 
L 210.188033 75.783081 
L 214.728997 76.019386 
L 218.945568 76.019386 
L 223.486532 76.019386 
L 228.351829 75.783081 
L 231.4 75.644286 
" clip-path="url(#pcd20c17dbe)" style="fill: none; stroke: #e1e1e1; stroke-width: 1.5; stroke-linecap: square"/>
   </g>
   <g id="line2d_5">
    <path d="M -1 105.557885 
L 1.177185 105.557885 
L 4.499488 105.557885 
L 7.821791 105.557885 
L 11.144094 105.557885 
L 14.466398 105.557885 
L 17.788701 105.557885 
L 21.111004 105.557885 
L 24.433307 105.557885 
L 27.75561 105.557885 
L 31.077914 105.557885 
L 34.400217 105.557885 
L 37.72252 105.520151 
L 41.044823 103.642764 
L 44.367126 87.977275 
L 47.68943 53.93316 
L 51.011733 32.414928 
L 54.334036 36.105556 
L 57.656339 52.183408 
L 60.978642 66.88113 
L 64.300946 75.542907 
L 67.623249 78.866669 
L 70.945552 80.105558 
L 74.267855 80.019075 
L 77.590158 79.502271 
L 80.912462 78.905596 
L 84.234765 78.247904 
L 87.557068 76.517289 
L 90.879371 75.537861 
L 94.201674 74.475455 
L 97.523978 74.0759 
L 100.846281 72.791615 
L 104.168584 73.187056 
L 107.490887 73.463432 
L 110.81319 73.073209 
L 114.135493 73.141672 
L 117.457797 73.266645 
L 120.7801 74.770852 
L 124.102403 75.366325 
L 127.424706 76.493691 
L 130.747009 77.76942 
L 134.069313 78.578423 
L 137.391616 79.671741 
L 140.713919 79.687261 
L 144.036222 79.533334 
L 147.358525 79.544706 
L 150.680829 78.995632 
L 154.003132 78.495438 
L 157.325435 78.162777 
L 160.647738 77.331586 
L 163.970041 76.41356 
L 167.292345 75.607314 
L 170.614648 75.287627 
L 173.936951 74.751025 
L 177.259254 74.063295 
L 180.581557 73.505658 
L 183.903861 73.663027 
L 187.226164 73.906541 
L 190.548467 73.944316 
L 193.87077 74.415684 
L 197.193073 74.758528 
L 200.515377 75.261691 
L 203.83768 75.862133 
L 207.159983 76.218044 
L 210.482286 76.406197 
L 213.804589 76.640026 
L 217.126893 76.627002 
L 220.449196 76.782797 
L 223.771499 76.5968 
" clip-path="url(#pcd20c17dbe)" style="fill: none; stroke: #4abbf3; stroke-width: 1.5; stroke-linecap: square"/>
   </g>
   <g id="line2d_6">
    <path d="M -1 105.557885 
L 37.39029 105.49342 
L 38.386981 105.253142 
L 39.383672 104.488355 
L 40.380363 102.665759 
L 41.377053 99.422008 
L 42.373744 94.648682 
L 43.370435 88.542107 
L 45.363817 73.328413 
L 48.35389 48.333649 
L 49.350581 41.573635 
L 50.347272 36.495567 
L 51.343963 33.462791 
L 52.340654 32.440145 
L 53.337345 33.333861 
L 54.334036 35.763012 
L 55.330727 39.434576 
L 57.324109 48.779043 
L 59.317491 58.601135 
L 61.310873 67.12221 
L 62.307564 70.638472 
L 63.304255 73.609713 
L 64.300946 76.012493 
L 65.297636 77.917135 
L 66.294327 79.361732 
L 67.291018 80.425402 
L 68.287709 81.160886 
L 69.2844 81.635582 
L 70.281091 81.934464 
L 72.274473 82.101486 
L 74.267855 82.01944 
L 78.254619 81.383583 
L 80.248001 80.920608 
L 83.238074 79.974148 
L 86.228147 78.807921 
L 94.201674 75.517286 
L 98.188438 74.248501 
L 101.178511 73.533528 
L 104.168584 73.02074 
L 107.158657 72.710136 
L 110.14873 72.604649 
L 113.138803 72.75409 
L 115.132184 72.967996 
L 118.122257 73.513016 
L 121.11233 74.280733 
L 126.095785 75.83961 
L 131.07924 77.430718 
L 134.069313 78.25704 
L 138.056077 79.089222 
L 141.046149 79.490662 
L 144.036222 79.663545 
L 147.026295 79.60201 
L 150.016368 79.344151 
L 154.003132 78.717084 
L 157.989896 77.905414 
L 165.963423 76.258631 
L 174.933642 74.940033 
L 178.920406 74.611848 
L 183.903861 74.465337 
L 188.887315 74.614778 
L 193.87077 74.963474 
L 210.814517 76.563374 
L 215.797971 76.838814 
L 220.781426 76.961883 
L 226.761572 76.903279 
L 231.4 76.753275 
L 231.4 76.753275 
" clip-path="url(#pcd20c17dbe)" style="fill: none; stroke-dasharray: 7.5,6; stroke-dashoffset: 0; stroke: #555555; stroke-width: 1.5"/>
   </g>
   <g id="matplotlib.axis_1">
    <g id="xtick_1">
     <g id="line2d_7">
      <defs>
       <path id="mf7d4ba43b1" d="M 0 0 
L 0 3.5 
" style="stroke: #c2c1c1; stroke-width: 0.8"/>
      </defs>
      <g>
       <use xlink:href="#mf7d4ba43b1" x="26.094459" y="105.557885" style="fill: #c2c1c1; stroke: #c2c1c1; stroke-width: 0.8"/>
      </g>
     </g>
    </g>
    <g id="xtick_2">
     <g id="line2d_8">
      <g>
       <use xlink:href="#mf7d4ba43b1" x="59.317491" y="105.557885" style="fill: #c2c1c1; stroke: #c2c1c1; stroke-width: 0.8"/>
      </g>
     </g>
    </g>
    <g id="xtick_3">
     <g id="line2d_9">
      <g>
       <use xlink:href="#mf7d4ba43b1" x="92.540523" y="105.557885" style="fill: #c2c1c1; stroke: #c2c1c1; stroke-width: 0.8"/>
      </g>
     </g>
    </g>
    <g id="xtick_4">
     <g id="line2d_10">
      <g>
       <use xlink:href="#mf7d4ba43b1" x="125.763555" y="105.557885" style="fill: #c2c1c1; stroke: #c2c1c1; stroke-width: 0.8"/>
      </g>
     </g>
    </g>
    <g id="xtick_5">
     <g id="line2d_11">
      <g>
       <use xlink:href="#mf7d4ba43b1" x="158.986587" y="105.557885" style="fill: #c2c1c1; stroke: #c2c1c1; stroke-width: 0.8"/>
      </g>
     </g>
    </g>
    <g id="xtick_6">
     <g id="line2d_12">
      <g>
       <use xlink:href="#mf7d4ba43b1" x="192.209619" y="105.557885" style="fill: #c2c1c1; stroke: #c2c1c1; stroke-width: 0.8"/>
      </g>
     </g>
    </g>
    <g id="xtick_7">
     <g id="line2d_13">
      <g>
       <use xlink:href="#mf7d4ba43b1" x="225.432651" y="105.557885" style="fill: #c2c1c1; stroke: #c2c1c1; stroke-width: 0.8"/>
      </g>
     </g>
    </g>
   </g>
   <g id="matplotlib.axis_2">
    <g id="ytick_1">
     <g id="line2d_14">
      <defs>
       <path id="m2a1c997079" d="M 0 0 
L -3.5 0 
" style="stroke: #c2c1c1; stroke-width: 0.8"/>
      </defs>
      <g>
       <use xlink:href="#m2a1c997079" x="26.094459" y="105.557885" style="fill: #c2c1c1; stroke: #c2c1c1; stroke-width: 0.8"/>
      </g>
     </g>
     <g id="text_1">
      <!-- 0 -->
      <g style="fill: #191919" transform="translate(15.16024 108.182885)scale(0.07 -0.07)">
       <defs>
        <path id="Roboto-Regular-30" d="M 3234 1944 
Q 3234 825 2848 381 
Q 2463 -63 1800 -63 
Q 1156 -63 764 368 
Q 372 800 359 1872 
L 359 2638 
Q 359 3753 750 4183 
Q 1141 4613 1794 4613 
Q 2447 4613 2834 4195 
Q 3222 3778 3234 2709 
L 3234 1944 
z
M 2653 2734 
Q 2653 3503 2434 3822 
Q 2216 4141 1794 4141 
Q 1388 4141 1167 3831 
Q 947 3522 941 2778 
L 941 1850 
Q 941 1088 1164 750 
Q 1388 413 1800 413 
Q 2222 413 2436 745 
Q 2650 1078 2653 1825 
L 2653 2734 
z
" transform="scale(0.015625)"/>
       </defs>
       <use xlink:href="#Roboto-Regular-30"/>
      </g>
     </g>
    </g>
    <g id="ytick_2">
     <g id="line2d_15">
      <g>
       <use xlink:href="#m2a1c997079" x="26.094459" y="76.255701" style="fill: #c2c1c1; stroke: #c2c1c1; stroke-width: 0.8"/>
      </g>
     </g>
     <g id="text_2">
      <!-- 1 -->
      <g style="fill: #191919" transform="translate(15.16024 78.880701)scale(0.07 -0.07)">
       <defs>
        <path id="Roboto-Regular-31" d="M 2278 4575 
L 2278 0 
L 1700 0 
L 1700 3853 
L 534 3428 
L 534 3950 
L 2188 4575 
L 2278 4575 
z
" transform="scale(0.015625)"/>
       </defs>
       <use xlink:href="#Roboto-Regular-31"/>
      </g>
     </g>
    </g>
    <g id="ytick_3">
     <g id="line2d_16">
      <g>
       <use xlink:href="#m2a1c997079" x="26.094459" y="46.953516" style="fill: #c2c1c1; stroke: #c2c1c1; stroke-width: 0.8"/>
      </g>
     </g>
     <g id="text_3">
      <!-- 2 -->
      <g style="fill: #191919" transform="translate(15.16024 49.578516)scale(0.07 -0.07)">
       <defs>
        <path id="Roboto-Regular-32" d="M 3359 475 
L 3359 0 
L 381 0 
L 381 416 
L 1925 2134 
Q 2306 2566 2439 2819 
Q 2572 3072 2572 3328 
Q 2572 3663 2364 3900 
Q 2156 4138 1778 4138 
Q 1322 4138 1097 3878 
Q 872 3619 872 3213 
L 294 3213 
Q 294 3788 672 4200 
Q 1050 4613 1778 4613 
Q 2422 4613 2786 4278 
Q 3150 3944 3150 3397 
Q 3150 2997 2903 2592 
Q 2656 2188 2297 1797 
L 1078 475 
L 3359 475 
z
" transform="scale(0.015625)"/>
       </defs>
       <use xlink:href="#Roboto-Regular-32"/>
      </g>
     </g>
    </g>
    <g id="ytick_4">
     <g id="line2d_17">
      <g>
       <use xlink:href="#m2a1c997079" x="26.094459" y="17.651332" style="fill: #c2c1c1; stroke: #c2c1c1; stroke-width: 0.8"/>
      </g>
     </g>
     <g id="text_4">
      <!-- 3 -->
      <g style="fill: #191919" transform="translate(15.16024 20.276332)scale(0.07 -0.07)">
       <defs>
        <path id="Roboto-Regular-33" d="M 1222 2084 
L 1222 2559 
L 1647 2559 
Q 2094 2563 2312 2784 
Q 2531 3006 2531 3338 
Q 2531 4138 1738 4138 
Q 1369 4138 1141 3927 
Q 913 3716 913 3359 
L 334 3359 
Q 334 3881 720 4247 
Q 1106 4613 1738 4613 
Q 2353 4613 2733 4286 
Q 3113 3959 3113 3325 
Q 3113 3072 2942 2784 
Q 2772 2497 2397 2338 
Q 2850 2191 3015 1884 
Q 3181 1578 3181 1269 
Q 3181 631 2768 284 
Q 2356 -63 1741 -63 
Q 1147 -63 722 267 
Q 297 597 297 1203 
L 875 1203 
Q 875 844 1108 628 
Q 1341 413 1741 413 
Q 2138 413 2369 622 
Q 2600 831 2600 1256 
Q 2600 1681 2337 1882 
Q 2075 2084 1634 2084 
L 1222 2084 
z
" transform="scale(0.015625)"/>
       </defs>
       <use xlink:href="#Roboto-Regular-33"/>
      </g>
     </g>
    </g>
    <g id="ytick_5">
     <g id="line2d_18">
      <defs>
       <path id="m03edd6a0f4" d="M 0 0 
L -2 0 
" style="stroke: #c2c1c1; stroke-width: 0.6"/>
      </defs>
      <g>
       <use xlink:href="#m03edd6a0f4" x="26.094459" y="90.906793" style="fill: #c2c1c1; stroke: #c2c1c1; stroke-width: 0.6"/>
      </g>
     </g>
    </g>
    <g id="ytick_6">
     <g id="line2d_19">
      <g>
       <use xlink:href="#m03edd6a0f4" x="26.094459" y="61.604609" style="fill: #c2c1c1; stroke: #c2c1c1; stroke-width: 0.6"/>
      </g>
     </g>
    </g>
    <g id="ytick_7">
     <g id="line2d_20">
      <g>
       <use xlink:href="#m03edd6a0f4" x="26.094459" y="32.302424" style="fill: #c2c1c1; stroke: #c2c1c1; stroke-width: 0.6"/>
      </g>
     </g>
    </g>
    <g id="ytick_8">
     <g id="line2d_21">
      <g>
       <use xlink:href="#m03edd6a0f4" x="26.094459" y="3.00024" style="fill: #c2c1c1; stroke: #c2c1c1; stroke-width: 0.6"/>
      </g>
     </g>
    </g>
    <g id="text_5">
     <!-- g$\mathregular{_{OO}}$(r) -->
     <g style="fill: #191919" transform="translate(9.32024 64.879063)rotate(-90)scale(0.08 -0.08)">
      <defs>
       <path id="Roboto-Bold-67" d="M 1681 -1331 
Q 1375 -1331 1008 -1203 
Q 641 -1075 422 -803 
L 822 -253 
Q 1156 -628 1644 -628 
Q 2003 -628 2203 -436 
Q 2403 -244 2403 113 
L 2403 294 
Q 2084 -63 1581 -63 
Q 953 -63 587 418 
Q 222 900 216 1625 
L 216 1716 
Q 216 2488 583 2966 
Q 950 3444 1588 3444 
Q 2147 3444 2456 3063 
L 2491 3381 
L 3309 3381 
L 3309 116 
Q 3309 -581 2857 -956 
Q 2406 -1331 1681 -1331 
z
M 1119 1650 
Q 1119 1244 1286 958 
Q 1453 672 1809 672 
Q 2222 672 2403 984 
L 2403 2403 
Q 2225 2713 1816 2713 
Q 1463 2713 1291 2423 
Q 1119 2134 1119 1716 
L 1119 1650 
z
" transform="scale(0.015625)"/>
       <path id="Roboto-Bold-4f" d="M 4147 2172 
Q 4147 1131 3608 534 
Q 3069 -63 2212 -63 
Q 1356 -63 812 534 
Q 269 1131 269 2172 
L 269 2375 
Q 269 3416 809 4014 
Q 1350 4613 2206 4613 
Q 3063 4613 3605 4014 
Q 4147 3416 4147 2375 
L 4147 2172 
z
M 3197 2381 
Q 3197 3094 2937 3466 
Q 2678 3838 2206 3838 
Q 1734 3838 1478 3470 
Q 1222 3103 1219 2397 
L 1219 2172 
Q 1219 1463 1478 1086 
Q 1738 709 2213 709 
Q 2684 709 2939 1081 
Q 3194 1453 3197 2156 
L 3197 2381 
z
" transform="scale(0.015625)"/>
       <path id="Roboto-Bold-28" d="M 391 1850 
Q 391 2731 633 3392 
Q 875 4053 1234 4473 
Q 1594 4894 1947 5053 
L 2122 4566 
Q 1772 4303 1465 3661 
Q 1159 3019 1153 1906 
L 1153 1772 
Q 1153 628 1461 -23 
Q 1769 -675 2122 -944 
L 1947 -1422 
Q 1594 -1266 1234 -845 
Q 875 -425 633 237 
Q 391 900 391 1778 
L 391 1850 
z
" transform="scale(0.015625)"/>
       <path id="Roboto-Bold-72" d="M 1922 2563 
Q 1413 2563 1253 2216 
L 1253 0 
L 347 0 
L 347 3381 
L 1200 3381 
L 1228 2978 
Q 1494 3444 1981 3444 
Q 2153 3444 2259 3403 
L 2250 2538 
L 1922 2563 
z
" transform="scale(0.015625)"/>
       <path id="Roboto-Bold-29" d="M 1906 1778 
Q 1906 928 1656 264 
Q 1406 -400 1034 -833 
Q 663 -1266 300 -1422 
L 125 -944 
Q 472 -684 780 -37 
Q 1088 609 1094 1722 
L 1094 1856 
Q 1094 3000 780 3656 
Q 466 4313 125 4572 
L 300 5053 
Q 663 4894 1034 4461 
Q 1406 4028 1656 3364 
Q 1906 2700 1906 1847 
L 1906 1778 
z
" transform="scale(0.015625)"/>
      </defs>
      <use xlink:href="#Roboto-Bold-67" transform="translate(0 0.046875)"/>
      <use xlink:href="#Roboto-Bold-4f" transform="translate(58.053398 -15.801563)scale(0.7)"/>
      <use xlink:href="#Roboto-Bold-4f" transform="translate(106.383477 -15.801563)scale(0.7)"/>
      <use xlink:href="#Roboto-Bold-28" transform="translate(157.354961 0.046875)"/>
      <use xlink:href="#Roboto-Bold-72" transform="translate(192.462383 0.046875)"/>
      <use xlink:href="#Roboto-Bold-29" transform="translate(228.98582 0.046875)"/>
     </g>
    </g>
   </g>
   <g id="patch_3">
    <path d="M 26.094459 105.557885 
L 26.094459 3.00024 
" style="fill: none; stroke: #c2c1c1; stroke-width: 0.8; stroke-linejoin: miter; stroke-linecap: square"/>
   </g>
   <g id="patch_4">
    <path d="M 225.432651 105.557885 
L 225.432651 3.00024 
" style="fill: none; stroke: #c2c1c1; stroke-width: 0.8; stroke-linejoin: miter; stroke-linecap: square"/>
   </g>
   <g id="patch_5">
    <path d="M 26.094459 105.557885 
L 225.432651 105.557885 
" style="fill: none; stroke: #c2c1c1; stroke-width: 0.8; stroke-linejoin: miter; stroke-linecap: square"/>
   </g>
   <g id="patch_6">
    <path d="M 26.094459 3.00024 
L 225.432651 3.00024 
" style="fill: none; stroke: #c2c1c1; stroke-width: 0.8; stroke-linejoin: miter; stroke-linecap: square"/>
   </g>
   <g id="text_6">
    <!-- A -->
    <g transform="translate(30.081223 13.256004)scale(0.096 -0.096)">
     <defs>
      <path id="Roboto-Bold-41" d="M 25 0 
L 1719 4550 
L 2588 4550 
L 4291 0 
L 3291 0 
L 2978 938 
L 1331 938 
L 1019 0 
L 25 0 
z
M 1584 1697 
L 2725 1697 
L 2156 3406 
L 1584 1697 
z
" transform="scale(0.015625)"/>
     </defs>
     <use xlink:href="#Roboto-Bold-41"/>
    </g>
   </g>
   <g id="text_7">
    <!--    H$_2$O -->
    <g transform="translate(199.518686 100.430003)scale(0.08 -0.08)">
     <defs>
      <path id="Roboto-Regular-20" transform="scale(0.015625)"/>
      <path id="Roboto-Regular-48" d="M 3425 0 
L 3425 2103 
L 1131 2103 
L 1131 0 
L 528 0 
L 528 4550 
L 1131 4550 
L 1131 2594 
L 3425 2594 
L 3425 4550 
L 4025 4550 
L 4025 0 
L 3425 0 
z
" transform="scale(0.015625)"/>
      <path id="DejaVuSans-32" d="M 1228 531 
L 3431 531 
L 3431 0 
L 469 0 
L 469 531 
Q 828 903 1448 1529 
Q 2069 2156 2228 2338 
Q 2531 2678 2651 2914 
Q 2772 3150 2772 3378 
Q 2772 3750 2511 3984 
Q 2250 4219 1831 4219 
Q 1534 4219 1204 4116 
Q 875 4013 500 3803 
L 500 4441 
Q 881 4594 1212 4672 
Q 1544 4750 1819 4750 
Q 2544 4750 2975 4387 
Q 3406 4025 3406 3419 
Q 3406 3131 3298 2873 
Q 3191 2616 2906 2266 
Q 2828 2175 2409 1742 
Q 1991 1309 1228 531 
z
" transform="scale(0.015625)"/>
      <path id="Roboto-Regular-4f" d="M 4031 2131 
Q 4031 1106 3534 521 
Q 3038 -63 2206 -63 
Q 1397 -63 884 521 
Q 372 1106 372 2131 
L 372 2419 
Q 372 3441 881 4027 
Q 1391 4613 2200 4613 
Q 3025 4613 3523 4036 
Q 4022 3459 4031 2456 
L 4031 2131 
z
M 3434 2425 
Q 3434 3238 3109 3669 
Q 2784 4100 2200 4100 
Q 1641 4100 1305 3669 
Q 969 3238 969 2425 
L 969 2131 
Q 969 1313 1308 880 
Q 1647 447 2206 447 
Q 2794 447 3114 880 
Q 3434 1313 3434 2131 
L 3434 2425 
z
" transform="scale(0.015625)"/>
     </defs>
     <use xlink:href="#Roboto-Regular-20" transform="translate(0 0.921875)"/>
     <use xlink:href="#Roboto-Regular-20" transform="translate(24.804688 0.921875)"/>
     <use xlink:href="#Roboto-Regular-20" transform="translate(49.609375 0.921875)"/>
     <use xlink:href="#Roboto-Regular-48" transform="translate(74.414062 0.921875)"/>
     <use xlink:href="#DejaVuSans-32" transform="translate(146.708984 -15.484375)scale(0.7)"/>
     <use xlink:href="#Roboto-Regular-4f" transform="translate(193.979492 0.921875)"/>
    </g>
   </g>
   <g id="legend_1">
    <g id="line2d_22">
     <path d="M 149.335151 13.40024 
L 157.335151 13.40024 
L 165.335151 13.40024 
" style="fill: none; stroke: #4abbf3; stroke-width: 1.5; stroke-linecap: square"/>
    </g>
    <g id="text_8">
     <!-- mbGDML -->
     <g transform="translate(171.735151 16.20024)scale(0.08 -0.08)">
      <defs>
       <path id="Roboto-Regular-6d" d="M 1794 2956 
Q 1225 2956 1016 2478 
L 1016 0 
L 434 0 
L 434 3381 
L 984 3381 
L 1000 3013 
Q 1366 3444 2000 3444 
Q 2325 3444 2579 3314 
Q 2834 3184 2969 2900 
Q 3138 3144 3408 3294 
Q 3678 3444 4044 3444 
Q 4588 3444 4883 3153 
Q 5178 2863 5178 2222 
L 5178 0 
L 4597 0 
L 4597 2228 
Q 4597 2653 4401 2804 
Q 4206 2956 3875 2956 
Q 3525 2956 3325 2748 
Q 3125 2541 3094 2244 
L 3094 0 
L 2516 0 
L 2516 2225 
Q 2516 2622 2319 2789 
Q 2122 2956 1794 2956 
z
" transform="scale(0.015625)"/>
       <path id="Roboto-Regular-62" d="M 3303 1653 
Q 3303 913 2959 425 
Q 2616 -63 1988 -63 
Q 1347 -63 1000 391 
L 969 0 
L 438 0 
L 438 4800 
L 1019 4800 
L 1019 3016 
Q 1363 3444 1981 3444 
Q 2619 3444 2961 2969 
Q 3303 2494 3303 1719 
L 3303 1653 
z
M 1838 2956 
Q 1522 2956 1325 2804 
Q 1128 2653 1019 2431 
L 1019 959 
Q 1131 734 1331 581 
Q 1531 428 1844 428 
Q 2313 428 2517 789 
Q 2722 1150 2722 1653 
L 2722 1719 
Q 2722 2222 2526 2589 
Q 2331 2956 1838 2956 
z
" transform="scale(0.015625)"/>
       <path id="Roboto-Regular-47" d="M 3891 2266 
L 3891 600 
Q 3763 413 3403 175 
Q 3044 -63 2281 -63 
Q 1450 -63 915 507 
Q 381 1078 381 2100 
L 381 2453 
Q 381 3469 856 4041 
Q 1331 4613 2213 4613 
Q 2994 4613 3398 4219 
Q 3803 3825 3891 3219 
L 3288 3219 
Q 3225 3588 2979 3853 
Q 2734 4119 2213 4119 
Q 1584 4119 1287 3676 
Q 991 3234 988 2475 
L 988 2100 
Q 988 1313 1344 870 
Q 1700 428 2284 428 
Q 2769 428 2984 542 
Q 3200 656 3291 759 
L 3291 1778 
L 2238 1778 
L 2238 2266 
L 3891 2266 
z
" transform="scale(0.015625)"/>
       <path id="Roboto-Regular-44" d="M 528 0 
L 528 4550 
L 1816 4550 
Q 2713 4550 3267 3973 
Q 3822 3397 3822 2409 
L 3822 2138 
Q 3822 1150 3264 575 
Q 2706 0 1759 0 
L 528 0 
z
M 1131 4056 
L 1131 491 
L 1759 491 
Q 2488 491 2856 941 
Q 3225 1391 3225 2138 
L 3225 2416 
Q 3225 3200 2856 3628 
Q 2488 4056 1816 4056 
L 1131 4056 
z
" transform="scale(0.015625)"/>
       <path id="Roboto-Regular-4d" d="M 2794 841 
L 4281 4550 
L 5056 4550 
L 5056 0 
L 4456 0 
L 4456 1775 
L 4516 3678 
L 3019 0 
L 2563 0 
L 1069 3684 
L 1128 1775 
L 1128 0 
L 528 0 
L 528 4550 
L 1303 4550 
L 2794 841 
z
" transform="scale(0.015625)"/>
       <path id="Roboto-Regular-4c" d="M 3288 491 
L 3288 0 
L 528 0 
L 528 4550 
L 1131 4550 
L 1131 491 
L 3288 491 
z
" transform="scale(0.015625)"/>
      </defs>
      <use xlink:href="#Roboto-Regular-6d"/>
      <use xlink:href="#Roboto-Regular-62" x="87.695312"/>
      <use xlink:href="#Roboto-Regular-47" x="143.847656"/>
      <use xlink:href="#Roboto-Regular-44" x="211.962891"/>
      <use xlink:href="#Roboto-Regular-4d" x="277.587891"/>
      <use xlink:href="#Roboto-Regular-4c" x="364.892578"/>
     </g>
    </g>
    <g id="line2d_23">
     <path d="M 149.335151 25.02524 
L 157.335151 25.02524 
L 165.335151 25.02524 
" style="fill: none; stroke-dasharray: 7.5,6; stroke-dashoffset: 0; stroke: #555555; stroke-width: 1.5"/>
    </g>
    <g id="text_9">
     <!-- Experimental -->
     <g transform="translate(171.735151 27.82524)scale(0.08 -0.08)">
      <defs>
       <path id="Roboto-Regular-45" d="M 528 0 
L 528 4550 
L 3388 4550 
L 3388 4056 
L 1131 4056 
L 1131 2594 
L 3100 2594 
L 3100 2103 
L 1131 2103 
L 1131 491 
L 3419 491 
L 3419 0 
L 528 0 
z
" transform="scale(0.015625)"/>
       <path id="Roboto-Regular-78" d="M 831 3381 
L 1572 2150 
L 2322 3381 
L 3000 3381 
L 1894 1713 
L 3034 0 
L 2366 0 
L 1584 1269 
L 803 0 
L 131 0 
L 1269 1713 
L 166 3381 
L 831 3381 
z
" transform="scale(0.015625)"/>
       <path id="Roboto-Regular-70" d="M 1984 -63 
Q 1375 -63 1019 328 
L 1019 -1300 
L 438 -1300 
L 438 3381 
L 969 3381 
L 997 3009 
Q 1353 3444 1975 3444 
Q 2616 3444 2956 2969 
Q 3297 2494 3297 1719 
L 3297 1653 
Q 3297 913 2955 425 
Q 2613 -63 1984 -63 
z
M 1806 2956 
Q 1281 2956 1019 2491 
L 1019 872 
Q 1284 413 1813 413 
Q 2281 413 2498 781 
Q 2716 1150 2716 1653 
L 2716 1719 
Q 2716 2222 2498 2589 
Q 2281 2956 1806 2956 
z
" transform="scale(0.015625)"/>
       <path id="Roboto-Regular-65" d="M 3116 591 
Q 2950 341 2647 139 
Q 2344 -63 1844 -63 
Q 1138 -63 714 396 
Q 291 856 291 1572 
L 291 1703 
Q 291 2256 502 2645 
Q 713 3034 1050 3239 
Q 1388 3444 1769 3444 
Q 2494 3444 2826 2970 
Q 3159 2497 3159 1788 
L 3159 1528 
L 872 1528 
Q 884 1063 1148 736 
Q 1413 409 1875 409 
Q 2181 409 2393 534 
Q 2606 659 2766 869 
L 3116 591 
z
M 1769 2969 
Q 1425 2969 1187 2719 
Q 950 2469 891 2000 
L 2581 2000 
L 2581 2044 
Q 2559 2381 2386 2675 
Q 2213 2969 1769 2969 
z
" transform="scale(0.015625)"/>
       <path id="Roboto-Regular-72" d="M 1791 2888 
Q 1225 2888 1019 2400 
L 1019 0 
L 441 0 
L 441 3381 
L 1003 3381 
L 1016 2994 
Q 1294 3444 1819 3444 
Q 1981 3444 2075 3400 
L 2072 2863 
Q 1944 2888 1791 2888 
z
" transform="scale(0.015625)"/>
       <path id="Roboto-Regular-69" d="M 444 4278 
Q 444 4419 530 4516 
Q 616 4613 784 4613 
Q 950 4613 1039 4516 
Q 1128 4419 1128 4278 
Q 1128 4144 1039 4048 
Q 950 3953 784 3953 
Q 616 3953 530 4048 
Q 444 4144 444 4278 
z
M 1069 3381 
L 1069 0 
L 488 0 
L 488 3381 
L 1069 3381 
z
" transform="scale(0.015625)"/>
       <path id="Roboto-Regular-6e" d="M 1844 2956 
Q 1566 2956 1353 2806 
Q 1141 2656 1019 2416 
L 1019 0 
L 441 0 
L 441 3381 
L 988 3381 
L 1006 2959 
Q 1391 3444 2016 3444 
Q 2513 3444 2805 3166 
Q 3097 2888 3100 2231 
L 3100 0 
L 2519 0 
L 2519 2222 
Q 2519 2619 2345 2787 
Q 2172 2956 1844 2956 
z
" transform="scale(0.015625)"/>
       <path id="Roboto-Regular-74" d="M 1872 0 
Q 1675 -63 1425 -63 
Q 1103 -63 875 134 
Q 647 331 647 841 
L 647 2938 
L 28 2938 
L 28 3381 
L 647 3381 
L 647 4203 
L 1225 4203 
L 1225 3381 
L 1856 3381 
L 1856 2938 
L 1225 2938 
L 1225 838 
Q 1225 578 1337 506 
Q 1450 434 1597 434 
Q 1706 434 1869 472 
L 1872 0 
z
" transform="scale(0.015625)"/>
       <path id="Roboto-Regular-61" d="M 2528 0 
Q 2472 122 2447 356 
Q 2284 184 2040 60 
Q 1797 -63 1484 -63 
Q 966 -63 653 228 
Q 341 519 341 941 
Q 341 1484 753 1767 
Q 1166 2050 1863 2050 
L 2434 2050 
L 2434 2319 
Q 2434 2619 2254 2798 
Q 2075 2978 1722 2978 
Q 1394 2978 1192 2817 
Q 991 2656 991 2444 
L 413 2444 
Q 413 2806 778 3125 
Q 1144 3444 1756 3444 
Q 2306 3444 2659 3162 
Q 3013 2881 3013 2313 
L 3013 794 
Q 3013 325 3131 50 
L 3131 0 
L 2528 0 
z
M 1569 444 
Q 1881 444 2111 600 
Q 2341 756 2434 947 
L 2434 1644 
L 1897 1644 
Q 922 1625 922 1019 
Q 922 778 1084 611 
Q 1247 444 1569 444 
z
" transform="scale(0.015625)"/>
       <path id="Roboto-Regular-6c" d="M 1069 4800 
L 1069 0 
L 488 0 
L 488 4800 
L 1069 4800 
z
" transform="scale(0.015625)"/>
      </defs>
      <use xlink:href="#Roboto-Regular-45"/>
      <use xlink:href="#Roboto-Regular-78" x="56.835938"/>
      <use xlink:href="#Roboto-Regular-70" x="106.445312"/>
      <use xlink:href="#Roboto-Regular-65" x="162.597656"/>
      <use xlink:href="#Roboto-Regular-72" x="215.625"/>
      <use xlink:href="#Roboto-Regular-69" x="249.511719"/>
      <use xlink:href="#Roboto-Regular-6d" x="273.828125"/>
      <use xlink:href="#Roboto-Regular-65" x="361.523438"/>
      <use xlink:href="#Roboto-Regular-6e" x="414.550781"/>
      <use xlink:href="#Roboto-Regular-74" x="469.775391"/>
      <use xlink:href="#Roboto-Regular-61" x="502.490234"/>
      <use xlink:href="#Roboto-Regular-6c" x="556.884766"/>
     </g>
    </g>
    <g id="line2d_24">
     <path d="M 149.335151 36.65024 
L 157.335151 36.65024 
L 165.335151 36.65024 
" style="fill: none; stroke: #e1e1e1; stroke-width: 1.5; stroke-linecap: square"/>
    </g>
    <g id="text_10">
     <!-- Classical -->
     <g transform="translate(171.735151 39.45024)scale(0.08 -0.08)">
      <defs>
       <path id="Roboto-Regular-43" d="M 3275 1447 
L 3875 1447 
Q 3806 800 3387 368 
Q 2969 -63 2150 -63 
Q 1356 -63 870 504 
Q 384 1072 375 2013 
L 375 2500 
Q 375 3456 867 4034 
Q 1359 4613 2203 4613 
Q 2975 4613 3390 4188 
Q 3806 3763 3875 3091 
L 3275 3091 
Q 3206 3566 2968 3842 
Q 2731 4119 2203 4119 
Q 1600 4119 1287 3675 
Q 975 3231 975 2506 
L 975 2047 
Q 975 1375 1259 901 
Q 1544 428 2150 428 
Q 2725 428 2961 697 
Q 3197 966 3275 1447 
z
" transform="scale(0.015625)"/>
       <path id="Roboto-Regular-73" d="M 2409 897 
Q 2409 1081 2273 1229 
Q 2138 1378 1647 1478 
Q 1081 1594 747 1814 
Q 413 2034 413 2456 
Q 413 2856 755 3150 
Q 1097 3444 1666 3444 
Q 2272 3444 2612 3134 
Q 2953 2825 2953 2388 
L 2375 2388 
Q 2375 2597 2190 2783 
Q 2006 2969 1666 2969 
Q 1306 2969 1150 2812 
Q 994 2656 994 2472 
Q 994 2288 1139 2173 
Q 1284 2059 1756 1953 
Q 2378 1813 2683 1584 
Q 2988 1356 2988 941 
Q 2988 494 2630 215 
Q 2272 -63 1681 -63 
Q 1009 -63 653 281 
Q 297 625 297 1044 
L 878 1044 
Q 897 684 1155 548 
Q 1413 413 1681 413 
Q 2034 413 2221 550 
Q 2409 688 2409 897 
z
" transform="scale(0.015625)"/>
       <path id="Roboto-Regular-63" d="M 1794 413 
Q 2103 413 2336 597 
Q 2569 781 2591 1069 
L 3141 1069 
Q 3119 616 2725 276 
Q 2331 -63 1794 -63 
Q 1031 -63 661 440 
Q 291 944 291 1625 
L 291 1756 
Q 291 2438 661 2941 
Q 1031 3444 1794 3444 
Q 2388 3444 2753 3092 
Q 3119 2741 3141 2219 
L 2591 2219 
Q 2569 2531 2355 2750 
Q 2141 2969 1794 2969 
Q 1438 2969 1236 2787 
Q 1034 2606 951 2328 
Q 869 2050 869 1756 
L 869 1625 
Q 869 1328 950 1050 
Q 1031 772 1232 592 
Q 1434 413 1794 413 
z
" transform="scale(0.015625)"/>
      </defs>
      <use xlink:href="#Roboto-Regular-43"/>
      <use xlink:href="#Roboto-Regular-6c" x="65.087891"/>
      <use xlink:href="#Roboto-Regular-61" x="89.404297"/>
      <use xlink:href="#Roboto-Regular-73" x="143.798828"/>
      <use xlink:href="#Roboto-Regular-73" x="195.410156"/>
      <use xlink:href="#Roboto-Regular-69" x="247.021484"/>
      <use xlink:href="#Roboto-Regular-63" x="271.337891"/>
      <use xlink:href="#Roboto-Regular-61" x="323.681641"/>
      <use xlink:href="#Roboto-Regular-6c" x="378.076172"/>
     </g>
    </g>
   </g>
  </g>
  <g id="axes_2">
   <g id="patch_7">
    <path d="M 26.094459 218.162885 
L 225.432651 218.162885 
L 225.432651 115.60524 
L 26.094459 115.60524 
z
" style="fill: #ffffff"/>
   </g>
   <g id="line2d_25">
    <path d="M 26.094459 159.09144 
L 225.432651 159.09144 
" clip-path="url(#pba9260d6a6)" style="fill: none; stroke-dasharray: 1.5,6; stroke-dashoffset: 0; stroke: #c0c0c0; stroke-width: 1.5"/>
   </g>
   <g id="line2d_26">
    <path d="M -1 218.162885 
L 50.684734 218.162885 
L 60.102287 217.956822 
L 64.418665 216.926506 
L 66.773053 215.484064 
L 68.342645 214.041621 
L 70.304635 211.774926 
L 71.874227 208.890042 
L 73.443819 205.593031 
L 75.013411 201.677831 
L 76.975401 197.144441 
L 78.152595 192.404987 
L 80.114586 187.253408 
L 81.684178 181.689702 
L 83.646168 176.125996 
L 85.21576 170.768353 
L 86.785352 165.410711 
L 88.354944 160.259131 
L 89.924536 155.313615 
L 91.494128 150.574162 
L 93.456118 146.246835 
L 95.02571 141.713445 
L 96.595302 138.004308 
L 98.164894 134.707297 
L 99.734486 131.616349 
L 101.696476 128.937528 
L 103.266068 126.670833 
L 104.835661 124.404138 
L 106.797651 122.549569 
L 109.544437 121.107127 
L 112.291223 120.488937 
L 115.822805 121.107127 
L 118.569591 122.549569 
L 120.531581 124.404138 
L 122.493571 126.052643 
L 124.063163 128.113275 
L 126.025153 129.967844 
L 127.594745 132.234539 
L 129.556736 134.91336 
L 131.518726 137.180055 
L 133.088318 139.44675 
L 134.65791 141.713445 
L 136.6199 143.774077 
L 138.189492 145.834709 
L 139.759084 147.89534 
L 141.721074 149.543846 
L 143.683064 151.604478 
L 145.645054 153.665109 
L 148.39184 155.313615 
L 150.35383 157.168184 
L 152.708218 158.816689 
L 156.239801 160.877321 
L 159.378985 163.350079 
L 162.910567 165.204648 
L 166.834547 167.059216 
L 171.150925 168.501658 
L 175.859701 169.531974 
L 180.568478 169.944101 
L 184.884856 169.944101 
L 189.593632 169.944101 
L 193.91001 169.738038 
L 197.83399 169.119848 
L 201.75797 168.501658 
L 205.681951 167.677406 
L 209.605931 166.64709 
L 213.137513 165.616774 
L 216.669095 164.380395 
L 220.200677 163.350079 
L 223.339861 161.907637 
L 226.871443 160.671258 
L 230.010627 159.434879 
L 231.4 158.809496 
" clip-path="url(#pba9260d6a6)" style="fill: none; stroke: #e1e1e1; stroke-width: 1.5; stroke-linecap: square"/>
   </g>
   <g id="line2d_27">
    <path d="M -1 218.162885 
L 50.930036 218.162885 
L 57.901419 216.882001 
L 61.38712 214.621608 
L 63.565667 211.004992 
L 66.179938 206.032145 
L 68.358524 200.381171 
L 70.101345 194.956242 
L 71.40848 189.531314 
L 73.151341 183.88035 
L 74.458477 178.003341 
L 75.765612 172.578412 
L 77.508473 166.701414 
L 78.815609 161.728556 
L 80.55843 156.077592 
L 82.737016 150.652663 
L 84.915562 145.227735 
L 87.094108 140.028842 
L 93.629786 136.638262 
L 98.858328 137.994494 
L 104.086871 141.61112 
L 109.751138 145.905851 
L 115.851091 150.200583 
L 121.515359 153.139092 
L 126.743901 154.947395 
L 132.843854 155.173441 
L 138.943847 152.460976 
L 144.608075 149.070396 
L 149.836617 149.522467 
L 155.500885 153.365128 
L 160.729428 157.207789 
L 166.393695 160.372323 
L 171.622238 161.954601 
L 178.157916 162.406672 
L 184.257869 162.406672 
L 192.100682 162.632717 
L 198.63636 162.632717 
L 205.172039 162.632717 
L 211.707717 162.632717 
L 218.67912 162.180636 
L 225.650483 161.728556 
L 231.4 160.851289 
" clip-path="url(#pba9260d6a6)" style="fill: none; stroke: #e1e1e1; stroke-width: 1.5; stroke-linecap: square"/>
   </g>
   <g id="line2d_28">
    <path d="M -1 218.162885 
L 58.235811 218.162885 
L 64.41684 216.981458 
L 69.773744 209.892884 
L 74.306487 198.551166 
L 77.603042 187.209448 
L 80.487516 176.340305 
L 83.78409 163.580872 
L 86.668545 152.711723 
L 91.201325 141.370005 
L 96.970273 131.446002 
L 103.563383 127.192858 
L 109.332331 129.083142 
L 116.337485 132.863717 
L 124.990926 139.952291 
L 133.644367 147.513434 
L 142.297808 153.184293 
L 152.599536 158.855152 
L 162.077101 163.580872 
L 174.851241 166.416301 
L 183.504682 166.416301 
L 193.80641 164.998587 
L 204.520181 163.580872 
L 214.821909 161.218012 
L 225.123599 158.855152 
L 231.4 158.242562 
" clip-path="url(#pba9260d6a6)" style="fill: none; stroke: #e1e1e1; stroke-width: 1.5; stroke-linecap: square"/>
   </g>
   <g id="line2d_29">
    <path d="M -1 218.162885 
L 11.547419 218.162885 
L 37.387555 218.162885 
L 42.593865 218.162885 
L 49.178313 218.162885 
L 54.537749 217.450573 
L 59.437805 213.953777 
L 61.275327 211.363555 
L 62.50034 208.643825 
L 63.572228 206.312621 
L 64.490986 203.851909 
L 65.40975 201.132178 
L 66.328508 198.412447 
L 67.094142 195.822225 
L 67.859776 192.97298 
L 68.625409 190.641782 
L 69.391043 187.663028 
L 70.156677 184.943292 
L 71.228565 181.576006 
L 71.994199 178.467738 
L 72.912957 175.618493 
L 73.984845 171.603651 
L 74.750479 169.01343 
L 75.669243 166.164185 
L 76.741125 163.31494 
L 77.790678 160.325627 
L 79.344281 156.709876 
L 80.722424 153.731122 
L 82.253691 151.27041 
L 83.938083 148.8097 
L 85.928729 146.737522 
L 88.991269 144.924367 
L 92.053804 144.276812 
L 94.656954 144.276812 
L 97.106979 144.794856 
L 99.557016 145.442411 
L 101.700781 145.960455 
L 103.844558 146.867033 
L 105.83521 147.514589 
L 108.132111 148.291656 
L 110.429012 149.068723 
L 112.725913 149.716278 
L 114.716553 150.234322 
L 116.86033 150.752366 
L 119.157231 151.011389 
L 121.607256 151.27041 
L 123.751033 151.27041 
L 126.047934 151.27041 
L 128.344835 151.27041 
L 130.79486 150.881878 
L 133.244897 150.363834 
L 135.541798 149.845787 
L 137.838699 149.327744 
L 139.982464 148.680188 
L 141.819992 148.162144 
L 143.963768 147.773612 
L 146.413794 147.773612 
L 148.710695 148.291656 
L 150.854471 149.198232 
L 152.691987 150.234322 
L 154.376379 151.529433 
L 156.060771 152.954053 
L 157.745164 154.249164 
L 159.58269 155.803298 
L 161.726468 157.098409 
L 163.717107 158.523034 
L 165.860885 159.68863 
L 167.851538 160.4657 
L 169.842177 161.113255 
L 172.292204 161.631297 
L 174.895365 161.89032 
L 177.498515 162.019829 
L 180.101675 161.89032 
L 182.85795 161.89032 
L 185.154862 162.019829 
L 187.604877 162.019829 
L 189.748664 162.278852 
L 192.351813 162.408366 
L 195.108089 162.796898 
L 197.251864 163.055922 
L 199.548765 163.31494 
L 201.845666 163.573963 
L 203.989454 163.832986 
L 206.286355 164.092009 
L 208.73637 164.221518 
L 210.880157 164.351032 
L 213.483307 164.480542 
L 216.086457 164.351032 
L 218.689608 164.221518 
L 221.599028 163.962495 
L 224.355292 163.573963 
L 227.089515 163.269084 
L 229.867864 162.796898 
L 231.4 162.47006 
" clip-path="url(#pba9260d6a6)" style="fill: none; stroke: #e1e1e1; stroke-width: 1.5; stroke-linecap: square"/>
   </g>
   <g id="line2d_30">
    <path d="M -1 218.162885 
L 1.177185 218.162885 
L 4.499488 218.162885 
L 7.821791 218.162885 
L 11.144094 218.162885 
L 14.466398 218.162885 
L 17.788701 218.162885 
L 21.111004 218.162885 
L 24.433307 218.162885 
L 27.75561 218.162885 
L 31.077914 218.151067 
L 34.400217 218.119721 
L 37.72252 217.939164 
L 41.044823 217.761021 
L 44.367126 216.932359 
L 47.68943 215.186871 
L 51.011733 211.98397 
L 54.334036 206.573667 
L 57.656339 198.031447 
L 60.978642 188.596539 
L 64.300946 179.990237 
L 67.623249 169.429396 
L 70.945552 161.082675 
L 74.267855 154.588541 
L 77.590158 150.892261 
L 80.912462 149.09314 
L 84.234765 148.586189 
L 87.557068 148.724577 
L 90.879371 149.642971 
L 94.201674 152.630875 
L 97.523978 153.4821 
L 100.846281 154.424439 
L 104.168584 155.742617 
L 107.490887 157.828099 
L 110.81319 158.10331 
L 114.135493 157.740901 
L 117.457797 158.389952 
L 120.7801 158.953064 
L 124.102403 157.548723 
L 127.424706 157.309863 
L 130.747009 156.174312 
L 134.069313 154.149701 
L 137.391616 152.310721 
L 140.713919 151.454411 
L 144.036222 150.94298 
L 147.358525 150.166782 
L 150.680829 151.281101 
L 154.003132 152.114977 
L 157.325435 153.714705 
L 160.647738 155.474479 
L 163.970041 155.931354 
L 167.292345 156.447269 
L 170.614648 157.418451 
L 173.936951 157.66206 
L 177.259254 157.935877 
L 180.581557 158.364411 
L 183.903861 158.983093 
L 187.226164 159.301457 
L 190.548467 159.956607 
L 193.87077 159.78505 
L 197.193073 159.452758 
L 200.515377 160.499749 
L 203.83768 160.729062 
L 207.159983 160.416099 
L 210.482286 160.547941 
L 213.804589 160.34026 
L 217.126893 160.306565 
L 220.449196 160.29573 
L 223.771499 160.506834 
" clip-path="url(#pba9260d6a6)" style="fill: none; stroke: #61bfa3; stroke-width: 1.5; stroke-linecap: square"/>
   </g>
   <g id="line2d_31">
    <path d="M -1 218.162885 
L 46.272845 218.162885 
L 54.425752 217.614654 
L 60.030848 212.406503 
L 62.578635 207.198352 
L 65.126421 201.71608 
L 66.655088 195.959698 
L 68.693303 190.203316 
L 70.22197 184.721043 
L 71.750637 179.238783 
L 73.788852 173.482401 
L 75.82709 168.000128 
L 77.865305 162.243746 
L 80.413091 156.761474 
L 82.960854 151.553323 
L 87.037307 145.796941 
L 91.113761 142.233471 
L 95.699762 139.76645 
L 98.757096 138.669988 
L 104.362193 139.76645 
L 112.515099 142.781689 
L 121.17753 147.167512 
L 129.330437 150.456873 
L 136.973772 153.746234 
L 144.107536 156.487364 
L 150.731775 158.954385 
L 158.375111 162.517856 
L 168.566209 164.436658 
L 178.247782 164.162536 
L 187.929356 162.517856 
L 197.101358 160.599066 
L 205.763789 159.776726 
L 215.954887 158.954385 
L 226.146032 158.406154 
L 231.4 158.651926 
" clip-path="url(#pba9260d6a6)" style="fill: none; stroke-dasharray: 7.5,6; stroke-dashoffset: 0; stroke: #555555; stroke-width: 1.5"/>
   </g>
   <g id="matplotlib.axis_3">
    <g id="xtick_8">
     <g id="line2d_32">
      <g>
       <use xlink:href="#mf7d4ba43b1" x="26.094459" y="218.162885" style="fill: #c2c1c1; stroke: #c2c1c1; stroke-width: 0.8"/>
      </g>
     </g>
    </g>
    <g id="xtick_9">
     <g id="line2d_33">
      <g>
       <use xlink:href="#mf7d4ba43b1" x="59.317491" y="218.162885" style="fill: #c2c1c1; stroke: #c2c1c1; stroke-width: 0.8"/>
      </g>
     </g>
    </g>
    <g id="xtick_10">
     <g id="line2d_34">
      <g>
       <use xlink:href="#mf7d4ba43b1" x="92.540523" y="218.162885" style="fill: #c2c1c1; stroke: #c2c1c1; stroke-width: 0.8"/>
      </g>
     </g>
    </g>
    <g id="xtick_11">
     <g id="line2d_35">
      <g>
       <use xlink:href="#mf7d4ba43b1" x="125.763555" y="218.162885" style="fill: #c2c1c1; stroke: #c2c1c1; stroke-width: 0.8"/>
      </g>
     </g>
    </g>
    <g id="xtick_12">
     <g id="line2d_36">
      <g>
       <use xlink:href="#mf7d4ba43b1" x="158.986587" y="218.162885" style="fill: #c2c1c1; stroke: #c2c1c1; stroke-width: 0.8"/>
      </g>
     </g>
    </g>
    <g id="xtick_13">
     <g id="line2d_37">
      <g>
       <use xlink:href="#mf7d4ba43b1" x="192.209619" y="218.162885" style="fill: #c2c1c1; stroke: #c2c1c1; stroke-width: 0.8"/>
      </g>
     </g>
    </g>
    <g id="xtick_14">
     <g id="line2d_38">
      <g>
       <use xlink:href="#mf7d4ba43b1" x="225.432651" y="218.162885" style="fill: #c2c1c1; stroke: #c2c1c1; stroke-width: 0.8"/>
      </g>
     </g>
    </g>
   </g>
   <g id="matplotlib.axis_4">
    <g id="ytick_9">
     <g id="line2d_39">
      <g>
       <use xlink:href="#m2a1c997079" x="26.094459" y="218.162885" style="fill: #c2c1c1; stroke: #c2c1c1; stroke-width: 0.8"/>
      </g>
     </g>
     <g id="text_11">
      <!-- 0 -->
      <g style="fill: #191919" transform="translate(15.16024 220.787885)scale(0.07 -0.07)">
       <use xlink:href="#Roboto-Regular-30"/>
      </g>
     </g>
    </g>
    <g id="ytick_10">
     <g id="line2d_40">
      <g>
       <use xlink:href="#m2a1c997079" x="26.094459" y="159.09144" style="fill: #c2c1c1; stroke: #c2c1c1; stroke-width: 0.8"/>
      </g>
     </g>
     <g id="text_12">
      <!-- 1 -->
      <g style="fill: #191919" transform="translate(15.16024 161.71644)scale(0.07 -0.07)">
       <use xlink:href="#Roboto-Regular-31"/>
      </g>
     </g>
    </g>
    <g id="ytick_11">
     <g id="line2d_41">
      <g>
       <use xlink:href="#m03edd6a0f4" x="26.094459" y="188.627162" style="fill: #c2c1c1; stroke: #c2c1c1; stroke-width: 0.6"/>
      </g>
     </g>
    </g>
    <g id="ytick_12">
     <g id="line2d_42">
      <g>
       <use xlink:href="#m03edd6a0f4" x="26.094459" y="129.555717" style="fill: #c2c1c1; stroke: #c2c1c1; stroke-width: 0.6"/>
      </g>
     </g>
    </g>
    <g id="text_13">
     <!-- g$\mathregular{_{NN}}$(r) -->
     <g style="fill: #191919" transform="translate(9.32024 177.564063)rotate(-90)scale(0.08 -0.08)">
      <defs>
       <path id="Roboto-Bold-4e" d="M 4109 4550 
L 4109 0 
L 3172 0 
L 1347 2997 
L 1347 0 
L 406 0 
L 406 4550 
L 1347 4550 
L 3172 1550 
L 3172 4550 
L 4109 4550 
z
" transform="scale(0.015625)"/>
      </defs>
      <use xlink:href="#Roboto-Bold-67" transform="translate(0 0.046875)"/>
      <use xlink:href="#Roboto-Bold-4e" transform="translate(58.053398 -15.801563)scale(0.7)"/>
      <use xlink:href="#Roboto-Bold-4e" transform="translate(107.511406 -15.801563)scale(0.7)"/>
      <use xlink:href="#Roboto-Bold-28" transform="translate(159.61082 0.046875)"/>
      <use xlink:href="#Roboto-Bold-72" transform="translate(194.718242 0.046875)"/>
      <use xlink:href="#Roboto-Bold-29" transform="translate(231.24168 0.046875)"/>
     </g>
    </g>
   </g>
   <g id="patch_8">
    <path d="M 26.094459 218.162885 
L 26.094459 115.60524 
" style="fill: none; stroke: #c2c1c1; stroke-width: 0.8; stroke-linejoin: miter; stroke-linecap: square"/>
   </g>
   <g id="patch_9">
    <path d="M 225.432651 218.162885 
L 225.432651 115.60524 
" style="fill: none; stroke: #c2c1c1; stroke-width: 0.8; stroke-linejoin: miter; stroke-linecap: square"/>
   </g>
   <g id="patch_10">
    <path d="M 26.094459 218.162885 
L 225.432651 218.162885 
" style="fill: none; stroke: #c2c1c1; stroke-width: 0.8; stroke-linejoin: miter; stroke-linecap: square"/>
   </g>
   <g id="patch_11">
    <path d="M 26.094459 115.60524 
L 225.432651 115.60524 
" style="fill: none; stroke: #c2c1c1; stroke-width: 0.8; stroke-linejoin: miter; stroke-linecap: square"/>
   </g>
   <g id="text_14">
    <!-- B -->
    <g transform="translate(30.081223 125.861005)scale(0.096 -0.096)">
     <defs>
      <path id="Roboto-Bold-42" d="M 3788 1341 
Q 3788 684 3369 345 
Q 2950 6 2175 0 
L 406 0 
L 406 4550 
L 2003 4550 
Q 2794 4550 3241 4247 
Q 3688 3944 3688 3306 
Q 3688 2997 3531 2737 
Q 3375 2478 3038 2344 
Q 3438 2244 3613 1956 
Q 3788 1669 3788 1341 
z
M 1347 3791 
L 1347 2647 
L 2003 2647 
Q 2747 2647 2747 3209 
Q 2747 3778 2034 3791 
L 1347 3791 
z
M 2850 1350 
Q 2850 1963 2231 1984 
L 1347 1984 
L 1347 756 
L 2147 756 
Q 2506 756 2678 925 
Q 2850 1094 2850 1350 
z
" transform="scale(0.015625)"/>
     </defs>
     <use xlink:href="#Roboto-Bold-42"/>
    </g>
   </g>
   <g id="text_15">
    <!-- MeCN -->
    <g transform="translate(199.518686 213.035003)scale(0.08 -0.08)">
     <defs>
      <path id="Roboto-Regular-4e" d="M 4028 4550 
L 4028 0 
L 3422 0 
L 1131 3509 
L 1131 0 
L 528 0 
L 528 4550 
L 1131 4550 
L 3431 1031 
L 3431 4550 
L 4028 4550 
z
" transform="scale(0.015625)"/>
     </defs>
     <use xlink:href="#Roboto-Regular-4d"/>
     <use xlink:href="#Roboto-Regular-65" x="87.304688"/>
     <use xlink:href="#Roboto-Regular-43" x="140.332031"/>
     <use xlink:href="#Roboto-Regular-4e" x="205.419922"/>
    </g>
   </g>
  </g>
  <g id="axes_3">
   <g id="patch_12">
    <path d="M 26.094459 330.767885 
L 225.432651 330.767885 
L 225.432651 228.21024 
L 26.094459 228.21024 
z
" style="fill: #ffffff"/>
   </g>
   <g id="line2d_43">
    <path d="M 26.094459 304.073337 
L 225.432651 304.073337 
" clip-path="url(#p51f335892a)" style="fill: none; stroke-dasharray: 1.5,6; stroke-dashoffset: 0; stroke: #c0c0c0; stroke-width: 1.5"/>
   </g>
   <g id="line2d_44">
    <path d="M -1 330.767885 
L 38.989653 330.767885 
L 43.288051 329.005036 
L 45.43725 316.413265 
L 46.153639 302.05865 
L 47.586449 281.911824 
L 49.019226 264.535186 
L 49.735648 255.972782 
L 50.452037 250.68424 
L 51.884847 245.143863 
L 53.317624 247.914053 
L 54.034046 253.202595 
L 55.466823 262.01683 
L 56.899634 272.845752 
L 58.332444 281.659987 
L 59.765221 295.259096 
L 62.630842 307.095361 
L 65.49643 315.154096 
L 69.078439 320.190795 
L 72.660415 322.457313 
L 79.824434 322.709156 
L 86.272031 320.694469 
L 94.152406 316.413265 
L 99.167225 312.635734 
L 102.749202 308.606373 
L 104.898401 305.584349 
L 107.0476 302.814156 
L 109.196799 299.792132 
L 112.778808 297.273782 
L 119.226405 296.014602 
L 129.9724 298.28112 
L 137.852807 300.799475 
L 146.449603 303.065993 
L 155.046399 304.325168 
L 162.926774 304.828843 
L 171.52357 304.577005 
L 181.553176 304.073337 
L 191.582783 303.317831 
L 202.328778 303.821499 
L 213.074773 304.325168 
L 223.104346 304.577005 
L 231.4 304.577005 
" clip-path="url(#p51f335892a)" style="fill: none; stroke: #e1e1e1; stroke-width: 1.5; stroke-linecap: square"/>
   </g>
   <g id="line2d_45">
    <path d="M -1 330.767885 
L 37.411591 330.767885 
L 39.932732 329.02572 
L 40.492977 326.159566 
L 41.053221 322.956222 
L 41.333357 319.584277 
L 42.173737 315.200748 
L 42.453872 312.671791 
L 42.733982 309.805645 
L 42.733982 306.770896 
L 43.014117 303.061754 
L 43.294252 299.521214 
L 43.294252 295.643484 
L 43.854497 291.765747 
L 43.854497 287.382219 
L 44.414742 282.492907 
L 44.414742 278.109378 
L 44.694878 273.72585 
L 45.255122 265.127395 
L 45.535258 260.575272 
L 45.535258 255.180165 
L 45.815393 247.930486 
L 46.655773 241.692394 
L 46.655773 237.983255 
L 48.616643 233.093937 
L 49.737159 236.634479 
L 50.297404 241.186602 
L 50.577539 245.232934 
L 51.417919 250.12225 
L 51.698055 257.371929 
L 52.538435 264.790202 
L 53.378815 271.871286 
L 53.658925 279.963949 
L 55.899956 291.091361 
L 56.460201 297.66665 
L 57.860826 304.916325 
L 59.821721 311.154417 
L 60.942237 315.875142 
L 64.303758 320.258663 
L 70.746664 321.607443 
L 78.590221 318.741289 
L 86.433753 314.526362 
L 93.997175 309.468448 
L 100.440107 305.084919 
L 108.563774 300.701399 
L 115.00668 299.015422 
L 122.289993 299.521214 
L 130.413659 301.712982 
L 138.817462 304.241939 
L 144.700123 305.590711 
L 150.02254 306.265105 
L 156.185311 306.265105 
L 166.269873 305.590711 
L 175.233946 303.904742 
L 187.559514 303.061754 
L 197.924212 303.230356 
L 209.969644 303.398951 
L 220.334342 303.736147 
" clip-path="url(#p51f335892a)" style="fill: none; stroke: #e1e1e1; stroke-width: 1.5; stroke-linecap: square"/>
   </g>
   <g id="line2d_46">
    <path d="M -1 330.767885 
L 39.393072 330.767885 
L 43.058422 329.862978 
L 44.186202 326.978615 
L 45.314009 321.040207 
L 45.877899 314.932133 
L 46.441815 307.127374 
L 47.287663 297.965262 
L 47.851553 293.384207 
L 48.133511 288.633477 
L 48.133511 282.864743 
L 48.697401 279.132033 
L 48.979359 273.193625 
L 49.261291 268.61257 
L 49.825207 262.334825 
L 50.107139 256.735757 
L 50.671055 251.645695 
L 51.516903 248.591658 
L 52.362751 246.216297 
L 53.772489 248.930994 
L 54.618338 251.476025 
L 54.900295 254.869403 
L 55.182228 258.771782 
L 56.310034 262.843832 
L 56.873924 267.085551 
L 57.155882 270.987934 
L 57.43784 274.381304 
L 58.00173 277.096009 
L 58.847578 280.998384 
L 59.129536 285.749114 
L 59.693426 290.499836 
L 61.103164 295.420231 
L 61.66708 299.322607 
L 62.512928 303.733997 
L 63.358776 307.29704 
L 64.486557 311.029749 
L 65.896321 315.101799 
L 68.151907 318.495176 
L 70.971409 321.718879 
L 74.918692 323.076232 
L 79.147932 322.906565 
L 84.223021 321.718879 
L 89.580067 319.852528 
L 93.52735 317.307497 
L 97.474632 314.762467 
L 100.012177 312.047762 
L 103.113637 308.654392 
L 105.933113 304.752009 
L 108.470657 301.528306 
L 111.572118 297.795588 
L 115.5194 295.929238 
L 120.594489 295.589898 
L 124.541771 296.94725 
L 129.334928 298.474269 
L 134.128058 299.831613 
L 140.894843 301.528306 
L 146.533822 303.394656 
L 151.60891 304.243003 
L 157.247915 304.582343 
L 162.604935 305.091349 
L 168.525872 305.091349 
L 175.010725 304.921675 
L 181.213593 304.582343 
L 186.57064 303.733997 
L 192.491577 303.56433 
L 199.258361 303.394656 
L 207.434884 303.733997 
L 213.355821 304.243003 
L 224.633804 304.412669 
" clip-path="url(#p51f335892a)" style="fill: none; stroke: #e1e1e1; stroke-width: 1.5; stroke-linecap: square"/>
   </g>
   <g id="line2d_47">
    <path d="M -1 330.767885 
L 1.177185 330.767885 
L 4.499488 330.767885 
L 7.821791 330.767885 
L 11.144094 330.767885 
L 14.466398 330.767885 
L 17.788701 330.767885 
L 21.111004 330.767885 
L 24.433307 330.767885 
L 27.75561 330.767885 
L 31.077914 330.767885 
L 34.400217 330.767885 
L 37.72252 330.682739 
L 41.044823 329.144765 
L 44.367126 319.86951 
L 47.68943 299.449591 
L 51.011733 279.655734 
L 54.334036 272.719383 
L 57.656339 279.178861 
L 60.978642 288.714037 
L 64.300946 297.972367 
L 67.623249 304.260123 
L 70.945552 307.279231 
L 74.267855 309.426178 
L 77.590158 310.758801 
L 80.912462 310.917475 
L 84.234765 310.627349 
L 87.557068 310.326434 
L 90.879371 309.60322 
L 94.201674 308.266059 
L 97.523978 306.678324 
L 100.846281 305.3199 
L 104.168584 304.000087 
L 107.490887 303.081507 
L 110.81319 302.006219 
L 114.135493 301.94373 
L 117.457797 301.765108 
L 120.7801 302.359033 
L 124.102403 303.411908 
L 127.424706 304.212071 
L 130.747009 304.725389 
L 134.069313 305.216743 
L 137.391616 305.417601 
L 140.713919 305.852306 
L 144.036222 305.887324 
L 147.358525 305.538815 
L 150.680829 304.95052 
L 154.003132 305.161249 
L 157.325435 304.962827 
L 160.647738 304.527652 
L 163.970041 304.282996 
L 167.292345 304.317486 
L 170.614648 304.189483 
L 173.936951 304.075868 
L 177.259254 303.547611 
L 180.581557 303.67098 
L 183.903861 303.63167 
L 187.226164 303.129306 
L 190.548467 303.07113 
L 193.87077 302.728765 
L 197.193073 302.832082 
L 200.515377 302.88076 
L 203.83768 302.634942 
L 207.159983 302.836352 
L 210.482286 302.87146 
L 213.804589 303.150956 
L 217.126893 303.085415 
L 220.449196 303.242677 
L 223.771499 302.819117 
" clip-path="url(#p51f335892a)" style="fill: none; stroke: #ffb5ba; stroke-width: 1.5; stroke-linecap: square"/>
   </g>
   <g id="line2d_48">
    <path d="M -1 330.767885 
L 35.298136 330.767885 
L 40.146902 329.145111 
L 42.167228 325.737293 
L 42.571286 321.112406 
L 42.975343 317.217764 
L 43.37942 313.323111 
L 44.187535 308.941636 
L 44.187535 304.56016 
L 44.591611 300.665518 
L 44.591611 297.2577 
L 45.803803 293.849893 
L 45.803803 290.198663 
L 45.803803 286.304011 
L 45.803803 282.896203 
L 45.803803 279.244974 
L 47.015995 276.080567 
L 47.015995 272.429337 
L 47.015995 268.778107 
L 47.015995 264.883466 
L 47.420052 261.475647 
L 48.228186 258.06784 
L 48.228186 254.416611 
L 49.036302 251.495627 
L 50.248494 245.166824 
L 51.864761 252.712696 
L 52.268819 255.877102 
L 53.076953 259.528332 
L 53.481011 264.15322 
L 54.289145 267.80445 
L 54.289145 271.212268 
L 55.09726 274.863498 
L 55.905394 278.758139 
L 56.309452 283.383027 
L 57.521644 290.685486 
L 59.137912 300.178684 
L 60.754161 305.77724 
L 61.966353 311.86262 
L 65.19887 317.461176 
L 69.64356 321.112406 
L 74.088288 321.842652 
L 78.937055 321.355817 
L 82.57363 319.165079 
L 86.614244 316.487518 
L 91.058972 313.0797 
L 95.099586 309.915304 
L 98.332122 306.99432 
L 102.372736 304.073337 
L 106.009311 301.152353 
L 110.049962 298.47478 
L 114.494653 297.014288 
L 118.93938 296.770877 
L 124.192186 297.744534 
L 128.636914 299.448438 
L 132.677528 301.152353 
L 137.122255 303.099668 
L 141.971022 304.316748 
L 146.819789 305.290406 
L 152.072595 306.020652 
L 157.729514 306.264074 
L 162.98232 305.290406 
L 169.447355 304.803583 
L 174.700198 303.829914 
L 179.953004 303.343091 
L 187.226154 303.343091 
L 193.287112 303.343091 
L 199.34807 303.343091 
L 205.409029 303.343091 
L 211.874064 304.073337 
L 217.935022 304.073337 
L 223.187865 304.073337 
L 229.248823 304.073337 
L 231.4 304.073337 
" clip-path="url(#p51f335892a)" style="fill: none; stroke-dasharray: 7.5,6; stroke-dashoffset: 0; stroke: #555555; stroke-width: 1.5"/>
   </g>
   <g id="matplotlib.axis_5">
    <g id="xtick_15">
     <g id="line2d_49">
      <g>
       <use xlink:href="#mf7d4ba43b1" x="26.094459" y="330.767885" style="fill: #c2c1c1; stroke: #c2c1c1; stroke-width: 0.8"/>
      </g>
     </g>
     <g id="text_16">
      <!-- 2 -->
      <g style="fill: #191919" transform="translate(24.127349 343.017885)scale(0.07 -0.07)">
       <use xlink:href="#Roboto-Regular-32"/>
      </g>
     </g>
    </g>
    <g id="xtick_16">
     <g id="line2d_50">
      <g>
       <use xlink:href="#mf7d4ba43b1" x="59.317491" y="330.767885" style="fill: #c2c1c1; stroke: #c2c1c1; stroke-width: 0.8"/>
      </g>
     </g>
     <g id="text_17">
      <!-- 3 -->
      <g style="fill: #191919" transform="translate(57.350381 343.017885)scale(0.07 -0.07)">
       <use xlink:href="#Roboto-Regular-33"/>
      </g>
     </g>
    </g>
    <g id="xtick_17">
     <g id="line2d_51">
      <g>
       <use xlink:href="#mf7d4ba43b1" x="92.540523" y="330.767885" style="fill: #c2c1c1; stroke: #c2c1c1; stroke-width: 0.8"/>
      </g>
     </g>
     <g id="text_18">
      <!-- 4 -->
      <g style="fill: #191919" transform="translate(90.573413 343.017885)scale(0.07 -0.07)">
       <defs>
        <path id="Roboto-Regular-34" d="M 166 1397 
L 2203 4550 
L 2819 4550 
L 2819 1531 
L 3453 1531 
L 3453 1056 
L 2819 1056 
L 2819 0 
L 2241 0 
L 2241 1056 
L 166 1056 
L 166 1397 
z
M 822 1531 
L 2241 1531 
L 2241 3766 
L 2169 3638 
L 822 1531 
z
" transform="scale(0.015625)"/>
       </defs>
       <use xlink:href="#Roboto-Regular-34"/>
      </g>
     </g>
    </g>
    <g id="xtick_18">
     <g id="line2d_52">
      <g>
       <use xlink:href="#mf7d4ba43b1" x="125.763555" y="330.767885" style="fill: #c2c1c1; stroke: #c2c1c1; stroke-width: 0.8"/>
      </g>
     </g>
     <g id="text_19">
      <!-- 5 -->
      <g style="fill: #191919" transform="translate(123.796445 343.017885)scale(0.07 -0.07)">
       <defs>
        <path id="Roboto-Regular-35" d="M 1109 2166 
L 647 2284 
L 875 4550 
L 3209 4550 
L 3209 4016 
L 1366 4016 
L 1228 2778 
Q 1572 2975 1988 2975 
Q 2616 2975 2980 2561 
Q 3344 2147 3344 1450 
Q 3344 797 2987 367 
Q 2631 -63 1903 -63 
Q 1350 -63 947 248 
Q 544 559 481 1197 
L 1031 1197 
Q 1141 413 1903 413 
Q 2313 413 2538 691 
Q 2763 969 2763 1444 
Q 2763 1872 2527 2164 
Q 2291 2456 1853 2456 
Q 1563 2456 1413 2378 
Q 1263 2300 1109 2166 
z
" transform="scale(0.015625)"/>
       </defs>
       <use xlink:href="#Roboto-Regular-35"/>
      </g>
     </g>
    </g>
    <g id="xtick_19">
     <g id="line2d_53">
      <g>
       <use xlink:href="#mf7d4ba43b1" x="158.986587" y="330.767885" style="fill: #c2c1c1; stroke: #c2c1c1; stroke-width: 0.8"/>
      </g>
     </g>
     <g id="text_20">
      <!-- 6 -->
      <g style="fill: #191919" transform="translate(157.019477 343.017885)scale(0.07 -0.07)">
       <defs>
        <path id="Roboto-Regular-36" d="M 3291 1484 
Q 3291 838 2930 387 
Q 2569 -63 1878 -63 
Q 1388 -63 1063 198 
Q 738 459 577 861 
Q 416 1263 416 1684 
L 416 1956 
Q 416 2597 595 3194 
Q 775 3791 1247 4173 
Q 1719 4556 2597 4556 
L 2647 4556 
L 2647 4066 
Q 2041 4066 1705 3853 
Q 1369 3641 1205 3302 
Q 1041 2963 1006 2575 
Q 1369 2984 1984 2984 
Q 2438 2984 2727 2765 
Q 3016 2547 3153 2201 
Q 3291 1856 3291 1484 
z
M 997 1666 
Q 997 1059 1267 737 
Q 1538 416 1878 416 
Q 2278 416 2498 708 
Q 2719 1000 2719 1456 
Q 2719 1863 2516 2184 
Q 2313 2506 1891 2506 
Q 1588 2506 1341 2325 
Q 1094 2144 997 1884 
L 997 1666 
z
" transform="scale(0.015625)"/>
       </defs>
       <use xlink:href="#Roboto-Regular-36"/>
      </g>
     </g>
    </g>
    <g id="xtick_20">
     <g id="line2d_54">
      <g>
       <use xlink:href="#mf7d4ba43b1" x="192.209619" y="330.767885" style="fill: #c2c1c1; stroke: #c2c1c1; stroke-width: 0.8"/>
      </g>
     </g>
     <g id="text_21">
      <!-- 7 -->
      <g style="fill: #191919" transform="translate(190.242509 343.017885)scale(0.07 -0.07)">
       <defs>
        <path id="Roboto-Regular-37" d="M 3319 4550 
L 3319 4225 
L 1434 0 
L 825 0 
L 2706 4075 
L 244 4075 
L 244 4550 
L 3319 4550 
z
" transform="scale(0.015625)"/>
       </defs>
       <use xlink:href="#Roboto-Regular-37"/>
      </g>
     </g>
    </g>
    <g id="xtick_21">
     <g id="line2d_55">
      <g>
       <use xlink:href="#mf7d4ba43b1" x="225.432651" y="330.767885" style="fill: #c2c1c1; stroke: #c2c1c1; stroke-width: 0.8"/>
      </g>
     </g>
     <g id="text_22">
      <!-- 8 -->
      <g style="fill: #191919" transform="translate(223.465541 343.017885)scale(0.07 -0.07)">
       <defs>
        <path id="Roboto-Regular-38" d="M 3244 1231 
Q 3244 606 2826 271 
Q 2409 -63 1796 -63 
Q 1184 -63 767 271 
Q 350 606 350 1231 
Q 350 1613 554 1905 
Q 759 2197 1109 2347 
Q 806 2494 629 2762 
Q 453 3031 453 3366 
Q 453 3963 833 4288 
Q 1213 4613 1794 4613 
Q 2378 4613 2758 4288 
Q 3138 3963 3138 3366 
Q 3138 3028 2956 2761 
Q 2775 2494 2472 2347 
Q 2825 2197 3034 1903 
Q 3244 1609 3244 1231 
z
M 2559 3356 
Q 2559 3697 2346 3917 
Q 2134 4138 1793 4138 
Q 1453 4138 1243 3927 
Q 1034 3716 1034 3356 
Q 1034 3003 1243 2790 
Q 1453 2578 1797 2578 
Q 2138 2578 2348 2790 
Q 2559 3003 2559 3356 
z
M 2663 1244 
Q 2663 1625 2420 1865 
Q 2178 2106 1791 2106 
Q 1394 2106 1161 1865 
Q 928 1625 928 1244 
Q 928 850 1161 631 
Q 1394 413 1797 413 
Q 2200 413 2431 631 
Q 2663 850 2663 1244 
z
" transform="scale(0.015625)"/>
       </defs>
       <use xlink:href="#Roboto-Regular-38"/>
      </g>
     </g>
    </g>
    <g id="text_23">
     <!-- r $\left( \mathbf{\AA} \right)$ -->
     <g style="fill: #191919" transform="translate(117.083555 355.37476)scale(0.08 -0.08)">
      <defs>
       <path id="Roboto-Bold-20" transform="scale(0.015625)"/>
       <path id="DejaVuSans-28" d="M 1984 4856 
Q 1566 4138 1362 3434 
Q 1159 2731 1159 2009 
Q 1159 1288 1364 580 
Q 1569 -128 1984 -844 
L 1484 -844 
Q 1016 -109 783 600 
Q 550 1309 550 2009 
Q 550 2706 781 3412 
Q 1013 4119 1484 4856 
L 1984 4856 
z
" transform="scale(0.015625)"/>
       <path id="DejaVuSans-Bold-c5" d="M 3225 4575 
L 4922 0 
L 3713 0 
L 3419 850 
L 1538 850 
L 1241 0 
L 31 0 
L 1728 4575 
Q 1656 4681 1622 4798 
Q 1588 4916 1588 5050 
Q 1588 5416 1848 5678 
Q 2109 5941 2478 5941 
Q 2841 5941 3103 5678 
Q 3366 5416 3366 5050 
Q 3366 4903 3331 4784 
Q 3297 4666 3225 4575 
z
M 2069 5050 
Q 2069 4881 2189 4761 
Q 2309 4641 2478 4641 
Q 2647 4641 2767 4761 
Q 2888 4881 2888 5050 
Q 2888 5219 2766 5339 
Q 2644 5459 2478 5459 
Q 2309 5459 2189 5339 
Q 2069 5219 2069 5050 
z
M 1838 1716 
L 3116 1716 
L 2478 3572 
L 1838 1716 
z
" transform="scale(0.015625)"/>
       <path id="DejaVuSans-29" d="M 513 4856 
L 1013 4856 
Q 1481 4119 1714 3412 
Q 1947 2706 1947 2009 
Q 1947 1309 1714 600 
Q 1481 -109 1013 -844 
L 513 -844 
Q 928 -128 1133 580 
Q 1338 1288 1338 2009 
Q 1338 2731 1133 3434 
Q 928 4138 513 4856 
z
" transform="scale(0.015625)"/>
      </defs>
      <use xlink:href="#Roboto-Bold-72" transform="translate(0 0.171875)"/>
      <use xlink:href="#Roboto-Bold-20" transform="translate(36.523438 0.171875)"/>
      <use xlink:href="#DejaVuSans-28" transform="translate(61.425781 0.171875)"/>
      <use xlink:href="#DejaVuSans-Bold-c5" transform="translate(100.439453 0.171875)"/>
      <use xlink:href="#DejaVuSans-29" transform="translate(177.832031 0.171875)"/>
     </g>
    </g>
   </g>
   <g id="matplotlib.axis_6">
    <g id="ytick_13">
     <g id="line2d_56">
      <g>
       <use xlink:href="#m2a1c997079" x="26.094459" y="330.767885" style="fill: #c2c1c1; stroke: #c2c1c1; stroke-width: 0.8"/>
      </g>
     </g>
     <g id="text_24">
      <!-- 0 -->
      <g style="fill: #191919" transform="translate(15.16024 333.392885)scale(0.07 -0.07)">
       <use xlink:href="#Roboto-Regular-30"/>
      </g>
     </g>
    </g>
    <g id="ytick_14">
     <g id="line2d_57">
      <g>
       <use xlink:href="#m2a1c997079" x="26.094459" y="304.073337" style="fill: #c2c1c1; stroke: #c2c1c1; stroke-width: 0.8"/>
      </g>
     </g>
     <g id="text_25">
      <!-- 1 -->
      <g style="fill: #191919" transform="translate(15.16024 306.698337)scale(0.07 -0.07)">
       <use xlink:href="#Roboto-Regular-31"/>
      </g>
     </g>
    </g>
    <g id="ytick_15">
     <g id="line2d_58">
      <g>
       <use xlink:href="#m2a1c997079" x="26.094459" y="277.378788" style="fill: #c2c1c1; stroke: #c2c1c1; stroke-width: 0.8"/>
      </g>
     </g>
     <g id="text_26">
      <!-- 2 -->
      <g style="fill: #191919" transform="translate(15.16024 280.003788)scale(0.07 -0.07)">
       <use xlink:href="#Roboto-Regular-32"/>
      </g>
     </g>
    </g>
    <g id="ytick_16">
     <g id="line2d_59">
      <g>
       <use xlink:href="#m2a1c997079" x="26.094459" y="250.68424" style="fill: #c2c1c1; stroke: #c2c1c1; stroke-width: 0.8"/>
      </g>
     </g>
     <g id="text_27">
      <!-- 3 -->
      <g style="fill: #191919" transform="translate(15.16024 253.30924)scale(0.07 -0.07)">
       <use xlink:href="#Roboto-Regular-33"/>
      </g>
     </g>
    </g>
    <g id="ytick_17">
     <g id="line2d_60">
      <g>
       <use xlink:href="#m03edd6a0f4" x="26.094459" y="317.420611" style="fill: #c2c1c1; stroke: #c2c1c1; stroke-width: 0.6"/>
      </g>
     </g>
    </g>
    <g id="ytick_18">
     <g id="line2d_61">
      <g>
       <use xlink:href="#m03edd6a0f4" x="26.094459" y="290.726062" style="fill: #c2c1c1; stroke: #c2c1c1; stroke-width: 0.6"/>
      </g>
     </g>
    </g>
    <g id="ytick_19">
     <g id="line2d_62">
      <g>
       <use xlink:href="#m03edd6a0f4" x="26.094459" y="264.031514" style="fill: #c2c1c1; stroke: #c2c1c1; stroke-width: 0.6"/>
      </g>
     </g>
    </g>
    <g id="ytick_20">
     <g id="line2d_63">
      <g>
       <use xlink:href="#m03edd6a0f4" x="26.094459" y="237.336966" style="fill: #c2c1c1; stroke: #c2c1c1; stroke-width: 0.6"/>
      </g>
     </g>
    </g>
    <g id="text_28">
     <!-- g$\mathregular{_{OO}}$(r) -->
     <g style="fill: #191919" transform="translate(9.32024 290.089062)rotate(-90)scale(0.08 -0.08)">
      <use xlink:href="#Roboto-Bold-67" transform="translate(0 0.046875)"/>
      <use xlink:href="#Roboto-Bold-4f" transform="translate(58.053398 -15.801563)scale(0.7)"/>
      <use xlink:href="#Roboto-Bold-4f" transform="translate(106.383477 -15.801563)scale(0.7)"/>
      <use xlink:href="#Roboto-Bold-28" transform="translate(157.354961 0.046875)"/>
      <use xlink:href="#Roboto-Bold-72" transform="translate(192.462383 0.046875)"/>
      <use xlink:href="#Roboto-Bold-29" transform="translate(228.98582 0.046875)"/>
     </g>
    </g>
   </g>
   <g id="patch_13">
    <path d="M 26.094459 330.767885 
L 26.094459 228.21024 
" style="fill: none; stroke: #c2c1c1; stroke-width: 0.8; stroke-linejoin: miter; stroke-linecap: square"/>
   </g>
   <g id="patch_14">
    <path d="M 225.432651 330.767885 
L 225.432651 228.21024 
" style="fill: none; stroke: #c2c1c1; stroke-width: 0.8; stroke-linejoin: miter; stroke-linecap: square"/>
   </g>
   <g id="patch_15">
    <path d="M 26.094459 330.767885 
L 225.432651 330.767885 
" style="fill: none; stroke: #c2c1c1; stroke-width: 0.8; stroke-linejoin: miter; stroke-linecap: square"/>
   </g>
   <g id="patch_16">
    <path d="M 26.094459 228.21024 
L 225.432651 228.21024 
" style="fill: none; stroke: #c2c1c1; stroke-width: 0.8; stroke-linejoin: miter; stroke-linecap: square"/>
   </g>
   <g id="text_29">
    <!-- C -->
    <g transform="translate(30.081223 238.466004)scale(0.096 -0.096)">
     <defs>
      <path id="Roboto-Bold-43" d="M 3044 1516 
L 3981 1516 
Q 3934 822 3461 379 
Q 2988 -63 2150 -63 
Q 1275 -63 772 526 
Q 269 1116 269 2125 
L 269 2422 
Q 269 3431 784 4023 
Q 1300 4616 2159 4616 
Q 3013 4616 3466 4161 
Q 3919 3706 3984 3006 
L 3047 3006 
Q 3016 3413 2820 3630 
Q 2625 3847 2159 3847 
Q 1247 3847 1222 2500 
L 1222 2125 
Q 1222 1419 1436 1062 
Q 1650 706 2150 706 
Q 2594 706 2801 907 
Q 3009 1109 3044 1516 
z
" transform="scale(0.015625)"/>
     </defs>
     <use xlink:href="#Roboto-Bold-43"/>
    </g>
   </g>
   <g id="text_30">
    <!-- MeOH -->
    <g transform="translate(199.518686 325.640003)scale(0.08 -0.08)">
     <use xlink:href="#Roboto-Regular-4d"/>
     <use xlink:href="#Roboto-Regular-65" x="87.304688"/>
     <use xlink:href="#Roboto-Regular-4f" x="140.332031"/>
     <use xlink:href="#Roboto-Regular-48" x="209.130859"/>
    </g>
   </g>
  </g>
 </g>
 <defs>
  <clipPath id="pcd20c17dbe">
   <rect x="26.094459" y="3.00024" width="199.338192" height="102.557645"/>
  </clipPath>
  <clipPath id="pba9260d6a6">
   <rect x="26.094459" y="115.60524" width="199.338192" height="102.557645"/>
  </clipPath>
  <clipPath id="p51f335892a">
   <rect x="26.094459" y="228.21024" width="199.338192" height="102.557645"/>
  </clipPath>
 </defs>
</svg>
