<?xml version="1.0" encoding="utf-8" standalone="no"?>
<!DOCTYPE svg PUBLIC "-//W3C//DTD SVG 1.1//EN"
  "http://www.w3.org/Graphics/SVG/1.1/DTD/svg11.dtd">
<svg xmlns:xlink="http://www.w3.org/1999/xlink" width="230.4pt" height="360pt" viewBox="0 0 230.4 360" xmlns="http://www.w3.org/2000/svg" version="1.1">
 <metadata>
  <rdf:RDF xmlns:dc="http://purl.org/dc/elements/1.1/" xmlns:cc="http://creativecommons.org/ns#" xmlns:rdf="http://www.w3.org/1999/02/22-rdf-syntax-ns#">
   <cc:Work>
    <dc:type rdf:resource="http://purl.org/dc/dcmitype/StillImage"/>
    <dc:date>2022-12-20T23:11:53.626639</dc:date>
    <dc:format>image/svg+xml</dc:format>
    <dc:creator>
     <cc:Agent>
      <dc:title>Matplotlib v3.5.2, https://matplotlib.org/</dc:title>
     </cc:Agent>
    </dc:creator>
   </cc:Work>
  </rdf:RDF>
 </metadata>
 <defs>
  <style type="text/css">*{stroke-linejoin: round; stroke-linecap: butt}</style>
 </defs>
 <g id="figure_1">
  <g id="patch_1">
   <path d="M 0 360 
L 230.4 360 
L 230.4 0 
L 0 0 
z
" style="fill: #ffffff"/>
  </g>
  <g id="axes_1">
   <g id="patch_2">
    <path d="M 26.014459 105.557885 
L 225.432651 105.557885 
L 225.432651 3.00024 
L 26.014459 3.00024 
z
" style="fill: #ffffff"/>
   </g>
   <g id="line2d_1">
    <path d="M 26.014459 66.428212 
L 225.432651 66.428212 
" clip-path="url(#p98721f15f7)" style="fill: none; stroke-dasharray: 1.5,6; stroke-dashoffset: 0; stroke: #c0c0c0; stroke-width: 1.5"/>
   </g>
   <g id="line2d_2">
    <path d="M -1 105.557885 
L 1.087185 105.557885 
L 4.410821 105.557885 
L 7.734458 105.557885 
L 11.058094 105.557885 
L 14.381731 105.557885 
L 17.705367 105.557885 
L 21.029004 105.557885 
L 24.35264 105.557885 
L 27.676277 105.557885 
L 30.999914 105.557885 
L 34.32355 105.557885 
L 37.647187 105.507495 
L 40.970823 103.000463 
L 44.29446 82.081016 
L 47.618096 36.619044 
L 50.941733 7.883937 
L 54.265369 12.812344 
L 57.589006 34.282453 
L 60.912642 53.909558 
L 64.236279 65.476359 
L 67.559915 69.914858 
L 70.883552 71.56925 
L 74.207188 71.453762 
L 77.530825 70.76363 
L 80.854462 69.96684 
L 84.178098 69.088569 
L 87.501735 66.777533 
L 90.825371 65.46962 
L 94.149008 64.050899 
L 97.472644 63.517341 
L 100.796281 61.802327 
L 104.119917 62.330393 
L 107.443554 62.699461 
L 110.76719 62.178363 
L 114.090827 62.269787 
L 117.414463 62.436675 
L 120.7381 64.445368 
L 124.061736 65.240554 
L 127.385373 66.74602 
L 130.709009 68.449608 
L 134.032646 69.529938 
L 137.356283 70.989938 
L 140.679919 71.010663 
L 144.003556 70.805112 
L 147.327192 70.820298 
L 150.650829 70.087073 
L 153.974465 69.419122 
L 157.298102 68.974892 
L 160.621738 67.864932 
L 163.945375 66.639015 
L 167.269011 65.562367 
L 170.592648 65.135461 
L 173.916284 64.418892 
L 177.239921 63.500508 
L 180.563557 62.755848 
L 183.887194 62.965996 
L 187.210831 63.291181 
L 190.534467 63.341626 
L 193.858104 63.971082 
L 197.18174 64.428911 
L 200.505377 65.100828 
L 203.829013 65.902648 
L 207.15265 66.377926 
L 210.476286 66.629183 
L 213.799923 66.941434 
L 217.123559 66.924041 
L 220.447196 67.132089 
L 223.770832 66.883711 
" clip-path="url(#p98721f15f7)" style="fill: none; stroke: #4abbf3; stroke-width: 1.5; stroke-linecap: square"/>
   </g>
   <g id="line2d_3">
    <path d="M -1 105.557885 
L 37.314823 105.4718 
L 38.311914 105.150936 
L 39.309005 104.129652 
L 40.306096 101.695786 
L 41.303187 97.364131 
L 42.300278 90.989908 
L 43.297369 82.835284 
L 45.291551 62.519158 
L 48.282824 29.141546 
L 49.279914 20.114331 
L 50.277005 13.333159 
L 51.274096 9.283237 
L 52.271187 7.917612 
L 53.268278 9.111067 
L 54.265369 12.354917 
L 55.26246 17.257865 
L 57.256642 29.736317 
L 59.250824 42.852584 
L 61.245006 54.231493 
L 62.242097 58.927054 
L 63.239188 62.894802 
L 64.236279 66.103436 
L 65.23337 68.646864 
L 66.230461 70.575957 
L 67.227552 71.996364 
L 68.224643 72.978519 
L 69.221734 73.61242 
L 70.218825 74.011543 
L 72.213007 74.234582 
L 74.207188 74.125019 
L 78.195552 73.275905 
L 80.189734 72.657656 
L 83.181007 71.393767 
L 85.175189 70.388135 
L 95.146099 64.996066 
L 98.137371 63.747829 
L 101.128644 62.793065 
L 104.119917 62.108296 
L 107.11119 61.693521 
L 109.105372 61.568307 
L 111.099554 61.572219 
L 114.090827 61.865692 
L 116.085009 62.256989 
L 119.076282 63.070886 
L 122.067555 64.178256 
L 126.055918 65.872571 
L 130.044282 67.594276 
L 134.032646 69.100769 
L 138.02101 70.212051 
L 141.012283 70.748128 
L 144.003556 70.978993 
L 145.997738 70.963341 
L 148.98901 70.705085 
L 151.980283 70.180748 
L 155.968647 69.190767 
L 169.927921 65.543881 
L 173.916284 64.819982 
L 177.904648 64.319123 
L 181.893012 64.060867 
L 185.881376 64.068693 
L 191.863922 64.483467 
L 201.834831 65.759095 
L 209.811559 66.745162 
L 215.794105 67.206892 
L 219.782469 67.355585 
L 224.767923 67.33602 
L 230.750469 67.120807 
L 231.4 67.092768 
L 231.4 67.092768 
" clip-path="url(#p98721f15f7)" style="fill: none; stroke-dasharray: 7.5,6; stroke-dashoffset: 0; stroke: #555555; stroke-width: 1.5"/>
   </g>
   <g id="matplotlib.axis_1">
    <g id="xtick_1">
     <g id="line2d_4">
      <defs>
       <path id="m633eeb1eeb" d="M 0 0 
L 0 3.5 
" style="stroke: #c2c1c1; stroke-width: 0.8"/>
      </defs>
      <g>
       <use xlink:href="#m633eeb1eeb" x="26.014459" y="105.557885" style="fill: #c2c1c1; stroke: #c2c1c1; stroke-width: 0.8"/>
      </g>
     </g>
    </g>
    <g id="xtick_2">
     <g id="line2d_5">
      <g>
       <use xlink:href="#m633eeb1eeb" x="59.250824" y="105.557885" style="fill: #c2c1c1; stroke: #c2c1c1; stroke-width: 0.8"/>
      </g>
     </g>
    </g>
    <g id="xtick_3">
     <g id="line2d_6">
      <g>
       <use xlink:href="#m633eeb1eeb" x="92.487189" y="105.557885" style="fill: #c2c1c1; stroke: #c2c1c1; stroke-width: 0.8"/>
      </g>
     </g>
    </g>
    <g id="xtick_4">
     <g id="line2d_7">
      <g>
       <use xlink:href="#m633eeb1eeb" x="125.723555" y="105.557885" style="fill: #c2c1c1; stroke: #c2c1c1; stroke-width: 0.8"/>
      </g>
     </g>
    </g>
    <g id="xtick_5">
     <g id="line2d_8">
      <g>
       <use xlink:href="#m633eeb1eeb" x="158.95992" y="105.557885" style="fill: #c2c1c1; stroke: #c2c1c1; stroke-width: 0.8"/>
      </g>
     </g>
    </g>
    <g id="xtick_6">
     <g id="line2d_9">
      <g>
       <use xlink:href="#m633eeb1eeb" x="192.196285" y="105.557885" style="fill: #c2c1c1; stroke: #c2c1c1; stroke-width: 0.8"/>
      </g>
     </g>
    </g>
    <g id="xtick_7">
     <g id="line2d_10">
      <g>
       <use xlink:href="#m633eeb1eeb" x="225.432651" y="105.557885" style="fill: #c2c1c1; stroke: #c2c1c1; stroke-width: 0.8"/>
      </g>
     </g>
    </g>
   </g>
   <g id="matplotlib.axis_2">
    <g id="ytick_1">
     <g id="line2d_11">
      <defs>
       <path id="m45295fc7ca" d="M 0 0 
L -3.5 0 
" style="stroke: #c2c1c1; stroke-width: 0.8"/>
      </defs>
      <g>
       <use xlink:href="#m45295fc7ca" x="26.014459" y="105.557885" style="fill: #c2c1c1; stroke: #c2c1c1; stroke-width: 0.8"/>
      </g>
     </g>
     <g id="text_1">
      <!-- 0 -->
      <g style="fill: #191919" transform="translate(15.08024 108.182885)scale(0.07 -0.07)">
       <defs>
        <path id="Roboto-Regular-30" d="M 3234 1944 
Q 3234 825 2848 381 
Q 2463 -63 1800 -63 
Q 1156 -63 764 368 
Q 372 800 359 1872 
L 359 2638 
Q 359 3753 750 4183 
Q 1141 4613 1794 4613 
Q 2447 4613 2834 4195 
Q 3222 3778 3234 2709 
L 3234 1944 
z
M 2653 2734 
Q 2653 3503 2434 3822 
Q 2216 4141 1794 4141 
Q 1388 4141 1167 3831 
Q 947 3522 941 2778 
L 941 1850 
Q 941 1088 1164 750 
Q 1388 413 1800 413 
Q 2222 413 2436 745 
Q 2650 1078 2653 1825 
L 2653 2734 
z
" transform="scale(0.015625)"/>
       </defs>
       <use xlink:href="#Roboto-Regular-30"/>
      </g>
     </g>
    </g>
    <g id="ytick_2">
     <g id="line2d_12">
      <g>
       <use xlink:href="#m45295fc7ca" x="26.014459" y="66.428212" style="fill: #c2c1c1; stroke: #c2c1c1; stroke-width: 0.8"/>
      </g>
     </g>
     <g id="text_2">
      <!-- 1 -->
      <g style="fill: #191919" transform="translate(15.08024 69.053212)scale(0.07 -0.07)">
       <defs>
        <path id="Roboto-Regular-31" d="M 2278 4575 
L 2278 0 
L 1700 0 
L 1700 3853 
L 534 3428 
L 534 3950 
L 2188 4575 
L 2278 4575 
z
" transform="scale(0.015625)"/>
       </defs>
       <use xlink:href="#Roboto-Regular-31"/>
      </g>
     </g>
    </g>
    <g id="ytick_3">
     <g id="line2d_13">
      <g>
       <use xlink:href="#m45295fc7ca" x="26.014459" y="27.298539" style="fill: #c2c1c1; stroke: #c2c1c1; stroke-width: 0.8"/>
      </g>
     </g>
     <g id="text_3">
      <!-- 2 -->
      <g style="fill: #191919" transform="translate(15.08024 29.923539)scale(0.07 -0.07)">
       <defs>
        <path id="Roboto-Regular-32" d="M 3359 475 
L 3359 0 
L 381 0 
L 381 416 
L 1925 2134 
Q 2306 2566 2439 2819 
Q 2572 3072 2572 3328 
Q 2572 3663 2364 3900 
Q 2156 4138 1778 4138 
Q 1322 4138 1097 3878 
Q 872 3619 872 3213 
L 294 3213 
Q 294 3788 672 4200 
Q 1050 4613 1778 4613 
Q 2422 4613 2786 4278 
Q 3150 3944 3150 3397 
Q 3150 2997 2903 2592 
Q 2656 2188 2297 1797 
L 1078 475 
L 3359 475 
z
" transform="scale(0.015625)"/>
       </defs>
       <use xlink:href="#Roboto-Regular-32"/>
      </g>
     </g>
    </g>
    <g id="ytick_4">
     <g id="line2d_14">
      <defs>
       <path id="m4897f44303" d="M 0 0 
L -2 0 
" style="stroke: #c2c1c1; stroke-width: 0.6"/>
      </defs>
      <g>
       <use xlink:href="#m4897f44303" x="26.014459" y="85.993048" style="fill: #c2c1c1; stroke: #c2c1c1; stroke-width: 0.6"/>
      </g>
     </g>
    </g>
    <g id="ytick_5">
     <g id="line2d_15">
      <g>
       <use xlink:href="#m4897f44303" x="26.014459" y="46.863375" style="fill: #c2c1c1; stroke: #c2c1c1; stroke-width: 0.6"/>
      </g>
     </g>
    </g>
    <g id="ytick_6">
     <g id="line2d_16">
      <g>
       <use xlink:href="#m4897f44303" x="26.014459" y="7.733702" style="fill: #c2c1c1; stroke: #c2c1c1; stroke-width: 0.6"/>
      </g>
     </g>
    </g>
    <g id="text_4">
     <!-- g$\mathregular{_{OO}}$(r) -->
     <g style="fill: #191919" transform="translate(9.32024 64.959063)rotate(-90)scale(0.08 -0.08)">
      <defs>
       <path id="Roboto-Black-67" d="M 1659 -1331 
Q 1319 -1331 966 -1203 
Q 613 -1075 403 -825 
L 844 -206 
Q 1147 -553 1622 -553 
Q 2313 -553 2322 119 
L 2322 275 
Q 2025 -63 1553 -63 
Q 913 -63 544 425 
Q 175 913 175 1650 
L 175 1716 
Q 175 2488 545 2966 
Q 916 3444 1559 3444 
Q 2091 3444 2384 3091 
L 2422 3381 
L 3378 3381 
L 3378 131 
Q 3378 -572 2904 -951 
Q 2431 -1331 1659 -1331 
z
M 1228 1650 
Q 1228 1269 1375 1009 
Q 1522 750 1822 750 
Q 2166 750 2322 981 
L 2322 2400 
Q 2172 2631 1828 2631 
Q 1531 2631 1379 2372 
Q 1228 2113 1228 1650 
z
" transform="scale(0.015625)"/>
       <path id="Roboto-Black-4f" d="M 4197 2181 
Q 4197 1138 3640 537 
Q 3084 -63 2213 -63 
Q 1334 -63 776 537 
Q 219 1138 219 2181 
L 219 2366 
Q 219 3409 773 4011 
Q 1328 4613 2206 4613 
Q 3078 4613 3637 4011 
Q 4197 3409 4197 2366 
L 4197 2181 
z
M 3084 2372 
Q 3084 3059 2865 3406 
Q 2647 3753 2206 3753 
Q 1388 3753 1338 2534 
L 1334 2181 
Q 1334 1513 1554 1153 
Q 1775 794 2213 794 
Q 2628 794 2854 1148 
Q 3081 1503 3084 2163 
L 3084 2372 
z
" transform="scale(0.015625)"/>
       <path id="Roboto-Black-28" d="M 378 1850 
Q 378 2713 608 3369 
Q 838 4025 1194 4444 
Q 1550 4863 1938 5019 
L 2134 4500 
Q 1788 4247 1505 3622 
Q 1222 2997 1216 1909 
L 1216 1756 
Q 1216 634 1500 1 
Q 1784 -631 2134 -888 
L 1938 -1406 
Q 1550 -1250 1195 -833 
Q 841 -416 612 229 
Q 384 875 378 1716 
L 378 1850 
z
" transform="scale(0.015625)"/>
       <path id="Roboto-Black-72" d="M 1994 2453 
Q 1500 2453 1359 2144 
L 1359 0 
L 306 0 
L 306 3381 
L 1291 3381 
L 1325 2950 
Q 1591 3444 2069 3444 
Q 2244 3444 2359 3406 
L 2341 2428 
L 1994 2453 
z
" transform="scale(0.015625)"/>
       <path id="Roboto-Black-29" d="M 1956 1763 
Q 1956 941 1717 283 
Q 1478 -375 1104 -812 
Q 731 -1250 328 -1406 
L 125 -888 
Q 469 -634 753 -9 
Q 1038 616 1044 1703 
L 1044 1856 
Q 1044 2978 759 3611 
Q 475 4244 125 4500 
L 328 5019 
Q 731 4863 1104 4425 
Q 1478 3988 1717 3330 
Q 1956 2672 1956 1850 
L 1956 1763 
z
" transform="scale(0.015625)"/>
      </defs>
      <use xlink:href="#Roboto-Black-67" transform="translate(0 0.578125)"/>
      <use xlink:href="#Roboto-Black-4f" transform="translate(58.492852 -15.270313)scale(0.7)"/>
      <use xlink:href="#Roboto-Black-4f" transform="translate(106.82293 -15.270313)scale(0.7)"/>
      <use xlink:href="#Roboto-Black-28" transform="translate(157.794414 0.578125)"/>
      <use xlink:href="#Roboto-Black-72" transform="translate(193.097148 0.578125)"/>
      <use xlink:href="#Roboto-Black-29" transform="translate(230.987773 0.578125)"/>
     </g>
    </g>
   </g>
   <g id="patch_3">
    <path d="M 26.014459 105.557885 
L 26.014459 3.00024 
" style="fill: none; stroke: #c2c1c1; stroke-width: 0.8; stroke-linejoin: miter; stroke-linecap: square"/>
   </g>
   <g id="patch_4">
    <path d="M 225.432651 105.557885 
L 225.432651 3.00024 
" style="fill: none; stroke: #c2c1c1; stroke-width: 0.8; stroke-linejoin: miter; stroke-linecap: square"/>
   </g>
   <g id="patch_5">
    <path d="M 26.014459 105.557885 
L 225.432651 105.557885 
" style="fill: none; stroke: #c2c1c1; stroke-width: 0.8; stroke-linejoin: miter; stroke-linecap: square"/>
   </g>
   <g id="patch_6">
    <path d="M 26.014459 3.00024 
L 225.432651 3.00024 
" style="fill: none; stroke: #c2c1c1; stroke-width: 0.8; stroke-linejoin: miter; stroke-linecap: square"/>
   </g>
   <g id="text_5">
    <!-- A -->
    <g transform="translate(30.002823 13.256004)scale(0.096 -0.096)">
     <defs>
      <path id="Roboto-Bold-41" d="M 25 0 
L 1719 4550 
L 2588 4550 
L 4291 0 
L 3291 0 
L 2978 938 
L 1331 938 
L 1019 0 
L 25 0 
z
M 1584 1697 
L 2725 1697 
L 2156 3406 
L 1584 1697 
z
" transform="scale(0.015625)"/>
     </defs>
     <use xlink:href="#Roboto-Bold-41"/>
    </g>
   </g>
   <g id="text_6">
    <!--    H$_2$O -->
    <g transform="translate(199.508286 13.256004)scale(0.08 -0.08)">
     <defs>
      <path id="Roboto-Regular-20" transform="scale(0.015625)"/>
      <path id="Roboto-Regular-48" d="M 3425 0 
L 3425 2103 
L 1131 2103 
L 1131 0 
L 528 0 
L 528 4550 
L 1131 4550 
L 1131 2594 
L 3425 2594 
L 3425 4550 
L 4025 4550 
L 4025 0 
L 3425 0 
z
" transform="scale(0.015625)"/>
      <path id="DejaVuSans-32" d="M 1228 531 
L 3431 531 
L 3431 0 
L 469 0 
L 469 531 
Q 828 903 1448 1529 
Q 2069 2156 2228 2338 
Q 2531 2678 2651 2914 
Q 2772 3150 2772 3378 
Q 2772 3750 2511 3984 
Q 2250 4219 1831 4219 
Q 1534 4219 1204 4116 
Q 875 4013 500 3803 
L 500 4441 
Q 881 4594 1212 4672 
Q 1544 4750 1819 4750 
Q 2544 4750 2975 4387 
Q 3406 4025 3406 3419 
Q 3406 3131 3298 2873 
Q 3191 2616 2906 2266 
Q 2828 2175 2409 1742 
Q 1991 1309 1228 531 
z
" transform="scale(0.015625)"/>
      <path id="Roboto-Regular-4f" d="M 4031 2131 
Q 4031 1106 3534 521 
Q 3038 -63 2206 -63 
Q 1397 -63 884 521 
Q 372 1106 372 2131 
L 372 2419 
Q 372 3441 881 4027 
Q 1391 4613 2200 4613 
Q 3025 4613 3523 4036 
Q 4022 3459 4031 2456 
L 4031 2131 
z
M 3434 2425 
Q 3434 3238 3109 3669 
Q 2784 4100 2200 4100 
Q 1641 4100 1305 3669 
Q 969 3238 969 2425 
L 969 2131 
Q 969 1313 1308 880 
Q 1647 447 2206 447 
Q 2794 447 3114 880 
Q 3434 1313 3434 2131 
L 3434 2425 
z
" transform="scale(0.015625)"/>
     </defs>
     <use xlink:href="#Roboto-Regular-20" transform="translate(0 0.921875)"/>
     <use xlink:href="#Roboto-Regular-20" transform="translate(24.804688 0.921875)"/>
     <use xlink:href="#Roboto-Regular-20" transform="translate(49.609375 0.921875)"/>
     <use xlink:href="#Roboto-Regular-48" transform="translate(74.414062 0.921875)"/>
     <use xlink:href="#DejaVuSans-32" transform="translate(146.708984 -15.484375)scale(0.7)"/>
     <use xlink:href="#Roboto-Regular-4f" transform="translate(193.979492 0.921875)"/>
    </g>
   </g>
   <g id="legend_1">
    <g id="line2d_17">
     <path d="M 149.335151 82.307885 
L 157.335151 82.307885 
L 165.335151 82.307885 
" style="fill: none; stroke: #4abbf3; stroke-width: 1.5; stroke-linecap: square"/>
    </g>
    <g id="text_7">
     <!-- mbGDML -->
     <g transform="translate(171.735151 85.107885)scale(0.08 -0.08)">
      <defs>
       <path id="Roboto-Regular-6d" d="M 1794 2956 
Q 1225 2956 1016 2478 
L 1016 0 
L 434 0 
L 434 3381 
L 984 3381 
L 1000 3013 
Q 1366 3444 2000 3444 
Q 2325 3444 2579 3314 
Q 2834 3184 2969 2900 
Q 3138 3144 3408 3294 
Q 3678 3444 4044 3444 
Q 4588 3444 4883 3153 
Q 5178 2863 5178 2222 
L 5178 0 
L 4597 0 
L 4597 2228 
Q 4597 2653 4401 2804 
Q 4206 2956 3875 2956 
Q 3525 2956 3325 2748 
Q 3125 2541 3094 2244 
L 3094 0 
L 2516 0 
L 2516 2225 
Q 2516 2622 2319 2789 
Q 2122 2956 1794 2956 
z
" transform="scale(0.015625)"/>
       <path id="Roboto-Regular-62" d="M 3303 1653 
Q 3303 913 2959 425 
Q 2616 -63 1988 -63 
Q 1347 -63 1000 391 
L 969 0 
L 438 0 
L 438 4800 
L 1019 4800 
L 1019 3016 
Q 1363 3444 1981 3444 
Q 2619 3444 2961 2969 
Q 3303 2494 3303 1719 
L 3303 1653 
z
M 1838 2956 
Q 1522 2956 1325 2804 
Q 1128 2653 1019 2431 
L 1019 959 
Q 1131 734 1331 581 
Q 1531 428 1844 428 
Q 2313 428 2517 789 
Q 2722 1150 2722 1653 
L 2722 1719 
Q 2722 2222 2526 2589 
Q 2331 2956 1838 2956 
z
" transform="scale(0.015625)"/>
       <path id="Roboto-Regular-47" d="M 3891 2266 
L 3891 600 
Q 3763 413 3403 175 
Q 3044 -63 2281 -63 
Q 1450 -63 915 507 
Q 381 1078 381 2100 
L 381 2453 
Q 381 3469 856 4041 
Q 1331 4613 2213 4613 
Q 2994 4613 3398 4219 
Q 3803 3825 3891 3219 
L 3288 3219 
Q 3225 3588 2979 3853 
Q 2734 4119 2213 4119 
Q 1584 4119 1287 3676 
Q 991 3234 988 2475 
L 988 2100 
Q 988 1313 1344 870 
Q 1700 428 2284 428 
Q 2769 428 2984 542 
Q 3200 656 3291 759 
L 3291 1778 
L 2238 1778 
L 2238 2266 
L 3891 2266 
z
" transform="scale(0.015625)"/>
       <path id="Roboto-Regular-44" d="M 528 0 
L 528 4550 
L 1816 4550 
Q 2713 4550 3267 3973 
Q 3822 3397 3822 2409 
L 3822 2138 
Q 3822 1150 3264 575 
Q 2706 0 1759 0 
L 528 0 
z
M 1131 4056 
L 1131 491 
L 1759 491 
Q 2488 491 2856 941 
Q 3225 1391 3225 2138 
L 3225 2416 
Q 3225 3200 2856 3628 
Q 2488 4056 1816 4056 
L 1131 4056 
z
" transform="scale(0.015625)"/>
       <path id="Roboto-Regular-4d" d="M 2794 841 
L 4281 4550 
L 5056 4550 
L 5056 0 
L 4456 0 
L 4456 1775 
L 4516 3678 
L 3019 0 
L 2563 0 
L 1069 3684 
L 1128 1775 
L 1128 0 
L 528 0 
L 528 4550 
L 1303 4550 
L 2794 841 
z
" transform="scale(0.015625)"/>
       <path id="Roboto-Regular-4c" d="M 3288 491 
L 3288 0 
L 528 0 
L 528 4550 
L 1131 4550 
L 1131 491 
L 3288 491 
z
" transform="scale(0.015625)"/>
      </defs>
      <use xlink:href="#Roboto-Regular-6d"/>
      <use xlink:href="#Roboto-Regular-62" x="87.695312"/>
      <use xlink:href="#Roboto-Regular-47" x="143.847656"/>
      <use xlink:href="#Roboto-Regular-44" x="211.962891"/>
      <use xlink:href="#Roboto-Regular-4d" x="277.587891"/>
      <use xlink:href="#Roboto-Regular-4c" x="364.892578"/>
     </g>
    </g>
    <g id="line2d_18">
     <path d="M 149.335151 93.932885 
L 157.335151 93.932885 
L 165.335151 93.932885 
" style="fill: none; stroke-dasharray: 7.5,6; stroke-dashoffset: 0; stroke: #555555; stroke-width: 1.5"/>
    </g>
    <g id="text_8">
     <!-- Experimental -->
     <g transform="translate(171.735151 96.732885)scale(0.08 -0.08)">
      <defs>
       <path id="Roboto-Regular-45" d="M 528 0 
L 528 4550 
L 3388 4550 
L 3388 4056 
L 1131 4056 
L 1131 2594 
L 3100 2594 
L 3100 2103 
L 1131 2103 
L 1131 491 
L 3419 491 
L 3419 0 
L 528 0 
z
" transform="scale(0.015625)"/>
       <path id="Roboto-Regular-78" d="M 831 3381 
L 1572 2150 
L 2322 3381 
L 3000 3381 
L 1894 1713 
L 3034 0 
L 2366 0 
L 1584 1269 
L 803 0 
L 131 0 
L 1269 1713 
L 166 3381 
L 831 3381 
z
" transform="scale(0.015625)"/>
       <path id="Roboto-Regular-70" d="M 1984 -63 
Q 1375 -63 1019 328 
L 1019 -1300 
L 438 -1300 
L 438 3381 
L 969 3381 
L 997 3009 
Q 1353 3444 1975 3444 
Q 2616 3444 2956 2969 
Q 3297 2494 3297 1719 
L 3297 1653 
Q 3297 913 2955 425 
Q 2613 -63 1984 -63 
z
M 1806 2956 
Q 1281 2956 1019 2491 
L 1019 872 
Q 1284 413 1813 413 
Q 2281 413 2498 781 
Q 2716 1150 2716 1653 
L 2716 1719 
Q 2716 2222 2498 2589 
Q 2281 2956 1806 2956 
z
" transform="scale(0.015625)"/>
       <path id="Roboto-Regular-65" d="M 3116 591 
Q 2950 341 2647 139 
Q 2344 -63 1844 -63 
Q 1138 -63 714 396 
Q 291 856 291 1572 
L 291 1703 
Q 291 2256 502 2645 
Q 713 3034 1050 3239 
Q 1388 3444 1769 3444 
Q 2494 3444 2826 2970 
Q 3159 2497 3159 1788 
L 3159 1528 
L 872 1528 
Q 884 1063 1148 736 
Q 1413 409 1875 409 
Q 2181 409 2393 534 
Q 2606 659 2766 869 
L 3116 591 
z
M 1769 2969 
Q 1425 2969 1187 2719 
Q 950 2469 891 2000 
L 2581 2000 
L 2581 2044 
Q 2559 2381 2386 2675 
Q 2213 2969 1769 2969 
z
" transform="scale(0.015625)"/>
       <path id="Roboto-Regular-72" d="M 1791 2888 
Q 1225 2888 1019 2400 
L 1019 0 
L 441 0 
L 441 3381 
L 1003 3381 
L 1016 2994 
Q 1294 3444 1819 3444 
Q 1981 3444 2075 3400 
L 2072 2863 
Q 1944 2888 1791 2888 
z
" transform="scale(0.015625)"/>
       <path id="Roboto-Regular-69" d="M 444 4278 
Q 444 4419 530 4516 
Q 616 4613 784 4613 
Q 950 4613 1039 4516 
Q 1128 4419 1128 4278 
Q 1128 4144 1039 4048 
Q 950 3953 784 3953 
Q 616 3953 530 4048 
Q 444 4144 444 4278 
z
M 1069 3381 
L 1069 0 
L 488 0 
L 488 3381 
L 1069 3381 
z
" transform="scale(0.015625)"/>
       <path id="Roboto-Regular-6e" d="M 1844 2956 
Q 1566 2956 1353 2806 
Q 1141 2656 1019 2416 
L 1019 0 
L 441 0 
L 441 3381 
L 988 3381 
L 1006 2959 
Q 1391 3444 2016 3444 
Q 2513 3444 2805 3166 
Q 3097 2888 3100 2231 
L 3100 0 
L 2519 0 
L 2519 2222 
Q 2519 2619 2345 2787 
Q 2172 2956 1844 2956 
z
" transform="scale(0.015625)"/>
       <path id="Roboto-Regular-74" d="M 1872 0 
Q 1675 -63 1425 -63 
Q 1103 -63 875 134 
Q 647 331 647 841 
L 647 2938 
L 28 2938 
L 28 3381 
L 647 3381 
L 647 4203 
L 1225 4203 
L 1225 3381 
L 1856 3381 
L 1856 2938 
L 1225 2938 
L 1225 838 
Q 1225 578 1337 506 
Q 1450 434 1597 434 
Q 1706 434 1869 472 
L 1872 0 
z
" transform="scale(0.015625)"/>
       <path id="Roboto-Regular-61" d="M 2528 0 
Q 2472 122 2447 356 
Q 2284 184 2040 60 
Q 1797 -63 1484 -63 
Q 966 -63 653 228 
Q 341 519 341 941 
Q 341 1484 753 1767 
Q 1166 2050 1863 2050 
L 2434 2050 
L 2434 2319 
Q 2434 2619 2254 2798 
Q 2075 2978 1722 2978 
Q 1394 2978 1192 2817 
Q 991 2656 991 2444 
L 413 2444 
Q 413 2806 778 3125 
Q 1144 3444 1756 3444 
Q 2306 3444 2659 3162 
Q 3013 2881 3013 2313 
L 3013 794 
Q 3013 325 3131 50 
L 3131 0 
L 2528 0 
z
M 1569 444 
Q 1881 444 2111 600 
Q 2341 756 2434 947 
L 2434 1644 
L 1897 1644 
Q 922 1625 922 1019 
Q 922 778 1084 611 
Q 1247 444 1569 444 
z
" transform="scale(0.015625)"/>
       <path id="Roboto-Regular-6c" d="M 1069 4800 
L 1069 0 
L 488 0 
L 488 4800 
L 1069 4800 
z
" transform="scale(0.015625)"/>
      </defs>
      <use xlink:href="#Roboto-Regular-45"/>
      <use xlink:href="#Roboto-Regular-78" x="56.835938"/>
      <use xlink:href="#Roboto-Regular-70" x="106.445312"/>
      <use xlink:href="#Roboto-Regular-65" x="162.597656"/>
      <use xlink:href="#Roboto-Regular-72" x="215.625"/>
      <use xlink:href="#Roboto-Regular-69" x="249.511719"/>
      <use xlink:href="#Roboto-Regular-6d" x="273.828125"/>
      <use xlink:href="#Roboto-Regular-65" x="361.523438"/>
      <use xlink:href="#Roboto-Regular-6e" x="414.550781"/>
      <use xlink:href="#Roboto-Regular-74" x="469.775391"/>
      <use xlink:href="#Roboto-Regular-61" x="502.490234"/>
      <use xlink:href="#Roboto-Regular-6c" x="556.884766"/>
     </g>
    </g>
   </g>
  </g>
  <g id="axes_2">
   <g id="patch_7">
    <path d="M 26.014459 218.162885 
L 225.432651 218.162885 
L 225.432651 115.60524 
L 26.014459 115.60524 
z
" style="fill: #ffffff"/>
   </g>
   <g id="line2d_19">
    <path d="M 26.014459 159.09144 
L 225.432651 159.09144 
" clip-path="url(#pd6650ae332)" style="fill: none; stroke-dasharray: 1.5,6; stroke-dashoffset: 0; stroke: #c0c0c0; stroke-width: 1.5"/>
   </g>
   <path d="M -1 218.162885 
L 50.614603 218.162885 
L 60.035935 217.956822 
L 64.354046 216.926506 
L 66.709378 215.484064 
L 68.2796 214.041621 
L 70.242378 211.774926 
L 71.8126 208.890042 
L 73.382822 205.593031 
L 74.953044 201.677831 
L 76.915821 197.144441 
L 78.093488 192.404987 
L 80.056265 187.253408 
L 81.626487 181.689702 
L 83.589265 176.125996 
L 85.159487 170.768353 
L 86.729709 165.410711 
L 88.299931 160.259131 
L 89.870153 155.313615 
L 91.440375 150.574162 
L 93.403152 146.246835 
L 94.973374 141.713445 
L 96.543596 138.004308 
L 98.113818 134.707297 
L 99.68404 131.616349 
L 101.646818 128.937528 
L 103.21704 126.670833 
L 104.787262 124.404138 
L 106.750039 122.549569 
L 109.497928 121.107127 
L 112.245816 120.488937 
L 115.778815 121.107127 
L 118.526704 122.549569 
L 120.489481 124.404138 
L 122.452259 126.052643 
L 124.022481 128.113275 
L 125.985258 129.967844 
L 127.55548 132.234539 
L 129.518258 134.91336 
L 131.481035 137.180055 
L 133.051257 139.44675 
L 134.621479 141.713445 
L 136.584257 143.774077 
L 138.154479 145.834709 
L 139.724701 147.89534 
L 141.687478 149.543846 
L 143.650256 151.604478 
L 145.613033 153.665109 
L 148.360922 155.313615 
L 150.323699 157.168184 
L 152.679032 158.816689 
L 156.212032 160.877321 
L 159.352475 163.350079 
L 162.885475 165.204648 
L 166.81103 167.059216 
L 171.12914 168.501658 
L 175.839806 169.531974 
L 180.550472 169.944101 
L 184.868583 169.944101 
L 189.579249 169.944101 
L 193.897359 169.738038 
L 197.822914 169.119848 
L 201.748469 168.501658 
L 205.674024 167.677406 
L 209.599579 166.64709 
L 213.132578 165.616774 
L 216.665578 164.380395 
L 220.198577 163.350079 
L 223.339021 161.907637 
L 226.872021 160.671258 
L 230.012465 159.434879 
L 231.4 158.810574 
" clip-path="url(#pd6650ae332)" style="fill: none; stroke: #555555; stroke-width: 1.5; stroke-linecap: square"/>
   <path d="M -1 218.162885 
L 50.614603 218.162885 
L 60.035935 217.956822 
L 64.354046 216.926506 
L 66.709378 215.484064 
L 68.2796 214.041621 
L 70.242378 211.774926 
L 71.8126 208.890042 
L 73.382822 205.593031 
L 74.953044 201.677831 
L 76.915821 197.144441 
L 78.093488 192.404987 
L 80.056265 187.253408 
L 81.626487 181.689702 
L 83.589265 176.125996 
L 85.159487 170.768353 
L 86.729709 165.410711 
L 88.299931 160.259131 
L 89.870153 155.313615 
L 91.440375 150.574162 
L 93.403152 146.246835 
L 94.973374 141.713445 
L 96.543596 138.004308 
L 98.113818 134.707297 
L 99.68404 131.616349 
L 101.646818 128.937528 
L 103.21704 126.670833 
L 104.787262 124.404138 
L 106.750039 122.549569 
L 109.497928 121.107127 
L 112.245816 120.488937 
L 115.778815 121.107127 
L 118.526704 122.549569 
L 120.489481 124.404138 
L 122.452259 126.052643 
L 124.022481 128.113275 
L 125.985258 129.967844 
L 127.55548 132.234539 
L 129.518258 134.91336 
L 131.481035 137.180055 
L 133.051257 139.44675 
L 134.621479 141.713445 
L 136.584257 143.774077 
L 138.154479 145.834709 
L 139.724701 147.89534 
L 141.687478 149.543846 
L 143.650256 151.604478 
L 145.613033 153.665109 
L 148.360922 155.313615 
L 150.323699 157.168184 
L 152.679032 158.816689 
L 156.212032 160.877321 
L 159.352475 163.350079 
L 162.885475 165.204648 
L 166.81103 167.059216 
L 171.12914 168.501658 
L 175.839806 169.531974 
L 180.550472 169.944101 
L 184.868583 169.944101 
L 189.579249 169.944101 
L 193.897359 169.738038 
L 197.822914 169.119848 
L 201.748469 168.501658 
L 205.674024 167.677406 
L 209.599579 166.64709 
L 213.132578 165.616774 
L 216.665578 164.380395 
L 220.198577 163.350079 
L 223.339021 161.907637 
L 226.872021 160.671258 
L 230.012465 159.434879 
L 231.4 158.810574 
" clip-path="url(#pd6650ae332)" style="fill: none; stroke: #f1f1f1; stroke-width: 1.5; stroke-linecap: square"/>
   <path d="M -1 218.162885 
L 50.860003 218.162885 
L 57.834184 216.882001 
L 61.321284 214.621608 
L 63.500705 211.004992 
L 66.116025 206.032145 
L 68.295485 200.381171 
L 70.039006 194.956242 
L 71.346666 189.531314 
L 73.090226 183.88035 
L 74.397886 178.003341 
L 75.705547 172.578412 
L 77.449107 166.701414 
L 78.756767 161.728556 
L 80.500287 156.077592 
L 82.679748 150.652663 
L 84.859168 145.227735 
L 87.038589 140.028842 
L 93.57689 136.638262 
L 98.80753 137.994494 
L 104.038171 141.61112 
L 109.704712 145.905851 
L 115.807113 150.200583 
L 121.473654 153.139092 
L 126.704295 154.947395 
L 132.806696 155.173441 
L 138.909137 152.460976 
L 144.575638 149.070396 
L 149.806279 149.522467 
L 155.472819 153.365128 
L 160.70346 157.207789 
L 166.370001 160.372323 
L 171.600642 161.954601 
L 178.138943 162.406672 
L 184.241344 162.406672 
L 192.087305 162.632717 
L 198.625606 162.632717 
L 205.163907 162.632717 
L 211.702208 162.632717 
L 218.67641 162.180636 
L 225.650571 161.728556 
L 231.4 160.851654 
" clip-path="url(#pd6650ae332)" style="fill: none; stroke: #555555; stroke-width: 1.5; stroke-linecap: square"/>
   <path d="M -1 218.162885 
L 50.860003 218.162885 
L 57.834184 216.882001 
L 61.321284 214.621608 
L 63.500705 211.004992 
L 66.116025 206.032145 
L 68.295485 200.381171 
L 70.039006 194.956242 
L 71.346666 189.531314 
L 73.090226 183.88035 
L 74.397886 178.003341 
L 75.705547 172.578412 
L 77.449107 166.701414 
L 78.756767 161.728556 
L 80.500287 156.077592 
L 82.679748 150.652663 
L 84.859168 145.227735 
L 87.038589 140.028842 
L 93.57689 136.638262 
L 98.80753 137.994494 
L 104.038171 141.61112 
L 109.704712 145.905851 
L 115.807113 150.200583 
L 121.473654 153.139092 
L 126.704295 154.947395 
L 132.806696 155.173441 
L 138.909137 152.460976 
L 144.575638 149.070396 
L 149.806279 149.522467 
L 155.472819 153.365128 
L 160.70346 157.207789 
L 166.370001 160.372323 
L 171.600642 161.954601 
L 178.138943 162.406672 
L 184.241344 162.406672 
L 192.087305 162.632717 
L 198.625606 162.632717 
L 205.163907 162.632717 
L 211.702208 162.632717 
L 218.67641 162.180636 
L 225.650571 161.728556 
L 231.4 160.851654 
" clip-path="url(#pd6650ae332)" style="fill: none; stroke: #f1f1f1; stroke-width: 1.5; stroke-linecap: square"/>
   <path d="M -1 218.162885 
L 58.16871 218.162885 
L 64.35222 216.981458 
L 69.711274 209.892884 
L 74.245835 198.551166 
L 77.543714 187.209448 
L 80.429345 176.340305 
L 83.727242 163.580872 
L 86.612855 152.711723 
L 91.147454 141.370005 
L 96.918717 131.446002 
L 103.514474 127.192858 
L 109.285737 129.083142 
L 116.293702 132.863717 
L 124.950616 139.952291 
L 133.60753 147.513434 
L 142.264443 153.184293 
L 152.570306 158.855152 
L 162.051675 163.580872 
L 174.830941 166.416301 
L 183.487855 166.416301 
L 193.793717 164.998587 
L 204.511788 163.580872 
L 214.817651 161.218012 
L 225.123475 158.855152 
L 231.4 158.242796 
" clip-path="url(#pd6650ae332)" style="fill: none; stroke: #555555; stroke-width: 1.5; stroke-linecap: square"/>
   <path d="M -1 218.162885 
L 58.16871 218.162885 
L 64.35222 216.981458 
L 69.711274 209.892884 
L 74.245835 198.551166 
L 77.543714 187.209448 
L 80.429345 176.340305 
L 83.727242 163.580872 
L 86.612855 152.711723 
L 91.147454 141.370005 
L 96.918717 131.446002 
L 103.514474 127.192858 
L 109.285737 129.083142 
L 116.293702 132.863717 
L 124.950616 139.952291 
L 133.60753 147.513434 
L 142.264443 153.184293 
L 152.570306 158.855152 
L 162.051675 163.580872 
L 174.830941 166.416301 
L 183.487855 166.416301 
L 193.793717 164.998587 
L 204.511788 163.580872 
L 214.817651 161.218012 
L 225.123475 158.855152 
L 231.4 158.242796 
" clip-path="url(#pd6650ae332)" style="fill: none; stroke: #f1f1f1; stroke-width: 1.5; stroke-linecap: square"/>
   <path d="M -1 218.162885 
L 11.461581 218.162885 
L 37.312087 218.162885 
L 42.520487 218.162885 
L 49.107577 218.162885 
L 54.469164 217.450573 
L 59.371187 213.953777 
L 61.209446 211.363555 
L 62.434951 208.643825 
L 63.507269 206.312621 
L 64.426396 203.851909 
L 65.345529 201.132178 
L 66.264655 198.412447 
L 67.030596 195.822225 
L 67.796537 192.97298 
L 68.562478 190.641782 
L 69.328419 187.663028 
L 70.09436 184.943292 
L 71.166679 181.576006 
L 71.932619 178.467738 
L 72.851746 175.618493 
L 73.924065 171.603651 
L 74.690006 169.01343 
L 75.609138 166.164185 
L 76.681451 163.31494 
L 77.731425 160.325627 
L 79.285651 156.709876 
L 80.664347 153.731122 
L 82.196229 151.27041 
L 83.881297 148.8097 
L 85.872742 146.737522 
L 88.936512 144.924367 
L 92.000275 144.276812 
L 94.60447 144.276812 
L 97.055478 144.794856 
L 99.506499 145.442411 
L 101.651124 145.960455 
L 103.795761 146.867033 
L 105.787212 147.514589 
L 108.085035 148.291656 
L 110.382858 149.068723 
L 112.68068 149.716278 
L 114.67212 150.234322 
L 116.816757 150.752366 
L 119.11458 151.011389 
L 121.565588 151.27041 
L 123.710225 151.27041 
L 126.008048 151.27041 
L 128.305871 151.27041 
L 130.756879 150.881878 
L 133.2079 150.363834 
L 135.505722 149.845787 
L 137.803545 149.327744 
L 139.94817 148.680188 
L 141.786436 148.162144 
L 143.931073 147.773612 
L 146.382081 147.773612 
L 148.679904 148.291656 
L 150.824541 149.198232 
L 152.662795 150.234322 
L 154.347862 151.529433 
L 156.03293 152.954053 
L 157.717999 154.249164 
L 159.556263 155.803298 
L 161.700901 157.098409 
L 163.692339 158.523034 
L 165.836978 159.68863 
L 167.828429 160.4657 
L 169.819867 161.113255 
L 172.270877 161.631297 
L 174.875083 161.89032 
L 177.479277 162.019829 
L 180.083482 161.89032 
L 182.840864 161.89032 
L 185.138697 162.019829 
L 187.589695 162.019829 
L 189.734343 162.278852 
L 192.338537 162.408366 
L 195.095919 162.796898 
L 197.240554 163.055922 
L 199.538377 163.31494 
L 201.8362 163.573963 
L 203.980849 163.832986 
L 206.278671 164.092009 
L 208.72967 164.221518 
L 210.874317 164.351032 
L 213.478511 164.480542 
L 216.082706 164.351032 
L 218.686902 164.221518 
L 221.59749 163.962495 
L 224.35486 163.573963 
L 227.09018 163.269084 
L 229.869644 162.796898 
L 231.4 162.470571 
" clip-path="url(#pd6650ae332)" style="fill: none; stroke: #555555; stroke-width: 1.5; stroke-linecap: square"/>
   <path d="M -1 218.162885 
L 11.461581 218.162885 
L 37.312087 218.162885 
L 42.520487 218.162885 
L 49.107577 218.162885 
L 54.469164 217.450573 
L 59.371187 213.953777 
L 61.209446 211.363555 
L 62.434951 208.643825 
L 63.507269 206.312621 
L 64.426396 203.851909 
L 65.345529 201.132178 
L 66.264655 198.412447 
L 67.030596 195.822225 
L 67.796537 192.97298 
L 68.562478 190.641782 
L 69.328419 187.663028 
L 70.09436 184.943292 
L 71.166679 181.576006 
L 71.932619 178.467738 
L 72.851746 175.618493 
L 73.924065 171.603651 
L 74.690006 169.01343 
L 75.609138 166.164185 
L 76.681451 163.31494 
L 77.731425 160.325627 
L 79.285651 156.709876 
L 80.664347 153.731122 
L 82.196229 151.27041 
L 83.881297 148.8097 
L 85.872742 146.737522 
L 88.936512 144.924367 
L 92.000275 144.276812 
L 94.60447 144.276812 
L 97.055478 144.794856 
L 99.506499 145.442411 
L 101.651124 145.960455 
L 103.795761 146.867033 
L 105.787212 147.514589 
L 108.085035 148.291656 
L 110.382858 149.068723 
L 112.68068 149.716278 
L 114.67212 150.234322 
L 116.816757 150.752366 
L 119.11458 151.011389 
L 121.565588 151.27041 
L 123.710225 151.27041 
L 126.008048 151.27041 
L 128.305871 151.27041 
L 130.756879 150.881878 
L 133.2079 150.363834 
L 135.505722 149.845787 
L 137.803545 149.327744 
L 139.94817 148.680188 
L 141.786436 148.162144 
L 143.931073 147.773612 
L 146.382081 147.773612 
L 148.679904 148.291656 
L 150.824541 149.198232 
L 152.662795 150.234322 
L 154.347862 151.529433 
L 156.03293 152.954053 
L 157.717999 154.249164 
L 159.556263 155.803298 
L 161.700901 157.098409 
L 163.692339 158.523034 
L 165.836978 159.68863 
L 167.828429 160.4657 
L 169.819867 161.113255 
L 172.270877 161.631297 
L 174.875083 161.89032 
L 177.479277 162.019829 
L 180.083482 161.89032 
L 182.840864 161.89032 
L 185.138697 162.019829 
L 187.589695 162.019829 
L 189.734343 162.278852 
L 192.338537 162.408366 
L 195.095919 162.796898 
L 197.240554 163.055922 
L 199.538377 163.31494 
L 201.8362 163.573963 
L 203.980849 163.832986 
L 206.278671 164.092009 
L 208.72967 164.221518 
L 210.874317 164.351032 
L 213.478511 164.480542 
L 216.082706 164.351032 
L 218.686902 164.221518 
L 221.59749 163.962495 
L 224.35486 163.573963 
L 227.09018 163.269084 
L 229.869644 162.796898 
L 231.4 162.470571 
" clip-path="url(#pd6650ae332)" style="fill: none; stroke: #f1f1f1; stroke-width: 1.5; stroke-linecap: square"/>
   <g id="line2d_20">
    <path d="M -1 218.162885 
L 1.087185 218.162885 
L 4.410821 218.162885 
L 7.734458 218.162885 
L 11.058094 218.162885 
L 14.381731 218.162885 
L 17.705367 218.162885 
L 21.029004 218.162885 
L 24.35264 218.162885 
L 27.676277 218.162885 
L 30.999914 218.151067 
L 34.32355 218.119721 
L 37.647187 217.939164 
L 40.970823 217.761021 
L 44.29446 216.932359 
L 47.618096 215.186871 
L 50.941733 211.98397 
L 54.265369 206.573667 
L 57.589006 198.031447 
L 60.912642 188.596539 
L 64.236279 179.990237 
L 67.559915 169.429396 
L 70.883552 161.082675 
L 74.207188 154.588541 
L 77.530825 150.892261 
L 80.854462 149.09314 
L 84.178098 148.586189 
L 87.501735 148.724577 
L 90.825371 149.642971 
L 94.149008 152.630875 
L 97.472644 153.4821 
L 100.796281 154.424439 
L 104.119917 155.742617 
L 107.443554 157.828099 
L 110.76719 158.10331 
L 114.090827 157.740901 
L 117.414463 158.389952 
L 120.7381 158.953064 
L 124.061736 157.548723 
L 127.385373 157.309863 
L 130.709009 156.174312 
L 134.032646 154.149701 
L 137.356283 152.310721 
L 140.679919 151.454411 
L 144.003556 150.94298 
L 147.327192 150.166782 
L 150.650829 151.281101 
L 153.974465 152.114977 
L 157.298102 153.714705 
L 160.621738 155.474479 
L 163.945375 155.931354 
L 167.269011 156.447269 
L 170.592648 157.418451 
L 173.916284 157.66206 
L 177.239921 157.935877 
L 180.563557 158.364411 
L 183.887194 158.983093 
L 187.210831 159.301457 
L 190.534467 159.956607 
L 193.858104 159.78505 
L 197.18174 159.452758 
L 200.505377 160.499749 
L 203.829013 160.729062 
L 207.15265 160.416099 
L 210.476286 160.547941 
L 213.799923 160.34026 
L 217.123559 160.306565 
L 220.447196 160.29573 
L 223.770832 160.506834 
" clip-path="url(#pd6650ae332)" style="fill: none; stroke: #61bfa3; stroke-width: 1.5; stroke-linecap: square"/>
   </g>
   <g id="line2d_21">
    <path d="M -1 218.162885 
L 46.200943 218.162885 
L 54.357122 217.614654 
L 59.964468 212.406503 
L 62.513277 207.198352 
L 65.062085 201.71608 
L 66.591366 195.959698 
L 68.630399 190.203316 
L 70.159679 184.721043 
L 71.68896 179.238783 
L 73.727993 173.482401 
L 75.767049 168.000128 
L 77.806082 162.243746 
L 80.354891 156.761474 
L 82.903676 151.553323 
L 86.981765 145.796941 
L 91.059855 142.233471 
L 95.647696 139.76645 
L 98.706257 138.669988 
L 104.313604 139.76645 
L 112.469782 142.781689 
L 121.13569 147.167512 
L 129.291868 150.456873 
L 136.938271 153.746234 
L 144.074898 156.487364 
L 150.701796 158.954385 
L 158.348198 162.517856 
L 168.543386 164.436658 
L 178.228845 164.162536 
L 187.914304 162.517856 
L 197.089988 160.599066 
L 205.755895 159.776726 
L 215.951083 158.954385 
L 226.146318 158.406154 
L 231.4 158.651814 
" clip-path="url(#pd6650ae332)" style="fill: none; stroke-dasharray: 7.5,6; stroke-dashoffset: 0; stroke: #555555; stroke-width: 1.5"/>
   </g>
   <g id="matplotlib.axis_3">
    <g id="xtick_8">
     <g id="line2d_22">
      <g>
       <use xlink:href="#m633eeb1eeb" x="26.014459" y="218.162885" style="fill: #c2c1c1; stroke: #c2c1c1; stroke-width: 0.8"/>
      </g>
     </g>
    </g>
    <g id="xtick_9">
     <g id="line2d_23">
      <g>
       <use xlink:href="#m633eeb1eeb" x="59.250824" y="218.162885" style="fill: #c2c1c1; stroke: #c2c1c1; stroke-width: 0.8"/>
      </g>
     </g>
    </g>
    <g id="xtick_10">
     <g id="line2d_24">
      <g>
       <use xlink:href="#m633eeb1eeb" x="92.487189" y="218.162885" style="fill: #c2c1c1; stroke: #c2c1c1; stroke-width: 0.8"/>
      </g>
     </g>
    </g>
    <g id="xtick_11">
     <g id="line2d_25">
      <g>
       <use xlink:href="#m633eeb1eeb" x="125.723555" y="218.162885" style="fill: #c2c1c1; stroke: #c2c1c1; stroke-width: 0.8"/>
      </g>
     </g>
    </g>
    <g id="xtick_12">
     <g id="line2d_26">
      <g>
       <use xlink:href="#m633eeb1eeb" x="158.95992" y="218.162885" style="fill: #c2c1c1; stroke: #c2c1c1; stroke-width: 0.8"/>
      </g>
     </g>
    </g>
    <g id="xtick_13">
     <g id="line2d_27">
      <g>
       <use xlink:href="#m633eeb1eeb" x="192.196285" y="218.162885" style="fill: #c2c1c1; stroke: #c2c1c1; stroke-width: 0.8"/>
      </g>
     </g>
    </g>
    <g id="xtick_14">
     <g id="line2d_28">
      <g>
       <use xlink:href="#m633eeb1eeb" x="225.432651" y="218.162885" style="fill: #c2c1c1; stroke: #c2c1c1; stroke-width: 0.8"/>
      </g>
     </g>
    </g>
   </g>
   <g id="matplotlib.axis_4">
    <g id="ytick_7">
     <g id="line2d_29">
      <g>
       <use xlink:href="#m45295fc7ca" x="26.014459" y="218.162885" style="fill: #c2c1c1; stroke: #c2c1c1; stroke-width: 0.8"/>
      </g>
     </g>
     <g id="text_9">
      <!-- 0 -->
      <g style="fill: #191919" transform="translate(15.08024 220.787885)scale(0.07 -0.07)">
       <use xlink:href="#Roboto-Regular-30"/>
      </g>
     </g>
    </g>
    <g id="ytick_8">
     <g id="line2d_30">
      <g>
       <use xlink:href="#m45295fc7ca" x="26.014459" y="159.09144" style="fill: #c2c1c1; stroke: #c2c1c1; stroke-width: 0.8"/>
      </g>
     </g>
     <g id="text_10">
      <!-- 1 -->
      <g style="fill: #191919" transform="translate(15.08024 161.71644)scale(0.07 -0.07)">
       <use xlink:href="#Roboto-Regular-31"/>
      </g>
     </g>
    </g>
    <g id="ytick_9">
     <g id="line2d_31">
      <g>
       <use xlink:href="#m4897f44303" x="26.014459" y="188.627162" style="fill: #c2c1c1; stroke: #c2c1c1; stroke-width: 0.6"/>
      </g>
     </g>
    </g>
    <g id="ytick_10">
     <g id="line2d_32">
      <g>
       <use xlink:href="#m4897f44303" x="26.014459" y="129.555717" style="fill: #c2c1c1; stroke: #c2c1c1; stroke-width: 0.6"/>
      </g>
     </g>
    </g>
    <g id="text_11">
     <!-- g$\mathregular{_{NN}}$(r) -->
     <g style="fill: #191919" transform="translate(9.32024 177.604063)rotate(-90)scale(0.08 -0.08)">
      <defs>
       <path id="Roboto-Black-4e" d="M 4147 4550 
L 4147 0 
L 3053 0 
L 1444 2831 
L 1444 0 
L 347 0 
L 347 4550 
L 1444 4550 
L 3053 1719 
L 3053 4550 
L 4147 4550 
z
" transform="scale(0.015625)"/>
      </defs>
      <use xlink:href="#Roboto-Black-67" transform="translate(0 0.578125)"/>
      <use xlink:href="#Roboto-Black-4e" transform="translate(58.492852 -15.270313)scale(0.7)"/>
      <use xlink:href="#Roboto-Black-4e" transform="translate(107.643242 -15.270313)scale(0.7)"/>
      <use xlink:href="#Roboto-Black-28" transform="translate(159.435039 0.578125)"/>
      <use xlink:href="#Roboto-Black-72" transform="translate(194.737773 0.578125)"/>
      <use xlink:href="#Roboto-Black-29" transform="translate(232.628398 0.578125)"/>
     </g>
    </g>
   </g>
   <g id="patch_8">
    <path d="M 26.014459 218.162885 
L 26.014459 115.60524 
" style="fill: none; stroke: #c2c1c1; stroke-width: 0.8; stroke-linejoin: miter; stroke-linecap: square"/>
   </g>
   <g id="patch_9">
    <path d="M 225.432651 218.162885 
L 225.432651 115.60524 
" style="fill: none; stroke: #c2c1c1; stroke-width: 0.8; stroke-linejoin: miter; stroke-linecap: square"/>
   </g>
   <g id="patch_10">
    <path d="M 26.014459 218.162885 
L 225.432651 218.162885 
" style="fill: none; stroke: #c2c1c1; stroke-width: 0.8; stroke-linejoin: miter; stroke-linecap: square"/>
   </g>
   <g id="patch_11">
    <path d="M 26.014459 115.60524 
L 225.432651 115.60524 
" style="fill: none; stroke: #c2c1c1; stroke-width: 0.8; stroke-linejoin: miter; stroke-linecap: square"/>
   </g>
   <g id="text_12">
    <!-- B -->
    <g transform="translate(30.002823 125.861005)scale(0.096 -0.096)">
     <defs>
      <path id="Roboto-Bold-42" d="M 3788 1341 
Q 3788 684 3369 345 
Q 2950 6 2175 0 
L 406 0 
L 406 4550 
L 2003 4550 
Q 2794 4550 3241 4247 
Q 3688 3944 3688 3306 
Q 3688 2997 3531 2737 
Q 3375 2478 3038 2344 
Q 3438 2244 3613 1956 
Q 3788 1669 3788 1341 
z
M 1347 3791 
L 1347 2647 
L 2003 2647 
Q 2747 2647 2747 3209 
Q 2747 3778 2034 3791 
L 1347 3791 
z
M 2850 1350 
Q 2850 1963 2231 1984 
L 1347 1984 
L 1347 756 
L 2147 756 
Q 2506 756 2678 925 
Q 2850 1094 2850 1350 
z
" transform="scale(0.015625)"/>
     </defs>
     <use xlink:href="#Roboto-Bold-42"/>
    </g>
   </g>
   <g id="text_13">
    <!-- MeCN -->
    <g transform="translate(199.508286 125.861005)scale(0.08 -0.08)">
     <defs>
      <path id="Roboto-Regular-43" d="M 3275 1447 
L 3875 1447 
Q 3806 800 3387 368 
Q 2969 -63 2150 -63 
Q 1356 -63 870 504 
Q 384 1072 375 2013 
L 375 2500 
Q 375 3456 867 4034 
Q 1359 4613 2203 4613 
Q 2975 4613 3390 4188 
Q 3806 3763 3875 3091 
L 3275 3091 
Q 3206 3566 2968 3842 
Q 2731 4119 2203 4119 
Q 1600 4119 1287 3675 
Q 975 3231 975 2506 
L 975 2047 
Q 975 1375 1259 901 
Q 1544 428 2150 428 
Q 2725 428 2961 697 
Q 3197 966 3275 1447 
z
" transform="scale(0.015625)"/>
      <path id="Roboto-Regular-4e" d="M 4028 4550 
L 4028 0 
L 3422 0 
L 1131 3509 
L 1131 0 
L 528 0 
L 528 4550 
L 1131 4550 
L 3431 1031 
L 3431 4550 
L 4028 4550 
z
" transform="scale(0.015625)"/>
     </defs>
     <use xlink:href="#Roboto-Regular-4d"/>
     <use xlink:href="#Roboto-Regular-65" x="87.304688"/>
     <use xlink:href="#Roboto-Regular-43" x="140.332031"/>
     <use xlink:href="#Roboto-Regular-4e" x="205.419922"/>
    </g>
   </g>
  </g>
  <g id="axes_3">
   <g id="patch_12">
    <path d="M 26.014459 330.767885 
L 225.432651 330.767885 
L 225.432651 228.21024 
L 26.014459 228.21024 
z
" style="fill: #ffffff"/>
   </g>
   <g id="line2d_33">
    <path d="M 26.014459 285.850931 
L 225.432651 285.850931 
" clip-path="url(#pcbbe14ad3d)" style="fill: none; stroke-dasharray: 1.5,6; stroke-dashoffset: 0; stroke: #c0c0c0; stroke-width: 1.5"/>
   </g>
   <g id="line2d_34">
    <path d="M -1 330.767885 
L 1.087185 330.767885 
L 4.410821 330.767885 
L 7.734458 330.767885 
L 11.058094 330.767885 
L 14.381731 330.767885 
L 17.705367 330.767885 
L 21.029004 330.767885 
L 24.35264 330.767885 
L 27.676277 330.767885 
L 30.999914 330.767885 
L 34.32355 330.767885 
L 37.647187 330.624617 
L 40.970823 328.036781 
L 44.29446 312.42999 
L 47.618096 278.070894 
L 50.941733 244.765226 
L 54.265369 233.093937 
L 57.589006 243.962826 
L 60.912642 260.006967 
L 64.236279 275.585277 
L 67.559915 286.165223 
L 70.883552 291.245253 
L 74.207188 294.857763 
L 77.530825 297.10007 
L 80.854462 297.367059 
L 84.178098 296.878886 
L 87.501735 296.372558 
L 90.825371 295.155659 
L 94.149008 292.905717 
L 97.472644 290.234151 
L 100.796281 287.948431 
L 104.119917 285.72768 
L 107.443554 284.182052 
L 110.76719 282.372744 
L 114.090827 282.267598 
L 117.414463 281.967045 
L 120.7381 282.966399 
L 124.061736 284.737993 
L 127.385373 286.084368 
L 130.709009 286.948091 
L 134.032646 287.774857 
L 137.356283 288.112825 
L 140.679919 288.844271 
L 144.003556 288.903194 
L 147.327192 288.316783 
L 150.650829 287.326903 
L 153.974465 287.681481 
L 157.298102 287.34761 
L 160.621738 286.615373 
L 163.945375 286.203709 
L 167.269011 286.261743 
L 170.592648 286.046362 
L 173.916284 285.855191 
L 177.239921 284.966331 
L 180.563557 285.173914 
L 183.887194 285.10777 
L 187.210831 284.26248 
L 190.534467 284.164592 
L 193.858104 283.588519 
L 197.18174 283.762363 
L 200.505377 283.84427 
L 203.829013 283.430649 
L 207.15265 283.769548 
L 210.476286 283.828621 
L 213.799923 284.298908 
L 217.123559 284.188627 
L 220.447196 284.45324 
L 223.770832 283.740548 
" clip-path="url(#pcbbe14ad3d)" style="fill: none; stroke: #ffb5ba; stroke-width: 1.5; stroke-linecap: square"/>
   </g>
   <g id="line2d_35">
    <path d="M -1 330.767885 
L 10.080657 330.767885 
L 32.542404 330.767885 
L 37.104946 330.226282 
L 39.5617 328.709793 
L 40.614594 325.893457 
L 41.667488 322.860479 
L 42.018453 319.394219 
L 42.720383 316.577883 
L 42.720383 313.544905 
L 43.071347 309.862003 
L 43.071347 305.74582 
L 43.422312 302.496201 
L 43.773277 298.813299 
L 44.124242 289.064443 
L 44.475207 285.381541 
L 44.826171 282.131922 
L 45.528101 278.449021 
L 45.879066 271.083218 
L 46.580995 268.05024 
L 46.93196 263.717415 
L 47.282925 259.38459 
L 47.63389 250.935581 
L 48.335819 247.469321 
L 48.686784 244.869626 
L 49.739678 242.26993 
L 51.143537 245.086267 
L 52.196432 247.252679 
L 52.898361 249.419092 
L 53.249326 251.585505 
L 53.951256 253.968558 
L 54.302221 256.351612 
L 55.00415 258.734666 
L 55.355115 261.334361 
L 55.70608 263.934056 
L 56.057045 266.750393 
L 56.408009 269.350088 
L 57.109939 271.733142 
L 57.811868 273.899554 
L 58.162833 276.499249 
L 59.215728 279.098945 
L 59.917657 281.69864 
L 60.970552 284.298335 
L 62.023446 287.331312 
L 63.07634 289.931008 
L 64.480199 292.314061 
L 66.235023 294.480474 
L 68.340812 295.996963 
L 70.797566 297.730093 
L 73.605284 299.463223 
L 76.413002 299.679864 
L 79.92265 299.463223 
L 83.081333 298.380017 
L 85.889051 296.646887 
L 88.69677 295.130398 
L 91.153523 294.047192 
L 93.610277 292.747344 
L 95.365101 290.797573 
L 97.119925 289.281084 
L 99.576678 287.547954 
L 102.033432 285.598182 
L 104.490185 283.43177 
L 106.946939 281.481998 
L 109.754657 279.532227 
L 113.264305 279.748868 
L 116.422988 280.398792 
L 119.932636 281.69864 
L 123.091319 282.781846 
L 125.197108 284.298335 
L 128.004826 285.381541 
L 131.163509 286.031465 
L 133.971227 286.464747 
L 138.182805 287.331312 
L 142.043417 287.764595 
L 145.90403 288.197878 
L 149.062713 288.197878 
L 152.221396 287.981236 
L 156.082009 287.981236 
L 159.591657 287.547954 
L 163.452269 287.331312 
L 166.610952 286.681389 
L 169.067706 286.464747 
L 171.875424 286.031465 
L 175.034107 285.598182 
L 178.543755 285.381541 
L 182.404368 285.1649 
L 185.212086 285.1649 
L 188.721734 285.1649 
L 191.178487 285.1649 
L 194.688135 284.948259 
L 197.846818 285.381541 
L 201.707431 285.598182 
L 205.217079 285.814824 
L 208.726727 285.814824 
L 211.88541 286.031465 
L 215.395058 286.464747 
L 219.606635 286.681389 
L 224.169177 286.89803 
L 229.082684 286.89803 
L 231.4 286.89803 
" clip-path="url(#pcbbe14ad3d)" style="fill: none; stroke-dasharray: 7.5,6; stroke-dashoffset: 0; stroke: #555555; stroke-width: 1.5"/>
   </g>
   <g id="matplotlib.axis_5">
    <g id="xtick_15">
     <g id="line2d_36">
      <g>
       <use xlink:href="#m633eeb1eeb" x="26.014459" y="330.767885" style="fill: #c2c1c1; stroke: #c2c1c1; stroke-width: 0.8"/>
      </g>
     </g>
     <g id="text_14">
      <!-- 2 -->
      <g style="fill: #191919" transform="translate(24.047349 343.017885)scale(0.07 -0.07)">
       <use xlink:href="#Roboto-Regular-32"/>
      </g>
     </g>
    </g>
    <g id="xtick_16">
     <g id="line2d_37">
      <g>
       <use xlink:href="#m633eeb1eeb" x="59.250824" y="330.767885" style="fill: #c2c1c1; stroke: #c2c1c1; stroke-width: 0.8"/>
      </g>
     </g>
     <g id="text_15">
      <!-- 3 -->
      <g style="fill: #191919" transform="translate(57.283715 343.017885)scale(0.07 -0.07)">
       <defs>
        <path id="Roboto-Regular-33" d="M 1222 2084 
L 1222 2559 
L 1647 2559 
Q 2094 2563 2312 2784 
Q 2531 3006 2531 3338 
Q 2531 4138 1738 4138 
Q 1369 4138 1141 3927 
Q 913 3716 913 3359 
L 334 3359 
Q 334 3881 720 4247 
Q 1106 4613 1738 4613 
Q 2353 4613 2733 4286 
Q 3113 3959 3113 3325 
Q 3113 3072 2942 2784 
Q 2772 2497 2397 2338 
Q 2850 2191 3015 1884 
Q 3181 1578 3181 1269 
Q 3181 631 2768 284 
Q 2356 -63 1741 -63 
Q 1147 -63 722 267 
Q 297 597 297 1203 
L 875 1203 
Q 875 844 1108 628 
Q 1341 413 1741 413 
Q 2138 413 2369 622 
Q 2600 831 2600 1256 
Q 2600 1681 2337 1882 
Q 2075 2084 1634 2084 
L 1222 2084 
z
" transform="scale(0.015625)"/>
       </defs>
       <use xlink:href="#Roboto-Regular-33"/>
      </g>
     </g>
    </g>
    <g id="xtick_17">
     <g id="line2d_38">
      <g>
       <use xlink:href="#m633eeb1eeb" x="92.487189" y="330.767885" style="fill: #c2c1c1; stroke: #c2c1c1; stroke-width: 0.8"/>
      </g>
     </g>
     <g id="text_16">
      <!-- 4 -->
      <g style="fill: #191919" transform="translate(90.52008 343.017885)scale(0.07 -0.07)">
       <defs>
        <path id="Roboto-Regular-34" d="M 166 1397 
L 2203 4550 
L 2819 4550 
L 2819 1531 
L 3453 1531 
L 3453 1056 
L 2819 1056 
L 2819 0 
L 2241 0 
L 2241 1056 
L 166 1056 
L 166 1397 
z
M 822 1531 
L 2241 1531 
L 2241 3766 
L 2169 3638 
L 822 1531 
z
" transform="scale(0.015625)"/>
       </defs>
       <use xlink:href="#Roboto-Regular-34"/>
      </g>
     </g>
    </g>
    <g id="xtick_18">
     <g id="line2d_39">
      <g>
       <use xlink:href="#m633eeb1eeb" x="125.723555" y="330.767885" style="fill: #c2c1c1; stroke: #c2c1c1; stroke-width: 0.8"/>
      </g>
     </g>
     <g id="text_17">
      <!-- 5 -->
      <g style="fill: #191919" transform="translate(123.756445 343.017885)scale(0.07 -0.07)">
       <defs>
        <path id="Roboto-Regular-35" d="M 1109 2166 
L 647 2284 
L 875 4550 
L 3209 4550 
L 3209 4016 
L 1366 4016 
L 1228 2778 
Q 1572 2975 1988 2975 
Q 2616 2975 2980 2561 
Q 3344 2147 3344 1450 
Q 3344 797 2987 367 
Q 2631 -63 1903 -63 
Q 1350 -63 947 248 
Q 544 559 481 1197 
L 1031 1197 
Q 1141 413 1903 413 
Q 2313 413 2538 691 
Q 2763 969 2763 1444 
Q 2763 1872 2527 2164 
Q 2291 2456 1853 2456 
Q 1563 2456 1413 2378 
Q 1263 2300 1109 2166 
z
" transform="scale(0.015625)"/>
       </defs>
       <use xlink:href="#Roboto-Regular-35"/>
      </g>
     </g>
    </g>
    <g id="xtick_19">
     <g id="line2d_40">
      <g>
       <use xlink:href="#m633eeb1eeb" x="158.95992" y="330.767885" style="fill: #c2c1c1; stroke: #c2c1c1; stroke-width: 0.8"/>
      </g>
     </g>
     <g id="text_18">
      <!-- 6 -->
      <g style="fill: #191919" transform="translate(156.992811 343.017885)scale(0.07 -0.07)">
       <defs>
        <path id="Roboto-Regular-36" d="M 3291 1484 
Q 3291 838 2930 387 
Q 2569 -63 1878 -63 
Q 1388 -63 1063 198 
Q 738 459 577 861 
Q 416 1263 416 1684 
L 416 1956 
Q 416 2597 595 3194 
Q 775 3791 1247 4173 
Q 1719 4556 2597 4556 
L 2647 4556 
L 2647 4066 
Q 2041 4066 1705 3853 
Q 1369 3641 1205 3302 
Q 1041 2963 1006 2575 
Q 1369 2984 1984 2984 
Q 2438 2984 2727 2765 
Q 3016 2547 3153 2201 
Q 3291 1856 3291 1484 
z
M 997 1666 
Q 997 1059 1267 737 
Q 1538 416 1878 416 
Q 2278 416 2498 708 
Q 2719 1000 2719 1456 
Q 2719 1863 2516 2184 
Q 2313 2506 1891 2506 
Q 1588 2506 1341 2325 
Q 1094 2144 997 1884 
L 997 1666 
z
" transform="scale(0.015625)"/>
       </defs>
       <use xlink:href="#Roboto-Regular-36"/>
      </g>
     </g>
    </g>
    <g id="xtick_20">
     <g id="line2d_41">
      <g>
       <use xlink:href="#m633eeb1eeb" x="192.196285" y="330.767885" style="fill: #c2c1c1; stroke: #c2c1c1; stroke-width: 0.8"/>
      </g>
     </g>
     <g id="text_19">
      <!-- 7 -->
      <g style="fill: #191919" transform="translate(190.229176 343.017885)scale(0.07 -0.07)">
       <defs>
        <path id="Roboto-Regular-37" d="M 3319 4550 
L 3319 4225 
L 1434 0 
L 825 0 
L 2706 4075 
L 244 4075 
L 244 4550 
L 3319 4550 
z
" transform="scale(0.015625)"/>
       </defs>
       <use xlink:href="#Roboto-Regular-37"/>
      </g>
     </g>
    </g>
    <g id="xtick_21">
     <g id="line2d_42">
      <g>
       <use xlink:href="#m633eeb1eeb" x="225.432651" y="330.767885" style="fill: #c2c1c1; stroke: #c2c1c1; stroke-width: 0.8"/>
      </g>
     </g>
     <g id="text_20">
      <!-- 8 -->
      <g style="fill: #191919" transform="translate(223.465541 343.017885)scale(0.07 -0.07)">
       <defs>
        <path id="Roboto-Regular-38" d="M 3244 1231 
Q 3244 606 2826 271 
Q 2409 -63 1796 -63 
Q 1184 -63 767 271 
Q 350 606 350 1231 
Q 350 1613 554 1905 
Q 759 2197 1109 2347 
Q 806 2494 629 2762 
Q 453 3031 453 3366 
Q 453 3963 833 4288 
Q 1213 4613 1794 4613 
Q 2378 4613 2758 4288 
Q 3138 3963 3138 3366 
Q 3138 3028 2956 2761 
Q 2775 2494 2472 2347 
Q 2825 2197 3034 1903 
Q 3244 1609 3244 1231 
z
M 2559 3356 
Q 2559 3697 2346 3917 
Q 2134 4138 1793 4138 
Q 1453 4138 1243 3927 
Q 1034 3716 1034 3356 
Q 1034 3003 1243 2790 
Q 1453 2578 1797 2578 
Q 2138 2578 2348 2790 
Q 2559 3003 2559 3356 
z
M 2663 1244 
Q 2663 1625 2420 1865 
Q 2178 2106 1791 2106 
Q 1394 2106 1161 1865 
Q 928 1625 928 1244 
Q 928 850 1161 631 
Q 1394 413 1797 413 
Q 2200 413 2431 631 
Q 2663 850 2663 1244 
z
" transform="scale(0.015625)"/>
       </defs>
       <use xlink:href="#Roboto-Regular-38"/>
      </g>
     </g>
    </g>
    <g id="text_21">
     <!-- r $\left( \mathbf{\AA} \right)$ -->
     <g style="fill: #191919" transform="translate(116.963555 355.37476)scale(0.08 -0.08)">
      <defs>
       <path id="Roboto-Black-20" transform="scale(0.015625)"/>
       <path id="DejaVuSans-28" d="M 1984 4856 
Q 1566 4138 1362 3434 
Q 1159 2731 1159 2009 
Q 1159 1288 1364 580 
Q 1569 -128 1984 -844 
L 1484 -844 
Q 1016 -109 783 600 
Q 550 1309 550 2009 
Q 550 2706 781 3412 
Q 1013 4119 1484 4856 
L 1984 4856 
z
" transform="scale(0.015625)"/>
       <path id="DejaVuSans-Bold-c5" d="M 3225 4575 
L 4922 0 
L 3713 0 
L 3419 850 
L 1538 850 
L 1241 0 
L 31 0 
L 1728 4575 
Q 1656 4681 1622 4798 
Q 1588 4916 1588 5050 
Q 1588 5416 1848 5678 
Q 2109 5941 2478 5941 
Q 2841 5941 3103 5678 
Q 3366 5416 3366 5050 
Q 3366 4903 3331 4784 
Q 3297 4666 3225 4575 
z
M 2069 5050 
Q 2069 4881 2189 4761 
Q 2309 4641 2478 4641 
Q 2647 4641 2767 4761 
Q 2888 4881 2888 5050 
Q 2888 5219 2766 5339 
Q 2644 5459 2478 5459 
Q 2309 5459 2189 5339 
Q 2069 5219 2069 5050 
z
M 1838 1716 
L 3116 1716 
L 2478 3572 
L 1838 1716 
z
" transform="scale(0.015625)"/>
       <path id="DejaVuSans-29" d="M 513 4856 
L 1013 4856 
Q 1481 4119 1714 3412 
Q 1947 2706 1947 2009 
Q 1947 1309 1714 600 
Q 1481 -109 1013 -844 
L 513 -844 
Q 928 -128 1133 580 
Q 1338 1288 1338 2009 
Q 1338 2731 1133 3434 
Q 928 4138 513 4856 
z
" transform="scale(0.015625)"/>
      </defs>
      <use xlink:href="#Roboto-Black-72" transform="translate(0 0.171875)"/>
      <use xlink:href="#Roboto-Black-20" transform="translate(37.890625 0.171875)"/>
      <use xlink:href="#DejaVuSans-28" transform="translate(62.792969 0.171875)"/>
      <use xlink:href="#DejaVuSans-Bold-c5" transform="translate(101.806641 0.171875)"/>
      <use xlink:href="#DejaVuSans-29" transform="translate(179.199219 0.171875)"/>
     </g>
    </g>
   </g>
   <g id="matplotlib.axis_6">
    <g id="ytick_11">
     <g id="line2d_43">
      <g>
       <use xlink:href="#m45295fc7ca" x="26.014459" y="330.767885" style="fill: #c2c1c1; stroke: #c2c1c1; stroke-width: 0.8"/>
      </g>
     </g>
     <g id="text_22">
      <!-- 0 -->
      <g style="fill: #191919" transform="translate(15.08024 333.392885)scale(0.07 -0.07)">
       <use xlink:href="#Roboto-Regular-30"/>
      </g>
     </g>
    </g>
    <g id="ytick_12">
     <g id="line2d_44">
      <g>
       <use xlink:href="#m45295fc7ca" x="26.014459" y="285.850931" style="fill: #c2c1c1; stroke: #c2c1c1; stroke-width: 0.8"/>
      </g>
     </g>
     <g id="text_23">
      <!-- 1 -->
      <g style="fill: #191919" transform="translate(15.08024 288.475931)scale(0.07 -0.07)">
       <use xlink:href="#Roboto-Regular-31"/>
      </g>
     </g>
    </g>
    <g id="ytick_13">
     <g id="line2d_45">
      <g>
       <use xlink:href="#m45295fc7ca" x="26.014459" y="240.933976" style="fill: #c2c1c1; stroke: #c2c1c1; stroke-width: 0.8"/>
      </g>
     </g>
     <g id="text_24">
      <!-- 2 -->
      <g style="fill: #191919" transform="translate(15.08024 243.558976)scale(0.07 -0.07)">
       <use xlink:href="#Roboto-Regular-32"/>
      </g>
     </g>
    </g>
    <g id="ytick_14">
     <g id="line2d_46">
      <g>
       <use xlink:href="#m4897f44303" x="26.014459" y="308.309408" style="fill: #c2c1c1; stroke: #c2c1c1; stroke-width: 0.6"/>
      </g>
     </g>
    </g>
    <g id="ytick_15">
     <g id="line2d_47">
      <g>
       <use xlink:href="#m4897f44303" x="26.014459" y="263.392453" style="fill: #c2c1c1; stroke: #c2c1c1; stroke-width: 0.6"/>
      </g>
     </g>
    </g>
    <g id="text_25">
     <!-- g$\mathregular{_{OO}}$(r) -->
     <g style="fill: #191919" transform="translate(9.32024 290.169062)rotate(-90)scale(0.08 -0.08)">
      <use xlink:href="#Roboto-Black-67" transform="translate(0 0.578125)"/>
      <use xlink:href="#Roboto-Black-4f" transform="translate(58.492852 -15.270313)scale(0.7)"/>
      <use xlink:href="#Roboto-Black-4f" transform="translate(106.82293 -15.270313)scale(0.7)"/>
      <use xlink:href="#Roboto-Black-28" transform="translate(157.794414 0.578125)"/>
      <use xlink:href="#Roboto-Black-72" transform="translate(193.097148 0.578125)"/>
      <use xlink:href="#Roboto-Black-29" transform="translate(230.987773 0.578125)"/>
     </g>
    </g>
   </g>
   <g id="patch_13">
    <path d="M 26.014459 330.767885 
L 26.014459 228.21024 
" style="fill: none; stroke: #c2c1c1; stroke-width: 0.8; stroke-linejoin: miter; stroke-linecap: square"/>
   </g>
   <g id="patch_14">
    <path d="M 225.432651 330.767885 
L 225.432651 228.21024 
" style="fill: none; stroke: #c2c1c1; stroke-width: 0.8; stroke-linejoin: miter; stroke-linecap: square"/>
   </g>
   <g id="patch_15">
    <path d="M 26.014459 330.767885 
L 225.432651 330.767885 
" style="fill: none; stroke: #c2c1c1; stroke-width: 0.8; stroke-linejoin: miter; stroke-linecap: square"/>
   </g>
   <g id="patch_16">
    <path d="M 26.014459 228.21024 
L 225.432651 228.21024 
" style="fill: none; stroke: #c2c1c1; stroke-width: 0.8; stroke-linejoin: miter; stroke-linecap: square"/>
   </g>
   <g id="text_26">
    <!-- C -->
    <g transform="translate(30.002823 238.466004)scale(0.096 -0.096)">
     <defs>
      <path id="Roboto-Bold-43" d="M 3044 1516 
L 3981 1516 
Q 3934 822 3461 379 
Q 2988 -63 2150 -63 
Q 1275 -63 772 526 
Q 269 1116 269 2125 
L 269 2422 
Q 269 3431 784 4023 
Q 1300 4616 2159 4616 
Q 3013 4616 3466 4161 
Q 3919 3706 3984 3006 
L 3047 3006 
Q 3016 3413 2820 3630 
Q 2625 3847 2159 3847 
Q 1247 3847 1222 2500 
L 1222 2125 
Q 1222 1419 1436 1062 
Q 1650 706 2150 706 
Q 2594 706 2801 907 
Q 3009 1109 3044 1516 
z
" transform="scale(0.015625)"/>
     </defs>
     <use xlink:href="#Roboto-Bold-43"/>
    </g>
   </g>
   <g id="text_27">
    <!-- MeOH -->
    <g transform="translate(199.508286 238.466004)scale(0.08 -0.08)">
     <use xlink:href="#Roboto-Regular-4d"/>
     <use xlink:href="#Roboto-Regular-65" x="87.304688"/>
     <use xlink:href="#Roboto-Regular-4f" x="140.332031"/>
     <use xlink:href="#Roboto-Regular-48" x="209.130859"/>
    </g>
   </g>
  </g>
 </g>
 <defs>
  <clipPath id="p98721f15f7">
   <rect x="26.014459" y="3.00024" width="199.418192" height="102.557645"/>
  </clipPath>
  <clipPath id="pd6650ae332">
   <rect x="26.014459" y="115.60524" width="199.418192" height="102.557645"/>
  </clipPath>
  <clipPath id="pcbbe14ad3d">
   <rect x="26.014459" y="228.21024" width="199.418192" height="102.557645"/>
  </clipPath>
 </defs>
</svg>
