<?xml version="1.0" encoding="utf-8" standalone="no"?>
<!DOCTYPE svg PUBLIC "-//W3C//DTD SVG 1.1//EN"
  "http://www.w3.org/Graphics/SVG/1.1/DTD/svg11.dtd">
<svg xmlns:xlink="http://www.w3.org/1999/xlink" width="230.4pt" height="432pt" viewBox="0 0 230.4 432" xmlns="http://www.w3.org/2000/svg" version="1.1">
 <metadata>
  <rdf:RDF xmlns:dc="http://purl.org/dc/elements/1.1/" xmlns:cc="http://creativecommons.org/ns#" xmlns:rdf="http://www.w3.org/1999/02/22-rdf-syntax-ns#">
   <cc:Work>
    <dc:type rdf:resource="http://purl.org/dc/dcmitype/StillImage"/>
    <dc:date>2022-09-27T20:43:28.917355</dc:date>
    <dc:format>image/svg+xml</dc:format>
    <dc:creator>
     <cc:Agent>
      <dc:title>Matplotlib v3.5.1, https://matplotlib.org/</dc:title>
     </cc:Agent>
    </dc:creator>
   </cc:Work>
  </rdf:RDF>
 </metadata>
 <defs>
  <style type="text/css">*{stroke-linejoin: round; stroke-linecap: butt}</style>
 </defs>
 <g id="figure_1">
  <g id="patch_1">
   <path d="M 0 432 
L 230.4 432 
L 230.4 0 
L 0 0 
z
" style="fill: #ffffff"/>
  </g>
  <g id="axes_1">
   <g id="patch_2">
    <path d="M 30.06274 126.961739 
L 224.21851 126.961739 
L 224.21851 3.00024 
L 30.06274 3.00024 
z
" style="fill: #ffffff"/>
   </g>
   <g id="line2d_1">
    <path d="M 30.06274 79.665675 
L 224.21851 79.665675 
" clip-path="url(#p24c3348522)" style="fill: none; stroke-dasharray: 1.5,6; stroke-dashoffset: 0; stroke: #c0c0c0; stroke-width: 1.5"/>
   </g>
   <g id="line2d_2">
    <path d="M 31.276214 126.961739 
L 33.703161 126.961739 
L 36.130108 126.961739 
L 38.557055 126.961739 
L 40.984002 126.961739 
L 43.410949 126.961739 
L 45.837896 126.961739 
L 48.264843 126.961739 
L 50.691791 126.961739 
L 53.118738 126.961739 
L 55.545685 126.961739 
L 57.972632 126.961739 
L 60.399579 126.961739 
L 62.826526 126.961739 
L 65.253473 126.961739 
L 67.68042 126.961739 
L 70.107368 126.961739 
L 72.534315 126.961739 
L 74.961262 126.961739 
L 77.388209 126.961739 
L 79.815156 126.961739 
L 82.242103 126.961739 
L 84.66905 126.961739 
L 87.095997 126.900833 
L 89.522945 123.870581 
L 91.949892 98.585231 
L 94.376839 43.635312 
L 96.803786 8.903169 
L 99.230733 14.860137 
L 101.65768 40.811074 
L 104.084627 64.53437 
L 106.511574 78.51517 
L 108.938522 83.879986 
L 111.365469 85.879652 
L 113.792416 85.740062 
L 116.219363 84.905899 
L 118.64631 83.942817 
L 121.073257 82.88125 
L 123.500204 80.0879 
L 125.927151 78.507024 
L 128.354099 76.792216 
L 130.781046 76.147303 
L 133.207993 74.074365 
L 135.63494 74.712638 
L 138.061887 75.158731 
L 140.488834 74.52888 
L 142.915781 74.639384 
L 145.342728 74.841101 
L 147.769676 77.269011 
L 150.196623 78.230152 
L 152.62357 80.04981 
L 155.050517 82.108938 
L 157.477464 83.414734 
L 159.904411 85.179437 
L 162.331358 85.204487 
L 164.758305 84.956037 
L 167.185253 84.974393 
L 169.6122 84.088143 
L 172.039147 83.28079 
L 174.466094 82.743849 
L 176.893041 81.402239 
L 179.319988 79.920473 
L 181.746935 78.619128 
L 184.173882 78.103127 
L 186.60083 77.237009 
L 189.027777 76.126957 
L 191.454724 75.226887 
L 193.881671 75.480893 
L 196.308618 75.873944 
L 198.735565 75.934916 
L 201.162512 76.695741 
L 203.589459 77.249119 
L 206.016407 78.061265 
L 208.443354 79.030426 
L 210.870301 79.604895 
L 213.297248 79.908589 
L 215.724195 80.286008 
L 218.151142 80.264985 
L 220.578089 80.516451 
L 223.005036 80.216237 
" clip-path="url(#p24c3348522)" style="fill: none; stroke: #4abbf3; stroke-width: 1.5; stroke-linecap: square"/>
   </g>
   <g id="line2d_3">
    <path d="M 30.06274 126.961739 
L 86.853303 126.857688 
L 87.581387 126.46986 
L 88.309471 125.235433 
L 89.037555 122.293618 
L 89.765639 117.057943 
L 90.493723 109.353415 
L 91.221808 99.496915 
L 92.677976 74.940798 
L 94.862228 34.597256 
L 95.590312 23.686054 
L 96.318397 15.489646 
L 97.046481 10.594503 
L 97.774565 8.943871 
L 98.502649 10.386401 
L 99.230733 14.307244 
L 99.958817 20.233441 
L 101.414985 35.316156 
L 103.599238 58.363528 
L 105.055406 70.59902 
L 105.78349 75.394841 
L 106.511574 79.273118 
L 107.239659 82.347362 
L 107.967743 84.679058 
L 108.695827 86.395905 
L 109.423911 87.583036 
L 110.151995 88.349233 
L 110.880079 88.831652 
L 112.336248 89.10124 
L 113.792416 88.968811 
L 115.976668 88.268829 
L 118.160921 87.195209 
L 120.345173 85.667546 
L 121.801341 84.452037 
L 128.354099 78.473814 
L 131.266435 76.425895 
L 133.450688 75.271871 
L 135.63494 74.44419 
L 137.091108 74.070551 
L 139.275361 73.791504 
L 140.731529 73.796234 
L 142.915781 74.150954 
L 144.37195 74.623915 
L 146.556202 75.607673 
L 148.740454 76.946152 
L 151.652791 78.994071 
L 154.565128 81.075098 
L 157.477464 82.895996 
L 160.389801 84.239205 
L 162.574053 84.887161 
L 164.030221 85.118911 
L 165.48639 85.180396 
L 166.942558 85.066886 
L 169.12681 84.65068 
L 171.311063 83.927051 
L 174.223399 82.683164 
L 179.319988 80.318361 
L 182.960409 78.828535 
L 187.328914 77.542082 
L 190.24125 77.012366 
L 193.153587 76.785345 
L 195.337839 76.813723 
L 199.706344 77.315061 
L 206.259101 78.696106 
L 212.811859 80.048773 
L 216.452279 80.554841 
L 221.548868 80.81024 
L 225.189289 80.710918 
L 231.4 80.214531 
L 231.4 80.214531 
" clip-path="url(#p24c3348522)" style="fill: none; stroke-dasharray: 7.5,6; stroke-dashoffset: 0; stroke: #6c757d; stroke-width: 1.5"/>
   </g>
   <g id="matplotlib.axis_1">
    <g id="xtick_1">
     <g id="line2d_4">
      <defs>
       <path id="m32faee2796" d="M 0 0 
L 0 3.5 
" style="stroke: #000000; stroke-width: 0.8"/>
      </defs>
      <g>
       <use xlink:href="#m32faee2796" x="30.06274" y="126.961739" style="stroke: #000000; stroke-width: 0.8"/>
      </g>
     </g>
    </g>
    <g id="xtick_2">
     <g id="line2d_5">
      <g>
       <use xlink:href="#m32faee2796" x="78.601682" y="126.961739" style="stroke: #000000; stroke-width: 0.8"/>
      </g>
     </g>
    </g>
    <g id="xtick_3">
     <g id="line2d_6">
      <g>
       <use xlink:href="#m32faee2796" x="127.140625" y="126.961739" style="stroke: #000000; stroke-width: 0.8"/>
      </g>
     </g>
    </g>
    <g id="xtick_4">
     <g id="line2d_7">
      <g>
       <use xlink:href="#m32faee2796" x="175.679567" y="126.961739" style="stroke: #000000; stroke-width: 0.8"/>
      </g>
     </g>
    </g>
    <g id="xtick_5">
     <g id="line2d_8">
      <g>
       <use xlink:href="#m32faee2796" x="224.21851" y="126.961739" style="stroke: #000000; stroke-width: 0.8"/>
      </g>
     </g>
    </g>
   </g>
   <g id="matplotlib.axis_2">
    <g id="ytick_1">
     <g id="line2d_9">
      <defs>
       <path id="mcaf1c18d89" d="M 0 0 
L -3.5 0 
" style="stroke: #000000; stroke-width: 0.8"/>
      </defs>
      <g>
       <use xlink:href="#mcaf1c18d89" x="30.06274" y="126.961739" style="stroke: #000000; stroke-width: 0.8"/>
      </g>
     </g>
     <g id="text_1">
      <!-- 0 -->
      <g transform="translate(16.70024 130.760958)scale(0.1 -0.1)">
       <defs>
        <path id="DejaVuSans-30" d="M 2034 4250 
Q 1547 4250 1301 3770 
Q 1056 3291 1056 2328 
Q 1056 1369 1301 889 
Q 1547 409 2034 409 
Q 2525 409 2770 889 
Q 3016 1369 3016 2328 
Q 3016 3291 2770 3770 
Q 2525 4250 2034 4250 
z
M 2034 4750 
Q 2819 4750 3233 4129 
Q 3647 3509 3647 2328 
Q 3647 1150 3233 529 
Q 2819 -91 2034 -91 
Q 1250 -91 836 529 
Q 422 1150 422 2328 
Q 422 3509 836 4129 
Q 1250 4750 2034 4750 
z
" transform="scale(0.015625)"/>
       </defs>
       <use xlink:href="#DejaVuSans-30"/>
      </g>
     </g>
    </g>
    <g id="ytick_2">
     <g id="line2d_10">
      <g>
       <use xlink:href="#mcaf1c18d89" x="30.06274" y="79.665675" style="stroke: #000000; stroke-width: 0.8"/>
      </g>
     </g>
     <g id="text_2">
      <!-- 1 -->
      <g transform="translate(16.70024 83.464894)scale(0.1 -0.1)">
       <defs>
        <path id="DejaVuSans-31" d="M 794 531 
L 1825 531 
L 1825 4091 
L 703 3866 
L 703 4441 
L 1819 4666 
L 2450 4666 
L 2450 531 
L 3481 531 
L 3481 0 
L 794 0 
L 794 531 
z
" transform="scale(0.015625)"/>
       </defs>
       <use xlink:href="#DejaVuSans-31"/>
      </g>
     </g>
    </g>
    <g id="ytick_3">
     <g id="line2d_11">
      <g>
       <use xlink:href="#mcaf1c18d89" x="30.06274" y="32.369611" style="stroke: #000000; stroke-width: 0.8"/>
      </g>
     </g>
     <g id="text_3">
      <!-- 2 -->
      <g transform="translate(16.70024 36.16883)scale(0.1 -0.1)">
       <defs>
        <path id="DejaVuSans-32" d="M 1228 531 
L 3431 531 
L 3431 0 
L 469 0 
L 469 531 
Q 828 903 1448 1529 
Q 2069 2156 2228 2338 
Q 2531 2678 2651 2914 
Q 2772 3150 2772 3378 
Q 2772 3750 2511 3984 
Q 2250 4219 1831 4219 
Q 1534 4219 1204 4116 
Q 875 4013 500 3803 
L 500 4441 
Q 881 4594 1212 4672 
Q 1544 4750 1819 4750 
Q 2544 4750 2975 4387 
Q 3406 4025 3406 3419 
Q 3406 3131 3298 2873 
Q 3191 2616 2906 2266 
Q 2828 2175 2409 1742 
Q 1991 1309 1228 531 
z
" transform="scale(0.015625)"/>
       </defs>
       <use xlink:href="#DejaVuSans-32"/>
      </g>
     </g>
    </g>
    <g id="ytick_4">
     <g id="line2d_12">
      <defs>
       <path id="mda5cd29dad" d="M 0 0 
L -2 0 
" style="stroke: #000000; stroke-width: 0.6"/>
      </defs>
      <g>
       <use xlink:href="#mda5cd29dad" x="30.06274" y="103.313707" style="stroke: #000000; stroke-width: 0.6"/>
      </g>
     </g>
    </g>
    <g id="ytick_5">
     <g id="line2d_13">
      <g>
       <use xlink:href="#mda5cd29dad" x="30.06274" y="56.017643" style="stroke: #000000; stroke-width: 0.6"/>
      </g>
     </g>
    </g>
    <g id="ytick_6">
     <g id="line2d_14">
      <g>
       <use xlink:href="#mda5cd29dad" x="30.06274" y="8.721579" style="stroke: #000000; stroke-width: 0.6"/>
      </g>
     </g>
    </g>
    <g id="text_4">
     <!-- g$_{OO}$($r$) -->
     <g transform="translate(10.60024 79.83099)rotate(-90)scale(0.1 -0.1)">
      <defs>
       <path id="DejaVuSans-67" d="M 2906 1791 
Q 2906 2416 2648 2759 
Q 2391 3103 1925 3103 
Q 1463 3103 1205 2759 
Q 947 2416 947 1791 
Q 947 1169 1205 825 
Q 1463 481 1925 481 
Q 2391 481 2648 825 
Q 2906 1169 2906 1791 
z
M 3481 434 
Q 3481 -459 3084 -895 
Q 2688 -1331 1869 -1331 
Q 1566 -1331 1297 -1286 
Q 1028 -1241 775 -1147 
L 775 -588 
Q 1028 -725 1275 -790 
Q 1522 -856 1778 -856 
Q 2344 -856 2625 -561 
Q 2906 -266 2906 331 
L 2906 616 
Q 2728 306 2450 153 
Q 2172 0 1784 0 
Q 1141 0 747 490 
Q 353 981 353 1791 
Q 353 2603 747 3093 
Q 1141 3584 1784 3584 
Q 2172 3584 2450 3431 
Q 2728 3278 2906 2969 
L 2906 3500 
L 3481 3500 
L 3481 434 
z
" transform="scale(0.015625)"/>
       <path id="DejaVuSans-Oblique-4f" d="M 2919 4238 
Q 2400 4238 2003 3986 
Q 1606 3734 1313 3219 
Q 1125 2891 1026 2522 
Q 928 2153 928 1778 
Q 928 1128 1239 775 
Q 1550 422 2119 422 
Q 2631 422 3032 676 
Q 3434 931 3719 1434 
Q 3909 1772 4009 2142 
Q 4109 2513 4109 2881 
Q 4109 3528 3796 3883 
Q 3484 4238 2919 4238 
z
M 2100 -91 
Q 1241 -91 748 418 
Q 256 928 256 1813 
Q 256 2319 448 2847 
Q 641 3375 978 3788 
Q 1375 4272 1862 4511 
Q 2350 4750 2938 4750 
Q 3794 4750 4287 4245 
Q 4781 3741 4781 2869 
Q 4781 2331 4593 1812 
Q 4406 1294 4056 872 
Q 3656 384 3173 146 
Q 2691 -91 2100 -91 
z
" transform="scale(0.015625)"/>
       <path id="DejaVuSans-28" d="M 1984 4856 
Q 1566 4138 1362 3434 
Q 1159 2731 1159 2009 
Q 1159 1288 1364 580 
Q 1569 -128 1984 -844 
L 1484 -844 
Q 1016 -109 783 600 
Q 550 1309 550 2009 
Q 550 2706 781 3412 
Q 1013 4119 1484 4856 
L 1984 4856 
z
" transform="scale(0.015625)"/>
       <path id="DejaVuSans-Oblique-72" d="M 2853 2969 
Q 2766 3016 2653 3041 
Q 2541 3066 2413 3066 
Q 1953 3066 1609 2717 
Q 1266 2369 1153 1784 
L 800 0 
L 225 0 
L 909 3500 
L 1484 3500 
L 1375 2956 
Q 1603 3259 1920 3421 
Q 2238 3584 2597 3584 
Q 2691 3584 2781 3573 
Q 2872 3563 2963 3538 
L 2853 2969 
z
" transform="scale(0.015625)"/>
       <path id="DejaVuSans-29" d="M 513 4856 
L 1013 4856 
Q 1481 4119 1714 3412 
Q 1947 2706 1947 2009 
Q 1947 1309 1714 600 
Q 1481 -109 1013 -844 
L 513 -844 
Q 928 -128 1133 580 
Q 1338 1288 1338 2009 
Q 1338 2731 1133 3434 
Q 928 4138 513 4856 
z
" transform="scale(0.015625)"/>
      </defs>
      <use xlink:href="#DejaVuSans-67" transform="translate(0 0.125)"/>
      <use xlink:href="#DejaVuSans-Oblique-4f" transform="translate(64.433594 -16.28125)scale(0.7)"/>
      <use xlink:href="#DejaVuSans-Oblique-4f" transform="translate(119.53125 -16.28125)scale(0.7)"/>
      <use xlink:href="#DejaVuSans-28" transform="translate(177.363281 0.125)"/>
      <use xlink:href="#DejaVuSans-Oblique-72" transform="translate(216.376953 0.125)"/>
      <use xlink:href="#DejaVuSans-29" transform="translate(257.490234 0.125)"/>
     </g>
    </g>
   </g>
   <g id="patch_3">
    <path d="M 30.06274 126.961739 
L 30.06274 3.00024 
" style="fill: none; stroke: #000000; stroke-width: 0.8; stroke-linejoin: miter; stroke-linecap: square"/>
   </g>
   <g id="patch_4">
    <path d="M 224.21851 126.961739 
L 224.21851 3.00024 
" style="fill: none; stroke: #000000; stroke-width: 0.8; stroke-linejoin: miter; stroke-linecap: square"/>
   </g>
   <g id="patch_5">
    <path d="M 30.06274 126.961739 
L 224.21851 126.961739 
" style="fill: none; stroke: #000000; stroke-width: 0.8; stroke-linejoin: miter; stroke-linecap: square"/>
   </g>
   <g id="patch_6">
    <path d="M 30.06274 3.00024 
L 224.21851 3.00024 
" style="fill: none; stroke: #000000; stroke-width: 0.8; stroke-linejoin: miter; stroke-linecap: square"/>
   </g>
   <g id="text_5">
    <!-- A -->
    <g transform="translate(33.945855 15.39639)scale(0.12 -0.12)">
     <defs>
      <path id="DejaVuSans-Bold-41" d="M 3419 850 
L 1538 850 
L 1241 0 
L 31 0 
L 1759 4666 
L 3194 4666 
L 4922 0 
L 3713 0 
L 3419 850 
z
M 1838 1716 
L 3116 1716 
L 2478 3572 
L 1838 1716 
z
" transform="scale(0.015625)"/>
     </defs>
     <use xlink:href="#DejaVuSans-Bold-41"/>
    </g>
   </g>
   <g id="legend_1">
    <g id="line2d_15">
     <path d="M 166.91851 112.382052 
L 176.91851 112.382052 
L 186.91851 112.382052 
" style="fill: none; stroke: #4abbf3; stroke-width: 1.5; stroke-linecap: square"/>
    </g>
    <g id="text_6">
     <!-- H$_2$O -->
     <g transform="translate(194.91851 115.882052)scale(0.1 -0.1)">
      <defs>
       <path id="DejaVuSans-48" d="M 628 4666 
L 1259 4666 
L 1259 2753 
L 3553 2753 
L 3553 4666 
L 4184 4666 
L 4184 0 
L 3553 0 
L 3553 2222 
L 1259 2222 
L 1259 0 
L 628 0 
L 628 4666 
z
" transform="scale(0.015625)"/>
       <path id="DejaVuSans-4f" d="M 2522 4238 
Q 1834 4238 1429 3725 
Q 1025 3213 1025 2328 
Q 1025 1447 1429 934 
Q 1834 422 2522 422 
Q 3209 422 3611 934 
Q 4013 1447 4013 2328 
Q 4013 3213 3611 3725 
Q 3209 4238 2522 4238 
z
M 2522 4750 
Q 3503 4750 4090 4092 
Q 4678 3434 4678 2328 
Q 4678 1225 4090 567 
Q 3503 -91 2522 -91 
Q 1538 -91 948 565 
Q 359 1222 359 2328 
Q 359 3434 948 4092 
Q 1538 4750 2522 4750 
z
" transform="scale(0.015625)"/>
      </defs>
      <use xlink:href="#DejaVuSans-48" transform="translate(0 0.78125)"/>
      <use xlink:href="#DejaVuSans-32" transform="translate(76.152344 -15.625)scale(0.7)"/>
      <use xlink:href="#DejaVuSans-4f" transform="translate(123.422852 0.78125)"/>
     </g>
    </g>
   </g>
  </g>
  <g id="axes_2">
   <g id="patch_7">
    <path d="M 30.06274 262.802625 
L 224.21851 262.802625 
L 224.21851 138.841125 
L 30.06274 138.841125 
z
" style="fill: #ffffff"/>
   </g>
   <g id="line2d_16">
    <path d="M 30.06274 168.415549 
L 224.21851 168.415549 
" clip-path="url(#p8515bdec89)" style="fill: none; stroke-dasharray: 1.5,6; stroke-dashoffset: 0; stroke: #c0c0c0; stroke-width: 1.5"/>
   </g>
   <g id="line2d_17">
    <path d="M 31.276214 262.802625 
L 33.703161 262.802625 
L 36.130108 262.802625 
L 38.557055 262.802625 
L 40.984002 262.802625 
L 43.410949 262.802625 
L 45.837896 262.802625 
L 48.264843 262.802625 
L 50.691791 262.802625 
L 53.118738 262.802625 
L 55.545685 262.802625 
L 57.972632 262.802625 
L 60.399579 262.802625 
L 62.826526 262.802625 
L 65.253473 262.802625 
L 67.68042 262.802625 
L 70.107368 262.802625 
L 72.534315 262.802625 
L 74.961262 262.802625 
L 77.388209 262.802625 
L 79.815156 262.802625 
L 82.242103 262.783741 
L 84.66905 262.733654 
L 87.095997 262.445154 
L 89.522945 262.160508 
L 91.949892 260.836434 
L 94.376839 258.047413 
L 96.803786 252.929669 
L 99.230733 244.284839 
L 101.65768 230.635686 
L 104.084627 215.560155 
L 106.511574 201.80861 
L 108.938522 184.934011 
L 111.365469 171.597237 
L 113.792416 161.220611 
L 116.219363 155.314523 
L 118.64631 152.439804 
L 121.073257 151.629776 
L 123.500204 151.850898 
L 125.927151 153.318351 
L 128.354099 158.092561 
L 130.781046 159.452687 
L 133.207993 160.958401 
L 135.63494 163.064646 
L 138.061887 166.396925 
L 140.488834 166.836669 
L 142.915781 166.257596 
L 145.342728 167.294679 
L 147.769676 168.194445 
L 150.196623 165.950525 
L 152.62357 165.568864 
L 155.050517 163.754428 
L 157.477464 160.519411 
L 159.904411 157.581005 
L 162.331358 156.212753 
L 164.758305 155.395565 
L 167.185253 154.15532 
L 169.6122 155.93583 
L 172.039147 157.268236 
L 174.466094 159.824355 
L 176.893041 162.636202 
L 179.319988 163.366219 
L 181.746935 164.190571 
L 184.173882 165.742371 
L 186.60083 166.13162 
L 189.027777 166.569138 
L 191.454724 167.253868 
L 193.881671 168.242428 
L 196.308618 168.751124 
L 198.735565 169.797953 
L 201.162512 169.523831 
L 203.589459 168.992881 
L 206.016407 170.66581 
L 208.443354 171.032217 
L 210.870301 170.53215 
L 213.297248 170.742814 
L 215.724195 170.410972 
L 218.151142 170.357133 
L 220.578089 170.339819 
L 223.005036 170.677131 
L 225.431984 170.281722 
L 227.858931 170.324717 
L 230.285878 169.90994 
L 231.4 169.847206 
" clip-path="url(#p8515bdec89)" style="fill: none; stroke: #61bfa3; stroke-width: 1.5; stroke-linecap: square"/>
   </g>
   <g id="line2d_18">
    <path d="M 30.06274 262.802625 
L 67.97505 262.802625 
L 86.851305 262.802625 
L 90.654522 262.802625 
L 95.46447 262.802625 
L 99.379546 261.664459 
L 102.959044 256.077118 
L 104.301356 251.938343 
L 105.19623 247.592632 
L 105.979246 243.867727 
L 106.6504 239.935887 
L 107.321558 235.590176 
L 107.992712 231.244465 
L 108.552008 227.10569 
L 109.111305 222.553035 
L 109.670601 218.828138 
L 110.229898 214.068548 
L 110.789194 209.722829 
L 111.57221 204.342424 
L 112.131507 199.37589 
L 112.802661 194.823236 
L 113.585677 188.408137 
L 114.144973 184.269361 
L 114.816131 179.716706 
L 115.599143 175.164052 
L 116.365843 170.38759 
L 117.500752 164.610177 
L 118.507487 159.850587 
L 119.62608 155.918747 
L 120.85653 151.986911 
L 122.3107 148.67589 
L 124.54789 145.778748 
L 126.785076 144.744054 
L 128.686681 144.744054 
L 130.476428 145.571808 
L 132.266183 146.606502 
L 133.832207 147.434256 
L 135.398238 148.882829 
L 136.852413 149.917523 
L 138.530302 151.159157 
L 140.208191 152.40079 
L 141.886081 153.435484 
L 143.340246 154.263238 
L 144.906278 155.090993 
L 146.584167 155.504872 
L 148.373914 155.918747 
L 149.939946 155.918747 
L 151.617836 155.918747 
L 153.295725 155.918747 
L 155.085472 155.297932 
L 156.875227 154.470178 
L 158.553117 153.64242 
L 160.231006 152.814665 
L 161.797029 151.779972 
L 163.139346 150.952217 
L 164.705378 150.331403 
L 166.495125 150.331403 
L 168.173014 151.159157 
L 169.739046 152.607726 
L 171.081354 154.263238 
L 172.311804 156.332626 
L 173.542255 158.60895 
L 174.772707 160.678337 
L 176.115022 163.161604 
L 177.681055 165.230992 
L 179.13522 167.507323 
L 180.701252 169.369768 
L 182.155427 170.611405 
L 183.609591 171.646099 
L 185.399339 172.473849 
L 187.300952 172.887728 
L 189.202557 173.094664 
L 191.104169 172.887728 
L 193.117632 172.887728 
L 194.795529 173.094664 
L 196.585268 173.094664 
L 198.151308 173.508543 
L 200.052912 173.715487 
L 202.066375 174.336301 
L 203.632406 174.750181 
L 205.310295 175.164052 
L 206.988185 175.577931 
L 208.554225 175.99181 
L 210.232114 176.405689 
L 212.021854 176.612625 
L 213.587893 176.819568 
L 215.489498 177.026504 
L 217.391102 176.819568 
L 219.292708 176.612625 
L 221.418044 176.198746 
L 223.431498 175.577931 
L 225.428851 175.090782 
L 227.45844 174.336301 
L 229.369349 173.444661 
L 231.276043 172.504025 
L 231.4 172.458161 
" clip-path="url(#p8515bdec89)" style="fill: none; stroke-dasharray: 7.5,6; stroke-dashoffset: 0; stroke: #6c757d; stroke-width: 1.5"/>
   </g>
   <g id="matplotlib.axis_3">
    <g id="xtick_6">
     <g id="line2d_19">
      <g>
       <use xlink:href="#m32faee2796" x="30.06274" y="262.802625" style="stroke: #000000; stroke-width: 0.8"/>
      </g>
     </g>
    </g>
    <g id="xtick_7">
     <g id="line2d_20">
      <g>
       <use xlink:href="#m32faee2796" x="78.601682" y="262.802625" style="stroke: #000000; stroke-width: 0.8"/>
      </g>
     </g>
    </g>
    <g id="xtick_8">
     <g id="line2d_21">
      <g>
       <use xlink:href="#m32faee2796" x="127.140625" y="262.802625" style="stroke: #000000; stroke-width: 0.8"/>
      </g>
     </g>
    </g>
    <g id="xtick_9">
     <g id="line2d_22">
      <g>
       <use xlink:href="#m32faee2796" x="175.679567" y="262.802625" style="stroke: #000000; stroke-width: 0.8"/>
      </g>
     </g>
    </g>
    <g id="xtick_10">
     <g id="line2d_23">
      <g>
       <use xlink:href="#m32faee2796" x="224.21851" y="262.802625" style="stroke: #000000; stroke-width: 0.8"/>
      </g>
     </g>
    </g>
   </g>
   <g id="matplotlib.axis_4">
    <g id="ytick_7">
     <g id="line2d_24">
      <g>
       <use xlink:href="#mcaf1c18d89" x="30.06274" y="262.802625" style="stroke: #000000; stroke-width: 0.8"/>
      </g>
     </g>
     <g id="text_7">
      <!-- 0 -->
      <g transform="translate(16.70024 266.601843)scale(0.1 -0.1)">
       <use xlink:href="#DejaVuSans-30"/>
      </g>
     </g>
    </g>
    <g id="ytick_8">
     <g id="line2d_25">
      <g>
       <use xlink:href="#mcaf1c18d89" x="30.06274" y="168.415549" style="stroke: #000000; stroke-width: 0.8"/>
      </g>
     </g>
     <g id="text_8">
      <!-- 1 -->
      <g transform="translate(16.70024 172.214768)scale(0.1 -0.1)">
       <use xlink:href="#DejaVuSans-31"/>
      </g>
     </g>
    </g>
    <g id="ytick_9">
     <g id="line2d_26">
      <g>
       <use xlink:href="#mda5cd29dad" x="30.06274" y="215.609087" style="stroke: #000000; stroke-width: 0.6"/>
      </g>
     </g>
    </g>
    <g id="text_9">
     <!-- g$_{NN}$($r$) -->
     <g transform="translate(10.60024 215.421875)rotate(-90)scale(0.1 -0.1)">
      <defs>
       <path id="DejaVuSans-Oblique-4e" d="M 1081 4666 
L 1931 4666 
L 3219 666 
L 4000 4666 
L 4616 4666 
L 3706 0 
L 2853 0 
L 1569 4025 
L 788 0 
L 172 0 
L 1081 4666 
z
" transform="scale(0.015625)"/>
      </defs>
      <use xlink:href="#DejaVuSans-67" transform="translate(0 0.125)"/>
      <use xlink:href="#DejaVuSans-Oblique-4e" transform="translate(64.433594 -16.28125)scale(0.7)"/>
      <use xlink:href="#DejaVuSans-Oblique-4e" transform="translate(116.796875 -16.28125)scale(0.7)"/>
      <use xlink:href="#DejaVuSans-28" transform="translate(171.894531 0.125)"/>
      <use xlink:href="#DejaVuSans-Oblique-72" transform="translate(210.908203 0.125)"/>
      <use xlink:href="#DejaVuSans-29" transform="translate(252.021484 0.125)"/>
     </g>
    </g>
   </g>
   <g id="patch_8">
    <path d="M 30.06274 262.802625 
L 30.06274 138.841125 
" style="fill: none; stroke: #000000; stroke-width: 0.8; stroke-linejoin: miter; stroke-linecap: square"/>
   </g>
   <g id="patch_9">
    <path d="M 224.21851 262.802625 
L 224.21851 138.841125 
" style="fill: none; stroke: #000000; stroke-width: 0.8; stroke-linejoin: miter; stroke-linecap: square"/>
   </g>
   <g id="patch_10">
    <path d="M 30.06274 262.802625 
L 224.21851 262.802625 
" style="fill: none; stroke: #000000; stroke-width: 0.8; stroke-linejoin: miter; stroke-linecap: square"/>
   </g>
   <g id="patch_11">
    <path d="M 30.06274 138.841125 
L 224.21851 138.841125 
" style="fill: none; stroke: #000000; stroke-width: 0.8; stroke-linejoin: miter; stroke-linecap: square"/>
   </g>
   <g id="text_10">
    <!-- B -->
    <g transform="translate(33.945855 151.237275)scale(0.12 -0.12)">
     <defs>
      <path id="DejaVuSans-Bold-42" d="M 2456 2859 
Q 2741 2859 2887 2984 
Q 3034 3109 3034 3353 
Q 3034 3594 2887 3720 
Q 2741 3847 2456 3847 
L 1791 3847 
L 1791 2859 
L 2456 2859 
z
M 2497 819 
Q 2859 819 3042 972 
Q 3225 1125 3225 1434 
Q 3225 1738 3044 1889 
Q 2863 2041 2497 2041 
L 1791 2041 
L 1791 819 
L 2497 819 
z
M 3616 2497 
Q 4003 2384 4215 2081 
Q 4428 1778 4428 1338 
Q 4428 663 3972 331 
Q 3516 0 2584 0 
L 588 0 
L 588 4666 
L 2394 4666 
Q 3366 4666 3802 4372 
Q 4238 4078 4238 3431 
Q 4238 3091 4078 2852 
Q 3919 2613 3616 2497 
z
" transform="scale(0.015625)"/>
     </defs>
     <use xlink:href="#DejaVuSans-Bold-42"/>
    </g>
   </g>
   <g id="legend_2">
    <g id="line2d_27">
     <path d="M 157.973197 248.222937 
L 167.973197 248.222937 
L 177.973197 248.222937 
" style="fill: none; stroke: #61bfa3; stroke-width: 1.5; stroke-linecap: square"/>
    </g>
    <g id="text_11">
     <!-- MeCN -->
     <g transform="translate(185.973197 251.722937)scale(0.1 -0.1)">
      <defs>
       <path id="DejaVuSans-4d" d="M 628 4666 
L 1569 4666 
L 2759 1491 
L 3956 4666 
L 4897 4666 
L 4897 0 
L 4281 0 
L 4281 4097 
L 3078 897 
L 2444 897 
L 1241 4097 
L 1241 0 
L 628 0 
L 628 4666 
z
" transform="scale(0.015625)"/>
       <path id="DejaVuSans-65" d="M 3597 1894 
L 3597 1613 
L 953 1613 
Q 991 1019 1311 708 
Q 1631 397 2203 397 
Q 2534 397 2845 478 
Q 3156 559 3463 722 
L 3463 178 
Q 3153 47 2828 -22 
Q 2503 -91 2169 -91 
Q 1331 -91 842 396 
Q 353 884 353 1716 
Q 353 2575 817 3079 
Q 1281 3584 2069 3584 
Q 2775 3584 3186 3129 
Q 3597 2675 3597 1894 
z
M 3022 2063 
Q 3016 2534 2758 2815 
Q 2500 3097 2075 3097 
Q 1594 3097 1305 2825 
Q 1016 2553 972 2059 
L 3022 2063 
z
" transform="scale(0.015625)"/>
       <path id="DejaVuSans-43" d="M 4122 4306 
L 4122 3641 
Q 3803 3938 3442 4084 
Q 3081 4231 2675 4231 
Q 1875 4231 1450 3742 
Q 1025 3253 1025 2328 
Q 1025 1406 1450 917 
Q 1875 428 2675 428 
Q 3081 428 3442 575 
Q 3803 722 4122 1019 
L 4122 359 
Q 3791 134 3420 21 
Q 3050 -91 2638 -91 
Q 1578 -91 968 557 
Q 359 1206 359 2328 
Q 359 3453 968 4101 
Q 1578 4750 2638 4750 
Q 3056 4750 3426 4639 
Q 3797 4528 4122 4306 
z
" transform="scale(0.015625)"/>
       <path id="DejaVuSans-4e" d="M 628 4666 
L 1478 4666 
L 3547 763 
L 3547 4666 
L 4159 4666 
L 4159 0 
L 3309 0 
L 1241 3903 
L 1241 0 
L 628 0 
L 628 4666 
z
" transform="scale(0.015625)"/>
      </defs>
      <use xlink:href="#DejaVuSans-4d"/>
      <use xlink:href="#DejaVuSans-65" x="86.279297"/>
      <use xlink:href="#DejaVuSans-43" x="147.802734"/>
      <use xlink:href="#DejaVuSans-4e" x="217.626953"/>
     </g>
    </g>
   </g>
  </g>
  <g id="axes_3">
   <g id="patch_12">
    <path d="M 30.06274 398.64351 
L 224.21851 398.64351 
L 224.21851 274.682011 
L 30.06274 274.682011 
z
" style="fill: #ffffff"/>
   </g>
   <g id="line2d_28">
    <path d="M 30.06274 349.05891 
L 224.21851 349.05891 
" clip-path="url(#p4d42b5ae85)" style="fill: none; stroke-dasharray: 1.5,6; stroke-dashoffset: 0; stroke: #c0c0c0; stroke-width: 1.5"/>
   </g>
   <g id="line2d_29">
    <path d="M 31.276214 398.64351 
L 33.703161 398.64351 
L 36.130108 398.64351 
L 38.557055 398.64351 
L 40.984002 398.64351 
L 43.410949 398.64351 
L 45.837896 398.64351 
L 48.264843 398.64351 
L 50.691791 398.64351 
L 53.118738 398.64351 
L 55.545685 398.64351 
L 57.972632 398.64351 
L 60.399579 398.64351 
L 62.826526 398.64351 
L 65.253473 398.64351 
L 67.68042 398.64351 
L 70.107368 398.64351 
L 72.534315 398.64351 
L 74.961262 398.64351 
L 77.388209 398.64351 
L 79.815156 398.64351 
L 82.242103 398.64351 
L 84.66905 398.64351 
L 87.095997 398.485354 
L 89.522945 395.628597 
L 91.949892 378.399992 
L 94.376839 340.470395 
L 96.803786 303.703693 
L 99.230733 290.819557 
L 101.65768 302.817911 
L 104.084627 320.529314 
L 106.511574 337.726479 
L 108.938522 349.405863 
L 111.365469 355.013796 
L 113.792416 359.001708 
L 116.219363 361.477029 
L 118.64631 361.771763 
L 121.073257 361.23286 
L 123.500204 360.673916 
L 125.927151 359.33056 
L 128.354099 356.84681 
L 130.781046 353.897623 
L 133.207993 351.374377 
L 135.63494 348.922851 
L 138.061887 347.216606 
L 140.488834 345.219281 
L 142.915781 345.103208 
L 145.342728 344.771422 
L 147.769676 345.874626 
L 150.196623 347.83032 
L 152.62357 349.316606 
L 155.050517 350.270085 
L 157.477464 351.182765 
L 159.904411 351.555855 
L 162.331358 352.363311 
L 164.758305 352.428357 
L 167.185253 351.781008 
L 169.6122 350.688262 
L 172.039147 351.079687 
L 174.466094 350.711121 
L 176.893041 349.902792 
L 179.319988 349.448349 
L 181.746935 349.512413 
L 184.173882 349.27465 
L 186.60083 349.063613 
L 189.027777 348.082386 
L 191.454724 348.31154 
L 193.881671 348.238523 
L 196.308618 347.305393 
L 198.735565 347.197332 
L 201.162512 346.561395 
L 203.589459 346.753305 
L 206.016407 346.843723 
L 208.443354 346.38712 
L 210.870301 346.761236 
L 213.297248 346.826448 
L 215.724195 347.345606 
L 218.151142 347.223865 
L 220.578089 347.515976 
L 223.005036 346.729223 
" clip-path="url(#p4d42b5ae85)" style="fill: none; stroke: #ffb5ba; stroke-width: 1.5; stroke-linecap: square"/>
   </g>
   <g id="line2d_30">
    <path d="M 34.675733 398.64351 
L 66.966688 398.64351 
L 83.368442 398.64351 
L 86.700049 398.045625 
L 88.493991 396.371547 
L 89.262823 393.262545 
L 90.031655 389.914388 
L 90.287933 386.087924 
L 90.800487 382.978922 
L 90.800487 379.630766 
L 91.056765 375.565147 
L 91.056765 371.021221 
L 91.313042 367.433911 
L 91.56932 363.368292 
L 91.825597 352.606362 
L 92.081875 348.540743 
L 92.338152 344.953433 
L 92.850707 340.887815 
L 93.106984 332.756578 
L 93.619539 329.408422 
L 93.875816 324.625342 
L 94.132094 319.842261 
L 94.388371 310.515254 
L 94.900926 306.68879 
L 95.157204 303.818942 
L 95.926036 300.949094 
L 96.951145 304.058096 
L 97.719978 306.449636 
L 98.232533 308.841176 
L 98.48881 311.232717 
L 99.001365 313.863411 
L 99.257642 316.494105 
L 99.770197 319.124799 
L 100.026474 321.994647 
L 100.282752 324.864496 
L 100.539029 327.973498 
L 100.795307 330.843346 
L 101.307862 333.47404 
L 101.820416 335.86558 
L 102.076694 338.735429 
L 102.845526 341.605277 
L 103.358081 344.475125 
L 104.126913 347.344973 
L 104.895745 350.693129 
L 105.664578 353.562978 
L 106.689687 356.193672 
L 107.971074 358.585212 
L 109.508739 360.25929 
L 111.302681 362.172522 
L 113.3529 364.085754 
L 115.403119 364.324908 
L 117.965894 364.085754 
L 120.27239 362.889984 
L 122.32261 360.976752 
L 124.372829 359.302674 
L 126.166771 358.106904 
L 127.960713 356.67198 
L 129.2421 354.519594 
L 130.523487 352.845516 
L 132.317429 350.932283 
L 134.111371 348.779897 
L 135.905313 346.388357 
L 137.699255 344.235971 
L 139.749474 342.083585 
L 142.312248 342.322739 
L 144.618745 343.040201 
L 147.181519 344.475125 
L 149.488016 345.670895 
L 151.02568 347.344973 
L 153.075899 348.540743 
L 155.382396 349.258205 
L 157.432616 349.736513 
L 160.507945 350.693129 
L 163.326996 351.171437 
L 166.146048 351.649746 
L 168.452544 351.649746 
L 170.759041 351.410592 
L 173.578093 351.410592 
L 176.140867 350.932283 
L 178.959918 350.693129 
L 181.266415 349.975667 
L 183.060357 349.736513 
L 185.110576 349.258205 
L 187.417073 348.779897 
L 189.979847 348.540743 
L 192.798899 348.301589 
L 194.849118 348.301589 
L 197.411892 348.301589 
L 199.205834 348.301589 
L 201.768608 348.062435 
L 204.075105 348.540743 
L 206.894157 348.779897 
L 209.456931 349.019051 
L 212.019705 349.019051 
L 214.326202 349.258205 
L 216.888976 349.736513 
L 219.964305 349.975667 
L 223.295911 350.214821 
L 226.883795 350.214821 
L 229.702847 350.214821 
L 231.4 350.214821 
" clip-path="url(#p4d42b5ae85)" style="fill: none; stroke-dasharray: 7.5,6; stroke-dashoffset: 0; stroke: #6c757d; stroke-width: 1.5"/>
   </g>
   <g id="matplotlib.axis_5">
    <g id="xtick_11">
     <g id="line2d_31">
      <g>
       <use xlink:href="#m32faee2796" x="30.06274" y="398.64351" style="stroke: #000000; stroke-width: 0.8"/>
      </g>
     </g>
     <g id="text_12">
      <!-- 0 -->
      <g transform="translate(26.88149 413.241947)scale(0.1 -0.1)">
       <use xlink:href="#DejaVuSans-30"/>
      </g>
     </g>
    </g>
    <g id="xtick_12">
     <g id="line2d_32">
      <g>
       <use xlink:href="#m32faee2796" x="78.601682" y="398.64351" style="stroke: #000000; stroke-width: 0.8"/>
      </g>
     </g>
     <g id="text_13">
      <!-- 2 -->
      <g transform="translate(75.420432 413.241947)scale(0.1 -0.1)">
       <use xlink:href="#DejaVuSans-32"/>
      </g>
     </g>
    </g>
    <g id="xtick_13">
     <g id="line2d_33">
      <g>
       <use xlink:href="#m32faee2796" x="127.140625" y="398.64351" style="stroke: #000000; stroke-width: 0.8"/>
      </g>
     </g>
     <g id="text_14">
      <!-- 4 -->
      <g transform="translate(123.959375 413.241947)scale(0.1 -0.1)">
       <defs>
        <path id="DejaVuSans-34" d="M 2419 4116 
L 825 1625 
L 2419 1625 
L 2419 4116 
z
M 2253 4666 
L 3047 4666 
L 3047 1625 
L 3713 1625 
L 3713 1100 
L 3047 1100 
L 3047 0 
L 2419 0 
L 2419 1100 
L 313 1100 
L 313 1709 
L 2253 4666 
z
" transform="scale(0.015625)"/>
       </defs>
       <use xlink:href="#DejaVuSans-34"/>
      </g>
     </g>
    </g>
    <g id="xtick_14">
     <g id="line2d_34">
      <g>
       <use xlink:href="#m32faee2796" x="175.679567" y="398.64351" style="stroke: #000000; stroke-width: 0.8"/>
      </g>
     </g>
     <g id="text_15">
      <!-- 6 -->
      <g transform="translate(172.498317 413.241947)scale(0.1 -0.1)">
       <defs>
        <path id="DejaVuSans-36" d="M 2113 2584 
Q 1688 2584 1439 2293 
Q 1191 2003 1191 1497 
Q 1191 994 1439 701 
Q 1688 409 2113 409 
Q 2538 409 2786 701 
Q 3034 994 3034 1497 
Q 3034 2003 2786 2293 
Q 2538 2584 2113 2584 
z
M 3366 4563 
L 3366 3988 
Q 3128 4100 2886 4159 
Q 2644 4219 2406 4219 
Q 1781 4219 1451 3797 
Q 1122 3375 1075 2522 
Q 1259 2794 1537 2939 
Q 1816 3084 2150 3084 
Q 2853 3084 3261 2657 
Q 3669 2231 3669 1497 
Q 3669 778 3244 343 
Q 2819 -91 2113 -91 
Q 1303 -91 875 529 
Q 447 1150 447 2328 
Q 447 3434 972 4092 
Q 1497 4750 2381 4750 
Q 2619 4750 2861 4703 
Q 3103 4656 3366 4563 
z
" transform="scale(0.015625)"/>
       </defs>
       <use xlink:href="#DejaVuSans-36"/>
      </g>
     </g>
    </g>
    <g id="xtick_15">
     <g id="line2d_35">
      <g>
       <use xlink:href="#m32faee2796" x="224.21851" y="398.64351" style="stroke: #000000; stroke-width: 0.8"/>
      </g>
     </g>
     <g id="text_16">
      <!-- 8 -->
      <g transform="translate(221.03726 413.241947)scale(0.1 -0.1)">
       <defs>
        <path id="DejaVuSans-38" d="M 2034 2216 
Q 1584 2216 1326 1975 
Q 1069 1734 1069 1313 
Q 1069 891 1326 650 
Q 1584 409 2034 409 
Q 2484 409 2743 651 
Q 3003 894 3003 1313 
Q 3003 1734 2745 1975 
Q 2488 2216 2034 2216 
z
M 1403 2484 
Q 997 2584 770 2862 
Q 544 3141 544 3541 
Q 544 4100 942 4425 
Q 1341 4750 2034 4750 
Q 2731 4750 3128 4425 
Q 3525 4100 3525 3541 
Q 3525 3141 3298 2862 
Q 3072 2584 2669 2484 
Q 3125 2378 3379 2068 
Q 3634 1759 3634 1313 
Q 3634 634 3220 271 
Q 2806 -91 2034 -91 
Q 1263 -91 848 271 
Q 434 634 434 1313 
Q 434 1759 690 2068 
Q 947 2378 1403 2484 
z
M 1172 3481 
Q 1172 3119 1398 2916 
Q 1625 2713 2034 2713 
Q 2441 2713 2670 2916 
Q 2900 3119 2900 3481 
Q 2900 3844 2670 4047 
Q 2441 4250 2034 4250 
Q 1625 4250 1398 4047 
Q 1172 3844 1172 3481 
z
" transform="scale(0.015625)"/>
       </defs>
       <use xlink:href="#DejaVuSans-38"/>
      </g>
     </g>
    </g>
    <g id="text_17">
     <!-- $r$ (A) -->
     <g transform="translate(116.140625 426.920073)scale(0.1 -0.1)">
      <defs>
       <path id="DejaVuSans-20" transform="scale(0.015625)"/>
       <path id="DejaVuSans-41" d="M 2188 4044 
L 1331 1722 
L 3047 1722 
L 2188 4044 
z
M 1831 4666 
L 2547 4666 
L 4325 0 
L 3669 0 
L 3244 1197 
L 1141 1197 
L 716 0 
L 50 0 
L 1831 4666 
z
" transform="scale(0.015625)"/>
      </defs>
      <use xlink:href="#DejaVuSans-Oblique-72" transform="translate(0 0.125)"/>
      <use xlink:href="#DejaVuSans-20" transform="translate(41.113281 0.125)"/>
      <use xlink:href="#DejaVuSans-28" transform="translate(72.900391 0.125)"/>
      <use xlink:href="#DejaVuSans-41" transform="translate(111.914062 0.125)"/>
      <use xlink:href="#DejaVuSans-29" transform="translate(180.322266 0.125)"/>
     </g>
    </g>
   </g>
   <g id="matplotlib.axis_6">
    <g id="ytick_10">
     <g id="line2d_36">
      <g>
       <use xlink:href="#mcaf1c18d89" x="30.06274" y="398.64351" style="stroke: #000000; stroke-width: 0.8"/>
      </g>
     </g>
     <g id="text_18">
      <!-- 0 -->
      <g transform="translate(16.70024 402.442729)scale(0.1 -0.1)">
       <use xlink:href="#DejaVuSans-30"/>
      </g>
     </g>
    </g>
    <g id="ytick_11">
     <g id="line2d_37">
      <g>
       <use xlink:href="#mcaf1c18d89" x="30.06274" y="349.05891" style="stroke: #000000; stroke-width: 0.8"/>
      </g>
     </g>
     <g id="text_19">
      <!-- 1 -->
      <g transform="translate(16.70024 352.858129)scale(0.1 -0.1)">
       <use xlink:href="#DejaVuSans-31"/>
      </g>
     </g>
    </g>
    <g id="ytick_12">
     <g id="line2d_38">
      <g>
       <use xlink:href="#mcaf1c18d89" x="30.06274" y="299.474311" style="stroke: #000000; stroke-width: 0.8"/>
      </g>
     </g>
     <g id="text_20">
      <!-- 2 -->
      <g transform="translate(16.70024 303.273529)scale(0.1 -0.1)">
       <use xlink:href="#DejaVuSans-32"/>
      </g>
     </g>
    </g>
    <g id="ytick_13">
     <g id="line2d_39">
      <g>
       <use xlink:href="#mda5cd29dad" x="30.06274" y="373.85121" style="stroke: #000000; stroke-width: 0.6"/>
      </g>
     </g>
    </g>
    <g id="ytick_14">
     <g id="line2d_40">
      <g>
       <use xlink:href="#mda5cd29dad" x="30.06274" y="324.26661" style="stroke: #000000; stroke-width: 0.6"/>
      </g>
     </g>
    </g>
    <g id="ytick_15">
     <g id="line2d_41">
      <g>
       <use xlink:href="#mda5cd29dad" x="30.06274" y="274.682011" style="stroke: #000000; stroke-width: 0.6"/>
      </g>
     </g>
    </g>
    <g id="text_21">
     <!-- g$_{OO}$($r$) -->
     <g transform="translate(10.60024 351.51276)rotate(-90)scale(0.1 -0.1)">
      <use xlink:href="#DejaVuSans-67" transform="translate(0 0.125)"/>
      <use xlink:href="#DejaVuSans-Oblique-4f" transform="translate(64.433594 -16.28125)scale(0.7)"/>
      <use xlink:href="#DejaVuSans-Oblique-4f" transform="translate(119.53125 -16.28125)scale(0.7)"/>
      <use xlink:href="#DejaVuSans-28" transform="translate(177.363281 0.125)"/>
      <use xlink:href="#DejaVuSans-Oblique-72" transform="translate(216.376953 0.125)"/>
      <use xlink:href="#DejaVuSans-29" transform="translate(257.490234 0.125)"/>
     </g>
    </g>
   </g>
   <g id="patch_13">
    <path d="M 30.06274 398.64351 
L 30.06274 274.682011 
" style="fill: none; stroke: #000000; stroke-width: 0.8; stroke-linejoin: miter; stroke-linecap: square"/>
   </g>
   <g id="patch_14">
    <path d="M 224.21851 398.64351 
L 224.21851 274.682011 
" style="fill: none; stroke: #000000; stroke-width: 0.8; stroke-linejoin: miter; stroke-linecap: square"/>
   </g>
   <g id="patch_15">
    <path d="M 30.06274 398.64351 
L 224.21851 398.64351 
" style="fill: none; stroke: #000000; stroke-width: 0.8; stroke-linejoin: miter; stroke-linecap: square"/>
   </g>
   <g id="patch_16">
    <path d="M 30.06274 274.682011 
L 224.21851 274.682011 
" style="fill: none; stroke: #000000; stroke-width: 0.8; stroke-linejoin: miter; stroke-linecap: square"/>
   </g>
   <g id="text_22">
    <!-- C -->
    <g transform="translate(33.945855 287.078161)scale(0.12 -0.12)">
     <defs>
      <path id="DejaVuSans-Bold-43" d="M 4288 256 
Q 3956 84 3597 -3 
Q 3238 -91 2847 -91 
Q 1681 -91 1000 561 
Q 319 1213 319 2328 
Q 319 3447 1000 4098 
Q 1681 4750 2847 4750 
Q 3238 4750 3597 4662 
Q 3956 4575 4288 4403 
L 4288 3438 
Q 3953 3666 3628 3772 
Q 3303 3878 2944 3878 
Q 2300 3878 1931 3465 
Q 1563 3053 1563 2328 
Q 1563 1606 1931 1193 
Q 2300 781 2944 781 
Q 3303 781 3628 887 
Q 3953 994 4288 1222 
L 4288 256 
z
" transform="scale(0.015625)"/>
     </defs>
     <use xlink:href="#DejaVuSans-Bold-43"/>
    </g>
   </g>
   <g id="legend_3">
    <g id="line2d_42">
     <path d="M 157.045072 384.063823 
L 167.045072 384.063823 
L 177.045072 384.063823 
" style="fill: none; stroke: #ffb5ba; stroke-width: 1.5; stroke-linecap: square"/>
    </g>
    <g id="text_23">
     <!-- MeOH -->
     <g transform="translate(185.045072 387.563823)scale(0.1 -0.1)">
      <use xlink:href="#DejaVuSans-4d"/>
      <use xlink:href="#DejaVuSans-65" x="86.279297"/>
      <use xlink:href="#DejaVuSans-4f" x="147.802734"/>
      <use xlink:href="#DejaVuSans-48" x="226.513672"/>
     </g>
    </g>
   </g>
  </g>
 </g>
 <defs>
  <clipPath id="p24c3348522">
   <rect x="30.06274" y="3.00024" width="194.15577" height="123.961499"/>
  </clipPath>
  <clipPath id="p8515bdec89">
   <rect x="30.06274" y="138.841125" width="194.15577" height="123.961499"/>
  </clipPath>
  <clipPath id="p4d42b5ae85">
   <rect x="30.06274" y="274.682011" width="194.15577" height="123.961499"/>
  </clipPath>
 </defs>
</svg>
