<?xml version="1.0" encoding="utf-8" standalone="no"?>
<!DOCTYPE svg PUBLIC "-//W3C//DTD SVG 1.1//EN"
  "http://www.w3.org/Graphics/SVG/1.1/DTD/svg11.dtd">
<svg xmlns:xlink="http://www.w3.org/1999/xlink" width="230.4pt" height="432pt" viewBox="0 0 230.4 432" xmlns="http://www.w3.org/2000/svg" version="1.1">
 <metadata>
  <rdf:RDF xmlns:dc="http://purl.org/dc/elements/1.1/" xmlns:cc="http://creativecommons.org/ns#" xmlns:rdf="http://www.w3.org/1999/02/22-rdf-syntax-ns#">
   <cc:Work>
    <dc:type rdf:resource="http://purl.org/dc/dcmitype/StillImage"/>
    <dc:date>2022-10-26T12:16:54.205153</dc:date>
    <dc:format>image/svg+xml</dc:format>
    <dc:creator>
     <cc:Agent>
      <dc:title>Matplotlib v3.6.0, https://matplotlib.org/</dc:title>
     </cc:Agent>
    </dc:creator>
   </cc:Work>
  </rdf:RDF>
 </metadata>
 <defs>
  <style type="text/css">*{stroke-linejoin: round; stroke-linecap: butt}</style>
 </defs>
 <g id="figure_1">
  <g id="patch_1">
   <path d="M 0 432 
L 230.4 432 
L 230.4 0 
L 0 0 
z
" style="fill: #ffffff"/>
  </g>
  <g id="axes_1">
   <g id="patch_2">
    <path d="M 26.014459 129.734135 
L 225.432651 129.734135 
L 225.432651 3.00024 
L 26.014459 3.00024 
z
" style="fill: #ffffff"/>
   </g>
   <g id="line2d_1">
    <path d="M 26.014459 81.380296 
L 225.432651 81.380296 
" clip-path="url(#p6a92313631)" style="fill: none; stroke-dasharray: 1.5,6; stroke-dashoffset: 0; stroke: #c0c0c0; stroke-width: 1.5"/>
   </g>
   <g id="line2d_2">
    <path d="M 27.260822 129.734135 
L 29.75355 129.734135 
L 32.246277 129.734135 
L 34.739005 129.734135 
L 37.231732 129.734135 
L 39.724459 129.734135 
L 42.217187 129.734135 
L 44.709914 129.734135 
L 47.202642 129.734135 
L 49.695369 129.734135 
L 52.188096 129.734135 
L 54.680824 129.734135 
L 57.173551 129.734135 
L 59.666279 129.734135 
L 62.159006 129.734135 
L 64.651733 129.734135 
L 67.144461 129.734135 
L 69.637188 129.734135 
L 72.129916 129.734135 
L 74.622643 129.734135 
L 77.11537 129.734135 
L 79.608098 129.734135 
L 82.100825 129.734135 
L 84.593553 129.671867 
L 87.08628 126.573843 
L 89.579007 100.722987 
L 92.071735 44.544115 
L 94.564462 9.035187 
L 97.05719 15.125383 
L 99.549917 41.656712 
L 102.042644 65.910579 
L 104.535372 80.204059 
L 107.028099 85.68886 
L 109.520827 87.733248 
L 112.013554 87.590536 
L 114.506281 86.737717 
L 116.999009 85.753096 
L 119.491736 84.667787 
L 121.984464 81.811964 
L 124.477191 80.195732 
L 126.969918 78.442572 
L 129.462646 77.783236 
L 131.955373 75.663936 
L 134.448101 76.316484 
L 136.940828 76.772554 
L 139.433555 76.128616 
L 141.926283 76.241592 
L 144.41901 76.447821 
L 146.911738 78.93003 
L 149.404465 79.912667 
L 151.897192 81.773022 
L 154.38992 83.878202 
L 156.882647 85.213202 
L 159.375375 87.017372 
L 161.868102 87.042983 
L 164.360829 86.788977 
L 166.853557 86.807743 
L 169.346284 85.901672 
L 171.839012 85.076263 
L 174.331739 84.527313 
L 176.824466 83.155698 
L 179.317194 81.640792 
L 181.809921 80.310342 
L 184.302649 79.782801 
L 186.795376 78.897313 
L 189.288103 77.762434 
L 191.780831 76.842234 
L 194.273558 77.101921 
L 196.766286 77.503762 
L 199.259013 77.566098 
L 201.75174 78.343939 
L 204.244468 78.909693 
L 206.737195 79.740003 
L 209.229923 80.730839 
L 211.72265 81.318156 
L 214.215377 81.628642 
L 216.708105 82.014502 
L 219.200832 81.993009 
L 221.69356 82.2501 
L 224.186287 81.943171 
" clip-path="url(#p6a92313631)" style="fill: none; stroke: #4abbf3; stroke-width: 1.5; stroke-linecap: square"/>
   </g>
   <g id="line2d_3">
    <path d="M 26.014459 129.734135 
L 84.34428 129.627757 
L 85.092098 129.231255 
L 85.839916 127.96922 
L 86.587735 124.961611 
L 87.335553 119.608841 
L 88.083371 111.732001 
L 88.831189 101.655061 
L 90.326826 76.549747 
L 92.57028 35.303922 
L 93.318099 24.148692 
L 94.065917 15.768971 
L 94.813735 10.764349 
L 95.561553 9.0768 
L 96.309371 10.551592 
L 97.05719 14.560125 
L 97.805008 20.618861 
L 99.300644 36.038901 
L 101.544099 59.601727 
L 103.039735 72.110865 
L 103.787554 77.013944 
L 104.535372 80.978959 
L 105.28319 84.121958 
L 106.031008 86.505803 
L 106.778826 88.261047 
L 107.526645 89.474728 
L 108.274463 90.258061 
L 109.022281 90.75127 
L 110.517918 91.026887 
L 112.013554 90.891496 
L 114.257009 90.175859 
L 116.500463 89.078227 
L 118.743918 87.516398 
L 120.239554 86.273704 
L 126.969918 80.161779 
L 129.961191 78.068058 
L 132.204646 76.888224 
L 134.448101 76.042032 
L 135.943737 75.660037 
L 138.187192 75.374749 
L 139.682828 75.379584 
L 141.926283 75.742238 
L 143.421919 76.225776 
L 145.665374 77.231536 
L 147.908829 78.59995 
L 150.900101 80.693671 
L 153.891374 82.82124 
L 156.882647 84.682863 
L 159.87392 86.056112 
L 162.117375 86.71856 
L 163.613011 86.955493 
L 165.108648 87.018353 
L 166.604284 86.902304 
L 168.847739 86.47679 
L 171.091193 85.736977 
L 174.082466 84.465271 
L 179.317194 82.047579 
L 183.056285 80.524433 
L 187.543194 79.209208 
L 189.786649 78.774024 
L 192.777922 78.454888 
L 195.769195 78.464559 
L 200.256104 78.97711 
L 206.986468 80.389042 
L 213.716832 81.771962 
L 217.455923 82.289348 
L 222.69065 82.550459 
L 226.429742 82.448916 
L 231.4 82.068394 
L 231.4 82.068394 
" clip-path="url(#p6a92313631)" style="fill: none; stroke-dasharray: 7.5,6; stroke-dashoffset: 0; stroke: #6c757d; stroke-width: 1.5"/>
   </g>
   <g id="matplotlib.axis_1">
    <g id="xtick_1">
     <g id="line2d_4">
      <defs>
       <path id="m883e33d591" d="M 0 0 
L 0 3.5 
" style="stroke: #c2c1c1; stroke-width: 0.8"/>
      </defs>
      <g>
       <use xlink:href="#m883e33d591" x="26.014459" y="129.734135" style="fill: #c2c1c1; stroke: #c2c1c1; stroke-width: 0.8"/>
      </g>
     </g>
    </g>
    <g id="xtick_2">
     <g id="line2d_5">
      <g>
       <use xlink:href="#m883e33d591" x="50.941733" y="129.734135" style="fill: #c2c1c1; stroke: #c2c1c1; stroke-width: 0.8"/>
      </g>
     </g>
    </g>
    <g id="xtick_3">
     <g id="line2d_6">
      <g>
       <use xlink:href="#m883e33d591" x="75.869007" y="129.734135" style="fill: #c2c1c1; stroke: #c2c1c1; stroke-width: 0.8"/>
      </g>
     </g>
    </g>
    <g id="xtick_4">
     <g id="line2d_7">
      <g>
       <use xlink:href="#m883e33d591" x="100.796281" y="129.734135" style="fill: #c2c1c1; stroke: #c2c1c1; stroke-width: 0.8"/>
      </g>
     </g>
    </g>
    <g id="xtick_5">
     <g id="line2d_8">
      <g>
       <use xlink:href="#m883e33d591" x="125.723555" y="129.734135" style="fill: #c2c1c1; stroke: #c2c1c1; stroke-width: 0.8"/>
      </g>
     </g>
    </g>
    <g id="xtick_6">
     <g id="line2d_9">
      <g>
       <use xlink:href="#m883e33d591" x="150.650829" y="129.734135" style="fill: #c2c1c1; stroke: #c2c1c1; stroke-width: 0.8"/>
      </g>
     </g>
    </g>
    <g id="xtick_7">
     <g id="line2d_10">
      <g>
       <use xlink:href="#m883e33d591" x="175.578103" y="129.734135" style="fill: #c2c1c1; stroke: #c2c1c1; stroke-width: 0.8"/>
      </g>
     </g>
    </g>
    <g id="xtick_8">
     <g id="line2d_11">
      <g>
       <use xlink:href="#m883e33d591" x="200.505377" y="129.734135" style="fill: #c2c1c1; stroke: #c2c1c1; stroke-width: 0.8"/>
      </g>
     </g>
    </g>
    <g id="xtick_9">
     <g id="line2d_12">
      <g>
       <use xlink:href="#m883e33d591" x="225.432651" y="129.734135" style="fill: #c2c1c1; stroke: #c2c1c1; stroke-width: 0.8"/>
      </g>
     </g>
    </g>
   </g>
   <g id="matplotlib.axis_2">
    <g id="ytick_1">
     <g id="line2d_13">
      <defs>
       <path id="mcf20ffff4f" d="M 0 0 
L -3.5 0 
" style="stroke: #c2c1c1; stroke-width: 0.8"/>
      </defs>
      <g>
       <use xlink:href="#mcf20ffff4f" x="26.014459" y="129.734135" style="fill: #c2c1c1; stroke: #c2c1c1; stroke-width: 0.8"/>
      </g>
     </g>
     <g id="text_1">
      <!-- 0 -->
      <g style="fill: #191919" transform="translate(15.08024 132.359135) scale(0.07 -0.07)">
       <defs>
        <path id="Roboto-Regular-30" d="M 3234 1944 
Q 3234 825 2848 381 
Q 2463 -63 1800 -63 
Q 1156 -63 764 368 
Q 372 800 359 1872 
L 359 2638 
Q 359 3753 750 4183 
Q 1141 4613 1794 4613 
Q 2447 4613 2834 4195 
Q 3222 3778 3234 2709 
L 3234 1944 
z
M 2653 2734 
Q 2653 3503 2434 3822 
Q 2216 4141 1794 4141 
Q 1388 4141 1167 3831 
Q 947 3522 941 2778 
L 941 1850 
Q 941 1088 1164 750 
Q 1388 413 1800 413 
Q 2222 413 2436 745 
Q 2650 1078 2653 1825 
L 2653 2734 
z
" transform="scale(0.015625)"/>
       </defs>
       <use xlink:href="#Roboto-Regular-30"/>
      </g>
     </g>
    </g>
    <g id="ytick_2">
     <g id="line2d_14">
      <g>
       <use xlink:href="#mcf20ffff4f" x="26.014459" y="81.380296" style="fill: #c2c1c1; stroke: #c2c1c1; stroke-width: 0.8"/>
      </g>
     </g>
     <g id="text_2">
      <!-- 1 -->
      <g style="fill: #191919" transform="translate(15.08024 84.005296) scale(0.07 -0.07)">
       <defs>
        <path id="Roboto-Regular-31" d="M 2278 4575 
L 2278 0 
L 1700 0 
L 1700 3853 
L 534 3428 
L 534 3950 
L 2188 4575 
L 2278 4575 
z
" transform="scale(0.015625)"/>
       </defs>
       <use xlink:href="#Roboto-Regular-31"/>
      </g>
     </g>
    </g>
    <g id="ytick_3">
     <g id="line2d_15">
      <g>
       <use xlink:href="#mcf20ffff4f" x="26.014459" y="33.026457" style="fill: #c2c1c1; stroke: #c2c1c1; stroke-width: 0.8"/>
      </g>
     </g>
     <g id="text_3">
      <!-- 2 -->
      <g style="fill: #191919" transform="translate(15.08024 35.651457) scale(0.07 -0.07)">
       <defs>
        <path id="Roboto-Regular-32" d="M 3359 475 
L 3359 0 
L 381 0 
L 381 416 
L 1925 2134 
Q 2306 2566 2439 2819 
Q 2572 3072 2572 3328 
Q 2572 3663 2364 3900 
Q 2156 4138 1778 4138 
Q 1322 4138 1097 3878 
Q 872 3619 872 3213 
L 294 3213 
Q 294 3788 672 4200 
Q 1050 4613 1778 4613 
Q 2422 4613 2786 4278 
Q 3150 3944 3150 3397 
Q 3150 2997 2903 2592 
Q 2656 2188 2297 1797 
L 1078 475 
L 3359 475 
z
" transform="scale(0.015625)"/>
       </defs>
       <use xlink:href="#Roboto-Regular-32"/>
      </g>
     </g>
    </g>
    <g id="ytick_4">
     <g id="line2d_16">
      <defs>
       <path id="me6bf5dcac4" d="M 0 0 
L -2 0 
" style="stroke: #c2c1c1; stroke-width: 0.6"/>
      </defs>
      <g>
       <use xlink:href="#me6bf5dcac4" x="26.014459" y="105.557215" style="fill: #c2c1c1; stroke: #c2c1c1; stroke-width: 0.6"/>
      </g>
     </g>
    </g>
    <g id="ytick_5">
     <g id="line2d_17">
      <g>
       <use xlink:href="#me6bf5dcac4" x="26.014459" y="57.203376" style="fill: #c2c1c1; stroke: #c2c1c1; stroke-width: 0.6"/>
      </g>
     </g>
    </g>
    <g id="ytick_6">
     <g id="line2d_18">
      <g>
       <use xlink:href="#me6bf5dcac4" x="26.014459" y="8.849537" style="fill: #c2c1c1; stroke: #c2c1c1; stroke-width: 0.6"/>
      </g>
     </g>
    </g>
    <g id="text_4">
     <!-- g$\mathregular{_{OO}}$(r) -->
     <g style="fill: #191919" transform="translate(9.32024 77.047188) rotate(-90) scale(0.08 -0.08)">
      <defs>
       <path id="Roboto-Black-67" d="M 1659 -1331 
Q 1319 -1331 966 -1203 
Q 613 -1075 403 -825 
L 844 -206 
Q 1147 -553 1622 -553 
Q 2313 -553 2322 119 
L 2322 275 
Q 2025 -63 1553 -63 
Q 913 -63 544 425 
Q 175 913 175 1650 
L 175 1716 
Q 175 2488 545 2966 
Q 916 3444 1559 3444 
Q 2091 3444 2384 3091 
L 2422 3381 
L 3378 3381 
L 3378 131 
Q 3378 -572 2904 -951 
Q 2431 -1331 1659 -1331 
z
M 1228 1650 
Q 1228 1269 1375 1009 
Q 1522 750 1822 750 
Q 2166 750 2322 981 
L 2322 2400 
Q 2172 2631 1828 2631 
Q 1531 2631 1379 2372 
Q 1228 2113 1228 1650 
z
" transform="scale(0.015625)"/>
       <path id="Roboto-Black-4f" d="M 4197 2181 
Q 4197 1138 3640 537 
Q 3084 -63 2213 -63 
Q 1334 -63 776 537 
Q 219 1138 219 2181 
L 219 2366 
Q 219 3409 773 4011 
Q 1328 4613 2206 4613 
Q 3078 4613 3637 4011 
Q 4197 3409 4197 2366 
L 4197 2181 
z
M 3084 2372 
Q 3084 3059 2865 3406 
Q 2647 3753 2206 3753 
Q 1388 3753 1338 2534 
L 1334 2181 
Q 1334 1513 1554 1153 
Q 1775 794 2213 794 
Q 2628 794 2854 1148 
Q 3081 1503 3084 2163 
L 3084 2372 
z
" transform="scale(0.015625)"/>
       <path id="Roboto-Black-28" d="M 378 1850 
Q 378 2713 608 3369 
Q 838 4025 1194 4444 
Q 1550 4863 1938 5019 
L 2134 4500 
Q 1788 4247 1505 3622 
Q 1222 2997 1216 1909 
L 1216 1756 
Q 1216 634 1500 1 
Q 1784 -631 2134 -888 
L 1938 -1406 
Q 1550 -1250 1195 -833 
Q 841 -416 612 229 
Q 384 875 378 1716 
L 378 1850 
z
" transform="scale(0.015625)"/>
       <path id="Roboto-Black-72" d="M 1994 2453 
Q 1500 2453 1359 2144 
L 1359 0 
L 306 0 
L 306 3381 
L 1291 3381 
L 1325 2950 
Q 1591 3444 2069 3444 
Q 2244 3444 2359 3406 
L 2341 2428 
L 1994 2453 
z
" transform="scale(0.015625)"/>
       <path id="Roboto-Black-29" d="M 1956 1763 
Q 1956 941 1717 283 
Q 1478 -375 1104 -812 
Q 731 -1250 328 -1406 
L 125 -888 
Q 469 -634 753 -9 
Q 1038 616 1044 1703 
L 1044 1856 
Q 1044 2978 759 3611 
Q 475 4244 125 4500 
L 328 5019 
Q 731 4863 1104 4425 
Q 1478 3988 1717 3330 
Q 1956 2672 1956 1850 
L 1956 1763 
z
" transform="scale(0.015625)"/>
      </defs>
      <use xlink:href="#Roboto-Black-67" transform="translate(0 0.578125)"/>
      <use xlink:href="#Roboto-Black-4f" transform="translate(58.492852 -15.270313) scale(0.7)"/>
      <use xlink:href="#Roboto-Black-4f" transform="translate(106.82293 -15.270313) scale(0.7)"/>
      <use xlink:href="#Roboto-Black-28" transform="translate(157.794414 0.578125)"/>
      <use xlink:href="#Roboto-Black-72" transform="translate(193.097148 0.578125)"/>
      <use xlink:href="#Roboto-Black-29" transform="translate(230.987773 0.578125)"/>
     </g>
    </g>
   </g>
   <g id="patch_3">
    <path d="M 26.014459 129.734135 
L 26.014459 3.00024 
" style="fill: none; stroke: #c2c1c1; stroke-width: 0.8; stroke-linejoin: miter; stroke-linecap: square"/>
   </g>
   <g id="patch_4">
    <path d="M 225.432651 129.734135 
L 225.432651 3.00024 
" style="fill: none; stroke: #c2c1c1; stroke-width: 0.8; stroke-linejoin: miter; stroke-linecap: square"/>
   </g>
   <g id="patch_5">
    <path d="M 26.014459 129.734135 
L 225.432651 129.734135 
" style="fill: none; stroke: #c2c1c1; stroke-width: 0.8; stroke-linejoin: miter; stroke-linecap: square"/>
   </g>
   <g id="patch_6">
    <path d="M 26.014459 3.00024 
L 225.432651 3.00024 
" style="fill: none; stroke: #c2c1c1; stroke-width: 0.8; stroke-linejoin: miter; stroke-linecap: square"/>
   </g>
   <g id="text_5">
    <!-- A -->
    <g transform="translate(30.002823 15.673629) scale(0.096 -0.096)">
     <defs>
      <path id="Roboto-Bold-41" d="M 25 0 
L 1719 4550 
L 2588 4550 
L 4291 0 
L 3291 0 
L 2978 938 
L 1331 938 
L 1019 0 
L 25 0 
z
M 1584 1697 
L 2725 1697 
L 2156 3406 
L 1584 1697 
z
" transform="scale(0.015625)"/>
     </defs>
     <use xlink:href="#Roboto-Bold-41"/>
    </g>
   </g>
   <g id="text_6">
    <!-- H$_2$O -->
    <g transform="translate(30.002823 124.664779) scale(0.08 -0.08)">
     <defs>
      <path id="Roboto-Regular-48" d="M 3425 0 
L 3425 2103 
L 1131 2103 
L 1131 0 
L 528 0 
L 528 4550 
L 1131 4550 
L 1131 2594 
L 3425 2594 
L 3425 4550 
L 4025 4550 
L 4025 0 
L 3425 0 
z
" transform="scale(0.015625)"/>
      <path id="DejaVuSans-32" d="M 1228 531 
L 3431 531 
L 3431 0 
L 469 0 
L 469 531 
Q 828 903 1448 1529 
Q 2069 2156 2228 2338 
Q 2531 2678 2651 2914 
Q 2772 3150 2772 3378 
Q 2772 3750 2511 3984 
Q 2250 4219 1831 4219 
Q 1534 4219 1204 4116 
Q 875 4013 500 3803 
L 500 4441 
Q 881 4594 1212 4672 
Q 1544 4750 1819 4750 
Q 2544 4750 2975 4387 
Q 3406 4025 3406 3419 
Q 3406 3131 3298 2873 
Q 3191 2616 2906 2266 
Q 2828 2175 2409 1742 
Q 1991 1309 1228 531 
z
" transform="scale(0.015625)"/>
      <path id="Roboto-Regular-4f" d="M 4031 2131 
Q 4031 1106 3534 521 
Q 3038 -63 2206 -63 
Q 1397 -63 884 521 
Q 372 1106 372 2131 
L 372 2419 
Q 372 3441 881 4027 
Q 1391 4613 2200 4613 
Q 3025 4613 3523 4036 
Q 4022 3459 4031 2456 
L 4031 2131 
z
M 3434 2425 
Q 3434 3238 3109 3669 
Q 2784 4100 2200 4100 
Q 1641 4100 1305 3669 
Q 969 3238 969 2425 
L 969 2131 
Q 969 1313 1308 880 
Q 1647 447 2206 447 
Q 2794 447 3114 880 
Q 3434 1313 3434 2131 
L 3434 2425 
z
" transform="scale(0.015625)"/>
     </defs>
     <use xlink:href="#Roboto-Regular-48" transform="translate(0 0.921875)"/>
     <use xlink:href="#DejaVuSans-32" transform="translate(72.294922 -15.484375) scale(0.7)"/>
     <use xlink:href="#Roboto-Regular-4f" transform="translate(119.56543 0.921875)"/>
    </g>
   </g>
   <g id="legend_1">
    <g id="line2d_19">
     <path d="M 159.835151 106.484135 
L 167.835151 106.484135 
L 175.835151 106.484135 
" style="fill: none; stroke: #4abbf3; stroke-width: 1.5; stroke-linecap: square"/>
    </g>
    <g id="text_7">
     <!-- mbGDML -->
     <g transform="translate(182.235151 109.284135) scale(0.08 -0.08)">
      <defs>
       <path id="Roboto-Regular-6d" d="M 1794 2956 
Q 1225 2956 1016 2478 
L 1016 0 
L 434 0 
L 434 3381 
L 984 3381 
L 1000 3013 
Q 1366 3444 2000 3444 
Q 2325 3444 2579 3314 
Q 2834 3184 2969 2900 
Q 3138 3144 3408 3294 
Q 3678 3444 4044 3444 
Q 4588 3444 4883 3153 
Q 5178 2863 5178 2222 
L 5178 0 
L 4597 0 
L 4597 2228 
Q 4597 2653 4401 2804 
Q 4206 2956 3875 2956 
Q 3525 2956 3325 2748 
Q 3125 2541 3094 2244 
L 3094 0 
L 2516 0 
L 2516 2225 
Q 2516 2622 2319 2789 
Q 2122 2956 1794 2956 
z
" transform="scale(0.015625)"/>
       <path id="Roboto-Regular-62" d="M 3303 1653 
Q 3303 913 2959 425 
Q 2616 -63 1988 -63 
Q 1347 -63 1000 391 
L 969 0 
L 438 0 
L 438 4800 
L 1019 4800 
L 1019 3016 
Q 1363 3444 1981 3444 
Q 2619 3444 2961 2969 
Q 3303 2494 3303 1719 
L 3303 1653 
z
M 1838 2956 
Q 1522 2956 1325 2804 
Q 1128 2653 1019 2431 
L 1019 959 
Q 1131 734 1331 581 
Q 1531 428 1844 428 
Q 2313 428 2517 789 
Q 2722 1150 2722 1653 
L 2722 1719 
Q 2722 2222 2526 2589 
Q 2331 2956 1838 2956 
z
" transform="scale(0.015625)"/>
       <path id="Roboto-Regular-47" d="M 3891 2266 
L 3891 600 
Q 3763 413 3403 175 
Q 3044 -63 2281 -63 
Q 1450 -63 915 507 
Q 381 1078 381 2100 
L 381 2453 
Q 381 3469 856 4041 
Q 1331 4613 2213 4613 
Q 2994 4613 3398 4219 
Q 3803 3825 3891 3219 
L 3288 3219 
Q 3225 3588 2979 3853 
Q 2734 4119 2213 4119 
Q 1584 4119 1287 3676 
Q 991 3234 988 2475 
L 988 2100 
Q 988 1313 1344 870 
Q 1700 428 2284 428 
Q 2769 428 2984 542 
Q 3200 656 3291 759 
L 3291 1778 
L 2238 1778 
L 2238 2266 
L 3891 2266 
z
" transform="scale(0.015625)"/>
       <path id="Roboto-Regular-44" d="M 528 0 
L 528 4550 
L 1816 4550 
Q 2713 4550 3267 3973 
Q 3822 3397 3822 2409 
L 3822 2138 
Q 3822 1150 3264 575 
Q 2706 0 1759 0 
L 528 0 
z
M 1131 4056 
L 1131 491 
L 1759 491 
Q 2488 491 2856 941 
Q 3225 1391 3225 2138 
L 3225 2416 
Q 3225 3200 2856 3628 
Q 2488 4056 1816 4056 
L 1131 4056 
z
" transform="scale(0.015625)"/>
       <path id="Roboto-Regular-4d" d="M 2794 841 
L 4281 4550 
L 5056 4550 
L 5056 0 
L 4456 0 
L 4456 1775 
L 4516 3678 
L 3019 0 
L 2563 0 
L 1069 3684 
L 1128 1775 
L 1128 0 
L 528 0 
L 528 4550 
L 1303 4550 
L 2794 841 
z
" transform="scale(0.015625)"/>
       <path id="Roboto-Regular-4c" d="M 3288 491 
L 3288 0 
L 528 0 
L 528 4550 
L 1131 4550 
L 1131 491 
L 3288 491 
z
" transform="scale(0.015625)"/>
      </defs>
      <use xlink:href="#Roboto-Regular-6d"/>
      <use xlink:href="#Roboto-Regular-62" x="87.695312"/>
      <use xlink:href="#Roboto-Regular-47" x="143.847656"/>
      <use xlink:href="#Roboto-Regular-44" x="211.962891"/>
      <use xlink:href="#Roboto-Regular-4d" x="277.587891"/>
      <use xlink:href="#Roboto-Regular-4c" x="364.892578"/>
     </g>
    </g>
    <g id="line2d_20">
     <path d="M 159.835151 118.109135 
L 167.835151 118.109135 
L 175.835151 118.109135 
" style="fill: none; stroke-dasharray: 7.5,6; stroke-dashoffset: 0; stroke: #6c757d; stroke-width: 1.5"/>
    </g>
    <g id="text_8">
     <!-- Reference -->
     <g transform="translate(182.235151 120.909135) scale(0.08 -0.08)">
      <defs>
       <path id="Roboto-Regular-52" d="M 3188 0 
L 2200 1844 
L 1131 1844 
L 1131 0 
L 528 0 
L 528 4550 
L 2034 4550 
Q 2800 4550 3214 4200 
Q 3628 3850 3628 3184 
Q 3628 2759 3398 2442 
Q 3169 2125 2763 1969 
L 3831 38 
L 3831 0 
L 3188 0 
z
M 1131 4056 
L 1131 2334 
L 2053 2334 
Q 2538 2334 2783 2582 
Q 3028 2831 3028 3184 
Q 3028 3578 2792 3817 
Q 2556 4056 2034 4056 
L 1131 4056 
z
" transform="scale(0.015625)"/>
       <path id="Roboto-Regular-65" d="M 3116 591 
Q 2950 341 2647 139 
Q 2344 -63 1844 -63 
Q 1138 -63 714 396 
Q 291 856 291 1572 
L 291 1703 
Q 291 2256 502 2645 
Q 713 3034 1050 3239 
Q 1388 3444 1769 3444 
Q 2494 3444 2826 2970 
Q 3159 2497 3159 1788 
L 3159 1528 
L 872 1528 
Q 884 1063 1148 736 
Q 1413 409 1875 409 
Q 2181 409 2393 534 
Q 2606 659 2766 869 
L 3116 591 
z
M 1769 2969 
Q 1425 2969 1187 2719 
Q 950 2469 891 2000 
L 2581 2000 
L 2581 2044 
Q 2559 2381 2386 2675 
Q 2213 2969 1769 2969 
z
" transform="scale(0.015625)"/>
       <path id="Roboto-Regular-66" d="M 2022 2938 
L 1303 2938 
L 1303 0 
L 725 0 
L 725 2938 
L 191 2938 
L 191 3381 
L 725 3381 
L 725 3759 
Q 731 4297 1026 4581 
Q 1322 4866 1834 4866 
Q 2025 4866 2234 4816 
L 2203 4344 
Q 2072 4372 1891 4372 
Q 1313 4372 1303 3756 
L 1303 3381 
L 2022 3381 
L 2022 2938 
z
" transform="scale(0.015625)"/>
       <path id="Roboto-Regular-72" d="M 1791 2888 
Q 1225 2888 1019 2400 
L 1019 0 
L 441 0 
L 441 3381 
L 1003 3381 
L 1016 2994 
Q 1294 3444 1819 3444 
Q 1981 3444 2075 3400 
L 2072 2863 
Q 1944 2888 1791 2888 
z
" transform="scale(0.015625)"/>
       <path id="Roboto-Regular-6e" d="M 1844 2956 
Q 1566 2956 1353 2806 
Q 1141 2656 1019 2416 
L 1019 0 
L 441 0 
L 441 3381 
L 988 3381 
L 1006 2959 
Q 1391 3444 2016 3444 
Q 2513 3444 2805 3166 
Q 3097 2888 3100 2231 
L 3100 0 
L 2519 0 
L 2519 2222 
Q 2519 2619 2345 2787 
Q 2172 2956 1844 2956 
z
" transform="scale(0.015625)"/>
       <path id="Roboto-Regular-63" d="M 1794 413 
Q 2103 413 2336 597 
Q 2569 781 2591 1069 
L 3141 1069 
Q 3119 616 2725 276 
Q 2331 -63 1794 -63 
Q 1031 -63 661 440 
Q 291 944 291 1625 
L 291 1756 
Q 291 2438 661 2941 
Q 1031 3444 1794 3444 
Q 2388 3444 2753 3092 
Q 3119 2741 3141 2219 
L 2591 2219 
Q 2569 2531 2355 2750 
Q 2141 2969 1794 2969 
Q 1438 2969 1236 2787 
Q 1034 2606 951 2328 
Q 869 2050 869 1756 
L 869 1625 
Q 869 1328 950 1050 
Q 1031 772 1232 592 
Q 1434 413 1794 413 
z
" transform="scale(0.015625)"/>
      </defs>
      <use xlink:href="#Roboto-Regular-52"/>
      <use xlink:href="#Roboto-Regular-65" x="61.621094"/>
      <use xlink:href="#Roboto-Regular-66" x="114.648438"/>
      <use xlink:href="#Roboto-Regular-65" x="149.414062"/>
      <use xlink:href="#Roboto-Regular-72" x="202.441406"/>
      <use xlink:href="#Roboto-Regular-65" x="236.328125"/>
      <use xlink:href="#Roboto-Regular-6e" x="289.355469"/>
      <use xlink:href="#Roboto-Regular-63" x="344.580078"/>
      <use xlink:href="#Roboto-Regular-65" x="396.923828"/>
     </g>
    </g>
   </g>
  </g>
  <g id="axes_2">
   <g id="patch_7">
    <path d="M 26.014459 266.515385 
L 225.432651 266.515385 
L 225.432651 139.78149 
L 26.014459 139.78149 
z
" style="fill: #ffffff"/>
   </g>
   <g id="line2d_21">
    <path d="M 26.014459 170.017345 
L 225.432651 170.017345 
" clip-path="url(#p73b686d98f)" style="fill: none; stroke-dasharray: 1.5,6; stroke-dashoffset: 0; stroke: #c0c0c0; stroke-width: 1.5"/>
   </g>
   <g id="line2d_22">
    <path d="M 27.260822 266.515385 
L 29.75355 266.515385 
L 32.246277 266.515385 
L 34.739005 266.515385 
L 37.231732 266.515385 
L 39.724459 266.515385 
L 42.217187 266.515385 
L 44.709914 266.515385 
L 47.202642 266.515385 
L 49.695369 266.515385 
L 52.188096 266.515385 
L 54.680824 266.515385 
L 57.173551 266.515385 
L 59.666279 266.515385 
L 62.159006 266.515385 
L 64.651733 266.515385 
L 67.144461 266.515385 
L 69.637188 266.515385 
L 72.129916 266.515385 
L 74.622643 266.515385 
L 77.11537 266.515385 
L 79.608098 266.496079 
L 82.100825 266.444872 
L 84.593553 266.149919 
L 87.08628 265.858907 
L 89.579007 264.505221 
L 92.071735 261.653823 
L 94.564462 256.421621 
L 97.05719 247.583449 
L 99.549917 233.629034 
L 102.042644 218.216339 
L 104.535372 204.157241 
L 107.028099 186.905242 
L 109.520827 173.270191 
L 112.013554 162.661492 
L 114.506281 156.623315 
L 116.999009 153.684303 
L 119.491736 152.856158 
L 121.984464 153.082226 
L 124.477191 154.582498 
L 126.969918 159.463484 
L 129.462646 160.854029 
L 131.955373 162.393418 
L 134.448101 164.546769 
L 136.940828 167.953574 
L 139.433555 168.403153 
L 141.926283 167.811129 
L 144.41901 168.871406 
L 146.911738 169.791296 
L 149.404465 167.49719 
L 151.897192 167.106994 
L 154.38992 165.251978 
L 156.882647 161.94461 
L 159.375375 158.940486 
L 161.868102 157.541633 
L 164.360829 156.706169 
L 166.853557 155.438187 
L 169.346284 157.258517 
L 171.839012 158.620722 
L 174.331739 161.234009 
L 176.824466 164.108743 
L 179.317194 164.855087 
L 181.809921 165.697876 
L 184.302649 167.284381 
L 186.795376 167.682336 
L 189.288103 168.129639 
L 191.780831 168.829683 
L 194.273558 169.840352 
L 196.766286 170.360424 
L 199.259013 171.430666 
L 201.75174 171.150414 
L 204.244468 170.607588 
L 206.737195 172.317933 
L 209.229923 172.692535 
L 211.72265 172.181284 
L 214.215377 172.396659 
L 216.708105 172.057396 
L 219.200832 172.002352 
L 221.69356 171.984651 
L 224.186287 172.329507 
" clip-path="url(#p73b686d98f)" style="fill: none; stroke: #61bfa3; stroke-width: 1.5; stroke-linecap: square"/>
   </g>
   <g id="line2d_23">
    <path d="M 26.014459 266.515385 
L 64.954348 266.515385 
L 84.342228 266.515385 
L 88.248528 266.515385 
L 93.188846 266.515385 
L 97.210036 265.351764 
L 100.886553 259.639463 
L 102.265248 255.408124 
L 103.184376 250.965221 
L 103.988615 247.157009 
L 104.67796 243.137234 
L 105.367309 238.694331 
L 106.056654 234.251428 
L 106.63111 230.020089 
L 107.205566 225.365614 
L 107.780021 221.557411 
L 108.354477 216.691372 
L 108.928933 212.248461 
L 109.733172 206.747724 
L 110.307627 201.670113 
L 110.996972 197.015639 
L 111.801211 190.457066 
L 112.375667 186.225727 
L 113.065016 181.571252 
L 113.869251 176.916778 
L 114.656732 172.033491 
L 115.822401 166.126866 
L 116.856423 161.260828 
L 118.005334 157.241052 
L 119.269135 153.221281 
L 120.762719 149.836209 
L 123.060546 146.874272 
L 125.358369 145.816437 
L 127.311515 145.816437 
L 129.149771 146.662704 
L 130.988037 147.720539 
L 132.596506 148.566806 
L 134.204983 150.047777 
L 135.698572 151.105611 
L 137.421939 152.375014 
L 139.145306 153.644416 
L 140.868673 154.702251 
L 142.362253 155.548518 
L 143.97073 156.394785 
L 145.694097 156.817921 
L 147.532354 157.241052 
L 149.140831 157.241052 
L 150.864199 157.241052 
L 152.587566 157.241052 
L 154.425822 156.606353 
L 156.264087 155.760086 
L 157.987454 154.913815 
L 159.710822 154.067548 
L 161.319291 153.009713 
L 162.697989 152.163446 
L 164.306467 151.528747 
L 166.144724 151.528747 
L 167.868091 152.375014 
L 169.476568 153.85598 
L 170.855259 155.548518 
L 172.119059 157.664188 
L 173.38286 159.991421 
L 174.646662 162.107091 
L 176.02536 164.645896 
L 177.633839 166.761565 
L 179.127417 169.088807 
L 180.735896 170.992905 
L 182.229484 172.262311 
L 183.723063 173.320146 
L 185.56132 174.166409 
L 187.514475 174.589544 
L 189.467621 174.801108 
L 191.420774 174.589544 
L 193.488811 174.589544 
L 195.212185 174.801108 
L 197.050434 174.801108 
L 198.65892 175.224244 
L 200.612065 175.435815 
L 202.680102 176.070515 
L 204.288578 176.49365 
L 206.011945 176.916778 
L 207.735313 177.339913 
L 209.343799 177.763049 
L 211.067166 178.186184 
L 212.905415 178.397748 
L 214.5139 178.60932 
L 216.467046 178.820884 
L 218.420192 178.60932 
L 220.373339 178.397748 
L 222.55628 177.974612 
L 224.624308 177.339913 
L 226.675797 176.841869 
L 228.760396 176.070515 
L 230.723098 175.158933 
L 231.4 174.826535 
" clip-path="url(#p73b686d98f)" style="fill: none; stroke-dasharray: 7.5,6; stroke-dashoffset: 0; stroke: #6c757d; stroke-width: 1.5"/>
   </g>
   <g id="matplotlib.axis_3">
    <g id="xtick_10">
     <g id="line2d_24">
      <g>
       <use xlink:href="#m883e33d591" x="26.014459" y="266.515385" style="fill: #c2c1c1; stroke: #c2c1c1; stroke-width: 0.8"/>
      </g>
     </g>
    </g>
    <g id="xtick_11">
     <g id="line2d_25">
      <g>
       <use xlink:href="#m883e33d591" x="50.941733" y="266.515385" style="fill: #c2c1c1; stroke: #c2c1c1; stroke-width: 0.8"/>
      </g>
     </g>
    </g>
    <g id="xtick_12">
     <g id="line2d_26">
      <g>
       <use xlink:href="#m883e33d591" x="75.869007" y="266.515385" style="fill: #c2c1c1; stroke: #c2c1c1; stroke-width: 0.8"/>
      </g>
     </g>
    </g>
    <g id="xtick_13">
     <g id="line2d_27">
      <g>
       <use xlink:href="#m883e33d591" x="100.796281" y="266.515385" style="fill: #c2c1c1; stroke: #c2c1c1; stroke-width: 0.8"/>
      </g>
     </g>
    </g>
    <g id="xtick_14">
     <g id="line2d_28">
      <g>
       <use xlink:href="#m883e33d591" x="125.723555" y="266.515385" style="fill: #c2c1c1; stroke: #c2c1c1; stroke-width: 0.8"/>
      </g>
     </g>
    </g>
    <g id="xtick_15">
     <g id="line2d_29">
      <g>
       <use xlink:href="#m883e33d591" x="150.650829" y="266.515385" style="fill: #c2c1c1; stroke: #c2c1c1; stroke-width: 0.8"/>
      </g>
     </g>
    </g>
    <g id="xtick_16">
     <g id="line2d_30">
      <g>
       <use xlink:href="#m883e33d591" x="175.578103" y="266.515385" style="fill: #c2c1c1; stroke: #c2c1c1; stroke-width: 0.8"/>
      </g>
     </g>
    </g>
    <g id="xtick_17">
     <g id="line2d_31">
      <g>
       <use xlink:href="#m883e33d591" x="200.505377" y="266.515385" style="fill: #c2c1c1; stroke: #c2c1c1; stroke-width: 0.8"/>
      </g>
     </g>
    </g>
    <g id="xtick_18">
     <g id="line2d_32">
      <g>
       <use xlink:href="#m883e33d591" x="225.432651" y="266.515385" style="fill: #c2c1c1; stroke: #c2c1c1; stroke-width: 0.8"/>
      </g>
     </g>
    </g>
   </g>
   <g id="matplotlib.axis_4">
    <g id="ytick_7">
     <g id="line2d_33">
      <g>
       <use xlink:href="#mcf20ffff4f" x="26.014459" y="266.515385" style="fill: #c2c1c1; stroke: #c2c1c1; stroke-width: 0.8"/>
      </g>
     </g>
     <g id="text_9">
      <!-- 0 -->
      <g style="fill: #191919" transform="translate(15.08024 269.140385) scale(0.07 -0.07)">
       <use xlink:href="#Roboto-Regular-30"/>
      </g>
     </g>
    </g>
    <g id="ytick_8">
     <g id="line2d_34">
      <g>
       <use xlink:href="#mcf20ffff4f" x="26.014459" y="170.017345" style="fill: #c2c1c1; stroke: #c2c1c1; stroke-width: 0.8"/>
      </g>
     </g>
     <g id="text_10">
      <!-- 1 -->
      <g style="fill: #191919" transform="translate(15.08024 172.642345) scale(0.07 -0.07)">
       <use xlink:href="#Roboto-Regular-31"/>
      </g>
     </g>
    </g>
    <g id="ytick_9">
     <g id="line2d_35">
      <g>
       <use xlink:href="#me6bf5dcac4" x="26.014459" y="218.266365" style="fill: #c2c1c1; stroke: #c2c1c1; stroke-width: 0.6"/>
      </g>
     </g>
    </g>
    <g id="text_11">
     <!-- g$\mathregular{_{NN}}$(r) -->
     <g style="fill: #191919" transform="translate(9.32024 213.868438) rotate(-90) scale(0.08 -0.08)">
      <defs>
       <path id="Roboto-Black-4e" d="M 4147 4550 
L 4147 0 
L 3053 0 
L 1444 2831 
L 1444 0 
L 347 0 
L 347 4550 
L 1444 4550 
L 3053 1719 
L 3053 4550 
L 4147 4550 
z
" transform="scale(0.015625)"/>
      </defs>
      <use xlink:href="#Roboto-Black-67" transform="translate(0 0.578125)"/>
      <use xlink:href="#Roboto-Black-4e" transform="translate(58.492852 -15.270313) scale(0.7)"/>
      <use xlink:href="#Roboto-Black-4e" transform="translate(107.643242 -15.270313) scale(0.7)"/>
      <use xlink:href="#Roboto-Black-28" transform="translate(159.435039 0.578125)"/>
      <use xlink:href="#Roboto-Black-72" transform="translate(194.737773 0.578125)"/>
      <use xlink:href="#Roboto-Black-29" transform="translate(232.628398 0.578125)"/>
     </g>
    </g>
   </g>
   <g id="patch_8">
    <path d="M 26.014459 266.515385 
L 26.014459 139.78149 
" style="fill: none; stroke: #c2c1c1; stroke-width: 0.8; stroke-linejoin: miter; stroke-linecap: square"/>
   </g>
   <g id="patch_9">
    <path d="M 225.432651 266.515385 
L 225.432651 139.78149 
" style="fill: none; stroke: #c2c1c1; stroke-width: 0.8; stroke-linejoin: miter; stroke-linecap: square"/>
   </g>
   <g id="patch_10">
    <path d="M 26.014459 266.515385 
L 225.432651 266.515385 
" style="fill: none; stroke: #c2c1c1; stroke-width: 0.8; stroke-linejoin: miter; stroke-linecap: square"/>
   </g>
   <g id="patch_11">
    <path d="M 26.014459 139.78149 
L 225.432651 139.78149 
" style="fill: none; stroke: #c2c1c1; stroke-width: 0.8; stroke-linejoin: miter; stroke-linecap: square"/>
   </g>
   <g id="text_12">
    <!-- B -->
    <g transform="translate(30.002823 152.45488) scale(0.096 -0.096)">
     <defs>
      <path id="Roboto-Bold-42" d="M 3788 1341 
Q 3788 684 3369 345 
Q 2950 6 2175 0 
L 406 0 
L 406 4550 
L 2003 4550 
Q 2794 4550 3241 4247 
Q 3688 3944 3688 3306 
Q 3688 2997 3531 2737 
Q 3375 2478 3038 2344 
Q 3438 2244 3613 1956 
Q 3788 1669 3788 1341 
z
M 1347 3791 
L 1347 2647 
L 2003 2647 
Q 2747 2647 2747 3209 
Q 2747 3778 2034 3791 
L 1347 3791 
z
M 2850 1350 
Q 2850 1963 2231 1984 
L 1347 1984 
L 1347 756 
L 2147 756 
Q 2506 756 2678 925 
Q 2850 1094 2850 1350 
z
" transform="scale(0.015625)"/>
     </defs>
     <use xlink:href="#Roboto-Bold-42"/>
    </g>
   </g>
   <g id="text_13">
    <!-- MeCN -->
    <g transform="translate(30.002823 261.446029) scale(0.08 -0.08)">
     <defs>
      <path id="Roboto-Regular-43" d="M 3275 1447 
L 3875 1447 
Q 3806 800 3387 368 
Q 2969 -63 2150 -63 
Q 1356 -63 870 504 
Q 384 1072 375 2013 
L 375 2500 
Q 375 3456 867 4034 
Q 1359 4613 2203 4613 
Q 2975 4613 3390 4188 
Q 3806 3763 3875 3091 
L 3275 3091 
Q 3206 3566 2968 3842 
Q 2731 4119 2203 4119 
Q 1600 4119 1287 3675 
Q 975 3231 975 2506 
L 975 2047 
Q 975 1375 1259 901 
Q 1544 428 2150 428 
Q 2725 428 2961 697 
Q 3197 966 3275 1447 
z
" transform="scale(0.015625)"/>
      <path id="Roboto-Regular-4e" d="M 4028 4550 
L 4028 0 
L 3422 0 
L 1131 3509 
L 1131 0 
L 528 0 
L 528 4550 
L 1131 4550 
L 3431 1031 
L 3431 4550 
L 4028 4550 
z
" transform="scale(0.015625)"/>
     </defs>
     <use xlink:href="#Roboto-Regular-4d"/>
     <use xlink:href="#Roboto-Regular-65" x="87.304688"/>
     <use xlink:href="#Roboto-Regular-43" x="140.332031"/>
     <use xlink:href="#Roboto-Regular-4e" x="205.419922"/>
    </g>
   </g>
  </g>
  <g id="axes_3">
   <g id="patch_12">
    <path d="M 26.014459 403.296635 
L 225.432651 403.296635 
L 225.432651 276.56274 
L 26.014459 276.56274 
z
" style="fill: #ffffff"/>
   </g>
   <g id="line2d_36">
    <path d="M 26.014459 347.79126 
L 225.432651 347.79126 
" clip-path="url(#pd1794fb431)" style="fill: none; stroke-dasharray: 1.5,6; stroke-dashoffset: 0; stroke: #c0c0c0; stroke-width: 1.5"/>
   </g>
   <g id="line2d_37">
    <path d="M 27.260822 403.296635 
L 29.75355 403.296635 
L 32.246277 403.296635 
L 34.739005 403.296635 
L 37.231732 403.296635 
L 39.724459 403.296635 
L 42.217187 403.296635 
L 44.709914 403.296635 
L 47.202642 403.296635 
L 49.695369 403.296635 
L 52.188096 403.296635 
L 54.680824 403.296635 
L 57.173551 403.296635 
L 59.666279 403.296635 
L 62.159006 403.296635 
L 64.651733 403.296635 
L 67.144461 403.296635 
L 69.637188 403.296635 
L 72.129916 403.296635 
L 74.622643 403.296635 
L 77.11537 403.296635 
L 79.608098 403.296635 
L 82.100825 403.296635 
L 84.593553 403.119594 
L 87.08628 399.921719 
L 89.579007 380.635888 
L 92.071735 338.17721 
L 94.564462 297.020287 
L 97.05719 282.597687 
L 99.549917 296.028735 
L 102.042644 315.855013 
L 104.535372 335.10565 
L 107.028099 348.179641 
L 109.520827 354.457204 
L 112.013554 358.921302 
L 114.506281 361.692196 
L 116.999009 362.022123 
L 119.491736 361.418871 
L 121.984464 360.793185 
L 124.477191 359.289422 
L 126.969918 356.509093 
L 129.462646 353.207751 
L 131.955373 350.38321 
L 134.448101 347.638954 
L 136.940828 345.72897 
L 139.433555 343.493149 
L 141.926283 343.363216 
L 144.41901 342.991812 
L 146.911738 344.226747 
L 149.404465 346.415966 
L 151.897192 348.079726 
L 154.38992 349.147057 
L 156.882647 350.168719 
L 159.375375 350.586358 
L 161.868102 351.49023 
L 164.360829 351.563043 
L 166.853557 350.838396 
L 169.346284 349.615168 
L 171.839012 350.053332 
L 174.331739 349.640756 
L 176.824466 348.735907 
L 179.317194 348.2272 
L 181.809921 348.298914 
L 184.302649 348.03276 
L 186.795376 347.796524 
L 189.288103 346.698131 
L 191.780831 346.954648 
L 194.273558 346.872912 
L 196.766286 345.828359 
L 199.259013 345.707394 
L 201.75174 344.995522 
L 204.244468 345.210347 
L 206.737195 345.311562 
L 209.229923 344.800438 
L 211.72265 345.219226 
L 214.215377 345.292224 
L 216.708105 345.873374 
L 219.200832 345.737096 
L 221.69356 346.064087 
L 224.186287 345.18339 
" clip-path="url(#pd1794fb431)" style="fill: none; stroke: #ffb5ba; stroke-width: 1.5; stroke-linecap: square"/>
   </g>
   <g id="line2d_38">
    <path d="M 30.752483 403.296635 
L 63.918656 403.296635 
L 80.764965 403.296635 
L 84.186872 402.627358 
L 86.029437 400.753382 
L 86.819108 397.273142 
L 87.608779 393.52519 
L 87.872002 389.241817 
L 88.39845 385.761577 
L 88.39845 382.013625 
L 88.661673 377.462541 
L 88.661673 372.376036 
L 88.924897 368.360374 
L 89.18812 363.80929 
L 89.451344 351.762303 
L 89.714568 347.211219 
L 89.977791 343.195557 
L 90.504238 338.644473 
L 90.767462 329.542306 
L 91.293909 325.794354 
L 91.557133 320.440138 
L 91.820356 315.085922 
L 92.08358 304.6452 
L 92.610027 300.361827 
L 92.873251 297.149297 
L 93.662921 293.936767 
L 94.715816 297.417008 
L 95.505487 300.094116 
L 96.031934 302.771224 
L 96.295157 305.448332 
L 96.821604 308.393151 
L 97.084828 311.33797 
L 97.611275 314.282789 
L 97.874499 317.495319 
L 98.137722 320.707849 
L 98.400946 324.188089 
L 98.66417 327.400619 
L 99.190617 330.345438 
L 99.717064 333.022546 
L 99.980288 336.235076 
L 100.769958 339.447606 
L 101.296406 342.660136 
L 102.086076 345.872665 
L 102.875747 349.620617 
L 103.665418 352.833147 
L 104.718312 355.777965 
L 106.03443 358.455074 
L 107.613772 360.329049 
L 109.456337 362.470736 
L 111.562126 364.612422 
L 113.667914 364.880133 
L 116.30015 364.612422 
L 118.669162 363.273868 
L 120.774951 361.132182 
L 122.88074 359.258206 
L 124.723305 357.919652 
L 126.56587 356.313387 
L 127.881988 353.90399 
L 129.198106 352.030014 
L 131.040671 349.888328 
L 132.883236 347.47893 
L 134.725801 344.801822 
L 136.568367 342.392425 
L 138.674155 339.983027 
L 141.306391 340.250738 
L 143.675404 341.053871 
L 146.307639 342.660136 
L 148.676652 343.99869 
L 150.255993 345.872665 
L 152.361782 347.211219 
L 154.730794 348.014352 
L 156.836583 348.549774 
L 159.995266 349.620617 
L 162.890726 350.156038 
L 165.786185 350.69146 
L 168.155197 350.69146 
L 170.52421 350.423749 
L 173.419669 350.423749 
L 176.051905 349.888328 
L 178.947365 349.620617 
L 181.316377 348.817484 
L 183.158942 348.549774 
L 185.264731 348.014352 
L 187.633743 347.47893 
L 190.265979 347.211219 
L 193.161438 346.943509 
L 195.267227 346.943509 
L 197.899463 346.943509 
L 199.742028 346.943509 
L 202.374264 346.675798 
L 204.743276 347.211219 
L 207.638736 347.47893 
L 210.270972 347.746641 
L 212.903208 347.746641 
L 215.27222 348.014352 
L 217.904456 348.549774 
L 221.063139 348.817484 
L 224.485046 349.085195 
L 228.170176 349.085195 
L 231.065635 349.085195 
L 231.4 349.085195 
" clip-path="url(#pd1794fb431)" style="fill: none; stroke-dasharray: 7.5,6; stroke-dashoffset: 0; stroke: #6c757d; stroke-width: 1.5"/>
   </g>
   <g id="matplotlib.axis_5">
    <g id="xtick_19">
     <g id="line2d_39">
      <g>
       <use xlink:href="#m883e33d591" x="26.014459" y="403.296635" style="fill: #c2c1c1; stroke: #c2c1c1; stroke-width: 0.8"/>
      </g>
     </g>
     <g id="text_14">
      <!-- 0 -->
      <g style="fill: #191919" transform="translate(24.047349 415.546635) scale(0.07 -0.07)">
       <use xlink:href="#Roboto-Regular-30"/>
      </g>
     </g>
    </g>
    <g id="xtick_20">
     <g id="line2d_40">
      <g>
       <use xlink:href="#m883e33d591" x="50.941733" y="403.296635" style="fill: #c2c1c1; stroke: #c2c1c1; stroke-width: 0.8"/>
      </g>
     </g>
     <g id="text_15">
      <!-- 1 -->
      <g style="fill: #191919" transform="translate(48.974623 415.546635) scale(0.07 -0.07)">
       <use xlink:href="#Roboto-Regular-31"/>
      </g>
     </g>
    </g>
    <g id="xtick_21">
     <g id="line2d_41">
      <g>
       <use xlink:href="#m883e33d591" x="75.869007" y="403.296635" style="fill: #c2c1c1; stroke: #c2c1c1; stroke-width: 0.8"/>
      </g>
     </g>
     <g id="text_16">
      <!-- 2 -->
      <g style="fill: #191919" transform="translate(73.901897 415.546635) scale(0.07 -0.07)">
       <use xlink:href="#Roboto-Regular-32"/>
      </g>
     </g>
    </g>
    <g id="xtick_22">
     <g id="line2d_42">
      <g>
       <use xlink:href="#m883e33d591" x="100.796281" y="403.296635" style="fill: #c2c1c1; stroke: #c2c1c1; stroke-width: 0.8"/>
      </g>
     </g>
     <g id="text_17">
      <!-- 3 -->
      <g style="fill: #191919" transform="translate(98.829171 415.546635) scale(0.07 -0.07)">
       <defs>
        <path id="Roboto-Regular-33" d="M 1222 2084 
L 1222 2559 
L 1647 2559 
Q 2094 2563 2312 2784 
Q 2531 3006 2531 3338 
Q 2531 4138 1738 4138 
Q 1369 4138 1141 3927 
Q 913 3716 913 3359 
L 334 3359 
Q 334 3881 720 4247 
Q 1106 4613 1738 4613 
Q 2353 4613 2733 4286 
Q 3113 3959 3113 3325 
Q 3113 3072 2942 2784 
Q 2772 2497 2397 2338 
Q 2850 2191 3015 1884 
Q 3181 1578 3181 1269 
Q 3181 631 2768 284 
Q 2356 -63 1741 -63 
Q 1147 -63 722 267 
Q 297 597 297 1203 
L 875 1203 
Q 875 844 1108 628 
Q 1341 413 1741 413 
Q 2138 413 2369 622 
Q 2600 831 2600 1256 
Q 2600 1681 2337 1882 
Q 2075 2084 1634 2084 
L 1222 2084 
z
" transform="scale(0.015625)"/>
       </defs>
       <use xlink:href="#Roboto-Regular-33"/>
      </g>
     </g>
    </g>
    <g id="xtick_23">
     <g id="line2d_43">
      <g>
       <use xlink:href="#m883e33d591" x="125.723555" y="403.296635" style="fill: #c2c1c1; stroke: #c2c1c1; stroke-width: 0.8"/>
      </g>
     </g>
     <g id="text_18">
      <!-- 4 -->
      <g style="fill: #191919" transform="translate(123.756445 415.546635) scale(0.07 -0.07)">
       <defs>
        <path id="Roboto-Regular-34" d="M 166 1397 
L 2203 4550 
L 2819 4550 
L 2819 1531 
L 3453 1531 
L 3453 1056 
L 2819 1056 
L 2819 0 
L 2241 0 
L 2241 1056 
L 166 1056 
L 166 1397 
z
M 822 1531 
L 2241 1531 
L 2241 3766 
L 2169 3638 
L 822 1531 
z
" transform="scale(0.015625)"/>
       </defs>
       <use xlink:href="#Roboto-Regular-34"/>
      </g>
     </g>
    </g>
    <g id="xtick_24">
     <g id="line2d_44">
      <g>
       <use xlink:href="#m883e33d591" x="150.650829" y="403.296635" style="fill: #c2c1c1; stroke: #c2c1c1; stroke-width: 0.8"/>
      </g>
     </g>
     <g id="text_19">
      <!-- 5 -->
      <g style="fill: #191919" transform="translate(148.683719 415.546635) scale(0.07 -0.07)">
       <defs>
        <path id="Roboto-Regular-35" d="M 1109 2166 
L 647 2284 
L 875 4550 
L 3209 4550 
L 3209 4016 
L 1366 4016 
L 1228 2778 
Q 1572 2975 1988 2975 
Q 2616 2975 2980 2561 
Q 3344 2147 3344 1450 
Q 3344 797 2987 367 
Q 2631 -63 1903 -63 
Q 1350 -63 947 248 
Q 544 559 481 1197 
L 1031 1197 
Q 1141 413 1903 413 
Q 2313 413 2538 691 
Q 2763 969 2763 1444 
Q 2763 1872 2527 2164 
Q 2291 2456 1853 2456 
Q 1563 2456 1413 2378 
Q 1263 2300 1109 2166 
z
" transform="scale(0.015625)"/>
       </defs>
       <use xlink:href="#Roboto-Regular-35"/>
      </g>
     </g>
    </g>
    <g id="xtick_25">
     <g id="line2d_45">
      <g>
       <use xlink:href="#m883e33d591" x="175.578103" y="403.296635" style="fill: #c2c1c1; stroke: #c2c1c1; stroke-width: 0.8"/>
      </g>
     </g>
     <g id="text_20">
      <!-- 6 -->
      <g style="fill: #191919" transform="translate(173.610993 415.546635) scale(0.07 -0.07)">
       <defs>
        <path id="Roboto-Regular-36" d="M 3291 1484 
Q 3291 838 2930 387 
Q 2569 -63 1878 -63 
Q 1388 -63 1063 198 
Q 738 459 577 861 
Q 416 1263 416 1684 
L 416 1956 
Q 416 2597 595 3194 
Q 775 3791 1247 4173 
Q 1719 4556 2597 4556 
L 2647 4556 
L 2647 4066 
Q 2041 4066 1705 3853 
Q 1369 3641 1205 3302 
Q 1041 2963 1006 2575 
Q 1369 2984 1984 2984 
Q 2438 2984 2727 2765 
Q 3016 2547 3153 2201 
Q 3291 1856 3291 1484 
z
M 997 1666 
Q 997 1059 1267 737 
Q 1538 416 1878 416 
Q 2278 416 2498 708 
Q 2719 1000 2719 1456 
Q 2719 1863 2516 2184 
Q 2313 2506 1891 2506 
Q 1588 2506 1341 2325 
Q 1094 2144 997 1884 
L 997 1666 
z
" transform="scale(0.015625)"/>
       </defs>
       <use xlink:href="#Roboto-Regular-36"/>
      </g>
     </g>
    </g>
    <g id="xtick_26">
     <g id="line2d_46">
      <g>
       <use xlink:href="#m883e33d591" x="200.505377" y="403.296635" style="fill: #c2c1c1; stroke: #c2c1c1; stroke-width: 0.8"/>
      </g>
     </g>
     <g id="text_21">
      <!-- 7 -->
      <g style="fill: #191919" transform="translate(198.538267 415.546635) scale(0.07 -0.07)">
       <defs>
        <path id="Roboto-Regular-37" d="M 3319 4550 
L 3319 4225 
L 1434 0 
L 825 0 
L 2706 4075 
L 244 4075 
L 244 4550 
L 3319 4550 
z
" transform="scale(0.015625)"/>
       </defs>
       <use xlink:href="#Roboto-Regular-37"/>
      </g>
     </g>
    </g>
    <g id="xtick_27">
     <g id="line2d_47">
      <g>
       <use xlink:href="#m883e33d591" x="225.432651" y="403.296635" style="fill: #c2c1c1; stroke: #c2c1c1; stroke-width: 0.8"/>
      </g>
     </g>
     <g id="text_22">
      <!-- 8 -->
      <g style="fill: #191919" transform="translate(223.465541 415.546635) scale(0.07 -0.07)">
       <defs>
        <path id="Roboto-Regular-38" d="M 3244 1231 
Q 3244 606 2826 271 
Q 2409 -63 1796 -63 
Q 1184 -63 767 271 
Q 350 606 350 1231 
Q 350 1613 554 1905 
Q 759 2197 1109 2347 
Q 806 2494 629 2762 
Q 453 3031 453 3366 
Q 453 3963 833 4288 
Q 1213 4613 1794 4613 
Q 2378 4613 2758 4288 
Q 3138 3963 3138 3366 
Q 3138 3028 2956 2761 
Q 2775 2494 2472 2347 
Q 2825 2197 3034 1903 
Q 3244 1609 3244 1231 
z
M 2559 3356 
Q 2559 3697 2346 3917 
Q 2134 4138 1793 4138 
Q 1453 4138 1243 3927 
Q 1034 3716 1034 3356 
Q 1034 3003 1243 2790 
Q 1453 2578 1797 2578 
Q 2138 2578 2348 2790 
Q 2559 3003 2559 3356 
z
M 2663 1244 
Q 2663 1625 2420 1865 
Q 2178 2106 1791 2106 
Q 1394 2106 1161 1865 
Q 928 1625 928 1244 
Q 928 850 1161 631 
Q 1394 413 1797 413 
Q 2200 413 2431 631 
Q 2663 850 2663 1244 
z
" transform="scale(0.015625)"/>
       </defs>
       <use xlink:href="#Roboto-Regular-38"/>
      </g>
     </g>
    </g>
    <g id="text_23">
     <!-- r (Ang.) -->
     <g style="fill: #191919" transform="translate(111.893555 427.24226) scale(0.08 -0.08)">
      <defs>
       <path id="Roboto-Black-20" transform="scale(0.015625)"/>
       <path id="Roboto-Black-41" d="M -13 0 
L 1659 4550 
L 2694 4550 
L 4375 0 
L 3194 0 
L 2931 850 
L 1428 850 
L 1166 0 
L -13 0 
z
M 1691 1697 
L 2669 1697 
L 2178 3281 
L 1691 1697 
z
" transform="scale(0.015625)"/>
       <path id="Roboto-Black-6e" d="M 1788 2631 
Q 1478 2631 1331 2391 
L 1331 0 
L 278 0 
L 278 3381 
L 1266 3381 
L 1300 2988 
Q 1653 3444 2263 3444 
Q 2731 3444 3026 3156 
Q 3322 2869 3325 2144 
L 3325 0 
L 2266 0 
L 2266 2131 
Q 2266 2438 2141 2534 
Q 2016 2631 1788 2631 
z
" transform="scale(0.015625)"/>
       <path id="Roboto-Black-2e" d="M 366 494 
Q 366 719 527 870 
Q 688 1022 947 1022 
Q 1206 1022 1367 870 
Q 1528 719 1528 494 
Q 1528 269 1367 117 
Q 1206 -34 947 -34 
Q 688 -34 527 117 
Q 366 269 366 494 
z
" transform="scale(0.015625)"/>
      </defs>
      <use xlink:href="#Roboto-Black-72"/>
      <use xlink:href="#Roboto-Black-20" x="37.890625"/>
      <use xlink:href="#Roboto-Black-28" x="62.792969"/>
      <use xlink:href="#Roboto-Black-41" x="98.095703"/>
      <use xlink:href="#Roboto-Black-6e" x="166.210938"/>
      <use xlink:href="#Roboto-Black-67" x="222.65625"/>
      <use xlink:href="#Roboto-Black-2e" x="280.224609"/>
      <use xlink:href="#Roboto-Black-29" x="310.498047"/>
     </g>
    </g>
   </g>
   <g id="matplotlib.axis_6">
    <g id="ytick_10">
     <g id="line2d_48">
      <g>
       <use xlink:href="#mcf20ffff4f" x="26.014459" y="403.296635" style="fill: #c2c1c1; stroke: #c2c1c1; stroke-width: 0.8"/>
      </g>
     </g>
     <g id="text_24">
      <!-- 0 -->
      <g style="fill: #191919" transform="translate(15.08024 405.921635) scale(0.07 -0.07)">
       <use xlink:href="#Roboto-Regular-30"/>
      </g>
     </g>
    </g>
    <g id="ytick_11">
     <g id="line2d_49">
      <g>
       <use xlink:href="#mcf20ffff4f" x="26.014459" y="347.79126" style="fill: #c2c1c1; stroke: #c2c1c1; stroke-width: 0.8"/>
      </g>
     </g>
     <g id="text_25">
      <!-- 1 -->
      <g style="fill: #191919" transform="translate(15.08024 350.41626) scale(0.07 -0.07)">
       <use xlink:href="#Roboto-Regular-31"/>
      </g>
     </g>
    </g>
    <g id="ytick_12">
     <g id="line2d_50">
      <g>
       <use xlink:href="#mcf20ffff4f" x="26.014459" y="292.285884" style="fill: #c2c1c1; stroke: #c2c1c1; stroke-width: 0.8"/>
      </g>
     </g>
     <g id="text_26">
      <!-- 2 -->
      <g style="fill: #191919" transform="translate(15.08024 294.910884) scale(0.07 -0.07)">
       <use xlink:href="#Roboto-Regular-32"/>
      </g>
     </g>
    </g>
    <g id="ytick_13">
     <g id="line2d_51">
      <g>
       <use xlink:href="#me6bf5dcac4" x="26.014459" y="375.543947" style="fill: #c2c1c1; stroke: #c2c1c1; stroke-width: 0.6"/>
      </g>
     </g>
    </g>
    <g id="ytick_14">
     <g id="line2d_52">
      <g>
       <use xlink:href="#me6bf5dcac4" x="26.014459" y="320.038572" style="fill: #c2c1c1; stroke: #c2c1c1; stroke-width: 0.6"/>
      </g>
     </g>
    </g>
    <g id="text_27">
     <!-- g$\mathregular{_{OO}}$(r) -->
     <g style="fill: #191919" transform="translate(9.32024 350.609688) rotate(-90) scale(0.08 -0.08)">
      <use xlink:href="#Roboto-Black-67" transform="translate(0 0.578125)"/>
      <use xlink:href="#Roboto-Black-4f" transform="translate(58.492852 -15.270313) scale(0.7)"/>
      <use xlink:href="#Roboto-Black-4f" transform="translate(106.82293 -15.270313) scale(0.7)"/>
      <use xlink:href="#Roboto-Black-28" transform="translate(157.794414 0.578125)"/>
      <use xlink:href="#Roboto-Black-72" transform="translate(193.097148 0.578125)"/>
      <use xlink:href="#Roboto-Black-29" transform="translate(230.987773 0.578125)"/>
     </g>
    </g>
   </g>
   <g id="patch_13">
    <path d="M 26.014459 403.296635 
L 26.014459 276.56274 
" style="fill: none; stroke: #c2c1c1; stroke-width: 0.8; stroke-linejoin: miter; stroke-linecap: square"/>
   </g>
   <g id="patch_14">
    <path d="M 225.432651 403.296635 
L 225.432651 276.56274 
" style="fill: none; stroke: #c2c1c1; stroke-width: 0.8; stroke-linejoin: miter; stroke-linecap: square"/>
   </g>
   <g id="patch_15">
    <path d="M 26.014459 403.296635 
L 225.432651 403.296635 
" style="fill: none; stroke: #c2c1c1; stroke-width: 0.8; stroke-linejoin: miter; stroke-linecap: square"/>
   </g>
   <g id="patch_16">
    <path d="M 26.014459 276.56274 
L 225.432651 276.56274 
" style="fill: none; stroke: #c2c1c1; stroke-width: 0.8; stroke-linejoin: miter; stroke-linecap: square"/>
   </g>
   <g id="text_28">
    <!-- C -->
    <g transform="translate(30.002823 289.23613) scale(0.096 -0.096)">
     <defs>
      <path id="Roboto-Bold-43" d="M 3044 1516 
L 3981 1516 
Q 3934 822 3461 379 
Q 2988 -63 2150 -63 
Q 1275 -63 772 526 
Q 269 1116 269 2125 
L 269 2422 
Q 269 3431 784 4023 
Q 1300 4616 2159 4616 
Q 3013 4616 3466 4161 
Q 3919 3706 3984 3006 
L 3047 3006 
Q 3016 3413 2820 3630 
Q 2625 3847 2159 3847 
Q 1247 3847 1222 2500 
L 1222 2125 
Q 1222 1419 1436 1062 
Q 1650 706 2150 706 
Q 2594 706 2801 907 
Q 3009 1109 3044 1516 
z
" transform="scale(0.015625)"/>
     </defs>
     <use xlink:href="#Roboto-Bold-43"/>
    </g>
   </g>
   <g id="text_29">
    <!-- MeOH -->
    <g transform="translate(30.002823 398.227279) scale(0.08 -0.08)">
     <use xlink:href="#Roboto-Regular-4d"/>
     <use xlink:href="#Roboto-Regular-65" x="87.304688"/>
     <use xlink:href="#Roboto-Regular-4f" x="140.332031"/>
     <use xlink:href="#Roboto-Regular-48" x="209.130859"/>
    </g>
   </g>
  </g>
 </g>
 <defs>
  <clipPath id="p6a92313631">
   <rect x="26.014459" y="3.00024" width="199.418192" height="126.733895"/>
  </clipPath>
  <clipPath id="p73b686d98f">
   <rect x="26.014459" y="139.78149" width="199.418192" height="126.733895"/>
  </clipPath>
  <clipPath id="pd1794fb431">
   <rect x="26.014459" y="276.56274" width="199.418192" height="126.733895"/>
  </clipPath>
 </defs>
</svg>
