<?xml version="1.0" encoding="utf-8" standalone="no"?>
<!DOCTYPE svg PUBLIC "-//W3C//DTD SVG 1.1//EN"
  "http://www.w3.org/Graphics/SVG/1.1/DTD/svg11.dtd">
<svg xmlns:xlink="http://www.w3.org/1999/xlink" width="230.4pt" height="360pt" viewBox="0 0 230.4 360" xmlns="http://www.w3.org/2000/svg" version="1.1">
 <metadata>
  <rdf:RDF xmlns:dc="http://purl.org/dc/elements/1.1/" xmlns:cc="http://creativecommons.org/ns#" xmlns:rdf="http://www.w3.org/1999/02/22-rdf-syntax-ns#">
   <cc:Work>
    <dc:type rdf:resource="http://purl.org/dc/dcmitype/StillImage"/>
    <dc:date>2022-12-22T11:35:18.835288</dc:date>
    <dc:format>image/svg+xml</dc:format>
    <dc:creator>
     <cc:Agent>
      <dc:title>Matplotlib v3.5.2, https://matplotlib.org/</dc:title>
     </cc:Agent>
    </dc:creator>
   </cc:Work>
  </rdf:RDF>
 </metadata>
 <defs>
  <style type="text/css">*{stroke-linejoin: round; stroke-linecap: butt}</style>
 </defs>
 <g id="figure_1">
  <g id="patch_1">
   <path d="M 0 360 
L 230.4 360 
L 230.4 0 
L 0 0 
z
" style="fill: #ffffff"/>
  </g>
  <g id="axes_1">
   <g id="patch_2">
    <path d="M 26.014459 105.557885 
L 225.432651 105.557885 
L 225.432651 3.00024 
L 26.014459 3.00024 
z
" style="fill: #ffffff"/>
   </g>
   <g id="line2d_1">
    <path d="M 26.014459 76.255701 
L 225.432651 76.255701 
" clip-path="url(#p7f030572a3)" style="fill: none; stroke-dasharray: 1.5,6; stroke-dashoffset: 0; stroke: #c0c0c0; stroke-width: 1.5"/>
   </g>
   <g id="line2d_2">
    <path d="M -1 105.557885 
L 35.93437 105.557885 
L 39.179214 104.908034 
L 41.126113 103.017567 
L 42.424057 100.654491 
L 43.073013 97.818795 
L 43.073013 94.9831 
L 43.72197 92.147404 
L 43.72197 89.548013 
L 44.046463 86.948622 
L 44.370957 84.112926 
L 44.370957 81.51354 
L 45.019913 78.914155 
L 45.019913 76.078459 
L 45.019913 73.479068 
L 45.344407 70.879682 
L 45.66887 68.280296 
L 45.66887 65.680905 
L 45.66887 62.608905 
L 45.993363 59.536899 
L 46.317857 53.156584 
L 46.64232 49.611965 
L 46.966813 46.776269 
L 46.966813 43.704264 
L 47.291306 41.104878 
L 47.291306 38.032873 
L 47.940263 35.197177 
L 48.264756 32.125174 
L 48.58922 29.289479 
L 49.56267 27.162707 
L 51.185106 28.816862 
L 51.834063 31.888867 
L 52.48302 34.724563 
L 53.132006 38.032873 
L 54.105456 41.577492 
L 54.754413 44.885807 
L 55.40337 47.721503 
L 55.727863 50.557199 
L 56.37682 53.865508 
L 57.35027 56.701204 
L 57.999256 59.536899 
L 58.972706 62.608905 
L 59.946156 65.4446 
L 60.919606 68.043986 
L 62.21752 70.643372 
L 64.164419 73.242763 
L 66.760306 75.369535 
L 69.680656 76.787383 
L 73.249962 77.732611 
L 77.143762 77.968921 
L 81.362055 77.968921 
L 85.904812 77.732611 
L 90.447569 77.259997 
L 94.665862 77.023687 
L 99.208618 76.551073 
L 103.426911 76.551073 
L 107.320711 76.314763 
L 111.539004 76.314763 
L 116.081761 76.314763 
L 120.949011 76.314763 
L 126.465217 76.314763 
L 130.683511 76.314763 
L 135.55076 76.314763 
L 139.44456 76.787383 
L 143.33836 76.787383 
L 148.530103 77.023687 
L 153.397353 77.023687 
L 157.94011 76.787383 
L 161.833909 76.551073 
L 165.403216 76.314763 
L 169.297016 75.842149 
L 173.515309 75.605839 
L 177.733602 75.605839 
L 181.951866 75.369535 
L 185.845665 75.133225 
L 189.415002 75.369535 
L 193.308802 75.369535 
L 196.878108 75.605839 
L 200.771908 75.605839 
L 204.341215 75.842149 
L 208.235015 75.842149 
L 211.804351 76.078459 
L 216.022614 76.078459 
L 219.591951 76.078459 
L 223.810214 76.078459 
L 227.704014 76.078459 
L 231.27335 76.078459 
L 231.4 76.078459 
" clip-path="url(#p7f030572a3)" style="fill: none; stroke: #e1e1e1; stroke-width: 1.5; stroke-linecap: square"/>
   </g>
   <g id="line2d_3">
    <path d="M -1 105.557885 
L 38.530242 105.557885 
L 40.80162 103.253882 
L 42.424057 101.127111 
L 42.74852 98.291415 
L 43.073013 95.692024 
L 43.72197 92.856328 
L 43.72197 89.784328 
L 44.046463 86.948633 
L 44.370957 83.876622 
L 44.69542 80.804622 
L 44.69542 77.732622 
L 45.019913 74.896926 
L 45.344407 72.061231 
L 45.019913 69.461839 
L 45.66887 66.626144 
L 45.66887 63.317829 
L 45.993363 60.482133 
L 45.993363 57.173829 
L 45.993363 53.865514 
L 46.317857 50.793508 
L 46.317857 47.721503 
L 46.64232 44.176883 
L 46.966813 41.104883 
L 47.291306 38.269188 
L 46.966813 35.669797 
L 47.291306 32.597797 
L 47.291306 29.762101 
L 47.61577 27.16271 
L 48.264756 24.563324 
L 48.58922 21.727628 
L 49.887163 19.128243 
L 50.860613 21.727628 
L 51.834063 25.272248 
L 52.48302 29.053177 
L 52.807513 32.361487 
L 53.45647 35.669797 
L 53.780963 38.978112 
L 54.42992 42.050112 
L 55.078906 45.122117 
L 55.40337 48.194122 
L 55.727863 51.502432 
L 56.37682 54.574438 
L 56.701313 57.410133 
L 57.35027 60.245829 
L 57.999256 63.081524 
L 58.972706 65.91722 
L 59.621663 68.98922 
L 60.595113 71.588611 
L 61.568563 74.660611 
L 63.190969 77.023698 
L 64.813406 79.623078 
L 68.058219 81.277241 
L 70.978569 81.513546 
L 74.872369 81.040926 
L 78.117212 80.095698 
L 81.686519 78.914155 
L 84.931362 77.968926 
L 88.176205 76.787383 
L 91.421019 75.60585 
L 94.990355 74.660611 
L 98.559662 73.951687 
L 102.128968 73.242763 
L 106.022768 73.006459 
L 110.241061 73.479078 
L 113.810368 73.715383 
L 117.379704 74.424307 
L 120.949011 75.133231 
L 124.193854 75.842155 
L 127.763161 76.551078 
L 131.332467 77.023698 
L 135.226267 77.732622 
L 139.44456 78.205231 
L 143.33836 78.67785 
L 147.23216 78.67785 
L 151.12596 78.205231 
L 155.01976 77.968926 
L 158.589066 77.023698 
L 163.131853 76.314774 
L 167.674609 75.60585 
L 171.568409 74.896926 
L 175.786702 74.660611 
L 180.329459 74.424307 
L 184.223259 74.188002 
L 187.792565 74.660611 
L 191.361902 74.660611 
L 194.931208 74.896926 
L 198.825008 75.133231 
L 203.367765 75.369535 
L 207.261565 75.60585 
L 211.479858 75.842155 
L 216.022614 75.842155 
L 220.240908 75.842155 
L 224.459201 76.078459 
L 228.677464 75.842155 
L 231.4 75.842155 
" clip-path="url(#p7f030572a3)" style="fill: none; stroke: #e1e1e1; stroke-width: 1.5; stroke-linecap: square"/>
   </g>
   <g id="line2d_4">
    <path d="M -1 105.557885 
L 35.985368 105.557885 
L 38.85472 104.848961 
L 40.80162 102.722189 
L 41.77507 100.122798 
L 42.099563 97.287103 
L 42.424057 94.687722 
L 42.74852 92.088331 
L 43.073013 89.48894 
L 43.073013 86.889559 
L 43.397507 84.053864 
L 43.72197 81.454472 
L 43.72197 78.855081 
L 44.046463 76.255701 
L 44.046463 73.656309 
L 44.046463 71.056918 
L 44.69542 68.457538 
L 44.69542 65.858147 
L 45.019913 62.549831 
L 45.019913 59.950451 
L 45.019913 55.933212 
L 45.019913 53.097516 
L 45.019913 49.789201 
L 45.66887 45.771973 
L 45.993363 41.991038 
L 46.317857 37.97381 
L 46.317857 34.429191 
L 46.966813 31.593495 
L 47.291306 28.521484 
L 47.291306 24.74056 
L 47.940263 20.959631 
L 48.913713 18.123935 
L 50.53612 20.250707 
L 50.860613 23.322713 
L 51.50957 27.339952 
L 52.158556 31.35718 
L 52.807513 36.555962 
L 53.45647 39.864267 
L 53.780963 43.408886 
L 54.754413 46.717201 
L 55.078906 50.261821 
L 56.052356 54.042745 
L 56.37682 57.587364 
L 56.701313 60.895679 
L 57.025806 64.440299 
L 58.32372 67.984918 
L 59.946156 71.056918 
L 61.24407 74.601538 
L 63.190969 77.909853 
L 65.137869 80.272929 
L 68.058219 81.927092 
L 71.627556 82.399701 
L 75.521356 82.163396 
L 79.739619 80.509244 
L 83.308955 79.327701 
L 86.553769 77.909853 
L 90.123105 76.255701 
L 93.367919 74.837853 
L 96.937255 73.656309 
L 100.831055 72.474766 
L 104.724855 71.765842 
L 108.294161 71.765842 
L 111.539004 72.002157 
L 115.108311 72.711081 
L 118.677618 73.656309 
L 121.922461 74.837853 
L 125.491767 75.783081 
L 129.061104 76.964625 
L 132.63041 77.909853 
L 136.52421 78.382472 
L 140.742503 78.855081 
L 145.609753 79.091396 
L 149.828017 78.618777 
L 153.721817 78.146157 
L 158.264603 77.437233 
L 163.131853 76.492005 
L 167.999103 75.546777 
L 172.217366 74.837853 
L 176.435659 74.365233 
L 180.978416 74.128929 
L 185.196709 73.892614 
L 189.415002 74.365233 
L 193.633265 74.601538 
L 197.527065 74.837853 
L 201.420865 75.074157 
L 205.963651 75.546777 
L 210.181915 75.783081 
L 214.724701 76.019386 
L 218.942964 76.019386 
L 223.485751 76.019386 
L 228.353001 75.783081 
L 231.4 75.644395 
" clip-path="url(#p7f030572a3)" style="fill: none; stroke: #e1e1e1; stroke-width: 1.5; stroke-linecap: square"/>
   </g>
   <g id="line2d_5">
    <path d="M -1 105.557885 
L 1.087185 105.557885 
L 4.410821 105.557885 
L 7.734458 105.557885 
L 11.058094 105.557885 
L 14.381731 105.557885 
L 17.705367 105.557885 
L 21.029004 105.557885 
L 24.35264 105.557885 
L 27.676277 105.557885 
L 30.999914 105.557885 
L 34.32355 105.557885 
L 37.647187 105.520151 
L 40.970823 103.642764 
L 44.29446 87.977275 
L 47.618096 53.93316 
L 50.941733 32.414928 
L 54.265369 36.105556 
L 57.589006 52.183408 
L 60.912642 66.88113 
L 64.236279 75.542907 
L 67.559915 78.866669 
L 70.883552 80.105558 
L 74.207188 80.019075 
L 77.530825 79.502271 
L 80.854462 78.905596 
L 84.178098 78.247904 
L 87.501735 76.517289 
L 90.825371 75.537861 
L 94.149008 74.475455 
L 97.472644 74.0759 
L 100.796281 72.791615 
L 104.119917 73.187056 
L 107.443554 73.463432 
L 110.76719 73.073209 
L 114.090827 73.141672 
L 117.414463 73.266645 
L 120.7381 74.770852 
L 124.061736 75.366325 
L 127.385373 76.493691 
L 130.709009 77.76942 
L 134.032646 78.578423 
L 137.356283 79.671741 
L 140.679919 79.687261 
L 144.003556 79.533334 
L 147.327192 79.544706 
L 150.650829 78.995632 
L 153.974465 78.495438 
L 157.298102 78.162777 
L 160.621738 77.331586 
L 163.945375 76.41356 
L 167.269011 75.607314 
L 170.592648 75.287627 
L 173.916284 74.751025 
L 177.239921 74.063295 
L 180.563557 73.505658 
L 183.887194 73.663027 
L 187.210831 73.906541 
L 190.534467 73.944316 
L 193.858104 74.415684 
L 197.18174 74.758528 
L 200.505377 75.261691 
L 203.829013 75.862133 
L 207.15265 76.218044 
L 210.476286 76.406197 
L 213.799923 76.640026 
L 217.123559 76.627002 
L 220.447196 76.782797 
L 223.770832 76.5968 
" clip-path="url(#p7f030572a3)" style="fill: none; stroke: #4abbf3; stroke-width: 1.5; stroke-linecap: square"/>
   </g>
   <g id="line2d_6">
    <path d="M -1 105.557885 
L 37.314823 105.49342 
L 38.311914 105.253142 
L 39.309005 104.488355 
L 40.306096 102.665759 
L 41.303187 99.422008 
L 42.300278 94.648682 
L 43.297369 88.542107 
L 45.291551 73.328413 
L 48.282824 48.333649 
L 49.279914 41.573635 
L 50.277005 36.495567 
L 51.274096 33.462791 
L 52.271187 32.440145 
L 53.268278 33.333861 
L 54.265369 35.763012 
L 55.26246 39.434576 
L 57.256642 48.779043 
L 59.250824 58.601135 
L 61.245006 67.12221 
L 62.242097 70.638472 
L 63.239188 73.609713 
L 64.236279 76.012493 
L 65.23337 77.917135 
L 66.230461 79.361732 
L 67.227552 80.425402 
L 68.224643 81.160886 
L 69.221734 81.635582 
L 70.218825 81.934464 
L 72.213007 82.101486 
L 74.207188 82.01944 
L 78.195552 81.383583 
L 80.189734 80.920608 
L 83.181007 79.974148 
L 86.17228 78.807921 
L 94.149008 75.517286 
L 98.137371 74.248501 
L 101.128644 73.533528 
L 104.119917 73.02074 
L 107.11119 72.710136 
L 110.102463 72.604649 
L 113.093736 72.75409 
L 115.087918 72.967996 
L 118.079191 73.513016 
L 121.070464 74.280733 
L 126.055918 75.83961 
L 131.041373 77.430718 
L 134.032646 78.25704 
L 138.02101 79.089222 
L 141.012283 79.490662 
L 144.003556 79.663545 
L 146.994828 79.60201 
L 149.986101 79.344151 
L 153.974465 78.717084 
L 157.962829 77.905414 
L 165.939557 76.258631 
L 174.913375 74.940033 
L 178.901739 74.611848 
L 183.887194 74.465337 
L 188.872649 74.614778 
L 193.858104 74.963474 
L 210.80865 76.563374 
L 215.794105 76.838814 
L 220.779559 76.961883 
L 226.762105 76.903279 
L 231.4 76.753352 
L 231.4 76.753352 
" clip-path="url(#p7f030572a3)" style="fill: none; stroke-dasharray: 7.5,6; stroke-dashoffset: 0; stroke: #555555; stroke-width: 1.5"/>
   </g>
   <g id="matplotlib.axis_1">
    <g id="xtick_1">
     <g id="line2d_7">
      <defs>
       <path id="ma0ce32d082" d="M 0 0 
L 0 3.5 
" style="stroke: #c2c1c1; stroke-width: 0.8"/>
      </defs>
      <g>
       <use xlink:href="#ma0ce32d082" x="26.014459" y="105.557885" style="fill: #c2c1c1; stroke: #c2c1c1; stroke-width: 0.8"/>
      </g>
     </g>
    </g>
    <g id="xtick_2">
     <g id="line2d_8">
      <g>
       <use xlink:href="#ma0ce32d082" x="59.250824" y="105.557885" style="fill: #c2c1c1; stroke: #c2c1c1; stroke-width: 0.8"/>
      </g>
     </g>
    </g>
    <g id="xtick_3">
     <g id="line2d_9">
      <g>
       <use xlink:href="#ma0ce32d082" x="92.487189" y="105.557885" style="fill: #c2c1c1; stroke: #c2c1c1; stroke-width: 0.8"/>
      </g>
     </g>
    </g>
    <g id="xtick_4">
     <g id="line2d_10">
      <g>
       <use xlink:href="#ma0ce32d082" x="125.723555" y="105.557885" style="fill: #c2c1c1; stroke: #c2c1c1; stroke-width: 0.8"/>
      </g>
     </g>
    </g>
    <g id="xtick_5">
     <g id="line2d_11">
      <g>
       <use xlink:href="#ma0ce32d082" x="158.95992" y="105.557885" style="fill: #c2c1c1; stroke: #c2c1c1; stroke-width: 0.8"/>
      </g>
     </g>
    </g>
    <g id="xtick_6">
     <g id="line2d_12">
      <g>
       <use xlink:href="#ma0ce32d082" x="192.196285" y="105.557885" style="fill: #c2c1c1; stroke: #c2c1c1; stroke-width: 0.8"/>
      </g>
     </g>
    </g>
    <g id="xtick_7">
     <g id="line2d_13">
      <g>
       <use xlink:href="#ma0ce32d082" x="225.432651" y="105.557885" style="fill: #c2c1c1; stroke: #c2c1c1; stroke-width: 0.8"/>
      </g>
     </g>
    </g>
   </g>
   <g id="matplotlib.axis_2">
    <g id="ytick_1">
     <g id="line2d_14">
      <defs>
       <path id="ma9917bc104" d="M 0 0 
L -3.5 0 
" style="stroke: #c2c1c1; stroke-width: 0.8"/>
      </defs>
      <g>
       <use xlink:href="#ma9917bc104" x="26.014459" y="105.557885" style="fill: #c2c1c1; stroke: #c2c1c1; stroke-width: 0.8"/>
      </g>
     </g>
     <g id="text_1">
      <!-- 0 -->
      <g style="fill: #191919" transform="translate(15.08024 108.182885)scale(0.07 -0.07)">
       <defs>
        <path id="Roboto-Regular-30" d="M 3234 1944 
Q 3234 825 2848 381 
Q 2463 -63 1800 -63 
Q 1156 -63 764 368 
Q 372 800 359 1872 
L 359 2638 
Q 359 3753 750 4183 
Q 1141 4613 1794 4613 
Q 2447 4613 2834 4195 
Q 3222 3778 3234 2709 
L 3234 1944 
z
M 2653 2734 
Q 2653 3503 2434 3822 
Q 2216 4141 1794 4141 
Q 1388 4141 1167 3831 
Q 947 3522 941 2778 
L 941 1850 
Q 941 1088 1164 750 
Q 1388 413 1800 413 
Q 2222 413 2436 745 
Q 2650 1078 2653 1825 
L 2653 2734 
z
" transform="scale(0.015625)"/>
       </defs>
       <use xlink:href="#Roboto-Regular-30"/>
      </g>
     </g>
    </g>
    <g id="ytick_2">
     <g id="line2d_15">
      <g>
       <use xlink:href="#ma9917bc104" x="26.014459" y="76.255701" style="fill: #c2c1c1; stroke: #c2c1c1; stroke-width: 0.8"/>
      </g>
     </g>
     <g id="text_2">
      <!-- 1 -->
      <g style="fill: #191919" transform="translate(15.08024 78.880701)scale(0.07 -0.07)">
       <defs>
        <path id="Roboto-Regular-31" d="M 2278 4575 
L 2278 0 
L 1700 0 
L 1700 3853 
L 534 3428 
L 534 3950 
L 2188 4575 
L 2278 4575 
z
" transform="scale(0.015625)"/>
       </defs>
       <use xlink:href="#Roboto-Regular-31"/>
      </g>
     </g>
    </g>
    <g id="ytick_3">
     <g id="line2d_16">
      <g>
       <use xlink:href="#ma9917bc104" x="26.014459" y="46.953516" style="fill: #c2c1c1; stroke: #c2c1c1; stroke-width: 0.8"/>
      </g>
     </g>
     <g id="text_3">
      <!-- 2 -->
      <g style="fill: #191919" transform="translate(15.08024 49.578516)scale(0.07 -0.07)">
       <defs>
        <path id="Roboto-Regular-32" d="M 3359 475 
L 3359 0 
L 381 0 
L 381 416 
L 1925 2134 
Q 2306 2566 2439 2819 
Q 2572 3072 2572 3328 
Q 2572 3663 2364 3900 
Q 2156 4138 1778 4138 
Q 1322 4138 1097 3878 
Q 872 3619 872 3213 
L 294 3213 
Q 294 3788 672 4200 
Q 1050 4613 1778 4613 
Q 2422 4613 2786 4278 
Q 3150 3944 3150 3397 
Q 3150 2997 2903 2592 
Q 2656 2188 2297 1797 
L 1078 475 
L 3359 475 
z
" transform="scale(0.015625)"/>
       </defs>
       <use xlink:href="#Roboto-Regular-32"/>
      </g>
     </g>
    </g>
    <g id="ytick_4">
     <g id="line2d_17">
      <g>
       <use xlink:href="#ma9917bc104" x="26.014459" y="17.651332" style="fill: #c2c1c1; stroke: #c2c1c1; stroke-width: 0.8"/>
      </g>
     </g>
     <g id="text_4">
      <!-- 3 -->
      <g style="fill: #191919" transform="translate(15.08024 20.276332)scale(0.07 -0.07)">
       <defs>
        <path id="Roboto-Regular-33" d="M 1222 2084 
L 1222 2559 
L 1647 2559 
Q 2094 2563 2312 2784 
Q 2531 3006 2531 3338 
Q 2531 4138 1738 4138 
Q 1369 4138 1141 3927 
Q 913 3716 913 3359 
L 334 3359 
Q 334 3881 720 4247 
Q 1106 4613 1738 4613 
Q 2353 4613 2733 4286 
Q 3113 3959 3113 3325 
Q 3113 3072 2942 2784 
Q 2772 2497 2397 2338 
Q 2850 2191 3015 1884 
Q 3181 1578 3181 1269 
Q 3181 631 2768 284 
Q 2356 -63 1741 -63 
Q 1147 -63 722 267 
Q 297 597 297 1203 
L 875 1203 
Q 875 844 1108 628 
Q 1341 413 1741 413 
Q 2138 413 2369 622 
Q 2600 831 2600 1256 
Q 2600 1681 2337 1882 
Q 2075 2084 1634 2084 
L 1222 2084 
z
" transform="scale(0.015625)"/>
       </defs>
       <use xlink:href="#Roboto-Regular-33"/>
      </g>
     </g>
    </g>
    <g id="ytick_5">
     <g id="line2d_18">
      <defs>
       <path id="m964a908009" d="M 0 0 
L -2 0 
" style="stroke: #c2c1c1; stroke-width: 0.6"/>
      </defs>
      <g>
       <use xlink:href="#m964a908009" x="26.014459" y="90.906793" style="fill: #c2c1c1; stroke: #c2c1c1; stroke-width: 0.6"/>
      </g>
     </g>
    </g>
    <g id="ytick_6">
     <g id="line2d_19">
      <g>
       <use xlink:href="#m964a908009" x="26.014459" y="61.604609" style="fill: #c2c1c1; stroke: #c2c1c1; stroke-width: 0.6"/>
      </g>
     </g>
    </g>
    <g id="ytick_7">
     <g id="line2d_20">
      <g>
       <use xlink:href="#m964a908009" x="26.014459" y="32.302424" style="fill: #c2c1c1; stroke: #c2c1c1; stroke-width: 0.6"/>
      </g>
     </g>
    </g>
    <g id="ytick_8">
     <g id="line2d_21">
      <g>
       <use xlink:href="#m964a908009" x="26.014459" y="3.00024" style="fill: #c2c1c1; stroke: #c2c1c1; stroke-width: 0.6"/>
      </g>
     </g>
    </g>
    <g id="text_5">
     <!-- g$\mathregular{_{OO}}$(r) -->
     <g style="fill: #191919" transform="translate(9.32024 64.959063)rotate(-90)scale(0.08 -0.08)">
      <defs>
       <path id="Roboto-Black-67" d="M 1659 -1331 
Q 1319 -1331 966 -1203 
Q 613 -1075 403 -825 
L 844 -206 
Q 1147 -553 1622 -553 
Q 2313 -553 2322 119 
L 2322 275 
Q 2025 -63 1553 -63 
Q 913 -63 544 425 
Q 175 913 175 1650 
L 175 1716 
Q 175 2488 545 2966 
Q 916 3444 1559 3444 
Q 2091 3444 2384 3091 
L 2422 3381 
L 3378 3381 
L 3378 131 
Q 3378 -572 2904 -951 
Q 2431 -1331 1659 -1331 
z
M 1228 1650 
Q 1228 1269 1375 1009 
Q 1522 750 1822 750 
Q 2166 750 2322 981 
L 2322 2400 
Q 2172 2631 1828 2631 
Q 1531 2631 1379 2372 
Q 1228 2113 1228 1650 
z
" transform="scale(0.015625)"/>
       <path id="Roboto-Black-4f" d="M 4197 2181 
Q 4197 1138 3640 537 
Q 3084 -63 2213 -63 
Q 1334 -63 776 537 
Q 219 1138 219 2181 
L 219 2366 
Q 219 3409 773 4011 
Q 1328 4613 2206 4613 
Q 3078 4613 3637 4011 
Q 4197 3409 4197 2366 
L 4197 2181 
z
M 3084 2372 
Q 3084 3059 2865 3406 
Q 2647 3753 2206 3753 
Q 1388 3753 1338 2534 
L 1334 2181 
Q 1334 1513 1554 1153 
Q 1775 794 2213 794 
Q 2628 794 2854 1148 
Q 3081 1503 3084 2163 
L 3084 2372 
z
" transform="scale(0.015625)"/>
       <path id="Roboto-Black-28" d="M 378 1850 
Q 378 2713 608 3369 
Q 838 4025 1194 4444 
Q 1550 4863 1938 5019 
L 2134 4500 
Q 1788 4247 1505 3622 
Q 1222 2997 1216 1909 
L 1216 1756 
Q 1216 634 1500 1 
Q 1784 -631 2134 -888 
L 1938 -1406 
Q 1550 -1250 1195 -833 
Q 841 -416 612 229 
Q 384 875 378 1716 
L 378 1850 
z
" transform="scale(0.015625)"/>
       <path id="Roboto-Black-72" d="M 1994 2453 
Q 1500 2453 1359 2144 
L 1359 0 
L 306 0 
L 306 3381 
L 1291 3381 
L 1325 2950 
Q 1591 3444 2069 3444 
Q 2244 3444 2359 3406 
L 2341 2428 
L 1994 2453 
z
" transform="scale(0.015625)"/>
       <path id="Roboto-Black-29" d="M 1956 1763 
Q 1956 941 1717 283 
Q 1478 -375 1104 -812 
Q 731 -1250 328 -1406 
L 125 -888 
Q 469 -634 753 -9 
Q 1038 616 1044 1703 
L 1044 1856 
Q 1044 2978 759 3611 
Q 475 4244 125 4500 
L 328 5019 
Q 731 4863 1104 4425 
Q 1478 3988 1717 3330 
Q 1956 2672 1956 1850 
L 1956 1763 
z
" transform="scale(0.015625)"/>
      </defs>
      <use xlink:href="#Roboto-Black-67" transform="translate(0 0.578125)"/>
      <use xlink:href="#Roboto-Black-4f" transform="translate(58.492852 -15.270313)scale(0.7)"/>
      <use xlink:href="#Roboto-Black-4f" transform="translate(106.82293 -15.270313)scale(0.7)"/>
      <use xlink:href="#Roboto-Black-28" transform="translate(157.794414 0.578125)"/>
      <use xlink:href="#Roboto-Black-72" transform="translate(193.097148 0.578125)"/>
      <use xlink:href="#Roboto-Black-29" transform="translate(230.987773 0.578125)"/>
     </g>
    </g>
   </g>
   <g id="patch_3">
    <path d="M 26.014459 105.557885 
L 26.014459 3.00024 
" style="fill: none; stroke: #c2c1c1; stroke-width: 0.8; stroke-linejoin: miter; stroke-linecap: square"/>
   </g>
   <g id="patch_4">
    <path d="M 225.432651 105.557885 
L 225.432651 3.00024 
" style="fill: none; stroke: #c2c1c1; stroke-width: 0.8; stroke-linejoin: miter; stroke-linecap: square"/>
   </g>
   <g id="patch_5">
    <path d="M 26.014459 105.557885 
L 225.432651 105.557885 
" style="fill: none; stroke: #c2c1c1; stroke-width: 0.8; stroke-linejoin: miter; stroke-linecap: square"/>
   </g>
   <g id="patch_6">
    <path d="M 26.014459 3.00024 
L 225.432651 3.00024 
" style="fill: none; stroke: #c2c1c1; stroke-width: 0.8; stroke-linejoin: miter; stroke-linecap: square"/>
   </g>
   <g id="text_6">
    <!-- A -->
    <g transform="translate(30.002823 13.256004)scale(0.096 -0.096)">
     <defs>
      <path id="Roboto-Bold-41" d="M 25 0 
L 1719 4550 
L 2588 4550 
L 4291 0 
L 3291 0 
L 2978 938 
L 1331 938 
L 1019 0 
L 25 0 
z
M 1584 1697 
L 2725 1697 
L 2156 3406 
L 1584 1697 
z
" transform="scale(0.015625)"/>
     </defs>
     <use xlink:href="#Roboto-Bold-41"/>
    </g>
   </g>
   <g id="text_7">
    <!--    H$_2$O -->
    <g transform="translate(199.508286 100.430003)scale(0.08 -0.08)">
     <defs>
      <path id="Roboto-Regular-20" transform="scale(0.015625)"/>
      <path id="Roboto-Regular-48" d="M 3425 0 
L 3425 2103 
L 1131 2103 
L 1131 0 
L 528 0 
L 528 4550 
L 1131 4550 
L 1131 2594 
L 3425 2594 
L 3425 4550 
L 4025 4550 
L 4025 0 
L 3425 0 
z
" transform="scale(0.015625)"/>
      <path id="DejaVuSans-32" d="M 1228 531 
L 3431 531 
L 3431 0 
L 469 0 
L 469 531 
Q 828 903 1448 1529 
Q 2069 2156 2228 2338 
Q 2531 2678 2651 2914 
Q 2772 3150 2772 3378 
Q 2772 3750 2511 3984 
Q 2250 4219 1831 4219 
Q 1534 4219 1204 4116 
Q 875 4013 500 3803 
L 500 4441 
Q 881 4594 1212 4672 
Q 1544 4750 1819 4750 
Q 2544 4750 2975 4387 
Q 3406 4025 3406 3419 
Q 3406 3131 3298 2873 
Q 3191 2616 2906 2266 
Q 2828 2175 2409 1742 
Q 1991 1309 1228 531 
z
" transform="scale(0.015625)"/>
      <path id="Roboto-Regular-4f" d="M 4031 2131 
Q 4031 1106 3534 521 
Q 3038 -63 2206 -63 
Q 1397 -63 884 521 
Q 372 1106 372 2131 
L 372 2419 
Q 372 3441 881 4027 
Q 1391 4613 2200 4613 
Q 3025 4613 3523 4036 
Q 4022 3459 4031 2456 
L 4031 2131 
z
M 3434 2425 
Q 3434 3238 3109 3669 
Q 2784 4100 2200 4100 
Q 1641 4100 1305 3669 
Q 969 3238 969 2425 
L 969 2131 
Q 969 1313 1308 880 
Q 1647 447 2206 447 
Q 2794 447 3114 880 
Q 3434 1313 3434 2131 
L 3434 2425 
z
" transform="scale(0.015625)"/>
     </defs>
     <use xlink:href="#Roboto-Regular-20" transform="translate(0 0.921875)"/>
     <use xlink:href="#Roboto-Regular-20" transform="translate(24.804688 0.921875)"/>
     <use xlink:href="#Roboto-Regular-20" transform="translate(49.609375 0.921875)"/>
     <use xlink:href="#Roboto-Regular-48" transform="translate(74.414062 0.921875)"/>
     <use xlink:href="#DejaVuSans-32" transform="translate(146.708984 -15.484375)scale(0.7)"/>
     <use xlink:href="#Roboto-Regular-4f" transform="translate(193.979492 0.921875)"/>
    </g>
   </g>
   <g id="legend_1">
    <g id="line2d_22">
     <path d="M 149.335151 13.40024 
L 157.335151 13.40024 
L 165.335151 13.40024 
" style="fill: none; stroke: #4abbf3; stroke-width: 1.5; stroke-linecap: square"/>
    </g>
    <g id="text_8">
     <!-- mbGDML -->
     <g transform="translate(171.735151 16.20024)scale(0.08 -0.08)">
      <defs>
       <path id="Roboto-Regular-6d" d="M 1794 2956 
Q 1225 2956 1016 2478 
L 1016 0 
L 434 0 
L 434 3381 
L 984 3381 
L 1000 3013 
Q 1366 3444 2000 3444 
Q 2325 3444 2579 3314 
Q 2834 3184 2969 2900 
Q 3138 3144 3408 3294 
Q 3678 3444 4044 3444 
Q 4588 3444 4883 3153 
Q 5178 2863 5178 2222 
L 5178 0 
L 4597 0 
L 4597 2228 
Q 4597 2653 4401 2804 
Q 4206 2956 3875 2956 
Q 3525 2956 3325 2748 
Q 3125 2541 3094 2244 
L 3094 0 
L 2516 0 
L 2516 2225 
Q 2516 2622 2319 2789 
Q 2122 2956 1794 2956 
z
" transform="scale(0.015625)"/>
       <path id="Roboto-Regular-62" d="M 3303 1653 
Q 3303 913 2959 425 
Q 2616 -63 1988 -63 
Q 1347 -63 1000 391 
L 969 0 
L 438 0 
L 438 4800 
L 1019 4800 
L 1019 3016 
Q 1363 3444 1981 3444 
Q 2619 3444 2961 2969 
Q 3303 2494 3303 1719 
L 3303 1653 
z
M 1838 2956 
Q 1522 2956 1325 2804 
Q 1128 2653 1019 2431 
L 1019 959 
Q 1131 734 1331 581 
Q 1531 428 1844 428 
Q 2313 428 2517 789 
Q 2722 1150 2722 1653 
L 2722 1719 
Q 2722 2222 2526 2589 
Q 2331 2956 1838 2956 
z
" transform="scale(0.015625)"/>
       <path id="Roboto-Regular-47" d="M 3891 2266 
L 3891 600 
Q 3763 413 3403 175 
Q 3044 -63 2281 -63 
Q 1450 -63 915 507 
Q 381 1078 381 2100 
L 381 2453 
Q 381 3469 856 4041 
Q 1331 4613 2213 4613 
Q 2994 4613 3398 4219 
Q 3803 3825 3891 3219 
L 3288 3219 
Q 3225 3588 2979 3853 
Q 2734 4119 2213 4119 
Q 1584 4119 1287 3676 
Q 991 3234 988 2475 
L 988 2100 
Q 988 1313 1344 870 
Q 1700 428 2284 428 
Q 2769 428 2984 542 
Q 3200 656 3291 759 
L 3291 1778 
L 2238 1778 
L 2238 2266 
L 3891 2266 
z
" transform="scale(0.015625)"/>
       <path id="Roboto-Regular-44" d="M 528 0 
L 528 4550 
L 1816 4550 
Q 2713 4550 3267 3973 
Q 3822 3397 3822 2409 
L 3822 2138 
Q 3822 1150 3264 575 
Q 2706 0 1759 0 
L 528 0 
z
M 1131 4056 
L 1131 491 
L 1759 491 
Q 2488 491 2856 941 
Q 3225 1391 3225 2138 
L 3225 2416 
Q 3225 3200 2856 3628 
Q 2488 4056 1816 4056 
L 1131 4056 
z
" transform="scale(0.015625)"/>
       <path id="Roboto-Regular-4d" d="M 2794 841 
L 4281 4550 
L 5056 4550 
L 5056 0 
L 4456 0 
L 4456 1775 
L 4516 3678 
L 3019 0 
L 2563 0 
L 1069 3684 
L 1128 1775 
L 1128 0 
L 528 0 
L 528 4550 
L 1303 4550 
L 2794 841 
z
" transform="scale(0.015625)"/>
       <path id="Roboto-Regular-4c" d="M 3288 491 
L 3288 0 
L 528 0 
L 528 4550 
L 1131 4550 
L 1131 491 
L 3288 491 
z
" transform="scale(0.015625)"/>
      </defs>
      <use xlink:href="#Roboto-Regular-6d"/>
      <use xlink:href="#Roboto-Regular-62" x="87.695312"/>
      <use xlink:href="#Roboto-Regular-47" x="143.847656"/>
      <use xlink:href="#Roboto-Regular-44" x="211.962891"/>
      <use xlink:href="#Roboto-Regular-4d" x="277.587891"/>
      <use xlink:href="#Roboto-Regular-4c" x="364.892578"/>
     </g>
    </g>
    <g id="line2d_23">
     <path d="M 149.335151 25.02524 
L 157.335151 25.02524 
L 165.335151 25.02524 
" style="fill: none; stroke-dasharray: 7.5,6; stroke-dashoffset: 0; stroke: #555555; stroke-width: 1.5"/>
    </g>
    <g id="text_9">
     <!-- Experimental -->
     <g transform="translate(171.735151 27.82524)scale(0.08 -0.08)">
      <defs>
       <path id="Roboto-Regular-45" d="M 528 0 
L 528 4550 
L 3388 4550 
L 3388 4056 
L 1131 4056 
L 1131 2594 
L 3100 2594 
L 3100 2103 
L 1131 2103 
L 1131 491 
L 3419 491 
L 3419 0 
L 528 0 
z
" transform="scale(0.015625)"/>
       <path id="Roboto-Regular-78" d="M 831 3381 
L 1572 2150 
L 2322 3381 
L 3000 3381 
L 1894 1713 
L 3034 0 
L 2366 0 
L 1584 1269 
L 803 0 
L 131 0 
L 1269 1713 
L 166 3381 
L 831 3381 
z
" transform="scale(0.015625)"/>
       <path id="Roboto-Regular-70" d="M 1984 -63 
Q 1375 -63 1019 328 
L 1019 -1300 
L 438 -1300 
L 438 3381 
L 969 3381 
L 997 3009 
Q 1353 3444 1975 3444 
Q 2616 3444 2956 2969 
Q 3297 2494 3297 1719 
L 3297 1653 
Q 3297 913 2955 425 
Q 2613 -63 1984 -63 
z
M 1806 2956 
Q 1281 2956 1019 2491 
L 1019 872 
Q 1284 413 1813 413 
Q 2281 413 2498 781 
Q 2716 1150 2716 1653 
L 2716 1719 
Q 2716 2222 2498 2589 
Q 2281 2956 1806 2956 
z
" transform="scale(0.015625)"/>
       <path id="Roboto-Regular-65" d="M 3116 591 
Q 2950 341 2647 139 
Q 2344 -63 1844 -63 
Q 1138 -63 714 396 
Q 291 856 291 1572 
L 291 1703 
Q 291 2256 502 2645 
Q 713 3034 1050 3239 
Q 1388 3444 1769 3444 
Q 2494 3444 2826 2970 
Q 3159 2497 3159 1788 
L 3159 1528 
L 872 1528 
Q 884 1063 1148 736 
Q 1413 409 1875 409 
Q 2181 409 2393 534 
Q 2606 659 2766 869 
L 3116 591 
z
M 1769 2969 
Q 1425 2969 1187 2719 
Q 950 2469 891 2000 
L 2581 2000 
L 2581 2044 
Q 2559 2381 2386 2675 
Q 2213 2969 1769 2969 
z
" transform="scale(0.015625)"/>
       <path id="Roboto-Regular-72" d="M 1791 2888 
Q 1225 2888 1019 2400 
L 1019 0 
L 441 0 
L 441 3381 
L 1003 3381 
L 1016 2994 
Q 1294 3444 1819 3444 
Q 1981 3444 2075 3400 
L 2072 2863 
Q 1944 2888 1791 2888 
z
" transform="scale(0.015625)"/>
       <path id="Roboto-Regular-69" d="M 444 4278 
Q 444 4419 530 4516 
Q 616 4613 784 4613 
Q 950 4613 1039 4516 
Q 1128 4419 1128 4278 
Q 1128 4144 1039 4048 
Q 950 3953 784 3953 
Q 616 3953 530 4048 
Q 444 4144 444 4278 
z
M 1069 3381 
L 1069 0 
L 488 0 
L 488 3381 
L 1069 3381 
z
" transform="scale(0.015625)"/>
       <path id="Roboto-Regular-6e" d="M 1844 2956 
Q 1566 2956 1353 2806 
Q 1141 2656 1019 2416 
L 1019 0 
L 441 0 
L 441 3381 
L 988 3381 
L 1006 2959 
Q 1391 3444 2016 3444 
Q 2513 3444 2805 3166 
Q 3097 2888 3100 2231 
L 3100 0 
L 2519 0 
L 2519 2222 
Q 2519 2619 2345 2787 
Q 2172 2956 1844 2956 
z
" transform="scale(0.015625)"/>
       <path id="Roboto-Regular-74" d="M 1872 0 
Q 1675 -63 1425 -63 
Q 1103 -63 875 134 
Q 647 331 647 841 
L 647 2938 
L 28 2938 
L 28 3381 
L 647 3381 
L 647 4203 
L 1225 4203 
L 1225 3381 
L 1856 3381 
L 1856 2938 
L 1225 2938 
L 1225 838 
Q 1225 578 1337 506 
Q 1450 434 1597 434 
Q 1706 434 1869 472 
L 1872 0 
z
" transform="scale(0.015625)"/>
       <path id="Roboto-Regular-61" d="M 2528 0 
Q 2472 122 2447 356 
Q 2284 184 2040 60 
Q 1797 -63 1484 -63 
Q 966 -63 653 228 
Q 341 519 341 941 
Q 341 1484 753 1767 
Q 1166 2050 1863 2050 
L 2434 2050 
L 2434 2319 
Q 2434 2619 2254 2798 
Q 2075 2978 1722 2978 
Q 1394 2978 1192 2817 
Q 991 2656 991 2444 
L 413 2444 
Q 413 2806 778 3125 
Q 1144 3444 1756 3444 
Q 2306 3444 2659 3162 
Q 3013 2881 3013 2313 
L 3013 794 
Q 3013 325 3131 50 
L 3131 0 
L 2528 0 
z
M 1569 444 
Q 1881 444 2111 600 
Q 2341 756 2434 947 
L 2434 1644 
L 1897 1644 
Q 922 1625 922 1019 
Q 922 778 1084 611 
Q 1247 444 1569 444 
z
" transform="scale(0.015625)"/>
       <path id="Roboto-Regular-6c" d="M 1069 4800 
L 1069 0 
L 488 0 
L 488 4800 
L 1069 4800 
z
" transform="scale(0.015625)"/>
      </defs>
      <use xlink:href="#Roboto-Regular-45"/>
      <use xlink:href="#Roboto-Regular-78" x="56.835938"/>
      <use xlink:href="#Roboto-Regular-70" x="106.445312"/>
      <use xlink:href="#Roboto-Regular-65" x="162.597656"/>
      <use xlink:href="#Roboto-Regular-72" x="215.625"/>
      <use xlink:href="#Roboto-Regular-69" x="249.511719"/>
      <use xlink:href="#Roboto-Regular-6d" x="273.828125"/>
      <use xlink:href="#Roboto-Regular-65" x="361.523438"/>
      <use xlink:href="#Roboto-Regular-6e" x="414.550781"/>
      <use xlink:href="#Roboto-Regular-74" x="469.775391"/>
      <use xlink:href="#Roboto-Regular-61" x="502.490234"/>
      <use xlink:href="#Roboto-Regular-6c" x="556.884766"/>
     </g>
    </g>
    <g id="line2d_24">
     <path d="M 149.335151 36.65024 
L 157.335151 36.65024 
L 165.335151 36.65024 
" style="fill: none; stroke: #e1e1e1; stroke-width: 1.5; stroke-linecap: square"/>
    </g>
    <g id="text_10">
     <!-- Classical -->
     <g transform="translate(171.735151 39.45024)scale(0.08 -0.08)">
      <defs>
       <path id="Roboto-Regular-43" d="M 3275 1447 
L 3875 1447 
Q 3806 800 3387 368 
Q 2969 -63 2150 -63 
Q 1356 -63 870 504 
Q 384 1072 375 2013 
L 375 2500 
Q 375 3456 867 4034 
Q 1359 4613 2203 4613 
Q 2975 4613 3390 4188 
Q 3806 3763 3875 3091 
L 3275 3091 
Q 3206 3566 2968 3842 
Q 2731 4119 2203 4119 
Q 1600 4119 1287 3675 
Q 975 3231 975 2506 
L 975 2047 
Q 975 1375 1259 901 
Q 1544 428 2150 428 
Q 2725 428 2961 697 
Q 3197 966 3275 1447 
z
" transform="scale(0.015625)"/>
       <path id="Roboto-Regular-73" d="M 2409 897 
Q 2409 1081 2273 1229 
Q 2138 1378 1647 1478 
Q 1081 1594 747 1814 
Q 413 2034 413 2456 
Q 413 2856 755 3150 
Q 1097 3444 1666 3444 
Q 2272 3444 2612 3134 
Q 2953 2825 2953 2388 
L 2375 2388 
Q 2375 2597 2190 2783 
Q 2006 2969 1666 2969 
Q 1306 2969 1150 2812 
Q 994 2656 994 2472 
Q 994 2288 1139 2173 
Q 1284 2059 1756 1953 
Q 2378 1813 2683 1584 
Q 2988 1356 2988 941 
Q 2988 494 2630 215 
Q 2272 -63 1681 -63 
Q 1009 -63 653 281 
Q 297 625 297 1044 
L 878 1044 
Q 897 684 1155 548 
Q 1413 413 1681 413 
Q 2034 413 2221 550 
Q 2409 688 2409 897 
z
" transform="scale(0.015625)"/>
       <path id="Roboto-Regular-63" d="M 1794 413 
Q 2103 413 2336 597 
Q 2569 781 2591 1069 
L 3141 1069 
Q 3119 616 2725 276 
Q 2331 -63 1794 -63 
Q 1031 -63 661 440 
Q 291 944 291 1625 
L 291 1756 
Q 291 2438 661 2941 
Q 1031 3444 1794 3444 
Q 2388 3444 2753 3092 
Q 3119 2741 3141 2219 
L 2591 2219 
Q 2569 2531 2355 2750 
Q 2141 2969 1794 2969 
Q 1438 2969 1236 2787 
Q 1034 2606 951 2328 
Q 869 2050 869 1756 
L 869 1625 
Q 869 1328 950 1050 
Q 1031 772 1232 592 
Q 1434 413 1794 413 
z
" transform="scale(0.015625)"/>
      </defs>
      <use xlink:href="#Roboto-Regular-43"/>
      <use xlink:href="#Roboto-Regular-6c" x="65.087891"/>
      <use xlink:href="#Roboto-Regular-61" x="89.404297"/>
      <use xlink:href="#Roboto-Regular-73" x="143.798828"/>
      <use xlink:href="#Roboto-Regular-73" x="195.410156"/>
      <use xlink:href="#Roboto-Regular-69" x="247.021484"/>
      <use xlink:href="#Roboto-Regular-63" x="271.337891"/>
      <use xlink:href="#Roboto-Regular-61" x="323.681641"/>
      <use xlink:href="#Roboto-Regular-6c" x="378.076172"/>
     </g>
    </g>
   </g>
  </g>
  <g id="axes_2">
   <g id="patch_7">
    <path d="M 26.014459 218.162885 
L 225.432651 218.162885 
L 225.432651 115.60524 
L 26.014459 115.60524 
z
" style="fill: #ffffff"/>
   </g>
   <g id="line2d_25">
    <path d="M 26.014459 159.09144 
L 225.432651 159.09144 
" clip-path="url(#p1c53b3e524)" style="fill: none; stroke-dasharray: 1.5,6; stroke-dashoffset: 0; stroke: #c0c0c0; stroke-width: 1.5"/>
   </g>
   <g id="line2d_26">
    <path d="M -1 218.162885 
L 50.614603 218.162885 
L 60.035935 217.956822 
L 64.354046 216.926506 
L 66.709378 215.484064 
L 68.2796 214.041621 
L 70.242378 211.774926 
L 71.8126 208.890042 
L 73.382822 205.593031 
L 74.953044 201.677831 
L 76.915821 197.144441 
L 78.093488 192.404987 
L 80.056265 187.253408 
L 81.626487 181.689702 
L 83.589265 176.125996 
L 85.159487 170.768353 
L 86.729709 165.410711 
L 88.299931 160.259131 
L 89.870153 155.313615 
L 91.440375 150.574162 
L 93.403152 146.246835 
L 94.973374 141.713445 
L 96.543596 138.004308 
L 98.113818 134.707297 
L 99.68404 131.616349 
L 101.646818 128.937528 
L 103.21704 126.670833 
L 104.787262 124.404138 
L 106.750039 122.549569 
L 109.497928 121.107127 
L 112.245816 120.488937 
L 115.778815 121.107127 
L 118.526704 122.549569 
L 120.489481 124.404138 
L 122.452259 126.052643 
L 124.022481 128.113275 
L 125.985258 129.967844 
L 127.55548 132.234539 
L 129.518258 134.91336 
L 131.481035 137.180055 
L 133.051257 139.44675 
L 134.621479 141.713445 
L 136.584257 143.774077 
L 138.154479 145.834709 
L 139.724701 147.89534 
L 141.687478 149.543846 
L 143.650256 151.604478 
L 145.613033 153.665109 
L 148.360922 155.313615 
L 150.323699 157.168184 
L 152.679032 158.816689 
L 156.212032 160.877321 
L 159.352475 163.350079 
L 162.885475 165.204648 
L 166.81103 167.059216 
L 171.12914 168.501658 
L 175.839806 169.531974 
L 180.550472 169.944101 
L 184.868583 169.944101 
L 189.579249 169.944101 
L 193.897359 169.738038 
L 197.822914 169.119848 
L 201.748469 168.501658 
L 205.674024 167.677406 
L 209.599579 166.64709 
L 213.132578 165.616774 
L 216.665578 164.380395 
L 220.198577 163.350079 
L 223.339021 161.907637 
L 226.872021 160.671258 
L 230.012465 159.434879 
L 231.4 158.810574 
" clip-path="url(#p1c53b3e524)" style="fill: none; stroke: #e1e1e1; stroke-width: 1.5; stroke-linecap: square"/>
   </g>
   <g id="line2d_27">
    <path d="M -1 218.162885 
L 50.860003 218.162885 
L 57.834184 216.882001 
L 61.321284 214.621608 
L 63.500705 211.004992 
L 66.116025 206.032145 
L 68.295485 200.381171 
L 70.039006 194.956242 
L 71.346666 189.531314 
L 73.090226 183.88035 
L 74.397886 178.003341 
L 75.705547 172.578412 
L 77.449107 166.701414 
L 78.756767 161.728556 
L 80.500287 156.077592 
L 82.679748 150.652663 
L 84.859168 145.227735 
L 87.038589 140.028842 
L 93.57689 136.638262 
L 98.80753 137.994494 
L 104.038171 141.61112 
L 109.704712 145.905851 
L 115.807113 150.200583 
L 121.473654 153.139092 
L 126.704295 154.947395 
L 132.806696 155.173441 
L 138.909137 152.460976 
L 144.575638 149.070396 
L 149.806279 149.522467 
L 155.472819 153.365128 
L 160.70346 157.207789 
L 166.370001 160.372323 
L 171.600642 161.954601 
L 178.138943 162.406672 
L 184.241344 162.406672 
L 192.087305 162.632717 
L 198.625606 162.632717 
L 205.163907 162.632717 
L 211.702208 162.632717 
L 218.67641 162.180636 
L 225.650571 161.728556 
L 231.4 160.851654 
" clip-path="url(#p1c53b3e524)" style="fill: none; stroke: #e1e1e1; stroke-width: 1.5; stroke-linecap: square"/>
   </g>
   <g id="line2d_28">
    <path d="M -1 218.162885 
L 58.16871 218.162885 
L 64.35222 216.981458 
L 69.711274 209.892884 
L 74.245835 198.551166 
L 77.543714 187.209448 
L 80.429345 176.340305 
L 83.727242 163.580872 
L 86.612855 152.711723 
L 91.147454 141.370005 
L 96.918717 131.446002 
L 103.514474 127.192858 
L 109.285737 129.083142 
L 116.293702 132.863717 
L 124.950616 139.952291 
L 133.60753 147.513434 
L 142.264443 153.184293 
L 152.570306 158.855152 
L 162.051675 163.580872 
L 174.830941 166.416301 
L 183.487855 166.416301 
L 193.793717 164.998587 
L 204.511788 163.580872 
L 214.817651 161.218012 
L 225.123475 158.855152 
L 231.4 158.242796 
" clip-path="url(#p1c53b3e524)" style="fill: none; stroke: #e1e1e1; stroke-width: 1.5; stroke-linecap: square"/>
   </g>
   <g id="line2d_29">
    <path d="M -1 218.162885 
L 11.461581 218.162885 
L 37.312087 218.162885 
L 42.520487 218.162885 
L 49.107577 218.162885 
L 54.469164 217.450573 
L 59.371187 213.953777 
L 61.209446 211.363555 
L 62.434951 208.643825 
L 63.507269 206.312621 
L 64.426396 203.851909 
L 65.345529 201.132178 
L 66.264655 198.412447 
L 67.030596 195.822225 
L 67.796537 192.97298 
L 68.562478 190.641782 
L 69.328419 187.663028 
L 70.09436 184.943292 
L 71.166679 181.576006 
L 71.932619 178.467738 
L 72.851746 175.618493 
L 73.924065 171.603651 
L 74.690006 169.01343 
L 75.609138 166.164185 
L 76.681451 163.31494 
L 77.731425 160.325627 
L 79.285651 156.709876 
L 80.664347 153.731122 
L 82.196229 151.27041 
L 83.881297 148.8097 
L 85.872742 146.737522 
L 88.936512 144.924367 
L 92.000275 144.276812 
L 94.60447 144.276812 
L 97.055478 144.794856 
L 99.506499 145.442411 
L 101.651124 145.960455 
L 103.795761 146.867033 
L 105.787212 147.514589 
L 108.085035 148.291656 
L 110.382858 149.068723 
L 112.68068 149.716278 
L 114.67212 150.234322 
L 116.816757 150.752366 
L 119.11458 151.011389 
L 121.565588 151.27041 
L 123.710225 151.27041 
L 126.008048 151.27041 
L 128.305871 151.27041 
L 130.756879 150.881878 
L 133.2079 150.363834 
L 135.505722 149.845787 
L 137.803545 149.327744 
L 139.94817 148.680188 
L 141.786436 148.162144 
L 143.931073 147.773612 
L 146.382081 147.773612 
L 148.679904 148.291656 
L 150.824541 149.198232 
L 152.662795 150.234322 
L 154.347862 151.529433 
L 156.03293 152.954053 
L 157.717999 154.249164 
L 159.556263 155.803298 
L 161.700901 157.098409 
L 163.692339 158.523034 
L 165.836978 159.68863 
L 167.828429 160.4657 
L 169.819867 161.113255 
L 172.270877 161.631297 
L 174.875083 161.89032 
L 177.479277 162.019829 
L 180.083482 161.89032 
L 182.840864 161.89032 
L 185.138697 162.019829 
L 187.589695 162.019829 
L 189.734343 162.278852 
L 192.338537 162.408366 
L 195.095919 162.796898 
L 197.240554 163.055922 
L 199.538377 163.31494 
L 201.8362 163.573963 
L 203.980849 163.832986 
L 206.278671 164.092009 
L 208.72967 164.221518 
L 210.874317 164.351032 
L 213.478511 164.480542 
L 216.082706 164.351032 
L 218.686902 164.221518 
L 221.59749 163.962495 
L 224.35486 163.573963 
L 227.09018 163.269084 
L 229.869644 162.796898 
L 231.4 162.470571 
" clip-path="url(#p1c53b3e524)" style="fill: none; stroke: #e1e1e1; stroke-width: 1.5; stroke-linecap: square"/>
   </g>
   <g id="line2d_30">
    <path d="M -1 218.162885 
L 1.087185 218.162885 
L 4.410821 218.162885 
L 7.734458 218.162885 
L 11.058094 218.162885 
L 14.381731 218.162885 
L 17.705367 218.162885 
L 21.029004 218.162885 
L 24.35264 218.162885 
L 27.676277 218.162885 
L 30.999914 218.151067 
L 34.32355 218.119721 
L 37.647187 217.939164 
L 40.970823 217.761021 
L 44.29446 216.932359 
L 47.618096 215.186871 
L 50.941733 211.98397 
L 54.265369 206.573667 
L 57.589006 198.031447 
L 60.912642 188.596539 
L 64.236279 179.990237 
L 67.559915 169.429396 
L 70.883552 161.082675 
L 74.207188 154.588541 
L 77.530825 150.892261 
L 80.854462 149.09314 
L 84.178098 148.586189 
L 87.501735 148.724577 
L 90.825371 149.642971 
L 94.149008 152.630875 
L 97.472644 153.4821 
L 100.796281 154.424439 
L 104.119917 155.742617 
L 107.443554 157.828099 
L 110.76719 158.10331 
L 114.090827 157.740901 
L 117.414463 158.389952 
L 120.7381 158.953064 
L 124.061736 157.548723 
L 127.385373 157.309863 
L 130.709009 156.174312 
L 134.032646 154.149701 
L 137.356283 152.310721 
L 140.679919 151.454411 
L 144.003556 150.94298 
L 147.327192 150.166782 
L 150.650829 151.281101 
L 153.974465 152.114977 
L 157.298102 153.714705 
L 160.621738 155.474479 
L 163.945375 155.931354 
L 167.269011 156.447269 
L 170.592648 157.418451 
L 173.916284 157.66206 
L 177.239921 157.935877 
L 180.563557 158.364411 
L 183.887194 158.983093 
L 187.210831 159.301457 
L 190.534467 159.956607 
L 193.858104 159.78505 
L 197.18174 159.452758 
L 200.505377 160.499749 
L 203.829013 160.729062 
L 207.15265 160.416099 
L 210.476286 160.547941 
L 213.799923 160.34026 
L 217.123559 160.306565 
L 220.447196 160.29573 
L 223.770832 160.506834 
" clip-path="url(#p1c53b3e524)" style="fill: none; stroke: #61bfa3; stroke-width: 1.5; stroke-linecap: square"/>
   </g>
   <g id="line2d_31">
    <path d="M -1 218.162885 
L 46.200943 218.162885 
L 54.357122 217.614654 
L 59.964468 212.406503 
L 62.513277 207.198352 
L 65.062085 201.71608 
L 66.591366 195.959698 
L 68.630399 190.203316 
L 70.159679 184.721043 
L 71.68896 179.238783 
L 73.727993 173.482401 
L 75.767049 168.000128 
L 77.806082 162.243746 
L 80.354891 156.761474 
L 82.903676 151.553323 
L 86.981765 145.796941 
L 91.059855 142.233471 
L 95.647696 139.76645 
L 98.706257 138.669988 
L 104.313604 139.76645 
L 112.469782 142.781689 
L 121.13569 147.167512 
L 129.291868 150.456873 
L 136.938271 153.746234 
L 144.074898 156.487364 
L 150.701796 158.954385 
L 158.348198 162.517856 
L 168.543386 164.436658 
L 178.228845 164.162536 
L 187.914304 162.517856 
L 197.089988 160.599066 
L 205.755895 159.776726 
L 215.951083 158.954385 
L 226.146318 158.406154 
L 231.4 158.651814 
" clip-path="url(#p1c53b3e524)" style="fill: none; stroke-dasharray: 7.5,6; stroke-dashoffset: 0; stroke: #555555; stroke-width: 1.5"/>
   </g>
   <g id="matplotlib.axis_3">
    <g id="xtick_8">
     <g id="line2d_32">
      <g>
       <use xlink:href="#ma0ce32d082" x="26.014459" y="218.162885" style="fill: #c2c1c1; stroke: #c2c1c1; stroke-width: 0.8"/>
      </g>
     </g>
    </g>
    <g id="xtick_9">
     <g id="line2d_33">
      <g>
       <use xlink:href="#ma0ce32d082" x="59.250824" y="218.162885" style="fill: #c2c1c1; stroke: #c2c1c1; stroke-width: 0.8"/>
      </g>
     </g>
    </g>
    <g id="xtick_10">
     <g id="line2d_34">
      <g>
       <use xlink:href="#ma0ce32d082" x="92.487189" y="218.162885" style="fill: #c2c1c1; stroke: #c2c1c1; stroke-width: 0.8"/>
      </g>
     </g>
    </g>
    <g id="xtick_11">
     <g id="line2d_35">
      <g>
       <use xlink:href="#ma0ce32d082" x="125.723555" y="218.162885" style="fill: #c2c1c1; stroke: #c2c1c1; stroke-width: 0.8"/>
      </g>
     </g>
    </g>
    <g id="xtick_12">
     <g id="line2d_36">
      <g>
       <use xlink:href="#ma0ce32d082" x="158.95992" y="218.162885" style="fill: #c2c1c1; stroke: #c2c1c1; stroke-width: 0.8"/>
      </g>
     </g>
    </g>
    <g id="xtick_13">
     <g id="line2d_37">
      <g>
       <use xlink:href="#ma0ce32d082" x="192.196285" y="218.162885" style="fill: #c2c1c1; stroke: #c2c1c1; stroke-width: 0.8"/>
      </g>
     </g>
    </g>
    <g id="xtick_14">
     <g id="line2d_38">
      <g>
       <use xlink:href="#ma0ce32d082" x="225.432651" y="218.162885" style="fill: #c2c1c1; stroke: #c2c1c1; stroke-width: 0.8"/>
      </g>
     </g>
    </g>
   </g>
   <g id="matplotlib.axis_4">
    <g id="ytick_9">
     <g id="line2d_39">
      <g>
       <use xlink:href="#ma9917bc104" x="26.014459" y="218.162885" style="fill: #c2c1c1; stroke: #c2c1c1; stroke-width: 0.8"/>
      </g>
     </g>
     <g id="text_11">
      <!-- 0 -->
      <g style="fill: #191919" transform="translate(15.08024 220.787885)scale(0.07 -0.07)">
       <use xlink:href="#Roboto-Regular-30"/>
      </g>
     </g>
    </g>
    <g id="ytick_10">
     <g id="line2d_40">
      <g>
       <use xlink:href="#ma9917bc104" x="26.014459" y="159.09144" style="fill: #c2c1c1; stroke: #c2c1c1; stroke-width: 0.8"/>
      </g>
     </g>
     <g id="text_12">
      <!-- 1 -->
      <g style="fill: #191919" transform="translate(15.08024 161.71644)scale(0.07 -0.07)">
       <use xlink:href="#Roboto-Regular-31"/>
      </g>
     </g>
    </g>
    <g id="ytick_11">
     <g id="line2d_41">
      <g>
       <use xlink:href="#m964a908009" x="26.014459" y="188.627162" style="fill: #c2c1c1; stroke: #c2c1c1; stroke-width: 0.6"/>
      </g>
     </g>
    </g>
    <g id="ytick_12">
     <g id="line2d_42">
      <g>
       <use xlink:href="#m964a908009" x="26.014459" y="129.555717" style="fill: #c2c1c1; stroke: #c2c1c1; stroke-width: 0.6"/>
      </g>
     </g>
    </g>
    <g id="text_13">
     <!-- g$\mathregular{_{NN}}$(r) -->
     <g style="fill: #191919" transform="translate(9.32024 177.604063)rotate(-90)scale(0.08 -0.08)">
      <defs>
       <path id="Roboto-Black-4e" d="M 4147 4550 
L 4147 0 
L 3053 0 
L 1444 2831 
L 1444 0 
L 347 0 
L 347 4550 
L 1444 4550 
L 3053 1719 
L 3053 4550 
L 4147 4550 
z
" transform="scale(0.015625)"/>
      </defs>
      <use xlink:href="#Roboto-Black-67" transform="translate(0 0.578125)"/>
      <use xlink:href="#Roboto-Black-4e" transform="translate(58.492852 -15.270313)scale(0.7)"/>
      <use xlink:href="#Roboto-Black-4e" transform="translate(107.643242 -15.270313)scale(0.7)"/>
      <use xlink:href="#Roboto-Black-28" transform="translate(159.435039 0.578125)"/>
      <use xlink:href="#Roboto-Black-72" transform="translate(194.737773 0.578125)"/>
      <use xlink:href="#Roboto-Black-29" transform="translate(232.628398 0.578125)"/>
     </g>
    </g>
   </g>
   <g id="patch_8">
    <path d="M 26.014459 218.162885 
L 26.014459 115.60524 
" style="fill: none; stroke: #c2c1c1; stroke-width: 0.8; stroke-linejoin: miter; stroke-linecap: square"/>
   </g>
   <g id="patch_9">
    <path d="M 225.432651 218.162885 
L 225.432651 115.60524 
" style="fill: none; stroke: #c2c1c1; stroke-width: 0.8; stroke-linejoin: miter; stroke-linecap: square"/>
   </g>
   <g id="patch_10">
    <path d="M 26.014459 218.162885 
L 225.432651 218.162885 
" style="fill: none; stroke: #c2c1c1; stroke-width: 0.8; stroke-linejoin: miter; stroke-linecap: square"/>
   </g>
   <g id="patch_11">
    <path d="M 26.014459 115.60524 
L 225.432651 115.60524 
" style="fill: none; stroke: #c2c1c1; stroke-width: 0.8; stroke-linejoin: miter; stroke-linecap: square"/>
   </g>
   <g id="text_14">
    <!-- B -->
    <g transform="translate(30.002823 125.861005)scale(0.096 -0.096)">
     <defs>
      <path id="Roboto-Bold-42" d="M 3788 1341 
Q 3788 684 3369 345 
Q 2950 6 2175 0 
L 406 0 
L 406 4550 
L 2003 4550 
Q 2794 4550 3241 4247 
Q 3688 3944 3688 3306 
Q 3688 2997 3531 2737 
Q 3375 2478 3038 2344 
Q 3438 2244 3613 1956 
Q 3788 1669 3788 1341 
z
M 1347 3791 
L 1347 2647 
L 2003 2647 
Q 2747 2647 2747 3209 
Q 2747 3778 2034 3791 
L 1347 3791 
z
M 2850 1350 
Q 2850 1963 2231 1984 
L 1347 1984 
L 1347 756 
L 2147 756 
Q 2506 756 2678 925 
Q 2850 1094 2850 1350 
z
" transform="scale(0.015625)"/>
     </defs>
     <use xlink:href="#Roboto-Bold-42"/>
    </g>
   </g>
   <g id="text_15">
    <!-- MeCN -->
    <g transform="translate(199.508286 213.035003)scale(0.08 -0.08)">
     <defs>
      <path id="Roboto-Regular-4e" d="M 4028 4550 
L 4028 0 
L 3422 0 
L 1131 3509 
L 1131 0 
L 528 0 
L 528 4550 
L 1131 4550 
L 3431 1031 
L 3431 4550 
L 4028 4550 
z
" transform="scale(0.015625)"/>
     </defs>
     <use xlink:href="#Roboto-Regular-4d"/>
     <use xlink:href="#Roboto-Regular-65" x="87.304688"/>
     <use xlink:href="#Roboto-Regular-43" x="140.332031"/>
     <use xlink:href="#Roboto-Regular-4e" x="205.419922"/>
    </g>
   </g>
  </g>
  <g id="axes_3">
   <g id="patch_12">
    <path d="M 26.014459 330.767885 
L 225.432651 330.767885 
L 225.432651 228.21024 
L 26.014459 228.21024 
z
" style="fill: #ffffff"/>
   </g>
   <g id="line2d_43">
    <path d="M 26.014459 304.073337 
L 225.432651 304.073337 
" clip-path="url(#p5514cb5572)" style="fill: none; stroke-dasharray: 1.5,6; stroke-dashoffset: 0; stroke: #c0c0c0; stroke-width: 1.5"/>
   </g>
   <g id="line2d_44">
    <path d="M -1 330.767885 
L 38.914828 330.767885 
L 43.214951 329.005036 
L 45.365013 316.413265 
L 46.081689 302.05865 
L 47.515074 281.911824 
L 48.948427 264.535186 
L 49.665136 255.972782 
L 50.381812 250.68424 
L 51.815197 245.143863 
L 53.24855 247.914053 
L 53.965259 253.202595 
L 55.398611 262.01683 
L 56.831997 272.845752 
L 58.265382 281.659987 
L 59.698734 295.259096 
L 62.565505 307.095361 
L 65.432243 315.154096 
L 69.01569 320.190795 
L 72.599104 322.457313 
L 79.765997 322.709156 
L 86.216182 320.694469 
L 94.099719 316.413265 
L 99.116551 312.635734 
L 102.699965 308.606373 
L 104.850027 305.584349 
L 107.000088 302.814156 
L 109.15015 299.792132 
L 112.733597 297.273782 
L 119.183781 296.014602 
L 129.934089 298.28112 
L 137.817659 300.799475 
L 146.417905 303.065993 
L 155.018151 304.325168 
L 162.901689 304.828843 
L 171.501935 304.577005 
L 181.535566 304.073337 
L 191.569198 303.317831 
L 202.319505 303.821499 
L 213.069813 304.325168 
L 223.103412 304.577005 
L 231.4 304.577005 
" clip-path="url(#p5514cb5572)" style="fill: none; stroke: #e1e1e1; stroke-width: 1.5; stroke-linecap: square"/>
   </g>
   <g id="line2d_45">
    <path d="M -1 330.767885 
L 37.336133 330.767885 
L 39.858285 329.02572 
L 40.418755 326.159566 
L 40.979225 322.956222 
L 41.259473 319.584277 
L 42.10019 315.200748 
L 42.380438 312.671791 
L 42.66066 309.805645 
L 42.66066 306.770896 
L 42.940907 303.061754 
L 43.221155 299.521214 
L 43.221155 295.643484 
L 43.781625 291.765747 
L 43.781625 287.382219 
L 44.342095 282.492907 
L 44.342095 278.109378 
L 44.622342 273.72585 
L 45.182812 265.127395 
L 45.46306 260.575272 
L 45.46306 255.180165 
L 45.743308 247.930486 
L 46.584025 241.692394 
L 46.584025 237.983255 
L 48.545682 233.093937 
L 49.666647 236.634479 
L 50.227117 241.186602 
L 50.507365 245.232934 
L 51.348082 250.12225 
L 51.62833 257.371929 
L 52.469047 264.790202 
L 53.309765 271.871286 
L 53.589987 279.963949 
L 55.831917 291.091361 
L 56.392387 297.66665 
L 57.793574 304.916325 
L 59.755257 311.154417 
L 60.876222 315.875142 
L 64.239092 320.258663 
L 70.684584 321.607443 
L 78.531289 318.741289 
L 86.377969 314.526362 
L 93.944426 309.468448 
L 100.389944 305.084919 
L 108.516871 300.701399 
L 114.962363 299.015422 
L 122.248599 299.521214 
L 130.375526 301.712982 
L 138.7827 304.241939 
L 144.667723 305.590711 
L 149.992275 306.265105 
L 156.15752 306.265105 
L 166.24613 305.590711 
L 175.2138 303.904742 
L 187.544314 303.061754 
L 197.913172 303.230356 
L 209.963439 303.398951 
L 220.332296 303.736147 
" clip-path="url(#p5514cb5572)" style="fill: none; stroke: #e1e1e1; stroke-width: 1.5; stroke-linecap: square"/>
   </g>
   <g id="line2d_46">
    <path d="M -1 330.767885 
L 39.318409 330.767885 
L 42.98523 329.862978 
L 44.113463 326.978615 
L 45.241722 321.040207 
L 45.805838 314.932133 
L 46.369981 307.127374 
L 47.216168 297.965262 
L 47.780285 293.384207 
L 48.062356 288.633477 
L 48.062356 282.864743 
L 48.626472 279.132033 
L 48.908543 273.193625 
L 49.190589 268.61257 
L 49.754731 262.334825 
L 50.036776 256.735757 
L 50.600918 251.645695 
L 51.447106 248.591658 
L 52.293293 246.216297 
L 53.703597 248.930994 
L 54.549785 251.476025 
L 54.831856 254.869403 
L 55.113901 258.771782 
L 56.24216 262.843832 
L 56.806276 267.085551 
L 57.088348 270.987934 
L 57.370419 274.381304 
L 57.934535 277.096009 
L 58.780723 280.998384 
L 59.062794 285.749114 
L 59.62691 290.499836 
L 61.037214 295.420231 
L 61.601357 299.322607 
L 62.447544 303.733997 
L 63.293732 307.29704 
L 64.421964 311.029749 
L 65.832294 315.101799 
L 68.088786 318.495176 
L 70.90942 321.718879 
L 74.858286 323.076232 
L 79.089224 322.906565 
L 84.166349 321.718879 
L 89.525546 319.852528 
L 93.474412 317.307497 
L 97.423279 314.762467 
L 99.961842 312.047762 
L 103.064547 308.654392 
L 105.885155 304.752009 
L 108.423717 301.528306 
L 111.526422 297.795588 
L 115.475289 295.929238 
L 120.552414 295.589898 
L 124.501281 296.94725 
L 129.296361 298.474269 
L 134.091415 299.831613 
L 140.860916 301.528306 
L 146.502157 303.394656 
L 151.579283 304.243003 
L 157.22055 304.582343 
L 162.579721 305.091349 
L 168.503034 305.091349 
L 174.990489 304.921675 
L 181.195847 304.582343 
L 186.555044 303.733997 
L 192.478356 303.56433 
L 199.247857 303.394656 
L 207.427661 303.733997 
L 213.350974 304.243003 
L 224.633484 304.412669 
" clip-path="url(#p5514cb5572)" style="fill: none; stroke: #e1e1e1; stroke-width: 1.5; stroke-linecap: square"/>
   </g>
   <g id="line2d_47">
    <path d="M -1 330.767885 
L 1.087185 330.767885 
L 4.410821 330.767885 
L 7.734458 330.767885 
L 11.058094 330.767885 
L 14.381731 330.767885 
L 17.705367 330.767885 
L 21.029004 330.767885 
L 24.35264 330.767885 
L 27.676277 330.767885 
L 30.999914 330.767885 
L 34.32355 330.767885 
L 37.647187 330.682739 
L 40.970823 329.144765 
L 44.29446 319.86951 
L 47.618096 299.449591 
L 50.941733 279.655734 
L 54.265369 272.719383 
L 57.589006 279.178861 
L 60.912642 288.714037 
L 64.236279 297.972367 
L 67.559915 304.260123 
L 70.883552 307.279231 
L 74.207188 309.426178 
L 77.530825 310.758801 
L 80.854462 310.917475 
L 84.178098 310.627349 
L 87.501735 310.326434 
L 90.825371 309.60322 
L 94.149008 308.266059 
L 97.472644 306.678324 
L 100.796281 305.3199 
L 104.119917 304.000087 
L 107.443554 303.081507 
L 110.76719 302.006219 
L 114.090827 301.94373 
L 117.414463 301.765108 
L 120.7381 302.359033 
L 124.061736 303.411908 
L 127.385373 304.212071 
L 130.709009 304.725389 
L 134.032646 305.216743 
L 137.356283 305.417601 
L 140.679919 305.852306 
L 144.003556 305.887324 
L 147.327192 305.538815 
L 150.650829 304.95052 
L 153.974465 305.161249 
L 157.298102 304.962827 
L 160.621738 304.527652 
L 163.945375 304.282996 
L 167.269011 304.317486 
L 170.592648 304.189483 
L 173.916284 304.075868 
L 177.239921 303.547611 
L 180.563557 303.67098 
L 183.887194 303.63167 
L 187.210831 303.129306 
L 190.534467 303.07113 
L 193.858104 302.728765 
L 197.18174 302.832082 
L 200.505377 302.88076 
L 203.829013 302.634942 
L 207.15265 302.836352 
L 210.476286 302.87146 
L 213.799923 303.150956 
L 217.123559 303.085415 
L 220.447196 303.242677 
L 223.770832 302.819117 
" clip-path="url(#p5514cb5572)" style="fill: none; stroke: #ffb5ba; stroke-width: 1.5; stroke-linecap: square"/>
   </g>
   <g id="line2d_48">
    <path d="M -1 330.767885 
L 35.221829 330.767885 
L 40.072542 329.145111 
L 42.093678 325.737293 
L 42.497898 321.112406 
L 42.902118 317.217764 
L 43.306357 313.323111 
L 44.114796 308.941636 
L 44.114796 304.56016 
L 44.519035 300.665518 
L 44.519035 297.2577 
L 45.731713 293.849893 
L 45.731713 290.198663 
L 45.731713 286.304011 
L 45.731713 282.896203 
L 45.731713 279.244974 
L 46.944391 276.080567 
L 46.944391 272.429337 
L 46.944391 268.778107 
L 46.944391 264.883466 
L 47.348611 261.475647 
L 48.157069 258.06784 
L 48.157069 254.416611 
L 48.965509 251.495627 
L 50.178187 245.166824 
L 51.795104 252.712696 
L 52.199324 255.877102 
L 53.007782 259.528332 
L 53.412002 264.15322 
L 54.22046 267.80445 
L 54.22046 271.212268 
L 55.0289 274.863498 
L 55.837358 278.758139 
L 56.241578 283.383027 
L 57.454256 290.685486 
L 59.071173 300.178684 
L 60.688071 305.77724 
L 61.900749 311.86262 
L 65.134564 317.461176 
L 69.581038 321.112406 
L 74.027549 321.842652 
L 78.878262 321.355817 
L 82.516296 319.165079 
L 86.558532 316.487518 
L 91.005044 313.0797 
L 95.04728 309.915304 
L 98.281113 306.99432 
L 102.323349 304.073337 
L 105.961383 301.152353 
L 110.003656 298.47478 
L 114.45013 297.014288 
L 118.896641 296.770877 
L 124.151556 297.744534 
L 128.598067 299.448438 
L 132.640303 301.152353 
L 137.086814 303.099668 
L 141.937527 304.316748 
L 146.788239 305.290406 
L 152.043153 306.020652 
L 157.702343 306.264074 
L 162.957257 305.290406 
L 169.424886 304.803583 
L 174.679837 303.829914 
L 179.934751 303.343091 
L 187.21082 303.343091 
L 193.274211 303.343091 
L 199.337602 303.343091 
L 205.400993 303.343091 
L 211.868622 304.073337 
L 217.932013 304.073337 
L 223.186964 304.073337 
L 229.250355 304.073337 
L 231.4 304.073337 
" clip-path="url(#p5514cb5572)" style="fill: none; stroke-dasharray: 7.5,6; stroke-dashoffset: 0; stroke: #555555; stroke-width: 1.5"/>
   </g>
   <g id="matplotlib.axis_5">
    <g id="xtick_15">
     <g id="line2d_49">
      <g>
       <use xlink:href="#ma0ce32d082" x="26.014459" y="330.767885" style="fill: #c2c1c1; stroke: #c2c1c1; stroke-width: 0.8"/>
      </g>
     </g>
     <g id="text_16">
      <!-- 2 -->
      <g style="fill: #191919" transform="translate(24.047349 343.017885)scale(0.07 -0.07)">
       <use xlink:href="#Roboto-Regular-32"/>
      </g>
     </g>
    </g>
    <g id="xtick_16">
     <g id="line2d_50">
      <g>
       <use xlink:href="#ma0ce32d082" x="59.250824" y="330.767885" style="fill: #c2c1c1; stroke: #c2c1c1; stroke-width: 0.8"/>
      </g>
     </g>
     <g id="text_17">
      <!-- 3 -->
      <g style="fill: #191919" transform="translate(57.283715 343.017885)scale(0.07 -0.07)">
       <use xlink:href="#Roboto-Regular-33"/>
      </g>
     </g>
    </g>
    <g id="xtick_17">
     <g id="line2d_51">
      <g>
       <use xlink:href="#ma0ce32d082" x="92.487189" y="330.767885" style="fill: #c2c1c1; stroke: #c2c1c1; stroke-width: 0.8"/>
      </g>
     </g>
     <g id="text_18">
      <!-- 4 -->
      <g style="fill: #191919" transform="translate(90.52008 343.017885)scale(0.07 -0.07)">
       <defs>
        <path id="Roboto-Regular-34" d="M 166 1397 
L 2203 4550 
L 2819 4550 
L 2819 1531 
L 3453 1531 
L 3453 1056 
L 2819 1056 
L 2819 0 
L 2241 0 
L 2241 1056 
L 166 1056 
L 166 1397 
z
M 822 1531 
L 2241 1531 
L 2241 3766 
L 2169 3638 
L 822 1531 
z
" transform="scale(0.015625)"/>
       </defs>
       <use xlink:href="#Roboto-Regular-34"/>
      </g>
     </g>
    </g>
    <g id="xtick_18">
     <g id="line2d_52">
      <g>
       <use xlink:href="#ma0ce32d082" x="125.723555" y="330.767885" style="fill: #c2c1c1; stroke: #c2c1c1; stroke-width: 0.8"/>
      </g>
     </g>
     <g id="text_19">
      <!-- 5 -->
      <g style="fill: #191919" transform="translate(123.756445 343.017885)scale(0.07 -0.07)">
       <defs>
        <path id="Roboto-Regular-35" d="M 1109 2166 
L 647 2284 
L 875 4550 
L 3209 4550 
L 3209 4016 
L 1366 4016 
L 1228 2778 
Q 1572 2975 1988 2975 
Q 2616 2975 2980 2561 
Q 3344 2147 3344 1450 
Q 3344 797 2987 367 
Q 2631 -63 1903 -63 
Q 1350 -63 947 248 
Q 544 559 481 1197 
L 1031 1197 
Q 1141 413 1903 413 
Q 2313 413 2538 691 
Q 2763 969 2763 1444 
Q 2763 1872 2527 2164 
Q 2291 2456 1853 2456 
Q 1563 2456 1413 2378 
Q 1263 2300 1109 2166 
z
" transform="scale(0.015625)"/>
       </defs>
       <use xlink:href="#Roboto-Regular-35"/>
      </g>
     </g>
    </g>
    <g id="xtick_19">
     <g id="line2d_53">
      <g>
       <use xlink:href="#ma0ce32d082" x="158.95992" y="330.767885" style="fill: #c2c1c1; stroke: #c2c1c1; stroke-width: 0.8"/>
      </g>
     </g>
     <g id="text_20">
      <!-- 6 -->
      <g style="fill: #191919" transform="translate(156.992811 343.017885)scale(0.07 -0.07)">
       <defs>
        <path id="Roboto-Regular-36" d="M 3291 1484 
Q 3291 838 2930 387 
Q 2569 -63 1878 -63 
Q 1388 -63 1063 198 
Q 738 459 577 861 
Q 416 1263 416 1684 
L 416 1956 
Q 416 2597 595 3194 
Q 775 3791 1247 4173 
Q 1719 4556 2597 4556 
L 2647 4556 
L 2647 4066 
Q 2041 4066 1705 3853 
Q 1369 3641 1205 3302 
Q 1041 2963 1006 2575 
Q 1369 2984 1984 2984 
Q 2438 2984 2727 2765 
Q 3016 2547 3153 2201 
Q 3291 1856 3291 1484 
z
M 997 1666 
Q 997 1059 1267 737 
Q 1538 416 1878 416 
Q 2278 416 2498 708 
Q 2719 1000 2719 1456 
Q 2719 1863 2516 2184 
Q 2313 2506 1891 2506 
Q 1588 2506 1341 2325 
Q 1094 2144 997 1884 
L 997 1666 
z
" transform="scale(0.015625)"/>
       </defs>
       <use xlink:href="#Roboto-Regular-36"/>
      </g>
     </g>
    </g>
    <g id="xtick_20">
     <g id="line2d_54">
      <g>
       <use xlink:href="#ma0ce32d082" x="192.196285" y="330.767885" style="fill: #c2c1c1; stroke: #c2c1c1; stroke-width: 0.8"/>
      </g>
     </g>
     <g id="text_21">
      <!-- 7 -->
      <g style="fill: #191919" transform="translate(190.229176 343.017885)scale(0.07 -0.07)">
       <defs>
        <path id="Roboto-Regular-37" d="M 3319 4550 
L 3319 4225 
L 1434 0 
L 825 0 
L 2706 4075 
L 244 4075 
L 244 4550 
L 3319 4550 
z
" transform="scale(0.015625)"/>
       </defs>
       <use xlink:href="#Roboto-Regular-37"/>
      </g>
     </g>
    </g>
    <g id="xtick_21">
     <g id="line2d_55">
      <g>
       <use xlink:href="#ma0ce32d082" x="225.432651" y="330.767885" style="fill: #c2c1c1; stroke: #c2c1c1; stroke-width: 0.8"/>
      </g>
     </g>
     <g id="text_22">
      <!-- 8 -->
      <g style="fill: #191919" transform="translate(223.465541 343.017885)scale(0.07 -0.07)">
       <defs>
        <path id="Roboto-Regular-38" d="M 3244 1231 
Q 3244 606 2826 271 
Q 2409 -63 1796 -63 
Q 1184 -63 767 271 
Q 350 606 350 1231 
Q 350 1613 554 1905 
Q 759 2197 1109 2347 
Q 806 2494 629 2762 
Q 453 3031 453 3366 
Q 453 3963 833 4288 
Q 1213 4613 1794 4613 
Q 2378 4613 2758 4288 
Q 3138 3963 3138 3366 
Q 3138 3028 2956 2761 
Q 2775 2494 2472 2347 
Q 2825 2197 3034 1903 
Q 3244 1609 3244 1231 
z
M 2559 3356 
Q 2559 3697 2346 3917 
Q 2134 4138 1793 4138 
Q 1453 4138 1243 3927 
Q 1034 3716 1034 3356 
Q 1034 3003 1243 2790 
Q 1453 2578 1797 2578 
Q 2138 2578 2348 2790 
Q 2559 3003 2559 3356 
z
M 2663 1244 
Q 2663 1625 2420 1865 
Q 2178 2106 1791 2106 
Q 1394 2106 1161 1865 
Q 928 1625 928 1244 
Q 928 850 1161 631 
Q 1394 413 1797 413 
Q 2200 413 2431 631 
Q 2663 850 2663 1244 
z
" transform="scale(0.015625)"/>
       </defs>
       <use xlink:href="#Roboto-Regular-38"/>
      </g>
     </g>
    </g>
    <g id="text_23">
     <!-- r $\left( \mathbf{\AA} \right)$ -->
     <g style="fill: #191919" transform="translate(116.963555 355.37476)scale(0.08 -0.08)">
      <defs>
       <path id="Roboto-Black-20" transform="scale(0.015625)"/>
       <path id="DejaVuSans-28" d="M 1984 4856 
Q 1566 4138 1362 3434 
Q 1159 2731 1159 2009 
Q 1159 1288 1364 580 
Q 1569 -128 1984 -844 
L 1484 -844 
Q 1016 -109 783 600 
Q 550 1309 550 2009 
Q 550 2706 781 3412 
Q 1013 4119 1484 4856 
L 1984 4856 
z
" transform="scale(0.015625)"/>
       <path id="DejaVuSans-Bold-c5" d="M 3225 4575 
L 4922 0 
L 3713 0 
L 3419 850 
L 1538 850 
L 1241 0 
L 31 0 
L 1728 4575 
Q 1656 4681 1622 4798 
Q 1588 4916 1588 5050 
Q 1588 5416 1848 5678 
Q 2109 5941 2478 5941 
Q 2841 5941 3103 5678 
Q 3366 5416 3366 5050 
Q 3366 4903 3331 4784 
Q 3297 4666 3225 4575 
z
M 2069 5050 
Q 2069 4881 2189 4761 
Q 2309 4641 2478 4641 
Q 2647 4641 2767 4761 
Q 2888 4881 2888 5050 
Q 2888 5219 2766 5339 
Q 2644 5459 2478 5459 
Q 2309 5459 2189 5339 
Q 2069 5219 2069 5050 
z
M 1838 1716 
L 3116 1716 
L 2478 3572 
L 1838 1716 
z
" transform="scale(0.015625)"/>
       <path id="DejaVuSans-29" d="M 513 4856 
L 1013 4856 
Q 1481 4119 1714 3412 
Q 1947 2706 1947 2009 
Q 1947 1309 1714 600 
Q 1481 -109 1013 -844 
L 513 -844 
Q 928 -128 1133 580 
Q 1338 1288 1338 2009 
Q 1338 2731 1133 3434 
Q 928 4138 513 4856 
z
" transform="scale(0.015625)"/>
      </defs>
      <use xlink:href="#Roboto-Black-72" transform="translate(0 0.171875)"/>
      <use xlink:href="#Roboto-Black-20" transform="translate(37.890625 0.171875)"/>
      <use xlink:href="#DejaVuSans-28" transform="translate(62.792969 0.171875)"/>
      <use xlink:href="#DejaVuSans-Bold-c5" transform="translate(101.806641 0.171875)"/>
      <use xlink:href="#DejaVuSans-29" transform="translate(179.199219 0.171875)"/>
     </g>
    </g>
   </g>
   <g id="matplotlib.axis_6">
    <g id="ytick_13">
     <g id="line2d_56">
      <g>
       <use xlink:href="#ma9917bc104" x="26.014459" y="330.767885" style="fill: #c2c1c1; stroke: #c2c1c1; stroke-width: 0.8"/>
      </g>
     </g>
     <g id="text_24">
      <!-- 0 -->
      <g style="fill: #191919" transform="translate(15.08024 333.392885)scale(0.07 -0.07)">
       <use xlink:href="#Roboto-Regular-30"/>
      </g>
     </g>
    </g>
    <g id="ytick_14">
     <g id="line2d_57">
      <g>
       <use xlink:href="#ma9917bc104" x="26.014459" y="304.073337" style="fill: #c2c1c1; stroke: #c2c1c1; stroke-width: 0.8"/>
      </g>
     </g>
     <g id="text_25">
      <!-- 1 -->
      <g style="fill: #191919" transform="translate(15.08024 306.698337)scale(0.07 -0.07)">
       <use xlink:href="#Roboto-Regular-31"/>
      </g>
     </g>
    </g>
    <g id="ytick_15">
     <g id="line2d_58">
      <g>
       <use xlink:href="#ma9917bc104" x="26.014459" y="277.378788" style="fill: #c2c1c1; stroke: #c2c1c1; stroke-width: 0.8"/>
      </g>
     </g>
     <g id="text_26">
      <!-- 2 -->
      <g style="fill: #191919" transform="translate(15.08024 280.003788)scale(0.07 -0.07)">
       <use xlink:href="#Roboto-Regular-32"/>
      </g>
     </g>
    </g>
    <g id="ytick_16">
     <g id="line2d_59">
      <g>
       <use xlink:href="#ma9917bc104" x="26.014459" y="250.68424" style="fill: #c2c1c1; stroke: #c2c1c1; stroke-width: 0.8"/>
      </g>
     </g>
     <g id="text_27">
      <!-- 3 -->
      <g style="fill: #191919" transform="translate(15.08024 253.30924)scale(0.07 -0.07)">
       <use xlink:href="#Roboto-Regular-33"/>
      </g>
     </g>
    </g>
    <g id="ytick_17">
     <g id="line2d_60">
      <g>
       <use xlink:href="#m964a908009" x="26.014459" y="317.420611" style="fill: #c2c1c1; stroke: #c2c1c1; stroke-width: 0.6"/>
      </g>
     </g>
    </g>
    <g id="ytick_18">
     <g id="line2d_61">
      <g>
       <use xlink:href="#m964a908009" x="26.014459" y="290.726062" style="fill: #c2c1c1; stroke: #c2c1c1; stroke-width: 0.6"/>
      </g>
     </g>
    </g>
    <g id="ytick_19">
     <g id="line2d_62">
      <g>
       <use xlink:href="#m964a908009" x="26.014459" y="264.031514" style="fill: #c2c1c1; stroke: #c2c1c1; stroke-width: 0.6"/>
      </g>
     </g>
    </g>
    <g id="ytick_20">
     <g id="line2d_63">
      <g>
       <use xlink:href="#m964a908009" x="26.014459" y="237.336966" style="fill: #c2c1c1; stroke: #c2c1c1; stroke-width: 0.6"/>
      </g>
     </g>
    </g>
    <g id="text_28">
     <!-- g$\mathregular{_{OO}}$(r) -->
     <g style="fill: #191919" transform="translate(9.32024 290.169062)rotate(-90)scale(0.08 -0.08)">
      <use xlink:href="#Roboto-Black-67" transform="translate(0 0.578125)"/>
      <use xlink:href="#Roboto-Black-4f" transform="translate(58.492852 -15.270313)scale(0.7)"/>
      <use xlink:href="#Roboto-Black-4f" transform="translate(106.82293 -15.270313)scale(0.7)"/>
      <use xlink:href="#Roboto-Black-28" transform="translate(157.794414 0.578125)"/>
      <use xlink:href="#Roboto-Black-72" transform="translate(193.097148 0.578125)"/>
      <use xlink:href="#Roboto-Black-29" transform="translate(230.987773 0.578125)"/>
     </g>
    </g>
   </g>
   <g id="patch_13">
    <path d="M 26.014459 330.767885 
L 26.014459 228.21024 
" style="fill: none; stroke: #c2c1c1; stroke-width: 0.8; stroke-linejoin: miter; stroke-linecap: square"/>
   </g>
   <g id="patch_14">
    <path d="M 225.432651 330.767885 
L 225.432651 228.21024 
" style="fill: none; stroke: #c2c1c1; stroke-width: 0.8; stroke-linejoin: miter; stroke-linecap: square"/>
   </g>
   <g id="patch_15">
    <path d="M 26.014459 330.767885 
L 225.432651 330.767885 
" style="fill: none; stroke: #c2c1c1; stroke-width: 0.8; stroke-linejoin: miter; stroke-linecap: square"/>
   </g>
   <g id="patch_16">
    <path d="M 26.014459 228.21024 
L 225.432651 228.21024 
" style="fill: none; stroke: #c2c1c1; stroke-width: 0.8; stroke-linejoin: miter; stroke-linecap: square"/>
   </g>
   <g id="text_29">
    <!-- C -->
    <g transform="translate(30.002823 238.466004)scale(0.096 -0.096)">
     <defs>
      <path id="Roboto-Bold-43" d="M 3044 1516 
L 3981 1516 
Q 3934 822 3461 379 
Q 2988 -63 2150 -63 
Q 1275 -63 772 526 
Q 269 1116 269 2125 
L 269 2422 
Q 269 3431 784 4023 
Q 1300 4616 2159 4616 
Q 3013 4616 3466 4161 
Q 3919 3706 3984 3006 
L 3047 3006 
Q 3016 3413 2820 3630 
Q 2625 3847 2159 3847 
Q 1247 3847 1222 2500 
L 1222 2125 
Q 1222 1419 1436 1062 
Q 1650 706 2150 706 
Q 2594 706 2801 907 
Q 3009 1109 3044 1516 
z
" transform="scale(0.015625)"/>
     </defs>
     <use xlink:href="#Roboto-Bold-43"/>
    </g>
   </g>
   <g id="text_30">
    <!-- MeOH -->
    <g transform="translate(199.508286 325.640003)scale(0.08 -0.08)">
     <use xlink:href="#Roboto-Regular-4d"/>
     <use xlink:href="#Roboto-Regular-65" x="87.304688"/>
     <use xlink:href="#Roboto-Regular-4f" x="140.332031"/>
     <use xlink:href="#Roboto-Regular-48" x="209.130859"/>
    </g>
   </g>
  </g>
 </g>
 <defs>
  <clipPath id="p7f030572a3">
   <rect x="26.014459" y="3.00024" width="199.418192" height="102.557645"/>
  </clipPath>
  <clipPath id="p1c53b3e524">
   <rect x="26.014459" y="115.60524" width="199.418192" height="102.557645"/>
  </clipPath>
  <clipPath id="p5514cb5572">
   <rect x="26.014459" y="228.21024" width="199.418192" height="102.557645"/>
  </clipPath>
 </defs>
</svg>
