<?xml version="1.0" encoding="utf-8" standalone="no"?>
<!DOCTYPE svg PUBLIC "-//W3C//DTD SVG 1.1//EN"
  "http://www.w3.org/Graphics/SVG/1.1/DTD/svg11.dtd">
<svg xmlns:xlink="http://www.w3.org/1999/xlink" width="432pt" height="252pt" viewBox="0 0 432 252" xmlns="http://www.w3.org/2000/svg" version="1.1">
 <metadata>
  <rdf:RDF xmlns:dc="http://purl.org/dc/elements/1.1/" xmlns:cc="http://creativecommons.org/ns#" xmlns:rdf="http://www.w3.org/1999/02/22-rdf-syntax-ns#">
   <cc:Work>
    <dc:type rdf:resource="http://purl.org/dc/dcmitype/StillImage"/>
    <dc:date>2023-05-18T21:21:05.424576</dc:date>
    <dc:format>image/svg+xml</dc:format>
    <dc:creator>
     <cc:Agent>
      <dc:title>Matplotlib v3.6.2, https://matplotlib.org/</dc:title>
     </cc:Agent>
    </dc:creator>
   </cc:Work>
  </rdf:RDF>
 </metadata>
 <defs>
  <style type="text/css">*{stroke-linejoin: round; stroke-linecap: butt}</style>
 </defs>
 <g id="figure_1">
  <g id="patch_1">
   <path d="M 0 252 
L 432 252 
L 432 0 
L 0 0 
z
" style="fill: #ffffff"/>
  </g>
  <g id="axes_1">
   <g id="patch_2">
    <path d="M 26.894459 233.87476 
L 149.63976 233.87476 
L 149.63976 3.00024 
L 26.894459 3.00024 
z
" style="fill: #ffffff"/>
   </g>
   <g id="line2d_1">
    <path d="M 26.894459 233.87476 
L 85.344602 178.083457 
L 143.794746 31.815961 
" clip-path="url(#pd42101fa7d)" style="fill: none; stroke-dasharray: 5.55,2.4; stroke-dashoffset: 0; stroke: #c0c0c0; stroke-width: 1.5"/>
    <defs>
     <path id="mf0f652258b" d="M -2.5 2.5 
L 2.5 2.5 
L 2.5 -2.5 
L -2.5 -2.5 
z
"/>
    </defs>
    <g clip-path="url(#pd42101fa7d)">
     <use xlink:href="#mf0f652258b" x="26.894459" y="233.87476" style="fill: #c0c0c0"/>
     <use xlink:href="#mf0f652258b" x="85.344602" y="178.083457" style="fill: #c0c0c0"/>
     <use xlink:href="#mf0f652258b" x="143.794746" y="31.815961" style="fill: #c0c0c0"/>
    </g>
   </g>
   <g id="line2d_2">
    <path d="M 26.894459 204.657737 
L 85.344602 150.163097 
L 143.794746 22.231631 
" clip-path="url(#pd42101fa7d)" style="fill: none; stroke-dasharray: 5.55,2.4; stroke-dashoffset: 0; stroke: #b6e3fa; stroke-width: 1.5"/>
    <defs>
     <path id="me867fa8d88" d="M -2.5 2.5 
L 2.5 2.5 
L 2.5 -2.5 
L -2.5 -2.5 
z
"/>
    </defs>
    <g clip-path="url(#pd42101fa7d)">
     <use xlink:href="#me867fa8d88" x="26.894459" y="204.657737" style="fill: #b6e3fa"/>
     <use xlink:href="#me867fa8d88" x="85.344602" y="150.163097" style="fill: #b6e3fa"/>
     <use xlink:href="#me867fa8d88" x="143.794746" y="22.231631" style="fill: #b6e3fa"/>
    </g>
   </g>
   <g id="matplotlib.axis_1">
    <g id="text_1">
     <!-- 4mer Isomers -->
     <g style="fill: #191919" transform="translate(63.112109 247.37476) scale(0.08 -0.08)">
      <defs>
       <path id="Roboto-Black-34" d="M 184 1609 
L 2009 4544 
L 2009 4550 
L 3063 4550 
L 3063 1778 
L 3522 1778 
L 3522 966 
L 3063 966 
L 3063 0 
L 2009 0 
L 2009 966 
L 247 966 
L 184 1609 
z
M 1191 1778 
L 2009 1778 
L 2009 3184 
L 1941 3072 
L 1191 1778 
z
" transform="scale(0.015625)"/>
       <path id="Roboto-Black-6d" d="M 1819 2631 
Q 1522 2631 1359 2353 
L 1359 0 
L 306 0 
L 306 3381 
L 1294 3381 
L 1331 2984 
Q 1681 3444 2294 3444 
Q 2925 3444 3159 2934 
Q 3500 3444 4150 3444 
Q 4609 3444 4906 3156 
Q 5203 2869 5206 2144 
L 5206 0 
L 4150 0 
L 4150 2128 
Q 4150 2444 4042 2537 
Q 3934 2631 3747 2631 
Q 3431 2631 3278 2353 
L 3281 0 
L 2228 0 
L 2228 2122 
Q 2228 2444 2120 2537 
Q 2013 2631 1819 2631 
z
" transform="scale(0.015625)"/>
       <path id="Roboto-Black-65" d="M 3266 531 
Q 3109 309 2765 123 
Q 2422 -63 1934 -63 
Q 1109 -63 651 421 
Q 194 906 191 1569 
L 191 1697 
Q 191 2438 600 2941 
Q 1009 3444 1822 3444 
Q 2541 3444 2948 2997 
Q 3356 2550 3356 1788 
L 3356 1359 
L 1266 1359 
Q 1322 1078 1512 914 
Q 1703 750 2003 750 
Q 2506 750 2788 1100 
L 3266 531 
z
M 1813 2631 
Q 1544 2631 1422 2457 
Q 1300 2284 1266 2019 
L 2328 2019 
L 2328 2100 
Q 2334 2631 1813 2631 
z
" transform="scale(0.015625)"/>
       <path id="Roboto-Black-72" d="M 1994 2453 
Q 1500 2453 1359 2144 
L 1359 0 
L 306 0 
L 306 3381 
L 1291 3381 
L 1325 2950 
Q 1591 3444 2069 3444 
Q 2244 3444 2359 3406 
L 2341 2428 
L 1994 2453 
z
" transform="scale(0.015625)"/>
       <path id="Roboto-Black-20" transform="scale(0.015625)"/>
       <path id="Roboto-Black-49" d="M 1513 4550 
L 1513 0 
L 419 0 
L 419 4550 
L 1513 4550 
z
" transform="scale(0.015625)"/>
       <path id="Roboto-Black-73" d="M 2069 950 
Q 2069 1084 1920 1167 
Q 1772 1250 1391 1334 
Q 897 1444 556 1689 
Q 216 1934 216 2375 
Q 216 2803 580 3123 
Q 944 3444 1609 3444 
Q 2291 3444 2689 3137 
Q 3088 2831 3088 2344 
L 2034 2344 
Q 2034 2750 1606 2750 
Q 1444 2750 1328 2662 
Q 1213 2575 1213 2428 
Q 1213 2166 1773 2059 
Q 2334 1953 2709 1728 
Q 3084 1503 3084 981 
Q 3084 534 2686 235 
Q 2288 -63 1606 -63 
Q 878 -63 495 306 
Q 113 675 113 1084 
L 1094 1084 
Q 1103 850 1251 742 
Q 1400 634 1634 634 
Q 2069 634 2069 950 
z
" transform="scale(0.015625)"/>
       <path id="Roboto-Black-6f" d="M 166 1722 
Q 166 2463 583 2953 
Q 1000 3444 1794 3444 
Q 2591 3444 3009 2953 
Q 3428 2463 3428 1722 
L 3428 1656 
Q 3428 916 3011 426 
Q 2594 -63 1800 -63 
Q 1013 -63 595 414 
Q 178 891 166 1616 
L 166 1722 
z
M 1219 1656 
Q 1219 1275 1339 1012 
Q 1459 750 1800 750 
Q 2131 750 2253 1011 
Q 2375 1272 2375 1722 
Q 2375 2094 2254 2362 
Q 2134 2631 1794 2631 
Q 1463 2631 1341 2364 
Q 1219 2097 1219 1656 
z
" transform="scale(0.015625)"/>
      </defs>
      <use xlink:href="#Roboto-Black-34"/>
      <use xlink:href="#Roboto-Black-6d" x="57.958984"/>
      <use xlink:href="#Roboto-Black-65" x="144.091797"/>
      <use xlink:href="#Roboto-Black-72" x="198.583984"/>
      <use xlink:href="#Roboto-Black-20" x="236.474609"/>
      <use xlink:href="#Roboto-Black-49" x="261.376953"/>
      <use xlink:href="#Roboto-Black-73" x="291.601562"/>
      <use xlink:href="#Roboto-Black-6f" x="342.871094"/>
      <use xlink:href="#Roboto-Black-6d" x="399.072266"/>
      <use xlink:href="#Roboto-Black-65" x="485.205078"/>
      <use xlink:href="#Roboto-Black-72" x="539.697266"/>
      <use xlink:href="#Roboto-Black-73" x="577.587891"/>
     </g>
    </g>
   </g>
   <g id="matplotlib.axis_2">
    <g id="ytick_1">
     <g id="line2d_3">
      <defs>
       <path id="m2cbb3e513b" d="M 0 0 
L -3.5 0 
" style="stroke: #c2c1c1; stroke-width: 0.8"/>
      </defs>
      <g>
       <use xlink:href="#m2cbb3e513b" x="26.894459" y="233.87476" style="fill: #c2c1c1; stroke: #c2c1c1; stroke-width: 0.8"/>
      </g>
     </g>
     <g id="text_2">
      <!-- 0 -->
      <g style="fill: #191919" transform="translate(15.96024 236.49976) scale(0.07 -0.07)">
       <defs>
        <path id="Roboto-Regular-30" d="M 3234 1944 
Q 3234 825 2848 381 
Q 2463 -63 1800 -63 
Q 1156 -63 764 368 
Q 372 800 359 1872 
L 359 2638 
Q 359 3753 750 4183 
Q 1141 4613 1794 4613 
Q 2447 4613 2834 4195 
Q 3222 3778 3234 2709 
L 3234 1944 
z
M 2653 2734 
Q 2653 3503 2434 3822 
Q 2216 4141 1794 4141 
Q 1388 4141 1167 3831 
Q 947 3522 941 2778 
L 941 1850 
Q 941 1088 1164 750 
Q 1388 413 1800 413 
Q 2222 413 2436 745 
Q 2650 1078 2653 1825 
L 2653 2734 
z
" transform="scale(0.015625)"/>
       </defs>
       <use xlink:href="#Roboto-Regular-30"/>
      </g>
     </g>
    </g>
    <g id="ytick_2">
     <g id="line2d_4">
      <g>
       <use xlink:href="#m2cbb3e513b" x="26.894459" y="184.251473" style="fill: #c2c1c1; stroke: #c2c1c1; stroke-width: 0.8"/>
      </g>
     </g>
     <g id="text_3">
      <!-- 1 -->
      <g style="fill: #191919" transform="translate(15.96024 186.876473) scale(0.07 -0.07)">
       <defs>
        <path id="Roboto-Regular-31" d="M 2278 4575 
L 2278 0 
L 1700 0 
L 1700 3853 
L 534 3428 
L 534 3950 
L 2188 4575 
L 2278 4575 
z
" transform="scale(0.015625)"/>
       </defs>
       <use xlink:href="#Roboto-Regular-31"/>
      </g>
     </g>
    </g>
    <g id="ytick_3">
     <g id="line2d_5">
      <g>
       <use xlink:href="#m2cbb3e513b" x="26.894459" y="134.628186" style="fill: #c2c1c1; stroke: #c2c1c1; stroke-width: 0.8"/>
      </g>
     </g>
     <g id="text_4">
      <!-- 2 -->
      <g style="fill: #191919" transform="translate(15.96024 137.253186) scale(0.07 -0.07)">
       <defs>
        <path id="Roboto-Regular-32" d="M 3359 475 
L 3359 0 
L 381 0 
L 381 416 
L 1925 2134 
Q 2306 2566 2439 2819 
Q 2572 3072 2572 3328 
Q 2572 3663 2364 3900 
Q 2156 4138 1778 4138 
Q 1322 4138 1097 3878 
Q 872 3619 872 3213 
L 294 3213 
Q 294 3788 672 4200 
Q 1050 4613 1778 4613 
Q 2422 4613 2786 4278 
Q 3150 3944 3150 3397 
Q 3150 2997 2903 2592 
Q 2656 2188 2297 1797 
L 1078 475 
L 3359 475 
z
" transform="scale(0.015625)"/>
       </defs>
       <use xlink:href="#Roboto-Regular-32"/>
      </g>
     </g>
    </g>
    <g id="ytick_4">
     <g id="line2d_6">
      <g>
       <use xlink:href="#m2cbb3e513b" x="26.894459" y="85.004899" style="fill: #c2c1c1; stroke: #c2c1c1; stroke-width: 0.8"/>
      </g>
     </g>
     <g id="text_5">
      <!-- 3 -->
      <g style="fill: #191919" transform="translate(15.96024 87.629899) scale(0.07 -0.07)">
       <defs>
        <path id="Roboto-Regular-33" d="M 1222 2084 
L 1222 2559 
L 1647 2559 
Q 2094 2563 2312 2784 
Q 2531 3006 2531 3338 
Q 2531 4138 1738 4138 
Q 1369 4138 1141 3927 
Q 913 3716 913 3359 
L 334 3359 
Q 334 3881 720 4247 
Q 1106 4613 1738 4613 
Q 2353 4613 2733 4286 
Q 3113 3959 3113 3325 
Q 3113 3072 2942 2784 
Q 2772 2497 2397 2338 
Q 2850 2191 3015 1884 
Q 3181 1578 3181 1269 
Q 3181 631 2768 284 
Q 2356 -63 1741 -63 
Q 1147 -63 722 267 
Q 297 597 297 1203 
L 875 1203 
Q 875 844 1108 628 
Q 1341 413 1741 413 
Q 2138 413 2369 622 
Q 2600 831 2600 1256 
Q 2600 1681 2337 1882 
Q 2075 2084 1634 2084 
L 1222 2084 
z
" transform="scale(0.015625)"/>
       </defs>
       <use xlink:href="#Roboto-Regular-33"/>
      </g>
     </g>
    </g>
    <g id="ytick_5">
     <g id="line2d_7">
      <g>
       <use xlink:href="#m2cbb3e513b" x="26.894459" y="35.381611" style="fill: #c2c1c1; stroke: #c2c1c1; stroke-width: 0.8"/>
      </g>
     </g>
     <g id="text_6">
      <!-- 4 -->
      <g style="fill: #191919" transform="translate(15.96024 38.006611) scale(0.07 -0.07)">
       <defs>
        <path id="Roboto-Regular-34" d="M 166 1397 
L 2203 4550 
L 2819 4550 
L 2819 1531 
L 3453 1531 
L 3453 1056 
L 2819 1056 
L 2819 0 
L 2241 0 
L 2241 1056 
L 166 1056 
L 166 1397 
z
M 822 1531 
L 2241 1531 
L 2241 3766 
L 2169 3638 
L 822 1531 
z
" transform="scale(0.015625)"/>
       </defs>
       <use xlink:href="#Roboto-Regular-34"/>
      </g>
     </g>
    </g>
    <g id="ytick_6">
     <g id="line2d_8">
      <defs>
       <path id="m5f6d5328ff" d="M 0 0 
L -2 0 
" style="stroke: #c2c1c1; stroke-width: 0.6"/>
      </defs>
      <g>
       <use xlink:href="#m5f6d5328ff" x="26.894459" y="209.063116" style="fill: #c2c1c1; stroke: #c2c1c1; stroke-width: 0.6"/>
      </g>
     </g>
    </g>
    <g id="ytick_7">
     <g id="line2d_9">
      <g>
       <use xlink:href="#m5f6d5328ff" x="26.894459" y="159.439829" style="fill: #c2c1c1; stroke: #c2c1c1; stroke-width: 0.6"/>
      </g>
     </g>
    </g>
    <g id="ytick_8">
     <g id="line2d_10">
      <g>
       <use xlink:href="#m5f6d5328ff" x="26.894459" y="109.816542" style="fill: #c2c1c1; stroke: #c2c1c1; stroke-width: 0.6"/>
      </g>
     </g>
    </g>
    <g id="ytick_9">
     <g id="line2d_11">
      <g>
       <use xlink:href="#m5f6d5328ff" x="26.894459" y="60.193255" style="fill: #c2c1c1; stroke: #c2c1c1; stroke-width: 0.6"/>
      </g>
     </g>
    </g>
    <g id="ytick_10">
     <g id="line2d_12">
      <g>
       <use xlink:href="#m5f6d5328ff" x="26.894459" y="10.569968" style="fill: #c2c1c1; stroke: #c2c1c1; stroke-width: 0.6"/>
      </g>
     </g>
    </g>
    <g id="text_7">
     <!-- $\Delta$E (kcal mol$^{\bf{-1}}$) -->
     <g style="fill: #191919" transform="translate(10.20024 146.9575) rotate(-90) scale(0.08 -0.08)">
      <defs>
       <path id="DejaVuSans-394" d="M 2188 4044 
L 906 525 
L 3472 525 
L 2188 4044 
z
M 50 0 
L 1831 4666 
L 2547 4666 
L 4325 0 
L 50 0 
z
" transform="scale(0.015625)"/>
       <path id="Roboto-Black-45" d="M 347 0 
L 347 4550 
L 3488 4550 
L 3488 3703 
L 1444 3703 
L 1444 2744 
L 3166 2744 
L 3166 1928 
L 1444 1928 
L 1444 844 
L 3478 844 
L 3478 0 
L 347 0 
z
" transform="scale(0.015625)"/>
       <path id="Roboto-Black-28" d="M 378 1850 
Q 378 2713 608 3369 
Q 838 4025 1194 4444 
Q 1550 4863 1938 5019 
L 2134 4500 
Q 1788 4247 1505 3622 
Q 1222 2997 1216 1909 
L 1216 1756 
Q 1216 634 1500 1 
Q 1784 -631 2134 -888 
L 1938 -1406 
Q 1550 -1250 1195 -833 
Q 841 -416 612 229 
Q 384 875 378 1716 
L 378 1850 
z
" transform="scale(0.015625)"/>
       <path id="Roboto-Black-6b" d="M 2394 0 
L 1653 1259 
L 1359 966 
L 1359 0 
L 306 0 
L 306 4803 
L 1359 4803 
L 1359 2256 
L 2259 3381 
L 3522 3381 
L 2334 1991 
L 3600 0 
L 2394 0 
z
" transform="scale(0.015625)"/>
       <path id="Roboto-Black-63" d="M 1725 750 
Q 2197 750 2188 1206 
L 3178 1206 
Q 3181 634 2770 285 
Q 2359 -63 1750 -63 
Q 956 -63 561 428 
Q 166 919 166 1653 
L 166 1725 
Q 166 2459 561 2951 
Q 956 3444 1744 3444 
Q 2375 3444 2778 3087 
Q 3181 2731 3178 2088 
L 2188 2088 
Q 2194 2316 2076 2473 
Q 1959 2631 1719 2631 
Q 1400 2631 1309 2372 
Q 1219 2113 1219 1653 
Q 1219 1278 1306 1014 
Q 1394 750 1725 750 
z
" transform="scale(0.015625)"/>
       <path id="Roboto-Black-61" d="M 2200 0 
Q 2141 122 2103 303 
Q 1813 -63 1291 -63 
Q 822 -63 483 220 
Q 144 503 144 953 
Q 144 1469 520 1764 
Q 897 2059 1694 2066 
L 2053 2066 
L 2053 2244 
Q 2053 2709 1650 2709 
Q 1275 2709 1275 2341 
L 222 2341 
Q 222 2813 625 3128 
Q 1028 3444 1706 3444 
Q 2309 3444 2711 3142 
Q 3113 2841 3113 2238 
L 3113 766 
Q 3119 306 3256 53 
L 3256 0 
L 2200 0 
z
M 1541 688 
Q 1734 688 1865 770 
Q 1997 853 2053 956 
L 2053 1503 
L 1722 1503 
Q 1425 1503 1311 1351 
Q 1197 1200 1197 1009 
Q 1197 866 1295 777 
Q 1394 688 1541 688 
z
" transform="scale(0.015625)"/>
       <path id="Roboto-Black-6c" d="M 1409 4800 
L 1409 0 
L 353 0 
L 353 4800 
L 1409 4800 
z
" transform="scale(0.015625)"/>
       <path id="DejaVuSans-Bold-2212" d="M 678 2375 
L 4684 2375 
L 4684 1638 
L 678 1638 
L 678 2375 
z
" transform="scale(0.015625)"/>
       <path id="DejaVuSans-Bold-31" d="M 750 831 
L 1813 831 
L 1813 3847 
L 722 3622 
L 722 4441 
L 1806 4666 
L 2950 4666 
L 2950 831 
L 4013 831 
L 4013 0 
L 750 0 
L 750 831 
z
" transform="scale(0.015625)"/>
       <path id="Roboto-Black-29" d="M 1956 1763 
Q 1956 941 1717 283 
Q 1478 -375 1104 -812 
Q 731 -1250 328 -1406 
L 125 -888 
Q 469 -634 753 -9 
Q 1038 616 1044 1703 
L 1044 1856 
Q 1044 2978 759 3611 
Q 475 4244 125 4500 
L 328 5019 
Q 731 4863 1104 4425 
Q 1478 3988 1717 3330 
Q 1956 2672 1956 1850 
L 1956 1763 
z
" transform="scale(0.015625)"/>
      </defs>
      <use xlink:href="#DejaVuSans-394" transform="translate(0 0.684375)"/>
      <use xlink:href="#Roboto-Black-45" transform="translate(68.408203 0.684375)"/>
      <use xlink:href="#Roboto-Black-20" transform="translate(124.365234 0.684375)"/>
      <use xlink:href="#Roboto-Black-28" transform="translate(149.267578 0.684375)"/>
      <use xlink:href="#Roboto-Black-6b" transform="translate(184.570312 0.684375)"/>
      <use xlink:href="#Roboto-Black-63" transform="translate(239.257812 0.684375)"/>
      <use xlink:href="#Roboto-Black-61" transform="translate(291.259766 0.684375)"/>
      <use xlink:href="#Roboto-Black-6c" transform="translate(344.384766 0.684375)"/>
      <use xlink:href="#Roboto-Black-20" transform="translate(371.875 0.684375)"/>
      <use xlink:href="#Roboto-Black-6d" transform="translate(396.777344 0.684375)"/>
      <use xlink:href="#Roboto-Black-6f" transform="translate(482.910156 0.684375)"/>
      <use xlink:href="#Roboto-Black-6c" transform="translate(539.111328 0.684375)"/>
      <use xlink:href="#DejaVuSans-Bold-2212" transform="translate(567.558594 38.965625) scale(0.7)"/>
      <use xlink:href="#DejaVuSans-Bold-31" transform="translate(626.210938 38.965625) scale(0.7)"/>
      <use xlink:href="#Roboto-Black-29" transform="translate(677.651367 0.684375)"/>
     </g>
    </g>
   </g>
   <g id="line2d_13">
    <path d="M 26.894459 182.816842 
L 85.344602 129.661362 
L 143.794746 13.994265 
" clip-path="url(#pd42101fa7d)" style="fill: none; stroke: #4abbf3; stroke-width: 1.5; stroke-linecap: square"/>
    <defs>
     <path id="mb2fa6cddfd" d="M 0 2.5 
C 0.663008 2.5 1.29895 2.236584 1.767767 1.767767 
C 2.236584 1.29895 2.5 0.663008 2.5 0 
C 2.5 -0.663008 2.236584 -1.29895 1.767767 -1.767767 
C 1.29895 -2.236584 0.663008 -2.5 0 -2.5 
C -0.663008 -2.5 -1.29895 -2.236584 -1.767767 -1.767767 
C -2.236584 -1.29895 -2.5 -0.663008 -2.5 0 
C -2.5 0.663008 -2.236584 1.29895 -1.767767 1.767767 
C -1.29895 2.236584 -0.663008 2.5 0 2.5 
z
"/>
    </defs>
    <g clip-path="url(#pd42101fa7d)">
     <use xlink:href="#mb2fa6cddfd" x="26.894459" y="182.816842" style="fill: #4abbf3"/>
     <use xlink:href="#mb2fa6cddfd" x="85.344602" y="129.661362" style="fill: #4abbf3"/>
     <use xlink:href="#mb2fa6cddfd" x="143.794746" y="13.994265" style="fill: #4abbf3"/>
    </g>
   </g>
   <g id="patch_3">
    <path d="M 26.894459 233.87476 
L 26.894459 3.00024 
" style="fill: none; stroke: #c2c1c1; stroke-width: 0.8; stroke-linejoin: miter; stroke-linecap: square"/>
   </g>
   <g id="patch_4">
    <path d="M 149.63976 233.87476 
L 149.63976 3.00024 
" style="fill: none; stroke: #c2c1c1; stroke-width: 0.8; stroke-linejoin: miter; stroke-linecap: square"/>
   </g>
   <g id="patch_5">
    <path d="M 26.894459 233.87476 
L 149.63976 233.87476 
" style="fill: none; stroke: #c2c1c1; stroke-width: 0.8; stroke-linejoin: miter; stroke-linecap: square"/>
   </g>
   <g id="patch_6">
    <path d="M 26.894459 3.00024 
L 149.63976 3.00024 
" style="fill: none; stroke: #c2c1c1; stroke-width: 0.8; stroke-linejoin: miter; stroke-linecap: square"/>
   </g>
   <g id="text_8">
    <!-- A -->
    <g transform="translate(35.609375 15.698339) scale(0.096 -0.096)">
     <defs>
      <path id="Roboto-Bold-41" d="M 25 0 
L 1719 4550 
L 2588 4550 
L 4291 0 
L 3291 0 
L 2978 938 
L 1331 938 
L 1019 0 
L 25 0 
z
M 1584 1697 
L 2725 1697 
L 2156 3406 
L 1584 1697 
z
" transform="scale(0.015625)"/>
     </defs>
     <use xlink:href="#Roboto-Bold-41"/>
    </g>
   </g>
   <g id="legend_1">
    <g id="line2d_14">
     <path d="M 31.321912 22.917634 
L 39.321912 22.917634 
L 47.321912 22.917634 
" style="fill: none; stroke-dasharray: 5.55,2.4; stroke-dashoffset: 0; stroke: #c0c0c0; stroke-width: 1.5"/>
     <g>
      <use xlink:href="#mf0f652258b" x="39.321912" y="22.917634" style="fill: #c0c0c0"/>
     </g>
    </g>
    <g id="text_9">
     <!-- MP2 -->
     <g transform="translate(53.721912 25.717634) scale(0.08 -0.08)">
      <defs>
       <path id="Roboto-Regular-4d" d="M 2794 841 
L 4281 4550 
L 5056 4550 
L 5056 0 
L 4456 0 
L 4456 1775 
L 4516 3678 
L 3019 0 
L 2563 0 
L 1069 3684 
L 1128 1775 
L 1128 0 
L 528 0 
L 528 4550 
L 1303 4550 
L 2794 841 
z
" transform="scale(0.015625)"/>
       <path id="Roboto-Regular-50" d="M 1131 1784 
L 1131 0 
L 528 0 
L 528 4550 
L 2206 4550 
Q 2981 4550 3392 4159 
Q 3803 3769 3803 3163 
Q 3803 2503 3392 2143 
Q 2981 1784 2206 1784 
L 1131 1784 
z
M 1131 4056 
L 1131 2275 
L 2206 2275 
Q 2738 2275 2969 2522 
Q 3200 2769 3200 3156 
Q 3200 3506 2969 3781 
Q 2738 4056 2206 4056 
L 1131 4056 
z
" transform="scale(0.015625)"/>
      </defs>
      <use xlink:href="#Roboto-Regular-4d"/>
      <use xlink:href="#Roboto-Regular-50" x="87.304688"/>
      <use xlink:href="#Roboto-Regular-32" x="150.390625"/>
     </g>
    </g>
    <g id="line2d_15">
     <path d="M 31.321912 34.542634 
L 39.321912 34.542634 
L 47.321912 34.542634 
" style="fill: none; stroke-dasharray: 5.55,2.4; stroke-dashoffset: 0; stroke: #b6e3fa; stroke-width: 1.5"/>
     <g>
      <use xlink:href="#me867fa8d88" x="39.321912" y="34.542634" style="fill: #b6e3fa"/>
     </g>
    </g>
    <g id="text_10">
     <!-- MBE -->
     <g transform="translate(53.721912 37.342634) scale(0.08 -0.08)">
      <defs>
       <path id="Roboto-Regular-42" d="M 3625 1313 
Q 3625 675 3214 337 
Q 2803 0 2122 0 
L 528 0 
L 528 4550 
L 2019 4550 
Q 2719 4550 3111 4261 
Q 3503 3972 3503 3338 
Q 3503 3022 3323 2776 
Q 3144 2531 2831 2397 
Q 3216 2291 3420 1994 
Q 3625 1697 3625 1313 
z
M 1131 4056 
L 1131 2613 
L 2038 2613 
Q 2425 2613 2662 2806 
Q 2900 3000 2900 3344 
Q 2900 4041 2056 4056 
L 1131 4056 
z
M 3025 1306 
Q 3025 1688 2817 1908 
Q 2609 2128 2150 2128 
L 1131 2128 
L 1131 491 
L 2122 491 
Q 2550 491 2787 711 
Q 3025 931 3025 1306 
z
" transform="scale(0.015625)"/>
       <path id="Roboto-Regular-45" d="M 528 0 
L 528 4550 
L 3388 4550 
L 3388 4056 
L 1131 4056 
L 1131 2594 
L 3100 2594 
L 3100 2103 
L 1131 2103 
L 1131 491 
L 3419 491 
L 3419 0 
L 528 0 
z
" transform="scale(0.015625)"/>
      </defs>
      <use xlink:href="#Roboto-Regular-4d"/>
      <use xlink:href="#Roboto-Regular-42" x="87.304688"/>
      <use xlink:href="#Roboto-Regular-45" x="149.609375"/>
     </g>
    </g>
    <g id="line2d_16">
     <path d="M 31.321912 46.167634 
L 39.321912 46.167634 
L 47.321912 46.167634 
" style="fill: none; stroke: #4abbf3; stroke-width: 1.5; stroke-linecap: square"/>
     <g>
      <use xlink:href="#mb2fa6cddfd" x="39.321912" y="46.167634" style="fill: #4abbf3"/>
     </g>
    </g>
    <g id="text_11">
     <!-- mbGAP -->
     <g transform="translate(53.721912 48.967634) scale(0.08 -0.08)">
      <defs>
       <path id="Roboto-Regular-6d" d="M 1794 2956 
Q 1225 2956 1016 2478 
L 1016 0 
L 434 0 
L 434 3381 
L 984 3381 
L 1000 3013 
Q 1366 3444 2000 3444 
Q 2325 3444 2579 3314 
Q 2834 3184 2969 2900 
Q 3138 3144 3408 3294 
Q 3678 3444 4044 3444 
Q 4588 3444 4883 3153 
Q 5178 2863 5178 2222 
L 5178 0 
L 4597 0 
L 4597 2228 
Q 4597 2653 4401 2804 
Q 4206 2956 3875 2956 
Q 3525 2956 3325 2748 
Q 3125 2541 3094 2244 
L 3094 0 
L 2516 0 
L 2516 2225 
Q 2516 2622 2319 2789 
Q 2122 2956 1794 2956 
z
" transform="scale(0.015625)"/>
       <path id="Roboto-Regular-62" d="M 3303 1653 
Q 3303 913 2959 425 
Q 2616 -63 1988 -63 
Q 1347 -63 1000 391 
L 969 0 
L 438 0 
L 438 4800 
L 1019 4800 
L 1019 3016 
Q 1363 3444 1981 3444 
Q 2619 3444 2961 2969 
Q 3303 2494 3303 1719 
L 3303 1653 
z
M 1838 2956 
Q 1522 2956 1325 2804 
Q 1128 2653 1019 2431 
L 1019 959 
Q 1131 734 1331 581 
Q 1531 428 1844 428 
Q 2313 428 2517 789 
Q 2722 1150 2722 1653 
L 2722 1719 
Q 2722 2222 2526 2589 
Q 2331 2956 1838 2956 
z
" transform="scale(0.015625)"/>
       <path id="Roboto-Regular-47" d="M 3891 2266 
L 3891 600 
Q 3763 413 3403 175 
Q 3044 -63 2281 -63 
Q 1450 -63 915 507 
Q 381 1078 381 2100 
L 381 2453 
Q 381 3469 856 4041 
Q 1331 4613 2213 4613 
Q 2994 4613 3398 4219 
Q 3803 3825 3891 3219 
L 3288 3219 
Q 3225 3588 2979 3853 
Q 2734 4119 2213 4119 
Q 1584 4119 1287 3676 
Q 991 3234 988 2475 
L 988 2100 
Q 988 1313 1344 870 
Q 1700 428 2284 428 
Q 2769 428 2984 542 
Q 3200 656 3291 759 
L 3291 1778 
L 2238 1778 
L 2238 2266 
L 3891 2266 
z
" transform="scale(0.015625)"/>
       <path id="Roboto-Regular-41" d="M 91 0 
L 1825 4550 
L 2353 4550 
L 4094 0 
L 3475 0 
L 3041 1191 
L 1138 1191 
L 706 0 
L 91 0 
z
M 1319 1684 
L 2863 1684 
L 2091 3806 
L 1319 1684 
z
" transform="scale(0.015625)"/>
      </defs>
      <use xlink:href="#Roboto-Regular-6d"/>
      <use xlink:href="#Roboto-Regular-62" x="87.695312"/>
      <use xlink:href="#Roboto-Regular-47" x="143.847656"/>
      <use xlink:href="#Roboto-Regular-41" x="211.962891"/>
      <use xlink:href="#Roboto-Regular-50" x="277.197266"/>
     </g>
    </g>
   </g>
  </g>
  <g id="axes_2">
   <g id="patch_7">
    <path d="M 166.574459 233.87476 
L 289.31976 233.87476 
L 289.31976 3.00024 
L 166.574459 3.00024 
z
" style="fill: #ffffff"/>
   </g>
   <g id="line2d_17">
    <path d="M 166.574459 233.87476 
L 186.05784 175.179037 
L 205.541221 164.379054 
L 225.024602 152.030242 
L 244.507983 122.118463 
L 263.991365 80.720295 
L 283.474746 44.293127 
" clip-path="url(#pe361b41c95)" style="fill: none; stroke-dasharray: 5.55,2.4; stroke-dashoffset: 0; stroke: #c0c0c0; stroke-width: 1.5"/>
    <g clip-path="url(#pe361b41c95)">
     <use xlink:href="#mf0f652258b" x="166.574459" y="233.87476" style="fill: #c0c0c0"/>
     <use xlink:href="#mf0f652258b" x="186.05784" y="175.179037" style="fill: #c0c0c0"/>
     <use xlink:href="#mf0f652258b" x="205.541221" y="164.379054" style="fill: #c0c0c0"/>
     <use xlink:href="#mf0f652258b" x="225.024602" y="152.030242" style="fill: #c0c0c0"/>
     <use xlink:href="#mf0f652258b" x="244.507983" y="122.118463" style="fill: #c0c0c0"/>
     <use xlink:href="#mf0f652258b" x="263.991365" y="80.720295" style="fill: #c0c0c0"/>
     <use xlink:href="#mf0f652258b" x="283.474746" y="44.293127" style="fill: #c0c0c0"/>
    </g>
   </g>
   <g id="line2d_18">
    <path d="M 166.574459 178.527436 
L 186.05784 136.488473 
L 205.541221 128.531948 
L 225.024602 125.704115 
L 244.507983 97.19497 
L 263.991365 65.433764 
L 283.474746 32.689516 
" clip-path="url(#pe361b41c95)" style="fill: none; stroke-dasharray: 5.55,2.4; stroke-dashoffset: 0; stroke: #b6e3fa; stroke-width: 1.5"/>
    <g clip-path="url(#pe361b41c95)">
     <use xlink:href="#me867fa8d88" x="166.574459" y="178.527436" style="fill: #b6e3fa"/>
     <use xlink:href="#me867fa8d88" x="186.05784" y="136.488473" style="fill: #b6e3fa"/>
     <use xlink:href="#me867fa8d88" x="205.541221" y="128.531948" style="fill: #b6e3fa"/>
     <use xlink:href="#me867fa8d88" x="225.024602" y="125.704115" style="fill: #b6e3fa"/>
     <use xlink:href="#me867fa8d88" x="244.507983" y="97.19497" style="fill: #b6e3fa"/>
     <use xlink:href="#me867fa8d88" x="263.991365" y="65.433764" style="fill: #b6e3fa"/>
     <use xlink:href="#me867fa8d88" x="283.474746" y="32.689516" style="fill: #b6e3fa"/>
    </g>
   </g>
   <g id="matplotlib.axis_3">
    <g id="text_12">
     <!-- 5mer Isomers -->
     <g style="fill: #191919" transform="translate(202.792109 247.37476) scale(0.08 -0.08)">
      <defs>
       <path id="Roboto-Black-35" d="M 1178 2028 
L 341 2225 
L 616 4550 
L 3275 4550 
L 3275 3731 
L 1475 3731 
L 1372 2828 
Q 1447 2872 1626 2933 
Q 1806 2994 2025 2994 
Q 2700 2994 3065 2595 
Q 3431 2197 3431 1466 
Q 3431 1075 3261 725 
Q 3091 375 2741 156 
Q 2391 -63 1850 -63 
Q 1447 -63 1078 101 
Q 709 266 478 570 
Q 247 875 250 1294 
L 1309 1294 
Q 1322 1044 1467 897 
Q 1613 750 1844 750 
Q 2159 750 2267 984 
Q 2375 1219 2375 1538 
Q 2375 1872 2223 2069 
Q 2072 2266 1728 2266 
Q 1497 2266 1367 2186 
Q 1238 2106 1178 2028 
z
" transform="scale(0.015625)"/>
      </defs>
      <use xlink:href="#Roboto-Black-35"/>
      <use xlink:href="#Roboto-Black-6d" x="57.958984"/>
      <use xlink:href="#Roboto-Black-65" x="144.091797"/>
      <use xlink:href="#Roboto-Black-72" x="198.583984"/>
      <use xlink:href="#Roboto-Black-20" x="236.474609"/>
      <use xlink:href="#Roboto-Black-49" x="261.376953"/>
      <use xlink:href="#Roboto-Black-73" x="291.601562"/>
      <use xlink:href="#Roboto-Black-6f" x="342.871094"/>
      <use xlink:href="#Roboto-Black-6d" x="399.072266"/>
      <use xlink:href="#Roboto-Black-65" x="485.205078"/>
      <use xlink:href="#Roboto-Black-72" x="539.697266"/>
      <use xlink:href="#Roboto-Black-73" x="577.587891"/>
     </g>
    </g>
   </g>
   <g id="matplotlib.axis_4">
    <g id="ytick_11">
     <g id="line2d_19">
      <g>
       <use xlink:href="#m2cbb3e513b" x="166.574459" y="233.87476" style="fill: #c2c1c1; stroke: #c2c1c1; stroke-width: 0.8"/>
      </g>
     </g>
     <g id="text_13">
      <!-- 0 -->
      <g style="fill: #191919" transform="translate(155.64024 236.49976) scale(0.07 -0.07)">
       <use xlink:href="#Roboto-Regular-30"/>
      </g>
     </g>
    </g>
    <g id="ytick_12">
     <g id="line2d_20">
      <g>
       <use xlink:href="#m2cbb3e513b" x="166.574459" y="189.088497" style="fill: #c2c1c1; stroke: #c2c1c1; stroke-width: 0.8"/>
      </g>
     </g>
     <g id="text_14">
      <!-- 1 -->
      <g style="fill: #191919" transform="translate(155.64024 191.713497) scale(0.07 -0.07)">
       <use xlink:href="#Roboto-Regular-31"/>
      </g>
     </g>
    </g>
    <g id="ytick_13">
     <g id="line2d_21">
      <g>
       <use xlink:href="#m2cbb3e513b" x="166.574459" y="144.302233" style="fill: #c2c1c1; stroke: #c2c1c1; stroke-width: 0.8"/>
      </g>
     </g>
     <g id="text_15">
      <!-- 2 -->
      <g style="fill: #191919" transform="translate(155.64024 146.927233) scale(0.07 -0.07)">
       <use xlink:href="#Roboto-Regular-32"/>
      </g>
     </g>
    </g>
    <g id="ytick_14">
     <g id="line2d_22">
      <g>
       <use xlink:href="#m2cbb3e513b" x="166.574459" y="99.51597" style="fill: #c2c1c1; stroke: #c2c1c1; stroke-width: 0.8"/>
      </g>
     </g>
     <g id="text_16">
      <!-- 3 -->
      <g style="fill: #191919" transform="translate(155.64024 102.14097) scale(0.07 -0.07)">
       <use xlink:href="#Roboto-Regular-33"/>
      </g>
     </g>
    </g>
    <g id="ytick_15">
     <g id="line2d_23">
      <g>
       <use xlink:href="#m2cbb3e513b" x="166.574459" y="54.729706" style="fill: #c2c1c1; stroke: #c2c1c1; stroke-width: 0.8"/>
      </g>
     </g>
     <g id="text_17">
      <!-- 4 -->
      <g style="fill: #191919" transform="translate(155.64024 57.354706) scale(0.07 -0.07)">
       <use xlink:href="#Roboto-Regular-34"/>
      </g>
     </g>
    </g>
    <g id="ytick_16">
     <g id="line2d_24">
      <g>
       <use xlink:href="#m2cbb3e513b" x="166.574459" y="9.943443" style="fill: #c2c1c1; stroke: #c2c1c1; stroke-width: 0.8"/>
      </g>
     </g>
     <g id="text_18">
      <!-- 5 -->
      <g style="fill: #191919" transform="translate(155.64024 12.568443) scale(0.07 -0.07)">
       <defs>
        <path id="Roboto-Regular-35" d="M 1109 2166 
L 647 2284 
L 875 4550 
L 3209 4550 
L 3209 4016 
L 1366 4016 
L 1228 2778 
Q 1572 2975 1988 2975 
Q 2616 2975 2980 2561 
Q 3344 2147 3344 1450 
Q 3344 797 2987 367 
Q 2631 -63 1903 -63 
Q 1350 -63 947 248 
Q 544 559 481 1197 
L 1031 1197 
Q 1141 413 1903 413 
Q 2313 413 2538 691 
Q 2763 969 2763 1444 
Q 2763 1872 2527 2164 
Q 2291 2456 1853 2456 
Q 1563 2456 1413 2378 
Q 1263 2300 1109 2166 
z
" transform="scale(0.015625)"/>
       </defs>
       <use xlink:href="#Roboto-Regular-35"/>
      </g>
     </g>
    </g>
    <g id="ytick_17">
     <g id="line2d_25">
      <g>
       <use xlink:href="#m5f6d5328ff" x="166.574459" y="211.481628" style="fill: #c2c1c1; stroke: #c2c1c1; stroke-width: 0.6"/>
      </g>
     </g>
    </g>
    <g id="ytick_18">
     <g id="line2d_26">
      <g>
       <use xlink:href="#m5f6d5328ff" x="166.574459" y="166.695365" style="fill: #c2c1c1; stroke: #c2c1c1; stroke-width: 0.6"/>
      </g>
     </g>
    </g>
    <g id="ytick_19">
     <g id="line2d_27">
      <g>
       <use xlink:href="#m5f6d5328ff" x="166.574459" y="121.909101" style="fill: #c2c1c1; stroke: #c2c1c1; stroke-width: 0.6"/>
      </g>
     </g>
    </g>
    <g id="ytick_20">
     <g id="line2d_28">
      <g>
       <use xlink:href="#m5f6d5328ff" x="166.574459" y="77.122838" style="fill: #c2c1c1; stroke: #c2c1c1; stroke-width: 0.6"/>
      </g>
     </g>
    </g>
    <g id="ytick_21">
     <g id="line2d_29">
      <g>
       <use xlink:href="#m5f6d5328ff" x="166.574459" y="32.336575" style="fill: #c2c1c1; stroke: #c2c1c1; stroke-width: 0.6"/>
      </g>
     </g>
    </g>
   </g>
   <g id="line2d_30">
    <path d="M 166.574459 113.462596 
L 186.05784 96.562836 
L 205.541221 108.199667 
L 225.024602 113.921191 
L 244.507983 72.323543 
L 263.991365 56.123106 
L 283.474746 13.994265 
" clip-path="url(#pe361b41c95)" style="fill: none; stroke: #4abbf3; stroke-width: 1.5; stroke-linecap: square"/>
    <g clip-path="url(#pe361b41c95)">
     <use xlink:href="#mb2fa6cddfd" x="166.574459" y="113.462596" style="fill: #4abbf3"/>
     <use xlink:href="#mb2fa6cddfd" x="186.05784" y="96.562836" style="fill: #4abbf3"/>
     <use xlink:href="#mb2fa6cddfd" x="205.541221" y="108.199667" style="fill: #4abbf3"/>
     <use xlink:href="#mb2fa6cddfd" x="225.024602" y="113.921191" style="fill: #4abbf3"/>
     <use xlink:href="#mb2fa6cddfd" x="244.507983" y="72.323543" style="fill: #4abbf3"/>
     <use xlink:href="#mb2fa6cddfd" x="263.991365" y="56.123106" style="fill: #4abbf3"/>
     <use xlink:href="#mb2fa6cddfd" x="283.474746" y="13.994265" style="fill: #4abbf3"/>
    </g>
   </g>
   <g id="patch_8">
    <path d="M 166.574459 233.87476 
L 166.574459 3.00024 
" style="fill: none; stroke: #c2c1c1; stroke-width: 0.8; stroke-linejoin: miter; stroke-linecap: square"/>
   </g>
   <g id="patch_9">
    <path d="M 289.31976 233.87476 
L 289.31976 3.00024 
" style="fill: none; stroke: #c2c1c1; stroke-width: 0.8; stroke-linejoin: miter; stroke-linecap: square"/>
   </g>
   <g id="patch_10">
    <path d="M 166.574459 233.87476 
L 289.31976 233.87476 
" style="fill: none; stroke: #c2c1c1; stroke-width: 0.8; stroke-linejoin: miter; stroke-linecap: square"/>
   </g>
   <g id="patch_11">
    <path d="M 166.574459 3.00024 
L 289.31976 3.00024 
" style="fill: none; stroke: #c2c1c1; stroke-width: 0.8; stroke-linejoin: miter; stroke-linecap: square"/>
   </g>
   <g id="text_19">
    <!-- B -->
    <g transform="translate(175.289375 15.698339) scale(0.096 -0.096)">
     <defs>
      <path id="Roboto-Bold-42" d="M 3788 1341 
Q 3788 684 3369 345 
Q 2950 6 2175 0 
L 406 0 
L 406 4550 
L 2003 4550 
Q 2794 4550 3241 4247 
Q 3688 3944 3688 3306 
Q 3688 2997 3531 2737 
Q 3375 2478 3038 2344 
Q 3438 2244 3613 1956 
Q 3788 1669 3788 1341 
z
M 1347 3791 
L 1347 2647 
L 2003 2647 
Q 2747 2647 2747 3209 
Q 2747 3778 2034 3791 
L 1347 3791 
z
M 2850 1350 
Q 2850 1963 2231 1984 
L 1347 1984 
L 1347 756 
L 2147 756 
Q 2506 756 2678 925 
Q 2850 1094 2850 1350 
z
" transform="scale(0.015625)"/>
     </defs>
     <use xlink:href="#Roboto-Bold-42"/>
    </g>
   </g>
  </g>
  <g id="axes_3">
   <g id="patch_12">
    <path d="M 306.254459 233.87476 
L 428.99976 233.87476 
L 428.99976 3.00024 
L 306.254459 3.00024 
z
" style="fill: #ffffff"/>
   </g>
   <g id="line2d_31">
    <path d="M 306.254459 233.87476 
L 322.9545 220.804288 
L 339.654541 210.880413 
L 356.354582 198.522168 
L 373.054623 185.181349 
L 389.754664 178.372903 
L 406.454705 144.516025 
L 423.154746 143.209353 
" clip-path="url(#pac324d1f15)" style="fill: none; stroke-dasharray: 5.55,2.4; stroke-dashoffset: 0; stroke: #c0c0c0; stroke-width: 1.5"/>
    <g clip-path="url(#pac324d1f15)">
     <use xlink:href="#mf0f652258b" x="306.254459" y="233.87476" style="fill: #c0c0c0"/>
     <use xlink:href="#mf0f652258b" x="322.9545" y="220.804288" style="fill: #c0c0c0"/>
     <use xlink:href="#mf0f652258b" x="339.654541" y="210.880413" style="fill: #c0c0c0"/>
     <use xlink:href="#mf0f652258b" x="356.354582" y="198.522168" style="fill: #c0c0c0"/>
     <use xlink:href="#mf0f652258b" x="373.054623" y="185.181349" style="fill: #c0c0c0"/>
     <use xlink:href="#mf0f652258b" x="389.754664" y="178.372903" style="fill: #c0c0c0"/>
     <use xlink:href="#mf0f652258b" x="406.454705" y="144.516025" style="fill: #c0c0c0"/>
     <use xlink:href="#mf0f652258b" x="423.154746" y="143.209353" style="fill: #c0c0c0"/>
    </g>
   </g>
   <g id="line2d_32">
    <path d="M 306.254459 196.30339 
L 322.9545 192.079509 
L 339.654541 174.217063 
L 356.354582 164.012557 
L 373.054623 129.762653 
L 389.754664 135.719433 
L 406.454705 94.913784 
L 423.154746 92.837444 
" clip-path="url(#pac324d1f15)" style="fill: none; stroke-dasharray: 5.55,2.4; stroke-dashoffset: 0; stroke: #b6e3fa; stroke-width: 1.5"/>
    <g clip-path="url(#pac324d1f15)">
     <use xlink:href="#me867fa8d88" x="306.254459" y="196.30339" style="fill: #b6e3fa"/>
     <use xlink:href="#me867fa8d88" x="322.9545" y="192.079509" style="fill: #b6e3fa"/>
     <use xlink:href="#me867fa8d88" x="339.654541" y="174.217063" style="fill: #b6e3fa"/>
     <use xlink:href="#me867fa8d88" x="356.354582" y="164.012557" style="fill: #b6e3fa"/>
     <use xlink:href="#me867fa8d88" x="373.054623" y="129.762653" style="fill: #b6e3fa"/>
     <use xlink:href="#me867fa8d88" x="389.754664" y="135.719433" style="fill: #b6e3fa"/>
     <use xlink:href="#me867fa8d88" x="406.454705" y="94.913784" style="fill: #b6e3fa"/>
     <use xlink:href="#me867fa8d88" x="423.154746" y="92.837444" style="fill: #b6e3fa"/>
    </g>
   </g>
   <g id="matplotlib.axis_5">
    <g id="text_20">
     <!-- 6mer Isomers -->
     <g style="fill: #191919" transform="translate(342.472109 247.37476) scale(0.08 -0.08)">
      <defs>
       <path id="Roboto-Black-36" d="M 3528 1506 
Q 3528 838 3083 387 
Q 2638 -63 1938 -63 
Q 1225 -63 748 412 
Q 272 888 263 1734 
L 263 2153 
Q 263 2931 594 3481 
Q 925 4031 1470 4323 
Q 2016 4616 2653 4616 
L 2822 4616 
L 2822 3788 
L 2766 3788 
Q 2228 3788 1833 3523 
Q 1438 3259 1341 2722 
Q 1694 3069 2241 3069 
Q 2863 3069 3195 2619 
Q 3528 2169 3528 1506 
z
M 1316 1613 
Q 1316 750 1909 750 
Q 2156 750 2314 965 
Q 2472 1181 2472 1506 
Q 2472 1856 2305 2059 
Q 2138 2263 1872 2263 
Q 1666 2263 1525 2167 
Q 1384 2072 1316 1934 
L 1316 1613 
z
" transform="scale(0.015625)"/>
      </defs>
      <use xlink:href="#Roboto-Black-36"/>
      <use xlink:href="#Roboto-Black-6d" x="57.958984"/>
      <use xlink:href="#Roboto-Black-65" x="144.091797"/>
      <use xlink:href="#Roboto-Black-72" x="198.583984"/>
      <use xlink:href="#Roboto-Black-20" x="236.474609"/>
      <use xlink:href="#Roboto-Black-49" x="261.376953"/>
      <use xlink:href="#Roboto-Black-73" x="291.601562"/>
      <use xlink:href="#Roboto-Black-6f" x="342.871094"/>
      <use xlink:href="#Roboto-Black-6d" x="399.072266"/>
      <use xlink:href="#Roboto-Black-65" x="485.205078"/>
      <use xlink:href="#Roboto-Black-72" x="539.697266"/>
      <use xlink:href="#Roboto-Black-73" x="577.587891"/>
     </g>
    </g>
   </g>
   <g id="matplotlib.axis_6">
    <g id="ytick_22">
     <g id="line2d_33">
      <g>
       <use xlink:href="#m2cbb3e513b" x="306.254459" y="233.87476" style="fill: #c2c1c1; stroke: #c2c1c1; stroke-width: 0.8"/>
      </g>
     </g>
     <g id="text_21">
      <!-- 0 -->
      <g style="fill: #191919" transform="translate(295.32024 236.49976) scale(0.07 -0.07)">
       <use xlink:href="#Roboto-Regular-30"/>
      </g>
     </g>
    </g>
    <g id="ytick_23">
     <g id="line2d_34">
      <g>
       <use xlink:href="#m2cbb3e513b" x="306.254459" y="202.41843" style="fill: #c2c1c1; stroke: #c2c1c1; stroke-width: 0.8"/>
      </g>
     </g>
     <g id="text_22">
      <!-- 1 -->
      <g style="fill: #191919" transform="translate(295.32024 205.04343) scale(0.07 -0.07)">
       <use xlink:href="#Roboto-Regular-31"/>
      </g>
     </g>
    </g>
    <g id="ytick_24">
     <g id="line2d_35">
      <g>
       <use xlink:href="#m2cbb3e513b" x="306.254459" y="170.9621" style="fill: #c2c1c1; stroke: #c2c1c1; stroke-width: 0.8"/>
      </g>
     </g>
     <g id="text_23">
      <!-- 2 -->
      <g style="fill: #191919" transform="translate(295.32024 173.5871) scale(0.07 -0.07)">
       <use xlink:href="#Roboto-Regular-32"/>
      </g>
     </g>
    </g>
    <g id="ytick_25">
     <g id="line2d_36">
      <g>
       <use xlink:href="#m2cbb3e513b" x="306.254459" y="139.50577" style="fill: #c2c1c1; stroke: #c2c1c1; stroke-width: 0.8"/>
      </g>
     </g>
     <g id="text_24">
      <!-- 3 -->
      <g style="fill: #191919" transform="translate(295.32024 142.13077) scale(0.07 -0.07)">
       <use xlink:href="#Roboto-Regular-33"/>
      </g>
     </g>
    </g>
    <g id="ytick_26">
     <g id="line2d_37">
      <g>
       <use xlink:href="#m2cbb3e513b" x="306.254459" y="108.04944" style="fill: #c2c1c1; stroke: #c2c1c1; stroke-width: 0.8"/>
      </g>
     </g>
     <g id="text_25">
      <!-- 4 -->
      <g style="fill: #191919" transform="translate(295.32024 110.67444) scale(0.07 -0.07)">
       <use xlink:href="#Roboto-Regular-34"/>
      </g>
     </g>
    </g>
    <g id="ytick_27">
     <g id="line2d_38">
      <g>
       <use xlink:href="#m2cbb3e513b" x="306.254459" y="76.59311" style="fill: #c2c1c1; stroke: #c2c1c1; stroke-width: 0.8"/>
      </g>
     </g>
     <g id="text_26">
      <!-- 5 -->
      <g style="fill: #191919" transform="translate(295.32024 79.21811) scale(0.07 -0.07)">
       <use xlink:href="#Roboto-Regular-35"/>
      </g>
     </g>
    </g>
    <g id="ytick_28">
     <g id="line2d_39">
      <g>
       <use xlink:href="#m2cbb3e513b" x="306.254459" y="45.13678" style="fill: #c2c1c1; stroke: #c2c1c1; stroke-width: 0.8"/>
      </g>
     </g>
     <g id="text_27">
      <!-- 6 -->
      <g style="fill: #191919" transform="translate(295.32024 47.76178) scale(0.07 -0.07)">
       <defs>
        <path id="Roboto-Regular-36" d="M 3291 1484 
Q 3291 838 2930 387 
Q 2569 -63 1878 -63 
Q 1388 -63 1063 198 
Q 738 459 577 861 
Q 416 1263 416 1684 
L 416 1956 
Q 416 2597 595 3194 
Q 775 3791 1247 4173 
Q 1719 4556 2597 4556 
L 2647 4556 
L 2647 4066 
Q 2041 4066 1705 3853 
Q 1369 3641 1205 3302 
Q 1041 2963 1006 2575 
Q 1369 2984 1984 2984 
Q 2438 2984 2727 2765 
Q 3016 2547 3153 2201 
Q 3291 1856 3291 1484 
z
M 997 1666 
Q 997 1059 1267 737 
Q 1538 416 1878 416 
Q 2278 416 2498 708 
Q 2719 1000 2719 1456 
Q 2719 1863 2516 2184 
Q 2313 2506 1891 2506 
Q 1588 2506 1341 2325 
Q 1094 2144 997 1884 
L 997 1666 
z
" transform="scale(0.015625)"/>
       </defs>
       <use xlink:href="#Roboto-Regular-36"/>
      </g>
     </g>
    </g>
    <g id="ytick_29">
     <g id="line2d_40">
      <g>
       <use xlink:href="#m2cbb3e513b" x="306.254459" y="13.68045" style="fill: #c2c1c1; stroke: #c2c1c1; stroke-width: 0.8"/>
      </g>
     </g>
     <g id="text_28">
      <!-- 7 -->
      <g style="fill: #191919" transform="translate(295.32024 16.30545) scale(0.07 -0.07)">
       <defs>
        <path id="Roboto-Regular-37" d="M 3319 4550 
L 3319 4225 
L 1434 0 
L 825 0 
L 2706 4075 
L 244 4075 
L 244 4550 
L 3319 4550 
z
" transform="scale(0.015625)"/>
       </defs>
       <use xlink:href="#Roboto-Regular-37"/>
      </g>
     </g>
    </g>
    <g id="ytick_30">
     <g id="line2d_41">
      <g>
       <use xlink:href="#m5f6d5328ff" x="306.254459" y="218.146595" style="fill: #c2c1c1; stroke: #c2c1c1; stroke-width: 0.6"/>
      </g>
     </g>
    </g>
    <g id="ytick_31">
     <g id="line2d_42">
      <g>
       <use xlink:href="#m5f6d5328ff" x="306.254459" y="186.690265" style="fill: #c2c1c1; stroke: #c2c1c1; stroke-width: 0.6"/>
      </g>
     </g>
    </g>
    <g id="ytick_32">
     <g id="line2d_43">
      <g>
       <use xlink:href="#m5f6d5328ff" x="306.254459" y="155.233935" style="fill: #c2c1c1; stroke: #c2c1c1; stroke-width: 0.6"/>
      </g>
     </g>
    </g>
    <g id="ytick_33">
     <g id="line2d_44">
      <g>
       <use xlink:href="#m5f6d5328ff" x="306.254459" y="123.777605" style="fill: #c2c1c1; stroke: #c2c1c1; stroke-width: 0.6"/>
      </g>
     </g>
    </g>
    <g id="ytick_34">
     <g id="line2d_45">
      <g>
       <use xlink:href="#m5f6d5328ff" x="306.254459" y="92.321275" style="fill: #c2c1c1; stroke: #c2c1c1; stroke-width: 0.6"/>
      </g>
     </g>
    </g>
    <g id="ytick_35">
     <g id="line2d_46">
      <g>
       <use xlink:href="#m5f6d5328ff" x="306.254459" y="60.864945" style="fill: #c2c1c1; stroke: #c2c1c1; stroke-width: 0.6"/>
      </g>
     </g>
    </g>
    <g id="ytick_36">
     <g id="line2d_47">
      <g>
       <use xlink:href="#m5f6d5328ff" x="306.254459" y="29.408615" style="fill: #c2c1c1; stroke: #c2c1c1; stroke-width: 0.6"/>
      </g>
     </g>
    </g>
   </g>
   <g id="line2d_48">
    <path d="M 306.254459 193.002269 
L 322.9545 164.668529 
L 339.654541 136.52008 
L 356.354582 128.905554 
L 373.054623 45.871534 
L 389.754664 92.417404 
L 406.454705 14.49816 
L 423.154746 13.994265 
" clip-path="url(#pac324d1f15)" style="fill: none; stroke: #4abbf3; stroke-width: 1.5; stroke-linecap: square"/>
    <g clip-path="url(#pac324d1f15)">
     <use xlink:href="#mb2fa6cddfd" x="306.254459" y="193.002269" style="fill: #4abbf3"/>
     <use xlink:href="#mb2fa6cddfd" x="322.9545" y="164.668529" style="fill: #4abbf3"/>
     <use xlink:href="#mb2fa6cddfd" x="339.654541" y="136.52008" style="fill: #4abbf3"/>
     <use xlink:href="#mb2fa6cddfd" x="356.354582" y="128.905554" style="fill: #4abbf3"/>
     <use xlink:href="#mb2fa6cddfd" x="373.054623" y="45.871534" style="fill: #4abbf3"/>
     <use xlink:href="#mb2fa6cddfd" x="389.754664" y="92.417404" style="fill: #4abbf3"/>
     <use xlink:href="#mb2fa6cddfd" x="406.454705" y="14.49816" style="fill: #4abbf3"/>
     <use xlink:href="#mb2fa6cddfd" x="423.154746" y="13.994265" style="fill: #4abbf3"/>
    </g>
   </g>
   <g id="patch_13">
    <path d="M 306.254459 233.87476 
L 306.254459 3.00024 
" style="fill: none; stroke: #c2c1c1; stroke-width: 0.8; stroke-linejoin: miter; stroke-linecap: square"/>
   </g>
   <g id="patch_14">
    <path d="M 428.99976 233.87476 
L 428.99976 3.00024 
" style="fill: none; stroke: #c2c1c1; stroke-width: 0.8; stroke-linejoin: miter; stroke-linecap: square"/>
   </g>
   <g id="patch_15">
    <path d="M 306.254459 233.87476 
L 428.99976 233.87476 
" style="fill: none; stroke: #c2c1c1; stroke-width: 0.8; stroke-linejoin: miter; stroke-linecap: square"/>
   </g>
   <g id="patch_16">
    <path d="M 306.254459 3.00024 
L 428.99976 3.00024 
" style="fill: none; stroke: #c2c1c1; stroke-width: 0.8; stroke-linejoin: miter; stroke-linecap: square"/>
   </g>
   <g id="text_29">
    <!-- C -->
    <g transform="translate(314.969375 15.698339) scale(0.096 -0.096)">
     <defs>
      <path id="Roboto-Bold-43" d="M 3044 1516 
L 3981 1516 
Q 3934 822 3461 379 
Q 2988 -63 2150 -63 
Q 1275 -63 772 526 
Q 269 1116 269 2125 
L 269 2422 
Q 269 3431 784 4023 
Q 1300 4616 2159 4616 
Q 3013 4616 3466 4161 
Q 3919 3706 3984 3006 
L 3047 3006 
Q 3016 3413 2820 3630 
Q 2625 3847 2159 3847 
Q 1247 3847 1222 2500 
L 1222 2125 
Q 1222 1419 1436 1062 
Q 1650 706 2150 706 
Q 2594 706 2801 907 
Q 3009 1109 3044 1516 
z
" transform="scale(0.015625)"/>
     </defs>
     <use xlink:href="#Roboto-Bold-43"/>
    </g>
   </g>
  </g>
 </g>
 <defs>
  <clipPath id="pd42101fa7d">
   <rect x="26.894459" y="3.00024" width="122.745301" height="230.87452"/>
  </clipPath>
  <clipPath id="pe361b41c95">
   <rect x="166.574459" y="3.00024" width="122.745301" height="230.87452"/>
  </clipPath>
  <clipPath id="pac324d1f15">
   <rect x="306.254459" y="3.00024" width="122.745301" height="230.87452"/>
  </clipPath>
 </defs>
</svg>
