<?xml version="1.0" encoding="utf-8" standalone="no"?>
<!DOCTYPE svg PUBLIC "-//W3C//DTD SVG 1.1//EN"
  "http://www.w3.org/Graphics/SVG/1.1/DTD/svg11.dtd">
<svg xmlns:xlink="http://www.w3.org/1999/xlink" width="230.4pt" height="230.4pt" viewBox="0 0 230.4 230.4" xmlns="http://www.w3.org/2000/svg" version="1.1">
 <metadata>
  <rdf:RDF xmlns:dc="http://purl.org/dc/elements/1.1/" xmlns:cc="http://creativecommons.org/ns#" xmlns:rdf="http://www.w3.org/1999/02/22-rdf-syntax-ns#">
   <cc:Work>
    <dc:type rdf:resource="http://purl.org/dc/dcmitype/StillImage"/>
    <dc:date>2022-10-04T17:38:30.984993</dc:date>
    <dc:format>image/svg+xml</dc:format>
    <dc:creator>
     <cc:Agent>
      <dc:title>Matplotlib v3.6.0, https://matplotlib.org/</dc:title>
     </cc:Agent>
    </dc:creator>
   </cc:Work>
  </rdf:RDF>
 </metadata>
 <defs>
  <style type="text/css">*{stroke-linejoin: round; stroke-linecap: butt}</style>
 </defs>
 <g id="figure_1">
  <g id="patch_1">
   <path d="M 0 230.4 
L 230.4 230.4 
L 230.4 0 
L 0 0 
z
" style="fill: #ffffff"/>
  </g>
  <g id="axes_1">
   <g id="patch_2">
    <path d="M 31.746177 201.696635 
L 227.39976 201.696635 
L 227.39976 4.214337 
L 31.746177 4.214337 
z
" style="fill: #ffffff"/>
   </g>
   <g id="line2d_1">
    <path d="M 31.746177 201.696635 
L 31.932514 201.59867 
L 32.677861 200.487548 
L 33.423208 198.947425 
L 34.541229 197.143362 
L 36.031923 193.964557 
L 37.708953 190.121472 
L 39.385984 188.874414 
L 39.572321 188.819415 
L 39.758658 188.640803 
L 40.131331 188.001011 
L 40.504005 187.841186 
L 40.690341 187.787668 
L 41.063015 187.436605 
L 41.622025 187.395924 
L 41.994698 187.136601 
L 42.553709 186.968416 
L 42.926382 186.81668 
L 43.112719 186.816746 
L 43.858066 185.986094 
L 44.230739 185.893008 
L 45.162423 184.729986 
L 46.839454 180.974377 
L 47.398464 179.278129 
L 47.957474 178.647874 
L 48.330148 178.545873 
L 48.702821 178.514319 
L 49.075495 178.275993 
L 49.448168 178.17772 
L 49.820842 177.787332 
L 50.007179 177.803219 
L 50.379852 178.051654 
L 50.566189 177.826959 
L 51.125199 176.120975 
L 51.684209 174.262897 
L 53.733913 170.746227 
L 54.106587 170.528019 
L 54.47926 170.552741 
L 54.851934 170.653438 
L 55.038271 170.554102 
L 55.783618 169.705034 
L 56.156291 169.921284 
L 56.528965 170.269544 
L 56.715301 170.174593 
L 57.460648 168.791985 
L 57.833322 168.90601 
L 58.205995 169.03243 
L 58.392332 168.888478 
L 59.324016 167.206637 
L 60.2557 166.884903 
L 61.001047 166.066428 
L 61.37372 166.181295 
L 61.746393 166.362491 
L 62.119067 166.16775 
L 62.49174 166.006105 
L 62.678077 166.148144 
L 63.609761 167.639356 
L 64.168771 167.779989 
L 64.541445 168.356789 
L 64.914118 169.170762 
L 65.100455 169.379841 
L 65.286792 169.349727 
L 66.032139 168.496616 
L 66.404812 168.432955 
L 66.591149 168.257121 
L 66.963822 167.255038 
L 67.522833 165.108916 
L 67.895506 164.534376 
L 68.454516 164.10188 
L 68.82719 163.323737 
L 69.199863 162.290079 
L 69.3862 162.01484 
L 69.572537 161.950954 
L 70.131547 162.227661 
L 70.317884 162.064834 
L 71.063231 160.635503 
L 71.622241 160.178496 
L 71.994914 159.569232 
L 72.740261 158.016505 
L 73.671945 157.124619 
L 74.044619 156.547811 
L 74.230955 156.430117 
L 74.417292 156.505802 
L 75.162639 157.412946 
L 75.348976 157.397991 
L 75.721649 156.977476 
L 76.653333 155.545257 
L 77.771354 154.046645 
L 77.95769 154.112217 
L 78.330364 154.970912 
L 78.703037 156.038354 
L 78.889374 156.252547 
L 79.075711 156.140197 
L 79.821058 154.674617 
L 80.007395 154.788797 
L 80.752741 155.925068 
L 81.311752 155.776296 
L 81.684425 156.451938 
L 82.057099 157.324109 
L 82.243435 157.413329 
L 82.429772 157.091476 
L 83.175119 154.796375 
L 83.361456 154.66944 
L 83.734129 154.737147 
L 83.920466 154.607623 
L 84.29314 153.473901 
L 84.665813 152.202899 
L 84.85215 151.940077 
L 85.038487 151.942277 
L 85.41116 152.156379 
L 85.597497 151.916414 
L 86.529181 149.235422 
L 86.901854 149.598445 
L 87.088191 149.769435 
L 87.274528 149.767016 
L 87.647201 149.347187 
L 88.019875 148.95418 
L 88.206211 148.94052 
L 88.765222 149.293967 
L 88.951558 149.175805 
L 89.696905 147.848637 
L 89.883242 147.952064 
L 91.001262 149.884771 
L 91.746609 150.595985 
L 91.932946 150.583259 
L 92.30562 150.144988 
L 92.86463 149.25482 
L 93.050967 149.325399 
L 93.42364 149.711999 
L 93.796314 149.776866 
L 94.541661 149.534658 
L 95.100671 150.097923 
L 95.473344 149.826982 
L 96.218691 148.902286 
L 96.591365 148.861777 
L 97.150375 148.234966 
L 97.523049 147.904565 
L 97.895722 148.010471 
L 98.454732 148.444898 
L 99.013743 149.120952 
L 99.386416 149.207262 
L 99.572753 149.048262 
L 100.3181 148.004365 
L 100.690773 147.444598 
L 101.249783 146.146121 
L 101.622457 145.360789 
L 101.808794 145.412307 
L 102.181467 145.924075 
L 102.367804 145.951389 
L 102.554141 145.748246 
L 103.113151 144.580534 
L 103.299488 144.521091 
L 103.858498 145.30682 
L 104.044835 145.189293 
L 104.790182 143.615188 
L 104.976518 143.685145 
L 105.535529 144.506585 
L 105.721865 144.359501 
L 106.467212 142.843735 
L 106.839886 143.120508 
L 107.026223 143.264952 
L 107.212559 143.188939 
L 107.585233 142.152469 
L 107.957906 140.957412 
L 108.703253 139.601801 
L 109.075927 138.064698 
L 109.4486 136.368183 
L 109.821274 135.641195 
L 110.566621 135.182391 
L 111.125631 134.265535 
L 111.870978 133.711836 
L 112.057315 133.409112 
L 112.429988 132.158303 
L 112.988998 130.341318 
L 113.175335 130.098346 
L 113.361672 130.095653 
L 113.734345 130.779709 
L 114.293356 131.801798 
L 114.852366 132.614182 
L 115.225039 133.692806 
L 115.597713 134.695202 
L 115.78405 134.594261 
L 116.156723 133.298322 
L 116.529397 131.870775 
L 116.715733 131.638219 
L 116.90207 131.789958 
L 117.274744 132.336327 
L 117.46108 132.248076 
L 117.833754 131.330936 
L 118.206427 130.539179 
L 118.392764 130.607499 
L 118.765438 131.293973 
L 118.951774 131.312539 
L 119.138111 130.868273 
L 119.883458 127.73865 
L 120.256131 127.267972 
L 120.442468 127.151716 
L 120.628805 126.885667 
L 121.560489 124.71997 
L 121.746825 124.678096 
L 122.305836 125.042481 
L 122.864846 124.805391 
L 123.423856 125.320855 
L 123.79653 125.682517 
L 123.982866 125.718745 
L 124.35554 125.361382 
L 125.287224 124.145224 
L 126.591581 124.287861 
L 126.777918 124.571381 
L 127.150591 125.822104 
L 127.523265 127.093627 
L 127.709601 127.342196 
L 127.895938 127.301366 
L 128.454948 126.735396 
L 128.641285 126.854014 
L 129.200295 127.703269 
L 129.386632 127.573091 
L 129.759305 126.29355 
L 130.131979 125.393184 
L 130.318316 125.665818 
L 131.063663 128.280261 
L 131.249999 127.883703 
L 131.622673 126.560625 
L 131.80901 126.343441 
L 131.995346 126.593997 
L 132.554357 128.403838 
L 132.740693 128.200409 
L 133.48604 124.545882 
L 133.672377 124.529246 
L 134.231387 126.167735 
L 134.417724 125.950256 
L 135.163071 123.054017 
L 135.349408 123.485687 
L 135.908418 126.221568 
L 136.094755 126.231676 
L 136.653765 124.515543 
L 136.840102 124.489765 
L 137.026439 124.926363 
L 137.399112 126.302458 
L 137.585449 126.475534 
L 137.771786 126.041704 
L 138.330796 123.85347 
L 138.517133 123.719107 
L 138.703469 124.014311 
L 139.26248 125.425775 
L 139.448816 125.419467 
L 139.82149 125.123145 
L 140.007826 125.113491 
L 140.3805 125.577362 
L 140.753173 126.104505 
L 140.93951 126.101567 
L 141.312184 125.633333 
L 142.243867 124.155911 
L 142.802878 123.810555 
L 143.175551 123.460945 
L 143.548225 122.564364 
L 144.293572 120.519878 
L 145.411592 118.96596 
L 145.784266 118.421124 
L 145.970602 118.449975 
L 146.529613 119.102791 
L 146.715949 119.026134 
L 147.088623 118.279324 
L 147.647633 117.017232 
L 148.579317 116.289523 
L 149.138327 115.611958 
L 149.324664 115.667882 
L 149.883674 116.212763 
L 150.070011 116.207937 
L 150.442684 115.80921 
L 150.815358 115.208418 
L 151.001694 115.091845 
L 151.933378 115.118422 
L 152.306052 114.904307 
L 152.492388 114.98069 
L 152.865062 115.668344 
L 153.237735 116.311452 
L 153.424072 116.319092 
L 153.796746 115.615578 
L 154.169419 114.921244 
L 154.355756 114.82579 
L 154.914766 114.830992 
L 155.101103 114.516819 
L 155.660113 112.867113 
L 155.84645 112.724022 
L 156.591797 113.040703 
L 156.778134 112.491437 
L 157.523481 109.091507 
L 158.082491 107.630147 
L 158.455164 105.505029 
L 159.014174 101.779902 
L 159.386848 100.979996 
L 159.573185 100.812878 
L 159.759521 100.435479 
L 160.132195 98.629591 
L 160.691205 95.271847 
L 161.063879 94.482413 
L 161.250215 94.33933 
L 161.436552 93.95011 
L 161.809226 92.034876 
L 162.368236 88.823058 
L 162.554573 88.579324 
L 162.740909 88.853237 
L 163.113583 89.75222 
L 163.29992 89.688017 
L 163.672593 88.328195 
L 164.045267 86.966899 
L 164.231603 86.939899 
L 164.604277 88.07373 
L 164.790614 88.623025 
L 164.97695 88.661944 
L 165.163287 88.072288 
L 165.722297 85.161016 
L 165.908634 84.87117 
L 166.094971 85.103712 
L 166.467644 86.301068 
L 166.653981 86.474717 
L 166.840318 85.949991 
L 167.585665 82.281445 
L 167.772002 82.356877 
L 168.331012 83.728 
L 168.517349 83.343325 
L 169.262695 79.740436 
L 169.449032 79.59804 
L 170.008042 80.484212 
L 170.194379 80.325076 
L 170.567053 79.191958 
L 170.939726 78.213804 
L 171.126063 78.292052 
L 172.057747 80.441763 
L 172.616757 80.902324 
L 172.98943 81.840118 
L 173.362104 82.754423 
L 173.734777 83.254168 
L 174.107451 83.384274 
L 174.480124 83.373837 
L 174.852798 83.510829 
L 175.784482 83.375189 
L 176.343492 82.819546 
L 176.902502 82.236907 
L 177.461512 82.172341 
L 177.647849 81.903234 
L 178.020523 80.690442 
L 178.579533 78.80979 
L 178.952206 78.436033 
L 179.138543 78.391989 
L 179.32488 78.224296 
L 179.697553 77.232296 
L 180.256563 75.611391 
L 180.629237 75.198638 
L 181.00191 74.987937 
L 181.188247 74.587309 
L 181.560921 73.082554 
L 182.492604 68.992687 
L 183.237951 66.863608 
L 183.983298 63.66988 
L 184.169635 63.425105 
L 184.355972 63.516067 
L 184.728645 63.828979 
L 184.914982 63.499004 
L 185.287656 61.666428 
L 185.846666 58.960128 
L 186.033003 58.727825 
L 186.405676 58.63488 
L 186.592013 58.138712 
L 186.964686 55.87257 
L 187.33736 53.59267 
L 187.523697 53.170735 
L 187.710033 53.329009 
L 188.082707 54.310361 
L 188.269043 54.330816 
L 188.45538 53.781655 
L 189.01439 51.347123 
L 189.200727 51.339901 
L 189.573401 52.665797 
L 189.759737 53.36757 
L 189.946074 53.602851 
L 190.132411 53.221294 
L 190.691421 51.028755 
L 190.877758 51.043721 
L 191.623105 52.975745 
L 191.809442 52.647274 
L 192.368452 50.898586 
L 192.554789 50.965105 
L 193.113799 52.110153 
L 193.300136 52.054223 
L 193.672809 51.108967 
L 194.045483 50.284079 
L 194.231819 50.307025 
L 194.604493 50.639261 
L 194.79083 50.538002 
L 195.536177 49.406544 
L 195.90885 49.410952 
L 196.095187 49.434732 
L 196.281524 49.23673 
L 196.840534 47.831662 
L 197.213207 47.630812 
L 197.585881 47.511253 
L 197.772218 47.119763 
L 198.517564 43.938277 
L 198.703901 43.940656 
L 199.262911 44.657388 
L 199.449248 44.323052 
L 200.008258 42.347634 
L 200.194595 42.403869 
L 200.567269 43.669429 
L 200.939942 44.655881 
L 201.126279 44.357952 
L 201.498952 42.990557 
L 201.685289 42.721819 
L 201.871626 42.988822 
L 202.616973 46.077365 
L 202.80331 46.087809 
L 203.175983 45.556172 
L 203.36232 45.653016 
L 203.734993 46.958308 
L 204.107667 48.389552 
L 204.294004 48.524498 
L 204.48034 48.202625 
L 204.853014 47.172802 
L 205.039351 46.973869 
L 205.225687 47.10272 
L 205.598361 47.699941 
L 205.784698 47.702805 
L 205.971034 47.354514 
L 206.716381 45.185055 
L 207.275392 44.514752 
L 208.207075 42.400036 
L 208.766085 42.454243 
L 209.138759 41.906324 
L 209.325096 41.613675 
L 209.511432 41.567746 
L 209.697769 41.875599 
L 210.443116 44.108858 
L 211.002126 44.097667 
L 211.188463 44.488643 
L 211.561137 46.388581 
L 211.93381 48.694395 
L 212.306484 49.590065 
L 212.49282 49.759369 
L 212.679157 50.10382 
L 213.051831 51.775281 
L 213.610841 55.18616 
L 213.797178 55.693395 
L 214.542525 56.435687 
L 215.101535 58.158291 
L 215.287872 58.344898 
L 215.474208 58.17433 
L 216.033219 57.248283 
L 216.219555 57.338691 
L 216.778566 58.178848 
L 216.964902 58.072841 
L 217.523913 57.215043 
L 217.896586 57.171255 
L 218.082923 57.180053 
L 218.082923 57.180053 
" clip-path="url(#p785451dafb)" style="fill: none; stroke: #ffe7be; stroke-width: 1.5; stroke-linecap: square"/>
   </g>
   <g id="line2d_2">
    <path d="M 31.746177 201.696635 
L 33.050535 201.515327 
L 34.354892 201.129854 
L 35.845586 200.421701 
L 36.77727 199.908403 
L 37.89529 199.068099 
L 39.199647 197.923299 
L 40.690341 196.45218 
L 41.249352 195.604406 
L 43.671729 191.491526 
L 44.78975 189.672706 
L 46.46678 186.390589 
L 47.025791 185.791808 
L 47.398464 185.690089 
L 48.143811 185.658117 
L 48.702821 185.632021 
L 49.634505 185.687527 
L 50.379852 185.387067 
L 50.938862 184.786448 
L 51.684209 183.977299 
L 52.615893 183.160119 
L 53.174903 183.073521 
L 53.547577 182.612627 
L 54.106587 181.553954 
L 54.47926 181.439848 
L 54.851934 181.374456 
L 55.224607 180.633897 
L 55.597281 179.640484 
L 55.783618 179.373104 
L 55.969954 179.354611 
L 56.342628 179.661698 
L 56.528965 179.572267 
L 56.901638 178.613218 
L 57.274312 177.547287 
L 57.460648 177.276656 
L 58.019659 177.080874 
L 58.392332 175.82724 
L 58.951342 173.736423 
L 59.137679 173.508017 
L 59.696689 173.483902 
L 60.069363 172.488139 
L 60.442036 171.596065 
L 60.628373 171.540366 
L 60.81471 171.755677 
L 61.37372 172.887688 
L 61.560057 172.902828 
L 61.93273 172.813187 
L 62.119067 173.050403 
L 62.49174 174.208075 
L 62.864414 175.568153 
L 63.050751 175.937017 
L 63.609761 176.207931 
L 63.982434 177.034314 
L 64.541445 178.337173 
L 64.727781 178.421373 
L 65.286792 178.262666 
L 65.659465 178.707228 
L 66.032139 179.1696 
L 66.218475 179.21502 
L 66.404812 179.100934 
L 67.336496 177.732519 
L 68.82719 177.293431 
L 69.758874 178.245293 
L 69.94521 178.255937 
L 70.317884 177.896418 
L 71.249567 176.315107 
L 71.622241 176.377852 
L 71.994914 176.487096 
L 72.367588 176.325175 
L 72.740261 176.084715 
L 72.926598 176.113297 
L 73.485608 176.48048 
L 73.671945 176.317421 
L 74.789966 174.406266 
L 74.976302 174.349688 
L 75.162639 174.103973 
L 75.535313 172.72262 
L 76.094323 170.418002 
L 76.466996 169.903181 
L 76.653333 169.83313 
L 76.83967 169.626891 
L 77.212343 168.498584 
L 77.585017 167.438087 
L 77.771354 167.21941 
L 77.95769 167.234259 
L 78.330364 167.582905 
L 78.516701 167.426964 
L 78.889374 165.95927 
L 79.262048 164.560585 
L 79.448384 164.290378 
L 79.634721 164.29068 
L 80.007395 164.4426 
L 80.193731 164.132005 
L 80.752741 162.421026 
L 80.939078 162.377434 
L 81.311752 163.08655 
L 81.684425 163.649731 
L 81.870762 163.437128 
L 82.429772 162.048003 
L 82.616109 162.156274 
L 83.175119 163.525125 
L 83.361456 163.565868 
L 83.734129 162.71239 
L 83.920466 162.237292 
L 84.106803 162.109328 
L 84.29314 162.440428 
L 84.85215 163.917442 
L 85.038487 163.818614 
L 85.783834 162.348774 
L 85.97017 162.567954 
L 86.342844 163.312774 
L 86.529181 163.300565 
L 87.274528 161.926522 
L 87.460864 161.926135 
L 88.019875 162.538298 
L 88.206211 162.392951 
L 88.765222 161.486306 
L 89.137895 161.547659 
L 89.510569 161.613186 
L 89.696905 161.445293 
L 90.255916 160.392403 
L 90.442252 160.323342 
L 91.001262 160.853975 
L 91.373936 160.689055 
L 91.746609 160.591942 
L 91.932946 160.785271 
L 92.30562 161.802027 
L 92.678293 162.690387 
L 93.050967 162.686163 
L 93.42364 162.693281 
L 93.796314 162.936253 
L 94.355324 163.710577 
L 94.727997 163.326412 
L 95.100671 163.111204 
L 95.473344 163.364264 
L 95.846018 163.78079 
L 96.032355 163.771807 
L 96.591365 163.00174 
L 96.777702 163.053265 
L 97.150375 163.65986 
L 97.523049 164.328102 
L 97.709385 164.461661 
L 97.895722 164.364744 
L 98.268396 163.98098 
L 98.454732 164.047756 
L 98.827406 164.486009 
L 99.013743 164.501569 
L 99.200079 164.303847 
L 99.945426 162.718544 
L 100.131763 162.835329 
L 100.690773 163.929194 
L 100.87711 163.870547 
L 101.249783 163.218584 
L 101.622457 162.544136 
L 101.808794 162.498734 
L 101.99513 162.597999 
L 102.181467 162.528635 
L 102.367804 162.034102 
L 103.485824 157.048932 
L 103.858498 156.678726 
L 104.231171 155.424268 
L 104.790182 153.282062 
L 105.162855 152.594853 
L 105.535529 152.29472 
L 105.908202 151.186716 
L 106.280876 150.042736 
L 106.653549 149.538908 
L 107.212559 149.423077 
L 107.585233 148.722836 
L 107.957906 148.142585 
L 108.33058 147.990995 
L 109.075927 147.919019 
L 109.4486 147.758481 
L 109.821274 147.882562 
L 110.00761 147.807272 
L 110.380284 147.306076 
L 111.125631 145.932376 
L 112.057315 145.580182 
L 112.616325 145.734194 
L 112.988998 145.933228 
L 113.175335 145.870066 
L 114.293356 144.600934 
L 114.852366 144.658261 
L 115.411376 144.355821 
L 116.156723 144.356609 
L 116.529397 144.007193 
L 118.579101 140.598906 
L 119.510785 137.838746 
L 119.883458 137.416594 
L 120.442468 136.846048 
L 121.187815 136.307239 
L 121.560489 136.047823 
L 121.933162 135.146514 
L 122.864846 132.010423 
L 123.423856 131.377056 
L 124.169203 130.431427 
L 124.91455 129.276719 
L 125.287224 127.913815 
L 126.591581 120.79922 
L 127.336928 118.683128 
L 127.709601 118.24046 
L 128.082275 118.205729 
L 128.268612 118.050382 
L 128.641285 117.14865 
L 129.386632 114.56815 
L 129.759305 113.353558 
L 130.318316 111.248358 
L 130.504652 111.013101 
L 130.690989 111.209439 
L 131.249999 112.569192 
L 131.436336 112.475461 
L 132.181683 111.322682 
L 132.554357 111.635251 
L 132.740693 111.463209 
L 133.113367 109.712015 
L 133.48604 107.700909 
L 133.672377 107.334159 
L 133.858714 107.561772 
L 134.231387 108.816773 
L 134.417724 108.988072 
L 134.604061 108.651416 
L 135.163071 107.209226 
L 135.349408 107.348701 
L 135.908418 108.518952 
L 136.094755 108.177262 
L 136.840102 105.565053 
L 137.026439 105.742978 
L 137.399112 106.639688 
L 137.585449 106.70296 
L 137.958122 105.803533 
L 138.144459 105.368984 
L 138.330796 105.268798 
L 138.517133 105.56868 
L 139.076143 107.129101 
L 139.26248 107.188807 
L 139.82149 106.488407 
L 140.007826 106.539538 
L 140.566837 107.44429 
L 140.753173 107.406341 
L 141.49852 106.144325 
L 141.684857 106.312903 
L 142.057531 106.913588 
L 142.243867 106.942304 
L 142.616541 106.303551 
L 142.989214 105.520049 
L 143.175551 105.418184 
L 143.734561 105.983483 
L 143.920898 105.852939 
L 144.293572 104.776583 
L 144.666245 103.876836 
L 144.852582 103.937892 
L 145.411592 104.849773 
L 145.597929 104.659387 
L 146.156939 103.409572 
L 146.343276 103.314166 
L 146.902286 103.69238 
L 147.088623 103.454168 
L 147.461296 102.057414 
L 147.83397 100.781992 
L 148.020307 100.580561 
L 148.206643 100.648473 
L 148.579317 100.970371 
L 148.765654 100.884966 
L 149.138327 100.41441 
L 149.324664 100.414396 
L 149.697337 101.062508 
L 150.070011 101.877179 
L 150.256347 102.073442 
L 150.442684 102.022446 
L 151.001694 101.404832 
L 151.188031 101.451992 
L 151.933378 102.225421 
L 152.306052 101.906067 
L 152.492388 101.757961 
L 152.678725 101.770947 
L 153.051399 102.215025 
L 153.610409 103.097601 
L 153.796746 103.087633 
L 154.169419 102.617276 
L 154.542093 102.161438 
L 155.101103 102.088607 
L 155.28744 101.781038 
L 155.660113 100.334277 
L 156.219123 98.140094 
L 156.778134 96.961824 
L 157.150807 95.236328 
L 157.709817 92.611459 
L 157.896154 92.338275 
L 158.268828 92.354231 
L 158.455164 92.164483 
L 158.827838 90.846209 
L 159.386848 88.54999 
L 160.132195 87.137952 
L 160.877542 84.113182 
L 161.063879 83.941733 
L 161.436552 84.185378 
L 161.809226 84.406207 
L 162.181899 84.174297 
L 162.554573 83.989235 
L 162.927246 83.908908 
L 163.29992 83.313771 
L 164.045267 81.755551 
L 164.604277 81.412176 
L 164.790614 81.384163 
L 165.163287 81.738912 
L 165.908634 82.71198 
L 166.840318 82.788008 
L 167.026655 82.8444 
L 167.212991 82.745056 
L 167.585665 81.935713 
L 167.958338 81.039865 
L 168.144675 81.046285 
L 168.890022 82.356415 
L 169.076359 82.10053 
L 169.635369 80.625434 
L 169.821706 80.550281 
L 170.194379 80.80128 
L 170.380716 80.654212 
L 170.567053 80.051946 
L 171.3124 76.366133 
L 171.498736 76.396466 
L 172.057747 77.537488 
L 172.244083 77.325635 
L 172.803094 75.700507 
L 172.98943 75.672422 
L 173.548441 76.643654 
L 173.734777 76.416607 
L 174.107451 74.337966 
L 174.480124 72.143209 
L 174.666461 71.593751 
L 174.852798 71.410171 
L 175.225471 71.416864 
L 175.411808 71.070087 
L 176.157155 68.359498 
L 176.343492 68.240609 
L 176.902502 68.755855 
L 177.088839 68.450906 
L 177.461512 66.613262 
L 178.020523 63.939217 
L 178.952206 61.573326 
L 179.32488 60.219149 
L 179.511216 59.848232 
L 179.697553 59.755178 
L 180.4429 60.332833 
L 180.815574 59.306495 
L 181.374584 57.421201 
L 182.306268 55.655995 
L 182.865278 54.075084 
L 183.051615 53.911086 
L 183.237951 54.00452 
L 183.796962 54.73113 
L 183.983298 54.569718 
L 184.542309 52.7879 
L 185.101319 51.519944 
L 185.473992 50.406666 
L 186.405676 45.671892 
L 187.151023 44.490178 
L 188.082707 41.185491 
L 188.45538 40.427817 
L 188.828054 39.00752 
L 189.573401 35.809944 
L 190.877758 33.181769 
L 191.623105 32.338761 
L 191.995778 31.565523 
L 192.182115 31.425341 
L 192.927462 31.556297 
L 193.300136 30.883279 
L 193.672809 30.346074 
L 193.859146 30.584072 
L 194.418156 31.981187 
L 194.604493 31.979322 
L 195.34984 30.837784 
L 195.722513 32.101057 
L 196.095187 33.044168 
L 196.281524 32.758085 
L 196.840534 30.754636 
L 197.026871 30.7767 
L 197.399544 32.087123 
L 197.585881 32.715808 
L 197.772218 32.800931 
L 197.958554 32.236534 
L 198.331228 30.465812 
L 198.517564 30.150251 
L 198.703901 30.483034 
L 199.262911 33.10686 
L 199.449248 33.11364 
L 200.194595 30.31558 
L 200.380932 30.719707 
L 200.939942 32.898202 
L 201.126279 32.658967 
L 201.685289 30.543005 
L 201.871626 30.801324 
L 202.244299 32.901729 
L 202.616973 34.730812 
L 202.80331 34.688071 
L 203.175983 33.671275 
L 203.36232 33.560304 
L 203.548657 33.953303 
L 204.107667 36.262809 
L 204.294004 36.432349 
L 204.853014 35.470442 
L 205.039351 35.73433 
L 205.412024 37.517543 
L 205.784698 39.357513 
L 205.971034 39.790264 
L 206.716381 40.441882 
L 207.275392 41.656083 
L 207.461728 41.487881 
L 207.834402 40.133283 
L 208.207075 38.584523 
L 208.579749 37.907977 
L 208.952422 37.361206 
L 209.884106 35.249735 
L 210.070443 35.352956 
L 210.443116 35.772255 
L 210.629453 35.830587 
L 211.002126 35.645532 
L 212.120147 34.516455 
L 212.49282 34.146205 
L 212.679157 34.290957 
L 213.051831 35.100267 
L 213.610841 36.44335 
L 213.983514 37.240489 
L 214.915198 40.130278 
L 215.101535 40.101908 
L 215.660545 39.456496 
L 215.846882 39.661708 
L 216.405892 40.740213 
L 216.592229 40.730727 
L 217.151239 39.915899 
L 217.337576 40.021529 
L 217.896586 40.923959 
L 218.082923 40.817257 
L 218.082923 40.817257 
" clip-path="url(#p785451dafb)" style="fill: none; stroke: #90e0ef; stroke-width: 1.5; stroke-linecap: square"/>
   </g>
   <g id="line2d_3">
    <path d="M 31.746177 201.696635 
L 32.491524 201.553621 
L 33.795882 201.078321 
L 35.286576 200.241866 
L 36.218259 199.412955 
L 37.522617 197.938859 
L 41.994698 191.282345 
L 45.535097 184.980572 
L 46.094107 184.426447 
L 47.025791 183.650654 
L 47.398464 183.722474 
L 47.957474 183.865454 
L 48.330148 183.861091 
L 48.702821 184.121394 
L 50.007179 185.69207 
L 50.379852 185.771623 
L 50.938862 185.562959 
L 52.429556 184.80836 
L 53.174903 185.21292 
L 53.547577 184.960863 
L 53.92025 184.597965 
L 54.292924 184.58553 
L 54.665597 184.695009 
L 54.851934 184.631534 
L 55.783618 183.711622 
L 56.528965 184.255269 
L 56.901638 184.048145 
L 57.460648 183.714399 
L 57.833322 183.765594 
L 58.019659 183.647481 
L 58.392332 182.800532 
L 59.137679 180.876399 
L 59.883026 179.984325 
L 60.442036 178.753798 
L 60.81471 178.505055 
L 61.560057 178.923268 
L 61.93273 178.661394 
L 62.305404 178.739678 
L 62.678077 179.192368 
L 63.050751 179.766329 
L 63.609761 179.981227 
L 64.168771 180.816064 
L 64.727781 181.547487 
L 65.100455 181.391272 
L 65.473128 181.337991 
L 65.845802 181.331808 
L 66.218475 181.104106 
L 66.591149 180.525194 
L 67.150159 179.350425 
L 67.709169 178.721603 
L 68.454516 178.16414 
L 68.82719 177.719772 
L 69.572537 177.370385 
L 69.758874 177.336275 
L 69.94521 177.181368 
L 71.063231 175.20724 
L 71.808578 174.681037 
L 72.181251 174.368591 
L 72.553925 174.611332 
L 72.926598 175.103342 
L 73.485608 176.005102 
L 75.348976 177.384967 
L 75.721649 177.343319 
L 76.653333 177.659419 
L 76.83967 177.561463 
L 78.516701 174.923653 
L 79.075711 173.522464 
L 79.821058 172.312957 
L 80.193731 171.470507 
L 80.752741 169.831124 
L 81.498088 169.26911 
L 81.870762 169.036925 
L 82.429772 168.029018 
L 82.802446 167.711252 
L 83.175119 166.962216 
L 83.547793 165.695102 
L 84.106803 162.952446 
L 85.038487 160.656641 
L 85.97017 157.138773 
L 86.715517 156.666793 
L 87.088191 156.013695 
L 87.460864 155.303645 
L 88.019875 154.793341 
L 88.578885 153.189164 
L 88.951558 152.237574 
L 89.324232 151.917994 
L 89.696905 151.809359 
L 90.069579 151.16538 
L 92.119283 146.716387 
L 92.491956 146.619981 
L 93.050967 146.698528 
L 93.42364 146.298576 
L 95.846018 142.496184 
L 96.591365 141.644768 
L 97.150375 140.765887 
L 98.827406 139.055936 
L 99.200079 138.84288 
L 99.75909 138.13701 
L 100.3181 137.400366 
L 101.99513 136.611809 
L 102.367804 136.696849 
L 102.740477 136.429035 
L 103.485824 135.773261 
L 104.231171 135.747462 
L 105.349192 135.107146 
L 105.721865 134.941199 
L 106.653549 133.559752 
L 108.88959 129.463473 
L 109.262264 129.178873 
L 109.634937 129.227131 
L 110.00761 129.285114 
L 110.752957 128.848529 
L 111.311968 128.413045 
L 111.870978 128.121405 
L 113.175335 127.417444 
L 113.548009 127.200193 
L 113.920682 126.466105 
L 114.479692 125.182353 
L 115.038703 124.707436 
L 115.411376 123.712135 
L 116.156723 120.946251 
L 116.90207 119.23467 
L 117.46108 117.238588 
L 117.647417 116.877331 
L 117.833754 116.791521 
L 118.392764 117.228326 
L 118.765438 117.026567 
L 119.138111 116.810645 
L 119.510785 116.846901 
L 119.883458 116.905396 
L 120.069795 116.754711 
L 121.001478 115.341896 
L 121.560489 115.07309 
L 121.933162 114.822359 
L 122.492172 114.099084 
L 122.864846 113.198516 
L 123.237519 111.860206 
L 123.79653 108.774241 
L 124.541877 104.722821 
L 125.100887 103.059612 
L 125.846234 101.322466 
L 126.218907 100.907672 
L 126.777918 100.745152 
L 127.150591 100.236312 
L 127.709601 99.171843 
L 128.268612 98.743205 
L 129.200295 98.104596 
L 129.759305 98.161851 
L 130.131979 97.894973 
L 130.690989 97.439474 
L 131.063663 97.24816 
L 131.436336 96.244487 
L 131.995346 94.518443 
L 132.181683 94.308305 
L 132.554357 94.255537 
L 132.740693 93.989387 
L 133.113367 92.643585 
L 133.48604 91.250416 
L 133.672377 90.920787 
L 133.858714 90.908938 
L 134.231387 91.177079 
L 134.417724 90.930626 
L 135.349408 88.107074 
L 135.908418 88.709352 
L 136.094755 88.47825 
L 136.840102 86.337716 
L 137.026439 86.396037 
L 137.399112 87.047079 
L 137.585449 87.10054 
L 137.771786 86.768223 
L 138.517133 84.491787 
L 138.703469 84.619476 
L 139.076143 85.263856 
L 139.26248 85.256811 
L 139.448816 84.902573 
L 140.007826 83.167289 
L 140.194163 83.021772 
L 140.753173 83.657513 
L 140.93951 83.538575 
L 141.312184 82.556902 
L 141.684857 81.648025 
L 141.871194 81.603812 
L 142.616541 82.388069 
L 143.361888 81.797939 
L 143.548225 81.980314 
L 144.293572 83.597953 
L 144.852582 84.879795 
L 145.411592 86.257313 
L 145.784266 86.712796 
L 146.156939 86.809126 
L 147.27496 86.674996 
L 148.206643 86.012515 
L 149.324664 86.689459 
L 149.697337 87.136897 
L 150.256347 87.983358 
L 150.629021 88.025525 
L 151.374368 87.659054 
L 151.933378 87.888961 
L 152.306052 87.603984 
L 153.237735 86.405298 
L 153.424072 86.235933 
L 153.796746 85.337225 
L 154.728429 81.700204 
L 155.473776 80.532325 
L 156.219123 78.169649 
L 156.40546 78.019536 
L 156.778134 78.03837 
L 156.96447 77.843714 
L 157.337144 76.747518 
L 157.709817 75.47037 
L 157.896154 75.188856 
L 158.082491 75.193782 
L 158.641501 75.647205 
L 158.827838 75.532068 
L 159.200511 74.977847 
L 159.386848 74.939879 
L 159.573185 75.23289 
L 160.318532 77.429574 
L 160.504868 77.507976 
L 160.877542 77.423671 
L 161.063879 77.660102 
L 161.436552 78.879336 
L 161.809226 80.343454 
L 161.995562 80.73134 
L 162.181899 80.796864 
L 162.554573 80.668796 
L 162.740909 80.818929 
L 163.29992 81.926579 
L 163.486256 81.933081 
L 163.85893 80.813095 
L 164.231603 79.660095 
L 164.41794 79.481262 
L 164.97695 79.759434 
L 165.163287 79.512611 
L 166.094971 76.748934 
L 166.467644 76.566623 
L 166.653981 76.196583 
L 167.026655 74.314063 
L 167.399328 72.213224 
L 167.772002 71.27526 
L 168.144675 71.057198 
L 168.331012 70.704889 
L 169.262695 67.427477 
L 169.635369 67.329388 
L 169.821706 67.235827 
L 170.194379 66.300278 
L 170.753389 64.777901 
L 170.939726 64.719384 
L 171.3124 65.223794 
L 171.685073 65.666318 
L 172.244083 66.156987 
L 172.616757 66.762647 
L 174.107451 70.349936 
L 175.039135 72.235349 
L 175.598145 73.415267 
L 176.343492 74.386734 
L 177.275176 76.203593 
L 177.647849 76.202924 
L 178.020523 76.131955 
L 178.579533 76.329648 
L 178.765869 76.18725 
L 179.511216 74.994767 
L 179.697553 75.075462 
L 180.256563 75.991755 
L 180.4429 76.010809 
L 181.188247 75.500774 
L 181.747257 75.631 
L 181.933594 75.380861 
L 182.865278 73.277726 
L 183.237951 73.798847 
L 183.424288 74.05161 
L 183.610625 74.082473 
L 184.355972 73.376506 
L 184.542309 73.627402 
L 184.914982 74.50775 
L 185.101319 74.653046 
L 185.287656 74.404275 
L 185.846666 72.604642 
L 186.033003 72.490772 
L 186.219339 72.882657 
L 186.77835 75.028232 
L 186.964686 75.114483 
L 187.523697 74.165568 
L 187.710033 74.429942 
L 188.45538 77.188922 
L 188.641717 76.837187 
L 189.01439 75.534561 
L 189.200727 75.441525 
L 189.387064 76.020976 
L 190.132411 79.872571 
L 190.318748 79.650459 
L 190.505084 79.20762 
L 190.691421 79.051312 
L 190.877758 79.525208 
L 191.250431 82.209923 
L 191.623105 84.622256 
L 191.809442 84.806823 
L 192.182115 84.217402 
L 192.368452 84.373712 
L 192.741125 86.261902 
L 193.113799 88.222897 
L 193.300136 88.259429 
L 194.045483 85.861384 
L 194.231819 86.21774 
L 194.604493 87.53504 
L 194.79083 87.744473 
L 194.977166 87.385587 
L 195.34984 86.173765 
L 195.536177 86.094584 
L 195.722513 86.57969 
L 196.281524 89.070865 
L 196.46786 89.093566 
L 197.026871 87.650777 
L 197.213207 87.757229 
L 197.772218 89.503753 
L 197.958554 89.450369 
L 198.331228 87.789266 
L 198.703901 86.645947 
L 198.890238 86.868751 
L 199.262911 88.010743 
L 199.449248 88.140813 
L 199.635585 87.602118 
L 200.194595 84.884089 
L 200.380932 84.79649 
L 200.939942 86.057428 
L 201.126279 85.783731 
L 201.871626 82.728914 
L 202.057963 83.035481 
L 202.616973 84.699454 
L 202.80331 84.347714 
L 203.36232 82.382616 
L 203.548657 82.611345 
L 203.92133 84.48142 
L 204.294004 85.98308 
L 204.48034 85.942867 
L 204.853014 85.358277 
L 205.039351 85.498871 
L 205.412024 87.063963 
L 205.784698 88.702965 
L 205.971034 88.836655 
L 206.530045 88.086132 
L 206.716381 88.46019 
L 207.648065 92.104039 
L 208.020738 92.158198 
L 208.207075 92.425252 
L 208.952422 94.58286 
L 209.138759 94.53253 
L 209.697769 93.406353 
L 209.884106 93.350512 
L 210.256779 93.786202 
L 210.629453 94.123951 
L 211.002126 94.126661 
L 211.188463 94.252318 
L 211.93381 95.423045 
L 212.120147 95.341958 
L 212.679157 94.574488 
L 212.865494 94.642139 
L 213.424504 95.440434 
L 213.610841 95.342276 
L 214.169851 94.363994 
L 214.356188 94.472912 
L 214.728861 95.624866 
L 214.915198 96.204414 
L 215.101535 96.401363 
L 215.287872 96.133665 
L 215.846882 94.743916 
L 216.033219 94.89203 
L 216.592229 96.368834 
L 216.778566 96.140052 
L 217.523913 93.194004 
L 217.710249 93.328518 
L 218.082923 94.305816 
L 218.082923 94.305816 
" clip-path="url(#p785451dafb)" style="fill: none; stroke: #0077b6; stroke-width: 1.5; stroke-linecap: square"/>
   </g>
   <g id="line2d_4">
    <path d="M 31.746177 201.696635 
L 32.864198 201.535214 
L 33.982218 201.133211 
L 35.100239 200.530157 
L 36.963606 199.337249 
L 37.89529 198.478633 
L 38.826974 197.587858 
L 39.944994 196.704934 
L 40.504005 196.392685 
L 41.249352 195.544925 
L 43.485392 192.624198 
L 44.603413 191.575632 
L 45.535097 190.119075 
L 46.280444 189.019465 
L 46.839454 188.465823 
L 47.584801 188.144358 
L 48.330148 188.017424 
L 49.448168 188.253337 
L 50.007179 188.270811 
L 50.379852 188.043208 
L 50.752526 187.525224 
L 51.497872 186.278754 
L 52.429556 185.09472 
L 52.80223 184.948365 
L 53.36124 184.853242 
L 54.106587 184.084904 
L 54.47926 184.236389 
L 54.851934 184.445476 
L 55.038271 184.335891 
L 55.410944 183.570443 
L 55.783618 182.948585 
L 55.969954 183.022736 
L 56.528965 183.79673 
L 56.715301 183.702821 
L 57.274312 182.843311 
L 57.460648 182.897101 
L 58.019659 183.96335 
L 58.205995 183.851521 
L 58.951342 181.959326 
L 59.137679 181.896002 
L 59.696689 182.465102 
L 59.883026 182.08625 
L 60.442036 180.159836 
L 60.628373 179.912185 
L 60.81471 180.02665 
L 61.37372 181.202788 
L 61.560057 181.017903 
L 61.93273 180.484042 
L 62.119067 180.631077 
L 62.49174 181.926461 
L 62.864414 183.543429 
L 63.050751 183.823072 
L 63.609761 183.277033 
L 63.796098 183.504237 
L 64.355108 184.645773 
L 64.541445 184.719846 
L 64.727781 184.492171 
L 65.100455 183.565908 
L 65.286792 183.440775 
L 66.032139 184.196058 
L 66.218475 184.102887 
L 66.404812 183.866664 
L 66.963822 182.811784 
L 67.709169 182.955814 
L 68.640853 182.571119 
L 69.013527 183.012788 
L 69.199863 183.014012 
L 69.94521 182.061059 
L 70.876894 180.290514 
L 71.249567 179.475095 
L 71.435904 179.368623 
L 71.994914 179.340172 
L 72.367588 179.042187 
L 72.926598 178.241202 
L 73.112935 178.320667 
L 73.485608 178.74869 
L 73.671945 178.758999 
L 74.044619 178.368611 
L 74.603629 177.450881 
L 74.789966 177.538975 
L 74.976302 177.77343 
L 75.162639 177.808445 
L 75.348976 177.468803 
L 76.28066 174.626847 
L 76.83967 174.489743 
L 77.771354 172.553453 
L 77.95769 172.558322 
L 78.516701 172.977477 
L 79.262048 171.712884 
L 79.448384 171.808129 
L 79.821058 172.553754 
L 80.193731 173.11738 
L 80.752741 172.8254 
L 80.939078 173.121879 
L 81.311752 174.326212 
L 82.057099 177.036202 
L 82.616109 178.15351 
L 83.175119 179.232286 
L 83.361456 179.447582 
L 83.547793 179.473072 
L 84.106803 178.679123 
L 84.479476 178.880465 
L 84.85215 179.036185 
L 85.224823 178.992529 
L 86.715517 177.68995 
L 87.647201 177.379084 
L 88.019875 177.651845 
L 88.392548 177.709003 
L 88.951558 178.17308 
L 89.510569 178.538343 
L 89.696905 178.438126 
L 90.442252 177.289518 
L 90.814926 177.044709 
L 91.187599 176.366071 
L 91.932946 174.243534 
L 92.119283 174.229069 
L 92.491956 174.588856 
L 92.678293 174.620522 
L 93.237303 174.272196 
L 93.609977 174.070039 
L 93.98265 174.259452 
L 94.168987 174.351561 
L 94.355324 174.294038 
L 94.727997 173.790066 
L 95.473344 172.421408 
L 96.032355 172.029806 
L 96.777702 171.307364 
L 97.150375 171.077649 
L 97.523049 170.467424 
L 98.082059 169.311945 
L 98.827406 168.341889 
L 99.386416 167.253292 
L 100.504436 165.824722 
L 100.87711 165.722722 
L 101.063447 165.545775 
L 101.43612 164.630102 
L 101.99513 162.95039 
L 102.367804 162.235219 
L 102.740477 160.91345 
L 103.485824 157.63052 
L 104.231171 156.015615 
L 104.976518 153.405325 
L 105.349192 153.152451 
L 105.535529 153.066287 
L 105.721865 152.73225 
L 106.467212 150.188469 
L 106.653549 150.099207 
L 107.212559 150.368249 
L 107.398896 150.123725 
L 108.144243 148.268296 
L 108.703253 148.027775 
L 108.88959 147.720165 
L 109.634937 145.636315 
L 109.821274 145.71612 
L 110.380284 146.385383 
L 110.566621 146.242899 
L 110.939294 145.581464 
L 111.125631 145.478509 
L 111.311968 145.672047 
L 111.870978 146.694526 
L 112.057315 146.550661 
L 112.802662 144.900524 
L 112.988998 145.043951 
L 113.548009 145.849652 
L 114.107019 145.511435 
L 114.293356 145.803523 
L 115.038703 148.272379 
L 115.225039 148.239154 
L 115.597713 147.192956 
L 116.34306 144.79388 
L 117.274744 142.220913 
L 117.46108 142.157185 
L 117.647417 142.30549 
L 118.392764 143.43475 
L 119.138111 143.96164 
L 119.324448 143.795805 
L 119.697121 142.898836 
L 120.442468 140.740165 
L 121.001478 139.763819 
L 121.560489 138.635992 
L 121.746825 138.556016 
L 121.933162 138.727102 
L 122.492172 139.643792 
L 123.237519 140.20813 
L 123.610193 140.693792 
L 123.79653 140.711335 
L 123.982866 140.451054 
L 124.35554 139.257692 
L 124.91455 137.200769 
L 125.47356 136.076025 
L 126.032571 135.232318 
L 126.218907 135.123935 
L 126.405244 135.162634 
L 126.964254 135.804538 
L 127.150591 135.715135 
L 127.523265 134.882927 
L 129.386632 128.460571 
L 129.759305 127.858561 
L 130.131979 127.720026 
L 130.504652 127.806617 
L 130.877326 128.153222 
L 131.063663 128.131486 
L 131.436336 127.446615 
L 132.181683 125.386995 
L 132.740693 124.78271 
L 133.48604 123.215093 
L 133.672377 123.25173 
L 134.417724 124.43816 
L 134.604061 124.349443 
L 135.163071 123.749131 
L 135.349408 123.846347 
L 136.094755 124.985111 
L 136.653765 125.259051 
L 136.840102 125.657483 
L 137.399112 128.023666 
L 137.771786 129.374255 
L 138.144459 129.817679 
L 138.703469 129.857763 
L 139.26248 130.162977 
L 139.448816 129.985806 
L 139.82149 128.978368 
L 140.194163 128.074037 
L 140.3805 128.006719 
L 140.566837 128.194267 
L 141.312184 129.695977 
L 141.871194 129.965121 
L 142.243867 130.866679 
L 142.616541 132.082321 
L 142.802878 132.37374 
L 142.989214 132.304408 
L 143.734561 131.087626 
L 143.920898 131.070774 
L 145.038919 131.982723 
L 145.411592 132.843321 
L 145.970602 134.203385 
L 146.156939 134.24774 
L 146.343276 134.030286 
L 146.715949 132.969196 
L 147.27496 130.200995 
L 148.206643 125.254813 
L 148.765654 123.768633 
L 149.138327 123.081844 
L 149.511 122.893042 
L 149.883674 122.890576 
L 150.070011 122.757424 
L 150.442684 122.074071 
L 151.001694 120.811445 
L 151.747041 119.801461 
L 152.306052 119.317493 
L 152.678725 119.344232 
L 153.237735 119.585878 
L 153.424072 119.497051 
L 153.610409 119.259995 
L 153.983082 118.239564 
L 155.660113 112.125262 
L 156.032787 111.000241 
L 156.219123 110.773987 
L 156.591797 110.853195 
L 156.778134 110.9229 
L 156.96447 110.86449 
L 157.896154 109.986708 
L 158.455164 110.177222 
L 158.827838 109.770081 
L 159.200511 109.345696 
L 159.386848 109.419 
L 159.759521 110.367092 
L 160.318532 112.128675 
L 161.809226 115.364323 
L 161.995562 115.301878 
L 162.368236 114.579995 
L 162.740909 113.790563 
L 162.927246 113.665645 
L 163.672593 113.85365 
L 164.41794 113.124692 
L 164.790614 113.686885 
L 164.97695 114.017714 
L 165.163287 114.119342 
L 165.349624 113.876177 
L 166.281308 111.192569 
L 166.653981 111.012857 
L 166.840318 110.675172 
L 167.585665 108.211944 
L 167.772002 108.066774 
L 168.517349 108.507354 
L 169.262695 107.242268 
L 169.635369 107.241352 
L 169.821706 107.260219 
L 170.008042 107.070507 
L 170.939726 105.032615 
L 171.3124 105.077158 
L 171.498736 105.07531 
L 171.87141 104.5625 
L 172.244083 104.016392 
L 172.616757 103.807189 
L 172.98943 103.60789 
L 173.362104 102.728076 
L 173.921114 101.095801 
L 174.293788 100.45129 
L 174.852798 99.698783 
L 175.784482 97.962567 
L 176.157155 97.295757 
L 176.529829 96.047161 
L 177.461512 92.488854 
L 179.88389 85.952326 
L 180.629237 83.04034 
L 181.374584 80.482633 
L 181.933594 78.813554 
L 182.678941 76.045089 
L 183.424288 74.198202 
L 183.983298 71.036448 
L 184.355972 69.150955 
L 185.101319 66.810917 
L 185.846666 62.644876 
L 186.033003 62.268784 
L 186.405676 62.03441 
L 186.592013 61.666402 
L 186.964686 59.852655 
L 187.33736 57.700196 
L 187.710033 56.831155 
L 187.89637 56.722989 
L 188.082707 56.480521 
L 188.269043 55.878609 
L 189.01439 51.818483 
L 189.200727 51.675531 
L 189.759737 52.286677 
L 189.946074 51.862467 
L 190.505084 49.750469 
L 190.691421 49.686585 
L 191.436768 51.000472 
L 191.809442 49.703727 
L 192.182115 48.520872 
L 192.368452 48.574457 
L 192.927462 49.623885 
L 193.113799 49.357696 
L 193.672809 47.6866 
L 193.859146 47.830068 
L 194.604493 49.84194 
L 194.79083 49.451304 
L 195.34984 47.489964 
L 195.536177 47.485657 
L 195.90885 48.059788 
L 196.095187 47.991175 
L 196.281524 47.362955 
L 196.840534 44.136262 
L 197.026871 43.877963 
L 197.213207 44.206115 
L 197.585881 45.331019 
L 197.772218 45.325935 
L 197.958554 44.694317 
L 198.517564 42.082454 
L 198.703901 42.088387 
L 199.262911 43.268626 
L 199.449248 42.786482 
L 200.194595 38.522875 
L 200.380932 38.660564 
L 200.753605 39.802179 
L 200.939942 39.960735 
L 201.126279 39.527582 
L 201.498952 37.998884 
L 201.685289 37.741988 
L 201.871626 38.065105 
L 202.430636 40.483198 
L 202.616973 40.649955 
L 202.80331 40.237231 
L 203.175983 38.961645 
L 203.36232 38.732655 
L 203.548657 38.882374 
L 203.92133 39.551615 
L 204.107667 39.487595 
L 204.48034 38.137293 
L 204.853014 37.026087 
L 205.039351 37.03876 
L 205.598361 37.722634 
L 205.784698 37.484592 
L 206.343708 35.975507 
L 206.530045 35.822856 
L 207.089055 35.867864 
L 207.275392 35.458185 
L 208.020738 32.795126 
L 208.579749 31.865552 
L 209.511432 29.101419 
L 209.697769 29.19433 
L 210.070443 29.647855 
L 210.256779 29.692142 
L 210.81579 29.417687 
L 211.002126 29.71519 
L 211.747473 31.834277 
L 211.93381 31.768146 
L 212.306484 31.436332 
L 212.49282 31.693291 
L 212.865494 33.438074 
L 213.424504 36.528227 
L 214.169851 38.539689 
L 214.915198 42.067431 
L 215.101535 42.195865 
L 215.660545 41.647158 
L 215.846882 41.85218 
L 216.592229 43.480689 
L 216.778566 43.317625 
L 217.151239 42.758756 
L 217.337576 42.715044 
L 217.710249 43.18853 
L 217.896586 43.454779 
L 218.082923 43.481515 
L 218.082923 43.481515 
" clip-path="url(#p785451dafb)" style="fill: none; stroke: #03045e; stroke-width: 1.5; stroke-linecap: square"/>
   </g>
   <g id="line2d_5">
    <path d="M 31.746177 201.696635 
L 32.118851 201.540231 
L 32.864198 200.69591 
L 33.982218 199.493238 
L 34.913902 198.656948 
L 35.472912 197.67086 
L 36.031923 196.701313 
L 36.77727 195.446883 
L 37.708953 193.473521 
L 38.081627 192.878259 
L 38.826974 190.995788 
L 39.199647 190.220451 
L 39.758658 189.337661 
L 41.808362 185.005788 
L 42.367372 183.68373 
L 42.740045 183.236919 
L 43.671729 181.389055 
L 44.044403 181.152609 
L 44.230739 181.111994 
L 44.417076 180.93262 
L 45.162423 179.644814 
L 45.535097 179.514306 
L 45.721433 179.477383 
L 45.90777 179.313317 
L 46.280444 178.32296 
L 46.653117 177.447493 
L 47.025791 177.229873 
L 47.212127 177.158252 
L 47.398464 176.940732 
L 47.771138 175.962069 
L 48.143811 175.048432 
L 48.330148 174.92098 
L 48.702821 174.937745 
L 48.889158 174.776953 
L 49.261832 173.851421 
L 49.820842 172.429349 
L 50.379852 171.856647 
L 51.311536 169.890474 
L 51.870546 169.701912 
L 52.243219 168.641913 
L 52.615893 167.481369 
L 52.988566 167.085686 
L 53.36124 167.034072 
L 53.547577 166.733061 
L 54.292924 164.722419 
L 54.665597 164.653249 
L 54.851934 164.642969 
L 55.038271 164.403233 
L 55.410944 163.015007 
L 55.783618 161.583207 
L 55.969954 161.280785 
L 56.156291 161.275275 
L 56.528965 161.467362 
L 56.715301 161.21317 
L 57.460648 159.373651 
L 57.646985 159.548526 
L 58.019659 160.221547 
L 58.205995 160.164098 
L 58.392332 159.679793 
L 59.324016 155.753994 
L 59.696689 154.876158 
L 60.069363 153.284362 
L 60.81471 149.362436 
L 61.187383 148.809962 
L 61.560057 148.309376 
L 61.93273 147.02814 
L 62.49174 144.917065 
L 62.678077 144.714464 
L 63.050751 144.831758 
L 63.237087 144.883148 
L 63.423424 144.690829 
L 64.168771 143.046211 
L 64.355108 143.012158 
L 65.100455 143.448462 
L 66.032139 142.142803 
L 66.218475 142.222149 
L 66.777486 142.839994 
L 67.150159 142.940236 
L 67.522833 142.884871 
L 67.709169 143.058622 
L 68.454516 144.526435 
L 68.640853 144.608001 
L 69.199863 144.35717 
L 69.3862 144.618138 
L 70.317884 147.379727 
L 70.876894 147.692262 
L 71.808578 149.574002 
L 71.994914 149.32078 
L 72.553925 147.993394 
L 72.740261 147.929573 
L 73.485608 148.580517 
L 74.044619 148.120858 
L 74.230955 148.214401 
L 74.603629 149.051514 
L 74.976302 149.938033 
L 75.162639 150.113494 
L 75.348976 150.066797 
L 75.907986 149.630957 
L 76.28066 150.038948 
L 76.83967 150.848183 
L 77.026007 150.951831 
L 78.330364 150.604083 
L 78.516701 150.349603 
L 78.889374 149.221529 
L 79.634721 146.711356 
L 80.007395 146.171372 
L 80.380068 145.694144 
L 80.939078 144.021489 
L 81.311752 143.069006 
L 81.684425 142.725995 
L 82.057099 142.642479 
L 82.802446 142.147364 
L 82.988782 142.302985 
L 83.361456 143.114096 
L 84.106803 145.181105 
L 84.665813 145.94524 
L 85.224823 146.298277 
L 85.597497 146.263871 
L 86.342844 145.317676 
L 86.715517 144.935078 
L 86.901854 144.937467 
L 88.019875 145.831628 
L 88.951558 145.858294 
L 89.137895 145.60491 
L 89.510569 144.548142 
L 90.255916 142.141488 
L 90.814926 141.411541 
L 91.187599 140.78283 
L 91.746609 139.593668 
L 92.119283 139.223747 
L 92.491956 138.938905 
L 92.86463 138.02993 
L 93.796314 134.928946 
L 95.100671 132.919544 
L 95.287008 132.775865 
L 95.473344 132.776387 
L 96.032355 133.17913 
L 96.218691 133.13139 
L 96.591365 132.599514 
L 97.150375 131.589049 
L 97.336712 131.610553 
L 97.895722 132.199385 
L 98.268396 131.840297 
L 98.454732 131.669926 
L 98.641069 131.713754 
L 99.013743 132.483877 
L 99.386416 133.384688 
L 99.572753 133.478913 
L 99.75909 133.226384 
L 100.3181 131.908512 
L 100.87711 131.270213 
L 101.063447 130.806072 
L 101.43612 128.816241 
L 101.808794 126.627133 
L 102.181467 125.75975 
L 102.554141 125.337087 
L 102.926814 124.134481 
L 103.299488 122.707538 
L 103.485824 122.537212 
L 103.858498 123.178796 
L 104.044835 123.506915 
L 104.231171 123.52971 
L 104.417508 123.096177 
L 104.976518 121.080626 
L 105.162855 121.173896 
L 105.908202 123.148345 
L 106.467212 122.067014 
L 106.653549 122.333496 
L 107.026223 124.317371 
L 107.398896 126.421694 
L 107.585233 126.731064 
L 107.957906 126.413746 
L 108.144243 126.598975 
L 108.33058 127.325282 
L 109.075927 132.095834 
L 109.262264 132.250812 
L 109.4486 132.146805 
L 109.634937 132.254837 
L 109.821274 132.878415 
L 110.193947 135.581761 
L 110.566621 138.235757 
L 110.752957 138.722322 
L 111.125631 138.72521 
L 111.311968 139.0082 
L 111.684641 140.915766 
L 112.057315 143.130915 
L 112.243651 143.463154 
L 112.429988 143.189218 
L 112.802662 142.386023 
L 112.988998 142.518372 
L 113.361672 144.092458 
L 113.734345 145.751402 
L 113.920682 145.981849 
L 114.293356 145.924072 
L 114.479692 146.145475 
L 114.852366 147.618891 
L 115.225039 149.339153 
L 115.411376 149.497757 
L 115.597713 149.086582 
L 116.156723 147.28949 
L 116.34306 147.170874 
L 116.715733 147.347358 
L 116.90207 147.095769 
L 117.647417 144.836253 
L 117.833754 145.016099 
L 118.392764 146.568168 
L 118.579101 146.433596 
L 119.510785 143.753342 
L 119.697121 143.403161 
L 119.883458 142.743759 
L 120.815142 137.268525 
L 121.001478 137.143604 
L 121.374152 137.155169 
L 121.560489 136.891137 
L 122.119499 135.640642 
L 122.305836 135.609029 
L 122.678509 135.999869 
L 122.864846 135.955683 
L 123.051183 135.506538 
L 123.982866 131.535872 
L 124.35554 131.132598 
L 124.541877 130.735236 
L 125.287224 128.163403 
L 125.47356 128.116197 
L 126.032571 128.830504 
L 126.218907 128.678531 
L 127.150591 126.503025 
L 127.523265 125.873123 
L 127.895938 124.205475 
L 128.454948 121.208773 
L 128.641285 120.783149 
L 128.827622 120.636837 
L 129.200295 120.657805 
L 129.386632 120.454844 
L 130.131979 118.771787 
L 130.504652 118.743327 
L 130.690989 118.768029 
L 130.877326 118.593178 
L 131.249999 117.263832 
L 131.80901 114.899992 
L 132.181683 114.373299 
L 132.554357 114.098463 
L 132.92703 113.39822 
L 133.48604 112.344436 
L 133.858714 112.208531 
L 134.231387 112.301454 
L 134.417724 112.219382 
L 134.790398 111.527287 
L 135.349408 110.248775 
L 135.722081 109.861488 
L 136.094755 109.662976 
L 136.467428 108.976063 
L 136.840102 108.251999 
L 137.026439 108.152783 
L 137.212775 108.325067 
L 137.585449 109.035135 
L 137.771786 109.126815 
L 137.958122 108.915147 
L 138.889806 107.001542 
L 139.26248 107.05588 
L 139.448816 106.848734 
L 139.82149 105.859618 
L 140.194163 104.892452 
L 140.3805 104.858487 
L 141.125847 106.209659 
L 141.312184 106.181967 
L 141.871194 105.535484 
L 142.057531 105.655659 
L 142.616541 106.405969 
L 142.989214 106.406653 
L 143.361888 106.276063 
L 143.548225 106.480596 
L 144.293572 108.012833 
L 144.852582 108.50465 
L 145.597929 109.104798 
L 146.343276 109.009717 
L 146.715949 109.15684 
L 147.27496 109.711888 
L 147.83397 110.396013 
L 148.020307 110.412823 
L 148.39298 110.052118 
L 149.697337 108.379124 
L 150.070011 108.00175 
L 150.256347 108.193322 
L 150.815358 109.808001 
L 151.188031 110.620063 
L 152.492388 112.18596 
L 152.865062 111.737726 
L 153.237735 111.295217 
L 153.796746 111.147212 
L 154.169419 110.347131 
L 154.914766 108.306995 
L 155.28744 107.690567 
L 155.660113 106.578316 
L 156.219123 104.687997 
L 156.96447 103.210183 
L 159.014174 95.929656 
L 159.573185 94.250372 
L 160.504868 92.374579 
L 161.063879 91.129004 
L 161.809226 89.90477 
L 162.554573 88.571363 
L 162.740909 88.538898 
L 163.113583 88.783346 
L 163.672593 89.274901 
L 164.045267 89.143986 
L 164.790614 88.799389 
L 165.163287 88.684159 
L 165.535961 88.131106 
L 166.094971 87.191466 
L 166.467644 87.041136 
L 166.653981 87.043393 
L 166.840318 86.909933 
L 167.212991 86.065034 
L 167.772002 84.745468 
L 168.144675 84.60835 
L 168.331012 84.556839 
L 168.703685 84.034152 
L 169.076359 83.407204 
L 169.449032 83.149504 
L 169.821706 83.000304 
L 170.008042 82.680059 
L 170.939726 80.236409 
L 171.498736 79.829859 
L 172.244083 78.345721 
L 172.616757 78.333266 
L 172.803094 78.340683 
L 172.98943 78.184821 
L 173.362104 77.131634 
L 173.734777 75.921395 
L 174.107451 75.362021 
L 174.480124 75.162713 
L 174.666461 74.860993 
L 175.411808 72.750248 
L 175.598145 72.659514 
L 175.970818 72.692622 
L 176.157155 72.424935 
L 176.529829 70.772228 
L 177.088839 67.907005 
L 177.834186 66.067664 
L 178.765869 61.070433 
L 179.32488 59.703127 
L 180.4429 54.327065 
L 180.815574 53.506442 
L 181.374584 51.351081 
L 181.747257 50.132151 
L 182.119931 49.63746 
L 182.492604 49.148055 
L 183.424288 47.124236 
L 183.983298 46.518408 
L 185.101319 44.203214 
L 185.473992 43.705229 
L 186.219339 42.104271 
L 186.592013 41.843143 
L 186.964686 41.788656 
L 187.33736 41.432082 
L 187.710033 41.127776 
L 188.45538 40.921548 
L 189.387064 39.74531 
L 189.759737 39.801301 
L 189.946074 39.686942 
L 190.691421 38.600607 
L 191.436768 39.382036 
L 191.623105 39.089611 
L 192.182115 37.616219 
L 192.368452 37.716491 
L 192.927462 38.957501 
L 193.113799 38.787919 
L 193.859146 36.153669 
L 194.045483 36.47201 
L 194.418156 37.671446 
L 194.604493 37.722784 
L 194.79083 37.1344 
L 195.34984 34.363684 
L 195.536177 34.419935 
L 196.095187 36.659921 
L 196.281524 36.612171 
L 196.654197 34.439711 
L 197.026871 32.594666 
L 197.213207 32.695604 
L 197.585881 33.982841 
L 197.772218 34.074048 
L 197.958554 33.266166 
L 198.517564 28.831057 
L 198.703901 28.429984 
L 198.890238 28.812012 
L 199.262911 30.252375 
L 199.449248 30.193195 
L 199.821922 27.770999 
L 200.194595 25.818779 
L 200.380932 26.076311 
L 200.939942 28.907435 
L 201.126279 28.809564 
L 201.685289 26.181481 
L 201.871626 26.252375 
L 202.244299 28.217662 
L 202.616973 29.822001 
L 202.80331 29.470509 
L 203.36232 26.957811 
L 203.548657 27.10116 
L 204.107667 29.221972 
L 204.294004 29.055029 
L 205.039351 25.865018 
L 205.225687 26.215217 
L 205.598361 27.471938 
L 205.784698 27.528699 
L 205.971034 26.856413 
L 206.530045 23.482691 
L 206.716381 23.108132 
L 206.902718 23.168518 
L 207.089055 23.360259 
L 207.275392 23.280076 
L 207.461728 22.623168 
L 208.207075 18.004456 
L 208.393412 17.855275 
L 208.766085 18.207971 
L 208.952422 18.038583 
L 209.325096 16.475445 
L 209.697769 14.843185 
L 209.884106 14.598202 
L 210.070443 14.744556 
L 210.443116 15.225818 
L 210.629453 15.10723 
L 211.3748 13.709743 
L 212.120147 14.481726 
L 212.865494 13.618256 
L 213.238167 14.321476 
L 213.610841 15.049012 
L 214.356188 15.786831 
L 215.101535 17.561209 
L 215.287872 17.529825 
L 215.846882 17.2158 
L 216.219555 17.462702 
L 216.405892 17.598264 
L 216.592229 17.57407 
L 217.151239 17.159433 
L 217.523913 17.413986 
L 218.082923 17.99476 
L 218.082923 17.99476 
" clip-path="url(#p785451dafb)" style="fill: none; stroke: #ced4da; stroke-width: 1.5; stroke-linecap: square"/>
   </g>
   <g id="line2d_6">
    <path d="M 31.746177 201.696635 
L 90.442252 201.490975 
L 109.262264 201.244603 
L 111.498304 201.164708 
L 117.46108 200.943267 
L 118.765438 200.818516 
L 120.256131 200.676138 
L 121.560489 200.531038 
L 123.051183 200.161358 
L 123.982866 199.882235 
L 124.91455 199.828145 
L 128.827622 198.66802 
L 129.572969 198.745029 
L 130.504652 198.308606 
L 131.063663 198.245227 
L 132.181683 197.46054 
L 132.554357 197.338832 
L 132.92703 196.948739 
L 133.48604 196.191723 
L 134.417724 195.385938 
L 135.163071 193.955543 
L 135.908418 193.38825 
L 136.840102 191.724391 
L 137.212775 191.973208 
L 137.399112 192.100801 
L 137.585449 192.029867 
L 138.330796 190.79616 
L 138.517133 190.835694 
L 139.076143 191.416154 
L 139.26248 191.21862 
L 139.82149 189.939389 
L 140.007826 189.82674 
L 140.194163 189.978396 
L 140.753173 190.801188 
L 140.93951 190.557724 
L 141.49852 189.439589 
L 141.684857 189.427053 
L 142.243867 189.968791 
L 142.430204 189.716485 
L 142.989214 188.221384 
L 143.175551 188.065548 
L 143.361888 188.180085 
L 143.920898 188.981232 
L 144.107235 188.780238 
L 144.479908 188.074978 
L 144.666245 187.939162 
L 144.852582 188.046839 
L 145.411592 189.058663 
L 145.597929 188.980023 
L 146.156939 188.01881 
L 146.343276 188.052787 
L 146.715949 188.735282 
L 147.088623 189.291779 
L 147.461296 188.914613 
L 147.647633 188.738313 
L 147.83397 188.739118 
L 148.206643 189.26166 
L 148.765654 190.205523 
L 149.324664 190.541532 
L 149.697337 191.257938 
L 150.256347 192.440737 
L 151.747041 193.872895 
L 152.306052 193.783176 
L 153.610409 193.401365 
L 153.983082 192.97211 
L 154.542093 192.2647 
L 154.914766 191.998138 
L 155.28744 191.224805 
L 155.84645 189.513477 
L 156.219123 189.004279 
L 156.591797 188.619519 
L 156.96447 187.501813 
L 157.337144 186.278308 
L 157.709817 185.802084 
L 158.268828 185.91066 
L 158.641501 185.194502 
L 159.014174 184.505135 
L 159.200511 184.462485 
L 159.759521 185.131546 
L 159.945858 185.053107 
L 160.504868 184.341748 
L 160.691205 184.443007 
L 161.436552 185.843725 
L 162.181899 185.2908 
L 162.554573 185.980333 
L 162.927246 186.565164 
L 163.113583 186.461559 
L 163.672593 185.799154 
L 163.85893 185.819569 
L 164.231603 186.079978 
L 164.41794 186.05345 
L 164.790614 185.377277 
L 165.163287 184.686424 
L 165.349624 184.590553 
L 165.722297 184.85203 
L 166.094971 185.062101 
L 166.840318 184.694103 
L 167.399328 184.725274 
L 167.585665 184.477163 
L 168.703685 181.704442 
L 169.076359 181.154017 
L 169.635369 179.169614 
L 170.008042 178.100006 
L 170.380716 177.621996 
L 170.567053 177.452151 
L 170.753389 177.103718 
L 171.685073 174.473934 
L 171.87141 174.450306 
L 172.244083 174.71497 
L 172.43042 174.59416 
L 173.175767 173.252911 
L 173.362104 173.202831 
L 173.921114 173.476618 
L 174.293788 172.863021 
L 174.666461 172.286161 
L 174.852798 172.150002 
L 175.039135 172.156709 
L 175.784482 172.711052 
L 176.157155 172.702911 
L 177.275176 171.966703 
L 177.647849 171.764469 
L 178.020523 170.889188 
L 178.393196 169.819818 
L 178.579533 169.565598 
L 178.765869 169.556298 
L 179.511216 170.178939 
L 179.88389 170.048022 
L 180.070227 170.123576 
L 180.815574 170.961615 
L 181.00191 170.887487 
L 181.560921 170.324258 
L 181.747257 170.297674 
L 182.119931 170.639767 
L 182.678941 171.352253 
L 183.237951 171.908256 
L 183.983298 173.064876 
L 184.169635 173.121469 
L 184.542309 172.801118 
L 185.101319 171.670052 
L 185.660329 170.672788 
L 186.219339 170.127999 
L 186.77835 169.560095 
L 187.151023 169.242668 
L 187.33736 169.267109 
L 187.89637 169.711432 
L 188.082707 169.579171 
L 188.45538 168.382831 
L 189.200727 165.277425 
L 190.132411 163.250328 
L 190.318748 163.011528 
L 190.505084 163.0333 
L 190.691421 163.36032 
L 191.623105 165.977468 
L 191.809442 165.840769 
L 192.182115 164.875376 
L 192.741125 162.791634 
L 193.859146 157.760001 
L 194.045483 157.828325 
L 194.79083 159.075583 
L 195.34984 159.023762 
L 195.90885 159.784999 
L 196.095187 159.536924 
L 196.281524 158.654593 
L 197.026871 153.114941 
L 197.213207 152.836557 
L 197.772218 153.259959 
L 197.958554 152.722274 
L 198.517564 150.507608 
L 198.703901 150.752849 
L 199.449248 153.75929 
L 199.635585 153.068864 
L 200.194595 150.049637 
L 200.380932 150.054704 
L 200.939942 151.499749 
L 201.126279 151.101236 
L 201.685289 148.462119 
L 201.871626 148.482543 
L 202.244299 150.190314 
L 202.430636 151.056197 
L 202.616973 151.337956 
L 202.80331 150.954641 
L 203.175983 149.508702 
L 203.36232 149.298442 
L 203.548657 149.666828 
L 203.92133 151.085283 
L 204.107667 151.200887 
L 204.294004 150.566894 
L 204.853014 147.250764 
L 205.039351 147.028767 
L 205.225687 147.390643 
L 205.598361 148.388949 
L 205.784698 148.213762 
L 206.530045 145.237302 
L 206.716381 145.475894 
L 207.089055 146.71277 
L 207.275392 146.851891 
L 207.461728 146.329388 
L 208.207075 142.614312 
L 208.393412 142.599841 
L 208.579749 142.786402 
L 208.766085 142.802324 
L 208.952422 142.391423 
L 209.697769 139.387962 
L 209.884106 139.622533 
L 210.443116 141.329643 
L 210.629453 141.291268 
L 211.188463 140.266694 
L 211.3748 140.318364 
L 211.747473 140.772284 
L 211.93381 140.551723 
L 212.306484 138.823588 
L 212.679157 137.202711 
L 212.865494 137.079884 
L 213.051831 137.475639 
L 213.424504 138.729586 
L 213.610841 138.876637 
L 214.169851 138.011978 
L 214.356188 138.151505 
L 214.728861 139.596232 
L 214.915198 140.37861 
L 215.101535 140.647139 
L 215.287872 140.26408 
L 215.846882 137.888064 
L 216.033219 137.724818 
L 216.219555 138.056119 
L 216.592229 139.321964 
L 216.778566 139.589403 
L 216.964902 139.439069 
L 217.337576 138.713856 
L 217.523913 138.757491 
L 217.710249 139.363712 
L 218.082923 141.795588 
L 218.082923 141.795588 
" clip-path="url(#p785451dafb)" style="fill: none; stroke: #6c757d; stroke-width: 1.5; stroke-linecap: square"/>
   </g>
   <g id="matplotlib.axis_1">
    <g id="xtick_1">
     <g id="line2d_7">
      <defs>
       <path id="m2f5e27ec50" d="M 0 0 
L 0 3.5 
" style="stroke: #c2c1c1; stroke-width: 0.8"/>
      </defs>
      <g>
       <use xlink:href="#m2f5e27ec50" x="31.746177" y="201.696635" style="fill: #c2c1c1; stroke: #c2c1c1; stroke-width: 0.8"/>
      </g>
     </g>
     <g id="text_1">
      <!-- 0 -->
      <g style="fill: #191919" transform="translate(29.779068 213.946635) scale(0.07 -0.07)">
       <defs>
        <path id="Roboto-Regular-30" d="M 3234 1944 
Q 3234 825 2848 381 
Q 2463 -63 1800 -63 
Q 1156 -63 764 368 
Q 372 800 359 1872 
L 359 2638 
Q 359 3753 750 4183 
Q 1141 4613 1794 4613 
Q 2447 4613 2834 4195 
Q 3222 3778 3234 2709 
L 3234 1944 
z
M 2653 2734 
Q 2653 3503 2434 3822 
Q 2216 4141 1794 4141 
Q 1388 4141 1167 3831 
Q 947 3522 941 2778 
L 941 1850 
Q 941 1088 1164 750 
Q 1388 413 1800 413 
Q 2222 413 2436 745 
Q 2650 1078 2653 1825 
L 2653 2734 
z
" transform="scale(0.015625)"/>
       </defs>
       <use xlink:href="#Roboto-Regular-30"/>
      </g>
     </g>
    </g>
    <g id="xtick_2">
     <g id="line2d_8">
      <g>
       <use xlink:href="#m2f5e27ec50" x="69.013527" y="201.696635" style="fill: #c2c1c1; stroke: #c2c1c1; stroke-width: 0.8"/>
      </g>
     </g>
     <g id="text_2">
      <!-- 200 -->
      <g style="fill: #191919" transform="translate(63.112198 213.946635) scale(0.07 -0.07)">
       <defs>
        <path id="Roboto-Regular-32" d="M 3359 475 
L 3359 0 
L 381 0 
L 381 416 
L 1925 2134 
Q 2306 2566 2439 2819 
Q 2572 3072 2572 3328 
Q 2572 3663 2364 3900 
Q 2156 4138 1778 4138 
Q 1322 4138 1097 3878 
Q 872 3619 872 3213 
L 294 3213 
Q 294 3788 672 4200 
Q 1050 4613 1778 4613 
Q 2422 4613 2786 4278 
Q 3150 3944 3150 3397 
Q 3150 2997 2903 2592 
Q 2656 2188 2297 1797 
L 1078 475 
L 3359 475 
z
" transform="scale(0.015625)"/>
       </defs>
       <use xlink:href="#Roboto-Regular-32"/>
       <use xlink:href="#Roboto-Regular-30" x="56.201172"/>
       <use xlink:href="#Roboto-Regular-30" x="112.402344"/>
      </g>
     </g>
    </g>
    <g id="xtick_3">
     <g id="line2d_9">
      <g>
       <use xlink:href="#m2f5e27ec50" x="106.280876" y="201.696635" style="fill: #c2c1c1; stroke: #c2c1c1; stroke-width: 0.8"/>
      </g>
     </g>
     <g id="text_3">
      <!-- 400 -->
      <g style="fill: #191919" transform="translate(100.379547 213.946635) scale(0.07 -0.07)">
       <defs>
        <path id="Roboto-Regular-34" d="M 166 1397 
L 2203 4550 
L 2819 4550 
L 2819 1531 
L 3453 1531 
L 3453 1056 
L 2819 1056 
L 2819 0 
L 2241 0 
L 2241 1056 
L 166 1056 
L 166 1397 
z
M 822 1531 
L 2241 1531 
L 2241 3766 
L 2169 3638 
L 822 1531 
z
" transform="scale(0.015625)"/>
       </defs>
       <use xlink:href="#Roboto-Regular-34"/>
       <use xlink:href="#Roboto-Regular-30" x="56.201172"/>
       <use xlink:href="#Roboto-Regular-30" x="112.402344"/>
      </g>
     </g>
    </g>
    <g id="xtick_4">
     <g id="line2d_10">
      <g>
       <use xlink:href="#m2f5e27ec50" x="143.548225" y="201.696635" style="fill: #c2c1c1; stroke: #c2c1c1; stroke-width: 0.8"/>
      </g>
     </g>
     <g id="text_4">
      <!-- 600 -->
      <g style="fill: #191919" transform="translate(137.646897 213.946635) scale(0.07 -0.07)">
       <defs>
        <path id="Roboto-Regular-36" d="M 3291 1484 
Q 3291 838 2930 387 
Q 2569 -63 1878 -63 
Q 1388 -63 1063 198 
Q 738 459 577 861 
Q 416 1263 416 1684 
L 416 1956 
Q 416 2597 595 3194 
Q 775 3791 1247 4173 
Q 1719 4556 2597 4556 
L 2647 4556 
L 2647 4066 
Q 2041 4066 1705 3853 
Q 1369 3641 1205 3302 
Q 1041 2963 1006 2575 
Q 1369 2984 1984 2984 
Q 2438 2984 2727 2765 
Q 3016 2547 3153 2201 
Q 3291 1856 3291 1484 
z
M 997 1666 
Q 997 1059 1267 737 
Q 1538 416 1878 416 
Q 2278 416 2498 708 
Q 2719 1000 2719 1456 
Q 2719 1863 2516 2184 
Q 2313 2506 1891 2506 
Q 1588 2506 1341 2325 
Q 1094 2144 997 1884 
L 997 1666 
z
" transform="scale(0.015625)"/>
       </defs>
       <use xlink:href="#Roboto-Regular-36"/>
       <use xlink:href="#Roboto-Regular-30" x="56.201172"/>
       <use xlink:href="#Roboto-Regular-30" x="112.402344"/>
      </g>
     </g>
    </g>
    <g id="xtick_5">
     <g id="line2d_11">
      <g>
       <use xlink:href="#m2f5e27ec50" x="180.815574" y="201.696635" style="fill: #c2c1c1; stroke: #c2c1c1; stroke-width: 0.8"/>
      </g>
     </g>
     <g id="text_5">
      <!-- 800 -->
      <g style="fill: #191919" transform="translate(174.914246 213.946635) scale(0.07 -0.07)">
       <defs>
        <path id="Roboto-Regular-38" d="M 3244 1231 
Q 3244 606 2826 271 
Q 2409 -63 1796 -63 
Q 1184 -63 767 271 
Q 350 606 350 1231 
Q 350 1613 554 1905 
Q 759 2197 1109 2347 
Q 806 2494 629 2762 
Q 453 3031 453 3366 
Q 453 3963 833 4288 
Q 1213 4613 1794 4613 
Q 2378 4613 2758 4288 
Q 3138 3963 3138 3366 
Q 3138 3028 2956 2761 
Q 2775 2494 2472 2347 
Q 2825 2197 3034 1903 
Q 3244 1609 3244 1231 
z
M 2559 3356 
Q 2559 3697 2346 3917 
Q 2134 4138 1793 4138 
Q 1453 4138 1243 3927 
Q 1034 3716 1034 3356 
Q 1034 3003 1243 2790 
Q 1453 2578 1797 2578 
Q 2138 2578 2348 2790 
Q 2559 3003 2559 3356 
z
M 2663 1244 
Q 2663 1625 2420 1865 
Q 2178 2106 1791 2106 
Q 1394 2106 1161 1865 
Q 928 1625 928 1244 
Q 928 850 1161 631 
Q 1394 413 1797 413 
Q 2200 413 2431 631 
Q 2663 850 2663 1244 
z
" transform="scale(0.015625)"/>
       </defs>
       <use xlink:href="#Roboto-Regular-38"/>
       <use xlink:href="#Roboto-Regular-30" x="56.201172"/>
       <use xlink:href="#Roboto-Regular-30" x="112.402344"/>
      </g>
     </g>
    </g>
    <g id="xtick_6">
     <g id="line2d_12">
      <g>
       <use xlink:href="#m2f5e27ec50" x="218.082923" y="201.696635" style="fill: #c2c1c1; stroke: #c2c1c1; stroke-width: 0.8"/>
      </g>
     </g>
     <g id="text_6">
      <!-- 1000 -->
      <g style="fill: #191919" transform="translate(210.214485 213.946635) scale(0.07 -0.07)">
       <defs>
        <path id="Roboto-Regular-31" d="M 2278 4575 
L 2278 0 
L 1700 0 
L 1700 3853 
L 534 3428 
L 534 3950 
L 2188 4575 
L 2278 4575 
z
" transform="scale(0.015625)"/>
       </defs>
       <use xlink:href="#Roboto-Regular-31"/>
       <use xlink:href="#Roboto-Regular-30" x="56.201172"/>
       <use xlink:href="#Roboto-Regular-30" x="112.402344"/>
       <use xlink:href="#Roboto-Regular-30" x="168.603516"/>
      </g>
     </g>
    </g>
    <g id="text_7">
     <!-- Time (fs) -->
     <g style="fill: #191919" transform="translate(113.004219 225.64226) scale(0.08 -0.08)">
      <defs>
       <path id="Roboto-Black-54" d="M 116 3703 
L 116 4550 
L 3919 4550 
L 3919 3703 
L 2550 3703 
L 2550 0 
L 1453 0 
L 1453 3703 
L 116 3703 
z
" transform="scale(0.015625)"/>
       <path id="Roboto-Black-69" d="M 291 4253 
Q 291 4478 453 4622 
Q 616 4766 875 4766 
Q 1134 4766 1296 4622 
Q 1459 4478 1459 4253 
Q 1459 4028 1296 3884 
Q 1134 3741 875 3741 
Q 616 3741 453 3884 
Q 291 4028 291 4253 
z
M 1409 3381 
L 1409 0 
L 353 0 
L 353 3381 
L 1409 3381 
z
" transform="scale(0.015625)"/>
       <path id="Roboto-Black-6d" d="M 1819 2631 
Q 1522 2631 1359 2353 
L 1359 0 
L 306 0 
L 306 3381 
L 1294 3381 
L 1331 2984 
Q 1681 3444 2294 3444 
Q 2925 3444 3159 2934 
Q 3500 3444 4150 3444 
Q 4609 3444 4906 3156 
Q 5203 2869 5206 2144 
L 5206 0 
L 4150 0 
L 4150 2128 
Q 4150 2444 4042 2537 
Q 3934 2631 3747 2631 
Q 3431 2631 3278 2353 
L 3281 0 
L 2228 0 
L 2228 2122 
Q 2228 2444 2120 2537 
Q 2013 2631 1819 2631 
z
" transform="scale(0.015625)"/>
       <path id="Roboto-Black-65" d="M 3266 531 
Q 3109 309 2765 123 
Q 2422 -63 1934 -63 
Q 1109 -63 651 421 
Q 194 906 191 1569 
L 191 1697 
Q 191 2438 600 2941 
Q 1009 3444 1822 3444 
Q 2541 3444 2948 2997 
Q 3356 2550 3356 1788 
L 3356 1359 
L 1266 1359 
Q 1322 1078 1512 914 
Q 1703 750 2003 750 
Q 2506 750 2788 1100 
L 3266 531 
z
M 1813 2631 
Q 1544 2631 1422 2457 
Q 1300 2284 1266 2019 
L 2328 2019 
L 2328 2100 
Q 2334 2631 1813 2631 
z
" transform="scale(0.015625)"/>
       <path id="Roboto-Black-20" transform="scale(0.015625)"/>
       <path id="Roboto-Black-28" d="M 378 1850 
Q 378 2713 608 3369 
Q 838 4025 1194 4444 
Q 1550 4863 1938 5019 
L 2134 4500 
Q 1788 4247 1505 3622 
Q 1222 2997 1216 1909 
L 1216 1756 
Q 1216 634 1500 1 
Q 1784 -631 2134 -888 
L 1938 -1406 
Q 1550 -1250 1195 -833 
Q 841 -416 612 229 
Q 384 875 378 1716 
L 378 1850 
z
" transform="scale(0.015625)"/>
       <path id="Roboto-Black-66" d="M 2244 2650 
L 1588 2650 
L 1588 0 
L 528 0 
L 528 2650 
L 41 2650 
L 41 3381 
L 528 3381 
L 528 3666 
Q 531 4247 879 4555 
Q 1228 4863 1813 4866 
L 1825 4866 
Q 2053 4866 2322 4800 
L 2325 4025 
Q 2213 4053 2063 4053 
Q 1588 4053 1588 3656 
L 1588 3381 
L 2244 3381 
L 2244 2650 
z
" transform="scale(0.015625)"/>
       <path id="Roboto-Black-73" d="M 2069 950 
Q 2069 1084 1920 1167 
Q 1772 1250 1391 1334 
Q 897 1444 556 1689 
Q 216 1934 216 2375 
Q 216 2803 580 3123 
Q 944 3444 1609 3444 
Q 2291 3444 2689 3137 
Q 3088 2831 3088 2344 
L 2034 2344 
Q 2034 2750 1606 2750 
Q 1444 2750 1328 2662 
Q 1213 2575 1213 2428 
Q 1213 2166 1773 2059 
Q 2334 1953 2709 1728 
Q 3084 1503 3084 981 
Q 3084 534 2686 235 
Q 2288 -63 1606 -63 
Q 878 -63 495 306 
Q 113 675 113 1084 
L 1094 1084 
Q 1103 850 1251 742 
Q 1400 634 1634 634 
Q 2069 634 2069 950 
z
" transform="scale(0.015625)"/>
       <path id="Roboto-Black-29" d="M 1956 1763 
Q 1956 941 1717 283 
Q 1478 -375 1104 -812 
Q 731 -1250 328 -1406 
L 125 -888 
Q 469 -634 753 -9 
Q 1038 616 1044 1703 
L 1044 1856 
Q 1044 2978 759 3611 
Q 475 4244 125 4500 
L 328 5019 
Q 731 4863 1104 4425 
Q 1478 3988 1717 3330 
Q 1956 2672 1956 1850 
L 1956 1763 
z
" transform="scale(0.015625)"/>
      </defs>
      <use xlink:href="#Roboto-Black-54"/>
      <use xlink:href="#Roboto-Black-69" x="63.085938"/>
      <use xlink:href="#Roboto-Black-6d" x="90.576172"/>
      <use xlink:href="#Roboto-Black-65" x="176.708984"/>
      <use xlink:href="#Roboto-Black-20" x="231.201172"/>
      <use xlink:href="#Roboto-Black-28" x="256.103516"/>
      <use xlink:href="#Roboto-Black-66" x="291.40625"/>
      <use xlink:href="#Roboto-Black-73" x="327.685547"/>
      <use xlink:href="#Roboto-Black-29" x="378.955078"/>
     </g>
    </g>
   </g>
   <g id="matplotlib.axis_2">
    <g id="ytick_1">
     <g id="line2d_13">
      <defs>
       <path id="m7722293d4f" d="M 0 0 
L -3.5 0 
" style="stroke: #c2c1c1; stroke-width: 0.8"/>
      </defs>
      <g>
       <use xlink:href="#m7722293d4f" x="31.746177" y="201.696635" style="fill: #c2c1c1; stroke: #c2c1c1; stroke-width: 0.8"/>
      </g>
     </g>
     <g id="text_8">
      <!-- 0.0 -->
      <g style="fill: #191919" transform="translate(15.03149 204.321635) scale(0.07 -0.07)">
       <defs>
        <path id="Roboto-Regular-2e" d="M 450 306 
Q 450 453 542 554 
Q 634 656 809 656 
Q 984 656 1076 554 
Q 1169 453 1169 306 
Q 1169 163 1076 62 
Q 984 -38 809 -38 
Q 634 -38 542 62 
Q 450 163 450 306 
z
" transform="scale(0.015625)"/>
       </defs>
       <use xlink:href="#Roboto-Regular-30"/>
       <use xlink:href="#Roboto-Regular-2e" x="56.201172"/>
       <use xlink:href="#Roboto-Regular-30" x="82.568359"/>
      </g>
     </g>
    </g>
    <g id="ytick_2">
     <g id="line2d_14">
      <g>
       <use xlink:href="#m7722293d4f" x="31.746177" y="162.48256" style="fill: #c2c1c1; stroke: #c2c1c1; stroke-width: 0.8"/>
      </g>
     </g>
     <g id="text_9">
      <!-- 0.5 -->
      <g style="fill: #191919" transform="translate(15.03149 165.10756) scale(0.07 -0.07)">
       <defs>
        <path id="Roboto-Regular-35" d="M 1109 2166 
L 647 2284 
L 875 4550 
L 3209 4550 
L 3209 4016 
L 1366 4016 
L 1228 2778 
Q 1572 2975 1988 2975 
Q 2616 2975 2980 2561 
Q 3344 2147 3344 1450 
Q 3344 797 2987 367 
Q 2631 -63 1903 -63 
Q 1350 -63 947 248 
Q 544 559 481 1197 
L 1031 1197 
Q 1141 413 1903 413 
Q 2313 413 2538 691 
Q 2763 969 2763 1444 
Q 2763 1872 2527 2164 
Q 2291 2456 1853 2456 
Q 1563 2456 1413 2378 
Q 1263 2300 1109 2166 
z
" transform="scale(0.015625)"/>
       </defs>
       <use xlink:href="#Roboto-Regular-30"/>
       <use xlink:href="#Roboto-Regular-2e" x="56.201172"/>
       <use xlink:href="#Roboto-Regular-35" x="82.568359"/>
      </g>
     </g>
    </g>
    <g id="ytick_3">
     <g id="line2d_15">
      <g>
       <use xlink:href="#m7722293d4f" x="31.746177" y="123.268485" style="fill: #c2c1c1; stroke: #c2c1c1; stroke-width: 0.8"/>
      </g>
     </g>
     <g id="text_10">
      <!-- 1.0 -->
      <g style="fill: #191919" transform="translate(15.03149 125.893485) scale(0.07 -0.07)">
       <use xlink:href="#Roboto-Regular-31"/>
       <use xlink:href="#Roboto-Regular-2e" x="56.201172"/>
       <use xlink:href="#Roboto-Regular-30" x="82.568359"/>
      </g>
     </g>
    </g>
    <g id="ytick_4">
     <g id="line2d_16">
      <g>
       <use xlink:href="#m7722293d4f" x="31.746177" y="84.054409" style="fill: #c2c1c1; stroke: #c2c1c1; stroke-width: 0.8"/>
      </g>
     </g>
     <g id="text_11">
      <!-- 1.5 -->
      <g style="fill: #191919" transform="translate(15.03149 86.679409) scale(0.07 -0.07)">
       <use xlink:href="#Roboto-Regular-31"/>
       <use xlink:href="#Roboto-Regular-2e" x="56.201172"/>
       <use xlink:href="#Roboto-Regular-35" x="82.568359"/>
      </g>
     </g>
    </g>
    <g id="ytick_5">
     <g id="line2d_17">
      <g>
       <use xlink:href="#m7722293d4f" x="31.746177" y="44.840334" style="fill: #c2c1c1; stroke: #c2c1c1; stroke-width: 0.8"/>
      </g>
     </g>
     <g id="text_12">
      <!-- 2.0 -->
      <g style="fill: #191919" transform="translate(15.03149 47.465334) scale(0.07 -0.07)">
       <use xlink:href="#Roboto-Regular-32"/>
       <use xlink:href="#Roboto-Regular-2e" x="56.201172"/>
       <use xlink:href="#Roboto-Regular-30" x="82.568359"/>
      </g>
     </g>
    </g>
    <g id="ytick_6">
     <g id="line2d_18">
      <g>
       <use xlink:href="#m7722293d4f" x="31.746177" y="5.626259" style="fill: #c2c1c1; stroke: #c2c1c1; stroke-width: 0.8"/>
      </g>
     </g>
     <g id="text_13">
      <!-- 2.5 -->
      <g style="fill: #191919" transform="translate(15.03149 8.251259) scale(0.07 -0.07)">
       <use xlink:href="#Roboto-Regular-32"/>
       <use xlink:href="#Roboto-Regular-2e" x="56.201172"/>
       <use xlink:href="#Roboto-Regular-35" x="82.568359"/>
      </g>
     </g>
    </g>
    <g id="text_14">
     <!-- RMSD (Ang.) -->
     <g style="fill: #191919" transform="translate(9.27399 126.476736) rotate(-90) scale(0.08 -0.08)">
      <defs>
       <path id="Roboto-Black-52" d="M 2838 0 
L 2034 1606 
L 1444 1606 
L 1444 0 
L 347 0 
L 347 4550 
L 2138 4550 
Q 2925 4550 3392 4198 
Q 3859 3847 3859 3175 
Q 3859 2650 3642 2350 
Q 3425 2050 3066 1881 
L 4013 47 
L 4013 0 
L 2838 0 
z
M 1444 3703 
L 1444 2453 
L 2138 2453 
Q 2763 2453 2763 3075 
Q 2763 3694 2156 3703 
L 1444 3703 
z
" transform="scale(0.015625)"/>
       <path id="Roboto-Black-4d" d="M 2800 1384 
L 3816 4550 
L 5256 4550 
L 5256 0 
L 4156 0 
L 4156 1063 
L 4263 3238 
L 3163 0 
L 2438 0 
L 1338 3238 
L 1444 1063 
L 1444 0 
L 347 0 
L 347 4550 
L 1784 4550 
L 2800 1384 
z
" transform="scale(0.015625)"/>
       <path id="Roboto-Black-53" d="M 2691 1209 
Q 2691 1425 2542 1565 
Q 2394 1706 1891 1873 
Q 1388 2041 1045 2239 
Q 703 2438 520 2700 
Q 338 2963 338 3334 
Q 338 3919 834 4266 
Q 1331 4613 2088 4613 
Q 2834 4613 3311 4228 
Q 3788 3844 3788 3200 
L 2697 3200 
Q 2697 3456 2539 3620 
Q 2381 3784 2063 3784 
Q 1750 3784 1590 3648 
Q 1431 3513 1431 3325 
Q 1431 3122 1653 2983 
Q 1875 2844 2266 2719 
Q 2991 2488 3389 2139 
Q 3788 1791 3788 1216 
Q 3788 600 3328 268 
Q 2869 -63 2106 -63 
Q 1638 -63 1200 96 
Q 763 256 481 597 
Q 200 938 200 1475 
L 1300 1475 
Q 1300 1075 1509 919 
Q 1719 763 2106 763 
Q 2419 763 2555 894 
Q 2691 1025 2691 1209 
z
" transform="scale(0.015625)"/>
       <path id="Roboto-Black-44" d="M 347 0 
L 347 4550 
L 1809 4550 
Q 2425 4550 2901 4273 
Q 3378 3997 3648 3505 
Q 3919 3013 3919 2369 
L 3919 2178 
Q 3919 1219 3333 611 
Q 2747 3 1831 0 
L 347 0 
z
M 1444 3703 
L 1444 844 
L 1825 844 
Q 2744 844 2797 2028 
L 2800 2375 
Q 2800 3675 1850 3703 
L 1444 3703 
z
" transform="scale(0.015625)"/>
       <path id="Roboto-Black-41" d="M -13 0 
L 1659 4550 
L 2694 4550 
L 4375 0 
L 3194 0 
L 2931 850 
L 1428 850 
L 1166 0 
L -13 0 
z
M 1691 1697 
L 2669 1697 
L 2178 3281 
L 1691 1697 
z
" transform="scale(0.015625)"/>
       <path id="Roboto-Black-6e" d="M 1788 2631 
Q 1478 2631 1331 2391 
L 1331 0 
L 278 0 
L 278 3381 
L 1266 3381 
L 1300 2988 
Q 1653 3444 2263 3444 
Q 2731 3444 3026 3156 
Q 3322 2869 3325 2144 
L 3325 0 
L 2266 0 
L 2266 2131 
Q 2266 2438 2141 2534 
Q 2016 2631 1788 2631 
z
" transform="scale(0.015625)"/>
       <path id="Roboto-Black-67" d="M 1659 -1331 
Q 1319 -1331 966 -1203 
Q 613 -1075 403 -825 
L 844 -206 
Q 1147 -553 1622 -553 
Q 2313 -553 2322 119 
L 2322 275 
Q 2025 -63 1553 -63 
Q 913 -63 544 425 
Q 175 913 175 1650 
L 175 1716 
Q 175 2488 545 2966 
Q 916 3444 1559 3444 
Q 2091 3444 2384 3091 
L 2422 3381 
L 3378 3381 
L 3378 131 
Q 3378 -572 2904 -951 
Q 2431 -1331 1659 -1331 
z
M 1228 1650 
Q 1228 1269 1375 1009 
Q 1522 750 1822 750 
Q 2166 750 2322 981 
L 2322 2400 
Q 2172 2631 1828 2631 
Q 1531 2631 1379 2372 
Q 1228 2113 1228 1650 
z
" transform="scale(0.015625)"/>
       <path id="Roboto-Black-2e" d="M 366 494 
Q 366 719 527 870 
Q 688 1022 947 1022 
Q 1206 1022 1367 870 
Q 1528 719 1528 494 
Q 1528 269 1367 117 
Q 1206 -34 947 -34 
Q 688 -34 527 117 
Q 366 269 366 494 
z
" transform="scale(0.015625)"/>
      </defs>
      <use xlink:href="#Roboto-Black-52"/>
      <use xlink:href="#Roboto-Black-4d" x="65.234375"/>
      <use xlink:href="#Roboto-Black-53" x="152.880859"/>
      <use xlink:href="#Roboto-Black-44" x="215.478516"/>
      <use xlink:href="#Roboto-Black-20" x="280.175781"/>
      <use xlink:href="#Roboto-Black-28" x="305.078125"/>
      <use xlink:href="#Roboto-Black-41" x="340.380859"/>
      <use xlink:href="#Roboto-Black-6e" x="408.496094"/>
      <use xlink:href="#Roboto-Black-67" x="464.941406"/>
      <use xlink:href="#Roboto-Black-2e" x="522.509766"/>
      <use xlink:href="#Roboto-Black-29" x="552.783203"/>
     </g>
    </g>
   </g>
   <g id="patch_3">
    <path d="M 31.746177 201.696635 
L 31.746177 4.214337 
" style="fill: none; stroke: #c2c1c1; stroke-width: 0.8; stroke-linejoin: miter; stroke-linecap: square"/>
   </g>
   <g id="patch_4">
    <path d="M 227.39976 201.696635 
L 227.39976 4.214337 
" style="fill: none; stroke: #c2c1c1; stroke-width: 0.8; stroke-linejoin: miter; stroke-linecap: square"/>
   </g>
   <g id="patch_5">
    <path d="M 31.746177 201.696635 
L 227.39976 201.696635 
" style="fill: none; stroke: #c2c1c1; stroke-width: 0.8; stroke-linejoin: miter; stroke-linecap: square"/>
   </g>
   <g id="patch_6">
    <path d="M 31.746177 4.214337 
L 227.39976 4.214337 
" style="fill: none; stroke: #c2c1c1; stroke-width: 0.8; stroke-linejoin: miter; stroke-linecap: square"/>
   </g>
   <g id="legend_1">
    <g id="line2d_19">
     <path d="M 38.946178 14.614337 
L 46.946178 14.614337 
L 54.946178 14.614337 
" style="fill: none; stroke: #6c757d; stroke-width: 1.5; stroke-linecap: square"/>
    </g>
    <g id="text_15">
     <!-- RI-MP2 -->
     <g transform="translate(61.346178 17.414337) scale(0.08 -0.08)">
      <defs>
       <path id="Roboto-Regular-52" d="M 3188 0 
L 2200 1844 
L 1131 1844 
L 1131 0 
L 528 0 
L 528 4550 
L 2034 4550 
Q 2800 4550 3214 4200 
Q 3628 3850 3628 3184 
Q 3628 2759 3398 2442 
Q 3169 2125 2763 1969 
L 3831 38 
L 3831 0 
L 3188 0 
z
M 1131 4056 
L 1131 2334 
L 2053 2334 
Q 2538 2334 2783 2582 
Q 3028 2831 3028 3184 
Q 3028 3578 2792 3817 
Q 2556 4056 2034 4056 
L 1131 4056 
z
" transform="scale(0.015625)"/>
       <path id="Roboto-Regular-49" d="M 1175 4550 
L 1175 0 
L 572 0 
L 572 4550 
L 1175 4550 
z
" transform="scale(0.015625)"/>
       <path id="Roboto-Regular-2d" d="M 1644 2172 
L 1644 1697 
L 119 1697 
L 119 2172 
L 1644 2172 
z
" transform="scale(0.015625)"/>
       <path id="Roboto-Regular-4d" d="M 2794 841 
L 4281 4550 
L 5056 4550 
L 5056 0 
L 4456 0 
L 4456 1775 
L 4516 3678 
L 3019 0 
L 2563 0 
L 1069 3684 
L 1128 1775 
L 1128 0 
L 528 0 
L 528 4550 
L 1303 4550 
L 2794 841 
z
" transform="scale(0.015625)"/>
       <path id="Roboto-Regular-50" d="M 1131 1784 
L 1131 0 
L 528 0 
L 528 4550 
L 2206 4550 
Q 2981 4550 3392 4159 
Q 3803 3769 3803 3163 
Q 3803 2503 3392 2143 
Q 2981 1784 2206 1784 
L 1131 1784 
z
M 1131 4056 
L 1131 2275 
L 2206 2275 
Q 2738 2275 2969 2522 
Q 3200 2769 3200 3156 
Q 3200 3506 2969 3781 
Q 2738 4056 2206 4056 
L 1131 4056 
z
" transform="scale(0.015625)"/>
      </defs>
      <use xlink:href="#Roboto-Regular-52"/>
      <use xlink:href="#Roboto-Regular-49" x="61.621094"/>
      <use xlink:href="#Roboto-Regular-2d" x="88.818359"/>
      <use xlink:href="#Roboto-Regular-4d" x="116.455078"/>
      <use xlink:href="#Roboto-Regular-50" x="203.759766"/>
      <use xlink:href="#Roboto-Regular-32" x="266.845703"/>
     </g>
    </g>
    <g id="line2d_20">
     <path d="M 38.946178 26.239337 
L 46.946178 26.239337 
L 54.946178 26.239337 
" style="fill: none; stroke: #ced4da; stroke-width: 1.5; stroke-linecap: square"/>
    </g>
    <g id="text_16">
     <!-- def2-SVP -->
     <g transform="translate(61.346178 29.039337) scale(0.08 -0.08)">
      <defs>
       <path id="Roboto-Regular-64" d="M 2622 0 
L 2594 363 
Q 2247 -63 1628 -63 
Q 1034 -63 668 418 
Q 303 900 297 1628 
L 297 1719 
Q 297 2494 664 2969 
Q 1031 3444 1634 3444 
Q 2231 3444 2572 3044 
L 2572 4800 
L 3153 4800 
L 3153 0 
L 2622 0 
z
M 878 1653 
Q 878 1150 1090 789 
Q 1303 428 1772 428 
Q 2309 428 2572 919 
L 2572 2475 
Q 2313 2956 1778 2956 
Q 1306 2956 1092 2589 
Q 878 2222 878 1719 
L 878 1653 
z
" transform="scale(0.015625)"/>
       <path id="Roboto-Regular-65" d="M 3116 591 
Q 2950 341 2647 139 
Q 2344 -63 1844 -63 
Q 1138 -63 714 396 
Q 291 856 291 1572 
L 291 1703 
Q 291 2256 502 2645 
Q 713 3034 1050 3239 
Q 1388 3444 1769 3444 
Q 2494 3444 2826 2970 
Q 3159 2497 3159 1788 
L 3159 1528 
L 872 1528 
Q 884 1063 1148 736 
Q 1413 409 1875 409 
Q 2181 409 2393 534 
Q 2606 659 2766 869 
L 3116 591 
z
M 1769 2969 
Q 1425 2969 1187 2719 
Q 950 2469 891 2000 
L 2581 2000 
L 2581 2044 
Q 2559 2381 2386 2675 
Q 2213 2969 1769 2969 
z
" transform="scale(0.015625)"/>
       <path id="Roboto-Regular-66" d="M 2022 2938 
L 1303 2938 
L 1303 0 
L 725 0 
L 725 2938 
L 191 2938 
L 191 3381 
L 725 3381 
L 725 3759 
Q 731 4297 1026 4581 
Q 1322 4866 1834 4866 
Q 2025 4866 2234 4816 
L 2203 4344 
Q 2072 4372 1891 4372 
Q 1313 4372 1303 3756 
L 1303 3381 
L 2022 3381 
L 2022 2938 
z
" transform="scale(0.015625)"/>
       <path id="Roboto-Regular-53" d="M 2953 1150 
Q 2953 1463 2742 1650 
Q 2531 1838 1856 2036 
Q 1181 2234 789 2542 
Q 397 2850 397 3375 
Q 397 3906 820 4259 
Q 1244 4613 1944 4613 
Q 2713 4613 3130 4191 
Q 3547 3769 3547 3238 
L 2947 3238 
Q 2947 3619 2700 3869 
Q 2453 4119 1944 4119 
Q 1463 4119 1231 3908 
Q 1000 3697 1000 3381 
Q 1000 3097 1245 2908 
Q 1491 2719 2044 2563 
Q 2834 2341 3196 2014 
Q 3559 1688 3559 1156 
Q 3559 600 3125 268 
Q 2691 -63 1972 -63 
Q 1553 -63 1158 93 
Q 763 250 508 558 
Q 253 866 253 1319 
L 853 1319 
Q 853 853 1193 640 
Q 1534 428 1972 428 
Q 2444 428 2698 623 
Q 2953 819 2953 1150 
z
" transform="scale(0.015625)"/>
       <path id="Roboto-Regular-56" d="M 3991 4550 
L 2306 0 
L 1772 0 
L 91 4550 
L 744 4550 
L 2034 800 
L 3338 4550 
L 3991 4550 
z
" transform="scale(0.015625)"/>
      </defs>
      <use xlink:href="#Roboto-Regular-64"/>
      <use xlink:href="#Roboto-Regular-65" x="56.396484"/>
      <use xlink:href="#Roboto-Regular-66" x="109.423828"/>
      <use xlink:href="#Roboto-Regular-32" x="144.189453"/>
      <use xlink:href="#Roboto-Regular-2d" x="200.390625"/>
      <use xlink:href="#Roboto-Regular-53" x="228.027344"/>
      <use xlink:href="#Roboto-Regular-56" x="287.402344"/>
      <use xlink:href="#Roboto-Regular-50" x="351.074219"/>
     </g>
    </g>
    <g id="line2d_21">
     <path d="M 38.946178 37.864337 
L 46.946178 37.864337 
L 54.946178 37.864337 
" style="fill: none; stroke: #03045e; stroke-width: 1.5; stroke-linecap: square"/>
    </g>
    <g id="text_17">
     <!-- mbGDML -->
     <g transform="translate(61.346178 40.664337) scale(0.08 -0.08)">
      <defs>
       <path id="Roboto-Regular-6d" d="M 1794 2956 
Q 1225 2956 1016 2478 
L 1016 0 
L 434 0 
L 434 3381 
L 984 3381 
L 1000 3013 
Q 1366 3444 2000 3444 
Q 2325 3444 2579 3314 
Q 2834 3184 2969 2900 
Q 3138 3144 3408 3294 
Q 3678 3444 4044 3444 
Q 4588 3444 4883 3153 
Q 5178 2863 5178 2222 
L 5178 0 
L 4597 0 
L 4597 2228 
Q 4597 2653 4401 2804 
Q 4206 2956 3875 2956 
Q 3525 2956 3325 2748 
Q 3125 2541 3094 2244 
L 3094 0 
L 2516 0 
L 2516 2225 
Q 2516 2622 2319 2789 
Q 2122 2956 1794 2956 
z
" transform="scale(0.015625)"/>
       <path id="Roboto-Regular-62" d="M 3303 1653 
Q 3303 913 2959 425 
Q 2616 -63 1988 -63 
Q 1347 -63 1000 391 
L 969 0 
L 438 0 
L 438 4800 
L 1019 4800 
L 1019 3016 
Q 1363 3444 1981 3444 
Q 2619 3444 2961 2969 
Q 3303 2494 3303 1719 
L 3303 1653 
z
M 1838 2956 
Q 1522 2956 1325 2804 
Q 1128 2653 1019 2431 
L 1019 959 
Q 1131 734 1331 581 
Q 1531 428 1844 428 
Q 2313 428 2517 789 
Q 2722 1150 2722 1653 
L 2722 1719 
Q 2722 2222 2526 2589 
Q 2331 2956 1838 2956 
z
" transform="scale(0.015625)"/>
       <path id="Roboto-Regular-47" d="M 3891 2266 
L 3891 600 
Q 3763 413 3403 175 
Q 3044 -63 2281 -63 
Q 1450 -63 915 507 
Q 381 1078 381 2100 
L 381 2453 
Q 381 3469 856 4041 
Q 1331 4613 2213 4613 
Q 2994 4613 3398 4219 
Q 3803 3825 3891 3219 
L 3288 3219 
Q 3225 3588 2979 3853 
Q 2734 4119 2213 4119 
Q 1584 4119 1287 3676 
Q 991 3234 988 2475 
L 988 2100 
Q 988 1313 1344 870 
Q 1700 428 2284 428 
Q 2769 428 2984 542 
Q 3200 656 3291 759 
L 3291 1778 
L 2238 1778 
L 2238 2266 
L 3891 2266 
z
" transform="scale(0.015625)"/>
       <path id="Roboto-Regular-44" d="M 528 0 
L 528 4550 
L 1816 4550 
Q 2713 4550 3267 3973 
Q 3822 3397 3822 2409 
L 3822 2138 
Q 3822 1150 3264 575 
Q 2706 0 1759 0 
L 528 0 
z
M 1131 4056 
L 1131 491 
L 1759 491 
Q 2488 491 2856 941 
Q 3225 1391 3225 2138 
L 3225 2416 
Q 3225 3200 2856 3628 
Q 2488 4056 1816 4056 
L 1131 4056 
z
" transform="scale(0.015625)"/>
       <path id="Roboto-Regular-4c" d="M 3288 491 
L 3288 0 
L 528 0 
L 528 4550 
L 1131 4550 
L 1131 491 
L 3288 491 
z
" transform="scale(0.015625)"/>
      </defs>
      <use xlink:href="#Roboto-Regular-6d"/>
      <use xlink:href="#Roboto-Regular-62" x="87.695312"/>
      <use xlink:href="#Roboto-Regular-47" x="143.847656"/>
      <use xlink:href="#Roboto-Regular-44" x="211.962891"/>
      <use xlink:href="#Roboto-Regular-4d" x="277.587891"/>
      <use xlink:href="#Roboto-Regular-4c" x="364.892578"/>
     </g>
    </g>
    <g id="line2d_22">
     <path d="M 38.946178 49.489337 
L 46.946178 49.489337 
L 54.946178 49.489337 
" style="fill: none; stroke: #0077b6; stroke-width: 1.5; stroke-linecap: square"/>
    </g>
    <g id="text_18">
     <!-- mbGAP -->
     <g transform="translate(61.346178 52.289337) scale(0.08 -0.08)">
      <defs>
       <path id="Roboto-Regular-41" d="M 91 0 
L 1825 4550 
L 2353 4550 
L 4094 0 
L 3475 0 
L 3041 1191 
L 1138 1191 
L 706 0 
L 91 0 
z
M 1319 1684 
L 2863 1684 
L 2091 3806 
L 1319 1684 
z
" transform="scale(0.015625)"/>
      </defs>
      <use xlink:href="#Roboto-Regular-6d"/>
      <use xlink:href="#Roboto-Regular-62" x="87.695312"/>
      <use xlink:href="#Roboto-Regular-47" x="143.847656"/>
      <use xlink:href="#Roboto-Regular-41" x="211.962891"/>
      <use xlink:href="#Roboto-Regular-50" x="277.197266"/>
     </g>
    </g>
    <g id="line2d_23">
     <path d="M 38.946178 61.114337 
L 46.946178 61.114337 
L 54.946178 61.114337 
" style="fill: none; stroke: #90e0ef; stroke-width: 1.5; stroke-linecap: square"/>
    </g>
    <g id="text_19">
     <!-- mbSchNet -->
     <g transform="translate(61.346178 63.914337) scale(0.08 -0.08)">
      <defs>
       <path id="Roboto-Regular-63" d="M 1794 413 
Q 2103 413 2336 597 
Q 2569 781 2591 1069 
L 3141 1069 
Q 3119 616 2725 276 
Q 2331 -63 1794 -63 
Q 1031 -63 661 440 
Q 291 944 291 1625 
L 291 1756 
Q 291 2438 661 2941 
Q 1031 3444 1794 3444 
Q 2388 3444 2753 3092 
Q 3119 2741 3141 2219 
L 2591 2219 
Q 2569 2531 2355 2750 
Q 2141 2969 1794 2969 
Q 1438 2969 1236 2787 
Q 1034 2606 951 2328 
Q 869 2050 869 1756 
L 869 1625 
Q 869 1328 950 1050 
Q 1031 772 1232 592 
Q 1434 413 1794 413 
z
" transform="scale(0.015625)"/>
       <path id="Roboto-Regular-68" d="M 1844 2956 
Q 1566 2956 1353 2806 
Q 1141 2656 1019 2416 
L 1019 0 
L 441 0 
L 441 4800 
L 1019 4800 
L 1019 2978 
Q 1403 3444 2016 3444 
Q 2513 3444 2805 3166 
Q 3097 2888 3100 2231 
L 3100 0 
L 2519 0 
L 2519 2222 
Q 2519 2619 2345 2787 
Q 2172 2956 1844 2956 
z
" transform="scale(0.015625)"/>
       <path id="Roboto-Regular-4e" d="M 4028 4550 
L 4028 0 
L 3422 0 
L 1131 3509 
L 1131 0 
L 528 0 
L 528 4550 
L 1131 4550 
L 3431 1031 
L 3431 4550 
L 4028 4550 
z
" transform="scale(0.015625)"/>
       <path id="Roboto-Regular-74" d="M 1872 0 
Q 1675 -63 1425 -63 
Q 1103 -63 875 134 
Q 647 331 647 841 
L 647 2938 
L 28 2938 
L 28 3381 
L 647 3381 
L 647 4203 
L 1225 4203 
L 1225 3381 
L 1856 3381 
L 1856 2938 
L 1225 2938 
L 1225 838 
Q 1225 578 1337 506 
Q 1450 434 1597 434 
Q 1706 434 1869 472 
L 1872 0 
z
" transform="scale(0.015625)"/>
      </defs>
      <use xlink:href="#Roboto-Regular-6d"/>
      <use xlink:href="#Roboto-Regular-62" x="87.695312"/>
      <use xlink:href="#Roboto-Regular-53" x="143.847656"/>
      <use xlink:href="#Roboto-Regular-63" x="203.222656"/>
      <use xlink:href="#Roboto-Regular-68" x="255.566406"/>
      <use xlink:href="#Roboto-Regular-4e" x="310.644531"/>
      <use xlink:href="#Roboto-Regular-65" x="381.982422"/>
      <use xlink:href="#Roboto-Regular-74" x="435.009766"/>
     </g>
    </g>
    <g id="line2d_24">
     <path d="M 38.946178 72.739337 
L 46.946178 72.739337 
L 54.946178 72.739337 
" style="fill: none; stroke: #ffe7be; stroke-width: 1.5; stroke-linecap: square"/>
    </g>
    <g id="text_20">
     <!-- GFN2-xTB -->
     <g transform="translate(61.346178 75.539337) scale(0.08 -0.08)">
      <defs>
       <path id="Roboto-Regular-46" d="M 528 0 
L 528 4550 
L 3347 4550 
L 3347 4056 
L 1131 4056 
L 1131 2503 
L 3038 2503 
L 3038 2009 
L 1131 2009 
L 1131 0 
L 528 0 
z
" transform="scale(0.015625)"/>
       <path id="Roboto-Regular-78" d="M 831 3381 
L 1572 2150 
L 2322 3381 
L 3000 3381 
L 1894 1713 
L 3034 0 
L 2366 0 
L 1584 1269 
L 803 0 
L 131 0 
L 1269 1713 
L 166 3381 
L 831 3381 
z
" transform="scale(0.015625)"/>
       <path id="Roboto-Regular-54" d="M 156 4056 
L 156 4550 
L 3672 4550 
L 3672 4056 
L 2209 4056 
L 2209 0 
L 1616 0 
L 1616 4056 
L 156 4056 
z
" transform="scale(0.015625)"/>
       <path id="Roboto-Regular-42" d="M 3625 1313 
Q 3625 675 3214 337 
Q 2803 0 2122 0 
L 528 0 
L 528 4550 
L 2019 4550 
Q 2719 4550 3111 4261 
Q 3503 3972 3503 3338 
Q 3503 3022 3323 2776 
Q 3144 2531 2831 2397 
Q 3216 2291 3420 1994 
Q 3625 1697 3625 1313 
z
M 1131 4056 
L 1131 2613 
L 2038 2613 
Q 2425 2613 2662 2806 
Q 2900 3000 2900 3344 
Q 2900 4041 2056 4056 
L 1131 4056 
z
M 3025 1306 
Q 3025 1688 2817 1908 
Q 2609 2128 2150 2128 
L 1131 2128 
L 1131 491 
L 2122 491 
Q 2550 491 2787 711 
Q 3025 931 3025 1306 
z
" transform="scale(0.015625)"/>
      </defs>
      <use xlink:href="#Roboto-Regular-47"/>
      <use xlink:href="#Roboto-Regular-46" x="68.115234"/>
      <use xlink:href="#Roboto-Regular-4e" x="123.388672"/>
      <use xlink:href="#Roboto-Regular-32" x="194.726562"/>
      <use xlink:href="#Roboto-Regular-2d" x="250.927734"/>
      <use xlink:href="#Roboto-Regular-78" x="278.564453"/>
      <use xlink:href="#Roboto-Regular-54" x="328.173828"/>
      <use xlink:href="#Roboto-Regular-42" x="387.841797"/>
     </g>
    </g>
   </g>
  </g>
 </g>
 <defs>
  <clipPath id="p785451dafb">
   <rect x="31.746177" y="4.214337" width="195.653582" height="197.482298"/>
  </clipPath>
 </defs>
</svg>
