<?xml version="1.0" encoding="utf-8" standalone="no"?>
<!DOCTYPE svg PUBLIC "-//W3C//DTD SVG 1.1//EN"
  "http://www.w3.org/Graphics/SVG/1.1/DTD/svg11.dtd">
<svg xmlns:xlink="http://www.w3.org/1999/xlink" width="432pt" height="432pt" viewBox="0 0 432 432" xmlns="http://www.w3.org/2000/svg" version="1.1">
 <metadata>
  <rdf:RDF xmlns:dc="http://purl.org/dc/elements/1.1/" xmlns:cc="http://creativecommons.org/ns#" xmlns:rdf="http://www.w3.org/1999/02/22-rdf-syntax-ns#">
   <cc:Work>
    <dc:type rdf:resource="http://purl.org/dc/dcmitype/StillImage"/>
    <dc:date>2022-09-27T10:38:32.539918</dc:date>
    <dc:format>image/svg+xml</dc:format>
    <dc:creator>
     <cc:Agent>
      <dc:title>Matplotlib v3.5.1, https://matplotlib.org/</dc:title>
     </cc:Agent>
    </dc:creator>
   </cc:Work>
  </rdf:RDF>
 </metadata>
 <defs>
  <style type="text/css">*{stroke-linejoin: round; stroke-linecap: butt}</style>
 </defs>
 <g id="figure_1">
  <g id="patch_1">
   <path d="M 0 432 
L 432 432 
L 432 0 
L 0 0 
z
" style="fill: #ffffff"/>
  </g>
  <g id="axes_1">
   <g id="patch_2">
    <path d="M 61.885865 383.15851 
L 423.244843 383.15851 
L 423.244843 3.00024 
L 61.885865 3.00024 
z
" style="fill: #ffffff"/>
   </g>
   <g id="line2d_1">
    <path d="M 61.885865 383.15851 
L 62.230016 383.04865 
L 62.918319 382.304819 
L 67.048136 376.392681 
L 67.736439 375.981273 
L 68.424742 375.795691 
L 69.801347 375.721824 
L 70.48965 375.662945 
L 71.177953 375.812922 
L 71.522104 375.677889 
L 72.210407 374.908981 
L 72.89871 373.935527 
L 74.275316 371.543378 
L 74.963619 370.783081 
L 75.996073 368.911094 
L 76.684376 367.48096 
L 78.060981 364.027147 
L 81.502495 359.221485 
L 81.846647 359.210271 
L 82.534949 359.310241 
L 82.879101 359.096167 
L 83.223252 358.684743 
L 83.911555 357.30245 
L 85.288161 353.335538 
L 86.320615 351.66134 
L 88.041372 348.834046 
L 88.729675 347.447284 
L 89.417978 346.642892 
L 90.10628 345.94703 
L 91.138735 344.531794 
L 92.51534 341.881799 
L 92.859492 341.694349 
L 93.547795 341.578802 
L 93.891946 341.306976 
L 94.580249 340.211142 
L 95.268552 338.527521 
L 95.956854 336.637677 
L 96.645157 335.494154 
L 98.710066 333.652146 
L 99.398368 332.335164 
L 100.086671 330.863585 
L 100.774974 329.912183 
L 101.807428 328.570168 
L 102.495731 327.333722 
L 103.528185 325.311238 
L 103.872337 325.046427 
L 104.216488 325.015994 
L 105.593094 325.282452 
L 105.937245 325.222441 
L 106.281397 324.991924 
L 106.969699 323.920248 
L 107.658002 322.703891 
L 108.346305 321.849451 
L 110.411214 319.657282 
L 111.099516 318.521184 
L 111.787819 317.875086 
L 112.476122 317.615138 
L 113.164425 317.589617 
L 114.196879 317.720024 
L 114.885182 317.686077 
L 115.573485 317.987806 
L 116.95009 319.108679 
L 117.294242 319.204888 
L 117.638393 319.105519 
L 118.326696 318.355741 
L 119.35915 317.012908 
L 120.047453 316.578498 
L 120.391604 316.571132 
L 121.079907 316.974375 
L 121.76821 317.517825 
L 122.456513 317.715708 
L 123.833118 317.701577 
L 124.521421 318.054808 
L 125.898027 319.128585 
L 126.58633 319.477976 
L 126.930481 319.532401 
L 127.274633 319.458273 
L 127.962935 319.01284 
L 128.99539 318.044242 
L 130.371995 316.255991 
L 131.060298 315.924494 
L 131.404449 315.948716 
L 132.092752 316.337106 
L 133.125206 317.040041 
L 133.813509 317.133416 
L 134.501812 316.869777 
L 135.534266 316.234122 
L 135.878418 316.2678 
L 136.566721 316.692558 
L 137.255023 317.104464 
L 138.287478 317.378405 
L 138.97578 317.354683 
L 139.664083 317.040727 
L 140.008235 316.658869 
L 140.696537 315.356475 
L 141.38484 313.937209 
L 142.073143 313.08668 
L 142.761446 312.70823 
L 143.7939 312.558418 
L 144.138052 312.349607 
L 144.826354 311.409444 
L 145.514657 310.299559 
L 145.858809 309.947992 
L 146.20296 309.804886 
L 146.547111 309.888597 
L 147.923717 310.854957 
L 148.267868 310.718436 
L 149.644474 309.698232 
L 150.332777 309.373582 
L 150.676928 309.099181 
L 151.02108 308.622967 
L 151.365231 307.865935 
L 152.053534 305.555166 
L 153.085988 301.855206 
L 153.774291 300.309566 
L 154.462594 299.500562 
L 155.150897 298.896688 
L 156.183351 297.493063 
L 156.871654 296.706491 
L 157.559956 296.340626 
L 158.592411 296.042831 
L 159.280713 295.374366 
L 160.313168 293.719262 
L 161.001471 292.35503 
L 161.689773 290.55343 
L 162.378076 288.173517 
L 164.098833 281.727767 
L 164.787136 280.17075 
L 165.475439 279.312167 
L 166.163742 278.874288 
L 166.852044 278.674944 
L 167.884499 278.539517 
L 168.572801 278.101702 
L 169.949407 276.839552 
L 170.63771 276.61094 
L 171.326013 276.504681 
L 171.670164 276.297813 
L 172.014316 275.894939 
L 172.702618 274.454252 
L 174.079224 270.891264 
L 174.767527 270.020547 
L 175.799981 269.328357 
L 177.176587 267.843072 
L 177.520738 267.732028 
L 178.209041 267.935843 
L 178.897344 268.169961 
L 179.241495 268.055187 
L 179.585647 267.722611 
L 180.273949 266.571639 
L 180.962252 265.39664 
L 181.650555 264.782136 
L 182.683009 264.441698 
L 183.027161 264.020826 
L 183.715463 262.335279 
L 184.747918 259.536928 
L 185.092069 259.020335 
L 185.780372 258.57614 
L 186.124523 258.416851 
L 186.468675 258.109565 
L 186.812826 257.559957 
L 188.189432 254.356742 
L 188.533583 254.00203 
L 188.877735 253.985731 
L 189.221886 254.269043 
L 190.25434 255.676372 
L 190.598492 255.80242 
L 190.942643 255.637757 
L 191.975097 254.736662 
L 192.319249 254.789487 
L 192.6634 255.09345 
L 193.351703 255.996719 
L 193.695854 256.235217 
L 194.040006 256.10082 
L 194.384157 255.520979 
L 195.07246 253.350576 
L 195.760763 250.988609 
L 196.449066 249.474643 
L 197.137368 248.741034 
L 197.825671 248.041199 
L 199.202277 246.162298 
L 199.546428 246.241734 
L 199.89058 246.717805 
L 201.267185 249.979265 
L 201.611337 250.235845 
L 201.955488 250.07852 
L 202.643791 248.96355 
L 202.987942 248.392648 
L 203.332094 248.042216 
L 203.676245 247.968863 
L 204.708699 248.336818 
L 205.052851 248.107332 
L 205.397002 247.530771 
L 206.085305 245.530135 
L 206.773608 243.615267 
L 207.117759 243.196012 
L 207.461911 243.229052 
L 207.806062 243.622545 
L 208.494365 244.7543 
L 208.838516 245.101898 
L 209.182668 245.103126 
L 209.526819 244.712305 
L 210.559273 242.595148 
L 210.903425 242.231777 
L 211.247576 242.168206 
L 212.28003 242.468355 
L 212.624182 242.162056 
L 212.968333 241.464942 
L 214.344939 237.366033 
L 214.68909 237.071255 
L 215.033242 237.197147 
L 216.409847 238.691201 
L 216.753999 238.490413 
L 217.442301 237.216804 
L 218.130604 236.037791 
L 218.474756 235.824214 
L 218.818907 235.835578 
L 219.50721 236.065997 
L 219.851361 236.019479 
L 220.195513 235.718358 
L 220.883816 234.344232 
L 221.572118 232.911431 
L 221.91627 232.582844 
L 222.260421 232.569191 
L 222.604573 232.804987 
L 223.637027 233.873873 
L 223.981178 233.988208 
L 224.32533 233.895116 
L 225.357784 233.15983 
L 226.046087 233.088235 
L 226.734389 233.238931 
L 227.078541 233.209674 
L 227.422692 232.998043 
L 227.766844 232.56326 
L 229.143449 230.087006 
L 229.831752 229.539558 
L 230.520055 229.457725 
L 231.208358 229.436239 
L 232.929115 229.016147 
L 233.617418 229.366346 
L 234.30572 229.840553 
L 234.649872 229.909703 
L 234.994023 229.758823 
L 235.682326 228.884491 
L 236.370629 227.897912 
L 237.058932 227.35173 
L 237.747235 227.248777 
L 238.779689 227.224906 
L 240.500446 226.723577 
L 241.188749 227.028575 
L 242.221203 227.748233 
L 242.565354 227.752824 
L 243.253657 227.303285 
L 243.94196 226.748678 
L 244.630263 226.50162 
L 245.662717 226.594136 
L 246.35102 226.535491 
L 247.039323 226.099928 
L 248.071777 225.302837 
L 248.415928 225.220635 
L 248.76008 225.306632 
L 249.448382 225.921715 
L 250.136685 226.559949 
L 250.480837 226.65271 
L 250.824988 226.562188 
L 251.513291 226.044887 
L 252.545745 225.195781 
L 253.922351 224.433546 
L 254.610653 223.436641 
L 255.643108 221.67658 
L 255.987259 221.383878 
L 256.331411 221.342587 
L 257.019713 221.823276 
L 257.363865 222.073652 
L 257.708016 222.125147 
L 258.052168 221.901013 
L 258.74047 220.825706 
L 259.428773 219.701675 
L 259.772925 219.348179 
L 260.461227 219.102915 
L 261.14953 218.922538 
L 261.493682 218.588732 
L 262.181984 217.310435 
L 262.870287 215.823271 
L 263.214439 215.306742 
L 263.55859 215.055217 
L 263.902742 215.076679 
L 264.935196 215.797165 
L 265.279347 215.813226 
L 265.623499 215.600101 
L 267.000104 214.041533 
L 267.344256 213.978147 
L 268.032558 214.319488 
L 268.37671 214.512797 
L 268.720861 214.578206 
L 269.065013 214.465526 
L 269.753315 213.781981 
L 270.441618 213.009232 
L 270.78577 212.819026 
L 271.129921 212.815768 
L 272.506527 213.441081 
L 272.850678 213.361208 
L 273.538981 212.727222 
L 276.292192 208.950956 
L 276.980495 207.984226 
L 277.668798 207.391902 
L 278.012949 207.335669 
L 278.357101 207.451423 
L 279.389555 208.319903 
L 280.422009 209.124961 
L 281.798615 209.886467 
L 282.142766 209.932621 
L 282.486918 209.764673 
L 282.831069 209.314921 
L 283.519372 207.715968 
L 284.551826 205.239078 
L 285.240129 204.279464 
L 285.928432 203.560044 
L 286.616734 202.479267 
L 287.305037 201.441582 
L 287.649189 201.264428 
L 287.99334 201.39765 
L 288.337491 201.826406 
L 289.714097 204.569386 
L 290.058249 204.759896 
L 290.4024 204.613481 
L 291.090703 203.975958 
L 291.434854 203.853654 
L 291.779006 203.991399 
L 292.123157 204.383399 
L 293.155611 206.022676 
L 293.499763 206.169736 
L 293.843914 205.952964 
L 294.876368 204.726003 
L 295.22052 204.795323 
L 295.564671 205.245778 
L 296.252974 206.956043 
L 296.941277 208.464737 
L 297.285428 208.621145 
L 297.62958 208.308747 
L 298.662034 206.622611 
L 299.006185 206.564688 
L 299.350337 206.893078 
L 300.382791 208.726658 
L 300.726942 208.90123 
L 301.071094 208.645618 
L 302.103548 206.966991 
L 302.447699 206.917054 
L 302.791851 207.351119 
L 303.480153 209.323701 
L 304.168456 211.22197 
L 304.512608 211.518091 
L 304.856759 211.286197 
L 305.889213 209.45382 
L 306.233365 209.271453 
L 306.577516 209.496058 
L 307.60997 211.128656 
L 307.954122 211.154089 
L 308.298273 210.6368 
L 308.986576 208.480914 
L 309.674879 206.628286 
L 310.01903 206.391597 
L 310.363182 206.697149 
L 311.739787 209.390129 
L 312.083939 209.2415 
L 313.116393 207.585259 
L 313.460544 207.469035 
L 313.804696 207.842413 
L 314.492998 209.768204 
L 315.181301 211.567608 
L 315.525453 211.745299 
L 315.869604 211.355388 
L 317.24621 208.358251 
L 317.590361 208.331821 
L 317.934513 208.709477 
L 318.622815 209.915166 
L 318.966967 210.244041 
L 319.311118 210.169604 
L 319.65527 209.724576 
L 320.343572 208.519244 
L 320.687724 208.243023 
L 321.031875 208.414563 
L 321.376027 209.057713 
L 322.752632 212.752799 
L 323.096784 212.861323 
L 323.440935 212.53749 
L 324.473389 210.86972 
L 324.817541 210.67569 
L 325.161692 210.771766 
L 326.194146 211.506059 
L 326.538298 211.329294 
L 326.882449 210.821043 
L 327.914903 208.784204 
L 328.259055 208.589161 
L 328.603206 208.833993 
L 328.947358 209.478073 
L 329.979812 212.138377 
L 330.323963 212.656664 
L 330.668115 212.853814 
L 331.012266 212.803246 
L 331.700569 212.487059 
L 332.04472 212.454387 
L 332.733023 212.793524 
L 333.077175 213.010566 
L 333.421326 213.074963 
L 333.765477 212.852707 
L 334.109629 212.283934 
L 335.830386 208.164051 
L 336.174537 208.039244 
L 336.518689 208.201629 
L 337.551143 209.099062 
L 337.895294 209.168639 
L 339.2719 208.958273 
L 339.960203 209.384655 
L 340.648506 209.813083 
L 340.992657 209.761715 
L 341.336808 209.42586 
L 342.025111 208.0141 
L 342.713414 206.412368 
L 343.057565 205.867512 
L 343.401717 205.574578 
L 343.745868 205.504193 
L 344.434171 205.601006 
L 344.778322 205.498584 
L 345.122474 205.187405 
L 346.499079 203.159573 
L 346.843231 203.020913 
L 347.187382 203.124285 
L 348.219836 203.863593 
L 348.563988 203.754082 
L 348.908139 203.286621 
L 349.596442 201.487863 
L 350.284745 199.68377 
L 350.628896 199.209152 
L 350.973048 199.105744 
L 351.317199 199.309284 
L 352.005502 199.962278 
L 352.349653 200.016643 
L 352.693805 199.718547 
L 353.382108 198.268208 
L 354.07041 196.87018 
L 354.414562 196.592793 
L 354.758713 196.647468 
L 355.791167 197.552363 
L 356.135319 197.434268 
L 356.47947 196.861082 
L 357.167773 194.698919 
L 357.856076 192.667915 
L 358.200227 192.191911 
L 358.544379 192.151322 
L 359.576833 193.186547 
L 359.920984 193.127793 
L 360.265136 192.603551 
L 361.641741 189.140693 
L 361.985893 188.961987 
L 362.330044 189.167096 
L 363.018347 190.025811 
L 363.362498 190.157003 
L 363.70665 189.780893 
L 364.050801 188.864814 
L 365.083255 185.076879 
L 365.427407 184.376971 
L 365.771558 184.21859 
L 366.11571 184.553172 
L 366.804013 185.833141 
L 367.148164 186.146456 
L 367.492315 185.897517 
L 367.836467 185.068784 
L 369.213072 180.580905 
L 369.557224 180.24522 
L 369.901375 180.296553 
L 370.589678 180.758551 
L 370.933829 180.636713 
L 371.277981 180.044311 
L 371.966284 177.787955 
L 372.654586 175.687567 
L 372.998738 175.246885 
L 373.342889 175.307679 
L 374.031192 176.418072 
L 374.375343 176.957307 
L 374.719495 177.129237 
L 375.063646 176.824977 
L 375.751949 175.222003 
L 376.440252 173.751694 
L 376.784403 173.476624 
L 377.128555 173.508585 
L 377.816858 173.869986 
L 378.161009 173.789551 
L 378.50516 173.337159 
L 379.193463 171.453861 
L 379.881766 169.357609 
L 380.225917 168.672955 
L 380.570069 168.351652 
L 380.91422 168.366273 
L 381.946674 169.022913 
L 382.290826 168.896091 
L 382.634977 168.487432 
L 383.667432 166.71787 
L 384.011583 166.4019 
L 384.355734 166.326568 
L 385.388189 166.663954 
L 385.73234 166.476869 
L 386.076491 165.964916 
L 386.764794 164.151648 
L 387.453097 162.194904 
L 387.797248 161.485634 
L 388.1414 161.034382 
L 388.485551 160.828962 
L 389.173854 160.853416 
L 389.862157 160.795688 
L 391.582914 159.956811 
L 392.95952 160.04776 
L 393.303671 159.871852 
L 393.647822 159.505982 
L 394.336125 158.273079 
L 395.712731 155.452951 
L 396.401034 154.541987 
L 398.121791 152.885123 
L 398.810093 152.632507 
L 399.498396 152.786433 
L 400.530851 153.240419 
L 400.875002 153.247354 
L 401.219153 153.116494 
L 401.907456 152.465179 
L 402.93991 150.873703 
L 403.972365 149.437933 
L 405.34897 148.058951 
L 406.037273 147.569551 
L 406.037273 147.569551 
" clip-path="url(#pd821b97f50)" style="fill: none; stroke: #ffe7be; stroke-width: 2.5; stroke-linecap: square"/>
   </g>
   <g id="line2d_2">
    <path d="M 61.885865 383.15851 
L 63.262471 383.056079 
L 67.736439 382.554863 
L 69.457196 382.328092 
L 79.781738 380.098693 
L 83.567404 379.11709 
L 85.976464 378.212125 
L 94.9244 374.324493 
L 96.645157 373.35808 
L 101.119126 370.649278 
L 103.184034 369.612416 
L 106.281397 367.744262 
L 107.658002 366.734338 
L 109.034608 366.076534 
L 110.067062 365.475953 
L 111.443668 364.597494 
L 113.508576 363.525618 
L 115.573485 361.972705 
L 117.638393 360.929324 
L 119.014999 360.129285 
L 120.735756 359.361175 
L 122.112361 358.211758 
L 123.144816 357.450398 
L 127.962935 354.711837 
L 128.99539 353.878693 
L 130.716147 352.457794 
L 134.501812 350.039715 
L 135.534266 349.391614 
L 136.566721 348.43444 
L 141.728992 343.030384 
L 143.7939 341.734135 
L 145.170506 340.760599 
L 146.20296 340.063569 
L 146.891263 339.303626 
L 149.300323 335.982779 
L 152.053534 333.557232 
L 152.741837 333.432839 
L 153.43014 333.396794 
L 154.118442 333.07554 
L 154.806745 332.364023 
L 155.839199 331.216206 
L 156.871654 330.545707 
L 157.559956 330.074492 
L 158.592411 328.89037 
L 159.280713 328.195342 
L 159.969016 327.888745 
L 161.001471 327.636722 
L 161.689773 326.999419 
L 163.41053 324.7175 
L 165.131287 323.103427 
L 166.163742 321.736032 
L 166.852044 321.214178 
L 167.540347 321.108812 
L 168.22865 321.031637 
L 168.916953 320.557792 
L 171.670164 317.363537 
L 172.358467 316.221318 
L 173.735073 313.699842 
L 174.423375 313.026875 
L 175.45583 312.320371 
L 176.144132 311.515767 
L 177.520738 309.776 
L 179.241495 308.144335 
L 181.306404 304.933124 
L 182.338858 304.270094 
L 183.027161 303.683031 
L 185.092069 301.309837 
L 186.124523 300.318001 
L 186.812826 299.192466 
L 188.877735 295.10406 
L 191.286794 291.974683 
L 192.319249 290.302994 
L 193.351703 289.161338 
L 194.040006 288.329072 
L 194.728309 287.079849 
L 196.449066 283.363367 
L 197.825671 281.147879 
L 198.513974 279.510095 
L 199.89058 275.753702 
L 200.578882 274.673544 
L 201.611337 273.353518 
L 202.299639 271.632586 
L 203.332094 268.288052 
L 204.020397 266.907317 
L 204.708699 266.29298 
L 205.397002 265.778056 
L 206.085305 264.638628 
L 207.117759 262.418214 
L 207.806062 261.411454 
L 208.838516 260.280942 
L 209.182668 259.672246 
L 209.87097 257.807622 
L 210.559273 255.780464 
L 211.247576 254.459355 
L 211.935879 253.884702 
L 212.28003 253.65938 
L 212.624182 253.281089 
L 212.968333 252.639962 
L 214.68909 248.382482 
L 215.377393 247.746755 
L 216.065696 247.310837 
L 216.409847 246.837375 
L 217.09815 245.163693 
L 217.786453 243.305234 
L 218.474756 242.068335 
L 219.163058 241.535151 
L 219.50721 241.353486 
L 219.851361 241.034867 
L 220.195513 240.452443 
L 221.91627 236.127275 
L 222.260421 235.750599 
L 223.292875 235.217611 
L 223.637027 234.682802 
L 224.32533 232.564862 
L 225.357784 229.09529 
L 225.701935 228.415282 
L 226.046087 228.026741 
L 227.078541 227.554856 
L 227.422692 227.072352 
L 228.110995 225.365427 
L 228.799298 223.626424 
L 229.143449 223.035806 
L 229.487601 222.683253 
L 230.520055 222.288123 
L 230.864206 221.804243 
L 231.208358 220.924423 
L 232.584963 216.278357 
L 232.929115 215.6577 
L 233.273266 215.367738 
L 234.30572 215.155519 
L 234.649872 214.614602 
L 235.338175 212.511354 
L 236.026477 210.277948 
L 236.370629 209.50544 
L 236.71478 209.033961 
L 237.403083 208.739072 
L 237.747235 208.582418 
L 238.091386 208.139026 
L 238.435537 207.29371 
L 240.156294 201.312929 
L 240.500446 200.768773 
L 240.844597 200.517911 
L 241.5329 200.299549 
L 241.877051 199.967088 
L 242.565354 198.612513 
L 243.253657 197.186224 
L 243.597808 196.771908 
L 243.94196 196.631311 
L 244.630263 196.940713 
L 244.974414 197.071339 
L 245.318565 196.917065 
L 245.662717 196.35761 
L 246.35102 194.22826 
L 247.383474 190.773828 
L 248.071777 189.412478 
L 248.76008 188.441562 
L 249.448382 186.958745 
L 250.480837 184.458709 
L 250.824988 184.002394 
L 251.169139 183.842615 
L 251.513291 183.964876 
L 252.545745 184.828042 
L 252.889896 184.778386 
L 253.234048 184.454809 
L 254.954805 181.890654 
L 255.987259 180.947445 
L 256.675562 179.571284 
L 257.708016 177.061313 
L 258.052168 176.541865 
L 258.396319 176.271081 
L 258.74047 176.224591 
L 259.772925 176.529678 
L 260.117076 176.471155 
L 260.805379 176.003226 
L 261.837833 175.216263 
L 262.870287 174.858012 
L 263.214439 174.58506 
L 263.902742 173.568941 
L 264.591044 172.36842 
L 264.935196 171.941798 
L 265.279347 171.70971 
L 265.623499 171.679743 
L 266.311801 172.018397 
L 267.344256 172.588358 
L 269.409164 173.200614 
L 270.097467 173.210055 
L 270.78577 172.798266 
L 271.474072 171.944767 
L 272.850678 169.899545 
L 273.19483 169.614694 
L 273.538981 169.484995 
L 273.883132 169.525232 
L 274.227284 169.750524 
L 274.915587 170.688259 
L 275.948041 172.267012 
L 276.636344 172.839879 
L 278.012949 173.692843 
L 278.701252 174.259351 
L 279.045403 174.373654 
L 279.389555 174.27187 
L 279.733706 173.943175 
L 280.422009 172.820029 
L 281.110312 171.678387 
L 281.454463 171.356745 
L 281.798615 171.264788 
L 282.486918 171.547768 
L 283.17522 171.799868 
L 284.207675 171.883894 
L 284.551826 172.098174 
L 284.895977 172.51883 
L 286.272583 175.050756 
L 286.616734 175.1983 
L 286.960886 175.004877 
L 287.649189 173.950419 
L 288.337491 172.882545 
L 288.681643 172.633651 
L 289.025794 172.601818 
L 289.714097 172.782649 
L 290.058249 172.716587 
L 290.4024 172.43371 
L 291.779006 170.574976 
L 292.123157 170.558994 
L 292.467308 170.844182 
L 293.499763 172.12115 
L 293.843914 172.083188 
L 294.188065 171.673145 
L 294.876368 170.104018 
L 295.564671 168.564822 
L 295.908822 168.112988 
L 296.941277 167.443981 
L 297.285428 166.958272 
L 297.973731 165.207727 
L 298.662034 163.178612 
L 299.006185 162.489805 
L 299.350337 162.186942 
L 299.694488 162.267499 
L 300.726942 163.232535 
L 301.071094 163.135029 
L 301.415245 162.681008 
L 302.791851 159.793387 
L 303.136002 159.528744 
L 304.168456 159.442115 
L 304.512608 159.092595 
L 304.856759 158.429519 
L 306.233365 154.739239 
L 306.577516 154.344122 
L 306.921668 154.319123 
L 307.954122 155.11714 
L 308.298273 155.089987 
L 308.642425 154.764582 
L 309.330727 153.485996 
L 310.01903 152.29868 
L 310.363182 152.013533 
L 311.395636 151.646478 
L 311.739787 151.235265 
L 312.42809 149.743268 
L 313.116393 148.099641 
L 313.460544 147.578761 
L 313.804696 147.375686 
L 314.148847 147.467903 
L 315.181301 148.326823 
L 315.525453 148.405155 
L 315.869604 148.291301 
L 316.557907 147.660869 
L 317.24621 147.078525 
L 317.934513 146.977411 
L 318.278664 146.970512 
L 318.622815 146.852463 
L 318.966967 146.5453 
L 319.65527 145.318644 
L 320.687724 143.170944 
L 321.031875 142.793705 
L 321.376027 142.626274 
L 322.752632 142.378882 
L 323.440935 141.754217 
L 324.817541 140.30695 
L 325.849995 139.352629 
L 326.882449 137.812856 
L 327.570752 136.77851 
L 327.914903 136.439553 
L 328.259055 136.26758 
L 328.947358 136.28893 
L 329.979812 136.46467 
L 330.668115 136.28625 
L 331.356417 135.785071 
L 332.04472 135.030168 
L 332.733023 133.895545 
L 333.765477 131.484423 
L 335.142083 128.159557 
L 335.830386 127.101853 
L 336.518689 126.475256 
L 337.206991 126.299238 
L 338.239446 126.560252 
L 338.927748 126.677108 
L 339.616051 126.478429 
L 340.304354 125.797795 
L 340.992657 124.723114 
L 342.025111 122.55852 
L 343.745868 118.864494 
L 344.778322 117.05759 
L 346.154928 115.202019 
L 347.187382 113.847886 
L 347.875685 112.626228 
L 348.563988 110.92384 
L 350.628896 104.77145 
L 350.973048 104.261058 
L 351.317199 103.961648 
L 353.037956 103.142328 
L 355.102865 100.984413 
L 355.447016 100.416031 
L 355.791167 99.604692 
L 356.47947 96.993837 
L 358.200227 88.185439 
L 358.88853 86.381439 
L 361.29759 83.093237 
L 361.641741 82.930591 
L 361.985893 82.986524 
L 362.674196 83.381077 
L 363.018347 83.415281 
L 363.362498 83.099128 
L 363.70665 82.292133 
L 364.394953 79.320201 
L 365.427407 74.421125 
L 365.771558 73.400027 
L 366.11571 72.769731 
L 367.492315 71.300521 
L 368.868921 67.73254 
L 369.213072 67.391997 
L 369.557224 67.412026 
L 370.589678 68.226677 
L 370.933829 67.96782 
L 371.277981 67.133496 
L 371.966284 64.098648 
L 372.654586 60.85778 
L 372.998738 59.726845 
L 373.342889 59.044343 
L 373.687041 58.749109 
L 374.375343 58.5258 
L 374.719495 58.108559 
L 375.407798 56.307442 
L 376.096101 54.333623 
L 376.440252 53.761335 
L 376.784403 53.581674 
L 377.128555 53.753431 
L 377.816858 54.502039 
L 378.161009 54.593209 
L 378.50516 54.227996 
L 378.849312 53.379811 
L 380.570069 47.666502 
L 380.91422 47.271191 
L 381.602523 46.904769 
L 381.946674 46.527192 
L 382.634977 44.991938 
L 383.32328 43.332469 
L 383.667432 42.919734 
L 384.011583 42.912695 
L 384.355734 43.2758 
L 385.044037 44.474566 
L 385.388189 44.836664 
L 385.73234 44.777696 
L 386.076491 44.252595 
L 386.764794 42.207714 
L 387.453097 40.003272 
L 388.1414 38.584273 
L 388.829703 37.565685 
L 389.173854 36.821476 
L 389.862157 34.57646 
L 390.55046 32.215925 
L 390.894611 31.491972 
L 391.238762 31.243708 
L 391.582914 31.466119 
L 392.271217 32.772291 
L 392.615368 33.418953 
L 392.95952 33.79978 
L 393.303671 33.833289 
L 393.647822 33.548944 
L 395.024428 31.788767 
L 395.712731 31.408969 
L 396.056882 31.056152 
L 396.401034 30.404141 
L 397.089336 28.115234 
L 398.121791 24.324557 
L 398.465942 23.6714 
L 398.810093 23.436865 
L 399.154245 23.545799 
L 400.186699 24.333587 
L 400.530851 24.303066 
L 401.219153 23.774449 
L 401.563305 23.507474 
L 401.907456 23.397512 
L 402.251608 23.49781 
L 403.628213 24.582331 
L 403.972365 24.397408 
L 404.316516 23.90795 
L 405.693122 21.318074 
L 406.037273 21.103015 
L 406.037273 21.103015 
" clip-path="url(#pd821b97f50)" style="fill: none; stroke: #95d5b2; stroke-width: 2.5; stroke-linecap: square"/>
   </g>
   <g id="line2d_3">
    <path d="M 61.885865 383.15851 
L 63.262471 383.020341 
L 66.703985 382.545257 
L 68.768893 382.402097 
L 71.866256 381.761998 
L 75.651921 380.774664 
L 78.060981 379.925787 
L 84.599858 377.107075 
L 88.385523 374.846143 
L 91.827037 372.313617 
L 94.236097 370.42813 
L 95.612703 369.374884 
L 99.398368 365.685615 
L 100.774974 364.151886 
L 103.184034 362.005096 
L 104.216488 360.911194 
L 106.281397 359.235668 
L 108.002154 357.112833 
L 110.067062 355.42024 
L 111.787819 353.142114 
L 113.508576 351.684176 
L 115.573485 348.666343 
L 117.294242 347.388084 
L 119.014999 345.116814 
L 119.703302 344.818097 
L 120.391604 344.548223 
L 120.735756 344.229073 
L 121.424059 343.131666 
L 122.456513 341.178949 
L 123.144816 340.385259 
L 124.17727 339.635988 
L 124.865573 338.691129 
L 125.898027 336.960198 
L 126.242178 336.58951 
L 126.58633 336.388804 
L 127.962935 336.159154 
L 128.651238 335.40145 
L 129.683692 333.935831 
L 130.027844 333.65543 
L 130.716147 333.482103 
L 131.404449 333.302787 
L 131.748601 333.000443 
L 132.436904 331.922867 
L 133.125206 330.714578 
L 133.469358 330.289276 
L 133.813509 330.047305 
L 134.501812 329.98335 
L 135.190115 329.878497 
L 135.534266 329.611524 
L 136.222569 328.668978 
L 136.910872 327.742265 
L 137.255023 327.49158 
L 137.599175 327.411051 
L 138.631629 327.454468 
L 138.97578 327.230663 
L 139.664083 326.20449 
L 140.352386 324.952686 
L 140.696537 324.517513 
L 141.040689 324.292651 
L 141.38484 324.263886 
L 142.417294 324.4482 
L 142.761446 324.255557 
L 143.449749 323.325318 
L 144.138052 322.302703 
L 144.482203 322.029816 
L 144.826354 321.972109 
L 146.20296 322.35058 
L 146.547111 322.064663 
L 147.235414 320.898739 
L 147.923717 319.679774 
L 148.267868 319.300504 
L 148.61202 319.111942 
L 149.988625 318.872715 
L 150.676928 318.03035 
L 151.365231 317.091083 
L 151.709382 316.864614 
L 152.053534 316.868389 
L 152.741837 317.384942 
L 153.43014 317.851977 
L 153.774291 317.780418 
L 154.118442 317.454042 
L 155.495048 315.525868 
L 155.839199 315.359219 
L 156.527502 315.451022 
L 157.215805 315.557474 
L 157.559956 315.394744 
L 158.248259 314.635689 
L 158.936562 313.955404 
L 159.280713 313.875482 
L 159.624865 313.993345 
L 160.657319 314.759469 
L 161.001471 314.781012 
L 161.345622 314.568992 
L 162.033925 313.668216 
L 162.722228 312.792593 
L 163.41053 312.378102 
L 164.442985 312.104811 
L 165.131287 311.509325 
L 165.81959 310.731982 
L 166.163742 310.480989 
L 166.507893 310.407253 
L 166.852044 310.52171 
L 168.22865 311.623877 
L 168.572801 311.664094 
L 169.261104 311.384507 
L 170.293559 310.89629 
L 171.326013 310.52072 
L 172.014316 309.844153 
L 173.735073 307.232781 
L 174.423375 306.749243 
L 175.45583 306.186208 
L 177.176587 304.766993 
L 179.241495 304.042244 
L 180.618101 303.144727 
L 181.306404 303.005899 
L 182.338858 302.913309 
L 183.027161 302.579734 
L 184.059615 301.968562 
L 185.780372 301.291755 
L 186.468675 300.652022 
L 188.189432 298.848272 
L 189.566037 297.93773 
L 190.942643 297.160349 
L 193.007551 296.142195 
L 194.384157 295.158636 
L 195.07246 294.428123 
L 197.48152 291.032828 
L 198.169823 289.961484 
L 199.202277 287.797287 
L 200.234731 285.76164 
L 200.923034 284.874602 
L 201.611337 284.104609 
L 202.299639 282.86943 
L 204.020397 278.851532 
L 204.708699 278.090088 
L 205.397002 277.436674 
L 206.085305 276.231169 
L 207.806062 272.372974 
L 209.526819 269.888756 
L 210.903425 266.643733 
L 211.591727 265.782937 
L 212.624182 265.06766 
L 212.968333 264.529783 
L 213.656636 262.815977 
L 214.68909 260.209159 
L 215.377393 259.1393 
L 216.065696 258.330354 
L 216.753999 256.998667 
L 218.474756 252.42815 
L 219.163058 251.651602 
L 219.851361 251.168526 
L 220.195513 250.707861 
L 220.883816 249.118588 
L 221.572118 247.382442 
L 222.260421 246.302286 
L 223.292875 245.531075 
L 223.637027 245.010238 
L 224.32533 243.024346 
L 225.357784 239.35576 
L 226.046087 237.807872 
L 227.422692 235.819842 
L 228.110995 233.793875 
L 228.799298 231.74398 
L 229.143449 231.027359 
L 229.487601 230.576083 
L 230.520055 229.992508 
L 230.864206 229.48697 
L 231.208358 228.596584 
L 232.929115 222.837621 
L 233.273266 222.398877 
L 234.30572 221.813685 
L 234.649872 221.175176 
L 235.338175 218.830603 
L 236.026477 216.270351 
L 236.370629 215.35644 
L 236.71478 214.795618 
L 237.058932 214.559439 
L 237.747235 214.451425 
L 238.091386 214.139108 
L 238.435537 213.441052 
L 239.12384 211.087656 
L 239.812143 208.589281 
L 240.156294 207.67663 
L 240.500446 207.093997 
L 240.844597 206.809071 
L 241.5329 206.537779 
L 241.877051 206.188887 
L 242.565354 204.802638 
L 243.253657 203.350437 
L 243.597808 202.951886 
L 243.94196 202.859363 
L 244.286111 203.038277 
L 244.974414 203.62578 
L 245.318565 203.66475 
L 245.662717 203.390851 
L 246.35102 202.108725 
L 247.383474 199.832811 
L 248.071777 198.809774 
L 248.76008 197.891904 
L 249.448382 196.482421 
L 250.480837 194.22216 
L 250.824988 193.761258 
L 251.169139 193.52679 
L 251.513291 193.501317 
L 252.201594 193.676967 
L 252.545745 193.643458 
L 253.234048 193.221766 
L 253.922351 192.807829 
L 254.610653 192.679604 
L 255.298956 192.612534 
L 255.643108 192.431597 
L 255.987259 192.064238 
L 257.708016 189.302214 
L 258.396319 188.81289 
L 259.084622 188.460232 
L 259.772925 187.696242 
L 260.805379 186.260271 
L 261.493682 185.831856 
L 262.526136 185.423832 
L 262.870287 185.087664 
L 263.55859 183.903309 
L 264.246893 182.609969 
L 264.591044 182.196228 
L 264.935196 181.989993 
L 265.279347 181.96872 
L 266.655953 182.35859 
L 267.344256 181.924026 
L 268.032558 181.572474 
L 268.720861 181.636068 
L 269.409164 181.776432 
L 269.753315 181.748605 
L 270.097467 181.591659 
L 270.78577 180.882096 
L 271.818224 179.657856 
L 272.850678 178.889178 
L 274.227284 178.333077 
L 274.915587 178.244584 
L 275.603889 178.597847 
L 277.324646 179.842432 
L 279.389555 180.784338 
L 280.077858 180.572549 
L 281.110312 180.078855 
L 281.454463 180.055593 
L 282.142766 180.351367 
L 282.831069 180.801607 
L 283.17522 180.898587 
L 283.519372 180.861926 
L 284.207675 180.4652 
L 284.895977 179.971578 
L 285.58428 179.812599 
L 286.272583 179.854448 
L 286.616734 179.743343 
L 287.305037 179.09421 
L 287.99334 178.312021 
L 288.337491 178.135663 
L 288.681643 178.227322 
L 289.025794 178.61471 
L 290.4024 181.080267 
L 290.746551 181.272785 
L 291.090703 181.226361 
L 292.123157 180.624019 
L 292.467308 180.622896 
L 293.499763 181.082758 
L 293.843914 180.963741 
L 294.188065 180.553209 
L 294.876368 179.024767 
L 295.564671 177.451515 
L 295.908822 177.06172 
L 296.252974 177.057165 
L 296.597125 177.393756 
L 297.62958 178.828183 
L 297.973731 178.964257 
L 298.317882 178.88047 
L 299.006185 178.482396 
L 299.350337 178.461004 
L 299.694488 178.691641 
L 301.071094 180.453781 
L 301.415245 180.356687 
L 301.759396 179.933219 
L 302.791851 177.978399 
L 303.136002 177.656672 
L 303.480153 177.667487 
L 303.824305 177.964527 
L 304.512608 178.828213 
L 304.856759 179.065422 
L 305.20091 179.042199 
L 305.545062 178.764443 
L 306.577516 177.489663 
L 306.921668 177.322449 
L 308.298273 177.291084 
L 308.642425 176.838365 
L 309.330727 175.103347 
L 310.01903 173.088533 
L 310.363182 172.376709 
L 310.707333 171.965603 
L 311.051484 171.816231 
L 312.083939 171.732295 
L 312.42809 171.458282 
L 313.804696 169.699431 
L 314.492998 169.492245 
L 315.181301 169.358446 
L 315.525453 169.038183 
L 315.869604 168.436886 
L 316.557907 166.388746 
L 317.590361 162.787304 
L 318.278664 161.13848 
L 319.65527 158.30647 
L 320.687724 155.934349 
L 321.031875 155.479516 
L 321.720178 155.098638 
L 322.408481 154.714319 
L 322.752632 154.292593 
L 323.440935 152.807727 
L 324.817541 148.897054 
L 326.882449 144.641656 
L 327.914903 141.821633 
L 328.259055 141.206311 
L 328.603206 140.838484 
L 329.291509 140.570667 
L 329.979812 140.332467 
L 330.323963 140.036057 
L 331.012266 138.907217 
L 332.733023 135.348811 
L 333.765477 133.097095 
L 336.174537 126.671712 
L 337.206991 125.311833 
L 337.895294 124.370772 
L 339.960203 120.50191 
L 340.648506 119.166425 
L 341.336808 117.381703 
L 343.401717 110.871502 
L 345.466625 106.146489 
L 347.531534 100.100122 
L 348.219836 98.16326 
L 348.908139 95.579019 
L 350.284745 89.584646 
L 350.973048 87.559219 
L 351.661351 86.463933 
L 352.693805 85.191148 
L 354.414562 82.405834 
L 355.447016 81.158315 
L 355.791167 80.466302 
L 356.47947 78.180333 
L 358.200227 70.739719 
L 358.88853 68.875061 
L 359.920984 66.458161 
L 361.29759 62.737341 
L 361.641741 62.276545 
L 361.985893 62.087971 
L 363.018347 62.088444 
L 363.362498 61.732515 
L 363.70665 61.009451 
L 364.394953 58.69819 
L 365.083255 56.244056 
L 365.771558 54.724248 
L 366.11571 54.398616 
L 367.148164 53.842786 
L 367.836467 52.745125 
L 368.52477 51.468272 
L 368.868921 51.061199 
L 369.213072 50.88462 
L 370.245527 50.978044 
L 370.589678 50.725846 
L 370.933829 50.124724 
L 371.622132 47.943308 
L 372.654586 44.144339 
L 373.342889 42.520162 
L 374.719495 40.232873 
L 375.751949 38.20178 
L 376.096101 37.89439 
L 376.440252 37.8863 
L 376.784403 38.139922 
L 377.816858 39.209079 
L 378.161009 39.214854 
L 378.50516 38.925602 
L 379.193463 37.650993 
L 380.225917 35.48718 
L 381.602523 33.060888 
L 383.32328 29.088991 
L 383.667432 28.932725 
L 384.011583 29.0891 
L 385.388189 30.63179 
L 385.73234 30.720327 
L 386.076491 30.609705 
L 386.764794 30.005798 
L 387.797248 29.096272 
L 388.485551 28.51264 
L 389.173854 27.599171 
L 390.206308 26.026841 
L 390.55046 25.826167 
L 390.894611 25.920971 
L 391.238762 26.2917 
L 392.615368 28.406635 
L 392.95952 28.646157 
L 393.647822 28.711565 
L 395.368579 28.376224 
L 395.712731 28.094642 
L 396.056882 27.613881 
L 396.745185 26.110367 
L 397.433488 24.534212 
L 397.777639 24.070744 
L 398.121791 23.953882 
L 398.465942 24.179317 
L 399.154245 25.256094 
L 399.842548 26.31831 
L 400.530851 26.900539 
L 401.563305 27.594519 
L 402.595759 28.609882 
L 402.93991 28.7412 
L 403.284062 28.650541 
L 403.628213 28.335391 
L 405.004819 26.588648 
L 405.34897 26.582225 
L 405.693122 26.821299 
L 406.037273 27.217161 
L 406.037273 27.217161 
" clip-path="url(#pd821b97f50)" style="fill: none; stroke: #2d6a4f; stroke-width: 2.5; stroke-linecap: square"/>
   </g>
   <g id="line2d_4">
    <path d="M 61.885865 383.15851 
L 63.262471 383.046257 
L 67.048136 382.612778 
L 69.113045 382.470693 
L 72.210407 381.895174 
L 75.996073 381.001633 
L 81.846647 379.404342 
L 85.632312 377.98421 
L 87.697221 377.158432 
L 89.417978 376.357602 
L 91.482886 375.427817 
L 96.301006 373.036613 
L 101.807428 369.277496 
L 102.839883 368.729316 
L 105.937245 366.57768 
L 108.690456 364.128819 
L 109.722911 363.442882 
L 112.476122 361.198931 
L 113.508576 360.306671 
L 115.573485 358.088278 
L 117.294242 356.777787 
L 119.014999 355.15516 
L 120.735756 353.97114 
L 121.76821 352.722788 
L 122.800664 351.475641 
L 125.553875 348.779274 
L 126.242178 348.121188 
L 128.307087 346.676965 
L 130.027844 344.734886 
L 132.092752 343.172919 
L 133.469358 341.492444 
L 134.157661 341.033382 
L 135.190115 340.561553 
L 135.878418 339.94349 
L 137.255023 338.295967 
L 137.943326 337.803636 
L 138.631629 337.376048 
L 139.319932 336.63218 
L 140.696537 334.56479 
L 141.38484 334.033188 
L 143.105597 333.390315 
L 144.482203 331.963252 
L 145.170506 331.717457 
L 145.858809 331.675435 
L 146.20296 331.546123 
L 146.547111 331.255428 
L 147.235414 330.197874 
L 148.267868 328.435848 
L 148.956171 327.767165 
L 149.988625 327.159827 
L 150.676928 326.400336 
L 151.365231 325.49985 
L 151.709382 325.193445 
L 152.053534 325.053737 
L 152.397685 325.083068 
L 153.774291 325.596143 
L 154.118442 325.396811 
L 154.806745 324.551917 
L 155.495048 323.674695 
L 156.183351 323.230887 
L 157.215805 323.06528 
L 157.559956 322.865264 
L 158.248259 322.05191 
L 158.936562 321.128329 
L 159.280713 320.830413 
L 159.624865 320.696065 
L 160.313168 320.800613 
L 160.657319 320.875629 
L 161.001471 320.830672 
L 161.345622 320.60227 
L 162.033925 319.676223 
L 162.722228 318.639178 
L 163.41053 317.983316 
L 164.787136 317.320459 
L 165.475439 316.542063 
L 166.163742 315.729067 
L 166.507893 315.493546 
L 166.852044 315.423911 
L 167.540347 315.67629 
L 168.22865 315.918885 
L 168.572801 315.837042 
L 169.261104 315.247828 
L 170.293559 314.139541 
L 171.670164 313.050063 
L 172.358467 312.033016 
L 173.735073 309.627514 
L 174.423375 309.099401 
L 175.45583 308.730935 
L 176.144132 308.164631 
L 177.176587 307.182946 
L 177.86489 306.813057 
L 178.897344 306.324477 
L 179.585647 305.589021 
L 180.962252 303.855688 
L 181.650555 303.442069 
L 182.683009 302.993699 
L 183.715463 302.084587 
L 184.747918 301.213773 
L 185.780372 300.489353 
L 186.468675 299.711518 
L 187.501129 298.005965 
L 188.533583 296.316572 
L 189.566037 295.106023 
L 191.630946 292.807153 
L 193.351703 290.813852 
L 194.040006 289.951632 
L 194.728309 288.798237 
L 197.137368 284.007318 
L 198.169823 282.163616 
L 199.202277 279.624819 
L 200.234731 277.244997 
L 201.955488 274.378842 
L 202.643791 272.331439 
L 203.676245 269.223803 
L 204.364548 268.020444 
L 206.085305 266.121784 
L 207.806062 262.958014 
L 209.182668 260.926732 
L 209.87097 259.109771 
L 210.903425 256.113513 
L 211.591727 254.806666 
L 212.968333 252.993529 
L 214.68909 249.25047 
L 215.377393 248.420824 
L 216.065696 247.781293 
L 216.409847 247.270362 
L 217.09815 245.637471 
L 218.130604 242.850319 
L 218.818907 241.48484 
L 220.195513 239.4517 
L 221.91627 235.58621 
L 222.604573 234.927684 
L 223.292875 234.497144 
L 223.637027 233.996506 
L 224.32533 232.096823 
L 225.357784 228.679943 
L 226.046087 227.148148 
L 227.422692 225.009569 
L 229.143449 220.888102 
L 229.487601 220.479199 
L 230.864206 219.502796 
L 231.552509 217.696595 
L 232.584963 214.45515 
L 233.273266 213.243971 
L 233.961569 212.647965 
L 234.30572 212.171857 
L 234.649872 211.37209 
L 236.370629 205.776477 
L 236.71478 205.222466 
L 237.058932 204.935836 
L 237.747235 204.650838 
L 238.091386 204.296762 
L 238.435537 203.654903 
L 239.467992 200.689536 
L 240.156294 199.018197 
L 240.844597 198.197358 
L 241.5329 197.666768 
L 242.221203 196.518953 
L 243.253657 194.308841 
L 243.597808 193.835402 
L 243.94196 193.588648 
L 244.630263 193.602149 
L 244.974414 193.604921 
L 245.318565 193.416558 
L 245.662717 192.979364 
L 246.35102 191.552638 
L 247.383474 189.310781 
L 250.480837 184.224806 
L 250.824988 183.963258 
L 251.169139 183.868208 
L 252.545745 184.036521 
L 253.234048 183.649807 
L 254.266502 182.920796 
L 255.298956 182.460002 
L 255.643108 182.15933 
L 256.331411 181.051814 
L 257.363865 179.156136 
L 257.708016 178.811824 
L 258.052168 178.645098 
L 259.772925 178.418056 
L 260.461227 178.041186 
L 261.14953 177.944239 
L 262.181984 178.132834 
L 262.526136 178.056898 
L 262.870287 177.791164 
L 263.55859 176.711946 
L 264.246893 175.539786 
L 264.591044 175.201167 
L 264.935196 175.09166 
L 265.279347 175.183489 
L 266.311801 175.818764 
L 267.000104 175.830796 
L 267.688407 175.761287 
L 268.37671 176.094033 
L 269.409164 176.865972 
L 269.753315 176.88319 
L 270.097467 176.686212 
L 270.78577 175.757194 
L 271.818224 174.159786 
L 272.506527 173.591076 
L 273.538981 173.240461 
L 274.227284 173.124535 
L 274.571435 173.218455 
L 274.915587 173.469842 
L 275.603889 174.36936 
L 276.292192 175.355676 
L 276.636344 175.693892 
L 276.980495 175.863935 
L 277.668798 175.779093 
L 278.701252 175.472541 
L 279.733706 175.318012 
L 280.077858 175.120049 
L 280.766161 174.31305 
L 281.454463 173.314525 
L 281.798615 172.974467 
L 282.142766 172.82257 
L 282.486918 172.865203 
L 283.17522 173.391672 
L 284.207675 174.438152 
L 286.272583 175.988934 
L 286.960886 176.167394 
L 287.305037 176.079596 
L 287.99334 175.553521 
L 288.681643 174.921477 
L 289.369946 174.576243 
L 290.746551 174.236307 
L 291.779006 173.772917 
L 292.123157 173.771208 
L 292.81146 174.079251 
L 293.499763 174.336171 
L 293.843914 174.276096 
L 294.188065 174.064732 
L 294.876368 173.286993 
L 295.564671 172.463937 
L 296.252974 171.998271 
L 296.941277 171.618124 
L 297.62958 170.88709 
L 299.006185 168.837331 
L 299.350337 168.604237 
L 300.038639 168.600246 
L 300.382791 168.629436 
L 300.726942 168.515831 
L 301.071094 168.183351 
L 301.759396 166.883472 
L 302.447699 165.313573 
L 303.136002 164.360656 
L 304.168456 163.696127 
L 304.512608 163.249141 
L 305.20091 161.808559 
L 306.233365 159.443391 
L 306.577516 159.061986 
L 306.921668 158.9579 
L 307.954122 159.225451 
L 308.298273 159.055015 
L 308.642425 158.624452 
L 309.330727 157.123394 
L 310.01903 155.581756 
L 310.707333 154.746948 
L 311.395636 154.115115 
L 312.083939 152.869015 
L 313.460544 149.282293 
L 313.804696 148.775916 
L 314.148847 148.536539 
L 314.83715 148.51351 
L 315.181301 148.504304 
L 315.525453 148.37546 
L 315.869604 148.075294 
L 316.557907 146.977397 
L 317.24621 145.814587 
L 317.590361 145.478631 
L 318.966967 144.849439 
L 319.311118 144.366696 
L 319.999421 142.766874 
L 320.687724 140.979365 
L 321.031875 140.353939 
L 321.376027 139.975264 
L 322.752632 139.244467 
L 323.096784 138.796029 
L 323.785087 137.353756 
L 324.473389 135.723706 
L 325.161692 134.649992 
L 326.194146 133.599109 
L 326.882449 132.419041 
L 328.259055 129.357263 
L 328.603206 129.059494 
L 328.947358 128.999315 
L 329.979812 129.287807 
L 330.323963 129.166885 
L 330.668115 128.803822 
L 331.356417 127.515535 
L 332.388872 125.620181 
L 333.421326 123.94372 
L 334.109629 122.19972 
L 335.142083 118.929267 
L 335.486234 118.161641 
L 335.830386 117.690364 
L 336.174537 117.491797 
L 336.518689 117.507906 
L 337.551143 118.004184 
L 337.895294 118.001278 
L 339.2719 117.368761 
L 339.960203 117.49471 
L 340.648506 117.628339 
L 340.992657 117.489867 
L 341.336808 117.114455 
L 342.025111 115.720853 
L 342.713414 114.198534 
L 343.401717 113.205985 
L 344.09002 112.687731 
L 345.122474 112.040242 
L 346.499079 110.803723 
L 347.187382 110.657735 
L 347.875685 110.622919 
L 348.219836 110.459882 
L 348.563988 110.06979 
L 349.252291 108.493451 
L 350.284745 105.756611 
L 350.628896 105.243034 
L 350.973048 105.003498 
L 351.317199 105.006706 
L 352.349653 105.52938 
L 352.693805 105.529377 
L 354.07041 105.015347 
L 354.758713 105.139262 
L 355.102865 105.229798 
L 355.447016 105.202765 
L 355.791167 104.915276 
L 356.135319 104.23891 
L 356.823622 101.649323 
L 358.200227 95.482925 
L 358.544379 94.565534 
L 358.88853 93.976488 
L 360.609287 92.32458 
L 360.953439 92.044147 
L 361.29759 91.967777 
L 361.641741 92.148181 
L 362.330044 93.179151 
L 363.018347 94.310087 
L 363.362498 94.460829 
L 363.70665 94.143122 
L 364.050801 93.359212 
L 365.771558 87.687307 
L 366.11571 87.110961 
L 367.492315 85.680217 
L 368.868921 83.228096 
L 369.213072 83.079837 
L 369.557224 83.233084 
L 370.589678 84.326519 
L 370.933829 84.236701 
L 371.277981 83.682123 
L 371.966284 81.427115 
L 372.998738 77.652131 
L 373.687041 76.262577 
L 374.719495 74.869872 
L 375.407798 73.279329 
L 376.096101 71.610926 
L 376.440252 71.068792 
L 376.784403 70.836268 
L 377.128555 70.903765 
L 377.816858 71.435918 
L 378.161009 71.495911 
L 378.50516 71.178151 
L 378.849312 70.423606 
L 379.537615 67.934628 
L 380.570069 64.150882 
L 381.258372 62.585253 
L 381.946674 61.173389 
L 382.979129 58.155736 
L 383.667432 56.566014 
L 384.011583 56.305464 
L 384.355734 56.453404 
L 385.044037 57.557127 
L 385.388189 58.124389 
L 385.73234 58.432219 
L 386.076491 58.359595 
L 386.420643 57.890362 
L 387.108946 56.167029 
L 388.1414 53.626367 
L 389.173854 51.655615 
L 389.862157 49.632365 
L 390.55046 47.315031 
L 390.894611 46.480881 
L 391.238762 46.072353 
L 391.582914 46.141622 
L 391.927065 46.635035 
L 392.95952 48.930401 
L 393.303671 49.355998 
L 393.647822 49.471434 
L 393.991974 49.336474 
L 395.368579 48.374674 
L 396.056882 47.919753 
L 396.401034 47.44885 
L 396.745185 46.709097 
L 397.433488 44.501001 
L 398.121791 42.280036 
L 398.465942 41.612344 
L 398.810093 41.367503 
L 399.154245 41.519701 
L 400.530851 43.151641 
L 400.875002 43.173945 
L 401.907456 42.945927 
L 402.251608 43.117762 
L 403.284062 44.078122 
L 403.628213 44.135578 
L 403.972365 43.88207 
L 404.316516 43.304643 
L 405.693122 40.14056 
L 406.037273 39.84671 
L 406.037273 39.84671 
" clip-path="url(#pd821b97f50)" style="fill: none; stroke: #1b4332; stroke-width: 2.5; stroke-linecap: square"/>
   </g>
   <g id="line2d_5">
    <path d="M 61.885865 383.15851 
L 62.230016 383.020653 
L 63.606622 381.685248 
L 63.950773 381.672175 
L 64.983228 382.060552 
L 65.67153 381.838513 
L 66.359833 381.235275 
L 67.048136 380.637913 
L 67.392288 380.527787 
L 68.08059 380.663291 
L 68.768893 380.810591 
L 69.457196 380.71401 
L 70.833802 380.215485 
L 72.554559 380.112164 
L 73.242861 379.624451 
L 74.275316 378.865999 
L 74.963619 378.554698 
L 75.996073 378.235453 
L 76.684376 377.659459 
L 78.060981 376.144644 
L 78.749284 375.667313 
L 79.781738 375.209935 
L 82.534949 373.347509 
L 83.223252 373.142198 
L 83.911555 372.688661 
L 84.944009 371.691946 
L 85.976464 370.730565 
L 87.008918 370.109391 
L 87.697221 369.44916 
L 89.762129 366.968644 
L 91.482886 365.875091 
L 93.547795 363.701132 
L 94.9244 362.908575 
L 95.612703 361.941622 
L 96.645157 360.304681 
L 97.33346 359.857937 
L 98.365914 359.687672 
L 98.710066 359.462838 
L 99.398368 358.518978 
L 100.086671 357.497019 
L 100.774974 357.016878 
L 101.463277 356.972871 
L 102.15158 356.923429 
L 102.495731 356.641029 
L 103.184034 355.554655 
L 103.872337 354.520279 
L 104.216488 354.255932 
L 104.56064 354.171229 
L 104.904791 354.253978 
L 105.593094 354.631256 
L 105.937245 354.640978 
L 106.281397 354.419656 
L 107.313851 353.199179 
L 107.658002 353.001201 
L 108.002154 352.978379 
L 108.346305 353.123595 
L 109.378759 353.896229 
L 109.722911 353.809618 
L 110.067062 353.452155 
L 111.099516 351.868138 
L 111.443668 351.545985 
L 111.787819 351.414303 
L 112.131971 351.503053 
L 113.164425 352.200251 
L 113.508576 352.124557 
L 114.885182 350.979374 
L 115.229333 350.93145 
L 115.573485 351.085965 
L 116.95009 352.535735 
L 117.294242 352.492915 
L 118.670847 351.489801 
L 119.014999 351.481861 
L 119.35915 351.671907 
L 120.391604 352.669818 
L 120.735756 352.784336 
L 121.079907 352.712579 
L 122.112361 352.131055 
L 122.456513 352.083826 
L 122.800664 352.226434 
L 123.488967 353.01953 
L 124.17727 353.803525 
L 124.521421 353.967029 
L 125.209724 353.810654 
L 125.898027 353.585569 
L 126.242178 353.59754 
L 126.930481 353.973652 
L 127.618784 354.395809 
L 127.962935 354.481177 
L 128.651238 354.307633 
L 129.339541 354.049062 
L 129.683692 354.011732 
L 130.027844 354.098135 
L 131.404449 354.930371 
L 131.748601 354.96359 
L 133.469358 354.529468 
L 135.190115 354.734404 
L 135.878418 354.221568 
L 136.566721 353.700958 
L 137.255023 353.491134 
L 138.631629 353.540017 
L 138.97578 353.333384 
L 140.352386 352.118218 
L 141.040689 351.960958 
L 142.073143 351.861814 
L 142.417294 351.673401 
L 143.105597 350.828908 
L 143.7939 349.927438 
L 144.482203 349.37382 
L 145.170506 349.157296 
L 145.858809 348.969338 
L 146.20296 348.695514 
L 147.923717 346.65018 
L 148.61202 346.476475 
L 149.300323 346.401958 
L 149.644474 346.19403 
L 150.332777 345.294709 
L 151.02108 344.418221 
L 151.709382 344.027127 
L 152.397685 344.026778 
L 153.085988 344.085152 
L 153.43014 343.93197 
L 154.118442 343.156173 
L 154.806745 342.390638 
L 155.495048 342.006735 
L 156.183351 341.980565 
L 156.871654 341.919753 
L 157.215805 341.644007 
L 158.592411 339.938173 
L 159.280713 339.51298 
L 160.657319 338.95251 
L 162.378076 337.133682 
L 163.066379 336.92283 
L 163.754682 336.864276 
L 164.098833 336.719627 
L 164.442985 336.396841 
L 166.163742 334.041827 
L 166.852044 333.672512 
L 167.540347 333.46074 
L 167.884499 333.204879 
L 168.572801 332.246469 
L 169.605256 330.764576 
L 170.293559 330.231803 
L 170.981861 329.829647 
L 171.670164 329.052314 
L 173.735073 325.649628 
L 174.767527 324.850432 
L 175.111678 324.37053 
L 175.799981 322.851347 
L 176.488284 321.136456 
L 177.176587 320.057308 
L 177.86489 319.652057 
L 178.553192 319.208747 
L 179.241495 318.136621 
L 180.618101 315.355589 
L 181.306404 314.741478 
L 181.994706 314.328352 
L 182.338858 314.002702 
L 183.027161 312.797732 
L 184.059615 310.479477 
L 184.747918 309.655391 
L 185.780372 308.783281 
L 186.124523 308.254666 
L 186.812826 306.603658 
L 187.501129 304.797552 
L 188.189432 303.694007 
L 188.877735 303.244276 
L 189.566037 302.913958 
L 189.910189 302.551978 
L 190.598492 301.246155 
L 191.286794 299.762887 
L 191.975097 298.796365 
L 192.6634 298.377667 
L 193.351703 297.997199 
L 193.695854 297.571082 
L 194.384157 296.19571 
L 195.416611 294.137172 
L 196.104914 293.396894 
L 196.793217 292.93222 
L 197.137368 292.546746 
L 197.825671 291.253533 
L 198.858125 289.178386 
L 199.202277 288.796751 
L 199.546428 288.651018 
L 200.234731 288.868417 
L 200.578882 288.97111 
L 200.923034 288.897545 
L 201.267185 288.598363 
L 201.955488 287.416311 
L 203.332094 284.576407 
L 206.429456 280.807457 
L 207.117759 280.640055 
L 207.806062 280.495913 
L 208.150213 280.221607 
L 208.838516 279.189444 
L 210.215122 276.612374 
L 211.935879 274.16754 
L 213.656636 270.533336 
L 214.344939 269.838802 
L 215.721544 269.002692 
L 218.130604 266.772791 
L 218.818907 265.658043 
L 220.883816 261.155773 
L 221.227967 260.862728 
L 221.91627 260.711973 
L 222.604573 260.630859 
L 223.292875 260.143686 
L 224.669481 258.67811 
L 226.390238 257.669564 
L 228.110995 255.509339 
L 228.455146 255.406885 
L 228.799298 255.45899 
L 229.487601 255.866492 
L 230.175904 256.32406 
L 230.520055 256.417133 
L 231.208358 256.284524 
L 231.896661 256.178466 
L 232.584963 256.417011 
L 233.273266 256.754424 
L 233.617418 256.817642 
L 233.961569 256.73523 
L 234.649872 256.10028 
L 235.338175 255.262245 
L 236.026477 254.810794 
L 236.370629 254.788613 
L 237.058932 255.104077 
L 237.747235 255.571322 
L 238.091386 255.6774 
L 238.779689 255.548775 
L 240.156294 255.019466 
L 240.844597 255.10562 
L 242.909506 256.111735 
L 243.597808 256.698906 
L 245.318565 258.612855 
L 246.006868 258.762688 
L 246.695171 258.625984 
L 247.383474 258.173852 
L 249.104231 256.538253 
L 249.792534 256.330705 
L 250.480837 256.598904 
L 251.169139 257.252001 
L 252.201594 258.865045 
L 253.234048 260.290126 
L 254.610653 261.875775 
L 255.298956 262.235128 
L 255.643108 262.191125 
L 256.331411 261.73243 
L 257.019713 261.289562 
L 257.363865 261.245345 
L 258.052168 261.52812 
L 259.428773 262.43056 
L 259.772925 262.429536 
L 260.461227 262.120492 
L 261.14953 261.797319 
L 261.837833 261.830549 
L 262.870287 262.197934 
L 263.214439 262.131287 
L 263.902742 261.657906 
L 264.591044 261.12701 
L 264.935196 260.985691 
L 265.279347 260.971141 
L 265.96765 261.239994 
L 266.655953 261.465755 
L 267.000104 261.385104 
L 267.344256 261.12417 
L 268.032558 260.101714 
L 271.474072 253.277463 
L 272.506527 250.850028 
L 273.19483 249.630285 
L 274.571435 247.598835 
L 275.259738 245.665857 
L 276.980495 239.664246 
L 278.012949 237.327373 
L 279.045403 234.877308 
L 282.142766 225.91152 
L 282.831069 222.754825 
L 284.551826 213.830854 
L 285.58428 210.312633 
L 286.616734 206.920556 
L 287.649189 203.233681 
L 288.337491 201.389841 
L 289.714097 198.517684 
L 290.4024 196.144989 
L 291.434854 192.027939 
L 292.123157 190.05012 
L 293.843914 186.399163 
L 295.908822 179.586027 
L 296.941277 177.059181 
L 297.62958 174.622577 
L 298.662034 170.452582 
L 299.350337 168.606416 
L 299.694488 168.12228 
L 300.038639 167.897102 
L 300.726942 167.686512 
L 301.071094 167.397157 
L 301.759396 166.366346 
L 302.447699 165.295099 
L 303.136002 164.597915 
L 304.168456 163.928537 
L 304.512608 163.388107 
L 305.20091 161.490909 
L 306.577516 156.698156 
L 307.265819 155.2804 
L 308.986576 153.154928 
L 310.01903 151.712348 
L 310.363182 151.41547 
L 311.051484 151.26217 
L 311.739787 151.179606 
L 312.42809 150.641432 
L 313.116393 149.648949 
L 313.804696 148.562614 
L 314.492998 147.987475 
L 315.869604 147.571196 
L 316.557907 146.949976 
L 317.934513 145.192766 
L 319.65527 143.898331 
L 320.343572 142.560878 
L 321.376027 140.210775 
L 322.064329 139.385766 
L 322.408481 139.2259 
L 323.096784 139.288051 
L 323.785087 139.403751 
L 324.817541 139.371529 
L 325.505844 139.617451 
L 326.882449 140.409225 
L 327.226601 140.279493 
L 327.914903 139.385718 
L 328.947358 137.82537 
L 329.63566 137.253184 
L 331.012266 136.686864 
L 332.388872 135.718139 
L 333.077175 135.471473 
L 333.765477 135.380288 
L 334.109629 135.233381 
L 334.797932 134.54181 
L 335.486234 133.718037 
L 335.830386 133.444455 
L 336.174537 133.323209 
L 336.518689 133.381693 
L 337.206991 133.965401 
L 337.895294 134.649433 
L 338.927748 135.276666 
L 340.304354 135.83028 
L 340.992657 135.905095 
L 341.336808 135.684902 
L 341.68096 135.234778 
L 342.369263 133.835232 
L 343.745868 130.832508 
L 344.434171 130.038678 
L 345.122474 129.617893 
L 345.810777 129.46394 
L 346.499079 129.621098 
L 347.187382 130.022043 
L 348.219836 130.919669 
L 348.563988 131.049541 
L 348.908139 131.026114 
L 349.596442 130.609776 
L 350.973048 129.361149 
L 351.661351 129.253 
L 352.693805 129.146229 
L 353.382108 128.812525 
L 354.414562 128.102401 
L 355.791167 127.639371 
L 356.135319 127.276023 
L 356.823622 125.990466 
L 358.200227 122.487502 
L 358.544379 121.954202 
L 358.88853 121.637147 
L 359.232682 121.503117 
L 359.920984 121.615754 
L 361.29759 122.184151 
L 361.985893 122.869033 
L 363.018347 124.204455 
L 363.362498 124.38009 
L 363.70665 124.246114 
L 364.050801 123.738185 
L 364.739104 121.758686 
L 366.459861 115.68779 
L 367.148164 114.0575 
L 368.180618 112.224728 
L 368.52477 111.824222 
L 368.868921 111.60569 
L 369.213072 111.583662 
L 369.557224 111.746674 
L 370.245527 112.510583 
L 370.933829 113.390246 
L 371.277981 113.590193 
L 371.622132 113.560385 
L 371.966284 113.330718 
L 372.654586 112.444639 
L 375.407798 107.986194 
L 376.096101 107.230307 
L 376.784403 106.837512 
L 377.472706 106.769331 
L 378.50516 106.923573 
L 378.849312 106.817647 
L 379.193463 106.566564 
L 379.537615 106.130911 
L 380.225917 104.668285 
L 381.602523 101.059078 
L 382.290826 99.876236 
L 382.979129 99.266772 
L 383.667432 99.125342 
L 384.355734 99.309685 
L 385.044037 99.868226 
L 386.420643 101.515117 
L 386.764794 101.643187 
L 387.108946 101.457601 
L 387.453097 100.912125 
L 388.1414 98.873795 
L 389.518005 94.004057 
L 390.206308 92.347608 
L 391.238762 90.440476 
L 391.927065 89.577816 
L 392.271217 89.386904 
L 392.615368 89.395229 
L 392.95952 89.600575 
L 394.336125 90.912327 
L 394.680277 90.887369 
L 395.024428 90.601264 
L 395.368579 90.050899 
L 396.056882 88.339743 
L 397.433488 84.682292 
L 399.154245 80.856375 
L 399.842548 79.874012 
L 400.530851 79.44574 
L 401.219153 79.108625 
L 401.907456 78.447858 
L 402.595759 77.464866 
L 403.628213 75.55878 
L 405.004819 72.547473 
L 406.037273 70.249613 
L 406.037273 70.249613 
" clip-path="url(#pd821b97f50)" style="fill: none; stroke: #ced4da; stroke-width: 2.5; stroke-linecap: square"/>
   </g>
   <g id="line2d_6">
    <path d="M 61.885865 383.15851 
L 117.294242 383.030011 
L 141.728992 382.955956 
L 185.092069 382.685831 
L 196.104914 382.433401 
L 212.28003 381.873438 
L 222.948724 381.413994 
L 228.110995 381.311612 
L 231.552509 381.25663 
L 240.844597 381.306687 
L 243.253657 381.315597 
L 246.35102 381.292598 
L 257.708016 380.888356 
L 269.409164 379.710192 
L 270.78577 379.542817 
L 273.19483 379.310648 
L 275.948041 378.925097 
L 277.668798 378.608797 
L 279.733706 378.364358 
L 281.110312 378.158698 
L 282.831069 378.019523 
L 285.240129 377.470633 
L 286.616734 377.337099 
L 287.99334 377.096365 
L 290.4024 377.067728 
L 292.123157 376.555793 
L 294.532217 376.557361 
L 295.564671 376.429904 
L 296.597125 376.577372 
L 297.62958 376.661511 
L 299.694488 376.422102 
L 301.415245 376.704935 
L 303.136002 376.499208 
L 304.168456 376.734155 
L 304.856759 376.886589 
L 305.889213 376.812677 
L 306.921668 376.74418 
L 309.330727 377.106618 
L 310.363182 377.078279 
L 311.395636 377.299473 
L 312.42809 377.50061 
L 313.460544 377.355497 
L 314.492998 377.276376 
L 316.902058 377.575282 
L 318.278664 377.597295 
L 319.999421 377.830622 
L 325.505844 377.554401 
L 328.259055 377.571621 
L 329.63566 377.505281 
L 334.797932 377.610368 
L 337.551143 377.457032 
L 343.745868 377.573783 
L 350.284745 377.30137 
L 351.661351 377.277773 
L 353.382108 377.259183 
L 354.758713 377.286008 
L 356.47947 377.33496 
L 358.88853 377.008914 
L 363.362498 377.352038 
L 364.394953 377.369643 
L 365.771558 377.344627 
L 368.52477 377.629102 
L 369.901375 377.772952 
L 371.277981 377.97217 
L 373.687041 378.010419 
L 375.407798 378.178891 
L 377.128555 378.295964 
L 378.849312 378.490677 
L 380.91422 378.463799 
L 383.32328 378.635496 
L 385.388189 378.739127 
L 386.764794 378.699279 
L 389.173854 378.472919 
L 390.894611 378.336877 
L 394.680277 377.763789 
L 396.745185 377.360617 
L 403.972365 376.248334 
L 405.34897 376.171234 
L 406.037273 376.087459 
L 406.037273 376.087459 
" clip-path="url(#pd821b97f50)" style="fill: none; stroke: #6c757d; stroke-width: 2.5; stroke-linecap: square"/>
   </g>
   <g id="matplotlib.axis_1">
    <g id="xtick_1">
     <g id="line2d_7">
      <defs>
       <path id="m73b6f1dea7" d="M 0 0 
L 0 3.5 
" style="stroke: #000000; stroke-width: 0.8"/>
      </defs>
      <g>
       <use xlink:href="#m73b6f1dea7" x="61.885865" y="383.15851" style="stroke: #000000; stroke-width: 0.8"/>
      </g>
     </g>
     <g id="text_1">
      <!-- 0 -->
      <g transform="translate(56.159615 403.835697)scale(0.18 -0.18)">
       <defs>
        <path id="DejaVuSans-30" d="M 2034 4250 
Q 1547 4250 1301 3770 
Q 1056 3291 1056 2328 
Q 1056 1369 1301 889 
Q 1547 409 2034 409 
Q 2525 409 2770 889 
Q 3016 1369 3016 2328 
Q 3016 3291 2770 3770 
Q 2525 4250 2034 4250 
z
M 2034 4750 
Q 2819 4750 3233 4129 
Q 3647 3509 3647 2328 
Q 3647 1150 3233 529 
Q 2819 -91 2034 -91 
Q 1250 -91 836 529 
Q 422 1150 422 2328 
Q 422 3509 836 4129 
Q 1250 4750 2034 4750 
z
" transform="scale(0.015625)"/>
       </defs>
       <use xlink:href="#DejaVuSans-30"/>
      </g>
     </g>
    </g>
    <g id="xtick_2">
     <g id="line2d_8">
      <g>
       <use xlink:href="#m73b6f1dea7" x="130.716147" y="383.15851" style="stroke: #000000; stroke-width: 0.8"/>
      </g>
     </g>
     <g id="text_2">
      <!-- 200 -->
      <g transform="translate(113.537397 403.835697)scale(0.18 -0.18)">
       <defs>
        <path id="DejaVuSans-32" d="M 1228 531 
L 3431 531 
L 3431 0 
L 469 0 
L 469 531 
Q 828 903 1448 1529 
Q 2069 2156 2228 2338 
Q 2531 2678 2651 2914 
Q 2772 3150 2772 3378 
Q 2772 3750 2511 3984 
Q 2250 4219 1831 4219 
Q 1534 4219 1204 4116 
Q 875 4013 500 3803 
L 500 4441 
Q 881 4594 1212 4672 
Q 1544 4750 1819 4750 
Q 2544 4750 2975 4387 
Q 3406 4025 3406 3419 
Q 3406 3131 3298 2873 
Q 3191 2616 2906 2266 
Q 2828 2175 2409 1742 
Q 1991 1309 1228 531 
z
" transform="scale(0.015625)"/>
       </defs>
       <use xlink:href="#DejaVuSans-32"/>
       <use xlink:href="#DejaVuSans-30" x="63.623047"/>
       <use xlink:href="#DejaVuSans-30" x="127.246094"/>
      </g>
     </g>
    </g>
    <g id="xtick_3">
     <g id="line2d_9">
      <g>
       <use xlink:href="#m73b6f1dea7" x="199.546428" y="383.15851" style="stroke: #000000; stroke-width: 0.8"/>
      </g>
     </g>
     <g id="text_3">
      <!-- 400 -->
      <g transform="translate(182.367678 403.835697)scale(0.18 -0.18)">
       <defs>
        <path id="DejaVuSans-34" d="M 2419 4116 
L 825 1625 
L 2419 1625 
L 2419 4116 
z
M 2253 4666 
L 3047 4666 
L 3047 1625 
L 3713 1625 
L 3713 1100 
L 3047 1100 
L 3047 0 
L 2419 0 
L 2419 1100 
L 313 1100 
L 313 1709 
L 2253 4666 
z
" transform="scale(0.015625)"/>
       </defs>
       <use xlink:href="#DejaVuSans-34"/>
       <use xlink:href="#DejaVuSans-30" x="63.623047"/>
       <use xlink:href="#DejaVuSans-30" x="127.246094"/>
      </g>
     </g>
    </g>
    <g id="xtick_4">
     <g id="line2d_10">
      <g>
       <use xlink:href="#m73b6f1dea7" x="268.37671" y="383.15851" style="stroke: #000000; stroke-width: 0.8"/>
      </g>
     </g>
     <g id="text_4">
      <!-- 600 -->
      <g transform="translate(251.19796 403.835697)scale(0.18 -0.18)">
       <defs>
        <path id="DejaVuSans-36" d="M 2113 2584 
Q 1688 2584 1439 2293 
Q 1191 2003 1191 1497 
Q 1191 994 1439 701 
Q 1688 409 2113 409 
Q 2538 409 2786 701 
Q 3034 994 3034 1497 
Q 3034 2003 2786 2293 
Q 2538 2584 2113 2584 
z
M 3366 4563 
L 3366 3988 
Q 3128 4100 2886 4159 
Q 2644 4219 2406 4219 
Q 1781 4219 1451 3797 
Q 1122 3375 1075 2522 
Q 1259 2794 1537 2939 
Q 1816 3084 2150 3084 
Q 2853 3084 3261 2657 
Q 3669 2231 3669 1497 
Q 3669 778 3244 343 
Q 2819 -91 2113 -91 
Q 1303 -91 875 529 
Q 447 1150 447 2328 
Q 447 3434 972 4092 
Q 1497 4750 2381 4750 
Q 2619 4750 2861 4703 
Q 3103 4656 3366 4563 
z
" transform="scale(0.015625)"/>
       </defs>
       <use xlink:href="#DejaVuSans-36"/>
       <use xlink:href="#DejaVuSans-30" x="63.623047"/>
       <use xlink:href="#DejaVuSans-30" x="127.246094"/>
      </g>
     </g>
    </g>
    <g id="xtick_5">
     <g id="line2d_11">
      <g>
       <use xlink:href="#m73b6f1dea7" x="337.206991" y="383.15851" style="stroke: #000000; stroke-width: 0.8"/>
      </g>
     </g>
     <g id="text_5">
      <!-- 800 -->
      <g transform="translate(320.028241 403.835697)scale(0.18 -0.18)">
       <defs>
        <path id="DejaVuSans-38" d="M 2034 2216 
Q 1584 2216 1326 1975 
Q 1069 1734 1069 1313 
Q 1069 891 1326 650 
Q 1584 409 2034 409 
Q 2484 409 2743 651 
Q 3003 894 3003 1313 
Q 3003 1734 2745 1975 
Q 2488 2216 2034 2216 
z
M 1403 2484 
Q 997 2584 770 2862 
Q 544 3141 544 3541 
Q 544 4100 942 4425 
Q 1341 4750 2034 4750 
Q 2731 4750 3128 4425 
Q 3525 4100 3525 3541 
Q 3525 3141 3298 2862 
Q 3072 2584 2669 2484 
Q 3125 2378 3379 2068 
Q 3634 1759 3634 1313 
Q 3634 634 3220 271 
Q 2806 -91 2034 -91 
Q 1263 -91 848 271 
Q 434 634 434 1313 
Q 434 1759 690 2068 
Q 947 2378 1403 2484 
z
M 1172 3481 
Q 1172 3119 1398 2916 
Q 1625 2713 2034 2713 
Q 2441 2713 2670 2916 
Q 2900 3119 2900 3481 
Q 2900 3844 2670 4047 
Q 2441 4250 2034 4250 
Q 1625 4250 1398 4047 
Q 1172 3844 1172 3481 
z
" transform="scale(0.015625)"/>
       </defs>
       <use xlink:href="#DejaVuSans-38"/>
       <use xlink:href="#DejaVuSans-30" x="63.623047"/>
       <use xlink:href="#DejaVuSans-30" x="127.246094"/>
      </g>
     </g>
    </g>
    <g id="xtick_6">
     <g id="line2d_12">
      <g>
       <use xlink:href="#m73b6f1dea7" x="406.037273" y="383.15851" style="stroke: #000000; stroke-width: 0.8"/>
      </g>
     </g>
     <g id="text_6">
      <!-- 1000 -->
      <g transform="translate(383.132273 403.835697)scale(0.18 -0.18)">
       <defs>
        <path id="DejaVuSans-31" d="M 794 531 
L 1825 531 
L 1825 4091 
L 703 3866 
L 703 4441 
L 1819 4666 
L 2450 4666 
L 2450 531 
L 3481 531 
L 3481 0 
L 794 0 
L 794 531 
z
" transform="scale(0.015625)"/>
       </defs>
       <use xlink:href="#DejaVuSans-31"/>
       <use xlink:href="#DejaVuSans-30" x="63.623047"/>
       <use xlink:href="#DejaVuSans-30" x="127.246094"/>
       <use xlink:href="#DejaVuSans-30" x="190.869141"/>
      </g>
     </g>
    </g>
    <g id="text_7">
     <!-- Time (fs) -->
     <g transform="translate(202.805042 425.256323)scale(0.18 -0.18)">
      <defs>
       <path id="DejaVuSans-54" d="M -19 4666 
L 3928 4666 
L 3928 4134 
L 2272 4134 
L 2272 0 
L 1638 0 
L 1638 4134 
L -19 4134 
L -19 4666 
z
" transform="scale(0.015625)"/>
       <path id="DejaVuSans-69" d="M 603 3500 
L 1178 3500 
L 1178 0 
L 603 0 
L 603 3500 
z
M 603 4863 
L 1178 4863 
L 1178 4134 
L 603 4134 
L 603 4863 
z
" transform="scale(0.015625)"/>
       <path id="DejaVuSans-6d" d="M 3328 2828 
Q 3544 3216 3844 3400 
Q 4144 3584 4550 3584 
Q 5097 3584 5394 3201 
Q 5691 2819 5691 2113 
L 5691 0 
L 5113 0 
L 5113 2094 
Q 5113 2597 4934 2840 
Q 4756 3084 4391 3084 
Q 3944 3084 3684 2787 
Q 3425 2491 3425 1978 
L 3425 0 
L 2847 0 
L 2847 2094 
Q 2847 2600 2669 2842 
Q 2491 3084 2119 3084 
Q 1678 3084 1418 2786 
Q 1159 2488 1159 1978 
L 1159 0 
L 581 0 
L 581 3500 
L 1159 3500 
L 1159 2956 
Q 1356 3278 1631 3431 
Q 1906 3584 2284 3584 
Q 2666 3584 2933 3390 
Q 3200 3197 3328 2828 
z
" transform="scale(0.015625)"/>
       <path id="DejaVuSans-65" d="M 3597 1894 
L 3597 1613 
L 953 1613 
Q 991 1019 1311 708 
Q 1631 397 2203 397 
Q 2534 397 2845 478 
Q 3156 559 3463 722 
L 3463 178 
Q 3153 47 2828 -22 
Q 2503 -91 2169 -91 
Q 1331 -91 842 396 
Q 353 884 353 1716 
Q 353 2575 817 3079 
Q 1281 3584 2069 3584 
Q 2775 3584 3186 3129 
Q 3597 2675 3597 1894 
z
M 3022 2063 
Q 3016 2534 2758 2815 
Q 2500 3097 2075 3097 
Q 1594 3097 1305 2825 
Q 1016 2553 972 2059 
L 3022 2063 
z
" transform="scale(0.015625)"/>
       <path id="DejaVuSans-20" transform="scale(0.015625)"/>
       <path id="DejaVuSans-28" d="M 1984 4856 
Q 1566 4138 1362 3434 
Q 1159 2731 1159 2009 
Q 1159 1288 1364 580 
Q 1569 -128 1984 -844 
L 1484 -844 
Q 1016 -109 783 600 
Q 550 1309 550 2009 
Q 550 2706 781 3412 
Q 1013 4119 1484 4856 
L 1984 4856 
z
" transform="scale(0.015625)"/>
       <path id="DejaVuSans-66" d="M 2375 4863 
L 2375 4384 
L 1825 4384 
Q 1516 4384 1395 4259 
Q 1275 4134 1275 3809 
L 1275 3500 
L 2222 3500 
L 2222 3053 
L 1275 3053 
L 1275 0 
L 697 0 
L 697 3053 
L 147 3053 
L 147 3500 
L 697 3500 
L 697 3744 
Q 697 4328 969 4595 
Q 1241 4863 1831 4863 
L 2375 4863 
z
" transform="scale(0.015625)"/>
       <path id="DejaVuSans-73" d="M 2834 3397 
L 2834 2853 
Q 2591 2978 2328 3040 
Q 2066 3103 1784 3103 
Q 1356 3103 1142 2972 
Q 928 2841 928 2578 
Q 928 2378 1081 2264 
Q 1234 2150 1697 2047 
L 1894 2003 
Q 2506 1872 2764 1633 
Q 3022 1394 3022 966 
Q 3022 478 2636 193 
Q 2250 -91 1575 -91 
Q 1294 -91 989 -36 
Q 684 19 347 128 
L 347 722 
Q 666 556 975 473 
Q 1284 391 1588 391 
Q 1994 391 2212 530 
Q 2431 669 2431 922 
Q 2431 1156 2273 1281 
Q 2116 1406 1581 1522 
L 1381 1569 
Q 847 1681 609 1914 
Q 372 2147 372 2553 
Q 372 3047 722 3315 
Q 1072 3584 1716 3584 
Q 2034 3584 2315 3537 
Q 2597 3491 2834 3397 
z
" transform="scale(0.015625)"/>
       <path id="DejaVuSans-29" d="M 513 4856 
L 1013 4856 
Q 1481 4119 1714 3412 
Q 1947 2706 1947 2009 
Q 1947 1309 1714 600 
Q 1481 -109 1013 -844 
L 513 -844 
Q 928 -128 1133 580 
Q 1338 1288 1338 2009 
Q 1338 2731 1133 3434 
Q 928 4138 513 4856 
z
" transform="scale(0.015625)"/>
      </defs>
      <use xlink:href="#DejaVuSans-54"/>
      <use xlink:href="#DejaVuSans-69" x="57.958984"/>
      <use xlink:href="#DejaVuSans-6d" x="85.742188"/>
      <use xlink:href="#DejaVuSans-65" x="183.154297"/>
      <use xlink:href="#DejaVuSans-20" x="244.677734"/>
      <use xlink:href="#DejaVuSans-28" x="276.464844"/>
      <use xlink:href="#DejaVuSans-66" x="315.478516"/>
      <use xlink:href="#DejaVuSans-73" x="350.683594"/>
      <use xlink:href="#DejaVuSans-29" x="402.783203"/>
     </g>
    </g>
   </g>
   <g id="matplotlib.axis_2">
    <g id="ytick_1">
     <g id="line2d_13">
      <defs>
       <path id="m71b67ecb09" d="M 0 0 
L -3.5 0 
" style="stroke: #000000; stroke-width: 0.8"/>
      </defs>
      <g>
       <use xlink:href="#m71b67ecb09" x="61.885865" y="383.15851" style="stroke: #000000; stroke-width: 0.8"/>
      </g>
     </g>
     <g id="text_8">
      <!-- 0.0 -->
      <g transform="translate(26.26024 389.997104)scale(0.18 -0.18)">
       <defs>
        <path id="DejaVuSans-2e" d="M 684 794 
L 1344 794 
L 1344 0 
L 684 0 
L 684 794 
z
" transform="scale(0.015625)"/>
       </defs>
       <use xlink:href="#DejaVuSans-30"/>
       <use xlink:href="#DejaVuSans-2e" x="63.623047"/>
       <use xlink:href="#DejaVuSans-30" x="95.410156"/>
      </g>
     </g>
    </g>
    <g id="ytick_2">
     <g id="line2d_14">
      <g>
       <use xlink:href="#m71b67ecb09" x="61.885865" y="316.785928" style="stroke: #000000; stroke-width: 0.8"/>
      </g>
     </g>
     <g id="text_9">
      <!-- 0.5 -->
      <g transform="translate(26.26024 323.624522)scale(0.18 -0.18)">
       <defs>
        <path id="DejaVuSans-35" d="M 691 4666 
L 3169 4666 
L 3169 4134 
L 1269 4134 
L 1269 2991 
Q 1406 3038 1543 3061 
Q 1681 3084 1819 3084 
Q 2600 3084 3056 2656 
Q 3513 2228 3513 1497 
Q 3513 744 3044 326 
Q 2575 -91 1722 -91 
Q 1428 -91 1123 -41 
Q 819 9 494 109 
L 494 744 
Q 775 591 1075 516 
Q 1375 441 1709 441 
Q 2250 441 2565 725 
Q 2881 1009 2881 1497 
Q 2881 1984 2565 2268 
Q 2250 2553 1709 2553 
Q 1456 2553 1204 2497 
Q 953 2441 691 2322 
L 691 4666 
z
" transform="scale(0.015625)"/>
       </defs>
       <use xlink:href="#DejaVuSans-30"/>
       <use xlink:href="#DejaVuSans-2e" x="63.623047"/>
       <use xlink:href="#DejaVuSans-35" x="95.410156"/>
      </g>
     </g>
    </g>
    <g id="ytick_3">
     <g id="line2d_15">
      <g>
       <use xlink:href="#m71b67ecb09" x="61.885865" y="250.413347" style="stroke: #000000; stroke-width: 0.8"/>
      </g>
     </g>
     <g id="text_10">
      <!-- 1.0 -->
      <g transform="translate(26.26024 257.25194)scale(0.18 -0.18)">
       <use xlink:href="#DejaVuSans-31"/>
       <use xlink:href="#DejaVuSans-2e" x="63.623047"/>
       <use xlink:href="#DejaVuSans-30" x="95.410156"/>
      </g>
     </g>
    </g>
    <g id="ytick_4">
     <g id="line2d_16">
      <g>
       <use xlink:href="#m71b67ecb09" x="61.885865" y="184.040765" style="stroke: #000000; stroke-width: 0.8"/>
      </g>
     </g>
     <g id="text_11">
      <!-- 1.5 -->
      <g transform="translate(26.26024 190.879359)scale(0.18 -0.18)">
       <use xlink:href="#DejaVuSans-31"/>
       <use xlink:href="#DejaVuSans-2e" x="63.623047"/>
       <use xlink:href="#DejaVuSans-35" x="95.410156"/>
      </g>
     </g>
    </g>
    <g id="ytick_5">
     <g id="line2d_17">
      <g>
       <use xlink:href="#m71b67ecb09" x="61.885865" y="117.668183" style="stroke: #000000; stroke-width: 0.8"/>
      </g>
     </g>
     <g id="text_12">
      <!-- 2.0 -->
      <g transform="translate(26.26024 124.506777)scale(0.18 -0.18)">
       <use xlink:href="#DejaVuSans-32"/>
       <use xlink:href="#DejaVuSans-2e" x="63.623047"/>
       <use xlink:href="#DejaVuSans-30" x="95.410156"/>
      </g>
     </g>
    </g>
    <g id="ytick_6">
     <g id="line2d_18">
      <g>
       <use xlink:href="#m71b67ecb09" x="61.885865" y="51.295601" style="stroke: #000000; stroke-width: 0.8"/>
      </g>
     </g>
     <g id="text_13">
      <!-- 2.5 -->
      <g transform="translate(26.26024 58.134195)scale(0.18 -0.18)">
       <use xlink:href="#DejaVuSans-32"/>
       <use xlink:href="#DejaVuSans-2e" x="63.623047"/>
       <use xlink:href="#DejaVuSans-35" x="95.410156"/>
      </g>
     </g>
    </g>
    <g id="text_14">
     <!-- RMSD ($\AA$) -->
     <g transform="translate(18.516803 235.829375)rotate(-90)scale(0.18 -0.18)">
      <defs>
       <path id="DejaVuSans-52" d="M 2841 2188 
Q 3044 2119 3236 1894 
Q 3428 1669 3622 1275 
L 4263 0 
L 3584 0 
L 2988 1197 
Q 2756 1666 2539 1819 
Q 2322 1972 1947 1972 
L 1259 1972 
L 1259 0 
L 628 0 
L 628 4666 
L 2053 4666 
Q 2853 4666 3247 4331 
Q 3641 3997 3641 3322 
Q 3641 2881 3436 2590 
Q 3231 2300 2841 2188 
z
M 1259 4147 
L 1259 2491 
L 2053 2491 
Q 2509 2491 2742 2702 
Q 2975 2913 2975 3322 
Q 2975 3731 2742 3939 
Q 2509 4147 2053 4147 
L 1259 4147 
z
" transform="scale(0.015625)"/>
       <path id="DejaVuSans-4d" d="M 628 4666 
L 1569 4666 
L 2759 1491 
L 3956 4666 
L 4897 4666 
L 4897 0 
L 4281 0 
L 4281 4097 
L 3078 897 
L 2444 897 
L 1241 4097 
L 1241 0 
L 628 0 
L 628 4666 
z
" transform="scale(0.015625)"/>
       <path id="DejaVuSans-53" d="M 3425 4513 
L 3425 3897 
Q 3066 4069 2747 4153 
Q 2428 4238 2131 4238 
Q 1616 4238 1336 4038 
Q 1056 3838 1056 3469 
Q 1056 3159 1242 3001 
Q 1428 2844 1947 2747 
L 2328 2669 
Q 3034 2534 3370 2195 
Q 3706 1856 3706 1288 
Q 3706 609 3251 259 
Q 2797 -91 1919 -91 
Q 1588 -91 1214 -16 
Q 841 59 441 206 
L 441 856 
Q 825 641 1194 531 
Q 1563 422 1919 422 
Q 2459 422 2753 634 
Q 3047 847 3047 1241 
Q 3047 1584 2836 1778 
Q 2625 1972 2144 2069 
L 1759 2144 
Q 1053 2284 737 2584 
Q 422 2884 422 3419 
Q 422 4038 858 4394 
Q 1294 4750 2059 4750 
Q 2388 4750 2728 4690 
Q 3069 4631 3425 4513 
z
" transform="scale(0.015625)"/>
       <path id="DejaVuSans-44" d="M 1259 4147 
L 1259 519 
L 2022 519 
Q 2988 519 3436 956 
Q 3884 1394 3884 2338 
Q 3884 3275 3436 3711 
Q 2988 4147 2022 4147 
L 1259 4147 
z
M 628 4666 
L 1925 4666 
Q 3281 4666 3915 4102 
Q 4550 3538 4550 2338 
Q 4550 1131 3912 565 
Q 3275 0 1925 0 
L 628 0 
L 628 4666 
z
" transform="scale(0.015625)"/>
       <path id="DejaVuSans-Oblique-c5" d="M 3188 5081 
Q 3188 5278 3048 5417 
Q 2909 5556 2713 5556 
Q 2513 5556 2377 5420 
Q 2241 5284 2241 5081 
Q 2241 4884 2377 4746 
Q 2513 4609 2713 4609 
Q 2909 4609 3048 4746 
Q 3188 4884 3188 5081 
z
M 2203 4397 
Q 2034 4513 1945 4689 
Q 1856 4866 1856 5081 
Q 1856 5438 2106 5689 
Q 2356 5941 2713 5941 
Q 3069 5941 3320 5689 
Q 3572 5438 3572 5081 
Q 3572 4834 3458 4643 
Q 3344 4453 3128 4341 
L 3938 0 
L 3278 0 
L 3084 1197 
L 984 1197 
L 325 0 
L -341 0 
L 2203 4397 
z
M 2584 4044 
L 1275 1722 
L 2988 1722 
L 2584 4044 
z
" transform="scale(0.015625)"/>
      </defs>
      <use xlink:href="#DejaVuSans-52" transform="translate(0 0.171875)"/>
      <use xlink:href="#DejaVuSans-4d" transform="translate(69.482422 0.171875)"/>
      <use xlink:href="#DejaVuSans-53" transform="translate(155.761719 0.171875)"/>
      <use xlink:href="#DejaVuSans-44" transform="translate(219.238281 0.171875)"/>
      <use xlink:href="#DejaVuSans-20" transform="translate(296.240234 0.171875)"/>
      <use xlink:href="#DejaVuSans-28" transform="translate(328.027344 0.171875)"/>
      <use xlink:href="#DejaVuSans-Oblique-c5" transform="translate(367.041016 0.171875)"/>
      <use xlink:href="#DejaVuSans-29" transform="translate(435.449219 0.171875)"/>
     </g>
    </g>
   </g>
   <g id="patch_3">
    <path d="M 61.885865 383.15851 
L 61.885865 3.00024 
" style="fill: none; stroke: #000000; stroke-width: 0.8; stroke-linejoin: miter; stroke-linecap: square"/>
   </g>
   <g id="patch_4">
    <path d="M 423.244843 383.15851 
L 423.244843 3.00024 
" style="fill: none; stroke: #000000; stroke-width: 0.8; stroke-linejoin: miter; stroke-linecap: square"/>
   </g>
   <g id="patch_5">
    <path d="M 61.885865 383.15851 
L 423.244843 383.15851 
" style="fill: none; stroke: #000000; stroke-width: 0.8; stroke-linejoin: miter; stroke-linecap: square"/>
   </g>
   <g id="patch_6">
    <path d="M 61.885865 3.00024 
L 423.244843 3.00024 
" style="fill: none; stroke: #000000; stroke-width: 0.8; stroke-linejoin: miter; stroke-linecap: square"/>
   </g>
   <g id="legend_1">
    <g id="line2d_19">
     <path d="M 78.085865 26.577428 
L 96.085865 26.577428 
L 114.085865 26.577428 
" style="fill: none; stroke: #6c757d; stroke-width: 2.5; stroke-linecap: square"/>
    </g>
    <g id="text_15">
     <!-- RI-MP2 -->
     <g transform="translate(128.485865 32.877428)scale(0.18 -0.18)">
      <defs>
       <path id="DejaVuSans-49" d="M 628 4666 
L 1259 4666 
L 1259 0 
L 628 0 
L 628 4666 
z
" transform="scale(0.015625)"/>
       <path id="DejaVuSans-2d" d="M 313 2009 
L 1997 2009 
L 1997 1497 
L 313 1497 
L 313 2009 
z
" transform="scale(0.015625)"/>
       <path id="DejaVuSans-50" d="M 1259 4147 
L 1259 2394 
L 2053 2394 
Q 2494 2394 2734 2622 
Q 2975 2850 2975 3272 
Q 2975 3691 2734 3919 
Q 2494 4147 2053 4147 
L 1259 4147 
z
M 628 4666 
L 2053 4666 
Q 2838 4666 3239 4311 
Q 3641 3956 3641 3272 
Q 3641 2581 3239 2228 
Q 2838 1875 2053 1875 
L 1259 1875 
L 1259 0 
L 628 0 
L 628 4666 
z
" transform="scale(0.015625)"/>
      </defs>
      <use xlink:href="#DejaVuSans-52"/>
      <use xlink:href="#DejaVuSans-49" x="69.482422"/>
      <use xlink:href="#DejaVuSans-2d" x="98.974609"/>
      <use xlink:href="#DejaVuSans-4d" x="135.058594"/>
      <use xlink:href="#DejaVuSans-50" x="221.337891"/>
      <use xlink:href="#DejaVuSans-32" x="281.640625"/>
     </g>
    </g>
    <g id="line2d_20">
     <path d="M 78.085865 52.998053 
L 96.085865 52.998053 
L 114.085865 52.998053 
" style="fill: none; stroke: #ced4da; stroke-width: 2.5; stroke-linecap: square"/>
    </g>
    <g id="text_16">
     <!-- def2-SVP -->
     <g transform="translate(128.485865 59.298053)scale(0.18 -0.18)">
      <defs>
       <path id="DejaVuSans-64" d="M 2906 2969 
L 2906 4863 
L 3481 4863 
L 3481 0 
L 2906 0 
L 2906 525 
Q 2725 213 2448 61 
Q 2172 -91 1784 -91 
Q 1150 -91 751 415 
Q 353 922 353 1747 
Q 353 2572 751 3078 
Q 1150 3584 1784 3584 
Q 2172 3584 2448 3432 
Q 2725 3281 2906 2969 
z
M 947 1747 
Q 947 1113 1208 752 
Q 1469 391 1925 391 
Q 2381 391 2643 752 
Q 2906 1113 2906 1747 
Q 2906 2381 2643 2742 
Q 2381 3103 1925 3103 
Q 1469 3103 1208 2742 
Q 947 2381 947 1747 
z
" transform="scale(0.015625)"/>
       <path id="DejaVuSans-56" d="M 1831 0 
L 50 4666 
L 709 4666 
L 2188 738 
L 3669 4666 
L 4325 4666 
L 2547 0 
L 1831 0 
z
" transform="scale(0.015625)"/>
      </defs>
      <use xlink:href="#DejaVuSans-64"/>
      <use xlink:href="#DejaVuSans-65" x="63.476562"/>
      <use xlink:href="#DejaVuSans-66" x="125"/>
      <use xlink:href="#DejaVuSans-32" x="160.205078"/>
      <use xlink:href="#DejaVuSans-2d" x="223.828125"/>
      <use xlink:href="#DejaVuSans-53" x="259.912109"/>
      <use xlink:href="#DejaVuSans-56" x="323.388672"/>
      <use xlink:href="#DejaVuSans-50" x="391.796875"/>
     </g>
    </g>
    <g id="line2d_21">
     <path d="M 78.085865 79.418678 
L 96.085865 79.418678 
L 114.085865 79.418678 
" style="fill: none; stroke: #1b4332; stroke-width: 2.5; stroke-linecap: square"/>
    </g>
    <g id="text_17">
     <!-- mbGDML -->
     <g transform="translate(128.485865 85.718678)scale(0.18 -0.18)">
      <defs>
       <path id="DejaVuSans-62" d="M 3116 1747 
Q 3116 2381 2855 2742 
Q 2594 3103 2138 3103 
Q 1681 3103 1420 2742 
Q 1159 2381 1159 1747 
Q 1159 1113 1420 752 
Q 1681 391 2138 391 
Q 2594 391 2855 752 
Q 3116 1113 3116 1747 
z
M 1159 2969 
Q 1341 3281 1617 3432 
Q 1894 3584 2278 3584 
Q 2916 3584 3314 3078 
Q 3713 2572 3713 1747 
Q 3713 922 3314 415 
Q 2916 -91 2278 -91 
Q 1894 -91 1617 61 
Q 1341 213 1159 525 
L 1159 0 
L 581 0 
L 581 4863 
L 1159 4863 
L 1159 2969 
z
" transform="scale(0.015625)"/>
       <path id="DejaVuSans-47" d="M 3809 666 
L 3809 1919 
L 2778 1919 
L 2778 2438 
L 4434 2438 
L 4434 434 
Q 4069 175 3628 42 
Q 3188 -91 2688 -91 
Q 1594 -91 976 548 
Q 359 1188 359 2328 
Q 359 3472 976 4111 
Q 1594 4750 2688 4750 
Q 3144 4750 3555 4637 
Q 3966 4525 4313 4306 
L 4313 3634 
Q 3963 3931 3569 4081 
Q 3175 4231 2741 4231 
Q 1884 4231 1454 3753 
Q 1025 3275 1025 2328 
Q 1025 1384 1454 906 
Q 1884 428 2741 428 
Q 3075 428 3337 486 
Q 3600 544 3809 666 
z
" transform="scale(0.015625)"/>
       <path id="DejaVuSans-4c" d="M 628 4666 
L 1259 4666 
L 1259 531 
L 3531 531 
L 3531 0 
L 628 0 
L 628 4666 
z
" transform="scale(0.015625)"/>
      </defs>
      <use xlink:href="#DejaVuSans-6d"/>
      <use xlink:href="#DejaVuSans-62" x="97.412109"/>
      <use xlink:href="#DejaVuSans-47" x="160.888672"/>
      <use xlink:href="#DejaVuSans-44" x="238.378906"/>
      <use xlink:href="#DejaVuSans-4d" x="315.380859"/>
      <use xlink:href="#DejaVuSans-4c" x="401.660156"/>
     </g>
    </g>
    <g id="line2d_22">
     <path d="M 78.085865 105.839303 
L 96.085865 105.839303 
L 114.085865 105.839303 
" style="fill: none; stroke: #2d6a4f; stroke-width: 2.5; stroke-linecap: square"/>
    </g>
    <g id="text_18">
     <!-- mbGAP -->
     <g transform="translate(128.485865 112.139303)scale(0.18 -0.18)">
      <defs>
       <path id="DejaVuSans-41" d="M 2188 4044 
L 1331 1722 
L 3047 1722 
L 2188 4044 
z
M 1831 4666 
L 2547 4666 
L 4325 0 
L 3669 0 
L 3244 1197 
L 1141 1197 
L 716 0 
L 50 0 
L 1831 4666 
z
" transform="scale(0.015625)"/>
      </defs>
      <use xlink:href="#DejaVuSans-6d"/>
      <use xlink:href="#DejaVuSans-62" x="97.412109"/>
      <use xlink:href="#DejaVuSans-47" x="160.888672"/>
      <use xlink:href="#DejaVuSans-41" x="238.378906"/>
      <use xlink:href="#DejaVuSans-50" x="306.787109"/>
     </g>
    </g>
    <g id="line2d_23">
     <path d="M 78.085865 132.259928 
L 96.085865 132.259928 
L 114.085865 132.259928 
" style="fill: none; stroke: #95d5b2; stroke-width: 2.5; stroke-linecap: square"/>
    </g>
    <g id="text_19">
     <!-- mbSchNet -->
     <g transform="translate(128.485865 138.559928)scale(0.18 -0.18)">
      <defs>
       <path id="DejaVuSans-63" d="M 3122 3366 
L 3122 2828 
Q 2878 2963 2633 3030 
Q 2388 3097 2138 3097 
Q 1578 3097 1268 2742 
Q 959 2388 959 1747 
Q 959 1106 1268 751 
Q 1578 397 2138 397 
Q 2388 397 2633 464 
Q 2878 531 3122 666 
L 3122 134 
Q 2881 22 2623 -34 
Q 2366 -91 2075 -91 
Q 1284 -91 818 406 
Q 353 903 353 1747 
Q 353 2603 823 3093 
Q 1294 3584 2113 3584 
Q 2378 3584 2631 3529 
Q 2884 3475 3122 3366 
z
" transform="scale(0.015625)"/>
       <path id="DejaVuSans-68" d="M 3513 2113 
L 3513 0 
L 2938 0 
L 2938 2094 
Q 2938 2591 2744 2837 
Q 2550 3084 2163 3084 
Q 1697 3084 1428 2787 
Q 1159 2491 1159 1978 
L 1159 0 
L 581 0 
L 581 4863 
L 1159 4863 
L 1159 2956 
Q 1366 3272 1645 3428 
Q 1925 3584 2291 3584 
Q 2894 3584 3203 3211 
Q 3513 2838 3513 2113 
z
" transform="scale(0.015625)"/>
       <path id="DejaVuSans-4e" d="M 628 4666 
L 1478 4666 
L 3547 763 
L 3547 4666 
L 4159 4666 
L 4159 0 
L 3309 0 
L 1241 3903 
L 1241 0 
L 628 0 
L 628 4666 
z
" transform="scale(0.015625)"/>
       <path id="DejaVuSans-74" d="M 1172 4494 
L 1172 3500 
L 2356 3500 
L 2356 3053 
L 1172 3053 
L 1172 1153 
Q 1172 725 1289 603 
Q 1406 481 1766 481 
L 2356 481 
L 2356 0 
L 1766 0 
Q 1100 0 847 248 
Q 594 497 594 1153 
L 594 3053 
L 172 3053 
L 172 3500 
L 594 3500 
L 594 4494 
L 1172 4494 
z
" transform="scale(0.015625)"/>
      </defs>
      <use xlink:href="#DejaVuSans-6d"/>
      <use xlink:href="#DejaVuSans-62" x="97.412109"/>
      <use xlink:href="#DejaVuSans-53" x="160.888672"/>
      <use xlink:href="#DejaVuSans-63" x="224.365234"/>
      <use xlink:href="#DejaVuSans-68" x="279.345703"/>
      <use xlink:href="#DejaVuSans-4e" x="342.724609"/>
      <use xlink:href="#DejaVuSans-65" x="417.529297"/>
      <use xlink:href="#DejaVuSans-74" x="479.052734"/>
     </g>
    </g>
    <g id="line2d_24">
     <path d="M 78.085865 158.680553 
L 96.085865 158.680553 
L 114.085865 158.680553 
" style="fill: none; stroke: #ffe7be; stroke-width: 2.5; stroke-linecap: square"/>
    </g>
    <g id="text_20">
     <!-- GFN2-xTB -->
     <g transform="translate(128.485865 164.980553)scale(0.18 -0.18)">
      <defs>
       <path id="DejaVuSans-46" d="M 628 4666 
L 3309 4666 
L 3309 4134 
L 1259 4134 
L 1259 2759 
L 3109 2759 
L 3109 2228 
L 1259 2228 
L 1259 0 
L 628 0 
L 628 4666 
z
" transform="scale(0.015625)"/>
       <path id="DejaVuSans-78" d="M 3513 3500 
L 2247 1797 
L 3578 0 
L 2900 0 
L 1881 1375 
L 863 0 
L 184 0 
L 1544 1831 
L 300 3500 
L 978 3500 
L 1906 2253 
L 2834 3500 
L 3513 3500 
z
" transform="scale(0.015625)"/>
       <path id="DejaVuSans-42" d="M 1259 2228 
L 1259 519 
L 2272 519 
Q 2781 519 3026 730 
Q 3272 941 3272 1375 
Q 3272 1813 3026 2020 
Q 2781 2228 2272 2228 
L 1259 2228 
z
M 1259 4147 
L 1259 2741 
L 2194 2741 
Q 2656 2741 2882 2914 
Q 3109 3088 3109 3444 
Q 3109 3797 2882 3972 
Q 2656 4147 2194 4147 
L 1259 4147 
z
M 628 4666 
L 2241 4666 
Q 2963 4666 3353 4366 
Q 3744 4066 3744 3513 
Q 3744 3084 3544 2831 
Q 3344 2578 2956 2516 
Q 3422 2416 3680 2098 
Q 3938 1781 3938 1306 
Q 3938 681 3513 340 
Q 3088 0 2303 0 
L 628 0 
L 628 4666 
z
" transform="scale(0.015625)"/>
      </defs>
      <use xlink:href="#DejaVuSans-47"/>
      <use xlink:href="#DejaVuSans-46" x="77.490234"/>
      <use xlink:href="#DejaVuSans-4e" x="135.009766"/>
      <use xlink:href="#DejaVuSans-32" x="209.814453"/>
      <use xlink:href="#DejaVuSans-2d" x="273.4375"/>
      <use xlink:href="#DejaVuSans-78" x="309.521484"/>
      <use xlink:href="#DejaVuSans-54" x="368.701172"/>
      <use xlink:href="#DejaVuSans-42" x="429.785156"/>
     </g>
    </g>
   </g>
  </g>
 </g>
 <defs>
  <clipPath id="pd821b97f50">
   <rect x="61.885865" y="3.00024" width="361.358978" height="380.15827"/>
  </clipPath>
 </defs>
</svg>
