<?xml version="1.0" encoding="utf-8" standalone="no"?>
<!DOCTYPE svg PUBLIC "-//W3C//DTD SVG 1.1//EN"
  "http://www.w3.org/Graphics/SVG/1.1/DTD/svg11.dtd">
<svg xmlns:xlink="http://www.w3.org/1999/xlink" width="230.4pt" height="230.4pt" viewBox="0 0 230.4 230.4" xmlns="http://www.w3.org/2000/svg" version="1.1">
 <metadata>
  <rdf:RDF xmlns:dc="http://purl.org/dc/elements/1.1/" xmlns:cc="http://creativecommons.org/ns#" xmlns:rdf="http://www.w3.org/1999/02/22-rdf-syntax-ns#">
   <cc:Work>
    <dc:type rdf:resource="http://purl.org/dc/dcmitype/StillImage"/>
    <dc:date>2022-10-04T17:39:41.038942</dc:date>
    <dc:format>image/svg+xml</dc:format>
    <dc:creator>
     <cc:Agent>
      <dc:title>Matplotlib v3.6.0, https://matplotlib.org/</dc:title>
     </cc:Agent>
    </dc:creator>
   </cc:Work>
  </rdf:RDF>
 </metadata>
 <defs>
  <style type="text/css">*{stroke-linejoin: round; stroke-linecap: butt}</style>
 </defs>
 <g id="figure_1">
  <g id="patch_1">
   <path d="M 0 230.4 
L 230.4 230.4 
L 230.4 0 
L 0 0 
z
" style="fill: #ffffff"/>
  </g>
  <g id="axes_1">
   <g id="patch_2">
    <path d="M 31.808677 201.634135 
L 227.39976 201.634135 
L 227.39976 3.00024 
L 31.808677 3.00024 
z
" style="fill: #ffffff"/>
   </g>
   <g id="line2d_1">
    <path d="M 31.808677 201.634135 
L 32.181232 201.416877 
L 33.298895 199.891899 
L 34.602836 198.098968 
L 35.161667 197.822142 
L 36.279331 197.710763 
L 37.02444 197.725487 
L 37.583271 197.08365 
L 38.142103 196.131805 
L 38.514657 195.565192 
L 39.073489 194.871356 
L 40.004875 192.949662 
L 40.563707 191.637937 
L 42.426479 189.126964 
L 43.171588 189.061485 
L 43.544142 188.54058 
L 43.916697 187.595199 
L 44.475529 186.051538 
L 45.406915 184.639572 
L 45.965746 183.699495 
L 46.524578 182.729954 
L 47.455964 181.730402 
L 47.828519 181.097836 
L 48.38735 180.066923 
L 48.759905 179.952365 
L 49.132459 179.766576 
L 49.505014 179.194 
L 50.808954 176.567911 
L 51.74034 175.766903 
L 52.299172 174.666624 
L 52.858004 173.812761 
L 53.603112 172.814474 
L 54.534499 171.270388 
L 54.907053 171.297016 
L 55.465885 171.393712 
L 55.838439 171.241911 
L 56.210994 170.681956 
L 56.769825 169.804848 
L 57.514934 169.119663 
L 57.887488 168.740084 
L 58.632597 167.655341 
L 59.191429 167.387516 
L 59.750261 167.409462 
L 61.054201 167.728625 
L 61.613033 168.167896 
L 61.985587 168.166245 
L 62.358142 167.774484 
L 63.103251 166.926361 
L 63.475805 166.84202 
L 63.84836 167.052716 
L 64.407191 167.412925 
L 65.1523 167.414074 
L 65.524855 167.49892 
L 67.015072 168.389293 
L 67.387627 168.251364 
L 68.132736 167.611725 
L 69.064122 166.556885 
L 69.436676 166.516806 
L 69.809231 166.71974 
L 70.368062 167.087027 
L 70.740617 167.135815 
L 71.113171 166.998063 
L 71.672003 166.665931 
L 72.044557 166.776549 
L 72.789666 167.184248 
L 73.348498 167.271807 
L 73.721052 167.19745 
L 74.093607 166.887863 
L 74.652438 165.812766 
L 75.024993 165.203413 
L 75.397547 164.898102 
L 75.956379 164.782067 
L 76.328933 164.63626 
L 76.701488 164.145022 
L 77.26032 163.381409 
L 77.632874 163.350374 
L 78.377983 163.855301 
L 78.750537 163.637592 
L 79.309369 163.250908 
L 79.868201 162.937902 
L 80.240755 162.293527 
L 80.799587 160.385261 
L 81.358418 158.69421 
L 81.730973 158.096992 
L 82.662359 157.137492 
L 83.221191 156.462683 
L 83.780022 156.232323 
L 84.152577 156.115918 
L 84.525131 155.766643 
L 85.27024 154.566304 
L 85.829072 153.247689 
L 86.574181 150.555549 
L 87.133012 148.636252 
L 87.505567 147.822705 
L 87.878121 147.374093 
L 88.436953 147.078762 
L 89.554616 146.741621 
L 90.486002 145.999253 
L 91.231111 145.799084 
L 91.603666 145.263699 
L 92.907606 142.519193 
L 93.652715 141.960142 
L 94.211547 141.381455 
L 94.584101 141.349607 
L 95.142933 141.552255 
L 95.515487 141.318514 
L 96.633151 139.782106 
L 97.191982 139.604226 
L 97.564537 139.006227 
L 98.495923 136.771547 
L 99.427309 136.008495 
L 100.358695 134.149467 
L 100.544972 134.140951 
L 100.917527 134.540898 
L 101.290081 135.024316 
L 101.476358 135.090176 
L 101.848913 134.822728 
L 102.221467 134.533314 
L 102.407744 134.560916 
L 102.780299 134.959028 
L 103.152853 135.316314 
L 103.339131 135.246091 
L 103.711685 134.436853 
L 104.456794 132.112044 
L 104.829348 131.563539 
L 105.574457 130.768586 
L 106.133289 130.053182 
L 106.319566 130.094688 
L 106.692121 130.758543 
L 107.250952 132.047559 
L 107.437229 132.181623 
L 107.623507 132.09942 
L 108.554893 130.997118 
L 109.113724 131.189376 
L 109.300002 131.069469 
L 109.672556 130.297081 
L 110.231388 128.72235 
L 110.417665 128.503288 
L 110.603942 128.520552 
L 110.976497 129.027361 
L 111.349051 129.49912 
L 111.535328 129.499761 
L 111.907883 128.935039 
L 112.280437 128.189335 
L 112.652992 127.966256 
L 113.211823 128.123085 
L 113.3981 127.963043 
L 113.770655 127.052204 
L 114.329487 125.457106 
L 114.515764 125.303084 
L 114.702041 125.368863 
L 115.44715 126.14951 
L 115.633427 126.044598 
L 116.564813 124.651501 
L 117.496199 124.59619 
L 117.868754 123.878206 
L 118.241308 123.129562 
L 118.427585 122.957875 
L 118.613863 122.950741 
L 118.986417 123.270666 
L 119.358972 123.632441 
L 119.731526 123.643541 
L 120.476635 123.211791 
L 121.408021 123.174817 
L 121.780575 122.623388 
L 122.339407 121.653791 
L 122.711962 121.367748 
L 124.388457 121.094264 
L 124.947288 121.412571 
L 125.319843 121.56115 
L 125.692397 121.289651 
L 126.437506 120.333225 
L 126.81006 120.176161 
L 127.741447 120.098041 
L 128.486555 119.896389 
L 128.85911 120.055752 
L 129.417942 120.431775 
L 129.790496 120.346083 
L 130.535605 119.822092 
L 131.094437 119.80097 
L 131.653268 119.798113 
L 132.2121 119.412617 
L 132.584654 119.154048 
L 132.957209 119.156031 
L 133.888595 119.859361 
L 134.261149 119.694941 
L 135.192535 119.003283 
L 135.751367 118.699841 
L 136.123921 118.178955 
L 136.682753 117.259317 
L 137.055308 117.084805 
L 137.800416 117.493695 
L 138.172971 117.131009 
L 138.91808 116.042721 
L 139.290634 115.914569 
L 139.663189 115.820322 
L 140.035743 115.356063 
L 140.780852 113.931057 
L 140.967129 113.799634 
L 141.339684 113.927017 
L 141.712238 114.187305 
L 141.898515 114.195696 
L 142.27107 113.877641 
L 142.829901 113.269981 
L 143.202456 113.300917 
L 143.761288 113.550395 
L 144.133842 113.343159 
L 144.878951 112.631218 
L 145.251505 112.706405 
L 145.810337 112.956243 
L 146.182891 112.783896 
L 147.300555 111.420772 
L 148.604495 109.795528 
L 148.97705 109.826628 
L 151.026099 111.123062 
L 151.212376 111.035308 
L 151.584931 110.426257 
L 152.516317 108.384264 
L 153.447703 107.228661 
L 153.820258 106.686467 
L 154.006535 106.593903 
L 154.192812 106.663512 
L 154.565366 107.234459 
L 155.124198 108.320755 
L 155.310475 108.420297 
L 155.68303 108.171198 
L 156.055584 107.946782 
L 156.241861 108.018754 
L 156.614416 108.521899 
L 156.98697 109.080103 
L 157.173248 109.156942 
L 157.545802 108.800871 
L 157.918356 108.402587 
L 158.104634 108.438807 
L 158.477188 109.076027 
L 159.03602 110.356088 
L 159.222297 110.437811 
L 159.408574 110.274583 
L 159.967406 109.393571 
L 160.153683 109.363306 
L 160.526238 109.852821 
L 160.898792 110.492942 
L 161.085069 110.584156 
L 161.271346 110.450599 
L 161.830178 109.573511 
L 162.016455 109.547419 
L 162.202732 109.774219 
L 163.134119 111.951475 
L 163.320396 111.83031 
L 164.065505 110.777599 
L 164.251782 110.894956 
L 164.810614 111.747994 
L 164.996891 111.761282 
L 165.183168 111.490997 
L 166.114554 109.272865 
L 166.300831 109.432518 
L 167.04594 110.839608 
L 167.232217 110.761949 
L 167.977326 109.83583 
L 168.163604 110.030921 
L 169.09499 112.070192 
L 169.281267 111.866462 
L 170.026376 110.300448 
L 170.212653 110.286639 
L 170.585207 110.803711 
L 170.957762 111.285779 
L 171.144039 111.246886 
L 171.889148 110.240241 
L 172.075425 110.329872 
L 172.44798 111.187291 
L 173.006811 112.596614 
L 173.193089 112.653318 
L 173.565643 112.181149 
L 173.938197 111.612699 
L 174.124475 111.511318 
L 174.497029 111.713265 
L 174.869584 111.945188 
L 175.055861 111.852828 
L 175.428415 111.206709 
L 175.80097 110.52301 
L 175.987247 110.421099 
L 176.173524 110.549025 
L 176.546079 111.355704 
L 177.10491 112.546383 
L 177.291187 112.649394 
L 177.663742 112.535633 
L 178.036296 112.440693 
L 178.967682 112.648816 
L 179.340237 111.899791 
L 179.899069 110.444047 
L 180.271623 110.133766 
L 180.644177 110.389176 
L 181.016732 110.687525 
L 181.389286 110.690918 
L 181.948118 110.613962 
L 182.879504 111.033763 
L 183.252059 110.538617 
L 183.997167 108.999029 
L 184.369722 108.809194 
L 184.928554 108.806263 
L 185.301108 108.382999 
L 185.85994 107.584123 
L 186.046217 107.511672 
L 186.418771 107.706316 
L 186.791326 107.951976 
L 186.977603 107.894756 
L 187.350157 107.232529 
L 187.908989 105.768005 
L 188.095266 105.520015 
L 188.281543 105.465984 
L 188.654098 105.757341 
L 189.026652 105.941932 
L 189.21293 105.786176 
L 190.144316 104.152959 
L 190.330593 104.181527 
L 190.889425 104.654338 
L 191.075702 104.592633 
L 191.448256 103.783301 
L 192.007088 102.102198 
L 192.193365 101.853485 
L 192.379642 101.832277 
L 193.124751 102.342486 
L 193.497306 101.599017 
L 194.056137 100.259214 
L 194.242415 100.165839 
L 194.614969 100.500558 
L 194.987523 100.790239 
L 195.173801 100.59372 
L 195.546355 99.444374 
L 195.91891 98.135858 
L 196.105187 97.770154 
L 196.291464 97.687399 
L 196.477741 97.86222 
L 197.036573 98.694715 
L 197.22285 98.564644 
L 197.595405 97.493241 
L 198.154236 95.786698 
L 198.340513 95.611301 
L 198.713068 95.773561 
L 198.899345 95.879518 
L 199.085622 95.815857 
L 199.2719 95.506325 
L 200.203286 92.999655 
L 200.389563 93.03142 
L 201.134672 93.98319 
L 201.320949 93.824213 
L 202.252335 92.074688 
L 202.62489 92.195344 
L 202.811167 92.280221 
L 202.997444 92.238193 
L 203.183721 92.001817 
L 203.556276 91.017788 
L 204.115107 89.564756 
L 204.301385 89.396874 
L 204.487662 89.404514 
L 205.046493 89.74761 
L 205.232771 89.681345 
L 205.605325 89.154742 
L 206.164157 88.378122 
L 206.536711 88.395289 
L 206.909266 88.515047 
L 207.095543 88.417294 
L 207.468097 87.725296 
L 208.213206 85.809358 
L 208.585761 85.466245 
L 209.517147 85.354115 
L 210.075978 85.043504 
L 210.63481 85.04829 
L 211.007365 85.058064 
L 211.379919 84.774984 
L 211.938751 83.739419 
L 212.68386 82.393702 
L 213.615246 81.462126 
L 213.9878 81.220427 
L 214.360354 81.201812 
L 215.291741 81.504831 
L 215.664295 81.297025 
L 216.223127 80.560418 
L 216.968236 79.514396 
L 217.899622 78.652199 
L 218.085899 78.538161 
L 218.085899 78.538161 
" clip-path="url(#p8f3e1adae3)" style="fill: none; stroke: #ffe7be; stroke-width: 1.5; stroke-linecap: square"/>
   </g>
   <g id="line2d_2">
    <path d="M 31.808677 201.634135 
L 33.112618 201.502593 
L 39.818598 200.420505 
L 44.661806 199.125181 
L 50.063845 196.833396 
L 56.024716 193.439288 
L 56.956102 192.864532 
L 57.887488 192.394943 
L 58.818875 191.852161 
L 59.750261 191.375887 
L 61.054201 190.482709 
L 61.985587 190.019315 
L 62.916973 189.530735 
L 63.662082 189.199952 
L 66.269963 187.47859 
L 68.50529 186.011018 
L 69.622953 185.23673 
L 72.417112 183.299572 
L 75.21127 180.560225 
L 76.142656 179.989768 
L 78.005428 178.4608 
L 78.936815 177.165482 
L 80.427032 175.811713 
L 80.985864 175.652315 
L 81.544696 175.577478 
L 81.91725 175.298749 
L 82.848636 174.352945 
L 83.780022 173.716904 
L 84.711408 172.81109 
L 85.642794 172.490285 
L 86.201626 171.775672 
L 86.760458 171.098523 
L 87.878121 170.009702 
L 88.436953 169.372492 
L 88.809507 169.221985 
L 89.554616 169.080257 
L 90.113448 168.49299 
L 91.789943 166.300959 
L 92.348774 165.341762 
L 92.907606 164.876637 
L 93.466438 164.431791 
L 94.584101 163.135981 
L 95.142933 162.670642 
L 95.701764 161.835139 
L 96.260596 160.954622 
L 96.819428 160.518244 
L 97.378259 160.107947 
L 99.613586 157.390097 
L 100.544972 155.625407 
L 102.03519 153.681971 
L 102.594022 152.892093 
L 103.525408 151.790163 
L 105.947012 146.955301 
L 106.505843 145.514784 
L 107.064675 144.74658 
L 107.437229 144.26068 
L 107.809784 143.361488 
L 108.554893 141.191214 
L 108.927447 140.69857 
L 109.486279 140.302478 
L 109.858833 139.707123 
L 110.603942 138.253758 
L 111.535328 137.112173 
L 112.839269 134.205605 
L 113.3981 133.772773 
L 113.770655 132.971965 
L 114.329487 131.524673 
L 114.702041 131.006558 
L 115.44715 130.405912 
L 116.005982 129.022184 
L 116.564813 127.914074 
L 117.123645 127.540563 
L 117.496199 127.069765 
L 118.613863 124.613036 
L 119.172694 124.334549 
L 119.545249 123.577533 
L 120.476635 120.78031 
L 120.849189 120.489913 
L 121.221744 120.330735 
L 121.594298 119.676288 
L 122.339407 117.969517 
L 122.711962 117.7065 
L 123.084516 117.57885 
L 123.270793 117.326022 
L 123.643348 116.243715 
L 124.202179 114.438729 
L 124.574734 113.962927 
L 125.133565 113.852043 
L 125.319843 113.569412 
L 125.878674 111.84587 
L 126.251229 110.899858 
L 126.623783 110.542578 
L 126.996338 110.417576 
L 127.182615 110.185903 
L 127.555169 109.118261 
L 128.300278 106.619245 
L 128.672833 106.203846 
L 129.045387 106.089751 
L 129.417942 105.607268 
L 130.16305 104.246548 
L 130.349328 104.173085 
L 131.094437 104.322393 
L 131.466991 103.537803 
L 132.398377 100.703532 
L 133.329763 99.119139 
L 133.888595 97.812862 
L 134.261149 97.490951 
L 134.633704 97.717659 
L 135.006258 98.00584 
L 135.192535 97.979895 
L 135.56509 97.537619 
L 136.310199 96.471046 
L 136.86903 95.978216 
L 137.241585 95.259167 
L 137.986694 93.676286 
L 138.359248 93.510509 
L 139.104357 93.63934 
L 139.663189 93.235592 
L 140.22202 92.918716 
L 140.594575 92.796468 
L 140.967129 92.424697 
L 141.712238 91.272737 
L 142.084793 91.135813 
L 142.643624 91.428893 
L 143.388733 91.726625 
L 144.506396 91.935405 
L 144.878951 91.720244 
L 145.437783 90.994162 
L 145.996614 90.205653 
L 146.369169 89.98905 
L 146.741723 90.127789 
L 147.300555 90.924742 
L 147.859386 91.61581 
L 149.349604 92.543389 
L 149.535881 92.490207 
L 149.908436 92.052434 
L 150.653545 90.967045 
L 151.026099 90.969352 
L 151.584931 91.198578 
L 152.143763 91.242482 
L 152.516317 91.574238 
L 153.261426 92.897177 
L 153.447703 92.97427 
L 153.63398 92.873205 
L 154.751644 91.617599 
L 155.310475 91.677566 
L 155.68303 91.283167 
L 156.241861 90.558568 
L 156.428139 90.550217 
L 156.800693 90.950905 
L 157.173248 91.366449 
L 157.359525 91.346614 
L 157.732079 90.763153 
L 158.290911 89.508256 
L 158.663465 89.143262 
L 159.03602 88.922614 
L 159.408574 88.268827 
L 160.153683 86.334041 
L 160.33996 86.175794 
L 160.526238 86.217885 
L 161.085069 86.722119 
L 161.271346 86.671172 
L 161.643901 86.05479 
L 162.202732 84.925154 
L 162.575287 84.767337 
L 162.947841 84.741613 
L 163.134119 84.558988 
L 163.506673 83.733341 
L 164.065505 82.284345 
L 164.251782 82.077896 
L 164.438059 82.064834 
L 165.183168 82.467612 
L 165.555722 81.997401 
L 166.114554 81.009146 
L 166.487109 80.802254 
L 166.859663 80.668368 
L 167.232217 80.109451 
L 167.977326 78.542973 
L 168.163604 78.436866 
L 168.536158 78.632447 
L 168.908712 78.933838 
L 169.281267 78.915278 
L 170.212653 78.230191 
L 170.771485 78.16348 
L 171.144039 77.729619 
L 172.075425 76.042766 
L 172.44798 75.936272 
L 173.006811 75.82602 
L 173.565643 75.288282 
L 174.310752 74.600424 
L 174.869584 74.008173 
L 175.80097 72.722702 
L 176.173524 72.61678 
L 177.10491 72.712019 
L 177.477465 72.529543 
L 178.036296 71.986294 
L 178.595128 71.010876 
L 180.085346 67.843724 
L 180.4579 67.516325 
L 180.830455 67.424355 
L 182.134395 67.517983 
L 182.50695 67.16235 
L 183.065781 66.254748 
L 184.928554 62.595565 
L 186.791326 59.87206 
L 187.350157 58.237417 
L 188.095266 56.176018 
L 188.467821 55.752894 
L 189.399207 55.324797 
L 190.703147 53.900298 
L 191.075702 52.885712 
L 191.634533 50.173219 
L 192.193365 47.509775 
L 192.56592 46.56718 
L 193.86986 44.849084 
L 194.242415 44.793326 
L 194.801246 45.017352 
L 194.987523 44.852161 
L 195.360078 43.747612 
L 196.291464 39.784351 
L 196.664018 39.281109 
L 197.036573 39.000552 
L 197.409127 38.224522 
L 197.967959 36.823071 
L 198.154236 36.645136 
L 198.340513 36.655601 
L 198.899345 37.081259 
L 199.085622 36.946005 
L 199.458177 35.800421 
L 200.203286 32.64007 
L 200.57584 32.1292 
L 200.948395 32.01252 
L 201.134672 31.794511 
L 201.507226 30.853421 
L 202.066058 29.523072 
L 202.252335 29.429199 
L 202.62489 29.718845 
L 202.997444 29.957729 
L 203.183721 29.766904 
L 203.556276 28.689281 
L 204.115107 26.71937 
L 204.487662 26.131951 
L 205.046493 25.74321 
L 205.419048 24.941035 
L 205.791602 24.073957 
L 205.97788 23.858301 
L 206.164157 23.854624 
L 206.536711 24.355293 
L 206.909266 24.859904 
L 207.095543 24.829093 
L 207.28182 24.554726 
L 207.840652 22.876534 
L 208.213206 21.907045 
L 209.144592 20.140182 
L 209.889701 17.88726 
L 210.075978 17.757541 
L 210.262256 17.873751 
L 211.007365 19.093097 
L 211.193642 19.110605 
L 211.566196 18.708701 
L 212.125028 18.042336 
L 212.68386 17.659542 
L 213.056414 16.795732 
L 213.9878 13.800986 
L 214.174077 13.678441 
L 214.546632 13.892148 
L 214.919186 14.146981 
L 215.291741 14.016705 
L 215.850572 13.657879 
L 216.223127 13.859611 
L 216.595681 14.218503 
L 216.781958 14.276951 
L 216.968236 14.180328 
L 217.34079 13.556577 
L 217.899622 12.571366 
L 218.085899 12.458997 
L 218.085899 12.458997 
" clip-path="url(#p8f3e1adae3)" style="fill: none; stroke: #95d5b2; stroke-width: 1.5; stroke-linecap: square"/>
   </g>
   <g id="line2d_3">
    <path d="M 31.808677 201.634135 
L 32.926341 201.498944 
L 34.602836 201.30885 
L 35.906776 201.168951 
L 39.446044 200.3336 
L 41.867647 199.443001 
L 43.916697 198.571702 
L 46.338301 197.165225 
L 50.063845 194.432147 
L 52.299172 192.2858 
L 53.044281 191.548201 
L 54.161944 190.58141 
L 54.907053 189.866423 
L 55.838439 189.134375 
L 56.956102 187.884238 
L 57.701211 187.358833 
L 59.377706 185.567512 
L 59.750261 185.188696 
L 60.867924 183.611869 
L 61.79931 182.943975 
L 62.730696 181.757229 
L 63.84836 181.041483 
L 64.966023 179.284976 
L 65.711132 178.678377 
L 66.828795 177.196816 
L 67.573904 177.076823 
L 67.946458 176.68092 
L 68.691567 175.768619 
L 69.622953 175.426387 
L 70.181785 174.530471 
L 70.55434 174.009794 
L 70.926894 173.84295 
L 71.485726 173.79516 
L 71.85828 173.433988 
L 72.417112 172.678972 
L 72.789666 172.505912 
L 73.348498 172.528598 
L 73.721052 172.186303 
L 74.466161 170.994029 
L 74.838716 170.861508 
L 75.397547 170.957813 
L 75.770102 170.651051 
L 76.515211 169.6942 
L 76.887765 169.723277 
L 77.26032 169.885583 
L 77.446597 169.8618 
L 77.819151 169.443825 
L 78.56426 168.268125 
L 78.936815 168.14696 
L 79.309369 168.135864 
L 79.681923 167.860332 
L 80.427032 166.995365 
L 80.799587 167.103257 
L 81.358418 167.511266 
L 81.544696 167.473876 
L 81.91725 167.03707 
L 82.476082 166.295866 
L 82.848636 166.206834 
L 83.407468 166.312381 
L 83.780022 166.053781 
L 84.338854 165.475294 
L 84.711408 165.495118 
L 85.456517 165.906677 
L 85.829072 165.584836 
L 86.574181 164.728842 
L 87.691844 164.19721 
L 88.250676 163.659901 
L 88.62323 163.681178 
L 89.554616 164.278077 
L 90.113448 164.028797 
L 91.417388 163.327152 
L 92.535052 161.812658 
L 93.652715 161.086286 
L 94.211547 160.67432 
L 95.515487 160.164827 
L 96.074319 159.826681 
L 96.633151 159.75097 
L 97.191982 159.634093 
L 98.495923 159.036624 
L 99.054754 158.709705 
L 100.544972 157.327941 
L 102.221467 156.45416 
L 103.152853 155.932676 
L 103.897962 155.272228 
L 105.574457 152.938395 
L 107.250952 150.089616 
L 107.623507 149.601574 
L 108.182338 148.300233 
L 108.74117 147.13341 
L 109.858833 145.764262 
L 110.790219 143.748343 
L 111.907883 142.023613 
L 112.466714 140.754797 
L 112.839269 140.305028 
L 113.3981 139.931294 
L 113.770655 139.242976 
L 114.702041 137.077758 
L 115.633427 135.715219 
L 116.564813 133.32711 
L 116.937368 132.921361 
L 117.309922 132.668952 
L 117.682477 132.059258 
L 118.427585 130.356469 
L 118.80014 129.981439 
L 119.172694 129.723366 
L 119.545249 129.008254 
L 120.662912 125.687968 
L 121.408021 124.649216 
L 122.525684 121.909336 
L 123.270793 121.340271 
L 123.643348 120.237873 
L 124.202179 118.268905 
L 124.574734 117.63672 
L 125.133565 117.330955 
L 125.50612 116.454813 
L 126.251229 113.957024 
L 126.623783 113.540589 
L 126.996338 113.484151 
L 127.182615 113.320964 
L 127.555169 112.399264 
L 128.300278 109.944299 
L 128.672833 109.490997 
L 129.045387 109.349246 
L 129.417942 108.850833 
L 130.16305 107.475606 
L 130.349328 107.427262 
L 131.094437 107.848079 
L 131.280714 107.704966 
L 131.653268 107.035051 
L 132.398377 105.54877 
L 133.143486 104.498153 
L 134.074872 102.673474 
L 134.447427 102.537653 
L 135.006258 102.611923 
L 136.310199 102.101774 
L 136.682753 101.978721 
L 137.055308 101.50201 
L 137.800416 100.343609 
L 138.359248 100.006149 
L 138.731803 99.739896 
L 139.663189 98.615241 
L 140.594575 98.141493 
L 141.153406 97.159469 
L 141.525961 96.630709 
L 141.898515 96.511835 
L 142.643624 96.715544 
L 143.57501 96.302451 
L 144.320119 96.396825 
L 144.692674 96.157739 
L 145.810337 95.010144 
L 146.555446 94.682498 
L 147.114278 94.565963 
L 147.486832 94.750543 
L 148.604495 95.485718 
L 149.535881 95.892992 
L 149.908436 95.782331 
L 150.467268 95.524375 
L 150.839822 95.562332 
L 151.584931 95.952687 
L 151.957485 95.851565 
L 152.702594 95.3988 
L 153.447703 95.349069 
L 153.820258 95.009895 
L 154.379089 94.509051 
L 154.565366 94.556943 
L 154.937921 95.086609 
L 155.496753 96.047616 
L 155.869307 96.12395 
L 156.614416 95.808638 
L 157.173248 96.048917 
L 157.359525 95.986731 
L 157.732079 95.417684 
L 158.290911 94.151581 
L 158.477188 93.947912 
L 158.663465 93.945532 
L 159.03602 94.398822 
L 159.408574 94.870895 
L 159.781129 94.898215 
L 160.33996 94.679043 
L 160.712515 95.041029 
L 161.085069 95.594121 
L 161.271346 95.720275 
L 161.457624 95.669543 
L 161.830178 95.108872 
L 162.202732 94.42688 
L 162.38901 94.258776 
L 162.575287 94.264427 
L 163.506673 94.982719 
L 163.879227 94.604996 
L 164.251782 94.171514 
L 164.624336 94.089479 
L 164.996891 94.154169 
L 165.183168 94.067756 
L 165.555722 93.437309 
L 166.300831 91.499979 
L 166.673386 91.207128 
L 167.232217 91.163271 
L 167.604772 90.7921 
L 168.163604 90.101093 
L 168.536158 89.992838 
L 168.908712 89.922927 
L 169.281267 89.441409 
L 169.653821 88.37125 
L 170.39893 86.016695 
L 172.075425 82.671142 
L 173.006811 82.050971 
L 173.379366 81.275124 
L 174.310752 78.860766 
L 175.055861 77.477479 
L 175.987247 75.213348 
L 176.359801 74.926673 
L 176.918633 74.756761 
L 177.291187 74.351679 
L 178.781405 71.412908 
L 179.340237 69.923117 
L 180.085346 67.941914 
L 180.644177 67.120262 
L 181.203009 66.416726 
L 182.693227 63.697438 
L 183.252059 62.181351 
L 184.183445 59.363315 
L 185.487385 56.337972 
L 186.605049 53.25515 
L 187.16388 51.372944 
L 188.095266 47.646265 
L 188.467821 46.847577 
L 189.585484 45.315725 
L 190.330593 44.28651 
L 190.703147 43.838081 
L 191.075702 42.958927 
L 191.634533 40.642342 
L 192.193365 38.394331 
L 192.752197 37.030069 
L 193.311028 35.628568 
L 193.86986 34.213064 
L 194.242415 33.873766 
L 194.801246 33.874013 
L 194.987523 33.688039 
L 195.360078 32.759232 
L 196.105187 30.342963 
L 196.477741 29.856053 
L 197.036573 29.565631 
L 197.409127 28.992099 
L 197.967959 28.112242 
L 198.340513 28.026828 
L 198.713068 28.068794 
L 198.899345 27.93702 
L 199.2719 27.122865 
L 200.389563 23.649524 
L 201.320949 22.064607 
L 201.693503 21.393156 
L 201.879781 21.232543 
L 202.066058 21.228316 
L 202.438612 21.572355 
L 202.811167 21.919473 
L 202.997444 21.92249 
L 203.369998 21.483052 
L 205.791602 16.631695 
L 205.97788 16.550045 
L 206.350434 16.827366 
L 206.909266 17.437812 
L 207.28182 17.426272 
L 208.585761 16.33055 
L 209.144592 15.553249 
L 209.517147 15.031712 
L 209.703424 14.926859 
L 209.889701 14.976394 
L 210.262256 15.459165 
L 210.821087 16.275162 
L 211.193642 16.445087 
L 212.125028 16.327017 
L 212.497582 16.112144 
L 212.870137 15.505235 
L 213.615246 14.009645 
L 213.801523 13.948584 
L 213.9878 14.066375 
L 215.105463 15.488222 
L 215.664295 15.850828 
L 216.409404 16.449973 
L 216.595681 16.402603 
L 216.968236 15.986558 
L 217.527067 15.325258 
L 217.713344 15.321901 
L 218.085899 15.653657 
L 218.085899 15.653657 
" clip-path="url(#p8f3e1adae3)" style="fill: none; stroke: #2d6a4f; stroke-width: 1.5; stroke-linecap: square"/>
   </g>
   <g id="line2d_4">
    <path d="M 31.808677 201.634135 
L 33.112618 201.494662 
L 34.602836 201.348988 
L 36.093054 201.216691 
L 38.700935 200.68752 
L 43.171588 199.485621 
L 45.03436 198.76963 
L 48.014796 197.510116 
L 50.995231 195.966315 
L 56.024716 192.621132 
L 56.956102 191.804283 
L 58.073766 191.01292 
L 59.005152 190.28097 
L 59.750261 189.693977 
L 61.054201 188.40374 
L 61.79931 187.850124 
L 62.916973 186.885987 
L 63.662082 186.383642 
L 66.828795 183.200196 
L 67.760181 182.572413 
L 68.877845 181.429041 
L 69.622953 180.943176 
L 70.926894 179.623623 
L 71.672003 179.238628 
L 74.093607 176.75883 
L 74.652438 176.072262 
L 75.21127 175.880071 
L 75.583825 175.764085 
L 76.142656 175.233703 
L 76.701488 174.792731 
L 77.632874 174.514611 
L 78.191706 173.626958 
L 78.750537 172.83653 
L 80.054478 171.73113 
L 80.427032 171.347206 
L 80.799587 171.289533 
L 81.544696 171.557617 
L 81.91725 171.257989 
L 82.662359 170.404613 
L 83.221191 170.275487 
L 83.593745 170.130724 
L 84.152577 169.448157 
L 84.525131 169.067508 
L 84.897686 169.003462 
L 85.456517 169.067643 
L 85.829072 168.735878 
L 86.574181 167.719503 
L 87.133012 167.431309 
L 87.505567 167.233546 
L 88.62323 166.242593 
L 89.554616 166.458456 
L 89.927171 166.150589 
L 90.672279 165.4293 
L 91.231111 165.00225 
L 91.789943 164.12925 
L 92.348774 163.213958 
L 92.721329 162.938017 
L 93.466438 162.617531 
L 94.584101 161.743395 
L 95.142933 161.48811 
L 95.701764 160.857197 
L 96.260596 160.19816 
L 96.819428 159.918855 
L 97.378259 159.610596 
L 99.427309 157.760529 
L 100.731249 155.817104 
L 102.966576 153.38376 
L 103.525408 152.655806 
L 104.270517 151.160686 
L 105.201903 149.527384 
L 105.760734 148.464159 
L 106.878398 145.989514 
L 107.623507 144.796415 
L 108.927447 141.474133 
L 109.858833 140.482077 
L 110.976497 138.577646 
L 111.535328 137.767646 
L 112.09416 136.261395 
L 112.652992 134.865635 
L 113.211823 134.158345 
L 113.584378 133.622522 
L 114.702041 131.419508 
L 115.44715 130.632149 
L 116.005982 129.271474 
L 116.564813 127.929903 
L 117.123645 127.12989 
L 117.496199 126.546874 
L 118.613863 124.313244 
L 119.358972 123.696517 
L 119.731526 122.703927 
L 120.476635 120.465304 
L 121.035467 119.631773 
L 121.408021 119.000814 
L 122.339407 116.847335 
L 122.711962 116.518368 
L 123.084516 116.352644 
L 123.45707 115.722437 
L 124.388457 113.105218 
L 124.761011 112.693507 
L 125.133565 112.293069 
L 125.50612 111.294698 
L 126.251229 108.951463 
L 126.623783 108.512226 
L 126.996338 108.363314 
L 127.368892 107.842934 
L 128.486555 105.154376 
L 129.231664 104.463721 
L 130.349328 102.583284 
L 131.094437 102.493367 
L 131.466991 101.924669 
L 132.398377 100.05725 
L 133.143486 98.937503 
L 133.888595 97.690648 
L 134.261149 97.504324 
L 135.192535 97.513679 
L 136.86903 96.363171 
L 137.800416 94.862347 
L 138.172971 94.759431 
L 138.731803 94.743026 
L 139.663189 94.409031 
L 140.408298 94.467896 
L 140.780852 94.084194 
L 141.525961 92.975767 
L 141.898515 92.966531 
L 142.643624 93.326679 
L 143.388733 93.325329 
L 144.320119 93.85463 
L 144.692674 93.544972 
L 145.62406 92.25362 
L 146.182891 92.004011 
L 146.741723 91.890721 
L 147.114278 92.071145 
L 148.231941 93.322066 
L 148.604495 93.277736 
L 149.349604 93.101036 
L 149.722159 93.036819 
L 150.094713 92.755868 
L 150.839822 91.81231 
L 151.212376 91.755219 
L 151.584931 92.0303 
L 152.516317 92.846716 
L 153.447703 93.461398 
L 153.820258 93.43475 
L 154.379089 92.983888 
L 154.937921 92.649243 
L 155.869307 92.383471 
L 156.428139 92.228609 
L 157.359525 92.492415 
L 157.732079 92.20171 
L 158.477188 91.401918 
L 159.222297 90.941931 
L 159.781129 90.152758 
L 160.153683 89.650643 
L 160.526238 89.501037 
L 161.085069 89.482658 
L 161.457624 89.015794 
L 162.38901 87.311566 
L 162.947841 86.964348 
L 163.320396 86.395706 
L 164.251782 84.542995 
L 164.624336 84.534891 
L 164.996891 84.628406 
L 165.183168 84.539352 
L 165.555722 83.96253 
L 166.300831 82.462513 
L 167.04594 81.685004 
L 167.604772 80.328061 
L 167.977326 79.433074 
L 168.349881 79.043415 
L 169.09499 78.959251 
L 169.467544 78.550429 
L 170.212653 77.445649 
L 170.957762 77.116894 
L 171.330316 76.492929 
L 172.075425 74.767981 
L 172.44798 74.468584 
L 173.006811 74.188278 
L 173.379366 73.61743 
L 174.310752 71.787651 
L 175.055861 70.974094 
L 175.614692 69.73089 
L 175.987247 69.022183 
L 176.359801 68.835154 
L 177.10491 68.92271 
L 177.477465 68.428419 
L 178.408851 66.802263 
L 178.967682 65.785778 
L 180.085346 62.926191 
L 180.4579 62.830857 
L 181.203009 63.088645 
L 182.134395 62.77256 
L 182.693227 62.893783 
L 182.879504 62.821431 
L 183.252059 62.303211 
L 183.997167 60.803924 
L 184.555999 60.3123 
L 185.114831 59.973985 
L 185.85994 59.3279 
L 186.418771 59.25155 
L 186.791326 59.148242 
L 187.16388 58.594617 
L 188.095266 56.422422 
L 188.467821 56.29894 
L 189.21293 56.572038 
L 190.144316 56.318791 
L 190.703147 56.401382 
L 190.889425 56.251168 
L 191.261979 55.316167 
L 192.379642 50.843395 
L 192.752197 50.352254 
L 193.311028 49.872808 
L 193.683583 49.525962 
L 193.86986 49.486059 
L 194.056137 49.58032 
L 194.428692 50.119005 
L 194.801246 50.709923 
L 194.987523 50.788686 
L 195.173801 50.622683 
L 195.546355 49.623797 
L 196.291464 47.2495 
L 196.664018 46.764042 
L 197.036573 46.458886 
L 197.409127 45.858343 
L 197.967959 44.919548 
L 198.154236 44.842082 
L 198.526791 45.119864 
L 198.899345 45.493477 
L 199.085622 45.446547 
L 199.2719 45.156778 
L 199.644454 43.97853 
L 200.203286 42.006088 
L 200.57584 41.280042 
L 201.134672 40.552349 
L 202.252335 38.444778 
L 202.62489 38.617178 
L 202.997444 38.789444 
L 203.183721 38.623414 
L 203.556276 37.638417 
L 204.487662 34.500864 
L 205.232771 32.922572 
L 205.97788 30.988526 
L 206.164157 30.852388 
L 206.350434 30.929687 
L 207.095543 31.963624 
L 207.28182 31.925678 
L 207.654375 31.272745 
L 208.399483 29.452551 
L 209.144592 27.944606 
L 209.889701 25.719012 
L 210.075978 25.505555 
L 210.262256 25.541748 
L 210.63481 26.199962 
L 211.007365 26.998894 
L 211.379919 27.281586 
L 211.752473 27.071893 
L 212.870137 26.224779 
L 213.242691 25.309121 
L 213.9878 23.175186 
L 214.174077 23.047256 
L 214.360354 23.12678 
L 215.105463 23.979474 
L 215.478018 23.931565 
L 215.850572 23.871988 
L 216.223127 24.127194 
L 216.595681 24.463563 
L 216.781958 24.493584 
L 216.968236 24.361125 
L 217.34079 23.629509 
L 217.899622 22.406174 
L 218.085899 22.252637 
L 218.085899 22.252637 
" clip-path="url(#p8f3e1adae3)" style="fill: none; stroke: #1b4332; stroke-width: 1.5; stroke-linecap: square"/>
   </g>
   <g id="line2d_5">
    <path d="M 31.808677 201.634135 
L 32.181232 201.378574 
L 32.740064 200.864351 
L 33.112618 200.930312 
L 33.485172 201.060448 
L 33.857727 200.944432 
L 34.97539 200.273635 
L 35.720499 200.398922 
L 37.955826 199.787578 
L 38.700935 199.296928 
L 39.632321 198.936833 
L 41.122539 197.647865 
L 41.68137 197.35205 
L 42.799034 196.562105 
L 43.544142 196.298743 
L 44.289251 195.642819 
L 44.848083 195.140495 
L 45.593192 194.660055 
L 46.152024 193.995995 
L 46.710855 193.308263 
L 48.201073 192.179194 
L 48.759905 191.577444 
L 49.877568 190.834624 
L 50.808954 189.542319 
L 51.367786 189.408783 
L 51.74034 189.253072 
L 52.299172 188.468582 
L 52.671726 188.06352 
L 53.044281 187.942493 
L 53.603112 187.926222 
L 53.975667 187.525945 
L 54.534499 186.670569 
L 54.907053 186.488189 
L 55.838439 186.617993 
L 56.583548 185.876846 
L 56.956102 185.940797 
L 57.514934 186.344501 
L 57.701211 186.299246 
L 58.073766 185.831422 
L 58.632597 185.116491 
L 59.005152 185.094059 
L 59.563983 185.458347 
L 59.936538 185.276881 
L 60.49537 184.820435 
L 60.867924 184.876129 
L 61.613033 185.633638 
L 61.985587 185.483929 
L 62.544419 185.087135 
L 62.916973 185.182286 
L 63.662082 185.763533 
L 64.034637 185.623602 
L 64.593468 185.397515 
L 64.966023 185.650832 
L 65.524855 186.296063 
L 65.897409 186.368009 
L 66.642518 186.188435 
L 67.760181 186.628043 
L 68.50529 186.404852 
L 68.877845 186.55554 
L 69.436676 186.884843 
L 69.809231 186.853601 
L 70.368062 186.677805 
L 70.926894 186.757457 
L 71.485726 186.78245 
L 72.603389 186.132837 
L 73.348498 186.158379 
L 73.721052 185.872575 
L 74.279884 185.415485 
L 74.838716 185.324067 
L 75.21127 185.281513 
L 75.583825 184.993067 
L 76.328933 184.100807 
L 76.887765 183.868393 
L 77.26032 183.770185 
L 77.632874 183.397505 
L 78.191706 182.686657 
L 78.56426 182.490234 
L 79.309369 182.320078 
L 80.427032 181.187864 
L 81.358418 181.138144 
L 82.476082 180.132203 
L 83.407468 179.942676 
L 84.338854 178.919594 
L 85.456517 178.341636 
L 86.015349 177.707882 
L 86.387903 177.512121 
L 87.133012 177.369672 
L 87.505567 176.949864 
L 88.250676 175.970513 
L 88.809507 175.732019 
L 89.182062 175.533205 
L 89.740893 174.738758 
L 90.299725 174.097471 
L 91.044834 173.60427 
L 91.603666 172.702099 
L 92.162497 171.769449 
L 93.280161 170.561847 
L 94.025269 168.889218 
L 94.397824 168.53303 
L 94.956656 168.220182 
L 95.32921 167.659993 
L 96.074319 166.206895 
L 96.633151 165.78459 
L 97.005705 165.500007 
L 97.378259 164.870406 
L 98.123368 163.40258 
L 99.054754 162.49664 
L 100.358695 159.968143 
L 101.103804 159.516968 
L 101.662636 158.42836 
L 102.221467 157.554648 
L 103.152853 156.914434 
L 104.456794 154.733408 
L 105.015626 154.289203 
L 105.574457 153.210605 
L 106.133289 152.329818 
L 106.505843 152.285143 
L 106.878398 152.420922 
L 107.064675 152.382483 
L 107.437229 151.959676 
L 108.74117 149.702103 
L 109.486279 148.748804 
L 110.04511 148.155387 
L 110.976497 147.849278 
L 111.349051 147.30997 
L 112.280437 145.721643 
L 112.839269 145.014032 
L 113.3981 143.889899 
L 113.956932 142.787127 
L 114.329487 142.42423 
L 115.260873 141.82225 
L 116.75109 140.239771 
L 117.868754 137.88732 
L 118.241308 137.668839 
L 118.986417 137.517524 
L 120.476635 136.345245 
L 120.849189 136.065765 
L 121.780575 134.93704 
L 122.15313 134.910733 
L 123.270793 135.395791 
L 123.829625 135.286662 
L 124.388457 135.507105 
L 124.761011 135.620633 
L 125.133565 135.446947 
L 126.064952 134.572048 
L 126.437506 134.615886 
L 127.182615 135.024853 
L 127.555169 134.957646 
L 128.300278 134.68108 
L 128.672833 134.726096 
L 129.976773 135.389412 
L 130.535605 135.991858 
L 131.094437 136.558637 
L 131.466991 136.636926 
L 132.025823 136.471186 
L 132.770932 135.779205 
L 133.329763 135.388311 
L 133.702318 135.408825 
L 134.074872 135.651504 
L 134.633704 136.390398 
L 135.378813 137.435017 
L 136.310199 138.392349 
L 136.682753 138.428295 
L 137.614139 137.934122 
L 137.986694 138.081872 
L 138.731803 138.5534 
L 139.104357 138.489661 
L 139.849466 138.202978 
L 140.780852 138.39703 
L 141.898515 137.790849 
L 142.829901 138.007146 
L 143.202456 137.641443 
L 144.692674 135.018179 
L 146.369169 131.620611 
L 146.928 130.803777 
L 147.300555 129.79379 
L 148.418218 126.213028 
L 149.535881 123.64079 
L 151.212376 118.715371 
L 152.702594 111.879838 
L 154.751644 105.947654 
L 155.124198 105.158721 
L 155.68303 103.172791 
L 156.241861 101.198703 
L 156.800693 100.042337 
L 157.173248 99.335225 
L 157.732079 97.549158 
L 158.477188 95.266871 
L 159.222297 93.368832 
L 160.33996 89.529989 
L 160.712515 89.15937 
L 161.085069 89.049337 
L 161.457624 88.65377 
L 162.202732 87.58727 
L 163.134119 86.803406 
L 163.506673 85.812115 
L 164.438059 82.871143 
L 164.996891 82.170864 
L 165.742 81.188383 
L 166.300831 80.547665 
L 166.673386 80.467566 
L 167.04594 80.424426 
L 167.418495 80.143229 
L 168.536158 78.756528 
L 169.467544 78.407915 
L 170.026376 77.705364 
L 170.585207 77.16888 
L 171.144039 76.823679 
L 171.516594 76.318483 
L 172.44798 74.432066 
L 172.820534 74.178577 
L 173.379366 74.255876 
L 174.497029 74.383164 
L 175.242138 74.796868 
L 175.428415 74.729083 
L 175.80097 74.262082 
L 176.546079 73.265988 
L 177.10491 73.031403 
L 177.663742 72.714569 
L 178.408851 72.264611 
L 179.340237 71.941852 
L 180.085346 71.157754 
L 180.4579 71.12496 
L 181.016732 71.623131 
L 181.575564 72.019479 
L 182.50695 72.404355 
L 182.879504 72.443446 
L 183.252059 72.093203 
L 183.81089 70.936985 
L 184.369722 69.793003 
L 184.742276 69.378224 
L 185.301108 69.096284 
L 185.673662 69.102499 
L 186.232494 69.369532 
L 186.977603 69.906404 
L 187.350157 69.812625 
L 188.654098 68.967705 
L 189.21293 68.911917 
L 189.771761 68.603596 
L 190.330593 68.310757 
L 190.889425 68.124579 
L 191.261979 67.648679 
L 191.820811 66.29654 
L 192.379642 65.15406 
L 192.752197 64.918367 
L 193.124751 64.97722 
L 194.056137 65.422284 
L 194.987523 66.421595 
L 195.173801 66.351591 
L 195.546355 65.636757 
L 197.22285 60.677476 
L 197.781682 59.861114 
L 198.154236 59.73542 
L 198.526791 59.988698 
L 199.2719 60.783839 
L 199.644454 60.648263 
L 200.203286 59.883859 
L 201.507226 57.855732 
L 202.066058 57.337277 
L 202.438612 57.214893 
L 203.369998 57.245163 
L 203.742553 56.886341 
L 204.115107 56.122114 
L 205.046493 53.890566 
L 205.419048 53.4229 
L 205.791602 53.238125 
L 206.164157 53.253677 
L 206.536711 53.441604 
L 207.095543 54.063518 
L 207.468097 54.474574 
L 207.654375 54.541491 
L 207.840652 54.444522 
L 208.213206 53.69547 
L 209.517147 49.684521 
L 210.262256 48.428167 
L 210.63481 48.137544 
L 211.007365 48.249188 
L 211.752473 48.934583 
L 211.938751 48.921542 
L 212.311305 48.484484 
L 212.870137 47.078032 
L 213.801523 44.833769 
L 214.546632 43.385145 
L 214.919186 43.028277 
L 215.664295 42.618692 
L 216.223127 41.908242 
L 217.154513 40.161993 
L 218.085899 38.138249 
L 218.085899 38.138249 
" clip-path="url(#p8f3e1adae3)" style="fill: none; stroke: #ced4da; stroke-width: 1.5; stroke-linecap: square"/>
   </g>
   <g id="line2d_6">
    <path d="M 31.808677 201.634135 
L 79.495646 201.508467 
L 104.084239 201.269123 
L 121.035467 200.695171 
L 128.300278 200.656868 
L 132.398377 200.630294 
L 138.359248 200.396269 
L 144.320119 199.801077 
L 154.751644 198.496175 
L 155.310475 198.497484 
L 156.800693 198.208199 
L 157.545802 198.22002 
L 158.477188 198.12983 
L 159.594851 198.210739 
L 160.526238 198.114341 
L 161.643901 198.237504 
L 162.38901 198.154629 
L 164.065505 198.290183 
L 164.624336 198.312402 
L 165.555722 198.479847 
L 166.673386 198.521657 
L 167.604772 198.669167 
L 168.722435 198.587757 
L 169.840099 198.716881 
L 170.771485 198.757358 
L 171.702871 198.838088 
L 173.006811 198.759032 
L 174.124475 198.718225 
L 175.428415 198.755893 
L 181.761841 198.681393 
L 184.369722 198.716098 
L 194.614969 198.532244 
L 195.546355 198.609434 
L 196.477741 198.620439 
L 197.781682 198.745002 
L 198.899345 198.889177 
L 199.830731 198.903725 
L 200.762117 198.970147 
L 203.183721 199.192404 
L 209.144592 199.180082 
L 211.193642 198.96994 
L 217.713344 197.983261 
L 218.085899 197.939489 
L 218.085899 197.939489 
" clip-path="url(#p8f3e1adae3)" style="fill: none; stroke: #6c757d; stroke-width: 1.5; stroke-linecap: square"/>
   </g>
   <g id="matplotlib.axis_1">
    <g id="xtick_1">
     <g id="line2d_7">
      <defs>
       <path id="m1449db7971" d="M 0 0 
L 0 3.5 
" style="stroke: #c2c1c1; stroke-width: 0.8"/>
      </defs>
      <g>
       <use xlink:href="#m1449db7971" x="31.808677" y="201.634135" style="fill: #c2c1c1; stroke: #c2c1c1; stroke-width: 0.8"/>
      </g>
     </g>
     <g id="text_1">
      <!-- 0 -->
      <g style="fill: #191919" transform="translate(29.841568 213.884135) scale(0.07 -0.07)">
       <defs>
        <path id="Roboto-Regular-30" d="M 3234 1944 
Q 3234 825 2848 381 
Q 2463 -63 1800 -63 
Q 1156 -63 764 368 
Q 372 800 359 1872 
L 359 2638 
Q 359 3753 750 4183 
Q 1141 4613 1794 4613 
Q 2447 4613 2834 4195 
Q 3222 3778 3234 2709 
L 3234 1944 
z
M 2653 2734 
Q 2653 3503 2434 3822 
Q 2216 4141 1794 4141 
Q 1388 4141 1167 3831 
Q 947 3522 941 2778 
L 941 1850 
Q 941 1088 1164 750 
Q 1388 413 1800 413 
Q 2222 413 2436 745 
Q 2650 1078 2653 1825 
L 2653 2734 
z
" transform="scale(0.015625)"/>
       </defs>
       <use xlink:href="#Roboto-Regular-30"/>
      </g>
     </g>
    </g>
    <g id="xtick_2">
     <g id="line2d_8">
      <g>
       <use xlink:href="#m1449db7971" x="69.064122" y="201.634135" style="fill: #c2c1c1; stroke: #c2c1c1; stroke-width: 0.8"/>
      </g>
     </g>
     <g id="text_2">
      <!-- 200 -->
      <g style="fill: #191919" transform="translate(63.162794 213.884135) scale(0.07 -0.07)">
       <defs>
        <path id="Roboto-Regular-32" d="M 3359 475 
L 3359 0 
L 381 0 
L 381 416 
L 1925 2134 
Q 2306 2566 2439 2819 
Q 2572 3072 2572 3328 
Q 2572 3663 2364 3900 
Q 2156 4138 1778 4138 
Q 1322 4138 1097 3878 
Q 872 3619 872 3213 
L 294 3213 
Q 294 3788 672 4200 
Q 1050 4613 1778 4613 
Q 2422 4613 2786 4278 
Q 3150 3944 3150 3397 
Q 3150 2997 2903 2592 
Q 2656 2188 2297 1797 
L 1078 475 
L 3359 475 
z
" transform="scale(0.015625)"/>
       </defs>
       <use xlink:href="#Roboto-Regular-32"/>
       <use xlink:href="#Roboto-Regular-30" x="56.201172"/>
       <use xlink:href="#Roboto-Regular-30" x="112.402344"/>
      </g>
     </g>
    </g>
    <g id="xtick_3">
     <g id="line2d_9">
      <g>
       <use xlink:href="#m1449db7971" x="106.319566" y="201.634135" style="fill: #c2c1c1; stroke: #c2c1c1; stroke-width: 0.8"/>
      </g>
     </g>
     <g id="text_3">
      <!-- 400 -->
      <g style="fill: #191919" transform="translate(100.418238 213.884135) scale(0.07 -0.07)">
       <defs>
        <path id="Roboto-Regular-34" d="M 166 1397 
L 2203 4550 
L 2819 4550 
L 2819 1531 
L 3453 1531 
L 3453 1056 
L 2819 1056 
L 2819 0 
L 2241 0 
L 2241 1056 
L 166 1056 
L 166 1397 
z
M 822 1531 
L 2241 1531 
L 2241 3766 
L 2169 3638 
L 822 1531 
z
" transform="scale(0.015625)"/>
       </defs>
       <use xlink:href="#Roboto-Regular-34"/>
       <use xlink:href="#Roboto-Regular-30" x="56.201172"/>
       <use xlink:href="#Roboto-Regular-30" x="112.402344"/>
      </g>
     </g>
    </g>
    <g id="xtick_4">
     <g id="line2d_10">
      <g>
       <use xlink:href="#m1449db7971" x="143.57501" y="201.634135" style="fill: #c2c1c1; stroke: #c2c1c1; stroke-width: 0.8"/>
      </g>
     </g>
     <g id="text_4">
      <!-- 600 -->
      <g style="fill: #191919" transform="translate(137.673682 213.884135) scale(0.07 -0.07)">
       <defs>
        <path id="Roboto-Regular-36" d="M 3291 1484 
Q 3291 838 2930 387 
Q 2569 -63 1878 -63 
Q 1388 -63 1063 198 
Q 738 459 577 861 
Q 416 1263 416 1684 
L 416 1956 
Q 416 2597 595 3194 
Q 775 3791 1247 4173 
Q 1719 4556 2597 4556 
L 2647 4556 
L 2647 4066 
Q 2041 4066 1705 3853 
Q 1369 3641 1205 3302 
Q 1041 2963 1006 2575 
Q 1369 2984 1984 2984 
Q 2438 2984 2727 2765 
Q 3016 2547 3153 2201 
Q 3291 1856 3291 1484 
z
M 997 1666 
Q 997 1059 1267 737 
Q 1538 416 1878 416 
Q 2278 416 2498 708 
Q 2719 1000 2719 1456 
Q 2719 1863 2516 2184 
Q 2313 2506 1891 2506 
Q 1588 2506 1341 2325 
Q 1094 2144 997 1884 
L 997 1666 
z
" transform="scale(0.015625)"/>
       </defs>
       <use xlink:href="#Roboto-Regular-36"/>
       <use xlink:href="#Roboto-Regular-30" x="56.201172"/>
       <use xlink:href="#Roboto-Regular-30" x="112.402344"/>
      </g>
     </g>
    </g>
    <g id="xtick_5">
     <g id="line2d_11">
      <g>
       <use xlink:href="#m1449db7971" x="180.830455" y="201.634135" style="fill: #c2c1c1; stroke: #c2c1c1; stroke-width: 0.8"/>
      </g>
     </g>
     <g id="text_5">
      <!-- 800 -->
      <g style="fill: #191919" transform="translate(174.929127 213.884135) scale(0.07 -0.07)">
       <defs>
        <path id="Roboto-Regular-38" d="M 3244 1231 
Q 3244 606 2826 271 
Q 2409 -63 1796 -63 
Q 1184 -63 767 271 
Q 350 606 350 1231 
Q 350 1613 554 1905 
Q 759 2197 1109 2347 
Q 806 2494 629 2762 
Q 453 3031 453 3366 
Q 453 3963 833 4288 
Q 1213 4613 1794 4613 
Q 2378 4613 2758 4288 
Q 3138 3963 3138 3366 
Q 3138 3028 2956 2761 
Q 2775 2494 2472 2347 
Q 2825 2197 3034 1903 
Q 3244 1609 3244 1231 
z
M 2559 3356 
Q 2559 3697 2346 3917 
Q 2134 4138 1793 4138 
Q 1453 4138 1243 3927 
Q 1034 3716 1034 3356 
Q 1034 3003 1243 2790 
Q 1453 2578 1797 2578 
Q 2138 2578 2348 2790 
Q 2559 3003 2559 3356 
z
M 2663 1244 
Q 2663 1625 2420 1865 
Q 2178 2106 1791 2106 
Q 1394 2106 1161 1865 
Q 928 1625 928 1244 
Q 928 850 1161 631 
Q 1394 413 1797 413 
Q 2200 413 2431 631 
Q 2663 850 2663 1244 
z
" transform="scale(0.015625)"/>
       </defs>
       <use xlink:href="#Roboto-Regular-38"/>
       <use xlink:href="#Roboto-Regular-30" x="56.201172"/>
       <use xlink:href="#Roboto-Regular-30" x="112.402344"/>
      </g>
     </g>
    </g>
    <g id="xtick_6">
     <g id="line2d_12">
      <g>
       <use xlink:href="#m1449db7971" x="218.085899" y="201.634135" style="fill: #c2c1c1; stroke: #c2c1c1; stroke-width: 0.8"/>
      </g>
     </g>
     <g id="text_6">
      <!-- 1000 -->
      <g style="fill: #191919" transform="translate(210.217461 213.884135) scale(0.07 -0.07)">
       <defs>
        <path id="Roboto-Regular-31" d="M 2278 4575 
L 2278 0 
L 1700 0 
L 1700 3853 
L 534 3428 
L 534 3950 
L 2188 4575 
L 2278 4575 
z
" transform="scale(0.015625)"/>
       </defs>
       <use xlink:href="#Roboto-Regular-31"/>
       <use xlink:href="#Roboto-Regular-30" x="56.201172"/>
       <use xlink:href="#Roboto-Regular-30" x="112.402344"/>
       <use xlink:href="#Roboto-Regular-30" x="168.603516"/>
      </g>
     </g>
    </g>
    <g id="text_7">
     <!-- Time (fs) -->
     <g style="fill: #191919" transform="translate(113.141094 225.62226) scale(0.08 -0.08)">
      <defs>
       <path id="Roboto-Bold-54" d="M 128 3791 
L 128 4550 
L 3831 4550 
L 3831 3791 
L 2441 3791 
L 2441 0 
L 1503 0 
L 1503 3791 
L 128 3791 
z
" transform="scale(0.015625)"/>
       <path id="Roboto-Bold-69" d="M 341 4256 
Q 341 4459 478 4592 
Q 616 4725 847 4725 
Q 1078 4725 1215 4592 
Q 1353 4459 1353 4256 
Q 1353 4056 1215 3923 
Q 1078 3791 847 3791 
Q 616 3791 478 3923 
Q 341 4056 341 4256 
z
M 1303 3381 
L 1303 0 
L 397 0 
L 397 3381 
L 1303 3381 
z
" transform="scale(0.015625)"/>
       <path id="Roboto-Bold-6d" d="M 1806 2713 
Q 1431 2713 1253 2394 
L 1253 0 
L 347 0 
L 347 3381 
L 1197 3381 
L 1228 3009 
Q 1581 3444 2197 3444 
Q 2850 3444 3094 2928 
Q 3441 3444 4109 3444 
Q 4597 3444 4894 3156 
Q 5191 2869 5194 2169 
L 5194 0 
L 4288 0 
L 4288 2156 
Q 4288 2494 4152 2603 
Q 4016 2713 3781 2713 
Q 3381 2713 3222 2334 
L 3222 0 
L 2319 0 
L 2319 2150 
Q 2319 2484 2181 2598 
Q 2044 2713 1806 2713 
z
" transform="scale(0.015625)"/>
       <path id="Roboto-Bold-65" d="M 3225 550 
Q 3063 319 2731 128 
Q 2400 -63 1906 -63 
Q 1119 -63 675 414 
Q 231 891 228 1566 
L 228 1697 
Q 228 2463 654 2953 
Q 1081 3444 1806 3444 
Q 2534 3444 2915 2987 
Q 3297 2531 3297 1781 
L 3297 1397 
L 1144 1397 
Q 1191 1069 1403 867 
Q 1616 666 1963 666 
Q 2478 666 2778 1044 
L 3225 550 
z
M 1800 2716 
Q 1513 2716 1356 2522 
Q 1200 2328 1153 2016 
L 2409 2016 
L 2409 2084 
Q 2403 2356 2258 2536 
Q 2113 2716 1800 2716 
z
" transform="scale(0.015625)"/>
       <path id="Roboto-Bold-20" transform="scale(0.015625)"/>
       <path id="Roboto-Bold-28" d="M 391 1850 
Q 391 2731 633 3392 
Q 875 4053 1234 4473 
Q 1594 4894 1947 5053 
L 2122 4566 
Q 1772 4303 1465 3661 
Q 1159 3019 1153 1906 
L 1153 1772 
Q 1153 628 1461 -23 
Q 1769 -675 2122 -944 
L 1947 -1422 
Q 1594 -1266 1234 -845 
Q 875 -425 633 237 
Q 391 900 391 1778 
L 391 1850 
z
" transform="scale(0.015625)"/>
       <path id="Roboto-Bold-66" d="M 2172 2722 
L 1500 2722 
L 1500 0 
L 594 0 
L 594 2722 
L 91 2722 
L 91 3381 
L 594 3381 
L 594 3675 
Q 594 4253 928 4559 
Q 1263 4866 1834 4866 
Q 2053 4866 2297 4803 
L 2288 4103 
Q 2169 4131 2009 4131 
Q 1509 4131 1500 3691 
L 1500 3381 
L 2172 3381 
L 2172 2722 
z
" transform="scale(0.015625)"/>
       <path id="Roboto-Bold-73" d="M 2178 938 
Q 2178 1081 2045 1179 
Q 1913 1278 1475 1372 
Q 953 1484 618 1721 
Q 284 1959 284 2394 
Q 284 2816 642 3130 
Q 1000 3444 1631 3444 
Q 2291 3444 2669 3134 
Q 3047 2825 3047 2353 
L 2144 2353 
Q 2144 2547 2019 2675 
Q 1894 2803 1628 2803 
Q 1403 2803 1276 2698 
Q 1150 2594 1150 2438 
Q 1150 2294 1284 2200 
Q 1419 2106 1781 2034 
Q 2331 1925 2693 1700 
Q 3056 1475 3056 972 
Q 3056 525 2672 231 
Q 2288 -63 1634 -63 
Q 925 -63 550 301 
Q 175 666 175 1078 
L 1034 1078 
Q 1047 813 1230 697 
Q 1413 581 1653 581 
Q 2178 581 2178 938 
z
" transform="scale(0.015625)"/>
       <path id="Roboto-Bold-29" d="M 1906 1778 
Q 1906 928 1656 264 
Q 1406 -400 1034 -833 
Q 663 -1266 300 -1422 
L 125 -944 
Q 472 -684 780 -37 
Q 1088 609 1094 1722 
L 1094 1856 
Q 1094 3000 780 3656 
Q 466 4313 125 4572 
L 300 5053 
Q 663 4894 1034 4461 
Q 1406 4028 1656 3364 
Q 1906 2700 1906 1847 
L 1906 1778 
z
" transform="scale(0.015625)"/>
      </defs>
      <use xlink:href="#Roboto-Bold-54"/>
      <use xlink:href="#Roboto-Bold-69" x="61.865234"/>
      <use xlink:href="#Roboto-Bold-6d" x="88.378906"/>
      <use xlink:href="#Roboto-Bold-65" x="174.951172"/>
      <use xlink:href="#Roboto-Bold-20" x="229.003906"/>
      <use xlink:href="#Roboto-Bold-28" x="253.90625"/>
      <use xlink:href="#Roboto-Bold-66" x="289.013672"/>
      <use xlink:href="#Roboto-Bold-73" x="324.853516"/>
      <use xlink:href="#Roboto-Bold-29" x="376.318359"/>
     </g>
    </g>
   </g>
   <g id="matplotlib.axis_2">
    <g id="ytick_1">
     <g id="line2d_13">
      <defs>
       <path id="m074607f8f2" d="M 0 0 
L -3.5 0 
" style="stroke: #c2c1c1; stroke-width: 0.8"/>
      </defs>
      <g>
       <use xlink:href="#m074607f8f2" x="31.808677" y="201.634135" style="fill: #c2c1c1; stroke: #c2c1c1; stroke-width: 0.8"/>
      </g>
     </g>
     <g id="text_8">
      <!-- 0.0 -->
      <g style="fill: #191919" transform="translate(15.09399 204.259135) scale(0.07 -0.07)">
       <defs>
        <path id="Roboto-Regular-2e" d="M 450 306 
Q 450 453 542 554 
Q 634 656 809 656 
Q 984 656 1076 554 
Q 1169 453 1169 306 
Q 1169 163 1076 62 
Q 984 -38 809 -38 
Q 634 -38 542 62 
Q 450 163 450 306 
z
" transform="scale(0.015625)"/>
       </defs>
       <use xlink:href="#Roboto-Regular-30"/>
       <use xlink:href="#Roboto-Regular-2e" x="56.201172"/>
       <use xlink:href="#Roboto-Regular-30" x="82.568359"/>
      </g>
     </g>
    </g>
    <g id="ytick_2">
     <g id="line2d_14">
      <g>
       <use xlink:href="#m074607f8f2" x="31.808677" y="166.954252" style="fill: #c2c1c1; stroke: #c2c1c1; stroke-width: 0.8"/>
      </g>
     </g>
     <g id="text_9">
      <!-- 0.5 -->
      <g style="fill: #191919" transform="translate(15.09399 169.579252) scale(0.07 -0.07)">
       <defs>
        <path id="Roboto-Regular-35" d="M 1109 2166 
L 647 2284 
L 875 4550 
L 3209 4550 
L 3209 4016 
L 1366 4016 
L 1228 2778 
Q 1572 2975 1988 2975 
Q 2616 2975 2980 2561 
Q 3344 2147 3344 1450 
Q 3344 797 2987 367 
Q 2631 -63 1903 -63 
Q 1350 -63 947 248 
Q 544 559 481 1197 
L 1031 1197 
Q 1141 413 1903 413 
Q 2313 413 2538 691 
Q 2763 969 2763 1444 
Q 2763 1872 2527 2164 
Q 2291 2456 1853 2456 
Q 1563 2456 1413 2378 
Q 1263 2300 1109 2166 
z
" transform="scale(0.015625)"/>
       </defs>
       <use xlink:href="#Roboto-Regular-30"/>
       <use xlink:href="#Roboto-Regular-2e" x="56.201172"/>
       <use xlink:href="#Roboto-Regular-35" x="82.568359"/>
      </g>
     </g>
    </g>
    <g id="ytick_3">
     <g id="line2d_15">
      <g>
       <use xlink:href="#m074607f8f2" x="31.808677" y="132.274368" style="fill: #c2c1c1; stroke: #c2c1c1; stroke-width: 0.8"/>
      </g>
     </g>
     <g id="text_10">
      <!-- 1.0 -->
      <g style="fill: #191919" transform="translate(15.09399 134.899368) scale(0.07 -0.07)">
       <use xlink:href="#Roboto-Regular-31"/>
       <use xlink:href="#Roboto-Regular-2e" x="56.201172"/>
       <use xlink:href="#Roboto-Regular-30" x="82.568359"/>
      </g>
     </g>
    </g>
    <g id="ytick_4">
     <g id="line2d_16">
      <g>
       <use xlink:href="#m074607f8f2" x="31.808677" y="97.594485" style="fill: #c2c1c1; stroke: #c2c1c1; stroke-width: 0.8"/>
      </g>
     </g>
     <g id="text_11">
      <!-- 1.5 -->
      <g style="fill: #191919" transform="translate(15.09399 100.219485) scale(0.07 -0.07)">
       <use xlink:href="#Roboto-Regular-31"/>
       <use xlink:href="#Roboto-Regular-2e" x="56.201172"/>
       <use xlink:href="#Roboto-Regular-35" x="82.568359"/>
      </g>
     </g>
    </g>
    <g id="ytick_5">
     <g id="line2d_17">
      <g>
       <use xlink:href="#m074607f8f2" x="31.808677" y="62.914602" style="fill: #c2c1c1; stroke: #c2c1c1; stroke-width: 0.8"/>
      </g>
     </g>
     <g id="text_12">
      <!-- 2.0 -->
      <g style="fill: #191919" transform="translate(15.09399 65.539602) scale(0.07 -0.07)">
       <use xlink:href="#Roboto-Regular-32"/>
       <use xlink:href="#Roboto-Regular-2e" x="56.201172"/>
       <use xlink:href="#Roboto-Regular-30" x="82.568359"/>
      </g>
     </g>
    </g>
    <g id="ytick_6">
     <g id="line2d_18">
      <g>
       <use xlink:href="#m074607f8f2" x="31.808677" y="28.234719" style="fill: #c2c1c1; stroke: #c2c1c1; stroke-width: 0.8"/>
      </g>
     </g>
     <g id="text_13">
      <!-- 2.5 -->
      <g style="fill: #191919" transform="translate(15.09399 30.859719) scale(0.07 -0.07)">
       <use xlink:href="#Roboto-Regular-32"/>
       <use xlink:href="#Roboto-Regular-2e" x="56.201172"/>
       <use xlink:href="#Roboto-Regular-35" x="82.568359"/>
      </g>
     </g>
    </g>
    <g id="text_14">
     <!-- RMSD (Ang.) -->
     <g style="fill: #191919" transform="translate(9.31649 125.627188) rotate(-90) scale(0.08 -0.08)">
      <defs>
       <path id="Roboto-Bold-52" d="M 2944 0 
L 2094 1669 
L 1347 1669 
L 1347 0 
L 406 0 
L 406 4550 
L 2100 4550 
Q 2884 4550 3332 4198 
Q 3781 3847 3781 3175 
Q 3781 2681 3562 2378 
Q 3344 2075 2969 1906 
L 3953 44 
L 3953 0 
L 2944 0 
z
M 1347 3791 
L 1347 2425 
L 2100 2425 
Q 2469 2425 2655 2611 
Q 2841 2797 2841 3103 
Q 2841 3419 2659 3605 
Q 2478 3791 2100 3791 
L 1347 3791 
z
" transform="scale(0.015625)"/>
       <path id="Roboto-Bold-4d" d="M 2800 1250 
L 3966 4550 
L 5194 4550 
L 5194 0 
L 4253 0 
L 4253 1244 
L 4347 3381 
L 3122 0 
L 2478 0 
L 1253 3381 
L 1347 1244 
L 1347 0 
L 406 0 
L 406 4550 
L 1634 4550 
L 2800 1250 
z
" transform="scale(0.015625)"/>
       <path id="Roboto-Bold-53" d="M 2769 1194 
Q 2769 1422 2612 1573 
Q 2456 1725 1854 1920 
Q 1253 2116 816 2425 
Q 356 2747 356 3341 
Q 356 3913 828 4263 
Q 1300 4613 2038 4613 
Q 2794 4613 3250 4217 
Q 3706 3822 3706 3209 
L 2769 3209 
Q 2769 3497 2584 3681 
Q 2400 3866 2022 3866 
Q 1653 3866 1473 3711 
Q 1294 3556 1294 3338 
Q 1294 3113 1525 2963 
Q 1756 2813 2197 2678 
Q 2944 2450 3326 2106 
Q 3709 1763 3709 1200 
Q 3709 603 3259 270 
Q 2809 -63 2059 -63 
Q 1606 -63 1184 96 
Q 763 256 491 587 
Q 219 919 219 1434 
L 1159 1434 
Q 1159 1019 1407 850 
Q 1656 681 2059 681 
Q 2422 681 2595 828 
Q 2769 975 2769 1194 
z
" transform="scale(0.015625)"/>
       <path id="Roboto-Bold-44" d="M 406 0 
L 406 4550 
L 1809 4550 
Q 2728 4550 3308 3950 
Q 3888 3350 3888 2375 
L 3888 2172 
Q 3888 1197 3308 598 
Q 2728 0 1797 0 
L 406 0 
z
M 1347 3791 
L 1347 756 
L 1797 756 
Q 2350 756 2639 1115 
Q 2928 1475 2934 2144 
L 2934 2381 
Q 2934 3075 2661 3428 
Q 2388 3781 1838 3791 
L 1347 3791 
z
" transform="scale(0.015625)"/>
       <path id="Roboto-Bold-41" d="M 25 0 
L 1719 4550 
L 2588 4550 
L 4291 0 
L 3291 0 
L 2978 938 
L 1331 938 
L 1019 0 
L 25 0 
z
M 1584 1697 
L 2725 1697 
L 2156 3406 
L 1584 1697 
z
" transform="scale(0.015625)"/>
       <path id="Roboto-Bold-6e" d="M 1806 2713 
Q 1422 2713 1234 2388 
L 1234 0 
L 331 0 
L 331 3381 
L 1178 3381 
L 1209 2994 
Q 1572 3444 2181 3444 
Q 2659 3444 2953 3159 
Q 3247 2875 3250 2169 
L 3250 0 
L 2344 0 
L 2344 2156 
Q 2344 2481 2205 2597 
Q 2066 2713 1806 2713 
z
" transform="scale(0.015625)"/>
       <path id="Roboto-Bold-67" d="M 1681 -1331 
Q 1375 -1331 1008 -1203 
Q 641 -1075 422 -803 
L 822 -253 
Q 1156 -628 1644 -628 
Q 2003 -628 2203 -436 
Q 2403 -244 2403 113 
L 2403 294 
Q 2084 -63 1581 -63 
Q 953 -63 587 418 
Q 222 900 216 1625 
L 216 1716 
Q 216 2488 583 2966 
Q 950 3444 1588 3444 
Q 2147 3444 2456 3063 
L 2491 3381 
L 3309 3381 
L 3309 116 
Q 3309 -581 2857 -956 
Q 2406 -1331 1681 -1331 
z
M 1119 1650 
Q 1119 1244 1286 958 
Q 1453 672 1809 672 
Q 2222 672 2403 984 
L 2403 2403 
Q 2225 2713 1816 2713 
Q 1463 2713 1291 2423 
Q 1119 2134 1119 1716 
L 1119 1650 
z
" transform="scale(0.015625)"/>
       <path id="Roboto-Bold-2e" d="M 394 447 
Q 394 653 533 792 
Q 672 931 906 931 
Q 1141 931 1278 792 
Q 1416 653 1416 447 
Q 1416 244 1278 105 
Q 1141 -34 906 -34 
Q 672 -34 533 105 
Q 394 244 394 447 
z
" transform="scale(0.015625)"/>
      </defs>
      <use xlink:href="#Roboto-Bold-52"/>
      <use xlink:href="#Roboto-Bold-4d" x="63.818359"/>
      <use xlink:href="#Roboto-Bold-53" x="151.416016"/>
      <use xlink:href="#Roboto-Bold-44" x="212.890625"/>
      <use xlink:href="#Roboto-Bold-20" x="277.929688"/>
      <use xlink:href="#Roboto-Bold-28" x="302.832031"/>
      <use xlink:href="#Roboto-Bold-41" x="337.939453"/>
      <use xlink:href="#Roboto-Bold-6e" x="405.273438"/>
      <use xlink:href="#Roboto-Bold-67" x="461.279297"/>
      <use xlink:href="#Roboto-Bold-2e" x="518.408203"/>
      <use xlink:href="#Roboto-Bold-29" x="547.509766"/>
     </g>
    </g>
   </g>
   <g id="patch_3">
    <path d="M 31.808677 201.634135 
L 31.808677 3.00024 
" style="fill: none; stroke: #c2c1c1; stroke-width: 0.8; stroke-linejoin: miter; stroke-linecap: square"/>
   </g>
   <g id="patch_4">
    <path d="M 227.39976 201.634135 
L 227.39976 3.00024 
" style="fill: none; stroke: #c2c1c1; stroke-width: 0.8; stroke-linejoin: miter; stroke-linecap: square"/>
   </g>
   <g id="patch_5">
    <path d="M 31.808677 201.634135 
L 227.39976 201.634135 
" style="fill: none; stroke: #c2c1c1; stroke-width: 0.8; stroke-linejoin: miter; stroke-linecap: square"/>
   </g>
   <g id="patch_6">
    <path d="M 31.808677 3.00024 
L 227.39976 3.00024 
" style="fill: none; stroke: #c2c1c1; stroke-width: 0.8; stroke-linejoin: miter; stroke-linecap: square"/>
   </g>
   <g id="legend_1">
    <g id="line2d_19">
     <path d="M 39.008678 13.40024 
L 47.008678 13.40024 
L 55.008678 13.40024 
" style="fill: none; stroke: #6c757d; stroke-width: 1.5; stroke-linecap: square"/>
    </g>
    <g id="text_15">
     <!-- RI-MP2 -->
     <g transform="translate(61.408678 16.20024) scale(0.08 -0.08)">
      <defs>
       <path id="Roboto-Regular-52" d="M 3188 0 
L 2200 1844 
L 1131 1844 
L 1131 0 
L 528 0 
L 528 4550 
L 2034 4550 
Q 2800 4550 3214 4200 
Q 3628 3850 3628 3184 
Q 3628 2759 3398 2442 
Q 3169 2125 2763 1969 
L 3831 38 
L 3831 0 
L 3188 0 
z
M 1131 4056 
L 1131 2334 
L 2053 2334 
Q 2538 2334 2783 2582 
Q 3028 2831 3028 3184 
Q 3028 3578 2792 3817 
Q 2556 4056 2034 4056 
L 1131 4056 
z
" transform="scale(0.015625)"/>
       <path id="Roboto-Regular-49" d="M 1175 4550 
L 1175 0 
L 572 0 
L 572 4550 
L 1175 4550 
z
" transform="scale(0.015625)"/>
       <path id="Roboto-Regular-2d" d="M 1644 2172 
L 1644 1697 
L 119 1697 
L 119 2172 
L 1644 2172 
z
" transform="scale(0.015625)"/>
       <path id="Roboto-Regular-4d" d="M 2794 841 
L 4281 4550 
L 5056 4550 
L 5056 0 
L 4456 0 
L 4456 1775 
L 4516 3678 
L 3019 0 
L 2563 0 
L 1069 3684 
L 1128 1775 
L 1128 0 
L 528 0 
L 528 4550 
L 1303 4550 
L 2794 841 
z
" transform="scale(0.015625)"/>
       <path id="Roboto-Regular-50" d="M 1131 1784 
L 1131 0 
L 528 0 
L 528 4550 
L 2206 4550 
Q 2981 4550 3392 4159 
Q 3803 3769 3803 3163 
Q 3803 2503 3392 2143 
Q 2981 1784 2206 1784 
L 1131 1784 
z
M 1131 4056 
L 1131 2275 
L 2206 2275 
Q 2738 2275 2969 2522 
Q 3200 2769 3200 3156 
Q 3200 3506 2969 3781 
Q 2738 4056 2206 4056 
L 1131 4056 
z
" transform="scale(0.015625)"/>
      </defs>
      <use xlink:href="#Roboto-Regular-52"/>
      <use xlink:href="#Roboto-Regular-49" x="61.621094"/>
      <use xlink:href="#Roboto-Regular-2d" x="88.818359"/>
      <use xlink:href="#Roboto-Regular-4d" x="116.455078"/>
      <use xlink:href="#Roboto-Regular-50" x="203.759766"/>
      <use xlink:href="#Roboto-Regular-32" x="266.845703"/>
     </g>
    </g>
    <g id="line2d_20">
     <path d="M 39.008678 25.02524 
L 47.008678 25.02524 
L 55.008678 25.02524 
" style="fill: none; stroke: #ced4da; stroke-width: 1.5; stroke-linecap: square"/>
    </g>
    <g id="text_16">
     <!-- def2-SVP -->
     <g transform="translate(61.408678 27.82524) scale(0.08 -0.08)">
      <defs>
       <path id="Roboto-Regular-64" d="M 2622 0 
L 2594 363 
Q 2247 -63 1628 -63 
Q 1034 -63 668 418 
Q 303 900 297 1628 
L 297 1719 
Q 297 2494 664 2969 
Q 1031 3444 1634 3444 
Q 2231 3444 2572 3044 
L 2572 4800 
L 3153 4800 
L 3153 0 
L 2622 0 
z
M 878 1653 
Q 878 1150 1090 789 
Q 1303 428 1772 428 
Q 2309 428 2572 919 
L 2572 2475 
Q 2313 2956 1778 2956 
Q 1306 2956 1092 2589 
Q 878 2222 878 1719 
L 878 1653 
z
" transform="scale(0.015625)"/>
       <path id="Roboto-Regular-65" d="M 3116 591 
Q 2950 341 2647 139 
Q 2344 -63 1844 -63 
Q 1138 -63 714 396 
Q 291 856 291 1572 
L 291 1703 
Q 291 2256 502 2645 
Q 713 3034 1050 3239 
Q 1388 3444 1769 3444 
Q 2494 3444 2826 2970 
Q 3159 2497 3159 1788 
L 3159 1528 
L 872 1528 
Q 884 1063 1148 736 
Q 1413 409 1875 409 
Q 2181 409 2393 534 
Q 2606 659 2766 869 
L 3116 591 
z
M 1769 2969 
Q 1425 2969 1187 2719 
Q 950 2469 891 2000 
L 2581 2000 
L 2581 2044 
Q 2559 2381 2386 2675 
Q 2213 2969 1769 2969 
z
" transform="scale(0.015625)"/>
       <path id="Roboto-Regular-66" d="M 2022 2938 
L 1303 2938 
L 1303 0 
L 725 0 
L 725 2938 
L 191 2938 
L 191 3381 
L 725 3381 
L 725 3759 
Q 731 4297 1026 4581 
Q 1322 4866 1834 4866 
Q 2025 4866 2234 4816 
L 2203 4344 
Q 2072 4372 1891 4372 
Q 1313 4372 1303 3756 
L 1303 3381 
L 2022 3381 
L 2022 2938 
z
" transform="scale(0.015625)"/>
       <path id="Roboto-Regular-53" d="M 2953 1150 
Q 2953 1463 2742 1650 
Q 2531 1838 1856 2036 
Q 1181 2234 789 2542 
Q 397 2850 397 3375 
Q 397 3906 820 4259 
Q 1244 4613 1944 4613 
Q 2713 4613 3130 4191 
Q 3547 3769 3547 3238 
L 2947 3238 
Q 2947 3619 2700 3869 
Q 2453 4119 1944 4119 
Q 1463 4119 1231 3908 
Q 1000 3697 1000 3381 
Q 1000 3097 1245 2908 
Q 1491 2719 2044 2563 
Q 2834 2341 3196 2014 
Q 3559 1688 3559 1156 
Q 3559 600 3125 268 
Q 2691 -63 1972 -63 
Q 1553 -63 1158 93 
Q 763 250 508 558 
Q 253 866 253 1319 
L 853 1319 
Q 853 853 1193 640 
Q 1534 428 1972 428 
Q 2444 428 2698 623 
Q 2953 819 2953 1150 
z
" transform="scale(0.015625)"/>
       <path id="Roboto-Regular-56" d="M 3991 4550 
L 2306 0 
L 1772 0 
L 91 4550 
L 744 4550 
L 2034 800 
L 3338 4550 
L 3991 4550 
z
" transform="scale(0.015625)"/>
      </defs>
      <use xlink:href="#Roboto-Regular-64"/>
      <use xlink:href="#Roboto-Regular-65" x="56.396484"/>
      <use xlink:href="#Roboto-Regular-66" x="109.423828"/>
      <use xlink:href="#Roboto-Regular-32" x="144.189453"/>
      <use xlink:href="#Roboto-Regular-2d" x="200.390625"/>
      <use xlink:href="#Roboto-Regular-53" x="228.027344"/>
      <use xlink:href="#Roboto-Regular-56" x="287.402344"/>
      <use xlink:href="#Roboto-Regular-50" x="351.074219"/>
     </g>
    </g>
    <g id="line2d_21">
     <path d="M 39.008678 36.65024 
L 47.008678 36.65024 
L 55.008678 36.65024 
" style="fill: none; stroke: #1b4332; stroke-width: 1.5; stroke-linecap: square"/>
    </g>
    <g id="text_17">
     <!-- mbGDML -->
     <g transform="translate(61.408678 39.45024) scale(0.08 -0.08)">
      <defs>
       <path id="Roboto-Regular-6d" d="M 1794 2956 
Q 1225 2956 1016 2478 
L 1016 0 
L 434 0 
L 434 3381 
L 984 3381 
L 1000 3013 
Q 1366 3444 2000 3444 
Q 2325 3444 2579 3314 
Q 2834 3184 2969 2900 
Q 3138 3144 3408 3294 
Q 3678 3444 4044 3444 
Q 4588 3444 4883 3153 
Q 5178 2863 5178 2222 
L 5178 0 
L 4597 0 
L 4597 2228 
Q 4597 2653 4401 2804 
Q 4206 2956 3875 2956 
Q 3525 2956 3325 2748 
Q 3125 2541 3094 2244 
L 3094 0 
L 2516 0 
L 2516 2225 
Q 2516 2622 2319 2789 
Q 2122 2956 1794 2956 
z
" transform="scale(0.015625)"/>
       <path id="Roboto-Regular-62" d="M 3303 1653 
Q 3303 913 2959 425 
Q 2616 -63 1988 -63 
Q 1347 -63 1000 391 
L 969 0 
L 438 0 
L 438 4800 
L 1019 4800 
L 1019 3016 
Q 1363 3444 1981 3444 
Q 2619 3444 2961 2969 
Q 3303 2494 3303 1719 
L 3303 1653 
z
M 1838 2956 
Q 1522 2956 1325 2804 
Q 1128 2653 1019 2431 
L 1019 959 
Q 1131 734 1331 581 
Q 1531 428 1844 428 
Q 2313 428 2517 789 
Q 2722 1150 2722 1653 
L 2722 1719 
Q 2722 2222 2526 2589 
Q 2331 2956 1838 2956 
z
" transform="scale(0.015625)"/>
       <path id="Roboto-Regular-47" d="M 3891 2266 
L 3891 600 
Q 3763 413 3403 175 
Q 3044 -63 2281 -63 
Q 1450 -63 915 507 
Q 381 1078 381 2100 
L 381 2453 
Q 381 3469 856 4041 
Q 1331 4613 2213 4613 
Q 2994 4613 3398 4219 
Q 3803 3825 3891 3219 
L 3288 3219 
Q 3225 3588 2979 3853 
Q 2734 4119 2213 4119 
Q 1584 4119 1287 3676 
Q 991 3234 988 2475 
L 988 2100 
Q 988 1313 1344 870 
Q 1700 428 2284 428 
Q 2769 428 2984 542 
Q 3200 656 3291 759 
L 3291 1778 
L 2238 1778 
L 2238 2266 
L 3891 2266 
z
" transform="scale(0.015625)"/>
       <path id="Roboto-Regular-44" d="M 528 0 
L 528 4550 
L 1816 4550 
Q 2713 4550 3267 3973 
Q 3822 3397 3822 2409 
L 3822 2138 
Q 3822 1150 3264 575 
Q 2706 0 1759 0 
L 528 0 
z
M 1131 4056 
L 1131 491 
L 1759 491 
Q 2488 491 2856 941 
Q 3225 1391 3225 2138 
L 3225 2416 
Q 3225 3200 2856 3628 
Q 2488 4056 1816 4056 
L 1131 4056 
z
" transform="scale(0.015625)"/>
       <path id="Roboto-Regular-4c" d="M 3288 491 
L 3288 0 
L 528 0 
L 528 4550 
L 1131 4550 
L 1131 491 
L 3288 491 
z
" transform="scale(0.015625)"/>
      </defs>
      <use xlink:href="#Roboto-Regular-6d"/>
      <use xlink:href="#Roboto-Regular-62" x="87.695312"/>
      <use xlink:href="#Roboto-Regular-47" x="143.847656"/>
      <use xlink:href="#Roboto-Regular-44" x="211.962891"/>
      <use xlink:href="#Roboto-Regular-4d" x="277.587891"/>
      <use xlink:href="#Roboto-Regular-4c" x="364.892578"/>
     </g>
    </g>
    <g id="line2d_22">
     <path d="M 39.008678 48.27524 
L 47.008678 48.27524 
L 55.008678 48.27524 
" style="fill: none; stroke: #2d6a4f; stroke-width: 1.5; stroke-linecap: square"/>
    </g>
    <g id="text_18">
     <!-- mbGAP -->
     <g transform="translate(61.408678 51.07524) scale(0.08 -0.08)">
      <defs>
       <path id="Roboto-Regular-41" d="M 91 0 
L 1825 4550 
L 2353 4550 
L 4094 0 
L 3475 0 
L 3041 1191 
L 1138 1191 
L 706 0 
L 91 0 
z
M 1319 1684 
L 2863 1684 
L 2091 3806 
L 1319 1684 
z
" transform="scale(0.015625)"/>
      </defs>
      <use xlink:href="#Roboto-Regular-6d"/>
      <use xlink:href="#Roboto-Regular-62" x="87.695312"/>
      <use xlink:href="#Roboto-Regular-47" x="143.847656"/>
      <use xlink:href="#Roboto-Regular-41" x="211.962891"/>
      <use xlink:href="#Roboto-Regular-50" x="277.197266"/>
     </g>
    </g>
    <g id="line2d_23">
     <path d="M 39.008678 59.90024 
L 47.008678 59.90024 
L 55.008678 59.90024 
" style="fill: none; stroke: #95d5b2; stroke-width: 1.5; stroke-linecap: square"/>
    </g>
    <g id="text_19">
     <!-- mbSchNet -->
     <g transform="translate(61.408678 62.70024) scale(0.08 -0.08)">
      <defs>
       <path id="Roboto-Regular-63" d="M 1794 413 
Q 2103 413 2336 597 
Q 2569 781 2591 1069 
L 3141 1069 
Q 3119 616 2725 276 
Q 2331 -63 1794 -63 
Q 1031 -63 661 440 
Q 291 944 291 1625 
L 291 1756 
Q 291 2438 661 2941 
Q 1031 3444 1794 3444 
Q 2388 3444 2753 3092 
Q 3119 2741 3141 2219 
L 2591 2219 
Q 2569 2531 2355 2750 
Q 2141 2969 1794 2969 
Q 1438 2969 1236 2787 
Q 1034 2606 951 2328 
Q 869 2050 869 1756 
L 869 1625 
Q 869 1328 950 1050 
Q 1031 772 1232 592 
Q 1434 413 1794 413 
z
" transform="scale(0.015625)"/>
       <path id="Roboto-Regular-68" d="M 1844 2956 
Q 1566 2956 1353 2806 
Q 1141 2656 1019 2416 
L 1019 0 
L 441 0 
L 441 4800 
L 1019 4800 
L 1019 2978 
Q 1403 3444 2016 3444 
Q 2513 3444 2805 3166 
Q 3097 2888 3100 2231 
L 3100 0 
L 2519 0 
L 2519 2222 
Q 2519 2619 2345 2787 
Q 2172 2956 1844 2956 
z
" transform="scale(0.015625)"/>
       <path id="Roboto-Regular-4e" d="M 4028 4550 
L 4028 0 
L 3422 0 
L 1131 3509 
L 1131 0 
L 528 0 
L 528 4550 
L 1131 4550 
L 3431 1031 
L 3431 4550 
L 4028 4550 
z
" transform="scale(0.015625)"/>
       <path id="Roboto-Regular-74" d="M 1872 0 
Q 1675 -63 1425 -63 
Q 1103 -63 875 134 
Q 647 331 647 841 
L 647 2938 
L 28 2938 
L 28 3381 
L 647 3381 
L 647 4203 
L 1225 4203 
L 1225 3381 
L 1856 3381 
L 1856 2938 
L 1225 2938 
L 1225 838 
Q 1225 578 1337 506 
Q 1450 434 1597 434 
Q 1706 434 1869 472 
L 1872 0 
z
" transform="scale(0.015625)"/>
      </defs>
      <use xlink:href="#Roboto-Regular-6d"/>
      <use xlink:href="#Roboto-Regular-62" x="87.695312"/>
      <use xlink:href="#Roboto-Regular-53" x="143.847656"/>
      <use xlink:href="#Roboto-Regular-63" x="203.222656"/>
      <use xlink:href="#Roboto-Regular-68" x="255.566406"/>
      <use xlink:href="#Roboto-Regular-4e" x="310.644531"/>
      <use xlink:href="#Roboto-Regular-65" x="381.982422"/>
      <use xlink:href="#Roboto-Regular-74" x="435.009766"/>
     </g>
    </g>
    <g id="line2d_24">
     <path d="M 39.008678 71.52524 
L 47.008678 71.52524 
L 55.008678 71.52524 
" style="fill: none; stroke: #ffe7be; stroke-width: 1.5; stroke-linecap: square"/>
    </g>
    <g id="text_20">
     <!-- GFN2-xTB -->
     <g transform="translate(61.408678 74.32524) scale(0.08 -0.08)">
      <defs>
       <path id="Roboto-Regular-46" d="M 528 0 
L 528 4550 
L 3347 4550 
L 3347 4056 
L 1131 4056 
L 1131 2503 
L 3038 2503 
L 3038 2009 
L 1131 2009 
L 1131 0 
L 528 0 
z
" transform="scale(0.015625)"/>
       <path id="Roboto-Regular-78" d="M 831 3381 
L 1572 2150 
L 2322 3381 
L 3000 3381 
L 1894 1713 
L 3034 0 
L 2366 0 
L 1584 1269 
L 803 0 
L 131 0 
L 1269 1713 
L 166 3381 
L 831 3381 
z
" transform="scale(0.015625)"/>
       <path id="Roboto-Regular-54" d="M 156 4056 
L 156 4550 
L 3672 4550 
L 3672 4056 
L 2209 4056 
L 2209 0 
L 1616 0 
L 1616 4056 
L 156 4056 
z
" transform="scale(0.015625)"/>
       <path id="Roboto-Regular-42" d="M 3625 1313 
Q 3625 675 3214 337 
Q 2803 0 2122 0 
L 528 0 
L 528 4550 
L 2019 4550 
Q 2719 4550 3111 4261 
Q 3503 3972 3503 3338 
Q 3503 3022 3323 2776 
Q 3144 2531 2831 2397 
Q 3216 2291 3420 1994 
Q 3625 1697 3625 1313 
z
M 1131 4056 
L 1131 2613 
L 2038 2613 
Q 2425 2613 2662 2806 
Q 2900 3000 2900 3344 
Q 2900 4041 2056 4056 
L 1131 4056 
z
M 3025 1306 
Q 3025 1688 2817 1908 
Q 2609 2128 2150 2128 
L 1131 2128 
L 1131 491 
L 2122 491 
Q 2550 491 2787 711 
Q 3025 931 3025 1306 
z
" transform="scale(0.015625)"/>
      </defs>
      <use xlink:href="#Roboto-Regular-47"/>
      <use xlink:href="#Roboto-Regular-46" x="68.115234"/>
      <use xlink:href="#Roboto-Regular-4e" x="123.388672"/>
      <use xlink:href="#Roboto-Regular-32" x="194.726562"/>
      <use xlink:href="#Roboto-Regular-2d" x="250.927734"/>
      <use xlink:href="#Roboto-Regular-78" x="278.564453"/>
      <use xlink:href="#Roboto-Regular-54" x="328.173828"/>
      <use xlink:href="#Roboto-Regular-42" x="387.841797"/>
     </g>
    </g>
   </g>
  </g>
 </g>
 <defs>
  <clipPath id="p8f3e1adae3">
   <rect x="31.808677" y="3.00024" width="195.591082" height="198.633895"/>
  </clipPath>
 </defs>
</svg>
