<?xml version="1.0" encoding="utf-8" standalone="no"?>
<!DOCTYPE svg PUBLIC "-//W3C//DTD SVG 1.1//EN"
  "http://www.w3.org/Graphics/SVG/1.1/DTD/svg11.dtd">
<svg xmlns:xlink="http://www.w3.org/1999/xlink" width="432pt" height="432pt" viewBox="0 0 432 432" xmlns="http://www.w3.org/2000/svg" version="1.1">
 <metadata>
  <rdf:RDF xmlns:dc="http://purl.org/dc/elements/1.1/" xmlns:cc="http://creativecommons.org/ns#" xmlns:rdf="http://www.w3.org/1999/02/22-rdf-syntax-ns#">
   <cc:Work>
    <dc:type rdf:resource="http://purl.org/dc/dcmitype/StillImage"/>
    <dc:date>2022-09-27T10:38:21.557701</dc:date>
    <dc:format>image/svg+xml</dc:format>
    <dc:creator>
     <cc:Agent>
      <dc:title>Matplotlib v3.5.1, https://matplotlib.org/</dc:title>
     </cc:Agent>
    </dc:creator>
   </cc:Work>
  </rdf:RDF>
 </metadata>
 <defs>
  <style type="text/css">*{stroke-linejoin: round; stroke-linecap: butt}</style>
 </defs>
 <g id="figure_1">
  <g id="patch_1">
   <path d="M 0 432 
L 432 432 
L 432 0 
L 0 0 
z
" style="fill: #ffffff"/>
  </g>
  <g id="axes_1">
   <g id="patch_2">
    <path d="M 61.885865 383.15851 
L 423.244843 383.15851 
L 423.244843 3.00024 
L 61.885865 3.00024 
z
" style="fill: #ffffff"/>
   </g>
   <g id="line2d_1">
    <path d="M 61.885865 383.15851 
L 62.230016 383.034679 
L 62.918319 382.290273 
L 64.294925 380.447097 
L 67.736439 374.581097 
L 70.145499 371.464786 
L 70.833802 370.423899 
L 71.866256 369.835613 
L 72.210407 369.387044 
L 72.554559 369.127137 
L 73.242861 369.07785 
L 73.587013 368.838538 
L 74.275316 368.113027 
L 74.963619 367.990351 
L 75.651921 367.479447 
L 75.996073 367.564226 
L 76.684376 368.273497 
L 78.060981 368.830115 
L 78.749284 368.934243 
L 79.093435 369.095992 
L 79.437587 369.129134 
L 79.781738 368.806609 
L 80.814192 367.014981 
L 81.158344 365.92912 
L 82.190798 361.71364 
L 82.879101 359.760149 
L 83.567404 357.189515 
L 83.911555 356.473739 
L 84.255707 356.311694 
L 84.599858 356.308604 
L 85.288161 355.973801 
L 85.632312 356.113166 
L 86.320615 357.176646 
L 86.664766 357.391841 
L 87.008918 357.394187 
L 87.353069 357.562299 
L 88.041372 358.277711 
L 88.385523 358.220324 
L 89.417978 357.103407 
L 89.762129 356.41148 
L 91.482886 351.405001 
L 94.236097 343.184873 
L 95.268552 341.312723 
L 95.612703 340.772907 
L 95.956854 339.968771 
L 97.677611 334.10928 
L 98.021763 333.425684 
L 98.365914 333.037567 
L 99.398368 332.817629 
L 100.430823 331.580687 
L 100.774974 331.450301 
L 102.15158 331.510879 
L 102.495731 331.382971 
L 102.839883 331.047847 
L 103.184034 330.476278 
L 103.872337 328.719914 
L 105.593094 323.9078 
L 107.313851 319.942816 
L 108.346305 316.774788 
L 109.378759 314.064514 
L 110.411214 310.825731 
L 111.443668 306.556995 
L 113.508576 297.7961 
L 114.54103 294.505399 
L 115.573485 290.902078 
L 117.638393 283.800611 
L 119.014999 279.712129 
L 120.047453 275.579503 
L 121.76821 267.74141 
L 123.833118 261.893875 
L 124.865573 258.279447 
L 125.553875 256.837163 
L 126.58633 255.688398 
L 127.274633 254.276718 
L 127.962935 252.29896 
L 128.99539 248.979204 
L 129.683692 247.610333 
L 130.371995 246.606139 
L 131.060298 245.053331 
L 132.781055 240.361203 
L 133.125206 240.095318 
L 133.469358 240.142338 
L 134.157661 240.402378 
L 134.501812 240.279466 
L 134.845964 239.860247 
L 135.534266 238.154301 
L 136.222569 236.108885 
L 136.566721 235.420432 
L 136.910872 235.075678 
L 137.255023 235.029546 
L 137.943326 235.110227 
L 138.287478 234.809439 
L 138.631629 234.156053 
L 140.008235 230.659341 
L 140.352386 230.547129 
L 140.696537 230.890263 
L 141.728992 232.719861 
L 142.073143 232.856665 
L 142.417294 232.638018 
L 143.105597 231.533966 
L 143.7939 230.465495 
L 144.138052 230.250179 
L 144.826354 230.356349 
L 145.170506 230.441446 
L 145.514657 230.383768 
L 145.858809 230.090251 
L 146.20296 229.533061 
L 147.579566 226.522876 
L 147.923717 226.195743 
L 148.267868 226.134107 
L 148.61202 226.312031 
L 149.644474 227.214644 
L 149.988625 227.07372 
L 150.332777 226.56744 
L 151.02108 224.845867 
L 151.709382 222.986057 
L 152.053534 222.376575 
L 152.397685 222.091764 
L 152.741837 222.066628 
L 153.43014 222.223565 
L 154.118442 222.118903 
L 154.806745 221.632682 
L 155.150897 221.373651 
L 155.495048 221.296678 
L 155.839199 221.53185 
L 156.183351 222.142908 
L 156.871654 224.408464 
L 157.559956 226.956757 
L 157.904108 227.668947 
L 158.248259 227.799881 
L 158.592411 227.381803 
L 159.280713 225.523243 
L 159.969016 223.870971 
L 160.313168 223.560046 
L 161.001471 223.434051 
L 161.345622 223.151515 
L 161.689773 222.594848 
L 162.378076 220.861684 
L 163.066379 219.181851 
L 163.41053 218.967534 
L 163.754682 219.415821 
L 164.442985 221.770477 
L 165.131287 224.106622 
L 165.475439 224.639231 
L 165.81959 224.570902 
L 166.163742 223.978993 
L 166.852044 222.468124 
L 167.196196 222.186215 
L 167.540347 222.310428 
L 168.22865 222.880743 
L 168.572801 222.795362 
L 168.916953 222.233964 
L 169.605256 219.953442 
L 170.293559 217.762246 
L 170.63771 217.325772 
L 170.981861 217.441739 
L 171.326013 218.016613 
L 172.358467 220.485141 
L 172.702618 221.003385 
L 173.04677 221.280852 
L 173.390921 221.349406 
L 174.079224 221.105351 
L 174.767527 220.86948 
L 175.45583 220.831163 
L 175.799981 220.65151 
L 176.144132 220.186589 
L 176.832435 218.460274 
L 177.520738 216.595466 
L 177.86489 215.937433 
L 178.209041 215.574556 
L 178.553192 215.551522 
L 179.241495 216.225661 
L 179.585647 216.560606 
L 179.929798 216.716805 
L 180.618101 216.576123 
L 181.306404 216.085065 
L 182.338858 215.131862 
L 183.027161 214.600582 
L 183.715463 213.547535 
L 185.43622 210.148139 
L 185.780372 209.848445 
L 186.124523 209.745153 
L 186.812826 209.929075 
L 188.189432 210.568732 
L 188.877735 210.505884 
L 189.566037 210.084327 
L 190.598492 209.432245 
L 191.286794 209.150034 
L 191.630946 208.877356 
L 192.319249 207.802144 
L 193.351703 205.607512 
L 193.695854 205.130893 
L 194.040006 204.891534 
L 195.07246 204.872827 
L 195.416611 204.642568 
L 195.760763 204.180768 
L 197.48152 200.966567 
L 197.825671 200.900443 
L 199.546428 201.182175 
L 199.89058 200.986647 
L 200.578882 200.045407 
L 201.267185 199.069677 
L 201.955488 198.572695 
L 202.299639 198.546616 
L 202.643791 198.680462 
L 204.364548 199.956266 
L 205.052851 199.743513 
L 205.741154 199.491902 
L 206.085305 199.477578 
L 206.429456 199.59075 
L 207.117759 200.267976 
L 207.461911 200.67445 
L 207.806062 200.886836 
L 208.150213 200.772155 
L 208.494365 200.328204 
L 209.87097 197.574183 
L 210.215122 197.248772 
L 210.559273 197.151341 
L 211.591727 197.22549 
L 212.28003 196.926867 
L 213.656636 196.135836 
L 214.000787 196.101626 
L 214.344939 196.235287 
L 214.68909 196.615078 
L 215.721544 198.470515 
L 216.065696 198.753961 
L 216.409847 198.714876 
L 217.786453 197.611939 
L 218.130604 197.845736 
L 218.818907 199.094377 
L 219.50721 200.584361 
L 219.851361 201.010196 
L 220.195513 201.059677 
L 221.227967 200.22082 
L 221.572118 200.257431 
L 221.91627 200.623257 
L 222.260421 201.33112 
L 223.637027 205.204147 
L 223.981178 205.386478 
L 224.669481 205.150464 
L 225.013632 205.300574 
L 225.357784 205.842892 
L 226.046087 208.045302 
L 227.078541 211.944098 
L 227.422692 212.461071 
L 227.766844 212.34938 
L 228.455146 211.412597 
L 228.799298 211.317468 
L 229.143449 211.664244 
L 229.487601 212.400046 
L 230.175904 214.708052 
L 230.864206 216.794364 
L 231.208358 217.03795 
L 231.552509 216.735232 
L 232.240812 215.849267 
L 232.584963 215.7587 
L 232.929115 216.06411 
L 233.273266 216.773546 
L 234.649872 220.785349 
L 234.994023 221.093158 
L 235.338175 220.895414 
L 236.026477 219.895713 
L 236.370629 219.644269 
L 236.71478 219.746828 
L 237.058932 220.22173 
L 237.747235 222.161343 
L 238.435537 224.317189 
L 238.779689 224.803365 
L 239.12384 224.786657 
L 239.812143 224.160882 
L 240.156294 224.136218 
L 240.500446 224.586558 
L 241.188749 226.731169 
L 241.877051 229.018944 
L 242.221203 229.543299 
L 242.565354 229.428457 
L 243.94196 227.052376 
L 244.286111 227.127231 
L 244.630263 227.524717 
L 245.662717 229.359191 
L 246.006868 229.517028 
L 246.35102 229.264701 
L 247.727625 227.188248 
L 248.071777 227.359548 
L 249.104231 229.013701 
L 249.448382 229.15081 
L 249.792534 228.757912 
L 250.136685 227.768847 
L 251.169139 223.521909 
L 251.513291 222.794517 
L 251.857442 222.6204 
L 252.201594 222.871989 
L 252.889896 223.733334 
L 253.234048 223.761024 
L 253.578199 223.254026 
L 254.266502 221.013481 
L 254.954805 219.038356 
L 255.298956 218.789264 
L 255.643108 219.126049 
L 256.675562 221.138267 
L 257.019713 221.122976 
L 257.363865 220.527882 
L 258.052168 218.005676 
L 258.74047 215.604305 
L 259.084622 215.062758 
L 259.428773 214.944069 
L 260.461227 215.207944 
L 260.805379 214.936443 
L 261.14953 214.234919 
L 261.837833 211.693161 
L 262.526136 209.28573 
L 262.870287 208.735685 
L 263.214439 208.697101 
L 263.55859 209.055858 
L 264.246893 209.990746 
L 264.591044 210.034625 
L 264.935196 209.527847 
L 266.311801 205.487317 
L 266.655953 205.36533 
L 267.000104 205.749426 
L 268.032558 207.867852 
L 268.37671 208.044317 
L 268.720861 207.701906 
L 270.097467 204.894173 
L 270.441618 204.876953 
L 270.78577 205.286203 
L 271.818224 207.316539 
L 272.162375 207.381541 
L 272.506527 206.8454 
L 273.538981 203.762378 
L 273.883132 203.279303 
L 274.227284 203.350315 
L 274.571435 203.93701 
L 275.603889 206.628637 
L 275.948041 206.790995 
L 276.292192 206.42663 
L 276.980495 205.348761 
L 277.324646 205.188208 
L 277.668798 205.444416 
L 278.012949 206.108379 
L 279.045403 208.939517 
L 279.389555 209.32969 
L 279.733706 209.281194 
L 280.077858 208.902765 
L 281.110312 207.131292 
L 281.454463 206.807296 
L 281.798615 206.760164 
L 283.17522 207.27286 
L 283.519372 206.968659 
L 284.551826 205.35262 
L 284.895977 205.197318 
L 285.240129 205.349075 
L 285.58428 205.738795 
L 286.272583 207.005552 
L 286.960886 208.240425 
L 287.305037 208.573557 
L 287.99334 208.777992 
L 288.337491 208.677512 
L 289.025794 207.981273 
L 290.058249 206.796971 
L 290.746551 205.866425 
L 291.434854 204.430411 
L 293.155611 200.238662 
L 293.843914 199.435988 
L 294.532217 199.200928 
L 295.22052 199.020561 
L 295.564671 198.734722 
L 296.252974 197.681732 
L 296.941277 196.035383 
L 297.973731 193.464191 
L 298.662034 191.763101 
L 299.350337 189.339868 
L 300.726942 183.706595 
L 301.415245 182.045465 
L 302.791851 180.282242 
L 303.824305 178.041247 
L 305.889213 173.284298 
L 306.577516 171.18681 
L 307.954122 165.721855 
L 308.986576 161.450207 
L 309.330727 160.445673 
L 309.674879 159.787848 
L 310.01903 159.405401 
L 310.707333 159.096497 
L 311.395636 158.816019 
L 311.739787 158.444218 
L 312.42809 157.212282 
L 313.116393 155.963345 
L 314.148847 154.435214 
L 314.492998 153.536899 
L 315.181301 150.691792 
L 316.213756 144.333895 
L 316.902058 140.565965 
L 317.24621 139.400195 
L 317.934513 138.135579 
L 318.966967 136.700728 
L 319.999421 134.870792 
L 320.343572 134.590921 
L 320.687724 134.644995 
L 321.720178 135.663391 
L 322.064329 135.599038 
L 322.408481 135.091925 
L 322.752632 134.143307 
L 323.440935 131.345378 
L 324.473389 126.800506 
L 325.161692 124.862513 
L 326.194146 123.246291 
L 326.882449 122.582979 
L 327.570752 122.303891 
L 327.914903 122.358062 
L 328.259055 122.694456 
L 328.947358 124.238924 
L 329.63566 125.909904 
L 329.979812 126.388735 
L 330.323963 126.515398 
L 330.668115 126.252929 
L 331.012266 125.596972 
L 331.700569 123.426168 
L 332.388872 121.299437 
L 332.733023 120.654714 
L 333.421326 120.08633 
L 333.765477 119.820013 
L 334.109629 119.37869 
L 334.797932 117.8421 
L 335.486234 116.215319 
L 335.830386 115.954229 
L 336.174537 116.206087 
L 337.206991 117.906413 
L 337.551143 117.906442 
L 337.895294 117.454525 
L 339.616051 113.693839 
L 339.960203 113.464212 
L 340.648506 113.345908 
L 341.336808 113.272821 
L 342.713414 112.755983 
L 343.057565 112.892394 
L 343.401717 113.260034 
L 344.09002 114.676767 
L 344.778322 116.267186 
L 345.466625 117.134115 
L 345.810777 117.300242 
L 346.154928 117.298587 
L 347.187382 116.784594 
L 347.531534 116.825413 
L 348.908139 117.491005 
L 349.252291 117.430769 
L 349.596442 117.141663 
L 350.284745 115.88944 
L 350.973048 114.756178 
L 351.317199 114.467365 
L 351.661351 114.348718 
L 352.005502 114.396034 
L 352.693805 114.678268 
L 353.037956 114.581937 
L 353.382108 114.19341 
L 354.07041 112.674086 
L 355.447016 109.078376 
L 356.135319 108.269163 
L 356.823622 107.512433 
L 357.167773 106.84996 
L 357.856076 104.756255 
L 358.88853 101.260652 
L 359.232682 100.601015 
L 359.576833 100.378085 
L 359.920984 100.521619 
L 360.265136 100.786188 
L 360.609287 100.871038 
L 360.953439 100.571306 
L 361.29759 99.833618 
L 363.018347 94.692158 
L 363.362498 94.459731 
L 364.050801 94.343757 
L 364.394953 94.003164 
L 364.739104 93.287326 
L 365.427407 90.96675 
L 366.11571 88.580136 
L 366.459861 87.742736 
L 366.804013 87.247156 
L 367.148164 87.10228 
L 367.836467 87.494275 
L 368.180618 87.648109 
L 368.52477 87.50869 
L 368.868921 86.980559 
L 369.557224 84.97985 
L 370.245527 82.872055 
L 370.589678 82.192932 
L 370.933829 81.860039 
L 371.622132 81.776926 
L 371.966284 81.502807 
L 372.310435 80.754119 
L 372.998738 77.987697 
L 373.687041 75.082572 
L 374.031192 74.204291 
L 374.375343 73.888038 
L 374.719495 74.086553 
L 375.407798 75.056471 
L 375.751949 75.19595 
L 376.096101 74.831252 
L 376.440252 73.964567 
L 377.472706 70.487575 
L 377.816858 69.861254 
L 378.161009 69.601671 
L 378.849312 69.493978 
L 379.193463 69.199989 
L 379.537615 68.490538 
L 379.881766 67.295773 
L 381.258372 60.951985 
L 381.602523 60.043418 
L 381.946674 59.563319 
L 382.290826 59.425414 
L 383.32328 59.590744 
L 383.667432 59.487286 
L 384.355734 58.880353 
L 385.044037 58.26047 
L 385.388189 58.164292 
L 386.764794 58.243713 
L 387.108946 57.988615 
L 387.453097 57.456741 
L 388.1414 55.412182 
L 389.173854 51.921652 
L 389.518005 51.224172 
L 389.862157 50.793929 
L 390.55046 50.451753 
L 391.238762 50.321781 
L 391.927065 49.934434 
L 392.615368 49.614293 
L 392.95952 49.679538 
L 394.336125 50.418788 
L 394.680277 50.46721 
L 395.024428 50.401155 
L 395.368579 50.189311 
L 396.056882 49.296921 
L 397.433488 46.904532 
L 397.777639 46.598099 
L 398.121791 46.509103 
L 398.465942 46.650424 
L 399.498396 47.668579 
L 399.842548 47.775316 
L 400.186699 47.699048 
L 401.563305 46.822545 
L 402.251608 46.947386 
L 402.595759 47.052447 
L 402.93991 46.984356 
L 403.284062 46.591759 
L 403.628213 45.821201 
L 405.004819 41.836641 
L 405.34897 41.527981 
L 405.693122 41.616993 
L 406.037273 42.032573 
L 406.037273 42.032573 
" clip-path="url(#p8559b64680)" style="fill: none; stroke: #ffe7be; stroke-width: 2.5; stroke-linecap: square"/>
   </g>
   <g id="line2d_2">
    <path d="M 61.885865 383.15851 
L 62.574168 383.068781 
L 63.606622 382.723787 
L 64.639076 382.151583 
L 67.048136 380.512584 
L 70.48965 378.775462 
L 71.866256 378.259692 
L 72.554559 377.838107 
L 73.587013 377.056213 
L 74.619467 376.507927 
L 78.060981 373.841887 
L 78.749284 373.233223 
L 79.781738 372.432012 
L 80.470041 371.509786 
L 81.502495 369.856963 
L 82.190798 369.251148 
L 83.567404 368.188952 
L 84.599858 367.313567 
L 85.976464 366.718009 
L 87.353069 365.812137 
L 88.385523 364.892355 
L 89.073826 364.493907 
L 90.10628 364.560728 
L 90.450432 364.318607 
L 93.203643 360.837848 
L 95.268552 356.674124 
L 97.677611 352.743526 
L 98.365914 351.724103 
L 99.74252 349.190827 
L 100.430823 347.835318 
L 101.119126 346.666741 
L 101.807428 344.889008 
L 103.528185 339.835514 
L 104.56064 338.111919 
L 105.593094 335.812125 
L 106.281397 334.032769 
L 106.969699 332.930885 
L 108.002154 331.665967 
L 111.787819 329.132106 
L 112.476122 328.898624 
L 113.164425 328.80816 
L 113.508576 328.480631 
L 114.196879 326.981623 
L 115.229333 324.504963 
L 115.573485 323.963571 
L 116.605939 323.099622 
L 118.326696 320.080303 
L 118.670847 319.797825 
L 119.703302 319.726474 
L 120.391604 319.041376 
L 122.112361 316.811132 
L 122.456513 316.262939 
L 123.144816 314.419607 
L 123.833118 312.329599 
L 124.521421 310.857556 
L 125.209724 310.042976 
L 125.553875 309.656131 
L 125.898027 309.03241 
L 127.618784 304.680069 
L 128.307087 303.893053 
L 128.651238 303.50086 
L 128.99539 302.80146 
L 129.683692 300.470829 
L 131.404449 293.880781 
L 132.781055 290.123027 
L 135.878418 284.283049 
L 137.255023 283.176258 
L 137.599175 282.498493 
L 138.287478 280.201276 
L 138.97578 277.519451 
L 139.319932 276.665349 
L 139.664083 276.204024 
L 141.040689 275.21007 
L 141.38484 274.386777 
L 142.417294 271.052569 
L 142.761446 270.558572 
L 143.105597 270.455318 
L 144.138052 270.918478 
L 144.482203 270.609493 
L 144.826354 269.771236 
L 146.547111 263.574525 
L 147.235414 262.25246 
L 147.923717 260.968744 
L 149.644474 257.129306 
L 149.988625 256.76396 
L 150.676928 256.476111 
L 151.709382 256.291205 
L 152.053534 256.101584 
L 152.397685 255.711774 
L 153.085988 254.460673 
L 154.462594 251.8135 
L 155.839199 249.709296 
L 156.527502 248.384628 
L 156.871654 247.908209 
L 157.559956 247.484459 
L 159.624865 247.01305 
L 160.313168 247.035168 
L 161.001471 247.109628 
L 161.345622 246.904927 
L 162.033925 245.965726 
L 162.722228 244.917186 
L 163.41053 244.285031 
L 164.787136 243.458499 
L 166.163742 242.310874 
L 166.507893 242.349631 
L 167.196196 242.765742 
L 168.22865 243.553885 
L 168.572801 243.53883 
L 169.949407 242.478655 
L 170.293559 242.462109 
L 170.63771 242.573445 
L 170.981861 242.835899 
L 172.702618 244.855291 
L 173.390921 245.24789 
L 174.423375 245.586285 
L 175.111678 246.165153 
L 175.799981 246.809801 
L 176.144132 246.816746 
L 176.488284 246.422116 
L 177.86489 243.677434 
L 178.209041 243.630111 
L 178.553192 244.045462 
L 179.241495 246.097281 
L 179.929798 247.905066 
L 180.273949 248.222555 
L 181.306404 248.488625 
L 181.650555 248.884608 
L 181.994706 249.686813 
L 183.027161 252.954899 
L 183.371312 253.125005 
L 183.715463 252.606711 
L 184.403766 250.291509 
L 184.747918 249.114979 
L 185.092069 248.405562 
L 185.43622 248.353771 
L 186.124523 249.459192 
L 186.468675 249.96032 
L 186.812826 250.16056 
L 187.156978 250.010843 
L 188.189432 248.600107 
L 188.533583 248.587044 
L 188.877735 248.927329 
L 189.910189 250.278754 
L 190.25434 250.407396 
L 190.598492 250.17363 
L 190.942643 249.521512 
L 192.6634 244.942361 
L 193.007551 244.678622 
L 193.351703 244.71918 
L 194.040006 245.053686 
L 194.384157 245.024799 
L 194.728309 244.768191 
L 196.104914 242.883984 
L 196.449066 242.71477 
L 197.137368 242.879655 
L 197.48152 242.949163 
L 197.825671 242.787162 
L 198.169823 242.265822 
L 198.513974 241.349425 
L 199.89058 236.150795 
L 200.234731 235.469341 
L 200.578882 235.264499 
L 200.923034 235.429534 
L 201.611337 236.010561 
L 201.955488 235.997892 
L 202.299639 235.61649 
L 203.676245 233.175821 
L 204.020397 233.157127 
L 205.052851 233.72997 
L 205.397002 233.395343 
L 205.741154 232.581107 
L 207.461911 226.641923 
L 207.806062 226.175211 
L 208.838516 225.454797 
L 209.182668 224.899943 
L 209.87097 223.097402 
L 210.903425 220.079964 
L 211.591727 219.000944 
L 212.28003 218.313513 
L 212.624182 217.825047 
L 212.968333 217.096566 
L 213.656636 214.880464 
L 214.344939 212.423889 
L 214.68909 211.489993 
L 215.033242 210.905455 
L 215.377393 210.694259 
L 216.409847 210.876074 
L 216.753999 210.552996 
L 217.09815 209.898496 
L 218.130604 207.178751 
L 218.474756 206.65807 
L 218.818907 206.521744 
L 219.163058 206.696445 
L 219.851361 207.228643 
L 220.195513 207.182409 
L 220.539664 206.783956 
L 221.91627 204.185819 
L 222.260421 204.279127 
L 222.604573 204.848591 
L 223.637027 207.760437 
L 223.981178 208.241468 
L 224.32533 208.218927 
L 224.669481 207.795884 
L 225.701935 206.131111 
L 226.046087 206.019601 
L 226.390238 206.185487 
L 227.078541 206.687774 
L 227.422692 206.568788 
L 227.766844 206.045913 
L 229.143449 202.538707 
L 229.487601 202.205438 
L 229.831752 202.310973 
L 230.175904 202.818431 
L 231.552509 205.962044 
L 231.896661 206.286409 
L 232.929115 206.764774 
L 233.273266 207.223843 
L 233.617418 207.989537 
L 234.994023 212.160465 
L 235.338175 212.292045 
L 235.682326 211.884998 
L 236.71478 209.483317 
L 237.058932 209.11765 
L 237.403083 209.290707 
L 237.747235 210.002477 
L 238.779689 213.059911 
L 239.12384 213.411316 
L 239.467992 213.284944 
L 240.156294 212.537733 
L 240.500446 212.525638 
L 240.844597 213.032223 
L 241.188749 214.069426 
L 242.221203 218.272957 
L 242.565354 218.95215 
L 242.909506 219.015673 
L 244.286111 217.791698 
L 244.630263 218.115022 
L 244.974414 218.827241 
L 246.006868 221.714891 
L 246.35102 222.204824 
L 246.695171 222.314552 
L 247.383474 221.919651 
L 247.727625 221.742365 
L 248.071777 221.777734 
L 248.415928 222.102633 
L 249.104231 223.538556 
L 249.792534 225.228991 
L 250.136685 225.61921 
L 250.480837 225.582314 
L 251.513291 224.782083 
L 251.857442 224.922434 
L 252.201594 225.467259 
L 252.889896 227.637599 
L 253.578199 229.657227 
L 253.922351 229.941311 
L 254.266502 229.752803 
L 255.298956 228.605787 
L 255.643108 228.575164 
L 256.331411 229.029987 
L 256.675562 229.273319 
L 257.019713 229.350703 
L 257.363865 229.153288 
L 258.052168 227.928421 
L 258.74047 226.694249 
L 259.084622 226.319007 
L 259.428773 226.108566 
L 259.772925 226.101312 
L 260.117076 226.373953 
L 260.805379 227.710373 
L 261.493682 229.009017 
L 261.837833 229.257404 
L 262.181984 229.231903 
L 263.214439 228.699811 
L 263.55859 228.890625 
L 263.902742 229.404884 
L 264.935196 231.52722 
L 265.279347 231.583744 
L 265.623499 231.152009 
L 266.655953 228.984365 
L 267.000104 228.591085 
L 267.344256 228.558829 
L 267.688407 228.899615 
L 268.37671 229.933419 
L 268.720861 230.113949 
L 269.065013 229.931385 
L 270.441618 228.33829 
L 270.78577 228.327583 
L 271.129921 228.547708 
L 272.162375 229.47063 
L 272.506527 229.475334 
L 272.850678 229.239863 
L 274.227284 227.742013 
L 274.915587 227.335728 
L 275.259738 227.382008 
L 276.292192 228.017352 
L 276.636344 227.914329 
L 277.324646 227.24832 
L 278.012949 226.315292 
L 278.357101 226.033309 
L 278.701252 226.011965 
L 279.733706 226.524561 
L 280.077858 226.390873 
L 280.422009 225.932231 
L 281.798615 222.985656 
L 282.142766 222.913013 
L 282.486918 223.257911 
L 283.519372 225.05227 
L 283.863523 224.988164 
L 284.207675 224.447859 
L 285.240129 222.16377 
L 285.58428 221.761982 
L 285.928432 221.689899 
L 286.960886 222.193414 
L 287.305037 221.872695 
L 287.99334 220.314776 
L 288.681643 218.621804 
L 289.025794 218.15811 
L 289.369946 218.071356 
L 290.4024 218.7246 
L 290.746551 218.711798 
L 291.090703 218.47329 
L 291.779006 217.431229 
L 292.467308 216.477701 
L 292.81146 216.317903 
L 294.188065 216.387036 
L 294.532217 216.014614 
L 295.908822 213.654531 
L 296.252974 213.533654 
L 296.597125 213.67218 
L 297.62958 214.537242 
L 297.973731 214.378364 
L 298.317882 213.8685 
L 299.006185 212.102404 
L 299.694488 210.078455 
L 300.382791 208.816667 
L 301.071094 208.095161 
L 301.415245 207.553481 
L 302.103548 205.746392 
L 303.136002 202.206875 
L 303.480153 201.606379 
L 303.824305 201.535798 
L 304.168456 201.945654 
L 305.20091 203.83682 
L 305.545062 203.780617 
L 305.889213 203.207105 
L 307.265819 199.632206 
L 307.60997 199.306187 
L 308.298273 199.09723 
L 308.642425 198.633997 
L 308.986576 197.676497 
L 309.674879 194.62487 
L 310.363182 191.678704 
L 310.707333 190.908895 
L 311.051484 190.7735 
L 311.395636 191.15859 
L 312.083939 192.400453 
L 312.42809 192.707887 
L 312.772241 192.607155 
L 313.116393 192.104275 
L 314.492998 189.21582 
L 315.181301 188.473403 
L 315.525453 187.912515 
L 315.869604 186.97358 
L 316.557907 183.755679 
L 317.590361 177.709208 
L 317.934513 176.239488 
L 318.278664 175.274402 
L 318.622815 174.790554 
L 318.966967 174.650744 
L 320.343572 174.714414 
L 321.031875 174.312808 
L 321.720178 173.911365 
L 322.408481 173.599878 
L 322.752632 173.264268 
L 323.096784 172.679214 
L 323.440935 171.767598 
L 324.129238 168.841754 
L 325.505844 161.790092 
L 325.849995 160.865092 
L 326.194146 160.393073 
L 326.538298 160.235253 
L 327.914903 160.160406 
L 328.603206 160.014285 
L 328.947358 160.073668 
L 330.323963 160.793852 
L 330.668115 160.575471 
L 331.012266 160.099744 
L 331.356417 159.340482 
L 332.04472 157.061296 
L 332.733023 154.683393 
L 333.421326 152.988283 
L 334.109629 152.080551 
L 334.797932 151.831707 
L 335.486234 151.786191 
L 336.174537 151.452303 
L 337.206991 150.588424 
L 337.895294 149.673891 
L 338.927748 147.833871 
L 340.304354 144.384589 
L 340.648506 143.914812 
L 340.992657 143.693061 
L 341.336808 143.735765 
L 341.68096 144.037967 
L 343.401717 146.277745 
L 344.434171 147.175468 
L 344.778322 147.284074 
L 345.122474 147.176778 
L 345.466625 146.853594 
L 346.154928 145.77911 
L 346.843231 144.278103 
L 347.531534 142.695909 
L 348.219836 141.792028 
L 348.908139 141.390623 
L 349.596442 141.358791 
L 351.661351 142.046037 
L 352.349653 142.328658 
L 353.037956 142.387737 
L 354.07041 142.182227 
L 354.758713 141.984926 
L 355.102865 141.993862 
L 355.791167 142.359476 
L 357.856076 143.66626 
L 358.88853 143.796203 
L 359.576833 144.394687 
L 360.265136 145.070298 
L 360.609287 145.286793 
L 360.953439 145.351777 
L 361.985893 145.214201 
L 362.330044 145.524475 
L 362.674196 146.159164 
L 363.70665 149.144268 
L 364.739104 151.719523 
L 365.771558 154.015723 
L 366.459861 155.090809 
L 366.804013 155.377368 
L 367.148164 155.43341 
L 368.180618 155.183126 
L 369.557224 155.57167 
L 370.245527 156.059622 
L 370.933829 156.929438 
L 371.622132 158.30817 
L 372.654586 160.524351 
L 372.998738 160.986707 
L 373.342889 161.228004 
L 374.375343 161.368798 
L 375.063646 161.506244 
L 375.751949 161.877506 
L 377.128555 163.036308 
L 377.816858 164.14479 
L 378.849312 166.441493 
L 379.537615 167.996765 
L 380.225917 168.996748 
L 380.570069 169.199645 
L 380.91422 169.204571 
L 381.258372 169.031018 
L 381.946674 168.31173 
L 382.634977 167.39012 
L 382.979129 167.092293 
L 383.32328 167.063819 
L 383.667432 167.35074 
L 384.355734 168.690954 
L 385.73234 171.794397 
L 386.420643 173.367502 
L 388.1414 178.335329 
L 388.485551 178.506944 
L 388.829703 178.246265 
L 389.518005 176.836156 
L 390.55046 174.326437 
L 391.238762 173.284101 
L 391.582914 172.994817 
L 391.927065 172.904326 
L 392.271217 173.054027 
L 392.615368 173.469937 
L 392.95952 174.158172 
L 393.647822 176.26872 
L 394.680277 179.837579 
L 395.368579 181.493808 
L 396.056882 182.444113 
L 396.745185 182.995882 
L 397.433488 183.237094 
L 398.121791 183.056876 
L 398.810093 182.88648 
L 399.154245 183.045441 
L 399.498396 183.417646 
L 400.875002 185.496544 
L 401.563305 186.001539 
L 402.93991 186.504296 
L 403.284062 186.475699 
L 403.972365 185.997325 
L 404.660667 185.464532 
L 405.34897 185.180162 
L 406.037273 185.160562 
L 406.037273 185.160562 
" clip-path="url(#p8559b64680)" style="fill: none; stroke: #ff8fa3; stroke-width: 2.5; stroke-linecap: square"/>
   </g>
   <g id="line2d_3">
    <path d="M 61.885865 383.15851 
L 62.574168 383.044999 
L 63.606622 382.615807 
L 64.639076 381.963322 
L 65.67153 381.070776 
L 69.457196 377.281253 
L 70.145499 376.280737 
L 70.833802 375.691061 
L 71.522104 375.2739 
L 72.210407 374.567037 
L 73.587013 372.566388 
L 74.619467 372.101762 
L 75.30777 371.418025 
L 76.340224 369.984715 
L 76.684376 369.809641 
L 78.405133 370.095674 
L 78.749284 369.979487 
L 79.781738 369.296837 
L 80.470041 369.225851 
L 81.502495 368.566743 
L 82.190798 367.833595 
L 82.879101 366.929711 
L 83.911555 366.195913 
L 84.255707 365.961839 
L 85.288161 365.747827 
L 85.976464 365.139038 
L 86.664766 364.791892 
L 87.697221 363.73729 
L 88.041372 363.497895 
L 88.385523 363.120035 
L 89.073826 362.066479 
L 89.762129 361.358399 
L 91.827037 357.350195 
L 92.171189 356.893275 
L 92.859492 356.527258 
L 93.547795 355.472706 
L 94.580249 353.643228 
L 95.268552 352.262621 
L 95.956854 351.700457 
L 96.645157 350.504754 
L 97.677611 348.254365 
L 98.365914 346.394896 
L 100.430823 342.966003 
L 101.119126 341.306729 
L 101.807428 339.78559 
L 104.904791 334.233458 
L 105.593094 332.873251 
L 106.281397 331.637808 
L 108.002154 329.932799 
L 108.690456 329.3575 
L 109.378759 328.842324 
L 110.067062 328.461222 
L 112.476122 326.217362 
L 112.820273 325.958161 
L 113.508576 324.848743 
L 115.229333 321.531996 
L 116.261787 320.754877 
L 117.982545 318.520006 
L 118.326696 318.38029 
L 119.014999 318.399955 
L 119.35915 318.15449 
L 120.047453 317.148194 
L 120.735756 316.003033 
L 121.079907 315.587554 
L 122.112361 314.925428 
L 122.800664 313.797092 
L 123.833118 311.810389 
L 124.17727 311.418737 
L 124.521421 311.279829 
L 125.209724 311.374441 
L 125.553875 311.291383 
L 125.898027 311.038735 
L 126.58633 310.07885 
L 127.274633 309.0996 
L 127.618784 308.893439 
L 128.651238 308.800756 
L 128.99539 308.428693 
L 129.339541 307.763988 
L 130.027844 305.810688 
L 131.060298 302.760554 
L 132.781055 298.618481 
L 133.813509 296.948852 
L 134.501812 295.656985 
L 135.534266 293.338437 
L 135.878418 292.925657 
L 136.566721 292.687676 
L 136.910872 292.579513 
L 137.255023 292.239531 
L 137.599175 291.52342 
L 138.287478 288.947848 
L 139.319932 284.723691 
L 140.008235 283.058126 
L 140.696537 281.636669 
L 141.38484 279.416152 
L 142.417294 275.161291 
L 142.761446 274.236193 
L 143.105597 273.706603 
L 144.138052 273.033606 
L 144.482203 272.550629 
L 144.826354 271.74068 
L 145.514657 269.101815 
L 146.891263 262.890081 
L 147.579566 260.721792 
L 148.61202 257.977667 
L 149.300323 255.232082 
L 150.332777 251.062061 
L 150.676928 250.244093 
L 151.02108 249.850694 
L 151.365231 249.799213 
L 151.709382 249.878528 
L 152.053534 249.84069 
L 152.397685 249.490564 
L 152.741837 248.696727 
L 153.43014 245.888683 
L 154.118442 242.987782 
L 154.806745 241.329188 
L 155.839199 240.034052 
L 156.527502 238.303913 
L 157.215805 236.21617 
L 157.904108 234.795984 
L 158.592411 234.07639 
L 160.313168 233.397807 
L 160.657319 233.018382 
L 161.001471 232.359459 
L 162.722228 227.803804 
L 163.066379 227.550957 
L 164.098833 227.588645 
L 164.442985 227.322612 
L 165.131287 226.123982 
L 165.81959 224.910038 
L 166.163742 224.695776 
L 166.507893 224.832459 
L 167.540347 226.159712 
L 167.884499 226.259104 
L 168.22865 225.926218 
L 168.572801 225.149033 
L 169.605256 222.104795 
L 169.949407 221.585391 
L 170.293559 221.420786 
L 170.63771 221.534695 
L 171.670164 222.363048 
L 172.014316 222.387392 
L 173.04677 222.034831 
L 173.735073 222.133181 
L 174.423375 222.533711 
L 175.111678 223.064807 
L 175.45583 223.131441 
L 175.799981 222.917051 
L 176.144132 222.349947 
L 176.832435 220.204328 
L 177.520738 217.693051 
L 177.86489 216.736842 
L 178.209041 216.125847 
L 178.553192 215.892392 
L 179.585647 216.187536 
L 179.929798 215.923677 
L 181.306404 213.80406 
L 181.650555 213.686929 
L 181.994706 213.91434 
L 182.683009 214.668485 
L 183.027161 214.578792 
L 183.371312 213.972532 
L 184.059615 211.567095 
L 184.747918 208.883574 
L 185.092069 207.975003 
L 185.43622 207.476753 
L 186.124523 207.201412 
L 186.468675 207.064269 
L 186.812826 206.759142 
L 187.501129 205.636281 
L 188.189432 204.575782 
L 188.533583 204.405606 
L 188.877735 204.488999 
L 189.910189 205.069595 
L 190.25434 204.914466 
L 190.598492 204.471039 
L 193.007551 200.016043 
L 193.351703 199.768276 
L 193.695854 199.669206 
L 195.07246 199.687414 
L 195.760763 198.978173 
L 196.449066 198.089759 
L 197.137368 197.596568 
L 197.48152 197.435075 
L 197.825671 197.135295 
L 198.169823 196.535298 
L 198.858125 194.429475 
L 199.89058 190.778748 
L 200.234731 190.07164 
L 200.578882 189.765582 
L 201.267185 189.666629 
L 201.611337 189.430946 
L 202.299639 188.33014 
L 202.987942 187.263195 
L 203.332094 187.171806 
L 203.676245 187.478305 
L 204.708699 189.062975 
L 205.052851 189.071704 
L 205.397002 188.632128 
L 206.773608 185.493003 
L 207.117759 185.201044 
L 208.150213 184.812102 
L 208.494365 184.338951 
L 209.182668 182.475487 
L 209.87097 180.622456 
L 210.215122 180.183793 
L 210.559273 180.082338 
L 210.903425 180.254018 
L 212.28003 181.728193 
L 212.624182 181.77873 
L 212.968333 181.601771 
L 213.656636 180.659991 
L 214.344939 179.56427 
L 214.68909 179.280638 
L 215.033242 179.291144 
L 216.065696 180.287626 
L 216.409847 180.211901 
L 216.753999 179.628663 
L 218.130604 175.695657 
L 218.474756 175.499404 
L 218.818907 175.801334 
L 219.50721 177.029812 
L 219.851361 177.27077 
L 220.195513 176.928797 
L 220.539664 176.02477 
L 221.227967 173.627479 
L 221.572118 172.827648 
L 221.91627 172.600935 
L 222.260421 172.955025 
L 223.292875 174.925229 
L 223.637027 174.859791 
L 223.981178 174.267143 
L 224.669481 172.487105 
L 225.013632 171.909497 
L 225.357784 171.785152 
L 225.701935 172.093857 
L 226.734389 173.845183 
L 227.078541 173.946762 
L 227.422692 173.535635 
L 228.110995 171.496476 
L 228.799298 169.360876 
L 229.143449 168.746398 
L 229.487601 168.57398 
L 229.831752 168.81589 
L 230.520055 169.659836 
L 230.864206 169.694124 
L 231.208358 169.247747 
L 231.896661 167.194679 
L 232.584963 165.165244 
L 232.929115 164.835053 
L 233.273266 165.113154 
L 233.961569 166.962566 
L 234.649872 168.68097 
L 234.994023 168.776436 
L 235.338175 168.24394 
L 236.370629 165.394412 
L 236.71478 164.907928 
L 237.058932 164.874701 
L 238.091386 165.975684 
L 238.435537 165.728495 
L 238.779689 164.933723 
L 239.812143 161.357975 
L 240.156294 160.683836 
L 240.500446 160.619106 
L 240.844597 161.13681 
L 241.877051 163.448256 
L 242.221203 163.56907 
L 242.565354 163.165592 
L 243.94196 160.064985 
L 244.286111 159.819083 
L 245.318565 159.844777 
L 245.662717 159.485485 
L 246.006868 158.733172 
L 247.383474 154.554991 
L 247.727625 154.105469 
L 248.071777 154.219318 
L 248.415928 154.863632 
L 249.448382 157.465232 
L 249.792534 157.773217 
L 250.136685 157.625041 
L 251.169139 156.020525 
L 251.513291 155.842028 
L 251.857442 155.985419 
L 252.545745 156.548225 
L 252.889896 156.416315 
L 253.234048 155.718279 
L 253.922351 152.881513 
L 254.610653 149.859821 
L 254.954805 148.88706 
L 255.298956 148.444208 
L 255.643108 148.509262 
L 256.675562 149.581396 
L 257.019713 149.585215 
L 257.363865 149.370077 
L 258.396319 148.327918 
L 258.74047 148.23567 
L 259.084622 148.445512 
L 259.428773 148.972054 
L 260.461227 151.125873 
L 260.805379 151.409673 
L 261.14953 151.263902 
L 261.493682 150.715345 
L 262.526136 148.185347 
L 262.870287 147.729424 
L 263.214439 147.664325 
L 263.902742 148.14836 
L 264.246893 148.195925 
L 264.591044 147.881679 
L 264.935196 147.195834 
L 265.96765 144.537467 
L 266.311801 144.187 
L 266.655953 144.308657 
L 267.344256 145.459118 
L 267.688407 146.054291 
L 268.032558 146.393738 
L 268.37671 146.397548 
L 269.065013 145.706702 
L 269.409164 145.357763 
L 269.753315 145.196751 
L 270.097467 145.249787 
L 270.441618 145.501391 
L 271.474072 146.656448 
L 271.818224 146.672218 
L 272.162375 146.357454 
L 272.850678 145.081176 
L 273.883132 142.92565 
L 274.227284 142.6658 
L 274.571435 142.81663 
L 275.259738 144.03772 
L 275.603889 144.655622 
L 275.948041 144.935922 
L 276.292192 144.776141 
L 277.324646 143.353913 
L 277.668798 143.334461 
L 278.012949 143.752075 
L 278.701252 145.61711 
L 279.045403 146.545857 
L 279.389555 147.09077 
L 279.733706 147.213936 
L 281.110312 146.638714 
L 281.454463 146.934982 
L 281.798615 147.587301 
L 282.831069 150.309352 
L 283.17522 150.767349 
L 283.519372 150.818498 
L 283.863523 150.50604 
L 285.240129 148.224023 
L 285.58428 147.998704 
L 285.928432 148.025523 
L 286.616734 148.362877 
L 286.960886 148.324776 
L 287.649189 147.707067 
L 288.337491 146.961156 
L 288.681643 146.738579 
L 289.025794 146.728772 
L 289.714097 147.293 
L 290.058249 147.577994 
L 290.4024 147.648044 
L 290.746551 147.488244 
L 291.779006 146.440449 
L 292.467308 145.841075 
L 293.155611 145.568576 
L 293.843914 145.355099 
L 294.876368 144.862919 
L 295.22052 144.943269 
L 296.941277 145.942973 
L 297.285428 145.868597 
L 297.62958 145.569466 
L 298.662034 143.93903 
L 300.726942 140.462004 
L 301.759396 139.642022 
L 302.447699 139.272997 
L 303.136002 139.134557 
L 303.480153 139.227268 
L 303.824305 139.491464 
L 304.856759 140.658629 
L 305.20091 140.663138 
L 305.545062 140.339246 
L 306.233365 138.961928 
L 308.986576 131.388983 
L 309.674879 129.560041 
L 310.01903 129.038273 
L 310.363182 128.820553 
L 310.707333 128.884227 
L 311.395636 129.588055 
L 312.083939 130.320467 
L 312.42809 130.443527 
L 312.772241 130.3763 
L 313.460544 129.885282 
L 314.148847 128.999365 
L 314.83715 127.587264 
L 315.525453 125.567838 
L 316.213756 122.581121 
L 317.24621 117.64688 
L 317.934513 115.23852 
L 318.278664 114.464287 
L 318.966967 113.679097 
L 319.999421 113.090681 
L 320.343572 112.987117 
L 320.687724 113.002811 
L 321.376027 113.368159 
L 322.064329 113.768045 
L 322.408481 113.76602 
L 322.752632 113.533866 
L 323.096784 113.017452 
L 323.785087 111.227054 
L 324.817541 108.238541 
L 325.505844 106.763558 
L 325.849995 106.355246 
L 326.194146 106.172257 
L 327.226601 105.958623 
L 328.947358 104.83463 
L 329.291509 104.921332 
L 329.979812 105.632336 
L 330.323963 106.027449 
L 330.668115 106.172444 
L 331.012266 105.886735 
L 331.356417 105.135753 
L 332.04472 102.680288 
L 332.733023 100.394371 
L 333.077175 99.93882 
L 333.421326 100.072226 
L 334.45378 101.796031 
L 334.797932 101.791814 
L 335.142083 101.314541 
L 336.174537 99.063311 
L 336.518689 98.830148 
L 336.86284 99.013451 
L 337.551143 99.942744 
L 337.895294 100.182634 
L 338.239446 100.008643 
L 338.583597 99.400682 
L 339.960203 95.810355 
L 340.304354 95.456774 
L 340.648506 95.466989 
L 340.992657 95.784113 
L 341.68096 96.765541 
L 342.025111 97.041553 
L 342.369263 96.999444 
L 343.401717 95.965985 
L 343.745868 95.943392 
L 344.09002 96.283813 
L 344.434171 96.992218 
L 345.466625 100.048606 
L 345.810777 100.545889 
L 346.154928 100.484125 
L 346.499079 99.91668 
L 347.531534 97.442367 
L 347.875685 97.236443 
L 348.219836 97.517953 
L 348.908139 98.731576 
L 349.252291 99.060695 
L 349.596442 98.849746 
L 349.940594 98.004253 
L 350.973048 94.001587 
L 351.317199 93.294276 
L 351.661351 93.122841 
L 352.005502 93.38898 
L 352.693805 94.278284 
L 353.037956 94.304372 
L 353.382108 93.868419 
L 354.414562 91.70511 
L 354.758713 91.429856 
L 355.102865 91.584024 
L 355.791167 92.881997 
L 356.47947 94.094068 
L 356.823622 94.284395 
L 357.167773 94.100604 
L 357.511925 93.520406 
L 358.544379 90.82769 
L 358.88853 90.319425 
L 359.232682 90.211838 
L 359.576833 90.487498 
L 360.265136 91.406042 
L 360.609287 91.407193 
L 360.953439 90.823041 
L 361.641741 88.389229 
L 362.330044 86.274031 
L 362.674196 86.032834 
L 363.018347 86.4061 
L 363.70665 87.830478 
L 364.050801 88.138382 
L 364.394953 87.868472 
L 364.739104 87.044594 
L 365.771558 83.715713 
L 366.11571 83.165068 
L 366.459861 82.987673 
L 367.148164 83.075986 
L 367.492315 82.911256 
L 367.836467 82.429659 
L 368.52477 80.715515 
L 369.557224 77.986772 
L 370.245527 76.92211 
L 370.933829 76.53143 
L 371.622132 76.09812 
L 371.966284 75.654741 
L 372.654586 74.153704 
L 373.687041 71.50896 
L 374.375343 70.424775 
L 375.063646 69.625115 
L 375.751949 68.230381 
L 377.128555 64.58325 
L 377.472706 64.186801 
L 377.816858 64.169412 
L 378.849312 64.963281 
L 379.193463 64.932628 
L 379.537615 64.584785 
L 380.225917 63.134415 
L 380.91422 61.811986 
L 381.602523 61.303322 
L 381.946674 61.108799 
L 382.290826 60.738153 
L 382.634977 60.082931 
L 383.32328 58.027915 
L 384.011583 55.875525 
L 384.699886 54.412588 
L 385.388189 53.692032 
L 386.420643 52.758414 
L 387.453097 51.863741 
L 389.173854 50.774749 
L 389.862157 49.63026 
L 390.55046 47.825855 
L 392.271217 42.535516 
L 392.615368 41.92703 
L 392.95952 41.559273 
L 393.647822 41.320613 
L 394.680277 41.24044 
L 395.368579 40.889527 
L 396.056882 40.301344 
L 396.745185 39.435747 
L 397.433488 38.171379 
L 398.121791 36.218652 
L 399.154245 31.907437 
L 399.842548 29.118885 
L 400.530851 27.336881 
L 400.875002 26.86777 
L 401.219153 26.612469 
L 401.907456 26.537898 
L 403.628213 26.782724 
L 403.972365 26.545892 
L 404.316516 26.09504 
L 405.004819 24.590522 
L 405.693122 22.398752 
L 406.037273 21.103015 
L 406.037273 21.103015 
" clip-path="url(#p8559b64680)" style="fill: none; stroke: #a4133c; stroke-width: 2.5; stroke-linecap: square"/>
   </g>
   <g id="line2d_4">
    <path d="M 61.885865 383.15851 
L 62.918319 383.000309 
L 64.294925 382.533796 
L 65.67153 381.7598 
L 69.801347 379.388497 
L 70.833802 379.077989 
L 72.554559 378.47163 
L 73.242861 378.241224 
L 73.931164 378.259744 
L 74.619467 378.269219 
L 75.996073 377.905154 
L 76.684376 377.65843 
L 77.372678 377.58505 
L 79.093435 376.793462 
L 80.814192 375.688133 
L 81.502495 375.033269 
L 82.534949 374.678896 
L 83.911555 374.376481 
L 84.599858 374.12372 
L 87.008918 374.835576 
L 88.041372 374.257018 
L 88.385523 374.180947 
L 89.417978 373.587708 
L 89.762129 373.527645 
L 90.10628 373.247885 
L 91.138735 371.777191 
L 91.827037 371.132649 
L 92.51534 370.403696 
L 92.859492 370.179275 
L 93.547795 369.270703 
L 94.236097 368.413686 
L 96.645157 367.050644 
L 97.33346 366.46533 
L 98.021763 366.293922 
L 98.710066 365.81964 
L 99.054217 365.742874 
L 99.398368 365.514764 
L 100.430823 364.225835 
L 101.119126 363.608097 
L 103.184034 359.875656 
L 103.528185 359.497897 
L 104.216488 359.069652 
L 105.248942 357.762672 
L 106.625548 356.322216 
L 107.313851 356.390819 
L 108.002154 356.064726 
L 108.690456 355.909909 
L 109.722911 355.1158 
L 110.411214 355.082499 
L 111.787819 353.988346 
L 112.820273 352.336621 
L 113.508576 351.504709 
L 114.885182 348.691226 
L 115.917636 346.114248 
L 117.638393 343.507511 
L 118.326696 342.646804 
L 119.014999 341.81355 
L 119.703302 341.02257 
L 120.735756 339.476004 
L 121.424059 338.441361 
L 122.112361 337.058748 
L 122.800664 334.951484 
L 123.833118 331.184735 
L 124.521421 329.416282 
L 125.209724 328.352365 
L 125.553875 327.856927 
L 126.242178 326.225123 
L 127.274633 323.747482 
L 127.618784 323.121968 
L 127.962935 322.72905 
L 128.651238 322.365542 
L 128.99539 321.911145 
L 129.683692 320.193101 
L 130.371995 317.738726 
L 131.060298 315.081162 
L 131.748601 313.223082 
L 134.845964 306.195822 
L 135.534266 305.435601 
L 136.566721 304.780964 
L 137.255023 303.641556 
L 137.943326 301.881306 
L 139.319932 297.262965 
L 140.008235 295.731005 
L 141.38484 293.094905 
L 142.073143 291.190168 
L 142.417294 290.500546 
L 142.761446 290.138723 
L 143.105597 290.091777 
L 143.449749 290.315762 
L 144.138052 291.15325 
L 144.482203 291.225606 
L 144.826354 290.729372 
L 145.514657 288.314288 
L 146.20296 285.571253 
L 146.547111 284.580919 
L 146.891263 283.969088 
L 147.923717 282.837629 
L 148.267868 281.983699 
L 149.644474 277.429467 
L 149.988625 276.945048 
L 150.332777 276.900131 
L 150.676928 277.195566 
L 151.709382 278.55797 
L 152.053534 278.568943 
L 152.397685 278.115953 
L 153.085988 276.141817 
L 153.774291 274.424664 
L 154.118442 274.094537 
L 154.462594 274.132654 
L 155.495048 274.935365 
L 155.839199 274.627367 
L 156.871654 272.521855 
L 157.215805 272.211751 
L 157.559956 272.245059 
L 157.904108 272.599546 
L 158.936562 274.424833 
L 159.280713 274.712259 
L 159.624865 274.746116 
L 159.969016 274.553012 
L 160.313168 274.135262 
L 162.378076 270.700944 
L 163.41053 269.749984 
L 164.098833 268.460812 
L 164.787136 267.091421 
L 165.131287 266.662795 
L 165.475439 266.510835 
L 165.81959 266.668916 
L 166.852044 267.883294 
L 167.196196 268.048647 
L 167.540347 267.984314 
L 167.884499 267.635423 
L 168.22865 266.97201 
L 169.605256 263.403469 
L 170.293559 262.442315 
L 170.981861 261.727847 
L 171.326013 261.195326 
L 172.014316 259.422516 
L 172.702618 257.435522 
L 173.390921 256.108772 
L 174.079224 255.408009 
L 175.111678 254.602325 
L 175.45583 254.077321 
L 175.799981 253.282713 
L 176.488284 250.951324 
L 177.176587 248.595557 
L 177.520738 247.78496 
L 177.86489 247.317285 
L 178.209041 247.162937 
L 178.897344 247.140893 
L 179.241495 246.807143 
L 179.585647 246.06966 
L 181.306404 241.02025 
L 181.650555 240.77605 
L 182.338858 240.750701 
L 182.683009 240.328552 
L 183.027161 239.270142 
L 183.715463 235.532245 
L 184.403766 231.760819 
L 184.747918 230.606395 
L 185.092069 230.080548 
L 185.43622 230.062205 
L 185.780372 230.263306 
L 186.124523 230.313402 
L 186.468675 229.929389 
L 186.812826 229.066051 
L 187.84528 225.612245 
L 188.189432 224.860745 
L 188.533583 224.433581 
L 189.566037 223.791066 
L 189.910189 223.140396 
L 190.598492 220.596935 
L 191.630946 215.977852 
L 192.319249 214.04953 
L 192.6634 213.660624 
L 193.007551 213.631261 
L 193.695854 213.993209 
L 194.040006 214.046773 
L 194.384157 213.977167 
L 194.728309 213.792169 
L 195.416611 213.052568 
L 196.104914 212.288863 
L 196.449066 212.165441 
L 197.48152 212.337764 
L 197.825671 211.98043 
L 198.169823 211.20162 
L 198.858125 208.71946 
L 199.546428 206.23978 
L 199.89058 205.524797 
L 200.234731 205.33217 
L 201.267185 206.123472 
L 201.611337 205.980511 
L 202.987942 204.695886 
L 203.332094 204.877067 
L 203.676245 205.463151 
L 204.708699 207.82732 
L 205.052851 207.997371 
L 205.397002 207.720182 
L 206.085305 206.305604 
L 206.773608 205.075239 
L 207.117759 204.904842 
L 207.461911 205.00374 
L 208.150213 205.450271 
L 208.494365 205.442148 
L 208.838516 205.132513 
L 210.215122 203.096511 
L 210.559273 203.104044 
L 210.903425 203.429945 
L 211.591727 204.895046 
L 212.28003 206.172963 
L 212.624182 206.294152 
L 212.968333 206.048091 
L 214.344939 204.049636 
L 214.68909 204.203443 
L 215.377393 205.444903 
L 216.065696 206.564304 
L 216.409847 206.678335 
L 216.753999 206.408717 
L 217.786453 204.723757 
L 218.130604 204.56124 
L 218.474756 204.756434 
L 218.818907 205.27221 
L 219.851361 207.217335 
L 220.195513 207.162569 
L 220.539664 206.595647 
L 221.572118 204.146917 
L 221.91627 203.844899 
L 222.260421 204.021577 
L 222.948724 205.392826 
L 223.292875 206.085125 
L 223.637027 206.519751 
L 223.981178 206.647875 
L 224.32533 206.506618 
L 225.013632 205.890405 
L 225.357784 205.766171 
L 225.701935 205.953481 
L 226.046087 206.441419 
L 227.078541 208.469961 
L 227.422692 208.703513 
L 227.766844 208.431736 
L 229.143449 205.721102 
L 229.487601 205.635723 
L 229.831752 206.002084 
L 230.520055 207.734283 
L 231.208358 209.215252 
L 231.552509 209.49266 
L 231.896661 209.497954 
L 232.929115 208.934444 
L 233.273266 209.162611 
L 233.617418 209.746319 
L 234.649872 212.199454 
L 234.994023 212.507138 
L 235.338175 212.259829 
L 236.026477 210.694158 
L 236.71478 209.349236 
L 237.058932 209.176896 
L 237.403083 209.433323 
L 238.779689 211.85158 
L 239.12384 211.986619 
L 240.156294 211.823237 
L 240.500446 212.036519 
L 240.844597 212.619451 
L 242.221203 216.073002 
L 242.565354 216.333212 
L 242.909506 216.172326 
L 244.286111 214.216478 
L 244.630263 214.174167 
L 244.974414 214.448277 
L 246.006868 216.084914 
L 246.35102 216.277913 
L 246.695171 216.15429 
L 247.039323 215.733512 
L 247.727625 214.467055 
L 248.071777 214.092447 
L 248.415928 214.144783 
L 248.76008 214.601466 
L 249.792534 216.587325 
L 250.136685 216.773511 
L 250.480837 216.470111 
L 251.857442 213.849652 
L 252.201594 213.885956 
L 252.545745 214.318845 
L 253.234048 215.703682 
L 253.578199 216.02311 
L 253.922351 215.81249 
L 254.610653 214.253171 
L 254.954805 213.436928 
L 255.298956 212.946834 
L 255.643108 212.905389 
L 255.987259 213.256604 
L 256.675562 214.27693 
L 257.019713 214.475774 
L 257.363865 214.270088 
L 257.708016 213.660468 
L 258.74047 210.993727 
L 259.084622 210.46805 
L 259.428773 210.280794 
L 259.772925 210.42286 
L 260.461227 211.392071 
L 260.805379 211.871423 
L 261.14953 212.057562 
L 261.493682 211.854437 
L 262.870287 209.759929 
L 263.214439 209.641383 
L 263.55859 209.732657 
L 264.246893 210.138223 
L 264.591044 210.129683 
L 264.935196 209.781141 
L 265.279347 209.075697 
L 266.655953 205.351798 
L 267.000104 204.945502 
L 267.344256 204.953549 
L 268.37671 206.255837 
L 268.720861 206.148233 
L 269.065013 205.537092 
L 270.097467 203.020491 
L 270.441618 202.777515 
L 270.78577 203.084254 
L 271.818224 205.660917 
L 272.162375 205.815918 
L 272.506527 205.226338 
L 273.19483 202.516084 
L 273.883132 200.004878 
L 274.227284 199.597358 
L 274.571435 199.864003 
L 275.603889 201.870865 
L 275.948041 201.664553 
L 276.292192 200.789385 
L 276.980495 198.344782 
L 277.324646 197.597083 
L 277.668798 197.518175 
L 278.012949 198.139992 
L 279.389555 202.623034 
L 279.733706 202.560569 
L 280.077858 201.971624 
L 281.110312 199.680669 
L 281.454463 199.473982 
L 281.798615 199.758851 
L 282.831069 201.925703 
L 283.17522 202.112331 
L 283.519372 201.732597 
L 284.207675 199.668451 
L 284.895977 197.645744 
L 285.240129 197.365244 
L 285.58428 197.725146 
L 286.272583 199.7841 
L 286.616734 200.800295 
L 286.960886 201.332932 
L 287.305037 201.260624 
L 287.649189 200.664819 
L 288.681643 197.867638 
L 289.025794 197.548251 
L 289.369946 197.901965 
L 290.4024 200.48546 
L 290.746551 200.604137 
L 291.090703 200.13468 
L 291.779006 198.00766 
L 292.123157 196.944733 
L 292.467308 196.397799 
L 292.81146 196.569438 
L 293.843914 199.10664 
L 294.188065 199.360887 
L 294.532217 199.030226 
L 295.908822 195.927392 
L 296.252974 196.016177 
L 296.597125 196.560115 
L 297.285428 197.982863 
L 297.62958 198.211618 
L 297.973731 197.869556 
L 299.350337 194.643601 
L 299.694488 194.293726 
L 300.038639 194.241032 
L 300.726942 194.603315 
L 301.071094 194.601003 
L 301.415245 194.28271 
L 302.103548 192.978918 
L 302.791851 191.151206 
L 303.824305 188.278358 
L 304.512608 187.15697 
L 305.545062 185.759009 
L 306.233365 184.119507 
L 307.265819 181.297319 
L 307.60997 180.654776 
L 307.954122 180.288292 
L 308.986576 179.81606 
L 309.330727 179.311804 
L 310.01903 177.481995 
L 310.707333 175.26404 
L 311.051484 174.456826 
L 311.395636 173.974617 
L 312.42809 173.091695 
L 313.116393 171.607367 
L 314.148847 168.768031 
L 314.83715 167.609087 
L 315.525453 166.63449 
L 316.213756 164.891458 
L 317.24621 161.579842 
L 317.934513 160.299237 
L 318.966967 158.851468 
L 320.343572 156.241435 
L 321.031875 155.82484 
L 321.376027 155.676008 
L 321.720178 155.373788 
L 322.064329 154.838008 
L 322.752632 153.175454 
L 324.129238 149.628039 
L 326.194146 144.966101 
L 326.538298 144.595091 
L 327.914903 143.858276 
L 329.291509 142.126555 
L 329.63566 142.069814 
L 330.668115 142.354945 
L 331.012266 141.986945 
L 331.356417 141.218977 
L 332.388872 138.214098 
L 332.733023 137.697799 
L 333.077175 137.52228 
L 333.765477 137.475993 
L 334.109629 137.156679 
L 334.45378 136.488039 
L 335.830386 132.942139 
L 336.174537 132.506532 
L 337.551143 131.482345 
L 338.927748 129.596383 
L 339.2719 129.358616 
L 339.616051 129.261605 
L 340.304354 129.369075 
L 342.025111 129.697397 
L 342.713414 129.708313 
L 343.401717 129.312479 
L 344.434171 128.512324 
L 345.122474 128.500598 
L 345.810777 128.513248 
L 346.154928 128.265245 
L 346.843231 127.143706 
L 347.187382 126.572398 
L 347.531534 126.263756 
L 347.875685 126.281777 
L 348.908139 127.147138 
L 349.252291 127.169631 
L 349.596442 126.857939 
L 350.284745 125.410817 
L 350.973048 123.982313 
L 352.693805 121.590032 
L 353.382108 119.475402 
L 354.414562 116.184998 
L 355.102865 115.06032 
L 355.791167 114.383885 
L 356.47947 113.353809 
L 359.576833 107.323172 
L 361.985893 102.114046 
L 362.674196 101.128957 
L 364.050801 99.903034 
L 364.394953 99.323451 
L 365.083255 97.452586 
L 366.459861 92.975333 
L 368.868921 86.848959 
L 369.557224 84.876748 
L 370.245527 83.591917 
L 370.589678 83.297594 
L 371.966284 82.793788 
L 372.310435 82.380837 
L 372.998738 81.006422 
L 374.031192 78.921647 
L 375.063646 77.469727 
L 375.751949 75.805269 
L 377.472706 70.041414 
L 378.161009 68.748756 
L 379.193463 67.014731 
L 380.225917 64.731338 
L 380.91422 63.322177 
L 381.602523 62.378025 
L 385.044037 58.739682 
L 386.764794 56.587558 
L 387.453097 55.22067 
L 388.485551 52.517067 
L 388.829703 51.955779 
L 389.173854 51.695588 
L 389.518005 51.705531 
L 390.206308 52.015046 
L 390.55046 52.054369 
L 391.927065 51.760029 
L 392.271217 51.929555 
L 392.95952 52.754309 
L 393.303671 53.208686 
L 393.647822 53.478713 
L 393.991974 53.45265 
L 394.336125 53.118624 
L 395.024428 51.84389 
L 395.712731 50.539646 
L 396.056882 50.153688 
L 396.745185 49.86485 
L 397.089336 49.742214 
L 397.777639 49.112984 
L 398.465942 48.352867 
L 398.810093 48.197217 
L 399.154245 48.206787 
L 399.842548 48.55176 
L 400.530851 48.956595 
L 400.875002 48.9589 
L 401.907456 48.65278 
L 402.595759 48.990074 
L 403.284062 49.25341 
L 403.972365 49.050294 
L 405.34897 48.237713 
L 405.693122 48.235243 
L 406.037273 48.383693 
L 406.037273 48.383693 
" clip-path="url(#p8559b64680)" style="fill: none; stroke: #590d22; stroke-width: 2.5; stroke-linecap: square"/>
   </g>
   <g id="line2d_5">
    <path d="M 61.885865 383.15851 
L 62.230016 382.990736 
L 63.606622 381.214523 
L 63.950773 381.144052 
L 64.639076 381.352307 
L 64.983228 381.292609 
L 65.67153 380.91748 
L 66.359833 380.739447 
L 67.392288 380.157431 
L 67.736439 380.154985 
L 68.768893 380.414494 
L 69.801347 380.563134 
L 70.833802 380.221542 
L 71.522104 380.129937 
L 72.89871 379.787832 
L 73.587013 379.259326 
L 74.275316 379.083898 
L 75.30777 378.39879 
L 75.651921 378.314015 
L 75.996073 378.113264 
L 77.028527 377.179718 
L 77.71683 376.620367 
L 78.749284 375.775969 
L 80.470041 374.354989 
L 81.158344 373.560476 
L 81.846647 373.141012 
L 82.534949 372.707323 
L 82.879101 372.493181 
L 83.567404 372.421255 
L 85.632312 371.075586 
L 86.320615 370.248824 
L 86.664766 369.984394 
L 88.041372 368.275282 
L 88.385523 367.992304 
L 89.073826 366.943918 
L 90.10628 365.2417 
L 90.794583 364.040137 
L 93.547795 361.324489 
L 93.891946 361.154228 
L 94.580249 361.243629 
L 94.9244 361.056853 
L 95.612703 360.186189 
L 96.301006 359.546246 
L 96.989309 358.675146 
L 97.677611 358.205067 
L 98.021763 357.71384 
L 100.086671 353.286555 
L 100.774974 352.443163 
L 102.15158 351.202577 
L 102.839883 349.996709 
L 103.528185 348.732147 
L 104.216488 347.842266 
L 105.248942 346.992867 
L 105.593094 346.373161 
L 106.281397 344.169243 
L 107.313851 340.379146 
L 107.658002 339.45654 
L 108.002154 338.858419 
L 108.690456 338.142763 
L 109.034608 337.535775 
L 109.722911 335.53171 
L 110.755365 331.727596 
L 111.099516 330.90851 
L 111.443668 330.472887 
L 112.476122 329.94581 
L 112.820273 329.343741 
L 113.164425 328.224629 
L 114.196879 323.184378 
L 114.885182 320.365203 
L 115.229333 319.510196 
L 116.261787 317.872548 
L 116.605939 316.782814 
L 117.294242 313.280372 
L 118.326696 307.651317 
L 118.670847 306.695941 
L 119.014999 306.300072 
L 120.047453 306.109029 
L 120.391604 305.395438 
L 120.735756 304.100747 
L 122.112361 297.389268 
L 122.456513 296.739498 
L 122.800664 296.713935 
L 123.488967 297.255095 
L 123.833118 296.95662 
L 124.17727 295.892413 
L 124.865573 291.870214 
L 125.553875 288.132822 
L 125.898027 287.38633 
L 126.242178 287.502857 
L 127.274633 289.867563 
L 127.618784 289.862739 
L 127.962935 288.989761 
L 129.339541 283.079235 
L 129.683692 282.998373 
L 130.027844 283.688174 
L 130.716147 285.901419 
L 131.060298 286.378095 
L 131.404449 285.935836 
L 131.748601 284.593065 
L 132.781055 279.555331 
L 133.125206 279.004387 
L 133.469358 279.316607 
L 134.157661 281.603576 
L 134.501812 282.776299 
L 134.845964 283.39558 
L 135.190115 283.16991 
L 135.534266 282.116543 
L 136.222569 279.096378 
L 136.566721 278.082587 
L 136.910872 277.76378 
L 137.255023 278.137513 
L 138.287478 280.753069 
L 138.631629 280.810056 
L 138.97578 280.127724 
L 140.008235 276.689488 
L 140.352386 276.273457 
L 140.696537 276.541974 
L 141.040689 277.467833 
L 142.073143 281.630585 
L 142.417294 282.390584 
L 142.761446 282.546456 
L 143.105597 282.221332 
L 143.7939 281.267407 
L 144.138052 281.310919 
L 144.482203 281.969826 
L 145.858809 286.744629 
L 146.20296 286.959282 
L 146.547111 286.479751 
L 147.579566 283.96859 
L 147.923717 284.00291 
L 148.267868 284.67887 
L 148.956171 287.295624 
L 149.300323 288.630079 
L 149.644474 289.466342 
L 149.988625 289.573488 
L 150.332777 289.065169 
L 151.02108 287.720301 
L 151.365231 287.575525 
L 151.709382 288.015322 
L 152.397685 290.351538 
L 152.741837 291.608149 
L 153.085988 292.405608 
L 153.43014 292.599185 
L 153.774291 292.276897 
L 154.462594 291.03893 
L 154.806745 290.716499 
L 155.150897 290.918261 
L 155.495048 291.685824 
L 156.527502 295.070027 
L 156.871654 295.63421 
L 157.215805 295.615468 
L 157.559956 295.021463 
L 158.592411 292.212869 
L 158.936562 291.885555 
L 159.280713 292.024164 
L 160.313168 293.495628 
L 160.657319 293.505736 
L 161.001471 293.095293 
L 161.689773 291.793603 
L 162.033925 291.449298 
L 162.378076 291.568876 
L 162.722228 292.163649 
L 163.754682 295.010158 
L 164.098833 295.409527 
L 164.442985 295.276642 
L 164.787136 294.622627 
L 165.81959 291.575071 
L 166.163742 291.047848 
L 166.507893 290.959257 
L 166.852044 291.217745 
L 167.540347 291.990357 
L 167.884499 292.019433 
L 168.22865 291.660574 
L 169.261104 289.875598 
L 169.605256 289.79596 
L 169.949407 290.217899 
L 170.63771 292.279099 
L 171.326013 294.320139 
L 171.670164 294.668073 
L 172.014316 294.493247 
L 173.04677 292.839595 
L 173.390921 292.789379 
L 173.735073 293.210073 
L 174.767527 295.263724 
L 175.111678 295.45931 
L 175.45583 295.330753 
L 176.488284 294.404834 
L 176.832435 294.522331 
L 177.176587 295.022581 
L 178.209041 296.996382 
L 178.553192 297.300687 
L 178.897344 297.416914 
L 179.241495 297.347075 
L 180.273949 296.516081 
L 180.618101 296.533286 
L 181.306404 296.993415 
L 181.994706 297.818298 
L 182.683009 298.654395 
L 183.027161 298.729469 
L 185.092069 298.291213 
L 185.780372 298.517562 
L 186.124523 298.364077 
L 186.468675 297.922674 
L 186.812826 297.234295 
L 187.501129 295.040247 
L 188.189432 292.49814 
L 188.533583 291.662603 
L 189.221886 290.806862 
L 189.910189 289.844571 
L 190.25434 289.012941 
L 191.630946 284.255526 
L 191.975097 283.687254 
L 192.319249 283.44874 
L 193.351703 283.144462 
L 193.695854 282.811491 
L 194.040006 282.232643 
L 194.728309 280.270423 
L 195.760763 276.686786 
L 196.449066 275.240643 
L 196.793217 274.949179 
L 197.48152 274.662652 
L 197.825671 274.205554 
L 198.169823 273.250902 
L 198.858125 269.908218 
L 199.546428 265.93983 
L 199.89058 264.423691 
L 200.234731 263.423265 
L 200.578882 262.932316 
L 201.267185 262.598316 
L 201.611337 262.054338 
L 201.955488 260.939483 
L 203.332094 254.510409 
L 203.676245 253.944956 
L 204.020397 254.01909 
L 204.708699 255.144612 
L 205.052851 255.332119 
L 205.397002 254.695091 
L 205.741154 253.203427 
L 206.773608 247.283742 
L 207.117759 246.056541 
L 207.461911 245.442635 
L 207.806062 245.34882 
L 208.150213 245.511928 
L 208.494365 245.502763 
L 208.838516 244.955125 
L 209.182668 243.769562 
L 210.559273 237.187418 
L 210.903425 236.325685 
L 211.247576 235.990154 
L 211.591727 236.070967 
L 212.28003 236.56475 
L 212.624182 236.351896 
L 212.968333 235.528051 
L 213.656636 232.442896 
L 214.344939 229.454664 
L 214.68909 228.592674 
L 215.033242 228.262141 
L 215.377393 228.427045 
L 216.065696 229.218548 
L 216.409847 229.107536 
L 216.753999 228.429981 
L 217.786453 225.239189 
L 218.130604 224.643312 
L 218.474756 224.574637 
L 218.818907 225.048544 
L 219.50721 226.744972 
L 219.851361 227.248042 
L 220.195513 227.143632 
L 220.539664 226.3919 
L 221.91627 221.226346 
L 222.260421 220.606862 
L 222.604573 220.456274 
L 222.948724 220.692806 
L 223.637027 221.311054 
L 223.981178 221.117275 
L 224.32533 220.465287 
L 225.357784 217.616867 
L 225.701935 217.035168 
L 226.046087 216.932576 
L 226.390238 217.343732 
L 227.422692 219.593236 
L 227.766844 219.764052 
L 228.110995 219.418154 
L 228.455146 218.596172 
L 229.487601 215.526576 
L 229.831752 215.080934 
L 230.175904 215.02732 
L 231.208358 215.545926 
L 231.552509 215.294207 
L 232.240812 214.066469 
L 232.929115 212.936343 
L 233.273266 212.749053 
L 233.617418 212.87775 
L 234.30572 213.826187 
L 234.649872 214.279539 
L 234.994023 214.460306 
L 235.338175 214.31616 
L 235.682326 213.871056 
L 236.370629 212.346696 
L 237.058932 210.912554 
L 237.403083 210.610421 
L 237.747235 210.625301 
L 239.12384 211.434385 
L 239.467992 211.233646 
L 240.156294 210.384924 
L 240.500446 210.17125 
L 240.844597 210.296232 
L 241.188749 210.760308 
L 242.221203 212.912262 
L 242.565354 213.200781 
L 242.909506 213.119436 
L 243.597808 212.248656 
L 244.286111 211.42585 
L 244.630263 211.347509 
L 244.974414 211.513499 
L 246.006868 212.328538 
L 246.695171 212.617146 
L 247.727625 212.513427 
L 248.071777 212.722814 
L 248.415928 213.1456 
L 249.104231 214.513492 
L 249.792534 216.080563 
L 250.136685 216.522235 
L 250.480837 216.551875 
L 250.824988 216.206855 
L 251.857442 214.580787 
L 252.201594 214.39991 
L 252.545745 214.53841 
L 253.234048 215.202404 
L 253.578199 215.376783 
L 253.922351 215.325664 
L 254.610653 214.652688 
L 254.954805 214.308815 
L 255.298956 214.219137 
L 255.643108 214.44755 
L 257.363865 216.448917 
L 257.708016 216.500362 
L 258.74047 216.290198 
L 259.428773 216.401041 
L 260.117076 216.865097 
L 260.805379 217.442257 
L 261.14953 217.497799 
L 261.493682 217.343616 
L 262.526136 216.273717 
L 262.870287 216.20815 
L 263.214439 216.458418 
L 264.246893 217.891444 
L 264.591044 218.073257 
L 264.935196 217.847979 
L 265.623499 216.374495 
L 265.96765 215.650963 
L 266.311801 215.252676 
L 266.655953 215.214937 
L 267.000104 215.480646 
L 268.032558 217.049254 
L 268.37671 217.156166 
L 268.720861 216.863488 
L 269.753315 215.477664 
L 270.097467 215.441454 
L 270.441618 215.791977 
L 271.818224 218.382846 
L 272.162375 218.225701 
L 272.506527 217.604538 
L 273.538981 214.996409 
L 273.883132 214.702777 
L 274.227284 214.798209 
L 275.259738 215.789831 
L 275.603889 215.656896 
L 275.948041 214.997675 
L 276.980495 211.579805 
L 277.324646 211.024043 
L 277.668798 211.05617 
L 278.012949 211.636251 
L 279.045403 214.333148 
L 279.389555 214.453226 
L 279.733706 213.918262 
L 280.766161 211.209489 
L 281.110312 211.024236 
L 281.454463 211.404361 
L 282.831069 214.364684 
L 283.17522 214.289398 
L 283.519372 213.74238 
L 284.207675 212.176593 
L 284.551826 211.727685 
L 284.895977 211.710968 
L 285.240129 212.071913 
L 286.272583 213.697265 
L 286.616734 213.771069 
L 286.960886 213.469679 
L 287.649189 212.516972 
L 287.99334 212.40121 
L 288.337491 212.667746 
L 289.025794 213.93891 
L 289.714097 215.195785 
L 290.058249 215.526887 
L 290.4024 215.588332 
L 291.090703 215.174568 
L 291.434854 214.952646 
L 291.779006 214.896747 
L 292.123157 215.122116 
L 292.81146 216.303675 
L 293.499763 217.478001 
L 293.843914 217.850475 
L 294.188065 218.05514 
L 295.22052 218.207635 
L 295.564671 218.555507 
L 296.252974 219.94512 
L 297.62958 223.666631 
L 297.973731 224.125781 
L 298.317882 224.265997 
L 299.006185 223.989085 
L 299.350337 223.878391 
L 299.694488 224.032162 
L 300.038639 224.536601 
L 301.415245 227.615689 
L 301.759396 227.969492 
L 302.103548 228.076397 
L 302.791851 228.031577 
L 303.136002 228.222766 
L 303.824305 229.136255 
L 304.512608 230.057595 
L 304.856759 230.301817 
L 305.20091 230.33257 
L 305.545062 230.161018 
L 306.233365 229.373851 
L 307.60997 227.192894 
L 308.298273 226.612462 
L 309.330727 226.071639 
L 310.01903 225.310655 
L 310.707333 224.478009 
L 311.395636 224.065796 
L 311.739787 224.069178 
L 312.42809 224.322774 
L 312.772241 224.308652 
L 313.116393 224.061672 
L 313.460544 223.555184 
L 314.148847 221.919712 
L 315.181301 219.388247 
L 316.213756 217.424446 
L 317.590361 214.262918 
L 317.934513 213.764342 
L 318.278664 213.552984 
L 318.622815 213.608882 
L 319.65527 214.109201 
L 319.999421 213.945328 
L 320.343572 213.451673 
L 321.031875 211.500935 
L 322.064329 207.940821 
L 323.785087 202.805842 
L 325.161692 196.884872 
L 325.505844 196.19967 
L 325.849995 196.008514 
L 326.194146 196.222763 
L 326.882449 197.098567 
L 327.226601 197.342568 
L 327.570752 197.292127 
L 327.914903 196.952728 
L 328.603206 195.77117 
L 329.63566 194.013843 
L 330.323963 193.006479 
L 331.012266 191.578303 
L 332.04472 188.530086 
L 332.733023 186.665266 
L 333.421326 185.525597 
L 334.109629 185.025173 
L 335.142083 184.752037 
L 335.486234 184.5286 
L 336.174537 183.684019 
L 337.551143 181.507131 
L 338.927748 180.063229 
L 339.2719 179.794543 
L 339.616051 179.683004 
L 339.960203 179.767761 
L 340.648506 180.456687 
L 341.336808 181.28828 
L 341.68096 181.485281 
L 342.025111 181.427431 
L 342.713414 180.70977 
L 343.401717 179.87813 
L 345.122474 178.310722 
L 346.154928 176.765074 
L 346.499079 176.482151 
L 346.843231 176.482575 
L 347.187382 176.804942 
L 347.531534 177.446528 
L 348.908139 180.724858 
L 349.596442 181.505539 
L 351.317199 182.836616 
L 351.661351 182.858674 
L 352.005502 182.676702 
L 352.693805 181.916944 
L 353.726259 180.542235 
L 354.07041 180.309919 
L 354.414562 180.309025 
L 354.758713 180.537423 
L 355.447016 181.473807 
L 356.135319 182.504572 
L 356.47947 182.851052 
L 356.823622 183.031116 
L 357.511925 183.013603 
L 358.200227 182.87208 
L 358.88853 182.972111 
L 359.920984 183.21499 
L 360.265136 183.106191 
L 360.953439 182.374415 
L 361.29759 182.02182 
L 361.641741 181.922078 
L 361.985893 182.153854 
L 362.674196 183.400483 
L 363.362498 184.717299 
L 363.70665 185.033606 
L 364.050801 184.997314 
L 364.394953 184.649413 
L 366.459861 181.485951 
L 367.148164 180.012766 
L 368.868921 175.373216 
L 369.213072 175.111226 
L 369.557224 175.20759 
L 370.933829 176.494672 
L 371.277981 176.506449 
L 371.622132 176.271927 
L 372.310435 175.219862 
L 373.342889 172.971944 
L 375.063646 168.751776 
L 376.440252 163.609876 
L 376.784403 162.940298 
L 377.128555 162.768644 
L 377.472706 163.048517 
L 378.50516 164.585792 
L 378.849312 164.663148 
L 379.193463 164.410751 
L 380.225917 162.782338 
L 381.602523 160.589563 
L 382.290826 158.872973 
L 384.011583 152.976049 
L 384.355734 152.528844 
L 384.699886 152.358087 
L 386.076491 152.21824 
L 387.453097 151.610724 
L 388.1414 151.566486 
L 388.485551 151.432588 
L 388.829703 151.123015 
L 389.173854 150.597231 
L 389.518005 149.824166 
L 390.206308 147.440161 
L 391.238762 143.257429 
L 391.582914 142.377321 
L 391.927065 141.864991 
L 392.271217 141.674275 
L 392.615368 141.726379 
L 393.303671 142.010321 
L 393.647822 141.959196 
L 394.680277 141.348646 
L 395.024428 141.419115 
L 395.368579 141.737249 
L 396.056882 142.673637 
L 396.401034 142.959235 
L 396.745185 142.915839 
L 397.089336 142.458229 
L 397.777639 140.576962 
L 398.465942 138.723103 
L 398.810093 138.235654 
L 399.154245 138.035147 
L 400.186699 137.818723 
L 400.875002 137.142765 
L 401.563305 136.473729 
L 401.907456 136.417527 
L 402.251608 136.617863 
L 402.93991 137.745079 
L 403.628213 138.895186 
L 403.972365 139.111364 
L 404.316516 139.002748 
L 404.660667 138.571574 
L 406.037273 135.957964 
L 406.037273 135.957964 
" clip-path="url(#p8559b64680)" style="fill: none; stroke: #ced4da; stroke-width: 2.5; stroke-linecap: square"/>
   </g>
   <g id="line2d_6">
    <path d="M 61.885865 383.15851 
L 129.339541 382.969787 
L 157.215805 382.85297 
L 192.319249 382.883427 
L 198.169823 382.861239 
L 218.818907 382.784075 
L 228.455146 382.761535 
L 271.818224 382.649002 
L 305.889213 381.713438 
L 308.298273 381.549418 
L 311.739787 381.419113 
L 313.804696 381.312203 
L 317.934513 381.144368 
L 321.031875 381.249314 
L 323.785087 381.168682 
L 325.161692 381.12614 
L 327.570752 381.171764 
L 331.012266 380.903994 
L 332.733023 380.790829 
L 337.551143 380.845886 
L 340.992657 380.83274 
L 342.713414 380.776478 
L 349.596442 380.3545 
L 354.414562 379.680157 
L 357.511925 379.364564 
L 362.674196 378.636441 
L 364.739104 378.464174 
L 369.213072 377.974934 
L 374.031192 377.81042 
L 377.816858 377.615767 
L 379.881766 377.525041 
L 381.602523 377.264505 
L 385.044037 376.596601 
L 386.420643 376.43364 
L 389.862157 375.620669 
L 391.238762 375.065797 
L 392.615368 374.867668 
L 394.336125 374.557977 
L 397.433488 373.883658 
L 398.465942 373.643417 
L 403.284062 373.04095 
L 404.316516 372.563857 
L 405.693122 371.868479 
L 406.037273 371.770289 
L 406.037273 371.770289 
" clip-path="url(#p8559b64680)" style="fill: none; stroke: #6c757d; stroke-width: 2.5; stroke-linecap: square"/>
   </g>
   <g id="matplotlib.axis_1">
    <g id="xtick_1">
     <g id="line2d_7">
      <defs>
       <path id="m8cd257f14d" d="M 0 0 
L 0 3.5 
" style="stroke: #000000; stroke-width: 0.8"/>
      </defs>
      <g>
       <use xlink:href="#m8cd257f14d" x="61.885865" y="383.15851" style="stroke: #000000; stroke-width: 0.8"/>
      </g>
     </g>
     <g id="text_1">
      <!-- 0 -->
      <g transform="translate(56.159615 403.835697)scale(0.18 -0.18)">
       <defs>
        <path id="DejaVuSans-30" d="M 2034 4250 
Q 1547 4250 1301 3770 
Q 1056 3291 1056 2328 
Q 1056 1369 1301 889 
Q 1547 409 2034 409 
Q 2525 409 2770 889 
Q 3016 1369 3016 2328 
Q 3016 3291 2770 3770 
Q 2525 4250 2034 4250 
z
M 2034 4750 
Q 2819 4750 3233 4129 
Q 3647 3509 3647 2328 
Q 3647 1150 3233 529 
Q 2819 -91 2034 -91 
Q 1250 -91 836 529 
Q 422 1150 422 2328 
Q 422 3509 836 4129 
Q 1250 4750 2034 4750 
z
" transform="scale(0.015625)"/>
       </defs>
       <use xlink:href="#DejaVuSans-30"/>
      </g>
     </g>
    </g>
    <g id="xtick_2">
     <g id="line2d_8">
      <g>
       <use xlink:href="#m8cd257f14d" x="130.716147" y="383.15851" style="stroke: #000000; stroke-width: 0.8"/>
      </g>
     </g>
     <g id="text_2">
      <!-- 200 -->
      <g transform="translate(113.537397 403.835697)scale(0.18 -0.18)">
       <defs>
        <path id="DejaVuSans-32" d="M 1228 531 
L 3431 531 
L 3431 0 
L 469 0 
L 469 531 
Q 828 903 1448 1529 
Q 2069 2156 2228 2338 
Q 2531 2678 2651 2914 
Q 2772 3150 2772 3378 
Q 2772 3750 2511 3984 
Q 2250 4219 1831 4219 
Q 1534 4219 1204 4116 
Q 875 4013 500 3803 
L 500 4441 
Q 881 4594 1212 4672 
Q 1544 4750 1819 4750 
Q 2544 4750 2975 4387 
Q 3406 4025 3406 3419 
Q 3406 3131 3298 2873 
Q 3191 2616 2906 2266 
Q 2828 2175 2409 1742 
Q 1991 1309 1228 531 
z
" transform="scale(0.015625)"/>
       </defs>
       <use xlink:href="#DejaVuSans-32"/>
       <use xlink:href="#DejaVuSans-30" x="63.623047"/>
       <use xlink:href="#DejaVuSans-30" x="127.246094"/>
      </g>
     </g>
    </g>
    <g id="xtick_3">
     <g id="line2d_9">
      <g>
       <use xlink:href="#m8cd257f14d" x="199.546428" y="383.15851" style="stroke: #000000; stroke-width: 0.8"/>
      </g>
     </g>
     <g id="text_3">
      <!-- 400 -->
      <g transform="translate(182.367678 403.835697)scale(0.18 -0.18)">
       <defs>
        <path id="DejaVuSans-34" d="M 2419 4116 
L 825 1625 
L 2419 1625 
L 2419 4116 
z
M 2253 4666 
L 3047 4666 
L 3047 1625 
L 3713 1625 
L 3713 1100 
L 3047 1100 
L 3047 0 
L 2419 0 
L 2419 1100 
L 313 1100 
L 313 1709 
L 2253 4666 
z
" transform="scale(0.015625)"/>
       </defs>
       <use xlink:href="#DejaVuSans-34"/>
       <use xlink:href="#DejaVuSans-30" x="63.623047"/>
       <use xlink:href="#DejaVuSans-30" x="127.246094"/>
      </g>
     </g>
    </g>
    <g id="xtick_4">
     <g id="line2d_10">
      <g>
       <use xlink:href="#m8cd257f14d" x="268.37671" y="383.15851" style="stroke: #000000; stroke-width: 0.8"/>
      </g>
     </g>
     <g id="text_4">
      <!-- 600 -->
      <g transform="translate(251.19796 403.835697)scale(0.18 -0.18)">
       <defs>
        <path id="DejaVuSans-36" d="M 2113 2584 
Q 1688 2584 1439 2293 
Q 1191 2003 1191 1497 
Q 1191 994 1439 701 
Q 1688 409 2113 409 
Q 2538 409 2786 701 
Q 3034 994 3034 1497 
Q 3034 2003 2786 2293 
Q 2538 2584 2113 2584 
z
M 3366 4563 
L 3366 3988 
Q 3128 4100 2886 4159 
Q 2644 4219 2406 4219 
Q 1781 4219 1451 3797 
Q 1122 3375 1075 2522 
Q 1259 2794 1537 2939 
Q 1816 3084 2150 3084 
Q 2853 3084 3261 2657 
Q 3669 2231 3669 1497 
Q 3669 778 3244 343 
Q 2819 -91 2113 -91 
Q 1303 -91 875 529 
Q 447 1150 447 2328 
Q 447 3434 972 4092 
Q 1497 4750 2381 4750 
Q 2619 4750 2861 4703 
Q 3103 4656 3366 4563 
z
" transform="scale(0.015625)"/>
       </defs>
       <use xlink:href="#DejaVuSans-36"/>
       <use xlink:href="#DejaVuSans-30" x="63.623047"/>
       <use xlink:href="#DejaVuSans-30" x="127.246094"/>
      </g>
     </g>
    </g>
    <g id="xtick_5">
     <g id="line2d_11">
      <g>
       <use xlink:href="#m8cd257f14d" x="337.206991" y="383.15851" style="stroke: #000000; stroke-width: 0.8"/>
      </g>
     </g>
     <g id="text_5">
      <!-- 800 -->
      <g transform="translate(320.028241 403.835697)scale(0.18 -0.18)">
       <defs>
        <path id="DejaVuSans-38" d="M 2034 2216 
Q 1584 2216 1326 1975 
Q 1069 1734 1069 1313 
Q 1069 891 1326 650 
Q 1584 409 2034 409 
Q 2484 409 2743 651 
Q 3003 894 3003 1313 
Q 3003 1734 2745 1975 
Q 2488 2216 2034 2216 
z
M 1403 2484 
Q 997 2584 770 2862 
Q 544 3141 544 3541 
Q 544 4100 942 4425 
Q 1341 4750 2034 4750 
Q 2731 4750 3128 4425 
Q 3525 4100 3525 3541 
Q 3525 3141 3298 2862 
Q 3072 2584 2669 2484 
Q 3125 2378 3379 2068 
Q 3634 1759 3634 1313 
Q 3634 634 3220 271 
Q 2806 -91 2034 -91 
Q 1263 -91 848 271 
Q 434 634 434 1313 
Q 434 1759 690 2068 
Q 947 2378 1403 2484 
z
M 1172 3481 
Q 1172 3119 1398 2916 
Q 1625 2713 2034 2713 
Q 2441 2713 2670 2916 
Q 2900 3119 2900 3481 
Q 2900 3844 2670 4047 
Q 2441 4250 2034 4250 
Q 1625 4250 1398 4047 
Q 1172 3844 1172 3481 
z
" transform="scale(0.015625)"/>
       </defs>
       <use xlink:href="#DejaVuSans-38"/>
       <use xlink:href="#DejaVuSans-30" x="63.623047"/>
       <use xlink:href="#DejaVuSans-30" x="127.246094"/>
      </g>
     </g>
    </g>
    <g id="xtick_6">
     <g id="line2d_12">
      <g>
       <use xlink:href="#m8cd257f14d" x="406.037273" y="383.15851" style="stroke: #000000; stroke-width: 0.8"/>
      </g>
     </g>
     <g id="text_6">
      <!-- 1000 -->
      <g transform="translate(383.132273 403.835697)scale(0.18 -0.18)">
       <defs>
        <path id="DejaVuSans-31" d="M 794 531 
L 1825 531 
L 1825 4091 
L 703 3866 
L 703 4441 
L 1819 4666 
L 2450 4666 
L 2450 531 
L 3481 531 
L 3481 0 
L 794 0 
L 794 531 
z
" transform="scale(0.015625)"/>
       </defs>
       <use xlink:href="#DejaVuSans-31"/>
       <use xlink:href="#DejaVuSans-30" x="63.623047"/>
       <use xlink:href="#DejaVuSans-30" x="127.246094"/>
       <use xlink:href="#DejaVuSans-30" x="190.869141"/>
      </g>
     </g>
    </g>
    <g id="text_7">
     <!-- Time (fs) -->
     <g transform="translate(202.805042 425.256323)scale(0.18 -0.18)">
      <defs>
       <path id="DejaVuSans-54" d="M -19 4666 
L 3928 4666 
L 3928 4134 
L 2272 4134 
L 2272 0 
L 1638 0 
L 1638 4134 
L -19 4134 
L -19 4666 
z
" transform="scale(0.015625)"/>
       <path id="DejaVuSans-69" d="M 603 3500 
L 1178 3500 
L 1178 0 
L 603 0 
L 603 3500 
z
M 603 4863 
L 1178 4863 
L 1178 4134 
L 603 4134 
L 603 4863 
z
" transform="scale(0.015625)"/>
       <path id="DejaVuSans-6d" d="M 3328 2828 
Q 3544 3216 3844 3400 
Q 4144 3584 4550 3584 
Q 5097 3584 5394 3201 
Q 5691 2819 5691 2113 
L 5691 0 
L 5113 0 
L 5113 2094 
Q 5113 2597 4934 2840 
Q 4756 3084 4391 3084 
Q 3944 3084 3684 2787 
Q 3425 2491 3425 1978 
L 3425 0 
L 2847 0 
L 2847 2094 
Q 2847 2600 2669 2842 
Q 2491 3084 2119 3084 
Q 1678 3084 1418 2786 
Q 1159 2488 1159 1978 
L 1159 0 
L 581 0 
L 581 3500 
L 1159 3500 
L 1159 2956 
Q 1356 3278 1631 3431 
Q 1906 3584 2284 3584 
Q 2666 3584 2933 3390 
Q 3200 3197 3328 2828 
z
" transform="scale(0.015625)"/>
       <path id="DejaVuSans-65" d="M 3597 1894 
L 3597 1613 
L 953 1613 
Q 991 1019 1311 708 
Q 1631 397 2203 397 
Q 2534 397 2845 478 
Q 3156 559 3463 722 
L 3463 178 
Q 3153 47 2828 -22 
Q 2503 -91 2169 -91 
Q 1331 -91 842 396 
Q 353 884 353 1716 
Q 353 2575 817 3079 
Q 1281 3584 2069 3584 
Q 2775 3584 3186 3129 
Q 3597 2675 3597 1894 
z
M 3022 2063 
Q 3016 2534 2758 2815 
Q 2500 3097 2075 3097 
Q 1594 3097 1305 2825 
Q 1016 2553 972 2059 
L 3022 2063 
z
" transform="scale(0.015625)"/>
       <path id="DejaVuSans-20" transform="scale(0.015625)"/>
       <path id="DejaVuSans-28" d="M 1984 4856 
Q 1566 4138 1362 3434 
Q 1159 2731 1159 2009 
Q 1159 1288 1364 580 
Q 1569 -128 1984 -844 
L 1484 -844 
Q 1016 -109 783 600 
Q 550 1309 550 2009 
Q 550 2706 781 3412 
Q 1013 4119 1484 4856 
L 1984 4856 
z
" transform="scale(0.015625)"/>
       <path id="DejaVuSans-66" d="M 2375 4863 
L 2375 4384 
L 1825 4384 
Q 1516 4384 1395 4259 
Q 1275 4134 1275 3809 
L 1275 3500 
L 2222 3500 
L 2222 3053 
L 1275 3053 
L 1275 0 
L 697 0 
L 697 3053 
L 147 3053 
L 147 3500 
L 697 3500 
L 697 3744 
Q 697 4328 969 4595 
Q 1241 4863 1831 4863 
L 2375 4863 
z
" transform="scale(0.015625)"/>
       <path id="DejaVuSans-73" d="M 2834 3397 
L 2834 2853 
Q 2591 2978 2328 3040 
Q 2066 3103 1784 3103 
Q 1356 3103 1142 2972 
Q 928 2841 928 2578 
Q 928 2378 1081 2264 
Q 1234 2150 1697 2047 
L 1894 2003 
Q 2506 1872 2764 1633 
Q 3022 1394 3022 966 
Q 3022 478 2636 193 
Q 2250 -91 1575 -91 
Q 1294 -91 989 -36 
Q 684 19 347 128 
L 347 722 
Q 666 556 975 473 
Q 1284 391 1588 391 
Q 1994 391 2212 530 
Q 2431 669 2431 922 
Q 2431 1156 2273 1281 
Q 2116 1406 1581 1522 
L 1381 1569 
Q 847 1681 609 1914 
Q 372 2147 372 2553 
Q 372 3047 722 3315 
Q 1072 3584 1716 3584 
Q 2034 3584 2315 3537 
Q 2597 3491 2834 3397 
z
" transform="scale(0.015625)"/>
       <path id="DejaVuSans-29" d="M 513 4856 
L 1013 4856 
Q 1481 4119 1714 3412 
Q 1947 2706 1947 2009 
Q 1947 1309 1714 600 
Q 1481 -109 1013 -844 
L 513 -844 
Q 928 -128 1133 580 
Q 1338 1288 1338 2009 
Q 1338 2731 1133 3434 
Q 928 4138 513 4856 
z
" transform="scale(0.015625)"/>
      </defs>
      <use xlink:href="#DejaVuSans-54"/>
      <use xlink:href="#DejaVuSans-69" x="57.958984"/>
      <use xlink:href="#DejaVuSans-6d" x="85.742188"/>
      <use xlink:href="#DejaVuSans-65" x="183.154297"/>
      <use xlink:href="#DejaVuSans-20" x="244.677734"/>
      <use xlink:href="#DejaVuSans-28" x="276.464844"/>
      <use xlink:href="#DejaVuSans-66" x="315.478516"/>
      <use xlink:href="#DejaVuSans-73" x="350.683594"/>
      <use xlink:href="#DejaVuSans-29" x="402.783203"/>
     </g>
    </g>
   </g>
   <g id="matplotlib.axis_2">
    <g id="ytick_1">
     <g id="line2d_13">
      <defs>
       <path id="me598c2a4ef" d="M 0 0 
L -3.5 0 
" style="stroke: #000000; stroke-width: 0.8"/>
      </defs>
      <g>
       <use xlink:href="#me598c2a4ef" x="61.885865" y="383.15851" style="stroke: #000000; stroke-width: 0.8"/>
      </g>
     </g>
     <g id="text_8">
      <!-- 0.0 -->
      <g transform="translate(26.26024 389.997104)scale(0.18 -0.18)">
       <defs>
        <path id="DejaVuSans-2e" d="M 684 794 
L 1344 794 
L 1344 0 
L 684 0 
L 684 794 
z
" transform="scale(0.015625)"/>
       </defs>
       <use xlink:href="#DejaVuSans-30"/>
       <use xlink:href="#DejaVuSans-2e" x="63.623047"/>
       <use xlink:href="#DejaVuSans-30" x="95.410156"/>
      </g>
     </g>
    </g>
    <g id="ytick_2">
     <g id="line2d_14">
      <g>
       <use xlink:href="#me598c2a4ef" x="61.885865" y="305.842335" style="stroke: #000000; stroke-width: 0.8"/>
      </g>
     </g>
     <g id="text_9">
      <!-- 0.5 -->
      <g transform="translate(26.26024 312.680928)scale(0.18 -0.18)">
       <defs>
        <path id="DejaVuSans-35" d="M 691 4666 
L 3169 4666 
L 3169 4134 
L 1269 4134 
L 1269 2991 
Q 1406 3038 1543 3061 
Q 1681 3084 1819 3084 
Q 2600 3084 3056 2656 
Q 3513 2228 3513 1497 
Q 3513 744 3044 326 
Q 2575 -91 1722 -91 
Q 1428 -91 1123 -41 
Q 819 9 494 109 
L 494 744 
Q 775 591 1075 516 
Q 1375 441 1709 441 
Q 2250 441 2565 725 
Q 2881 1009 2881 1497 
Q 2881 1984 2565 2268 
Q 2250 2553 1709 2553 
Q 1456 2553 1204 2497 
Q 953 2441 691 2322 
L 691 4666 
z
" transform="scale(0.015625)"/>
       </defs>
       <use xlink:href="#DejaVuSans-30"/>
       <use xlink:href="#DejaVuSans-2e" x="63.623047"/>
       <use xlink:href="#DejaVuSans-35" x="95.410156"/>
      </g>
     </g>
    </g>
    <g id="ytick_3">
     <g id="line2d_15">
      <g>
       <use xlink:href="#me598c2a4ef" x="61.885865" y="228.526159" style="stroke: #000000; stroke-width: 0.8"/>
      </g>
     </g>
     <g id="text_10">
      <!-- 1.0 -->
      <g transform="translate(26.26024 235.364753)scale(0.18 -0.18)">
       <use xlink:href="#DejaVuSans-31"/>
       <use xlink:href="#DejaVuSans-2e" x="63.623047"/>
       <use xlink:href="#DejaVuSans-30" x="95.410156"/>
      </g>
     </g>
    </g>
    <g id="ytick_4">
     <g id="line2d_16">
      <g>
       <use xlink:href="#me598c2a4ef" x="61.885865" y="151.209984" style="stroke: #000000; stroke-width: 0.8"/>
      </g>
     </g>
     <g id="text_11">
      <!-- 1.5 -->
      <g transform="translate(26.26024 158.048578)scale(0.18 -0.18)">
       <use xlink:href="#DejaVuSans-31"/>
       <use xlink:href="#DejaVuSans-2e" x="63.623047"/>
       <use xlink:href="#DejaVuSans-35" x="95.410156"/>
      </g>
     </g>
    </g>
    <g id="ytick_5">
     <g id="line2d_17">
      <g>
       <use xlink:href="#me598c2a4ef" x="61.885865" y="73.893809" style="stroke: #000000; stroke-width: 0.8"/>
      </g>
     </g>
     <g id="text_12">
      <!-- 2.0 -->
      <g transform="translate(26.26024 80.732403)scale(0.18 -0.18)">
       <use xlink:href="#DejaVuSans-32"/>
       <use xlink:href="#DejaVuSans-2e" x="63.623047"/>
       <use xlink:href="#DejaVuSans-30" x="95.410156"/>
      </g>
     </g>
    </g>
    <g id="text_13">
     <!-- RMSD ($\AA$) -->
     <g transform="translate(18.516803 235.829375)rotate(-90)scale(0.18 -0.18)">
      <defs>
       <path id="DejaVuSans-52" d="M 2841 2188 
Q 3044 2119 3236 1894 
Q 3428 1669 3622 1275 
L 4263 0 
L 3584 0 
L 2988 1197 
Q 2756 1666 2539 1819 
Q 2322 1972 1947 1972 
L 1259 1972 
L 1259 0 
L 628 0 
L 628 4666 
L 2053 4666 
Q 2853 4666 3247 4331 
Q 3641 3997 3641 3322 
Q 3641 2881 3436 2590 
Q 3231 2300 2841 2188 
z
M 1259 4147 
L 1259 2491 
L 2053 2491 
Q 2509 2491 2742 2702 
Q 2975 2913 2975 3322 
Q 2975 3731 2742 3939 
Q 2509 4147 2053 4147 
L 1259 4147 
z
" transform="scale(0.015625)"/>
       <path id="DejaVuSans-4d" d="M 628 4666 
L 1569 4666 
L 2759 1491 
L 3956 4666 
L 4897 4666 
L 4897 0 
L 4281 0 
L 4281 4097 
L 3078 897 
L 2444 897 
L 1241 4097 
L 1241 0 
L 628 0 
L 628 4666 
z
" transform="scale(0.015625)"/>
       <path id="DejaVuSans-53" d="M 3425 4513 
L 3425 3897 
Q 3066 4069 2747 4153 
Q 2428 4238 2131 4238 
Q 1616 4238 1336 4038 
Q 1056 3838 1056 3469 
Q 1056 3159 1242 3001 
Q 1428 2844 1947 2747 
L 2328 2669 
Q 3034 2534 3370 2195 
Q 3706 1856 3706 1288 
Q 3706 609 3251 259 
Q 2797 -91 1919 -91 
Q 1588 -91 1214 -16 
Q 841 59 441 206 
L 441 856 
Q 825 641 1194 531 
Q 1563 422 1919 422 
Q 2459 422 2753 634 
Q 3047 847 3047 1241 
Q 3047 1584 2836 1778 
Q 2625 1972 2144 2069 
L 1759 2144 
Q 1053 2284 737 2584 
Q 422 2884 422 3419 
Q 422 4038 858 4394 
Q 1294 4750 2059 4750 
Q 2388 4750 2728 4690 
Q 3069 4631 3425 4513 
z
" transform="scale(0.015625)"/>
       <path id="DejaVuSans-44" d="M 1259 4147 
L 1259 519 
L 2022 519 
Q 2988 519 3436 956 
Q 3884 1394 3884 2338 
Q 3884 3275 3436 3711 
Q 2988 4147 2022 4147 
L 1259 4147 
z
M 628 4666 
L 1925 4666 
Q 3281 4666 3915 4102 
Q 4550 3538 4550 2338 
Q 4550 1131 3912 565 
Q 3275 0 1925 0 
L 628 0 
L 628 4666 
z
" transform="scale(0.015625)"/>
       <path id="DejaVuSans-Oblique-c5" d="M 3188 5081 
Q 3188 5278 3048 5417 
Q 2909 5556 2713 5556 
Q 2513 5556 2377 5420 
Q 2241 5284 2241 5081 
Q 2241 4884 2377 4746 
Q 2513 4609 2713 4609 
Q 2909 4609 3048 4746 
Q 3188 4884 3188 5081 
z
M 2203 4397 
Q 2034 4513 1945 4689 
Q 1856 4866 1856 5081 
Q 1856 5438 2106 5689 
Q 2356 5941 2713 5941 
Q 3069 5941 3320 5689 
Q 3572 5438 3572 5081 
Q 3572 4834 3458 4643 
Q 3344 4453 3128 4341 
L 3938 0 
L 3278 0 
L 3084 1197 
L 984 1197 
L 325 0 
L -341 0 
L 2203 4397 
z
M 2584 4044 
L 1275 1722 
L 2988 1722 
L 2584 4044 
z
" transform="scale(0.015625)"/>
      </defs>
      <use xlink:href="#DejaVuSans-52" transform="translate(0 0.171875)"/>
      <use xlink:href="#DejaVuSans-4d" transform="translate(69.482422 0.171875)"/>
      <use xlink:href="#DejaVuSans-53" transform="translate(155.761719 0.171875)"/>
      <use xlink:href="#DejaVuSans-44" transform="translate(219.238281 0.171875)"/>
      <use xlink:href="#DejaVuSans-20" transform="translate(296.240234 0.171875)"/>
      <use xlink:href="#DejaVuSans-28" transform="translate(328.027344 0.171875)"/>
      <use xlink:href="#DejaVuSans-Oblique-c5" transform="translate(367.041016 0.171875)"/>
      <use xlink:href="#DejaVuSans-29" transform="translate(435.449219 0.171875)"/>
     </g>
    </g>
   </g>
   <g id="patch_3">
    <path d="M 61.885865 383.15851 
L 61.885865 3.00024 
" style="fill: none; stroke: #000000; stroke-width: 0.8; stroke-linejoin: miter; stroke-linecap: square"/>
   </g>
   <g id="patch_4">
    <path d="M 423.244843 383.15851 
L 423.244843 3.00024 
" style="fill: none; stroke: #000000; stroke-width: 0.8; stroke-linejoin: miter; stroke-linecap: square"/>
   </g>
   <g id="patch_5">
    <path d="M 61.885865 383.15851 
L 423.244843 383.15851 
" style="fill: none; stroke: #000000; stroke-width: 0.8; stroke-linejoin: miter; stroke-linecap: square"/>
   </g>
   <g id="patch_6">
    <path d="M 61.885865 3.00024 
L 423.244843 3.00024 
" style="fill: none; stroke: #000000; stroke-width: 0.8; stroke-linejoin: miter; stroke-linecap: square"/>
   </g>
   <g id="legend_1">
    <g id="line2d_18">
     <path d="M 78.085865 26.577428 
L 96.085865 26.577428 
L 114.085865 26.577428 
" style="fill: none; stroke: #6c757d; stroke-width: 2.5; stroke-linecap: square"/>
    </g>
    <g id="text_14">
     <!-- RI-MP2 -->
     <g transform="translate(128.485865 32.877428)scale(0.18 -0.18)">
      <defs>
       <path id="DejaVuSans-49" d="M 628 4666 
L 1259 4666 
L 1259 0 
L 628 0 
L 628 4666 
z
" transform="scale(0.015625)"/>
       <path id="DejaVuSans-2d" d="M 313 2009 
L 1997 2009 
L 1997 1497 
L 313 1497 
L 313 2009 
z
" transform="scale(0.015625)"/>
       <path id="DejaVuSans-50" d="M 1259 4147 
L 1259 2394 
L 2053 2394 
Q 2494 2394 2734 2622 
Q 2975 2850 2975 3272 
Q 2975 3691 2734 3919 
Q 2494 4147 2053 4147 
L 1259 4147 
z
M 628 4666 
L 2053 4666 
Q 2838 4666 3239 4311 
Q 3641 3956 3641 3272 
Q 3641 2581 3239 2228 
Q 2838 1875 2053 1875 
L 1259 1875 
L 1259 0 
L 628 0 
L 628 4666 
z
" transform="scale(0.015625)"/>
      </defs>
      <use xlink:href="#DejaVuSans-52"/>
      <use xlink:href="#DejaVuSans-49" x="69.482422"/>
      <use xlink:href="#DejaVuSans-2d" x="98.974609"/>
      <use xlink:href="#DejaVuSans-4d" x="135.058594"/>
      <use xlink:href="#DejaVuSans-50" x="221.337891"/>
      <use xlink:href="#DejaVuSans-32" x="281.640625"/>
     </g>
    </g>
    <g id="line2d_19">
     <path d="M 78.085865 52.998053 
L 96.085865 52.998053 
L 114.085865 52.998053 
" style="fill: none; stroke: #ced4da; stroke-width: 2.5; stroke-linecap: square"/>
    </g>
    <g id="text_15">
     <!-- def2-SVP -->
     <g transform="translate(128.485865 59.298053)scale(0.18 -0.18)">
      <defs>
       <path id="DejaVuSans-64" d="M 2906 2969 
L 2906 4863 
L 3481 4863 
L 3481 0 
L 2906 0 
L 2906 525 
Q 2725 213 2448 61 
Q 2172 -91 1784 -91 
Q 1150 -91 751 415 
Q 353 922 353 1747 
Q 353 2572 751 3078 
Q 1150 3584 1784 3584 
Q 2172 3584 2448 3432 
Q 2725 3281 2906 2969 
z
M 947 1747 
Q 947 1113 1208 752 
Q 1469 391 1925 391 
Q 2381 391 2643 752 
Q 2906 1113 2906 1747 
Q 2906 2381 2643 2742 
Q 2381 3103 1925 3103 
Q 1469 3103 1208 2742 
Q 947 2381 947 1747 
z
" transform="scale(0.015625)"/>
       <path id="DejaVuSans-56" d="M 1831 0 
L 50 4666 
L 709 4666 
L 2188 738 
L 3669 4666 
L 4325 4666 
L 2547 0 
L 1831 0 
z
" transform="scale(0.015625)"/>
      </defs>
      <use xlink:href="#DejaVuSans-64"/>
      <use xlink:href="#DejaVuSans-65" x="63.476562"/>
      <use xlink:href="#DejaVuSans-66" x="125"/>
      <use xlink:href="#DejaVuSans-32" x="160.205078"/>
      <use xlink:href="#DejaVuSans-2d" x="223.828125"/>
      <use xlink:href="#DejaVuSans-53" x="259.912109"/>
      <use xlink:href="#DejaVuSans-56" x="323.388672"/>
      <use xlink:href="#DejaVuSans-50" x="391.796875"/>
     </g>
    </g>
    <g id="line2d_20">
     <path d="M 78.085865 79.418678 
L 96.085865 79.418678 
L 114.085865 79.418678 
" style="fill: none; stroke: #590d22; stroke-width: 2.5; stroke-linecap: square"/>
    </g>
    <g id="text_16">
     <!-- mbGDML -->
     <g transform="translate(128.485865 85.718678)scale(0.18 -0.18)">
      <defs>
       <path id="DejaVuSans-62" d="M 3116 1747 
Q 3116 2381 2855 2742 
Q 2594 3103 2138 3103 
Q 1681 3103 1420 2742 
Q 1159 2381 1159 1747 
Q 1159 1113 1420 752 
Q 1681 391 2138 391 
Q 2594 391 2855 752 
Q 3116 1113 3116 1747 
z
M 1159 2969 
Q 1341 3281 1617 3432 
Q 1894 3584 2278 3584 
Q 2916 3584 3314 3078 
Q 3713 2572 3713 1747 
Q 3713 922 3314 415 
Q 2916 -91 2278 -91 
Q 1894 -91 1617 61 
Q 1341 213 1159 525 
L 1159 0 
L 581 0 
L 581 4863 
L 1159 4863 
L 1159 2969 
z
" transform="scale(0.015625)"/>
       <path id="DejaVuSans-47" d="M 3809 666 
L 3809 1919 
L 2778 1919 
L 2778 2438 
L 4434 2438 
L 4434 434 
Q 4069 175 3628 42 
Q 3188 -91 2688 -91 
Q 1594 -91 976 548 
Q 359 1188 359 2328 
Q 359 3472 976 4111 
Q 1594 4750 2688 4750 
Q 3144 4750 3555 4637 
Q 3966 4525 4313 4306 
L 4313 3634 
Q 3963 3931 3569 4081 
Q 3175 4231 2741 4231 
Q 1884 4231 1454 3753 
Q 1025 3275 1025 2328 
Q 1025 1384 1454 906 
Q 1884 428 2741 428 
Q 3075 428 3337 486 
Q 3600 544 3809 666 
z
" transform="scale(0.015625)"/>
       <path id="DejaVuSans-4c" d="M 628 4666 
L 1259 4666 
L 1259 531 
L 3531 531 
L 3531 0 
L 628 0 
L 628 4666 
z
" transform="scale(0.015625)"/>
      </defs>
      <use xlink:href="#DejaVuSans-6d"/>
      <use xlink:href="#DejaVuSans-62" x="97.412109"/>
      <use xlink:href="#DejaVuSans-47" x="160.888672"/>
      <use xlink:href="#DejaVuSans-44" x="238.378906"/>
      <use xlink:href="#DejaVuSans-4d" x="315.380859"/>
      <use xlink:href="#DejaVuSans-4c" x="401.660156"/>
     </g>
    </g>
    <g id="line2d_21">
     <path d="M 78.085865 105.839303 
L 96.085865 105.839303 
L 114.085865 105.839303 
" style="fill: none; stroke: #a4133c; stroke-width: 2.5; stroke-linecap: square"/>
    </g>
    <g id="text_17">
     <!-- mbGAP -->
     <g transform="translate(128.485865 112.139303)scale(0.18 -0.18)">
      <defs>
       <path id="DejaVuSans-41" d="M 2188 4044 
L 1331 1722 
L 3047 1722 
L 2188 4044 
z
M 1831 4666 
L 2547 4666 
L 4325 0 
L 3669 0 
L 3244 1197 
L 1141 1197 
L 716 0 
L 50 0 
L 1831 4666 
z
" transform="scale(0.015625)"/>
      </defs>
      <use xlink:href="#DejaVuSans-6d"/>
      <use xlink:href="#DejaVuSans-62" x="97.412109"/>
      <use xlink:href="#DejaVuSans-47" x="160.888672"/>
      <use xlink:href="#DejaVuSans-41" x="238.378906"/>
      <use xlink:href="#DejaVuSans-50" x="306.787109"/>
     </g>
    </g>
    <g id="line2d_22">
     <path d="M 78.085865 132.259928 
L 96.085865 132.259928 
L 114.085865 132.259928 
" style="fill: none; stroke: #ff8fa3; stroke-width: 2.5; stroke-linecap: square"/>
    </g>
    <g id="text_18">
     <!-- mbSchNet -->
     <g transform="translate(128.485865 138.559928)scale(0.18 -0.18)">
      <defs>
       <path id="DejaVuSans-63" d="M 3122 3366 
L 3122 2828 
Q 2878 2963 2633 3030 
Q 2388 3097 2138 3097 
Q 1578 3097 1268 2742 
Q 959 2388 959 1747 
Q 959 1106 1268 751 
Q 1578 397 2138 397 
Q 2388 397 2633 464 
Q 2878 531 3122 666 
L 3122 134 
Q 2881 22 2623 -34 
Q 2366 -91 2075 -91 
Q 1284 -91 818 406 
Q 353 903 353 1747 
Q 353 2603 823 3093 
Q 1294 3584 2113 3584 
Q 2378 3584 2631 3529 
Q 2884 3475 3122 3366 
z
" transform="scale(0.015625)"/>
       <path id="DejaVuSans-68" d="M 3513 2113 
L 3513 0 
L 2938 0 
L 2938 2094 
Q 2938 2591 2744 2837 
Q 2550 3084 2163 3084 
Q 1697 3084 1428 2787 
Q 1159 2491 1159 1978 
L 1159 0 
L 581 0 
L 581 4863 
L 1159 4863 
L 1159 2956 
Q 1366 3272 1645 3428 
Q 1925 3584 2291 3584 
Q 2894 3584 3203 3211 
Q 3513 2838 3513 2113 
z
" transform="scale(0.015625)"/>
       <path id="DejaVuSans-4e" d="M 628 4666 
L 1478 4666 
L 3547 763 
L 3547 4666 
L 4159 4666 
L 4159 0 
L 3309 0 
L 1241 3903 
L 1241 0 
L 628 0 
L 628 4666 
z
" transform="scale(0.015625)"/>
       <path id="DejaVuSans-74" d="M 1172 4494 
L 1172 3500 
L 2356 3500 
L 2356 3053 
L 1172 3053 
L 1172 1153 
Q 1172 725 1289 603 
Q 1406 481 1766 481 
L 2356 481 
L 2356 0 
L 1766 0 
Q 1100 0 847 248 
Q 594 497 594 1153 
L 594 3053 
L 172 3053 
L 172 3500 
L 594 3500 
L 594 4494 
L 1172 4494 
z
" transform="scale(0.015625)"/>
      </defs>
      <use xlink:href="#DejaVuSans-6d"/>
      <use xlink:href="#DejaVuSans-62" x="97.412109"/>
      <use xlink:href="#DejaVuSans-53" x="160.888672"/>
      <use xlink:href="#DejaVuSans-63" x="224.365234"/>
      <use xlink:href="#DejaVuSans-68" x="279.345703"/>
      <use xlink:href="#DejaVuSans-4e" x="342.724609"/>
      <use xlink:href="#DejaVuSans-65" x="417.529297"/>
      <use xlink:href="#DejaVuSans-74" x="479.052734"/>
     </g>
    </g>
    <g id="line2d_23">
     <path d="M 78.085865 158.680553 
L 96.085865 158.680553 
L 114.085865 158.680553 
" style="fill: none; stroke: #ffe7be; stroke-width: 2.5; stroke-linecap: square"/>
    </g>
    <g id="text_19">
     <!-- GFN2-xTB -->
     <g transform="translate(128.485865 164.980553)scale(0.18 -0.18)">
      <defs>
       <path id="DejaVuSans-46" d="M 628 4666 
L 3309 4666 
L 3309 4134 
L 1259 4134 
L 1259 2759 
L 3109 2759 
L 3109 2228 
L 1259 2228 
L 1259 0 
L 628 0 
L 628 4666 
z
" transform="scale(0.015625)"/>
       <path id="DejaVuSans-78" d="M 3513 3500 
L 2247 1797 
L 3578 0 
L 2900 0 
L 1881 1375 
L 863 0 
L 184 0 
L 1544 1831 
L 300 3500 
L 978 3500 
L 1906 2253 
L 2834 3500 
L 3513 3500 
z
" transform="scale(0.015625)"/>
       <path id="DejaVuSans-42" d="M 1259 2228 
L 1259 519 
L 2272 519 
Q 2781 519 3026 730 
Q 3272 941 3272 1375 
Q 3272 1813 3026 2020 
Q 2781 2228 2272 2228 
L 1259 2228 
z
M 1259 4147 
L 1259 2741 
L 2194 2741 
Q 2656 2741 2882 2914 
Q 3109 3088 3109 3444 
Q 3109 3797 2882 3972 
Q 2656 4147 2194 4147 
L 1259 4147 
z
M 628 4666 
L 2241 4666 
Q 2963 4666 3353 4366 
Q 3744 4066 3744 3513 
Q 3744 3084 3544 2831 
Q 3344 2578 2956 2516 
Q 3422 2416 3680 2098 
Q 3938 1781 3938 1306 
Q 3938 681 3513 340 
Q 3088 0 2303 0 
L 628 0 
L 628 4666 
z
" transform="scale(0.015625)"/>
      </defs>
      <use xlink:href="#DejaVuSans-47"/>
      <use xlink:href="#DejaVuSans-46" x="77.490234"/>
      <use xlink:href="#DejaVuSans-4e" x="135.009766"/>
      <use xlink:href="#DejaVuSans-32" x="209.814453"/>
      <use xlink:href="#DejaVuSans-2d" x="273.4375"/>
      <use xlink:href="#DejaVuSans-78" x="309.521484"/>
      <use xlink:href="#DejaVuSans-54" x="368.701172"/>
      <use xlink:href="#DejaVuSans-42" x="429.785156"/>
     </g>
    </g>
   </g>
  </g>
 </g>
 <defs>
  <clipPath id="p8559b64680">
   <rect x="61.885865" y="3.00024" width="361.358978" height="380.15827"/>
  </clipPath>
 </defs>
</svg>
