<?xml version="1.0" encoding="utf-8" standalone="no"?>
<!DOCTYPE svg PUBLIC "-//W3C//DTD SVG 1.1//EN"
  "http://www.w3.org/Graphics/SVG/1.1/DTD/svg11.dtd">
<svg xmlns:xlink="http://www.w3.org/1999/xlink" width="230.4pt" height="230.4pt" viewBox="0 0 230.4 230.4" xmlns="http://www.w3.org/2000/svg" version="1.1">
 <metadata>
  <rdf:RDF xmlns:dc="http://purl.org/dc/elements/1.1/" xmlns:cc="http://creativecommons.org/ns#" xmlns:rdf="http://www.w3.org/1999/02/22-rdf-syntax-ns#">
   <cc:Work>
    <dc:type rdf:resource="http://purl.org/dc/dcmitype/StillImage"/>
    <dc:date>2022-10-04T18:07:25.154507</dc:date>
    <dc:format>image/svg+xml</dc:format>
    <dc:creator>
     <cc:Agent>
      <dc:title>Matplotlib v3.6.0, https://matplotlib.org/</dc:title>
     </cc:Agent>
    </dc:creator>
   </cc:Work>
  </rdf:RDF>
 </metadata>
 <defs>
  <style type="text/css">*{stroke-linejoin: round; stroke-linecap: butt}</style>
 </defs>
 <g id="figure_1">
  <g id="patch_1">
   <path d="M 0 230.4 
L 230.4 230.4 
L 230.4 0 
L 0 0 
z
" style="fill: #ffffff"/>
  </g>
  <g id="axes_1">
   <g id="patch_2">
    <path d="M 31.746177 201.696635 
L 227.39976 201.696635 
L 227.39976 3.00024 
L 31.746177 3.00024 
z
" style="fill: #ffffff"/>
   </g>
   <g id="line2d_1">
    <path d="M 31.746177 201.696635 
L 32.118851 201.460911 
L 33.050535 200.279468 
L 35.100239 196.985285 
L 36.218259 195.584705 
L 36.590933 195.040667 
L 37.149943 194.733189 
L 37.522617 194.362892 
L 38.081627 194.21205 
L 38.4543 193.832849 
L 38.826974 193.76873 
L 39.199647 193.501698 
L 39.385984 193.546009 
L 39.944994 193.999847 
L 40.876678 194.262072 
L 41.249352 194.363935 
L 41.622025 193.891206 
L 41.994698 193.258936 
L 42.367372 191.873631 
L 42.740045 190.488097 
L 43.112719 189.467071 
L 43.671729 187.749371 
L 44.417076 187.48807 
L 44.603413 187.560911 
L 45.162423 188.229233 
L 45.535097 188.318326 
L 45.90777 188.692249 
L 46.094107 188.662254 
L 46.653117 188.078478 
L 47.025791 187.222768 
L 49.448168 180.447441 
L 50.193515 179.122759 
L 51.311536 175.7029 
L 51.497872 175.500044 
L 52.056883 175.38509 
L 52.80223 174.670432 
L 53.733913 174.63524 
L 54.106587 174.161341 
L 54.665597 172.708784 
L 55.597281 170.33631 
L 56.156291 169.204961 
L 58.392332 162.462837 
L 59.883026 156.45152 
L 61.187383 152.227377 
L 62.49174 148.219551 
L 63.050751 146.252847 
L 64.541445 140.447243 
L 65.100455 138.933599 
L 66.032139 135.97047 
L 66.404812 135.483982 
L 66.777486 135.072143 
L 67.150159 134.334303 
L 67.895506 132.099294 
L 68.26818 131.149125 
L 69.199863 129.513538 
L 70.131547 127.061115 
L 70.317884 126.922146 
L 71.063231 127.018394 
L 71.435904 126.418558 
L 72.181251 124.478735 
L 72.367588 124.298543 
L 73.112935 124.159388 
L 73.485608 123.324593 
L 74.044619 121.990267 
L 74.230955 121.931617 
L 74.417292 122.110962 
L 74.976302 123.067234 
L 75.162639 123.138736 
L 75.348976 123.024457 
L 76.28066 121.776411 
L 77.212343 121.692822 
L 77.585017 120.997932 
L 78.144027 119.828271 
L 78.516701 119.625074 
L 78.889374 119.898251 
L 79.262048 120.189835 
L 79.448384 120.116179 
L 79.821058 119.44347 
L 80.566405 117.661134 
L 80.939078 117.499134 
L 81.498088 117.576471 
L 81.870762 117.420842 
L 82.429772 117.096706 
L 82.616109 117.219623 
L 82.988782 118.054515 
L 83.734129 120.427285 
L 83.920466 120.49572 
L 84.106803 120.277204 
L 85.038487 118.279695 
L 85.41116 118.213842 
L 85.597497 118.06617 
L 85.97017 117.362364 
L 86.529181 115.991355 
L 86.715517 115.879338 
L 86.901854 116.113644 
L 87.833538 118.843751 
L 88.019875 118.808037 
L 88.765222 117.561639 
L 89.137895 117.796226 
L 89.324232 117.924646 
L 89.510569 117.88002 
L 89.696905 117.586595 
L 90.628589 115.021243 
L 90.814926 115.081855 
L 91.187599 115.822594 
L 91.746609 116.943412 
L 92.119283 117.124266 
L 93.42364 116.759498 
L 93.796314 116.115565 
L 94.541661 114.295603 
L 94.727997 114.105939 
L 94.914334 114.0939 
L 95.846018 114.695034 
L 96.218691 114.524053 
L 97.523049 113.363257 
L 98.268396 111.884376 
L 98.641069 111.269727 
L 99.013743 111.059099 
L 99.386416 111.155229 
L 100.131763 111.489557 
L 100.504436 111.456709 
L 101.99513 110.60553 
L 102.367804 110.043551 
L 103.113151 108.647375 
L 103.485824 108.506821 
L 103.858498 108.512493 
L 104.231171 108.150775 
L 105.162855 106.470817 
L 105.535529 106.475658 
L 106.280876 106.583508 
L 106.653549 106.270097 
L 107.398896 105.312718 
L 107.77157 105.205987 
L 108.144243 105.420332 
L 108.703253 105.904309 
L 109.075927 105.906764 
L 109.821274 105.692571 
L 110.193947 105.893511 
L 110.752957 106.429144 
L 110.939294 106.369204 
L 111.311968 105.78409 
L 111.870978 104.697728 
L 112.243651 104.476722 
L 112.988998 104.455534 
L 114.107019 103.92807 
L 114.293356 103.99793 
L 114.666029 104.515911 
L 115.038703 105.166211 
L 115.225039 105.314359 
L 115.411376 105.293931 
L 116.156723 104.717462 
L 116.34306 104.83966 
L 116.715733 105.492284 
L 117.274744 106.49362 
L 117.46108 106.519483 
L 118.206427 106.100174 
L 118.392764 106.29138 
L 118.765438 107.194419 
L 119.324448 108.685663 
L 119.510785 108.780961 
L 119.883458 108.657604 
L 120.069795 108.736062 
L 120.256131 109.019514 
L 120.628805 110.170642 
L 121.187815 112.208416 
L 121.374152 112.478621 
L 121.560489 112.420244 
L 121.933162 111.930618 
L 122.119499 111.880897 
L 122.305836 112.062146 
L 122.678509 112.996032 
L 123.237519 114.743493 
L 123.423856 114.870807 
L 123.79653 114.450405 
L 124.169203 114.202185 
L 124.35554 114.361813 
L 124.728213 115.258366 
L 125.287224 116.829451 
L 125.47356 116.990333 
L 125.659897 116.886979 
L 126.218907 116.233046 
L 126.405244 116.28665 
L 126.591581 116.534866 
L 126.964254 117.548639 
L 127.336928 118.67543 
L 127.523265 118.929538 
L 127.709601 118.920805 
L 128.082275 118.593733 
L 128.268612 118.580842 
L 128.454948 118.81622 
L 128.827622 119.937138 
L 129.200295 121.132884 
L 129.386632 121.406947 
L 129.572969 121.346924 
L 130.318316 120.105023 
L 130.504652 120.144147 
L 130.877326 120.679028 
L 131.249999 121.310721 
L 131.436336 121.393217 
L 131.622673 121.261334 
L 132.36802 120.176039 
L 132.554357 120.265572 
L 133.299704 121.201806 
L 133.48604 120.996451 
L 133.858714 119.727401 
L 134.231387 118.259763 
L 134.417724 117.879578 
L 134.604061 117.788573 
L 134.976734 118.164357 
L 135.163071 118.370267 
L 135.349408 118.38474 
L 135.535745 118.119749 
L 136.467428 115.786163 
L 136.653765 115.962189 
L 137.212775 117.01391 
L 137.399112 117.005918 
L 137.585449 116.694882 
L 138.517133 113.838439 
L 138.703469 113.776404 
L 139.26248 113.914323 
L 139.448816 113.772418 
L 139.82149 112.810489 
L 140.3805 110.818974 
L 140.566837 110.531483 
L 140.753173 110.511316 
L 141.49852 111.210397 
L 141.684857 110.94552 
L 142.430204 108.833666 
L 142.616541 108.769908 
L 142.802878 108.970662 
L 143.361888 110.077895 
L 143.548225 110.170127 
L 143.734561 109.99116 
L 144.479908 108.523649 
L 144.666245 108.514649 
L 145.038919 109.097583 
L 145.411592 109.789741 
L 145.597929 109.823716 
L 145.784266 109.543492 
L 146.529613 107.679609 
L 146.715949 107.716725 
L 147.088623 108.517055 
L 147.461296 109.430197 
L 147.647633 109.515057 
L 148.020307 109.015475 
L 148.39298 108.677332 
L 148.579317 108.811243 
L 148.95199 109.663357 
L 149.324664 110.638019 
L 149.511 110.84195 
L 149.697337 110.816603 
L 150.070011 110.315937 
L 150.629021 109.523576 
L 151.001694 109.579243 
L 151.374368 109.780835 
L 151.560705 109.766912 
L 151.933378 109.323008 
L 152.306052 108.763265 
L 152.492388 108.682093 
L 152.678725 108.761411 
L 153.051399 109.264457 
L 153.610409 110.272627 
L 153.983082 110.532141 
L 154.355756 110.501078 
L 154.728429 110.137176 
L 155.84645 108.683846 
L 157.337144 105.670833 
L 157.709817 105.547975 
L 158.082491 105.453703 
L 158.455164 105.06982 
L 158.827838 104.358169 
L 160.318532 100.393918 
L 161.250215 96.935961 
L 161.622889 96.346588 
L 162.181899 95.659791 
L 163.29992 93.299713 
L 164.231603 90.905904 
L 165.908634 84.948036 
L 166.281308 84.640634 
L 166.840318 84.440093 
L 167.212991 83.953634 
L 167.958338 82.705541 
L 168.331012 82.150388 
L 168.703685 81.030436 
L 169.262695 78.048761 
L 169.821706 74.901381 
L 170.194379 73.901407 
L 171.685073 71.77842 
L 171.87141 71.806683 
L 172.43042 72.338965 
L 172.616757 72.30533 
L 172.803094 72.040279 
L 173.175767 70.867283 
L 174.107451 67.119563 
L 174.666461 66.10083 
L 175.225471 65.502258 
L 175.598145 65.356388 
L 175.784482 65.384702 
L 175.970818 65.560524 
L 176.343492 66.367767 
L 176.716165 67.241134 
L 177.088839 67.557606 
L 177.275176 67.420422 
L 177.647849 66.559586 
L 178.206859 64.831392 
L 178.579533 64.310152 
L 178.952206 64.058146 
L 179.32488 63.478223 
L 179.88389 62.174089 
L 180.070227 62.037625 
L 180.256563 62.169264 
L 180.815574 63.057969 
L 181.00191 63.057984 
L 181.374584 62.409186 
L 181.933594 61.088099 
L 182.306268 60.736174 
L 183.796962 60.366006 
L 183.983298 60.437304 
L 184.355972 60.9497 
L 185.101319 62.479489 
L 185.473992 62.741143 
L 185.846666 62.65894 
L 186.219339 62.471631 
L 186.592013 62.595702 
L 187.151023 62.840849 
L 187.33736 62.809365 
L 187.710033 62.36959 
L 188.269043 61.411444 
L 188.641717 61.198477 
L 189.387064 61.320373 
L 189.759737 60.773214 
L 190.877758 58.193954 
L 191.436768 57.625373 
L 191.809442 56.789906 
L 192.741125 54.012999 
L 192.927462 53.89648 
L 193.486472 54.154131 
L 193.672809 53.997471 
L 194.045483 53.038821 
L 194.604493 51.228149 
L 194.977166 50.803149 
L 195.34984 50.742533 
L 195.536177 50.564516 
L 195.90885 49.637042 
L 196.654197 47.292394 
L 197.026871 46.957648 
L 197.772218 47.170065 
L 198.144891 46.42848 
L 198.890238 44.391691 
L 199.262911 44.183874 
L 199.449248 44.174258 
L 199.635585 44.030985 
L 200.008258 42.996568 
L 200.753605 40.216288 
L 200.939942 40.050993 
L 201.126279 40.15475 
L 201.498952 40.661695 
L 201.685289 40.734596 
L 201.871626 40.54398 
L 202.244299 39.46269 
L 202.616973 38.273681 
L 202.989646 37.810648 
L 203.36232 37.75436 
L 203.548657 37.600701 
L 203.734993 37.229894 
L 204.107667 35.770592 
L 204.666677 33.289737 
L 205.039351 32.563927 
L 205.412024 32.520532 
L 205.784698 32.578261 
L 206.157371 32.394818 
L 206.716381 31.882969 
L 207.089055 31.850948 
L 207.648065 31.874211 
L 207.834402 31.74088 
L 208.207075 31.005064 
L 209.138759 28.205325 
L 209.511432 27.859129 
L 211.002126 27.397995 
L 211.93381 27.809685 
L 212.306484 27.664436 
L 212.679157 27.198013 
L 213.610841 25.787427 
L 213.797178 25.740911 
L 214.169851 25.98793 
L 214.542525 26.346932 
L 214.915198 26.362857 
L 215.846882 25.908888 
L 216.405892 25.989311 
L 216.592229 25.784113 
L 216.964902 24.82378 
L 217.523913 23.298767 
L 217.710249 23.13744 
L 217.896586 23.183964 
L 218.082923 23.401174 
L 218.082923 23.401174 
" clip-path="url(#p5b3c58e1ea)" style="fill: none; stroke: #ffe7be; stroke-width: 1.5; stroke-linecap: square"/>
   </g>
   <g id="line2d_2">
    <path d="M 31.746177 201.696635 
L 32.491524 201.538976 
L 33.236871 201.170347 
L 34.913902 200.128406 
L 36.77727 199.289043 
L 37.522617 198.915833 
L 38.267964 198.420163 
L 38.826974 198.084966 
L 41.435688 196.090243 
L 41.994698 195.299493 
L 42.553709 194.562563 
L 44.417076 193.304486 
L 45.34876 192.788845 
L 46.46678 191.941252 
L 47.025791 191.976178 
L 47.398464 191.632686 
L 49.075495 189.252574 
L 50.007179 187.545886 
L 50.566189 186.63608 
L 51.125199 185.79971 
L 51.684209 184.963611 
L 52.243219 183.942829 
L 53.547577 181.161093 
L 54.292924 179.05311 
L 55.038271 177.776912 
L 56.342628 175.222256 
L 56.901638 174.657914 
L 58.205995 173.786643 
L 58.578669 173.527371 
L 59.696689 173.118282 
L 60.2557 171.88314 
L 60.81471 170.757361 
L 61.37372 170.305803 
L 62.49174 168.580061 
L 63.237087 168.396976 
L 64.355108 167.019013 
L 64.727781 166.3166 
L 65.659465 163.907272 
L 66.404812 162.953327 
L 67.522833 160.433823 
L 67.895506 160.062166 
L 68.26818 159.143185 
L 69.94521 153.50738 
L 70.504221 152.426149 
L 71.249567 150.996423 
L 71.808578 150.017639 
L 72.553925 149.439155 
L 72.926598 148.56797 
L 73.671945 146.036114 
L 74.044619 145.680755 
L 74.417292 145.501836 
L 74.603629 145.275487 
L 74.976302 144.234529 
L 75.348976 143.102497 
L 75.535313 142.8443 
L 75.721649 142.790333 
L 76.28066 143.032411 
L 76.466996 142.870915 
L 76.83967 141.778234 
L 77.585017 139.193965 
L 79.262048 135.825259 
L 79.634721 135.535269 
L 80.566405 135.288102 
L 80.939078 134.784045 
L 82.243435 132.539723 
L 82.802446 131.588035 
L 83.175119 131.00569 
L 83.547793 130.78421 
L 84.85215 130.521007 
L 85.41116 130.588298 
L 85.783834 130.269888 
L 86.529181 129.247219 
L 88.206211 128.080145 
L 88.578885 128.191024 
L 89.510569 128.721957 
L 90.442252 128.15919 
L 90.814926 128.354559 
L 91.932946 129.533938 
L 93.050967 130.094652 
L 93.42364 130.431588 
L 93.609977 130.435218 
L 93.796314 130.228958 
L 94.541661 128.794402 
L 94.727997 128.769667 
L 94.914334 128.986758 
L 95.846018 131.169989 
L 96.405028 131.309055 
L 96.591365 131.516022 
L 96.964038 132.555749 
L 97.336712 133.643432 
L 97.523049 133.73234 
L 97.709385 133.461445 
L 98.454732 131.265641 
L 98.641069 131.238571 
L 99.386416 132.182921 
L 99.572753 132.104669 
L 100.131763 131.367323 
L 100.3181 131.360496 
L 100.690773 131.799899 
L 101.063447 132.244697 
L 101.249783 132.311935 
L 101.43612 132.189752 
L 101.808794 131.336596 
L 102.367804 129.765281 
L 102.740477 129.31769 
L 103.113151 129.43759 
L 103.485824 129.498625 
L 103.858498 129.130286 
L 104.417508 128.379691 
L 104.790182 128.309426 
L 105.162855 128.413758 
L 105.349192 128.329085 
L 105.535529 128.056598 
L 105.908202 126.917978 
L 106.467212 124.860472 
L 106.653549 124.504298 
L 106.839886 124.397234 
L 107.212559 124.652231 
L 107.398896 124.787176 
L 107.585233 124.780554 
L 107.957906 124.232516 
L 108.33058 123.492309 
L 108.516917 123.305549 
L 108.703253 123.295778 
L 109.262264 123.595185 
L 109.4486 123.420286 
L 109.821274 122.362651 
L 110.380284 120.315784 
L 110.752957 119.646557 
L 111.311968 119.27002 
L 111.684641 118.558321 
L 112.616325 116.127757 
L 113.548009 114.901444 
L 114.107019 113.073763 
L 114.479692 111.97107 
L 114.852366 111.555166 
L 115.411376 111.650195 
L 115.597713 111.481332 
L 115.970386 110.669757 
L 116.529397 109.445581 
L 116.715733 109.374328 
L 117.46108 109.719636 
L 117.833754 109.14418 
L 118.206427 108.345636 
L 118.392764 108.153415 
L 118.579101 108.202185 
L 118.951774 108.988685 
L 119.324448 110.021752 
L 119.510785 110.273172 
L 119.697121 110.26139 
L 120.069795 109.710828 
L 120.442468 109.170157 
L 120.628805 109.111874 
L 121.374152 109.398916 
L 121.746825 108.681058 
L 122.305836 107.292524 
L 122.492172 107.118334 
L 122.678509 107.173494 
L 123.051183 107.857666 
L 123.610193 109.08179 
L 123.982866 109.32791 
L 124.35554 109.501352 
L 124.728213 110.141495 
L 125.47356 112.321504 
L 125.659897 112.390277 
L 125.846234 112.177527 
L 126.591581 110.731124 
L 126.777918 110.821575 
L 127.150591 111.756804 
L 127.523265 112.791615 
L 127.709601 112.975284 
L 127.895938 112.909233 
L 128.268612 112.51869 
L 128.454948 112.512368 
L 128.641285 112.777144 
L 129.013959 114.063022 
L 129.386632 115.516306 
L 129.572969 115.871297 
L 129.759305 115.904499 
L 130.504652 115.264767 
L 130.690989 115.433758 
L 131.063663 116.321398 
L 131.436336 117.315293 
L 131.622673 117.571365 
L 131.80901 117.628716 
L 132.554357 117.348139 
L 132.92703 117.835133 
L 133.672377 119.355954 
L 133.858714 119.336669 
L 134.417724 118.918415 
L 134.604061 118.991772 
L 134.790398 119.276534 
L 135.722081 121.614976 
L 136.094755 121.293007 
L 136.467428 120.916941 
L 136.840102 120.993697 
L 137.399112 121.306284 
L 137.585449 121.203102 
L 137.958122 120.562903 
L 138.330796 119.917842 
L 138.703469 119.611724 
L 138.889806 119.607933 
L 139.076143 119.750433 
L 140.007826 121.25752 
L 140.3805 121.138709 
L 140.753173 120.966084 
L 140.93951 121.065816 
L 141.312184 121.734133 
L 141.684857 122.443879 
L 141.871194 122.473422 
L 142.243867 121.865659 
L 142.616541 121.114811 
L 142.802878 120.909256 
L 142.989214 120.892397 
L 143.361888 121.35783 
L 143.734561 121.705208 
L 144.107235 121.392907 
L 144.666245 120.777128 
L 144.852582 120.771533 
L 145.225255 121.070902 
L 145.597929 121.368966 
L 145.784266 121.371425 
L 146.156939 121.037137 
L 146.715949 120.465474 
L 147.088623 120.253122 
L 147.461296 120.405466 
L 147.83397 120.609385 
L 148.206643 120.41458 
L 148.95199 119.57239 
L 149.324664 119.654523 
L 149.697337 119.829151 
L 149.883674 119.759277 
L 150.256347 119.125646 
L 150.815358 117.979481 
L 151.001694 117.941512 
L 151.188031 118.121779 
L 151.747041 119.059633 
L 151.933378 119.026127 
L 152.306052 118.32518 
L 152.678725 117.549907 
L 152.865062 117.339906 
L 153.051399 117.30223 
L 153.610409 117.565401 
L 153.796746 117.397772 
L 154.169419 116.583498 
L 154.542093 115.698637 
L 154.728429 115.456279 
L 154.914766 115.410935 
L 155.660113 115.745673 
L 156.032787 115.383216 
L 156.591797 114.577983 
L 156.96447 114.510743 
L 157.337144 114.593497 
L 157.523481 114.530596 
L 157.896154 114.012677 
L 158.455164 113.102404 
L 158.641501 113.039226 
L 159.014174 113.283657 
L 159.386848 113.563768 
L 159.573185 113.480728 
L 159.945858 112.802037 
L 160.691205 110.83702 
L 161.622889 109.507457 
L 162.554573 106.805226 
L 162.740909 106.768335 
L 163.113583 107.35594 
L 163.486256 107.971005 
L 163.672593 107.941629 
L 164.045267 107.157624 
L 164.604277 105.773389 
L 164.97695 105.55845 
L 165.163287 105.493775 
L 165.349624 105.251658 
L 165.722297 104.018038 
L 166.281308 101.616352 
L 166.467644 101.213998 
L 166.653981 101.143232 
L 167.026655 101.681399 
L 167.399328 102.154273 
L 167.585665 102.101623 
L 167.958338 101.431996 
L 168.517349 100.329083 
L 169.076359 99.647887 
L 169.449032 98.424748 
L 170.567053 93.042356 
L 170.939726 92.71639 
L 171.685073 92.749668 
L 172.803094 92.167136 
L 173.175767 91.685935 
L 173.548441 90.539676 
L 174.666461 85.511077 
L 175.039135 85.181881 
L 176.529829 85.205726 
L 176.902502 85.462692 
L 177.088839 85.473842 
L 177.275176 85.359701 
L 177.647849 84.714213 
L 178.952206 81.105557 
L 179.32488 80.823113 
L 180.256563 80.591317 
L 181.00191 79.922963 
L 181.747257 78.70008 
L 182.678941 76.651716 
L 182.865278 76.535813 
L 183.051615 76.558133 
L 183.424288 76.968456 
L 184.169635 77.886744 
L 184.728645 78.355954 
L 185.101319 78.356639 
L 185.473992 77.934703 
L 186.033003 76.841596 
L 186.592013 75.729508 
L 186.964686 75.416612 
L 187.33736 75.297315 
L 188.082707 75.460975 
L 188.641717 75.674967 
L 189.200727 75.852469 
L 189.946074 75.74615 
L 190.505084 75.647697 
L 191.064095 75.961325 
L 192.182115 76.537331 
L 192.554789 76.589722 
L 193.113799 77.090996 
L 193.486472 77.368806 
L 193.859146 77.362477 
L 194.231819 77.330864 
L 194.418156 77.493034 
L 194.79083 78.2951 
L 195.722513 80.730985 
L 196.46786 82.244716 
L 196.840534 82.642822 
L 197.213207 82.61579 
L 197.585881 82.541298 
L 198.331228 82.744377 
L 198.703901 82.999413 
L 199.076575 83.454038 
L 200.380932 85.700759 
L 201.685289 86.040233 
L 202.430636 86.645901 
L 202.989646 87.594638 
L 204.107667 89.76123 
L 204.48034 89.869852 
L 204.853014 89.616364 
L 205.598361 88.765833 
L 205.784698 88.75095 
L 205.971034 88.900914 
L 206.343708 89.601401 
L 208.579749 94.731901 
L 208.766085 94.595652 
L 209.138759 93.858634 
L 209.884106 92.236883 
L 210.256779 91.850891 
L 210.443116 91.803594 
L 210.629453 91.881838 
L 211.002126 92.458938 
L 211.561137 94.221834 
L 212.120147 95.905969 
L 212.49282 96.582821 
L 213.051831 97.078123 
L 213.424504 97.204197 
L 214.356188 97.104026 
L 214.728861 97.579153 
L 215.287872 98.385138 
L 215.846882 98.726084 
L 216.592229 98.89691 
L 217.151239 98.493804 
L 217.710249 98.219775 
L 218.082923 98.209531 
L 218.082923 98.209531 
" clip-path="url(#p5b3c58e1ea)" style="fill: none; stroke: #ff8fa3; stroke-width: 1.5; stroke-linecap: square"/>
   </g>
   <g id="line2d_3">
    <path d="M 31.746177 201.696635 
L 32.305188 201.575288 
L 33.050535 201.196889 
L 33.795882 200.605444 
L 36.031923 198.352605 
L 36.404596 197.915841 
L 37.33628 197.206151 
L 38.081627 196.160477 
L 38.826974 195.757232 
L 39.758658 194.719614 
L 40.690341 194.869114 
L 41.063015 194.678079 
L 41.435688 194.451588 
L 41.994698 194.319337 
L 42.553709 193.916008 
L 43.299056 193.106439 
L 44.230739 192.660978 
L 44.603413 192.431565 
L 46.280444 190.925208 
L 47.212127 189.562097 
L 48.143811 187.968649 
L 48.516485 187.777344 
L 49.261832 186.625558 
L 50.007179 185.396541 
L 50.379852 184.981839 
L 51.125199 183.453371 
L 51.684209 182.188576 
L 52.243219 181.29064 
L 52.80223 180.300776 
L 53.547577 178.691877 
L 54.106587 177.641554 
L 54.47926 177.134281 
L 55.783618 174.768435 
L 57.087975 173.576592 
L 57.460648 173.307327 
L 57.833322 173.108137 
L 59.696689 171.220011 
L 60.628373 169.486456 
L 61.37372 168.837667 
L 62.119067 167.912186 
L 62.49174 167.860323 
L 62.678077 167.849439 
L 63.050751 167.489299 
L 63.796098 166.379488 
L 64.541445 165.776631 
L 65.473128 164.200583 
L 65.845802 164.152977 
L 66.218475 164.134019 
L 66.591149 163.780998 
L 67.150159 162.988445 
L 67.522833 162.878704 
L 67.895506 162.832249 
L 68.26818 162.290364 
L 70.504221 156.902673 
L 71.063231 155.962427 
L 71.622241 154.750597 
L 71.994914 154.441887 
L 72.367588 154.353932 
L 72.553925 154.176234 
L 72.926598 153.213176 
L 73.858282 149.761812 
L 74.603629 148.126026 
L 75.721649 144.489674 
L 76.466996 143.885484 
L 76.83967 142.852208 
L 78.144027 137.702934 
L 78.703037 136.26867 
L 79.821058 132.226581 
L 80.007395 132.020964 
L 80.752741 131.832736 
L 81.125415 130.762403 
L 81.870762 127.917242 
L 82.243435 127.334056 
L 82.616109 126.890124 
L 82.988782 125.985837 
L 83.547793 124.47323 
L 83.920466 123.92112 
L 84.29314 123.698948 
L 85.038487 123.421574 
L 85.41116 122.878863 
L 86.342844 120.49777 
L 86.715517 120.36071 
L 87.088191 120.385313 
L 87.460864 119.975601 
L 88.019875 118.985293 
L 88.206211 118.873305 
L 88.392548 118.944745 
L 89.137895 119.690405 
L 89.324232 119.516417 
L 89.696905 118.550744 
L 90.069579 117.519083 
L 90.442252 117.161574 
L 90.814926 117.371381 
L 91.187599 117.654063 
L 91.560273 117.600151 
L 91.932946 117.482515 
L 92.491956 117.61657 
L 93.237303 118.055678 
L 93.42364 117.943623 
L 93.796314 117.158416 
L 94.541661 114.713428 
L 94.914334 114.272062 
L 95.473344 114.426324 
L 95.846018 114.023387 
L 96.405028 113.180558 
L 96.591365 113.119337 
L 96.964038 113.46502 
L 97.150375 113.632365 
L 97.336712 113.585485 
L 97.523049 113.268613 
L 98.082059 111.268157 
L 98.454732 110.133899 
L 98.827406 109.771391 
L 99.200079 109.657888 
L 99.572753 109.2383 
L 100.131763 108.357236 
L 100.3181 108.268291 
L 100.690773 108.432899 
L 101.063447 108.615337 
L 101.249783 108.534256 
L 101.622457 107.958403 
L 102.554141 106.184778 
L 102.926814 105.844509 
L 103.299488 105.802255 
L 103.672161 105.862091 
L 104.044835 105.650711 
L 104.976518 104.709428 
L 105.349192 104.468335 
L 105.721865 103.669681 
L 106.653549 100.776392 
L 107.026223 100.590839 
L 107.398896 100.441522 
L 108.33058 99.260743 
L 108.516917 99.42094 
L 109.075927 100.249195 
L 109.262264 100.253758 
L 109.4486 100.024006 
L 110.193947 98.383287 
L 110.566621 98.168631 
L 110.939294 98.027402 
L 111.311968 97.354651 
L 111.870978 95.83761 
L 112.057315 95.608335 
L 112.243651 95.555308 
L 112.616325 95.836396 
L 113.175335 96.415543 
L 113.361672 96.441957 
L 113.734345 96.145583 
L 114.479692 95.136285 
L 114.666029 95.141776 
L 115.411376 95.623026 
L 115.597713 95.318187 
L 116.34306 93.262532 
L 116.529397 93.159957 
L 116.715733 93.317766 
L 117.274744 94.085793 
L 117.46108 93.907055 
L 117.833754 92.796465 
L 118.206427 91.763517 
L 118.392764 91.645021 
L 118.579101 91.830092 
L 119.138111 92.859854 
L 119.324448 92.825652 
L 119.697121 92.045848 
L 120.069795 91.283629 
L 120.256131 91.218638 
L 120.442468 91.379988 
L 121.001478 92.295349 
L 121.187815 92.348441 
L 121.374152 92.133558 
L 121.933162 90.456921 
L 122.305836 89.63038 
L 122.492172 89.540263 
L 122.864846 89.908079 
L 123.051183 90.107804 
L 123.237519 90.125725 
L 123.423856 89.892419 
L 124.35554 87.586047 
L 124.541877 87.731401 
L 124.91455 88.698029 
L 125.287224 89.596183 
L 125.47356 89.64608 
L 125.659897 89.367761 
L 126.405244 87.624136 
L 126.591581 87.606769 
L 127.150591 88.182217 
L 127.336928 88.05302 
L 127.709601 87.022787 
L 128.268612 85.41634 
L 128.454948 85.382508 
L 128.827622 86.101205 
L 129.200295 86.861213 
L 129.386632 86.924358 
L 129.572969 86.713473 
L 130.318316 85.092887 
L 130.690989 84.957116 
L 131.063663 84.977791 
L 131.249999 84.790001 
L 131.622673 83.849344 
L 132.181683 82.212992 
L 132.36802 81.978041 
L 132.554357 82.037546 
L 132.92703 82.86702 
L 133.299704 83.73408 
L 133.48604 83.895054 
L 133.672377 83.817607 
L 134.417724 82.885684 
L 134.790398 83.128586 
L 134.976734 83.254791 
L 135.163071 83.185845 
L 135.349408 82.821005 
L 135.908418 80.487744 
L 136.281092 79.250548 
L 136.467428 79.019084 
L 136.653765 79.053085 
L 137.212775 79.613455 
L 137.399112 79.615451 
L 137.771786 79.320551 
L 138.144459 78.958303 
L 138.330796 78.910088 
L 138.517133 79.019765 
L 138.889806 79.685024 
L 139.26248 80.420703 
L 139.448816 80.569036 
L 139.635153 80.492846 
L 140.007826 79.771854 
L 140.3805 78.883785 
L 140.566837 78.645489 
L 140.753173 78.611464 
L 141.312184 78.889315 
L 141.49852 78.725068 
L 141.871194 77.878082 
L 142.243867 76.977157 
L 142.430204 76.793979 
L 142.616541 76.857565 
L 143.361888 77.94737 
L 143.548225 77.949361 
L 144.479908 77.349464 
L 144.852582 77.691536 
L 145.225255 78.084679 
L 145.411592 78.092922 
L 145.784266 77.634711 
L 146.715949 75.998897 
L 146.902286 76.077731 
L 147.647633 77.185416 
L 147.83397 77.101904 
L 148.39298 76.358552 
L 148.579317 76.348385 
L 148.765654 76.566658 
L 149.511 78.311685 
L 149.697337 78.37606 
L 150.442684 78.075411 
L 150.629021 78.23026 
L 151.001694 79.053861 
L 151.374368 79.993934 
L 151.560705 80.233314 
L 151.747041 80.260048 
L 152.119715 79.802107 
L 152.678725 78.904 
L 152.865062 78.786233 
L 153.237735 78.896781 
L 153.610409 78.95666 
L 153.983082 78.633804 
L 154.542093 78.127607 
L 154.728429 78.122481 
L 155.473776 78.602955 
L 155.84645 78.359027 
L 156.591797 77.65851 
L 157.896154 77.14726 
L 158.268828 77.298513 
L 159.014174 77.711769 
L 159.200511 77.672895 
L 159.573185 77.261783 
L 161.250215 74.686663 
L 161.995562 74.225589 
L 162.368236 74.153231 
L 162.740909 74.339775 
L 163.29992 74.949814 
L 163.486256 74.952171 
L 163.85893 74.473632 
L 164.604277 72.589223 
L 166.094971 68.876231 
L 166.281308 68.762436 
L 166.467644 68.795716 
L 167.026655 69.383992 
L 167.399328 69.610712 
L 167.772002 69.47036 
L 168.144675 69.119352 
L 168.517349 68.520691 
L 169.076359 67.062347 
L 169.635369 64.599032 
L 170.194379 62.226184 
L 170.567053 61.258881 
L 170.939726 60.848488 
L 171.685073 60.486812 
L 172.057747 60.567862 
L 172.616757 60.894978 
L 172.803094 60.89392 
L 172.98943 60.77258 
L 173.362104 60.084663 
L 174.480124 57.23396 
L 174.852798 56.924906 
L 175.411808 56.813247 
L 176.343492 56.225772 
L 176.716165 56.421728 
L 177.275176 56.925004 
L 177.461512 56.775673 
L 177.834186 55.795644 
L 178.393196 53.904993 
L 178.579533 53.666891 
L 178.765869 53.736618 
L 179.32488 54.637595 
L 179.511216 54.635391 
L 179.88389 53.975369 
L 180.256563 53.209291 
L 180.4429 53.087424 
L 180.629237 53.183231 
L 181.188247 53.794325 
L 181.374584 53.703385 
L 181.747257 52.908202 
L 182.306268 51.509076 
L 182.492604 51.324271 
L 182.678941 51.32961 
L 183.051615 51.754545 
L 183.424288 52.152583 
L 183.610625 52.130575 
L 184.355972 51.57861 
L 184.542309 51.756537 
L 184.914982 52.651912 
L 185.287656 53.724272 
L 185.473992 53.984186 
L 185.660329 53.951904 
L 186.033003 53.1942 
L 186.405676 52.362076 
L 186.592013 52.254446 
L 186.77835 52.401582 
L 187.33736 53.207924 
L 187.523697 53.097667 
L 187.89637 51.957622 
L 188.269043 50.563692 
L 188.45538 50.194003 
L 188.641717 50.1044 
L 189.01439 50.498971 
L 189.200727 50.708312 
L 189.387064 50.721948 
L 189.759737 50.104409 
L 190.132411 49.363398 
L 190.318748 49.219531 
L 190.505084 49.30011 
L 191.436768 50.711506 
L 191.623105 50.615445 
L 191.995778 49.850487 
L 192.554789 48.639145 
L 192.741125 48.582913 
L 193.113799 48.989303 
L 193.300136 49.207085 
L 193.486472 49.207686 
L 193.672809 48.902369 
L 194.604493 46.398683 
L 194.79083 46.593777 
L 195.34984 47.499185 
L 195.536177 47.358112 
L 195.90885 46.315806 
L 196.281524 45.187599 
L 196.654197 44.807076 
L 197.213207 44.767135 
L 197.585881 44.110794 
L 198.517564 41.857735 
L 198.890238 41.51101 
L 199.449248 41.206131 
L 199.821922 40.630526 
L 200.939942 38.240857 
L 201.498952 37.511184 
L 202.616973 34.98047 
L 202.80331 34.971382 
L 203.548657 35.37029 
L 203.92133 34.851982 
L 204.48034 33.739232 
L 205.412024 32.835511 
L 206.716381 29.651674 
L 208.393412 28.353872 
L 208.766085 28.149202 
L 209.138759 27.715545 
L 209.511432 26.93888 
L 211.002126 23.153796 
L 211.3748 23.029056 
L 211.93381 22.987152 
L 212.49282 22.666707 
L 213.051831 22.043897 
L 213.424504 21.383054 
L 213.797178 20.362426 
L 215.101535 15.720213 
L 215.474208 15.341586 
L 215.846882 15.30261 
L 216.778566 15.430573 
L 217.151239 15.071143 
L 217.523913 14.28478 
L 218.082923 12.461973 
L 218.082923 12.461973 
" clip-path="url(#p5b3c58e1ea)" style="fill: none; stroke: #a4133c; stroke-width: 1.5; stroke-linecap: square"/>
   </g>
   <g id="line2d_4">
    <path d="M 31.746177 201.696635 
L 32.491524 201.564391 
L 33.423208 201.186405 
L 36.218259 199.657014 
L 38.4543 199.156457 
L 39.199647 199.022341 
L 41.808362 197.967922 
L 42.553709 197.371289 
L 44.230739 197.033323 
L 44.603413 197.174501 
L 45.535097 197.242538 
L 46.094107 197.004354 
L 47.212127 196.258374 
L 47.771138 195.592261 
L 50.007179 193.567017 
L 50.379852 193.46766 
L 50.938862 192.971651 
L 51.311536 192.882062 
L 51.870546 192.594047 
L 52.243219 192.239558 
L 52.615893 191.80114 
L 52.988566 191.478268 
L 54.292924 189.33 
L 54.665597 189.106171 
L 55.783618 187.756207 
L 56.156291 187.698868 
L 56.528965 187.618269 
L 58.578669 186.623012 
L 58.951342 186.156557 
L 59.510353 185.398273 
L 59.883026 184.799713 
L 60.628373 183.187096 
L 61.187383 182.049529 
L 62.119067 180.774735 
L 64.355108 177.601785 
L 64.727781 176.500387 
L 65.473128 174.031877 
L 65.845802 173.287626 
L 66.404812 172.415583 
L 67.336496 170.317482 
L 67.709169 170.022716 
L 67.895506 169.922123 
L 68.26818 169.291428 
L 68.82719 167.503836 
L 69.3862 165.582862 
L 71.249567 161.470735 
L 71.808578 160.964741 
L 72.181251 160.731234 
L 72.553925 160.135703 
L 72.926598 159.215677 
L 73.858282 156.373319 
L 75.535313 153.07821 
L 75.721649 153.053673 
L 76.094323 153.392459 
L 76.28066 153.60847 
L 76.466996 153.646289 
L 76.653333 153.386923 
L 77.026007 152.124637 
L 77.585017 150.173326 
L 77.95769 149.683034 
L 78.330364 149.262165 
L 78.703037 148.210653 
L 79.262048 146.435494 
L 79.448384 146.182304 
L 79.634721 146.158828 
L 80.007395 146.568404 
L 80.380068 147.025326 
L 80.566405 147.031061 
L 80.752741 146.794298 
L 81.684425 144.692435 
L 81.870762 144.712357 
L 82.429772 145.131908 
L 82.616109 144.970928 
L 83.361456 143.708363 
L 83.547793 143.725772 
L 83.920466 144.222084 
L 84.29314 144.865069 
L 84.665813 145.032993 
L 85.038487 144.71372 
L 86.156507 142.918714 
L 86.715517 142.421678 
L 87.833538 140.72868 
L 88.019875 140.811303 
L 88.765222 141.532444 
L 88.951558 141.498819 
L 89.137895 141.316465 
L 89.510569 140.490007 
L 90.069579 139.10456 
L 90.628589 138.422923 
L 91.001262 137.950435 
L 91.560273 136.47608 
L 92.119283 135.291858 
L 92.678293 134.803148 
L 93.050967 134.504488 
L 93.42364 133.814769 
L 94.541661 130.696834 
L 94.914334 130.62601 
L 95.100671 130.604639 
L 95.287008 130.430199 
L 95.659681 129.484451 
L 96.218691 127.727126 
L 96.591365 127.277942 
L 96.964038 127.264693 
L 97.150375 127.04405 
L 97.523049 125.610832 
L 98.268396 121.962594 
L 98.454732 121.68775 
L 98.641069 121.678163 
L 99.013743 121.809456 
L 99.200079 121.608744 
L 99.572753 120.546898 
L 100.131763 118.959529 
L 100.504436 118.630915 
L 100.87711 118.400442 
L 101.249783 117.490761 
L 102.367804 113.308857 
L 102.554141 113.105588 
L 102.926814 113.184819 
L 103.299488 113.307416 
L 103.672161 113.174343 
L 104.603845 112.324105 
L 105.162855 112.414172 
L 105.349192 112.227406 
L 105.721865 111.224953 
L 106.280876 109.226954 
L 106.467212 108.853256 
L 106.653549 108.752576 
L 107.212559 109.166164 
L 107.585233 108.904484 
L 107.957906 108.498361 
L 108.144243 108.420011 
L 108.33058 108.514708 
L 108.703253 109.281126 
L 109.075927 110.05671 
L 109.262264 110.14559 
L 109.4486 110.000712 
L 110.380284 108.529225 
L 110.752957 108.706491 
L 111.125631 108.810058 
L 111.498304 108.356247 
L 111.870978 107.733879 
L 112.057315 107.584069 
L 112.243651 107.588007 
L 112.429988 107.758345 
L 113.361672 109.255373 
L 113.548009 109.126765 
L 114.293356 108.082237 
L 114.479692 108.162627 
L 115.411376 109.456173 
L 115.597713 109.315252 
L 116.156723 108.434578 
L 116.34306 108.349636 
L 116.529397 108.451658 
L 116.90207 109.105127 
L 117.274744 109.737891 
L 117.46108 109.709266 
L 117.833754 108.960205 
L 118.206427 108.133083 
L 118.392764 107.975228 
L 118.579101 108.067572 
L 119.510785 109.440252 
L 119.883458 109.206453 
L 120.256131 108.979414 
L 120.442468 109.077315 
L 120.815142 109.689001 
L 121.187815 110.392598 
L 121.374152 110.514668 
L 121.560489 110.372618 
L 122.305836 108.955858 
L 122.492172 108.911233 
L 122.678509 109.102718 
L 123.610193 110.927129 
L 123.982866 110.826815 
L 124.35554 110.635368 
L 124.541877 110.754623 
L 124.91455 111.492798 
L 125.287224 112.341882 
L 125.47356 112.502699 
L 125.659897 112.373439 
L 126.591581 110.762089 
L 126.777918 110.896116 
L 127.523265 112.16006 
L 127.895938 112.217669 
L 128.268612 112.145246 
L 128.454948 112.256722 
L 128.827622 113.02549 
L 129.386632 114.36646 
L 129.572969 114.502464 
L 129.759305 114.418374 
L 130.504652 113.396115 
L 130.690989 113.374001 
L 131.063663 113.796055 
L 131.436336 114.372686 
L 131.622673 114.473561 
L 131.80901 114.408947 
L 132.181683 113.858862 
L 132.554357 113.331288 
L 132.740693 113.358643 
L 133.113367 113.959184 
L 133.48604 114.63528 
L 133.672377 114.732594 
L 133.858714 114.574016 
L 134.604061 113.204387 
L 134.790398 113.223363 
L 135.163071 113.817415 
L 135.535745 114.340383 
L 135.722081 114.230299 
L 136.653765 112.710852 
L 137.026439 113.177549 
L 137.399112 113.531641 
L 137.585449 113.424136 
L 137.958122 112.639827 
L 138.517133 111.436934 
L 138.703469 111.339061 
L 138.889806 111.413315 
L 139.635153 112.26772 
L 139.82149 112.161553 
L 140.566837 111.066822 
L 140.93951 111.052568 
L 141.49852 111.260081 
L 141.684857 111.077909 
L 142.057531 110.207304 
L 142.616541 108.762835 
L 142.802878 108.550477 
L 142.989214 108.554683 
L 143.548225 109.235347 
L 143.734561 109.179106 
L 144.107235 108.384178 
L 144.479908 107.544336 
L 144.666245 107.417341 
L 144.852582 107.577663 
L 145.597929 109.005416 
L 145.784266 108.697261 
L 146.715949 105.755176 
L 146.902286 105.894543 
L 147.461296 106.943464 
L 147.647633 106.835631 
L 148.020307 105.724571 
L 148.39298 104.709697 
L 148.579317 104.668454 
L 148.765654 104.993458 
L 149.511 107.336598 
L 149.697337 107.30395 
L 150.070011 106.557785 
L 150.442684 105.79872 
L 150.629021 105.690691 
L 150.815358 105.839583 
L 151.560705 107.069671 
L 151.747041 106.871196 
L 152.119715 105.792334 
L 152.492388 104.73513 
L 152.678725 104.588522 
L 152.865062 104.776631 
L 153.610409 106.662304 
L 153.796746 106.624511 
L 154.169419 105.824219 
L 154.542093 104.851107 
L 154.728429 104.684174 
L 154.914766 104.869049 
L 155.473776 106.219358 
L 155.660113 106.281386 
L 155.84645 106.036017 
L 156.591797 104.08287 
L 156.778134 104.17258 
L 157.523481 105.63158 
L 157.709817 105.458754 
L 158.455164 103.837004 
L 158.641501 103.883409 
L 159.386848 105.030895 
L 159.573185 104.85211 
L 160.504868 102.983139 
L 160.691205 102.955598 
L 161.250215 103.143743 
L 161.622889 102.674957 
L 162.181899 101.340646 
L 162.740909 99.839102 
L 163.29992 99.038246 
L 163.672593 98.52232 
L 164.231603 97.147078 
L 164.790614 95.854503 
L 165.163287 95.586903 
L 165.535961 95.416133 
L 165.908634 94.736159 
L 166.840318 92.363 
L 167.399328 91.901526 
L 167.772002 91.125716 
L 168.517349 89.294479 
L 169.262695 88.134123 
L 170.380716 85.215323 
L 170.939726 84.458621 
L 171.685073 83.094441 
L 172.616757 82.360916 
L 173.175767 80.98906 
L 174.293788 78.352565 
L 174.852798 77.20119 
L 175.225471 76.907006 
L 175.784482 76.622166 
L 176.529829 75.717051 
L 176.902502 75.755114 
L 177.275176 75.836423 
L 177.461512 75.644082 
L 177.834186 74.696141 
L 178.206859 73.672137 
L 178.579533 73.310546 
L 178.952206 73.286354 
L 179.138543 73.119458 
L 179.511216 72.285021 
L 180.070227 70.916655 
L 180.4429 70.566714 
L 180.815574 70.353162 
L 181.374584 69.612409 
L 181.933594 69.043664 
L 182.306268 69.005886 
L 183.610625 69.242618 
L 183.983298 69.15109 
L 184.914982 68.571686 
L 185.473992 68.601817 
L 185.846666 68.217091 
L 186.405676 67.426081 
L 186.592013 67.4355 
L 187.33736 67.899552 
L 187.523697 67.736641 
L 188.828054 65.607656 
L 189.200727 64.983277 
L 189.759737 63.243511 
L 190.318748 61.803163 
L 191.436768 60.336374 
L 194.604493 54.288937 
L 195.536177 53.345258 
L 195.90885 52.367417 
L 196.840534 49.587812 
L 197.585881 47.922706 
L 198.517564 45.397021 
L 198.890238 44.969062 
L 199.635585 44.705739 
L 200.008258 44.166257 
L 200.939942 42.42648 
L 201.312616 41.923025 
L 201.685289 41.053067 
L 202.80331 37.665141 
L 203.92133 35.689127 
L 204.666677 34.257365 
L 205.225687 33.698091 
L 205.971034 32.953784 
L 207.275392 31.480144 
L 207.834402 30.700223 
L 208.952422 28.451719 
L 209.325096 28.539957 
L 209.697769 28.639242 
L 210.443116 28.4854 
L 210.81579 28.757056 
L 211.3748 29.3837 
L 211.561137 29.370078 
L 211.93381 28.897523 
L 212.679157 27.645817 
L 213.610841 27.101875 
L 213.983514 26.704587 
L 214.356188 26.628235 
L 214.915198 26.934673 
L 215.287872 27.021341 
L 215.846882 26.861342 
L 216.778566 27.151115 
L 217.896586 26.643109 
L 218.082923 26.720699 
L 218.082923 26.720699 
" clip-path="url(#p5b3c58e1ea)" style="fill: none; stroke: #590d22; stroke-width: 1.5; stroke-linecap: square"/>
   </g>
   <g id="line2d_5">
    <path d="M 31.746177 201.696635 
L 31.932514 201.608945 
L 32.864198 200.643743 
L 33.423208 200.721389 
L 34.541229 200.206591 
L 34.913902 200.12679 
L 35.845586 200.347834 
L 36.218259 200.269435 
L 36.77727 200.152227 
L 37.708953 199.934891 
L 38.267964 199.607202 
L 38.640637 199.433466 
L 39.013311 199.208884 
L 39.385984 199.059649 
L 40.317668 198.27936 
L 41.435688 197.352313 
L 41.808362 197.09532 
L 42.367372 196.54244 
L 44.417076 195.580227 
L 46.280444 193.537135 
L 47.584801 191.518333 
L 47.957474 191.1787 
L 48.330148 190.73983 
L 49.261832 190.213142 
L 49.448168 190.242437 
L 49.634505 190.144816 
L 50.752526 188.899975 
L 51.125199 188.65428 
L 51.497872 187.989812 
L 52.429556 186.083533 
L 52.80223 185.64272 
L 53.547577 184.994306 
L 54.106587 184.006574 
L 54.665597 183.23798 
L 55.410944 182.470126 
L 55.969954 180.64019 
L 56.528965 178.855033 
L 56.901638 178.361286 
L 57.274312 177.851111 
L 57.646985 176.803652 
L 58.392332 174.387255 
L 58.765006 174.06135 
L 59.137679 173.884083 
L 59.324016 173.569401 
L 59.696689 172.188484 
L 60.442036 168.87661 
L 60.81471 168.16258 
L 61.187383 167.573781 
L 61.560057 166.190429 
L 62.305404 162.231475 
L 62.678077 161.525223 
L 63.237087 161.425371 
L 63.423424 161.0524 
L 63.796098 159.458368 
L 64.355108 156.867834 
L 64.541445 156.528221 
L 64.727781 156.51486 
L 65.100455 156.797707 
L 65.286792 156.641704 
L 65.473128 156.085477 
L 66.404812 151.639623 
L 66.591149 151.700528 
L 67.150159 152.936484 
L 67.336496 152.933962 
L 67.522833 152.477685 
L 68.26818 149.388445 
L 68.454516 149.346181 
L 68.82719 150.303084 
L 69.199863 151.112652 
L 69.3862 150.881497 
L 69.758874 149.207695 
L 70.131547 147.546615 
L 70.317884 147.258654 
L 70.504221 147.421841 
L 71.249567 149.553788 
L 71.435904 149.435838 
L 71.808578 148.085726 
L 72.181251 146.776859 
L 72.367588 146.610229 
L 72.553925 146.805567 
L 73.112935 148.172633 
L 73.299272 148.202418 
L 73.485608 147.845786 
L 74.044619 146.048731 
L 74.230955 145.831285 
L 74.417292 145.971631 
L 74.789966 147.176518 
L 75.162639 148.631282 
L 75.348976 149.028509 
L 75.535313 149.109978 
L 75.907986 148.657741 
L 76.094323 148.441461 
L 76.28066 148.464203 
L 76.466996 148.808593 
L 77.212343 151.304227 
L 77.39868 151.416419 
L 77.585017 151.165784 
L 78.144027 149.853281 
L 78.330364 149.87122 
L 78.516701 150.224522 
L 79.262048 152.726778 
L 79.448384 152.78278 
L 80.193731 151.73851 
L 80.380068 151.968377 
L 81.311752 154.364214 
L 81.498088 154.195764 
L 82.057099 153.380195 
L 82.243435 153.485649 
L 82.616109 154.487342 
L 82.988782 155.655643 
L 83.175119 155.950523 
L 83.361456 155.940727 
L 83.734129 155.11862 
L 84.106803 154.162299 
L 84.29314 153.991222 
L 84.479476 154.063669 
L 85.038487 154.832756 
L 85.224823 154.838038 
L 85.597497 154.277987 
L 85.97017 153.763205 
L 86.156507 153.825705 
L 86.529181 154.633568 
L 86.901854 155.624351 
L 87.088191 155.833088 
L 87.274528 155.763634 
L 87.647201 154.887768 
L 88.019875 153.828943 
L 88.206211 153.55338 
L 88.392548 153.507076 
L 89.137895 154.061196 
L 89.510569 153.548332 
L 89.883242 152.940683 
L 90.069579 152.899059 
L 90.255916 153.119593 
L 90.628589 154.196915 
L 91.001262 155.263701 
L 91.187599 155.445554 
L 91.373936 155.354178 
L 91.932946 154.489868 
L 92.119283 154.463622 
L 92.491956 155.069046 
L 92.86463 155.756882 
L 93.050967 155.859108 
L 93.42364 155.618768 
L 93.796314 155.307968 
L 93.98265 155.36938 
L 94.355324 156.010782 
L 94.727997 156.662486 
L 95.100671 156.882284 
L 95.473344 156.707956 
L 95.846018 156.411448 
L 96.218691 156.519834 
L 96.591365 156.846136 
L 97.150375 157.529075 
L 97.523049 157.531473 
L 98.641069 157.408995 
L 98.827406 157.457557 
L 99.013743 157.377336 
L 99.386416 156.786835 
L 99.75909 155.640077 
L 100.3181 153.874693 
L 101.249783 152.4898 
L 102.181467 149.706236 
L 102.554141 149.54283 
L 102.926814 149.422537 
L 103.299488 148.945958 
L 103.672161 147.92037 
L 104.417508 145.590919 
L 104.790182 145.139128 
L 105.162855 144.98937 
L 105.349192 144.750459 
L 105.721865 143.483406 
L 106.653549 139.114907 
L 107.026223 138.776039 
L 107.212559 138.683733 
L 107.398896 138.399413 
L 107.77157 136.951992 
L 108.33058 134.456446 
L 108.516917 134.160902 
L 108.703253 134.199649 
L 109.262264 134.885927 
L 109.4486 134.552974 
L 109.821274 132.717561 
L 110.380284 130.037884 
L 110.566621 129.717015 
L 110.752957 129.667981 
L 111.125631 129.748442 
L 111.311968 129.462209 
L 111.684641 127.970748 
L 112.243651 125.40228 
L 112.616325 124.77651 
L 112.988998 124.970277 
L 113.175335 125.076832 
L 113.361672 124.965581 
L 113.548009 124.534984 
L 114.479692 120.910087 
L 114.666029 120.737328 
L 114.852366 120.823518 
L 115.225039 121.237211 
L 115.411376 121.179188 
L 115.78405 120.26929 
L 116.156723 119.157329 
L 116.34306 118.845883 
L 116.529397 118.809989 
L 116.715733 119.057685 
L 117.274744 120.207291 
L 117.46108 120.15272 
L 117.833754 119.109644 
L 118.392764 117.059946 
L 118.579101 116.736162 
L 118.765438 116.657455 
L 119.324448 117.10422 
L 119.510785 117.002938 
L 119.883458 116.168826 
L 120.442468 114.869353 
L 120.628805 114.815732 
L 120.815142 115.03063 
L 121.374152 116.206372 
L 121.560489 116.295653 
L 121.746825 116.114863 
L 122.119499 115.103492 
L 122.492172 114.080861 
L 122.678509 113.847939 
L 122.864846 113.819916 
L 123.423856 114.090975 
L 123.610193 113.959409 
L 124.541877 112.62914 
L 124.728213 112.696406 
L 125.47356 113.523556 
L 125.659897 113.448216 
L 126.032571 112.854755 
L 126.591581 111.669262 
L 126.777918 111.511347 
L 127.150591 111.636097 
L 127.523265 111.911126 
L 127.709601 111.942006 
L 128.082275 111.61926 
L 128.454948 111.281806 
L 128.641285 111.34713 
L 129.013959 111.968199 
L 129.386632 112.714444 
L 129.572969 112.865244 
L 129.759305 112.822727 
L 130.690989 111.896599 
L 131.063663 112.136758 
L 131.622673 112.506461 
L 131.995346 112.547505 
L 132.36802 112.505986 
L 132.740693 112.836402 
L 133.299704 113.985419 
L 133.672377 114.60126 
L 133.858714 114.616752 
L 134.231387 114.141434 
L 134.604061 113.586528 
L 134.790398 113.491989 
L 135.163071 113.739346 
L 135.535745 114.00257 
L 135.722081 113.975851 
L 136.467428 113.397506 
L 136.840102 113.744672 
L 137.399112 114.435817 
L 137.771786 114.589827 
L 138.517133 114.496638 
L 138.889806 114.62738 
L 139.635153 115.111156 
L 140.007826 114.856008 
L 140.3805 114.471368 
L 140.566837 114.437098 
L 140.93951 114.813536 
L 141.312184 115.316901 
L 141.49852 115.411929 
L 141.684857 115.294183 
L 142.430204 113.937703 
L 142.616541 113.917978 
L 142.989214 114.318897 
L 143.361888 114.876716 
L 143.548225 114.932595 
L 143.920898 114.504671 
L 144.293572 114.055297 
L 144.479908 114.036371 
L 144.666245 114.219578 
L 145.411592 115.573741 
L 145.597929 115.491606 
L 145.970602 114.681084 
L 146.343276 113.80376 
L 146.529613 113.650288 
L 146.715949 113.700167 
L 147.27496 114.218456 
L 147.461296 114.148975 
L 147.647633 113.804422 
L 148.39298 111.727533 
L 148.579317 111.744325 
L 148.95199 112.545888 
L 149.324664 113.457095 
L 149.511 113.519856 
L 149.697337 113.240248 
L 150.256347 111.82446 
L 150.442684 111.727634 
L 150.629021 111.926313 
L 151.374368 113.473578 
L 151.560705 113.434229 
L 151.933378 112.727232 
L 152.306052 112.095304 
L 152.492388 112.086567 
L 152.865062 112.580702 
L 153.237735 113.12474 
L 153.424072 113.163314 
L 153.796746 112.736856 
L 154.169419 112.447334 
L 154.355756 112.586643 
L 155.28744 114.081024 
L 155.473776 114.113139 
L 156.219123 113.75167 
L 156.40546 113.869463 
L 157.523481 115.402459 
L 158.082491 115.482164 
L 158.455164 115.977155 
L 159.014174 117.415399 
L 159.386848 118.335404 
L 159.759521 118.648673 
L 160.504868 118.526455 
L 160.877542 119.199486 
L 161.436552 120.399448 
L 161.809226 120.640246 
L 162.181899 120.61682 
L 162.554573 120.925858 
L 163.113583 121.675753 
L 163.486256 121.819474 
L 163.85893 121.556223 
L 164.41794 120.718707 
L 164.97695 120.000435 
L 166.094971 119.194682 
L 166.653981 118.618317 
L 167.026655 118.545802 
L 167.585665 118.670967 
L 167.772002 118.541879 
L 168.144675 117.891293 
L 169.076359 115.778541 
L 169.635369 114.659895 
L 170.380716 113.159799 
L 170.567053 113.049329 
L 170.939726 113.187191 
L 171.3124 113.340045 
L 171.498736 113.254394 
L 171.87141 112.557312 
L 173.734777 106.616688 
L 174.293788 104.337447 
L 174.480124 103.979314 
L 174.666461 103.879404 
L 175.039135 104.220858 
L 175.411808 104.57667 
L 175.598145 104.550306 
L 175.970818 104.090502 
L 176.902502 102.584514 
L 177.275176 101.976806 
L 177.834186 100.534546 
L 178.393196 98.995991 
L 178.765869 98.400323 
L 179.138543 98.138767 
L 179.88389 97.879225 
L 180.256563 97.43779 
L 181.188247 96.10113 
L 181.933594 95.404887 
L 182.306268 95.390889 
L 182.678941 95.750968 
L 183.237951 96.288581 
L 183.424288 96.258344 
L 183.796962 95.883246 
L 184.355972 95.285716 
L 185.101319 94.629342 
L 185.846666 93.673607 
L 186.033003 93.673829 
L 186.219339 93.842319 
L 186.592013 94.637315 
L 187.151023 95.891132 
L 187.710033 96.45164 
L 188.45538 96.99488 
L 188.828054 96.911298 
L 189.387064 96.265695 
L 189.946074 95.674257 
L 190.132411 95.67379 
L 190.505084 96.00902 
L 191.250431 97.002425 
L 191.623105 97.116213 
L 192.554789 97.065699 
L 193.113799 97.192643 
L 193.486472 96.975688 
L 193.859146 96.569012 
L 194.045483 96.51688 
L 194.231819 96.638022 
L 194.79083 97.670061 
L 195.163503 98.143175 
L 195.34984 98.124206 
L 195.722513 97.673744 
L 197.026871 95.518945 
L 197.958554 93.094003 
L 198.144891 92.957069 
L 198.331228 93.007436 
L 199.076575 93.680151 
L 199.262911 93.686307 
L 199.635585 93.32593 
L 200.194595 92.258214 
L 201.312616 89.633191 
L 202.244299 86.59572 
L 202.430636 86.506002 
L 202.616973 86.652282 
L 203.175983 87.455766 
L 203.36232 87.496198 
L 203.734993 87.110437 
L 205.039351 84.973496 
L 205.412024 83.841294 
L 206.157371 81.38773 
L 206.530045 81.064741 
L 207.275392 80.991648 
L 208.020738 80.674119 
L 208.579749 80.581013 
L 208.952422 80.144399 
L 209.325096 79.189068 
L 210.256779 75.848119 
L 210.629453 75.480659 
L 211.561137 75.520421 
L 211.93381 75.310464 
L 212.120147 75.347295 
L 212.49282 75.760638 
L 212.865494 76.152266 
L 213.051831 76.129585 
L 213.238167 75.890406 
L 214.169851 73.683403 
L 214.542525 73.554041 
L 214.915198 73.465487 
L 215.846882 72.733127 
L 216.033219 72.837837 
L 216.405892 73.426996 
L 216.778566 74.02812 
L 216.964902 74.141109 
L 217.151239 74.084339 
L 217.523913 73.504284 
L 218.082923 72.492929 
L 218.082923 72.492929 
" clip-path="url(#p5b3c58e1ea)" style="fill: none; stroke: #ced4da; stroke-width: 1.5; stroke-linecap: square"/>
   </g>
   <g id="line2d_6">
    <path d="M 31.746177 201.696635 
L 120.442468 201.485697 
L 130.690989 201.471561 
L 151.560705 201.3248 
L 156.40546 201.213754 
L 163.29992 200.991425 
L 169.076359 200.699195 
L 171.126063 200.70009 
L 173.362104 200.673177 
L 174.666461 200.659443 
L 175.970818 200.639399 
L 182.306268 200.441127 
L 183.796962 200.451624 
L 187.89637 200.175335 
L 198.144891 198.987348 
L 201.498952 198.836298 
L 202.989646 198.800031 
L 204.48034 198.684493 
L 209.325096 197.75685 
L 210.256779 197.428507 
L 213.238167 196.905305 
L 214.169851 196.703412 
L 216.592229 196.408514 
L 217.337576 196.051635 
L 218.082923 195.744382 
L 218.082923 195.744382 
" clip-path="url(#p5b3c58e1ea)" style="fill: none; stroke: #6c757d; stroke-width: 1.5; stroke-linecap: square"/>
   </g>
   <g id="matplotlib.axis_1">
    <g id="xtick_1">
     <g id="line2d_7">
      <defs>
       <path id="mfaef1322da" d="M 0 0 
L 0 3.5 
" style="stroke: #c2c1c1; stroke-width: 0.8"/>
      </defs>
      <g>
       <use xlink:href="#mfaef1322da" x="31.746177" y="201.696635" style="fill: #c2c1c1; stroke: #c2c1c1; stroke-width: 0.8"/>
      </g>
     </g>
     <g id="text_1">
      <!-- 0 -->
      <g style="fill: #191919" transform="translate(29.779068 213.946635) scale(0.07 -0.07)">
       <defs>
        <path id="Roboto-Regular-30" d="M 3234 1944 
Q 3234 825 2848 381 
Q 2463 -63 1800 -63 
Q 1156 -63 764 368 
Q 372 800 359 1872 
L 359 2638 
Q 359 3753 750 4183 
Q 1141 4613 1794 4613 
Q 2447 4613 2834 4195 
Q 3222 3778 3234 2709 
L 3234 1944 
z
M 2653 2734 
Q 2653 3503 2434 3822 
Q 2216 4141 1794 4141 
Q 1388 4141 1167 3831 
Q 947 3522 941 2778 
L 941 1850 
Q 941 1088 1164 750 
Q 1388 413 1800 413 
Q 2222 413 2436 745 
Q 2650 1078 2653 1825 
L 2653 2734 
z
" transform="scale(0.015625)"/>
       </defs>
       <use xlink:href="#Roboto-Regular-30"/>
      </g>
     </g>
    </g>
    <g id="xtick_2">
     <g id="line2d_8">
      <g>
       <use xlink:href="#mfaef1322da" x="69.013527" y="201.696635" style="fill: #c2c1c1; stroke: #c2c1c1; stroke-width: 0.8"/>
      </g>
     </g>
     <g id="text_2">
      <!-- 200 -->
      <g style="fill: #191919" transform="translate(63.112198 213.946635) scale(0.07 -0.07)">
       <defs>
        <path id="Roboto-Regular-32" d="M 3359 475 
L 3359 0 
L 381 0 
L 381 416 
L 1925 2134 
Q 2306 2566 2439 2819 
Q 2572 3072 2572 3328 
Q 2572 3663 2364 3900 
Q 2156 4138 1778 4138 
Q 1322 4138 1097 3878 
Q 872 3619 872 3213 
L 294 3213 
Q 294 3788 672 4200 
Q 1050 4613 1778 4613 
Q 2422 4613 2786 4278 
Q 3150 3944 3150 3397 
Q 3150 2997 2903 2592 
Q 2656 2188 2297 1797 
L 1078 475 
L 3359 475 
z
" transform="scale(0.015625)"/>
       </defs>
       <use xlink:href="#Roboto-Regular-32"/>
       <use xlink:href="#Roboto-Regular-30" x="56.201172"/>
       <use xlink:href="#Roboto-Regular-30" x="112.402344"/>
      </g>
     </g>
    </g>
    <g id="xtick_3">
     <g id="line2d_9">
      <g>
       <use xlink:href="#mfaef1322da" x="106.280876" y="201.696635" style="fill: #c2c1c1; stroke: #c2c1c1; stroke-width: 0.8"/>
      </g>
     </g>
     <g id="text_3">
      <!-- 400 -->
      <g style="fill: #191919" transform="translate(100.379547 213.946635) scale(0.07 -0.07)">
       <defs>
        <path id="Roboto-Regular-34" d="M 166 1397 
L 2203 4550 
L 2819 4550 
L 2819 1531 
L 3453 1531 
L 3453 1056 
L 2819 1056 
L 2819 0 
L 2241 0 
L 2241 1056 
L 166 1056 
L 166 1397 
z
M 822 1531 
L 2241 1531 
L 2241 3766 
L 2169 3638 
L 822 1531 
z
" transform="scale(0.015625)"/>
       </defs>
       <use xlink:href="#Roboto-Regular-34"/>
       <use xlink:href="#Roboto-Regular-30" x="56.201172"/>
       <use xlink:href="#Roboto-Regular-30" x="112.402344"/>
      </g>
     </g>
    </g>
    <g id="xtick_4">
     <g id="line2d_10">
      <g>
       <use xlink:href="#mfaef1322da" x="143.548225" y="201.696635" style="fill: #c2c1c1; stroke: #c2c1c1; stroke-width: 0.8"/>
      </g>
     </g>
     <g id="text_4">
      <!-- 600 -->
      <g style="fill: #191919" transform="translate(137.646897 213.946635) scale(0.07 -0.07)">
       <defs>
        <path id="Roboto-Regular-36" d="M 3291 1484 
Q 3291 838 2930 387 
Q 2569 -63 1878 -63 
Q 1388 -63 1063 198 
Q 738 459 577 861 
Q 416 1263 416 1684 
L 416 1956 
Q 416 2597 595 3194 
Q 775 3791 1247 4173 
Q 1719 4556 2597 4556 
L 2647 4556 
L 2647 4066 
Q 2041 4066 1705 3853 
Q 1369 3641 1205 3302 
Q 1041 2963 1006 2575 
Q 1369 2984 1984 2984 
Q 2438 2984 2727 2765 
Q 3016 2547 3153 2201 
Q 3291 1856 3291 1484 
z
M 997 1666 
Q 997 1059 1267 737 
Q 1538 416 1878 416 
Q 2278 416 2498 708 
Q 2719 1000 2719 1456 
Q 2719 1863 2516 2184 
Q 2313 2506 1891 2506 
Q 1588 2506 1341 2325 
Q 1094 2144 997 1884 
L 997 1666 
z
" transform="scale(0.015625)"/>
       </defs>
       <use xlink:href="#Roboto-Regular-36"/>
       <use xlink:href="#Roboto-Regular-30" x="56.201172"/>
       <use xlink:href="#Roboto-Regular-30" x="112.402344"/>
      </g>
     </g>
    </g>
    <g id="xtick_5">
     <g id="line2d_11">
      <g>
       <use xlink:href="#mfaef1322da" x="180.815574" y="201.696635" style="fill: #c2c1c1; stroke: #c2c1c1; stroke-width: 0.8"/>
      </g>
     </g>
     <g id="text_5">
      <!-- 800 -->
      <g style="fill: #191919" transform="translate(174.914246 213.946635) scale(0.07 -0.07)">
       <defs>
        <path id="Roboto-Regular-38" d="M 3244 1231 
Q 3244 606 2826 271 
Q 2409 -63 1796 -63 
Q 1184 -63 767 271 
Q 350 606 350 1231 
Q 350 1613 554 1905 
Q 759 2197 1109 2347 
Q 806 2494 629 2762 
Q 453 3031 453 3366 
Q 453 3963 833 4288 
Q 1213 4613 1794 4613 
Q 2378 4613 2758 4288 
Q 3138 3963 3138 3366 
Q 3138 3028 2956 2761 
Q 2775 2494 2472 2347 
Q 2825 2197 3034 1903 
Q 3244 1609 3244 1231 
z
M 2559 3356 
Q 2559 3697 2346 3917 
Q 2134 4138 1793 4138 
Q 1453 4138 1243 3927 
Q 1034 3716 1034 3356 
Q 1034 3003 1243 2790 
Q 1453 2578 1797 2578 
Q 2138 2578 2348 2790 
Q 2559 3003 2559 3356 
z
M 2663 1244 
Q 2663 1625 2420 1865 
Q 2178 2106 1791 2106 
Q 1394 2106 1161 1865 
Q 928 1625 928 1244 
Q 928 850 1161 631 
Q 1394 413 1797 413 
Q 2200 413 2431 631 
Q 2663 850 2663 1244 
z
" transform="scale(0.015625)"/>
       </defs>
       <use xlink:href="#Roboto-Regular-38"/>
       <use xlink:href="#Roboto-Regular-30" x="56.201172"/>
       <use xlink:href="#Roboto-Regular-30" x="112.402344"/>
      </g>
     </g>
    </g>
    <g id="xtick_6">
     <g id="line2d_12">
      <g>
       <use xlink:href="#mfaef1322da" x="218.082923" y="201.696635" style="fill: #c2c1c1; stroke: #c2c1c1; stroke-width: 0.8"/>
      </g>
     </g>
     <g id="text_6">
      <!-- 1000 -->
      <g style="fill: #191919" transform="translate(210.214485 213.946635) scale(0.07 -0.07)">
       <defs>
        <path id="Roboto-Regular-31" d="M 2278 4575 
L 2278 0 
L 1700 0 
L 1700 3853 
L 534 3428 
L 534 3950 
L 2188 4575 
L 2278 4575 
z
" transform="scale(0.015625)"/>
       </defs>
       <use xlink:href="#Roboto-Regular-31"/>
       <use xlink:href="#Roboto-Regular-30" x="56.201172"/>
       <use xlink:href="#Roboto-Regular-30" x="112.402344"/>
       <use xlink:href="#Roboto-Regular-30" x="168.603516"/>
      </g>
     </g>
    </g>
    <g id="text_7">
     <!-- Time (fs) -->
     <g style="fill: #191919" transform="translate(113.004219 225.64226) scale(0.08 -0.08)">
      <defs>
       <path id="Roboto-Black-54" d="M 116 3703 
L 116 4550 
L 3919 4550 
L 3919 3703 
L 2550 3703 
L 2550 0 
L 1453 0 
L 1453 3703 
L 116 3703 
z
" transform="scale(0.015625)"/>
       <path id="Roboto-Black-69" d="M 291 4253 
Q 291 4478 453 4622 
Q 616 4766 875 4766 
Q 1134 4766 1296 4622 
Q 1459 4478 1459 4253 
Q 1459 4028 1296 3884 
Q 1134 3741 875 3741 
Q 616 3741 453 3884 
Q 291 4028 291 4253 
z
M 1409 3381 
L 1409 0 
L 353 0 
L 353 3381 
L 1409 3381 
z
" transform="scale(0.015625)"/>
       <path id="Roboto-Black-6d" d="M 1819 2631 
Q 1522 2631 1359 2353 
L 1359 0 
L 306 0 
L 306 3381 
L 1294 3381 
L 1331 2984 
Q 1681 3444 2294 3444 
Q 2925 3444 3159 2934 
Q 3500 3444 4150 3444 
Q 4609 3444 4906 3156 
Q 5203 2869 5206 2144 
L 5206 0 
L 4150 0 
L 4150 2128 
Q 4150 2444 4042 2537 
Q 3934 2631 3747 2631 
Q 3431 2631 3278 2353 
L 3281 0 
L 2228 0 
L 2228 2122 
Q 2228 2444 2120 2537 
Q 2013 2631 1819 2631 
z
" transform="scale(0.015625)"/>
       <path id="Roboto-Black-65" d="M 3266 531 
Q 3109 309 2765 123 
Q 2422 -63 1934 -63 
Q 1109 -63 651 421 
Q 194 906 191 1569 
L 191 1697 
Q 191 2438 600 2941 
Q 1009 3444 1822 3444 
Q 2541 3444 2948 2997 
Q 3356 2550 3356 1788 
L 3356 1359 
L 1266 1359 
Q 1322 1078 1512 914 
Q 1703 750 2003 750 
Q 2506 750 2788 1100 
L 3266 531 
z
M 1813 2631 
Q 1544 2631 1422 2457 
Q 1300 2284 1266 2019 
L 2328 2019 
L 2328 2100 
Q 2334 2631 1813 2631 
z
" transform="scale(0.015625)"/>
       <path id="Roboto-Black-20" transform="scale(0.015625)"/>
       <path id="Roboto-Black-28" d="M 378 1850 
Q 378 2713 608 3369 
Q 838 4025 1194 4444 
Q 1550 4863 1938 5019 
L 2134 4500 
Q 1788 4247 1505 3622 
Q 1222 2997 1216 1909 
L 1216 1756 
Q 1216 634 1500 1 
Q 1784 -631 2134 -888 
L 1938 -1406 
Q 1550 -1250 1195 -833 
Q 841 -416 612 229 
Q 384 875 378 1716 
L 378 1850 
z
" transform="scale(0.015625)"/>
       <path id="Roboto-Black-66" d="M 2244 2650 
L 1588 2650 
L 1588 0 
L 528 0 
L 528 2650 
L 41 2650 
L 41 3381 
L 528 3381 
L 528 3666 
Q 531 4247 879 4555 
Q 1228 4863 1813 4866 
L 1825 4866 
Q 2053 4866 2322 4800 
L 2325 4025 
Q 2213 4053 2063 4053 
Q 1588 4053 1588 3656 
L 1588 3381 
L 2244 3381 
L 2244 2650 
z
" transform="scale(0.015625)"/>
       <path id="Roboto-Black-73" d="M 2069 950 
Q 2069 1084 1920 1167 
Q 1772 1250 1391 1334 
Q 897 1444 556 1689 
Q 216 1934 216 2375 
Q 216 2803 580 3123 
Q 944 3444 1609 3444 
Q 2291 3444 2689 3137 
Q 3088 2831 3088 2344 
L 2034 2344 
Q 2034 2750 1606 2750 
Q 1444 2750 1328 2662 
Q 1213 2575 1213 2428 
Q 1213 2166 1773 2059 
Q 2334 1953 2709 1728 
Q 3084 1503 3084 981 
Q 3084 534 2686 235 
Q 2288 -63 1606 -63 
Q 878 -63 495 306 
Q 113 675 113 1084 
L 1094 1084 
Q 1103 850 1251 742 
Q 1400 634 1634 634 
Q 2069 634 2069 950 
z
" transform="scale(0.015625)"/>
       <path id="Roboto-Black-29" d="M 1956 1763 
Q 1956 941 1717 283 
Q 1478 -375 1104 -812 
Q 731 -1250 328 -1406 
L 125 -888 
Q 469 -634 753 -9 
Q 1038 616 1044 1703 
L 1044 1856 
Q 1044 2978 759 3611 
Q 475 4244 125 4500 
L 328 5019 
Q 731 4863 1104 4425 
Q 1478 3988 1717 3330 
Q 1956 2672 1956 1850 
L 1956 1763 
z
" transform="scale(0.015625)"/>
      </defs>
      <use xlink:href="#Roboto-Black-54"/>
      <use xlink:href="#Roboto-Black-69" x="63.085938"/>
      <use xlink:href="#Roboto-Black-6d" x="90.576172"/>
      <use xlink:href="#Roboto-Black-65" x="176.708984"/>
      <use xlink:href="#Roboto-Black-20" x="231.201172"/>
      <use xlink:href="#Roboto-Black-28" x="256.103516"/>
      <use xlink:href="#Roboto-Black-66" x="291.40625"/>
      <use xlink:href="#Roboto-Black-73" x="327.685547"/>
      <use xlink:href="#Roboto-Black-29" x="378.955078"/>
     </g>
    </g>
   </g>
   <g id="matplotlib.axis_2">
    <g id="ytick_1">
     <g id="line2d_13">
      <defs>
       <path id="m5982c82e2d" d="M 0 0 
L -3.5 0 
" style="stroke: #c2c1c1; stroke-width: 0.8"/>
      </defs>
      <g>
       <use xlink:href="#m5982c82e2d" x="31.746177" y="201.696635" style="fill: #c2c1c1; stroke: #c2c1c1; stroke-width: 0.8"/>
      </g>
     </g>
     <g id="text_8">
      <!-- 0.0 -->
      <g style="fill: #191919" transform="translate(15.03149 204.321635) scale(0.07 -0.07)">
       <defs>
        <path id="Roboto-Regular-2e" d="M 450 306 
Q 450 453 542 554 
Q 634 656 809 656 
Q 984 656 1076 554 
Q 1169 453 1169 306 
Q 1169 163 1076 62 
Q 984 -38 809 -38 
Q 634 -38 542 62 
Q 450 163 450 306 
z
" transform="scale(0.015625)"/>
       </defs>
       <use xlink:href="#Roboto-Regular-30"/>
       <use xlink:href="#Roboto-Regular-2e" x="56.201172"/>
       <use xlink:href="#Roboto-Regular-30" x="82.568359"/>
      </g>
     </g>
    </g>
    <g id="ytick_2">
     <g id="line2d_14">
      <g>
       <use xlink:href="#m5982c82e2d" x="31.746177" y="161.285978" style="fill: #c2c1c1; stroke: #c2c1c1; stroke-width: 0.8"/>
      </g>
     </g>
     <g id="text_9">
      <!-- 0.5 -->
      <g style="fill: #191919" transform="translate(15.03149 163.910978) scale(0.07 -0.07)">
       <defs>
        <path id="Roboto-Regular-35" d="M 1109 2166 
L 647 2284 
L 875 4550 
L 3209 4550 
L 3209 4016 
L 1366 4016 
L 1228 2778 
Q 1572 2975 1988 2975 
Q 2616 2975 2980 2561 
Q 3344 2147 3344 1450 
Q 3344 797 2987 367 
Q 2631 -63 1903 -63 
Q 1350 -63 947 248 
Q 544 559 481 1197 
L 1031 1197 
Q 1141 413 1903 413 
Q 2313 413 2538 691 
Q 2763 969 2763 1444 
Q 2763 1872 2527 2164 
Q 2291 2456 1853 2456 
Q 1563 2456 1413 2378 
Q 1263 2300 1109 2166 
z
" transform="scale(0.015625)"/>
       </defs>
       <use xlink:href="#Roboto-Regular-30"/>
       <use xlink:href="#Roboto-Regular-2e" x="56.201172"/>
       <use xlink:href="#Roboto-Regular-35" x="82.568359"/>
      </g>
     </g>
    </g>
    <g id="ytick_3">
     <g id="line2d_15">
      <g>
       <use xlink:href="#m5982c82e2d" x="31.746177" y="120.875322" style="fill: #c2c1c1; stroke: #c2c1c1; stroke-width: 0.8"/>
      </g>
     </g>
     <g id="text_10">
      <!-- 1.0 -->
      <g style="fill: #191919" transform="translate(15.03149 123.500322) scale(0.07 -0.07)">
       <use xlink:href="#Roboto-Regular-31"/>
       <use xlink:href="#Roboto-Regular-2e" x="56.201172"/>
       <use xlink:href="#Roboto-Regular-30" x="82.568359"/>
      </g>
     </g>
    </g>
    <g id="ytick_4">
     <g id="line2d_16">
      <g>
       <use xlink:href="#m5982c82e2d" x="31.746177" y="80.464665" style="fill: #c2c1c1; stroke: #c2c1c1; stroke-width: 0.8"/>
      </g>
     </g>
     <g id="text_11">
      <!-- 1.5 -->
      <g style="fill: #191919" transform="translate(15.03149 83.089665) scale(0.07 -0.07)">
       <use xlink:href="#Roboto-Regular-31"/>
       <use xlink:href="#Roboto-Regular-2e" x="56.201172"/>
       <use xlink:href="#Roboto-Regular-35" x="82.568359"/>
      </g>
     </g>
    </g>
    <g id="ytick_5">
     <g id="line2d_17">
      <g>
       <use xlink:href="#m5982c82e2d" x="31.746177" y="40.054009" style="fill: #c2c1c1; stroke: #c2c1c1; stroke-width: 0.8"/>
      </g>
     </g>
     <g id="text_12">
      <!-- 2.0 -->
      <g style="fill: #191919" transform="translate(15.03149 42.679009) scale(0.07 -0.07)">
       <use xlink:href="#Roboto-Regular-32"/>
       <use xlink:href="#Roboto-Regular-2e" x="56.201172"/>
       <use xlink:href="#Roboto-Regular-30" x="82.568359"/>
      </g>
     </g>
    </g>
    <g id="text_13">
     <!-- RMSD (Ang.) -->
     <g style="fill: #191919" transform="translate(9.27399 125.869687) rotate(-90) scale(0.08 -0.08)">
      <defs>
       <path id="Roboto-Black-52" d="M 2838 0 
L 2034 1606 
L 1444 1606 
L 1444 0 
L 347 0 
L 347 4550 
L 2138 4550 
Q 2925 4550 3392 4198 
Q 3859 3847 3859 3175 
Q 3859 2650 3642 2350 
Q 3425 2050 3066 1881 
L 4013 47 
L 4013 0 
L 2838 0 
z
M 1444 3703 
L 1444 2453 
L 2138 2453 
Q 2763 2453 2763 3075 
Q 2763 3694 2156 3703 
L 1444 3703 
z
" transform="scale(0.015625)"/>
       <path id="Roboto-Black-4d" d="M 2800 1384 
L 3816 4550 
L 5256 4550 
L 5256 0 
L 4156 0 
L 4156 1063 
L 4263 3238 
L 3163 0 
L 2438 0 
L 1338 3238 
L 1444 1063 
L 1444 0 
L 347 0 
L 347 4550 
L 1784 4550 
L 2800 1384 
z
" transform="scale(0.015625)"/>
       <path id="Roboto-Black-53" d="M 2691 1209 
Q 2691 1425 2542 1565 
Q 2394 1706 1891 1873 
Q 1388 2041 1045 2239 
Q 703 2438 520 2700 
Q 338 2963 338 3334 
Q 338 3919 834 4266 
Q 1331 4613 2088 4613 
Q 2834 4613 3311 4228 
Q 3788 3844 3788 3200 
L 2697 3200 
Q 2697 3456 2539 3620 
Q 2381 3784 2063 3784 
Q 1750 3784 1590 3648 
Q 1431 3513 1431 3325 
Q 1431 3122 1653 2983 
Q 1875 2844 2266 2719 
Q 2991 2488 3389 2139 
Q 3788 1791 3788 1216 
Q 3788 600 3328 268 
Q 2869 -63 2106 -63 
Q 1638 -63 1200 96 
Q 763 256 481 597 
Q 200 938 200 1475 
L 1300 1475 
Q 1300 1075 1509 919 
Q 1719 763 2106 763 
Q 2419 763 2555 894 
Q 2691 1025 2691 1209 
z
" transform="scale(0.015625)"/>
       <path id="Roboto-Black-44" d="M 347 0 
L 347 4550 
L 1809 4550 
Q 2425 4550 2901 4273 
Q 3378 3997 3648 3505 
Q 3919 3013 3919 2369 
L 3919 2178 
Q 3919 1219 3333 611 
Q 2747 3 1831 0 
L 347 0 
z
M 1444 3703 
L 1444 844 
L 1825 844 
Q 2744 844 2797 2028 
L 2800 2375 
Q 2800 3675 1850 3703 
L 1444 3703 
z
" transform="scale(0.015625)"/>
       <path id="Roboto-Black-41" d="M -13 0 
L 1659 4550 
L 2694 4550 
L 4375 0 
L 3194 0 
L 2931 850 
L 1428 850 
L 1166 0 
L -13 0 
z
M 1691 1697 
L 2669 1697 
L 2178 3281 
L 1691 1697 
z
" transform="scale(0.015625)"/>
       <path id="Roboto-Black-6e" d="M 1788 2631 
Q 1478 2631 1331 2391 
L 1331 0 
L 278 0 
L 278 3381 
L 1266 3381 
L 1300 2988 
Q 1653 3444 2263 3444 
Q 2731 3444 3026 3156 
Q 3322 2869 3325 2144 
L 3325 0 
L 2266 0 
L 2266 2131 
Q 2266 2438 2141 2534 
Q 2016 2631 1788 2631 
z
" transform="scale(0.015625)"/>
       <path id="Roboto-Black-67" d="M 1659 -1331 
Q 1319 -1331 966 -1203 
Q 613 -1075 403 -825 
L 844 -206 
Q 1147 -553 1622 -553 
Q 2313 -553 2322 119 
L 2322 275 
Q 2025 -63 1553 -63 
Q 913 -63 544 425 
Q 175 913 175 1650 
L 175 1716 
Q 175 2488 545 2966 
Q 916 3444 1559 3444 
Q 2091 3444 2384 3091 
L 2422 3381 
L 3378 3381 
L 3378 131 
Q 3378 -572 2904 -951 
Q 2431 -1331 1659 -1331 
z
M 1228 1650 
Q 1228 1269 1375 1009 
Q 1522 750 1822 750 
Q 2166 750 2322 981 
L 2322 2400 
Q 2172 2631 1828 2631 
Q 1531 2631 1379 2372 
Q 1228 2113 1228 1650 
z
" transform="scale(0.015625)"/>
       <path id="Roboto-Black-2e" d="M 366 494 
Q 366 719 527 870 
Q 688 1022 947 1022 
Q 1206 1022 1367 870 
Q 1528 719 1528 494 
Q 1528 269 1367 117 
Q 1206 -34 947 -34 
Q 688 -34 527 117 
Q 366 269 366 494 
z
" transform="scale(0.015625)"/>
      </defs>
      <use xlink:href="#Roboto-Black-52"/>
      <use xlink:href="#Roboto-Black-4d" x="65.234375"/>
      <use xlink:href="#Roboto-Black-53" x="152.880859"/>
      <use xlink:href="#Roboto-Black-44" x="215.478516"/>
      <use xlink:href="#Roboto-Black-20" x="280.175781"/>
      <use xlink:href="#Roboto-Black-28" x="305.078125"/>
      <use xlink:href="#Roboto-Black-41" x="340.380859"/>
      <use xlink:href="#Roboto-Black-6e" x="408.496094"/>
      <use xlink:href="#Roboto-Black-67" x="464.941406"/>
      <use xlink:href="#Roboto-Black-2e" x="522.509766"/>
      <use xlink:href="#Roboto-Black-29" x="552.783203"/>
     </g>
    </g>
   </g>
   <g id="patch_3">
    <path d="M 31.746177 201.696635 
L 31.746177 3.00024 
" style="fill: none; stroke: #c2c1c1; stroke-width: 0.8; stroke-linejoin: miter; stroke-linecap: square"/>
   </g>
   <g id="patch_4">
    <path d="M 227.39976 201.696635 
L 227.39976 3.00024 
" style="fill: none; stroke: #c2c1c1; stroke-width: 0.8; stroke-linejoin: miter; stroke-linecap: square"/>
   </g>
   <g id="patch_5">
    <path d="M 31.746177 201.696635 
L 227.39976 201.696635 
" style="fill: none; stroke: #c2c1c1; stroke-width: 0.8; stroke-linejoin: miter; stroke-linecap: square"/>
   </g>
   <g id="patch_6">
    <path d="M 31.746177 3.00024 
L 227.39976 3.00024 
" style="fill: none; stroke: #c2c1c1; stroke-width: 0.8; stroke-linejoin: miter; stroke-linecap: square"/>
   </g>
   <g id="legend_1">
    <g id="line2d_18">
     <path d="M 38.946178 13.40024 
L 46.946178 13.40024 
L 54.946178 13.40024 
" style="fill: none; stroke: #6c757d; stroke-width: 1.5; stroke-linecap: square"/>
    </g>
    <g id="text_14">
     <!-- RI-MP2 -->
     <g transform="translate(61.346178 16.20024) scale(0.08 -0.08)">
      <defs>
       <path id="Roboto-Regular-52" d="M 3188 0 
L 2200 1844 
L 1131 1844 
L 1131 0 
L 528 0 
L 528 4550 
L 2034 4550 
Q 2800 4550 3214 4200 
Q 3628 3850 3628 3184 
Q 3628 2759 3398 2442 
Q 3169 2125 2763 1969 
L 3831 38 
L 3831 0 
L 3188 0 
z
M 1131 4056 
L 1131 2334 
L 2053 2334 
Q 2538 2334 2783 2582 
Q 3028 2831 3028 3184 
Q 3028 3578 2792 3817 
Q 2556 4056 2034 4056 
L 1131 4056 
z
" transform="scale(0.015625)"/>
       <path id="Roboto-Regular-49" d="M 1175 4550 
L 1175 0 
L 572 0 
L 572 4550 
L 1175 4550 
z
" transform="scale(0.015625)"/>
       <path id="Roboto-Regular-2d" d="M 1644 2172 
L 1644 1697 
L 119 1697 
L 119 2172 
L 1644 2172 
z
" transform="scale(0.015625)"/>
       <path id="Roboto-Regular-4d" d="M 2794 841 
L 4281 4550 
L 5056 4550 
L 5056 0 
L 4456 0 
L 4456 1775 
L 4516 3678 
L 3019 0 
L 2563 0 
L 1069 3684 
L 1128 1775 
L 1128 0 
L 528 0 
L 528 4550 
L 1303 4550 
L 2794 841 
z
" transform="scale(0.015625)"/>
       <path id="Roboto-Regular-50" d="M 1131 1784 
L 1131 0 
L 528 0 
L 528 4550 
L 2206 4550 
Q 2981 4550 3392 4159 
Q 3803 3769 3803 3163 
Q 3803 2503 3392 2143 
Q 2981 1784 2206 1784 
L 1131 1784 
z
M 1131 4056 
L 1131 2275 
L 2206 2275 
Q 2738 2275 2969 2522 
Q 3200 2769 3200 3156 
Q 3200 3506 2969 3781 
Q 2738 4056 2206 4056 
L 1131 4056 
z
" transform="scale(0.015625)"/>
      </defs>
      <use xlink:href="#Roboto-Regular-52"/>
      <use xlink:href="#Roboto-Regular-49" x="61.621094"/>
      <use xlink:href="#Roboto-Regular-2d" x="88.818359"/>
      <use xlink:href="#Roboto-Regular-4d" x="116.455078"/>
      <use xlink:href="#Roboto-Regular-50" x="203.759766"/>
      <use xlink:href="#Roboto-Regular-32" x="266.845703"/>
     </g>
    </g>
    <g id="line2d_19">
     <path d="M 38.946178 25.02524 
L 46.946178 25.02524 
L 54.946178 25.02524 
" style="fill: none; stroke: #ced4da; stroke-width: 1.5; stroke-linecap: square"/>
    </g>
    <g id="text_15">
     <!-- def2-SVP -->
     <g transform="translate(61.346178 27.82524) scale(0.08 -0.08)">
      <defs>
       <path id="Roboto-Regular-64" d="M 2622 0 
L 2594 363 
Q 2247 -63 1628 -63 
Q 1034 -63 668 418 
Q 303 900 297 1628 
L 297 1719 
Q 297 2494 664 2969 
Q 1031 3444 1634 3444 
Q 2231 3444 2572 3044 
L 2572 4800 
L 3153 4800 
L 3153 0 
L 2622 0 
z
M 878 1653 
Q 878 1150 1090 789 
Q 1303 428 1772 428 
Q 2309 428 2572 919 
L 2572 2475 
Q 2313 2956 1778 2956 
Q 1306 2956 1092 2589 
Q 878 2222 878 1719 
L 878 1653 
z
" transform="scale(0.015625)"/>
       <path id="Roboto-Regular-65" d="M 3116 591 
Q 2950 341 2647 139 
Q 2344 -63 1844 -63 
Q 1138 -63 714 396 
Q 291 856 291 1572 
L 291 1703 
Q 291 2256 502 2645 
Q 713 3034 1050 3239 
Q 1388 3444 1769 3444 
Q 2494 3444 2826 2970 
Q 3159 2497 3159 1788 
L 3159 1528 
L 872 1528 
Q 884 1063 1148 736 
Q 1413 409 1875 409 
Q 2181 409 2393 534 
Q 2606 659 2766 869 
L 3116 591 
z
M 1769 2969 
Q 1425 2969 1187 2719 
Q 950 2469 891 2000 
L 2581 2000 
L 2581 2044 
Q 2559 2381 2386 2675 
Q 2213 2969 1769 2969 
z
" transform="scale(0.015625)"/>
       <path id="Roboto-Regular-66" d="M 2022 2938 
L 1303 2938 
L 1303 0 
L 725 0 
L 725 2938 
L 191 2938 
L 191 3381 
L 725 3381 
L 725 3759 
Q 731 4297 1026 4581 
Q 1322 4866 1834 4866 
Q 2025 4866 2234 4816 
L 2203 4344 
Q 2072 4372 1891 4372 
Q 1313 4372 1303 3756 
L 1303 3381 
L 2022 3381 
L 2022 2938 
z
" transform="scale(0.015625)"/>
       <path id="Roboto-Regular-53" d="M 2953 1150 
Q 2953 1463 2742 1650 
Q 2531 1838 1856 2036 
Q 1181 2234 789 2542 
Q 397 2850 397 3375 
Q 397 3906 820 4259 
Q 1244 4613 1944 4613 
Q 2713 4613 3130 4191 
Q 3547 3769 3547 3238 
L 2947 3238 
Q 2947 3619 2700 3869 
Q 2453 4119 1944 4119 
Q 1463 4119 1231 3908 
Q 1000 3697 1000 3381 
Q 1000 3097 1245 2908 
Q 1491 2719 2044 2563 
Q 2834 2341 3196 2014 
Q 3559 1688 3559 1156 
Q 3559 600 3125 268 
Q 2691 -63 1972 -63 
Q 1553 -63 1158 93 
Q 763 250 508 558 
Q 253 866 253 1319 
L 853 1319 
Q 853 853 1193 640 
Q 1534 428 1972 428 
Q 2444 428 2698 623 
Q 2953 819 2953 1150 
z
" transform="scale(0.015625)"/>
       <path id="Roboto-Regular-56" d="M 3991 4550 
L 2306 0 
L 1772 0 
L 91 4550 
L 744 4550 
L 2034 800 
L 3338 4550 
L 3991 4550 
z
" transform="scale(0.015625)"/>
      </defs>
      <use xlink:href="#Roboto-Regular-64"/>
      <use xlink:href="#Roboto-Regular-65" x="56.396484"/>
      <use xlink:href="#Roboto-Regular-66" x="109.423828"/>
      <use xlink:href="#Roboto-Regular-32" x="144.189453"/>
      <use xlink:href="#Roboto-Regular-2d" x="200.390625"/>
      <use xlink:href="#Roboto-Regular-53" x="228.027344"/>
      <use xlink:href="#Roboto-Regular-56" x="287.402344"/>
      <use xlink:href="#Roboto-Regular-50" x="351.074219"/>
     </g>
    </g>
    <g id="line2d_20">
     <path d="M 38.946178 36.65024 
L 46.946178 36.65024 
L 54.946178 36.65024 
" style="fill: none; stroke: #590d22; stroke-width: 1.5; stroke-linecap: square"/>
    </g>
    <g id="text_16">
     <!-- mbGDML -->
     <g transform="translate(61.346178 39.45024) scale(0.08 -0.08)">
      <defs>
       <path id="Roboto-Regular-6d" d="M 1794 2956 
Q 1225 2956 1016 2478 
L 1016 0 
L 434 0 
L 434 3381 
L 984 3381 
L 1000 3013 
Q 1366 3444 2000 3444 
Q 2325 3444 2579 3314 
Q 2834 3184 2969 2900 
Q 3138 3144 3408 3294 
Q 3678 3444 4044 3444 
Q 4588 3444 4883 3153 
Q 5178 2863 5178 2222 
L 5178 0 
L 4597 0 
L 4597 2228 
Q 4597 2653 4401 2804 
Q 4206 2956 3875 2956 
Q 3525 2956 3325 2748 
Q 3125 2541 3094 2244 
L 3094 0 
L 2516 0 
L 2516 2225 
Q 2516 2622 2319 2789 
Q 2122 2956 1794 2956 
z
" transform="scale(0.015625)"/>
       <path id="Roboto-Regular-62" d="M 3303 1653 
Q 3303 913 2959 425 
Q 2616 -63 1988 -63 
Q 1347 -63 1000 391 
L 969 0 
L 438 0 
L 438 4800 
L 1019 4800 
L 1019 3016 
Q 1363 3444 1981 3444 
Q 2619 3444 2961 2969 
Q 3303 2494 3303 1719 
L 3303 1653 
z
M 1838 2956 
Q 1522 2956 1325 2804 
Q 1128 2653 1019 2431 
L 1019 959 
Q 1131 734 1331 581 
Q 1531 428 1844 428 
Q 2313 428 2517 789 
Q 2722 1150 2722 1653 
L 2722 1719 
Q 2722 2222 2526 2589 
Q 2331 2956 1838 2956 
z
" transform="scale(0.015625)"/>
       <path id="Roboto-Regular-47" d="M 3891 2266 
L 3891 600 
Q 3763 413 3403 175 
Q 3044 -63 2281 -63 
Q 1450 -63 915 507 
Q 381 1078 381 2100 
L 381 2453 
Q 381 3469 856 4041 
Q 1331 4613 2213 4613 
Q 2994 4613 3398 4219 
Q 3803 3825 3891 3219 
L 3288 3219 
Q 3225 3588 2979 3853 
Q 2734 4119 2213 4119 
Q 1584 4119 1287 3676 
Q 991 3234 988 2475 
L 988 2100 
Q 988 1313 1344 870 
Q 1700 428 2284 428 
Q 2769 428 2984 542 
Q 3200 656 3291 759 
L 3291 1778 
L 2238 1778 
L 2238 2266 
L 3891 2266 
z
" transform="scale(0.015625)"/>
       <path id="Roboto-Regular-44" d="M 528 0 
L 528 4550 
L 1816 4550 
Q 2713 4550 3267 3973 
Q 3822 3397 3822 2409 
L 3822 2138 
Q 3822 1150 3264 575 
Q 2706 0 1759 0 
L 528 0 
z
M 1131 4056 
L 1131 491 
L 1759 491 
Q 2488 491 2856 941 
Q 3225 1391 3225 2138 
L 3225 2416 
Q 3225 3200 2856 3628 
Q 2488 4056 1816 4056 
L 1131 4056 
z
" transform="scale(0.015625)"/>
       <path id="Roboto-Regular-4c" d="M 3288 491 
L 3288 0 
L 528 0 
L 528 4550 
L 1131 4550 
L 1131 491 
L 3288 491 
z
" transform="scale(0.015625)"/>
      </defs>
      <use xlink:href="#Roboto-Regular-6d"/>
      <use xlink:href="#Roboto-Regular-62" x="87.695312"/>
      <use xlink:href="#Roboto-Regular-47" x="143.847656"/>
      <use xlink:href="#Roboto-Regular-44" x="211.962891"/>
      <use xlink:href="#Roboto-Regular-4d" x="277.587891"/>
      <use xlink:href="#Roboto-Regular-4c" x="364.892578"/>
     </g>
    </g>
    <g id="line2d_21">
     <path d="M 38.946178 48.27524 
L 46.946178 48.27524 
L 54.946178 48.27524 
" style="fill: none; stroke: #a4133c; stroke-width: 1.5; stroke-linecap: square"/>
    </g>
    <g id="text_17">
     <!-- mbGAP -->
     <g transform="translate(61.346178 51.07524) scale(0.08 -0.08)">
      <defs>
       <path id="Roboto-Regular-41" d="M 91 0 
L 1825 4550 
L 2353 4550 
L 4094 0 
L 3475 0 
L 3041 1191 
L 1138 1191 
L 706 0 
L 91 0 
z
M 1319 1684 
L 2863 1684 
L 2091 3806 
L 1319 1684 
z
" transform="scale(0.015625)"/>
      </defs>
      <use xlink:href="#Roboto-Regular-6d"/>
      <use xlink:href="#Roboto-Regular-62" x="87.695312"/>
      <use xlink:href="#Roboto-Regular-47" x="143.847656"/>
      <use xlink:href="#Roboto-Regular-41" x="211.962891"/>
      <use xlink:href="#Roboto-Regular-50" x="277.197266"/>
     </g>
    </g>
    <g id="line2d_22">
     <path d="M 38.946178 59.90024 
L 46.946178 59.90024 
L 54.946178 59.90024 
" style="fill: none; stroke: #ff8fa3; stroke-width: 1.5; stroke-linecap: square"/>
    </g>
    <g id="text_18">
     <!-- mbSchNet -->
     <g transform="translate(61.346178 62.70024) scale(0.08 -0.08)">
      <defs>
       <path id="Roboto-Regular-63" d="M 1794 413 
Q 2103 413 2336 597 
Q 2569 781 2591 1069 
L 3141 1069 
Q 3119 616 2725 276 
Q 2331 -63 1794 -63 
Q 1031 -63 661 440 
Q 291 944 291 1625 
L 291 1756 
Q 291 2438 661 2941 
Q 1031 3444 1794 3444 
Q 2388 3444 2753 3092 
Q 3119 2741 3141 2219 
L 2591 2219 
Q 2569 2531 2355 2750 
Q 2141 2969 1794 2969 
Q 1438 2969 1236 2787 
Q 1034 2606 951 2328 
Q 869 2050 869 1756 
L 869 1625 
Q 869 1328 950 1050 
Q 1031 772 1232 592 
Q 1434 413 1794 413 
z
" transform="scale(0.015625)"/>
       <path id="Roboto-Regular-68" d="M 1844 2956 
Q 1566 2956 1353 2806 
Q 1141 2656 1019 2416 
L 1019 0 
L 441 0 
L 441 4800 
L 1019 4800 
L 1019 2978 
Q 1403 3444 2016 3444 
Q 2513 3444 2805 3166 
Q 3097 2888 3100 2231 
L 3100 0 
L 2519 0 
L 2519 2222 
Q 2519 2619 2345 2787 
Q 2172 2956 1844 2956 
z
" transform="scale(0.015625)"/>
       <path id="Roboto-Regular-4e" d="M 4028 4550 
L 4028 0 
L 3422 0 
L 1131 3509 
L 1131 0 
L 528 0 
L 528 4550 
L 1131 4550 
L 3431 1031 
L 3431 4550 
L 4028 4550 
z
" transform="scale(0.015625)"/>
       <path id="Roboto-Regular-74" d="M 1872 0 
Q 1675 -63 1425 -63 
Q 1103 -63 875 134 
Q 647 331 647 841 
L 647 2938 
L 28 2938 
L 28 3381 
L 647 3381 
L 647 4203 
L 1225 4203 
L 1225 3381 
L 1856 3381 
L 1856 2938 
L 1225 2938 
L 1225 838 
Q 1225 578 1337 506 
Q 1450 434 1597 434 
Q 1706 434 1869 472 
L 1872 0 
z
" transform="scale(0.015625)"/>
      </defs>
      <use xlink:href="#Roboto-Regular-6d"/>
      <use xlink:href="#Roboto-Regular-62" x="87.695312"/>
      <use xlink:href="#Roboto-Regular-53" x="143.847656"/>
      <use xlink:href="#Roboto-Regular-63" x="203.222656"/>
      <use xlink:href="#Roboto-Regular-68" x="255.566406"/>
      <use xlink:href="#Roboto-Regular-4e" x="310.644531"/>
      <use xlink:href="#Roboto-Regular-65" x="381.982422"/>
      <use xlink:href="#Roboto-Regular-74" x="435.009766"/>
     </g>
    </g>
    <g id="line2d_23">
     <path d="M 38.946178 71.52524 
L 46.946178 71.52524 
L 54.946178 71.52524 
" style="fill: none; stroke: #ffe7be; stroke-width: 1.5; stroke-linecap: square"/>
    </g>
    <g id="text_19">
     <!-- GFN2-xTB -->
     <g transform="translate(61.346178 74.32524) scale(0.08 -0.08)">
      <defs>
       <path id="Roboto-Regular-46" d="M 528 0 
L 528 4550 
L 3347 4550 
L 3347 4056 
L 1131 4056 
L 1131 2503 
L 3038 2503 
L 3038 2009 
L 1131 2009 
L 1131 0 
L 528 0 
z
" transform="scale(0.015625)"/>
       <path id="Roboto-Regular-78" d="M 831 3381 
L 1572 2150 
L 2322 3381 
L 3000 3381 
L 1894 1713 
L 3034 0 
L 2366 0 
L 1584 1269 
L 803 0 
L 131 0 
L 1269 1713 
L 166 3381 
L 831 3381 
z
" transform="scale(0.015625)"/>
       <path id="Roboto-Regular-54" d="M 156 4056 
L 156 4550 
L 3672 4550 
L 3672 4056 
L 2209 4056 
L 2209 0 
L 1616 0 
L 1616 4056 
L 156 4056 
z
" transform="scale(0.015625)"/>
       <path id="Roboto-Regular-42" d="M 3625 1313 
Q 3625 675 3214 337 
Q 2803 0 2122 0 
L 528 0 
L 528 4550 
L 2019 4550 
Q 2719 4550 3111 4261 
Q 3503 3972 3503 3338 
Q 3503 3022 3323 2776 
Q 3144 2531 2831 2397 
Q 3216 2291 3420 1994 
Q 3625 1697 3625 1313 
z
M 1131 4056 
L 1131 2613 
L 2038 2613 
Q 2425 2613 2662 2806 
Q 2900 3000 2900 3344 
Q 2900 4041 2056 4056 
L 1131 4056 
z
M 3025 1306 
Q 3025 1688 2817 1908 
Q 2609 2128 2150 2128 
L 1131 2128 
L 1131 491 
L 2122 491 
Q 2550 491 2787 711 
Q 3025 931 3025 1306 
z
" transform="scale(0.015625)"/>
      </defs>
      <use xlink:href="#Roboto-Regular-47"/>
      <use xlink:href="#Roboto-Regular-46" x="68.115234"/>
      <use xlink:href="#Roboto-Regular-4e" x="123.388672"/>
      <use xlink:href="#Roboto-Regular-32" x="194.726562"/>
      <use xlink:href="#Roboto-Regular-2d" x="250.927734"/>
      <use xlink:href="#Roboto-Regular-78" x="278.564453"/>
      <use xlink:href="#Roboto-Regular-54" x="328.173828"/>
      <use xlink:href="#Roboto-Regular-42" x="387.841797"/>
     </g>
    </g>
   </g>
  </g>
 </g>
 <defs>
  <clipPath id="p5b3c58e1ea">
   <rect x="31.746177" y="3.00024" width="195.653582" height="198.696395"/>
  </clipPath>
 </defs>
</svg>
