<?xml version="1.0" encoding="utf-8" standalone="no"?>
<!DOCTYPE svg PUBLIC "-//W3C//DTD SVG 1.1//EN"
  "http://www.w3.org/Graphics/SVG/1.1/DTD/svg11.dtd">
<svg xmlns:xlink="http://www.w3.org/1999/xlink" width="230.4pt" height="230.4pt" viewBox="0 0 230.4 230.4" xmlns="http://www.w3.org/2000/svg" version="1.1">
 <metadata>
  <rdf:RDF xmlns:dc="http://purl.org/dc/elements/1.1/" xmlns:cc="http://creativecommons.org/ns#" xmlns:rdf="http://www.w3.org/1999/02/22-rdf-syntax-ns#">
   <cc:Work>
    <dc:type rdf:resource="http://purl.org/dc/dcmitype/StillImage"/>
    <dc:date>2022-12-23T09:43:37.371290</dc:date>
    <dc:format>image/svg+xml</dc:format>
    <dc:creator>
     <cc:Agent>
      <dc:title>Matplotlib v3.5.2, https://matplotlib.org/</dc:title>
     </cc:Agent>
    </dc:creator>
   </cc:Work>
  </rdf:RDF>
 </metadata>
 <defs>
  <style type="text/css">*{stroke-linejoin: round; stroke-linecap: butt}</style>
 </defs>
 <g id="figure_1">
  <g id="patch_1">
   <path d="M 0 230.4 
L 230.4 230.4 
L 230.4 0 
L 0 0 
z
" style="fill: #ffffff"/>
  </g>
  <g id="axes_1">
   <g id="patch_2">
    <path d="M 31.794928 201.167885 
L 225.432651 201.167885 
L 225.432651 3.00024 
L 31.794928 3.00024 
z
" style="fill: #ffffff"/>
   </g>
   <g id="line2d_1">
    <path d="M 31.794928 201.167885 
L 70.157865 201.167885 
L 73.962451 200.285937 
L 76.340326 199.404029 
L 78.71819 197.640174 
L 81.096055 189.702884 
L 82.76057 181.765595 
L 83.949496 172.06447 
L 85.138434 163.245253 
L 86.327372 152.662201 
L 87.040732 143.843004 
L 87.754092 135.023786 
L 88.705236 126.204569 
L 89.418596 116.503444 
L 90.131957 107.684227 
L 90.845317 99.746938 
L 91.796461 90.927741 
L 92.747615 81.226596 
L 93.698759 72.407399 
L 94.887696 63.588182 
L 95.838851 53.887057 
L 97.741138 45.949767 
L 99.405653 39.776313 
L 101.783506 41.540149 
L 104.161382 48.595531 
L 105.588103 56.53282 
L 107.252617 65.352017 
L 108.917111 74.171234 
L 110.343831 81.226596 
L 112.24614 86.518122 
L 114.623994 90.045813 
L 116.764075 90.045813 
L 119.379744 86.518122 
L 121.282031 82.990451 
L 123.422113 77.698925 
L 125.799988 72.407399 
L 127.940069 67.115872 
L 130.08015 61.824346 
L 132.695798 58.296655 
L 134.360313 54.768964 
L 137.213754 55.650892 
L 140.067196 58.296655 
L 142.682844 61.824346 
L 145.060719 66.233945 
L 147.914161 69.761636 
L 150.529808 72.407399 
L 153.38325 72.407399 
L 156.712258 71.525471 
L 160.27906 71.525471 
L 163.370295 71.525471 
L 166.461531 71.525471 
L 168.363818 72.407399 
L 171.455054 72.407399 
L 173.832907 73.289306 
L 176.448577 74.171234 
L 179.064224 74.171234 
L 181.4421 75.053162 
L 184.057747 75.053162 
L 186.673395 75.053162 
L 188.813476 74.171234 
L 191.191351 73.289306 
L 193.806999 73.289306 
L 196.184874 72.407399 
L 198.800522 72.407399 
L 201.891757 72.407399 
L 204.745199 72.407399 
L 207.59864 72.407399 
L 210.214288 72.407399 
L 213.543318 72.407399 
L 216.396759 73.289306 
L 219.012407 73.289306 
L 221.390282 73.289306 
L 225.908217 73.289306 
" clip-path="url(#p0db1923393)" style="fill: none; stroke: #f0ebf5; stroke-width: 2; stroke-linecap: square"/>
   </g>
   <g id="line2d_2">
    <path d="M 31.794928 201.167885 
L 71.584586 201.167885 
L 75.626966 200.285977 
L 78.00483 197.640214 
L 79.907128 192.348688 
L 81.571632 185.293306 
L 82.284992 177.356017 
L 83.47393 169.418727 
L 84.18729 160.59953 
L 85.138434 151.780293 
L 85.614011 142.961096 
L 86.565155 133.259951 
L 87.516298 123.558846 
L 88.229659 113.857701 
L 88.705236 104.156556 
L 89.65638 95.337359 
L 90.36974 84.754307 
L 91.320894 74.171254 
L 92.034255 64.470109 
L 93.223182 55.650912 
L 94.41213 47.713623 
L 95.838851 40.658241 
L 98.216704 38.894406 
L 100.356786 45.949767 
L 101.783506 52.123221 
L 103.448021 62.706274 
L 104.636948 70.643584 
L 105.825897 78.580873 
L 107.49039 88.281978 
L 109.154905 96.219267 
L 111.294986 101.510793 
L 112.483913 103.274649 
L 114.623994 102.392741 
L 116.764075 99.746978 
L 118.904156 95.337359 
L 121.044237 89.163926 
L 122.946546 82.108544 
L 125.086628 75.053162 
L 126.988915 68.879728 
L 128.891202 62.706274 
L 131.031283 56.53282 
L 133.409158 52.123221 
L 135.787034 51.241294 
L 138.640475 53.005149 
L 141.018329 56.53282 
L 143.396204 60.060511 
L 145.774079 64.470109 
L 148.389727 67.115872 
L 151.005374 67.99782 
L 153.858816 68.879728 
L 156.950052 68.879728 
L 159.803493 69.761636 
L 162.419141 70.643584 
L 165.272583 71.525491 
L 168.363818 72.407399 
L 171.692826 74.171254 
L 174.070701 75.93511 
L 176.924143 75.93511 
L 179.777585 76.817017 
L 183.106593 75.93511 
L 185.960034 75.93511 
L 188.813476 75.053162 
L 191.904712 74.171254 
L 194.995947 73.289347 
L 198.562749 72.407399 
L 203.080684 72.407399 
L 206.17192 72.407399 
L 209.738722 71.525491 
L 212.829957 72.407399 
L 216.158965 72.407399 
L 219.963561 72.407399 
L 223.292569 72.407399 
L 225.670445 71.525491 
" clip-path="url(#p0db1923393)" style="fill: none; stroke: #e2d7ea; stroke-width: 2; stroke-linecap: square"/>
   </g>
   <g id="line2d_3">
    <path d="M 31.794928 201.167885 
L 73.962451 201.167885 
L 77.529253 200.285977 
L 80.382694 197.640214 
L 82.76057 191.46678 
L 84.425074 183.529491 
L 85.614011 173.828346 
L 86.802938 165.009149 
L 87.516298 156.189912 
L 87.991876 146.488807 
L 88.467453 136.787662 
L 89.180813 127.968465 
L 89.65638 118.26732 
L 90.131957 107.684268 
L 90.607534 97.983123 
L 91.0831 88.282018 
L 91.558678 78.580873 
L 92.034255 68.879728 
L 92.509821 60.060531 
L 92.985398 50.359386 
L 93.460976 40.658281 
L 94.41213 30.957136 
L 95.363263 21.255992 
L 96.076623 12.436795 
L 97.978932 12.436795 
L 99.167859 19.492176 
L 100.356786 29.193281 
L 101.30794 38.012518 
L 102.259095 46.831715 
L 102.972455 56.53286 
L 104.161382 64.47015 
L 105.112536 74.171254 
L 106.301463 82.990492 
L 107.728184 90.045833 
L 109.392699 97.101215 
L 111.294986 100.628886 
L 113.910633 101.510834 
L 116.288509 98.865071 
L 118.42859 93.573544 
L 120.568671 87.40007 
L 122.470958 82.108544 
L 124.135473 75.93511 
L 126.03776 70.643584 
L 127.702275 64.47015 
L 129.604562 58.296675 
L 131.982438 53.887097 
L 134.122519 53.005149 
L 136.2626 55.650912 
L 138.640475 60.060531 
L 141.256123 64.47015 
L 144.109564 68.879728 
L 147.438572 69.761676 
L 150.529808 68.879728 
L 153.621044 68.879728 
L 155.761125 67.99782 
L 159.803493 67.99782 
L 162.419141 69.761676 
L 165.748171 70.643584 
L 168.601612 72.407439 
L 170.979466 73.289347 
L 174.070701 75.053202 
L 176.924143 75.93511 
L 179.539791 75.93511 
L 182.393232 75.93511 
L 185.960034 75.93511 
L 188.813476 75.053202 
L 191.904712 73.289347 
L 195.471514 74.171254 
L 199.038316 74.171254 
L 204.269633 74.171254 
L 209.025361 74.171254 
L 213.543318 74.171254 
L 218.536841 74.171254 
L 221.865849 72.407439 
L 226.859371 73.289347 
" clip-path="url(#p0db1923393)" style="fill: none; stroke: #c5b0d4; stroke-width: 2; stroke-linecap: square"/>
   </g>
   <g id="line2d_4">
    <path d="M 31.794928 70.643584 
L 225.432651 70.643584 
" clip-path="url(#p0db1923393)" style="fill: none; stroke-dasharray: 1.5,6; stroke-dashoffset: 0; stroke: #c0c0c0; stroke-width: 1.5"/>
   </g>
   <g id="line2d_5">
    <path d="M 33.178054 201.167885 
L 35.944307 201.167885 
L 38.71056 201.167885 
L 41.476814 201.167885 
L 44.243067 201.167885 
L 47.00932 201.167885 
L 49.775573 201.167885 
L 52.541826 201.167885 
L 55.30808 201.167885 
L 58.074333 201.167885 
L 60.840586 201.167885 
L 63.606839 201.167885 
L 66.373092 201.167885 
L 69.139346 201.167885 
L 71.905599 201.167885 
L 74.671852 201.132896 
L 77.438105 200.798129 
L 80.204358 198.249236 
L 82.970611 188.962246 
L 85.736865 164.784157 
L 88.503118 122.95884 
L 91.269371 72.108401 
L 94.035624 34.120545 
L 96.801877 20.054542 
L 99.568131 27.784142 
L 102.334384 50.999319 
L 105.100637 77.219588 
L 107.86689 94.662253 
L 110.633143 103.903711 
L 113.399397 105.971784 
L 116.16565 103.521867 
L 118.931903 98.399865 
L 121.698156 89.354067 
L 124.464409 79.823251 
L 127.230662 68.738021 
L 129.996916 56.277484 
L 132.763169 45.75506 
L 135.529422 40.143963 
L 138.295675 40.963882 
L 141.061928 46.198556 
L 143.828182 53.625777 
L 146.594435 59.576983 
L 149.360688 64.243778 
L 152.126941 67.50379 
L 154.893194 69.736255 
L 157.659448 70.398405 
L 160.425701 72.034302 
L 163.191954 72.849287 
L 165.958207 74.10559 
L 168.72446 75.437947 
L 171.490713 75.703768 
L 174.256967 76.158085 
L 177.02322 76.692722 
L 179.789473 76.043956 
L 182.555726 75.354198 
L 185.321979 74.220987 
L 188.088233 73.17901 
L 190.854486 72.533519 
L 193.620739 71.73612 
L 196.386992 70.736294 
L 199.153245 69.416269 
L 201.919499 69.395212 
L 204.685752 68.572634 
L 207.452005 68.827033 
L 210.218258 68.997029 
L 212.984511 68.90487 
L 215.750764 68.816807 
L 218.517018 68.970952 
L 221.283271 69.37875 
L 224.049524 69.065714 
" clip-path="url(#p0db1923393)" style="fill: none; stroke: #4abbf3; stroke-width: 2; stroke-linecap: square"/>
   </g>
   <g id="line2d_6">
    <path d="M 31.794928 201.167885 
L 70.799097 201.076518 
L 72.458849 200.959046 
L 73.288725 200.802417 
L 74.118601 200.489159 
L 74.948477 199.823485 
L 75.778353 198.622661 
L 76.608229 196.756164 
L 77.438105 194.21094 
L 78.267981 191.000042 
L 79.097857 187.240942 
L 79.927733 182.894483 
L 80.757609 177.947612 
L 82.417361 165.965481 
L 84.077113 151.477283 
L 86.566741 126.769033 
L 93.205748 58.661453 
L 94.8655 43.76863 
L 95.695376 37.542621 
L 96.525252 32.426068 
L 97.355128 28.78444 
L 98.185004 26.656894 
L 99.01488 26.461108 
L 99.844756 28.170976 
L 100.674632 31.603765 
L 101.504508 36.759475 
L 102.334384 43.089904 
L 103.994136 58.26988 
L 106.483764 81.137737 
L 108.143515 93.589756 
L 108.973391 98.484417 
L 109.803267 102.58288 
L 110.633143 105.872093 
L 111.463019 108.430369 
L 112.292895 110.127185 
L 113.122771 111.171379 
L 113.952647 111.628214 
L 114.782523 111.419375 
L 115.612399 110.688439 
L 116.442275 109.526773 
L 117.272151 107.921324 
L 118.931903 103.54876 
L 120.591655 98.027582 
L 123.081283 88.486256 
L 127.230662 72.001036 
L 128.890414 66.062181 
L 130.550166 60.841209 
L 132.209918 56.39033 
L 133.86967 52.996698 
L 134.699546 51.652298 
L 135.529422 50.581998 
L 136.359298 49.798853 
L 137.189174 49.30286 
L 138.01905 49.041812 
L 138.848926 49.094021 
L 139.678802 49.35507 
L 140.508678 49.903272 
L 141.338554 50.595051 
L 142.998306 52.670387 
L 144.658058 55.150349 
L 147.977561 60.397426 
L 149.637313 62.694654 
L 151.297065 64.548099 
L 153.786693 66.571225 
L 155.446445 67.445738 
L 157.106197 68.176674 
L 162.085453 69.756018 
L 163.745205 70.278116 
L 167.064708 71.544201 
L 172.043964 73.658695 
L 174.533592 74.533208 
L 177.02322 75.107515 
L 179.512848 75.394668 
L 182.002476 75.381616 
L 183.662227 75.185829 
L 186.151855 74.663732 
L 188.641483 73.958901 
L 191.960987 72.810287 
L 193.620739 72.196823 
L 198.599995 70.734951 
L 201.919499 70.212853 
L 204.409126 70.134539 
L 206.898754 70.186749 
L 217.687142 70.956842 
L 226.815777 70.434745 
L 231.4 69.995297 
L 231.4 69.995297 
" clip-path="url(#p0db1923393)" style="fill: none; stroke-dasharray: 10,8; stroke-dashoffset: 0; stroke: #6c757d; stroke-width: 2"/>
   </g>
   <g id="matplotlib.axis_1">
    <g id="xtick_1">
     <g id="line2d_7">
      <defs>
       <path id="m3cb9a9c1f4" d="M 0 0 
L 0 3.5 
" style="stroke: #c2c1c1; stroke-width: 0.8"/>
      </defs>
      <g>
       <use xlink:href="#m3cb9a9c1f4" x="31.794928" y="201.167885" style="fill: #c2c1c1; stroke: #c2c1c1; stroke-width: 0.8"/>
      </g>
     </g>
     <g id="text_1">
      <!-- 0 -->
      <g style="fill: #191919" transform="translate(29.827818 213.417885)scale(0.07 -0.07)">
       <defs>
        <path id="Roboto-Regular-30" d="M 3234 1944 
Q 3234 825 2848 381 
Q 2463 -63 1800 -63 
Q 1156 -63 764 368 
Q 372 800 359 1872 
L 359 2638 
Q 359 3753 750 4183 
Q 1141 4613 1794 4613 
Q 2447 4613 2834 4195 
Q 3222 3778 3234 2709 
L 3234 1944 
z
M 2653 2734 
Q 2653 3503 2434 3822 
Q 2216 4141 1794 4141 
Q 1388 4141 1167 3831 
Q 947 3522 941 2778 
L 941 1850 
Q 941 1088 1164 750 
Q 1388 413 1800 413 
Q 2222 413 2436 745 
Q 2650 1078 2653 1825 
L 2653 2734 
z
" transform="scale(0.015625)"/>
       </defs>
       <use xlink:href="#Roboto-Regular-30"/>
      </g>
     </g>
    </g>
    <g id="xtick_2">
     <g id="line2d_8">
      <g>
       <use xlink:href="#m3cb9a9c1f4" x="59.457459" y="201.167885" style="fill: #c2c1c1; stroke: #c2c1c1; stroke-width: 0.8"/>
      </g>
     </g>
     <g id="text_2">
      <!-- 1 -->
      <g style="fill: #191919" transform="translate(57.49035 213.417885)scale(0.07 -0.07)">
       <defs>
        <path id="Roboto-Regular-31" d="M 2278 4575 
L 2278 0 
L 1700 0 
L 1700 3853 
L 534 3428 
L 534 3950 
L 2188 4575 
L 2278 4575 
z
" transform="scale(0.015625)"/>
       </defs>
       <use xlink:href="#Roboto-Regular-31"/>
      </g>
     </g>
    </g>
    <g id="xtick_3">
     <g id="line2d_9">
      <g>
       <use xlink:href="#m3cb9a9c1f4" x="87.119991" y="201.167885" style="fill: #c2c1c1; stroke: #c2c1c1; stroke-width: 0.8"/>
      </g>
     </g>
     <g id="text_3">
      <!-- 2 -->
      <g style="fill: #191919" transform="translate(85.152882 213.417885)scale(0.07 -0.07)">
       <defs>
        <path id="Roboto-Regular-32" d="M 3359 475 
L 3359 0 
L 381 0 
L 381 416 
L 1925 2134 
Q 2306 2566 2439 2819 
Q 2572 3072 2572 3328 
Q 2572 3663 2364 3900 
Q 2156 4138 1778 4138 
Q 1322 4138 1097 3878 
Q 872 3619 872 3213 
L 294 3213 
Q 294 3788 672 4200 
Q 1050 4613 1778 4613 
Q 2422 4613 2786 4278 
Q 3150 3944 3150 3397 
Q 3150 2997 2903 2592 
Q 2656 2188 2297 1797 
L 1078 475 
L 3359 475 
z
" transform="scale(0.015625)"/>
       </defs>
       <use xlink:href="#Roboto-Regular-32"/>
      </g>
     </g>
    </g>
    <g id="xtick_4">
     <g id="line2d_10">
      <g>
       <use xlink:href="#m3cb9a9c1f4" x="114.782523" y="201.167885" style="fill: #c2c1c1; stroke: #c2c1c1; stroke-width: 0.8"/>
      </g>
     </g>
     <g id="text_4">
      <!-- 3 -->
      <g style="fill: #191919" transform="translate(112.815414 213.417885)scale(0.07 -0.07)">
       <defs>
        <path id="Roboto-Regular-33" d="M 1222 2084 
L 1222 2559 
L 1647 2559 
Q 2094 2563 2312 2784 
Q 2531 3006 2531 3338 
Q 2531 4138 1738 4138 
Q 1369 4138 1141 3927 
Q 913 3716 913 3359 
L 334 3359 
Q 334 3881 720 4247 
Q 1106 4613 1738 4613 
Q 2353 4613 2733 4286 
Q 3113 3959 3113 3325 
Q 3113 3072 2942 2784 
Q 2772 2497 2397 2338 
Q 2850 2191 3015 1884 
Q 3181 1578 3181 1269 
Q 3181 631 2768 284 
Q 2356 -63 1741 -63 
Q 1147 -63 722 267 
Q 297 597 297 1203 
L 875 1203 
Q 875 844 1108 628 
Q 1341 413 1741 413 
Q 2138 413 2369 622 
Q 2600 831 2600 1256 
Q 2600 1681 2337 1882 
Q 2075 2084 1634 2084 
L 1222 2084 
z
" transform="scale(0.015625)"/>
       </defs>
       <use xlink:href="#Roboto-Regular-33"/>
      </g>
     </g>
    </g>
    <g id="xtick_5">
     <g id="line2d_11">
      <g>
       <use xlink:href="#m3cb9a9c1f4" x="142.445055" y="201.167885" style="fill: #c2c1c1; stroke: #c2c1c1; stroke-width: 0.8"/>
      </g>
     </g>
     <g id="text_5">
      <!-- 4 -->
      <g style="fill: #191919" transform="translate(140.477946 213.417885)scale(0.07 -0.07)">
       <defs>
        <path id="Roboto-Regular-34" d="M 166 1397 
L 2203 4550 
L 2819 4550 
L 2819 1531 
L 3453 1531 
L 3453 1056 
L 2819 1056 
L 2819 0 
L 2241 0 
L 2241 1056 
L 166 1056 
L 166 1397 
z
M 822 1531 
L 2241 1531 
L 2241 3766 
L 2169 3638 
L 822 1531 
z
" transform="scale(0.015625)"/>
       </defs>
       <use xlink:href="#Roboto-Regular-34"/>
      </g>
     </g>
    </g>
    <g id="xtick_6">
     <g id="line2d_12">
      <g>
       <use xlink:href="#m3cb9a9c1f4" x="170.107587" y="201.167885" style="fill: #c2c1c1; stroke: #c2c1c1; stroke-width: 0.8"/>
      </g>
     </g>
     <g id="text_6">
      <!-- 5 -->
      <g style="fill: #191919" transform="translate(168.140477 213.417885)scale(0.07 -0.07)">
       <defs>
        <path id="Roboto-Regular-35" d="M 1109 2166 
L 647 2284 
L 875 4550 
L 3209 4550 
L 3209 4016 
L 1366 4016 
L 1228 2778 
Q 1572 2975 1988 2975 
Q 2616 2975 2980 2561 
Q 3344 2147 3344 1450 
Q 3344 797 2987 367 
Q 2631 -63 1903 -63 
Q 1350 -63 947 248 
Q 544 559 481 1197 
L 1031 1197 
Q 1141 413 1903 413 
Q 2313 413 2538 691 
Q 2763 969 2763 1444 
Q 2763 1872 2527 2164 
Q 2291 2456 1853 2456 
Q 1563 2456 1413 2378 
Q 1263 2300 1109 2166 
z
" transform="scale(0.015625)"/>
       </defs>
       <use xlink:href="#Roboto-Regular-35"/>
      </g>
     </g>
    </g>
    <g id="xtick_7">
     <g id="line2d_13">
      <g>
       <use xlink:href="#m3cb9a9c1f4" x="197.770119" y="201.167885" style="fill: #c2c1c1; stroke: #c2c1c1; stroke-width: 0.8"/>
      </g>
     </g>
     <g id="text_7">
      <!-- 6 -->
      <g style="fill: #191919" transform="translate(195.803009 213.417885)scale(0.07 -0.07)">
       <defs>
        <path id="Roboto-Regular-36" d="M 3291 1484 
Q 3291 838 2930 387 
Q 2569 -63 1878 -63 
Q 1388 -63 1063 198 
Q 738 459 577 861 
Q 416 1263 416 1684 
L 416 1956 
Q 416 2597 595 3194 
Q 775 3791 1247 4173 
Q 1719 4556 2597 4556 
L 2647 4556 
L 2647 4066 
Q 2041 4066 1705 3853 
Q 1369 3641 1205 3302 
Q 1041 2963 1006 2575 
Q 1369 2984 1984 2984 
Q 2438 2984 2727 2765 
Q 3016 2547 3153 2201 
Q 3291 1856 3291 1484 
z
M 997 1666 
Q 997 1059 1267 737 
Q 1538 416 1878 416 
Q 2278 416 2498 708 
Q 2719 1000 2719 1456 
Q 2719 1863 2516 2184 
Q 2313 2506 1891 2506 
Q 1588 2506 1341 2325 
Q 1094 2144 997 1884 
L 997 1666 
z
" transform="scale(0.015625)"/>
       </defs>
       <use xlink:href="#Roboto-Regular-36"/>
      </g>
     </g>
    </g>
    <g id="xtick_8">
     <g id="line2d_14">
      <g>
       <use xlink:href="#m3cb9a9c1f4" x="225.432651" y="201.167885" style="fill: #c2c1c1; stroke: #c2c1c1; stroke-width: 0.8"/>
      </g>
     </g>
     <g id="text_8">
      <!-- 7 -->
      <g style="fill: #191919" transform="translate(223.465541 213.417885)scale(0.07 -0.07)">
       <defs>
        <path id="Roboto-Regular-37" d="M 3319 4550 
L 3319 4225 
L 1434 0 
L 825 0 
L 2706 4075 
L 244 4075 
L 244 4550 
L 3319 4550 
z
" transform="scale(0.015625)"/>
       </defs>
       <use xlink:href="#Roboto-Regular-37"/>
      </g>
     </g>
    </g>
    <g id="text_9">
     <!-- r $\left( \mathbf{\AA} \right)$ -->
     <g style="fill: #191919" transform="translate(119.853789 225.77476)scale(0.08 -0.08)">
      <defs>
       <path id="Roboto-Black-72" d="M 1994 2453 
Q 1500 2453 1359 2144 
L 1359 0 
L 306 0 
L 306 3381 
L 1291 3381 
L 1325 2950 
Q 1591 3444 2069 3444 
Q 2244 3444 2359 3406 
L 2341 2428 
L 1994 2453 
z
" transform="scale(0.015625)"/>
       <path id="Roboto-Black-20" transform="scale(0.015625)"/>
       <path id="DejaVuSans-28" d="M 1984 4856 
Q 1566 4138 1362 3434 
Q 1159 2731 1159 2009 
Q 1159 1288 1364 580 
Q 1569 -128 1984 -844 
L 1484 -844 
Q 1016 -109 783 600 
Q 550 1309 550 2009 
Q 550 2706 781 3412 
Q 1013 4119 1484 4856 
L 1984 4856 
z
" transform="scale(0.015625)"/>
       <path id="DejaVuSans-Bold-c5" d="M 3225 4575 
L 4922 0 
L 3713 0 
L 3419 850 
L 1538 850 
L 1241 0 
L 31 0 
L 1728 4575 
Q 1656 4681 1622 4798 
Q 1588 4916 1588 5050 
Q 1588 5416 1848 5678 
Q 2109 5941 2478 5941 
Q 2841 5941 3103 5678 
Q 3366 5416 3366 5050 
Q 3366 4903 3331 4784 
Q 3297 4666 3225 4575 
z
M 2069 5050 
Q 2069 4881 2189 4761 
Q 2309 4641 2478 4641 
Q 2647 4641 2767 4761 
Q 2888 4881 2888 5050 
Q 2888 5219 2766 5339 
Q 2644 5459 2478 5459 
Q 2309 5459 2189 5339 
Q 2069 5219 2069 5050 
z
M 1838 1716 
L 3116 1716 
L 2478 3572 
L 1838 1716 
z
" transform="scale(0.015625)"/>
       <path id="DejaVuSans-29" d="M 513 4856 
L 1013 4856 
Q 1481 4119 1714 3412 
Q 1947 2706 1947 2009 
Q 1947 1309 1714 600 
Q 1481 -109 1013 -844 
L 513 -844 
Q 928 -128 1133 580 
Q 1338 1288 1338 2009 
Q 1338 2731 1133 3434 
Q 928 4138 513 4856 
z
" transform="scale(0.015625)"/>
      </defs>
      <use xlink:href="#Roboto-Black-72" transform="translate(0 0.171875)"/>
      <use xlink:href="#Roboto-Black-20" transform="translate(37.890625 0.171875)"/>
      <use xlink:href="#DejaVuSans-28" transform="translate(62.792969 0.171875)"/>
      <use xlink:href="#DejaVuSans-Bold-c5" transform="translate(101.806641 0.171875)"/>
      <use xlink:href="#DejaVuSans-29" transform="translate(179.199219 0.171875)"/>
     </g>
    </g>
   </g>
   <g id="matplotlib.axis_2">
    <g id="ytick_1">
     <g id="line2d_15">
      <defs>
       <path id="mde7172f25f" d="M 0 0 
L -3.5 0 
" style="stroke: #c2c1c1; stroke-width: 0.8"/>
      </defs>
      <g>
       <use xlink:href="#mde7172f25f" x="31.794928" y="201.167885" style="fill: #c2c1c1; stroke: #c2c1c1; stroke-width: 0.8"/>
      </g>
     </g>
     <g id="text_10">
      <!-- 0.0 -->
      <g style="fill: #191919" transform="translate(15.08024 203.792885)scale(0.07 -0.07)">
       <defs>
        <path id="Roboto-Regular-2e" d="M 450 306 
Q 450 453 542 554 
Q 634 656 809 656 
Q 984 656 1076 554 
Q 1169 453 1169 306 
Q 1169 163 1076 62 
Q 984 -38 809 -38 
Q 634 -38 542 62 
Q 450 163 450 306 
z
" transform="scale(0.015625)"/>
       </defs>
       <use xlink:href="#Roboto-Regular-30"/>
       <use xlink:href="#Roboto-Regular-2e" x="56.201172"/>
       <use xlink:href="#Roboto-Regular-30" x="82.568359"/>
      </g>
     </g>
    </g>
    <g id="ytick_2">
     <g id="line2d_16">
      <g>
       <use xlink:href="#mde7172f25f" x="31.794928" y="175.063025" style="fill: #c2c1c1; stroke: #c2c1c1; stroke-width: 0.8"/>
      </g>
     </g>
     <g id="text_11">
      <!-- 0.2 -->
      <g style="fill: #191919" transform="translate(15.08024 177.688025)scale(0.07 -0.07)">
       <use xlink:href="#Roboto-Regular-30"/>
       <use xlink:href="#Roboto-Regular-2e" x="56.201172"/>
       <use xlink:href="#Roboto-Regular-32" x="82.568359"/>
      </g>
     </g>
    </g>
    <g id="ytick_3">
     <g id="line2d_17">
      <g>
       <use xlink:href="#mde7172f25f" x="31.794928" y="148.958164" style="fill: #c2c1c1; stroke: #c2c1c1; stroke-width: 0.8"/>
      </g>
     </g>
     <g id="text_12">
      <!-- 0.4 -->
      <g style="fill: #191919" transform="translate(15.08024 151.583164)scale(0.07 -0.07)">
       <use xlink:href="#Roboto-Regular-30"/>
       <use xlink:href="#Roboto-Regular-2e" x="56.201172"/>
       <use xlink:href="#Roboto-Regular-34" x="82.568359"/>
      </g>
     </g>
    </g>
    <g id="ytick_4">
     <g id="line2d_18">
      <g>
       <use xlink:href="#mde7172f25f" x="31.794928" y="122.853304" style="fill: #c2c1c1; stroke: #c2c1c1; stroke-width: 0.8"/>
      </g>
     </g>
     <g id="text_13">
      <!-- 0.6 -->
      <g style="fill: #191919" transform="translate(15.08024 125.478304)scale(0.07 -0.07)">
       <use xlink:href="#Roboto-Regular-30"/>
       <use xlink:href="#Roboto-Regular-2e" x="56.201172"/>
       <use xlink:href="#Roboto-Regular-36" x="82.568359"/>
      </g>
     </g>
    </g>
    <g id="ytick_5">
     <g id="line2d_19">
      <g>
       <use xlink:href="#mde7172f25f" x="31.794928" y="96.748444" style="fill: #c2c1c1; stroke: #c2c1c1; stroke-width: 0.8"/>
      </g>
     </g>
     <g id="text_14">
      <!-- 0.8 -->
      <g style="fill: #191919" transform="translate(15.08024 99.373444)scale(0.07 -0.07)">
       <defs>
        <path id="Roboto-Regular-38" d="M 3244 1231 
Q 3244 606 2826 271 
Q 2409 -63 1796 -63 
Q 1184 -63 767 271 
Q 350 606 350 1231 
Q 350 1613 554 1905 
Q 759 2197 1109 2347 
Q 806 2494 629 2762 
Q 453 3031 453 3366 
Q 453 3963 833 4288 
Q 1213 4613 1794 4613 
Q 2378 4613 2758 4288 
Q 3138 3963 3138 3366 
Q 3138 3028 2956 2761 
Q 2775 2494 2472 2347 
Q 2825 2197 3034 1903 
Q 3244 1609 3244 1231 
z
M 2559 3356 
Q 2559 3697 2346 3917 
Q 2134 4138 1793 4138 
Q 1453 4138 1243 3927 
Q 1034 3716 1034 3356 
Q 1034 3003 1243 2790 
Q 1453 2578 1797 2578 
Q 2138 2578 2348 2790 
Q 2559 3003 2559 3356 
z
M 2663 1244 
Q 2663 1625 2420 1865 
Q 2178 2106 1791 2106 
Q 1394 2106 1161 1865 
Q 928 1625 928 1244 
Q 928 850 1161 631 
Q 1394 413 1797 413 
Q 2200 413 2431 631 
Q 2663 850 2663 1244 
z
" transform="scale(0.015625)"/>
       </defs>
       <use xlink:href="#Roboto-Regular-30"/>
       <use xlink:href="#Roboto-Regular-2e" x="56.201172"/>
       <use xlink:href="#Roboto-Regular-38" x="82.568359"/>
      </g>
     </g>
    </g>
    <g id="ytick_6">
     <g id="line2d_20">
      <g>
       <use xlink:href="#mde7172f25f" x="31.794928" y="70.643584" style="fill: #c2c1c1; stroke: #c2c1c1; stroke-width: 0.8"/>
      </g>
     </g>
     <g id="text_15">
      <!-- 1.0 -->
      <g style="fill: #191919" transform="translate(15.08024 73.268584)scale(0.07 -0.07)">
       <use xlink:href="#Roboto-Regular-31"/>
       <use xlink:href="#Roboto-Regular-2e" x="56.201172"/>
       <use xlink:href="#Roboto-Regular-30" x="82.568359"/>
      </g>
     </g>
    </g>
    <g id="ytick_7">
     <g id="line2d_21">
      <g>
       <use xlink:href="#mde7172f25f" x="31.794928" y="44.538723" style="fill: #c2c1c1; stroke: #c2c1c1; stroke-width: 0.8"/>
      </g>
     </g>
     <g id="text_16">
      <!-- 1.2 -->
      <g style="fill: #191919" transform="translate(15.08024 47.163723)scale(0.07 -0.07)">
       <use xlink:href="#Roboto-Regular-31"/>
       <use xlink:href="#Roboto-Regular-2e" x="56.201172"/>
       <use xlink:href="#Roboto-Regular-32" x="82.568359"/>
      </g>
     </g>
    </g>
    <g id="ytick_8">
     <g id="line2d_22">
      <g>
       <use xlink:href="#mde7172f25f" x="31.794928" y="18.433863" style="fill: #c2c1c1; stroke: #c2c1c1; stroke-width: 0.8"/>
      </g>
     </g>
     <g id="text_17">
      <!-- 1.4 -->
      <g style="fill: #191919" transform="translate(15.08024 21.058863)scale(0.07 -0.07)">
       <use xlink:href="#Roboto-Regular-31"/>
       <use xlink:href="#Roboto-Regular-2e" x="56.201172"/>
       <use xlink:href="#Roboto-Regular-34" x="82.568359"/>
      </g>
     </g>
    </g>
    <g id="text_18">
     <!-- g$\mathregular{_{HH}}$(r) -->
     <g style="fill: #191919" transform="translate(9.32024 112.804063)rotate(-90)scale(0.08 -0.08)">
      <defs>
       <path id="Roboto-Black-67" d="M 1659 -1331 
Q 1319 -1331 966 -1203 
Q 613 -1075 403 -825 
L 844 -206 
Q 1147 -553 1622 -553 
Q 2313 -553 2322 119 
L 2322 275 
Q 2025 -63 1553 -63 
Q 913 -63 544 425 
Q 175 913 175 1650 
L 175 1716 
Q 175 2488 545 2966 
Q 916 3444 1559 3444 
Q 2091 3444 2384 3091 
L 2422 3381 
L 3378 3381 
L 3378 131 
Q 3378 -572 2904 -951 
Q 2431 -1331 1659 -1331 
z
M 1228 1650 
Q 1228 1269 1375 1009 
Q 1522 750 1822 750 
Q 2166 750 2322 981 
L 2322 2400 
Q 2172 2631 1828 2631 
Q 1531 2631 1379 2372 
Q 1228 2113 1228 1650 
z
" transform="scale(0.015625)"/>
       <path id="Roboto-Black-48" d="M 3056 0 
L 3056 1900 
L 1444 1900 
L 1444 0 
L 347 0 
L 347 4550 
L 1444 4550 
L 1444 2744 
L 3056 2744 
L 3056 4550 
L 4150 4550 
L 4150 0 
L 3056 0 
z
" transform="scale(0.015625)"/>
       <path id="Roboto-Black-28" d="M 378 1850 
Q 378 2713 608 3369 
Q 838 4025 1194 4444 
Q 1550 4863 1938 5019 
L 2134 4500 
Q 1788 4247 1505 3622 
Q 1222 2997 1216 1909 
L 1216 1756 
Q 1216 634 1500 1 
Q 1784 -631 2134 -888 
L 1938 -1406 
Q 1550 -1250 1195 -833 
Q 841 -416 612 229 
Q 384 875 378 1716 
L 378 1850 
z
" transform="scale(0.015625)"/>
       <path id="Roboto-Black-29" d="M 1956 1763 
Q 1956 941 1717 283 
Q 1478 -375 1104 -812 
Q 731 -1250 328 -1406 
L 125 -888 
Q 469 -634 753 -9 
Q 1038 616 1044 1703 
L 1044 1856 
Q 1044 2978 759 3611 
Q 475 4244 125 4500 
L 328 5019 
Q 731 4863 1104 4425 
Q 1478 3988 1717 3330 
Q 1956 2672 1956 1850 
L 1956 1763 
z
" transform="scale(0.015625)"/>
      </defs>
      <use xlink:href="#Roboto-Black-67" transform="translate(0 0.578125)"/>
      <use xlink:href="#Roboto-Black-48" transform="translate(58.492852 -15.270313)scale(0.7)"/>
      <use xlink:href="#Roboto-Black-48" transform="translate(107.677422 -15.270313)scale(0.7)"/>
      <use xlink:href="#Roboto-Black-28" transform="translate(159.503398 0.578125)"/>
      <use xlink:href="#Roboto-Black-72" transform="translate(194.806133 0.578125)"/>
      <use xlink:href="#Roboto-Black-29" transform="translate(232.696758 0.578125)"/>
     </g>
    </g>
   </g>
   <g id="patch_3">
    <path d="M 31.794928 201.167885 
L 31.794928 3.00024 
" style="fill: none; stroke: #c2c1c1; stroke-width: 0.8; stroke-linejoin: miter; stroke-linecap: square"/>
   </g>
   <g id="patch_4">
    <path d="M 225.432651 201.167885 
L 225.432651 3.00024 
" style="fill: none; stroke: #c2c1c1; stroke-width: 0.8; stroke-linejoin: miter; stroke-linecap: square"/>
   </g>
   <g id="patch_5">
    <path d="M 31.794928 201.167885 
L 225.432651 201.167885 
" style="fill: none; stroke: #c2c1c1; stroke-width: 0.8; stroke-linejoin: miter; stroke-linecap: square"/>
   </g>
   <g id="patch_6">
    <path d="M 31.794928 3.00024 
L 225.432651 3.00024 
" style="fill: none; stroke: #c2c1c1; stroke-width: 0.8; stroke-linejoin: miter; stroke-linecap: square"/>
   </g>
   <g id="legend_1">
    <g id="line2d_23">
     <path d="M 149.335151 143.042885 
L 157.335151 143.042885 
L 165.335151 143.042885 
" style="fill: none; stroke: #4abbf3; stroke-width: 2; stroke-linecap: square"/>
    </g>
    <g id="text_19">
     <!-- mbGDML -->
     <g transform="translate(171.735151 145.842885)scale(0.08 -0.08)">
      <defs>
       <path id="Roboto-Regular-6d" d="M 1794 2956 
Q 1225 2956 1016 2478 
L 1016 0 
L 434 0 
L 434 3381 
L 984 3381 
L 1000 3013 
Q 1366 3444 2000 3444 
Q 2325 3444 2579 3314 
Q 2834 3184 2969 2900 
Q 3138 3144 3408 3294 
Q 3678 3444 4044 3444 
Q 4588 3444 4883 3153 
Q 5178 2863 5178 2222 
L 5178 0 
L 4597 0 
L 4597 2228 
Q 4597 2653 4401 2804 
Q 4206 2956 3875 2956 
Q 3525 2956 3325 2748 
Q 3125 2541 3094 2244 
L 3094 0 
L 2516 0 
L 2516 2225 
Q 2516 2622 2319 2789 
Q 2122 2956 1794 2956 
z
" transform="scale(0.015625)"/>
       <path id="Roboto-Regular-62" d="M 3303 1653 
Q 3303 913 2959 425 
Q 2616 -63 1988 -63 
Q 1347 -63 1000 391 
L 969 0 
L 438 0 
L 438 4800 
L 1019 4800 
L 1019 3016 
Q 1363 3444 1981 3444 
Q 2619 3444 2961 2969 
Q 3303 2494 3303 1719 
L 3303 1653 
z
M 1838 2956 
Q 1522 2956 1325 2804 
Q 1128 2653 1019 2431 
L 1019 959 
Q 1131 734 1331 581 
Q 1531 428 1844 428 
Q 2313 428 2517 789 
Q 2722 1150 2722 1653 
L 2722 1719 
Q 2722 2222 2526 2589 
Q 2331 2956 1838 2956 
z
" transform="scale(0.015625)"/>
       <path id="Roboto-Regular-47" d="M 3891 2266 
L 3891 600 
Q 3763 413 3403 175 
Q 3044 -63 2281 -63 
Q 1450 -63 915 507 
Q 381 1078 381 2100 
L 381 2453 
Q 381 3469 856 4041 
Q 1331 4613 2213 4613 
Q 2994 4613 3398 4219 
Q 3803 3825 3891 3219 
L 3288 3219 
Q 3225 3588 2979 3853 
Q 2734 4119 2213 4119 
Q 1584 4119 1287 3676 
Q 991 3234 988 2475 
L 988 2100 
Q 988 1313 1344 870 
Q 1700 428 2284 428 
Q 2769 428 2984 542 
Q 3200 656 3291 759 
L 3291 1778 
L 2238 1778 
L 2238 2266 
L 3891 2266 
z
" transform="scale(0.015625)"/>
       <path id="Roboto-Regular-44" d="M 528 0 
L 528 4550 
L 1816 4550 
Q 2713 4550 3267 3973 
Q 3822 3397 3822 2409 
L 3822 2138 
Q 3822 1150 3264 575 
Q 2706 0 1759 0 
L 528 0 
z
M 1131 4056 
L 1131 491 
L 1759 491 
Q 2488 491 2856 941 
Q 3225 1391 3225 2138 
L 3225 2416 
Q 3225 3200 2856 3628 
Q 2488 4056 1816 4056 
L 1131 4056 
z
" transform="scale(0.015625)"/>
       <path id="Roboto-Regular-4d" d="M 2794 841 
L 4281 4550 
L 5056 4550 
L 5056 0 
L 4456 0 
L 4456 1775 
L 4516 3678 
L 3019 0 
L 2563 0 
L 1069 3684 
L 1128 1775 
L 1128 0 
L 528 0 
L 528 4550 
L 1303 4550 
L 2794 841 
z
" transform="scale(0.015625)"/>
       <path id="Roboto-Regular-4c" d="M 3288 491 
L 3288 0 
L 528 0 
L 528 4550 
L 1131 4550 
L 1131 491 
L 3288 491 
z
" transform="scale(0.015625)"/>
      </defs>
      <use xlink:href="#Roboto-Regular-6d"/>
      <use xlink:href="#Roboto-Regular-62" x="87.695312"/>
      <use xlink:href="#Roboto-Regular-47" x="143.847656"/>
      <use xlink:href="#Roboto-Regular-44" x="211.962891"/>
      <use xlink:href="#Roboto-Regular-4d" x="277.587891"/>
      <use xlink:href="#Roboto-Regular-4c" x="364.892578"/>
     </g>
    </g>
    <g id="line2d_24">
     <path d="M 149.335151 154.667885 
L 157.335151 154.667885 
L 165.335151 154.667885 
" style="fill: none; stroke-dasharray: 10,8; stroke-dashoffset: 0; stroke: #6c757d; stroke-width: 2"/>
    </g>
    <g id="text_20">
     <!-- Experimental -->
     <g transform="translate(171.735151 157.467885)scale(0.08 -0.08)">
      <defs>
       <path id="Roboto-Regular-45" d="M 528 0 
L 528 4550 
L 3388 4550 
L 3388 4056 
L 1131 4056 
L 1131 2594 
L 3100 2594 
L 3100 2103 
L 1131 2103 
L 1131 491 
L 3419 491 
L 3419 0 
L 528 0 
z
" transform="scale(0.015625)"/>
       <path id="Roboto-Regular-78" d="M 831 3381 
L 1572 2150 
L 2322 3381 
L 3000 3381 
L 1894 1713 
L 3034 0 
L 2366 0 
L 1584 1269 
L 803 0 
L 131 0 
L 1269 1713 
L 166 3381 
L 831 3381 
z
" transform="scale(0.015625)"/>
       <path id="Roboto-Regular-70" d="M 1984 -63 
Q 1375 -63 1019 328 
L 1019 -1300 
L 438 -1300 
L 438 3381 
L 969 3381 
L 997 3009 
Q 1353 3444 1975 3444 
Q 2616 3444 2956 2969 
Q 3297 2494 3297 1719 
L 3297 1653 
Q 3297 913 2955 425 
Q 2613 -63 1984 -63 
z
M 1806 2956 
Q 1281 2956 1019 2491 
L 1019 872 
Q 1284 413 1813 413 
Q 2281 413 2498 781 
Q 2716 1150 2716 1653 
L 2716 1719 
Q 2716 2222 2498 2589 
Q 2281 2956 1806 2956 
z
" transform="scale(0.015625)"/>
       <path id="Roboto-Regular-65" d="M 3116 591 
Q 2950 341 2647 139 
Q 2344 -63 1844 -63 
Q 1138 -63 714 396 
Q 291 856 291 1572 
L 291 1703 
Q 291 2256 502 2645 
Q 713 3034 1050 3239 
Q 1388 3444 1769 3444 
Q 2494 3444 2826 2970 
Q 3159 2497 3159 1788 
L 3159 1528 
L 872 1528 
Q 884 1063 1148 736 
Q 1413 409 1875 409 
Q 2181 409 2393 534 
Q 2606 659 2766 869 
L 3116 591 
z
M 1769 2969 
Q 1425 2969 1187 2719 
Q 950 2469 891 2000 
L 2581 2000 
L 2581 2044 
Q 2559 2381 2386 2675 
Q 2213 2969 1769 2969 
z
" transform="scale(0.015625)"/>
       <path id="Roboto-Regular-72" d="M 1791 2888 
Q 1225 2888 1019 2400 
L 1019 0 
L 441 0 
L 441 3381 
L 1003 3381 
L 1016 2994 
Q 1294 3444 1819 3444 
Q 1981 3444 2075 3400 
L 2072 2863 
Q 1944 2888 1791 2888 
z
" transform="scale(0.015625)"/>
       <path id="Roboto-Regular-69" d="M 444 4278 
Q 444 4419 530 4516 
Q 616 4613 784 4613 
Q 950 4613 1039 4516 
Q 1128 4419 1128 4278 
Q 1128 4144 1039 4048 
Q 950 3953 784 3953 
Q 616 3953 530 4048 
Q 444 4144 444 4278 
z
M 1069 3381 
L 1069 0 
L 488 0 
L 488 3381 
L 1069 3381 
z
" transform="scale(0.015625)"/>
       <path id="Roboto-Regular-6e" d="M 1844 2956 
Q 1566 2956 1353 2806 
Q 1141 2656 1019 2416 
L 1019 0 
L 441 0 
L 441 3381 
L 988 3381 
L 1006 2959 
Q 1391 3444 2016 3444 
Q 2513 3444 2805 3166 
Q 3097 2888 3100 2231 
L 3100 0 
L 2519 0 
L 2519 2222 
Q 2519 2619 2345 2787 
Q 2172 2956 1844 2956 
z
" transform="scale(0.015625)"/>
       <path id="Roboto-Regular-74" d="M 1872 0 
Q 1675 -63 1425 -63 
Q 1103 -63 875 134 
Q 647 331 647 841 
L 647 2938 
L 28 2938 
L 28 3381 
L 647 3381 
L 647 4203 
L 1225 4203 
L 1225 3381 
L 1856 3381 
L 1856 2938 
L 1225 2938 
L 1225 838 
Q 1225 578 1337 506 
Q 1450 434 1597 434 
Q 1706 434 1869 472 
L 1872 0 
z
" transform="scale(0.015625)"/>
       <path id="Roboto-Regular-61" d="M 2528 0 
Q 2472 122 2447 356 
Q 2284 184 2040 60 
Q 1797 -63 1484 -63 
Q 966 -63 653 228 
Q 341 519 341 941 
Q 341 1484 753 1767 
Q 1166 2050 1863 2050 
L 2434 2050 
L 2434 2319 
Q 2434 2619 2254 2798 
Q 2075 2978 1722 2978 
Q 1394 2978 1192 2817 
Q 991 2656 991 2444 
L 413 2444 
Q 413 2806 778 3125 
Q 1144 3444 1756 3444 
Q 2306 3444 2659 3162 
Q 3013 2881 3013 2313 
L 3013 794 
Q 3013 325 3131 50 
L 3131 0 
L 2528 0 
z
M 1569 444 
Q 1881 444 2111 600 
Q 2341 756 2434 947 
L 2434 1644 
L 1897 1644 
Q 922 1625 922 1019 
Q 922 778 1084 611 
Q 1247 444 1569 444 
z
" transform="scale(0.015625)"/>
       <path id="Roboto-Regular-6c" d="M 1069 4800 
L 1069 0 
L 488 0 
L 488 4800 
L 1069 4800 
z
" transform="scale(0.015625)"/>
      </defs>
      <use xlink:href="#Roboto-Regular-45"/>
      <use xlink:href="#Roboto-Regular-78" x="56.835938"/>
      <use xlink:href="#Roboto-Regular-70" x="106.445312"/>
      <use xlink:href="#Roboto-Regular-65" x="162.597656"/>
      <use xlink:href="#Roboto-Regular-72" x="215.625"/>
      <use xlink:href="#Roboto-Regular-69" x="249.511719"/>
      <use xlink:href="#Roboto-Regular-6d" x="273.828125"/>
      <use xlink:href="#Roboto-Regular-65" x="361.523438"/>
      <use xlink:href="#Roboto-Regular-6e" x="414.550781"/>
      <use xlink:href="#Roboto-Regular-74" x="469.775391"/>
      <use xlink:href="#Roboto-Regular-61" x="502.490234"/>
      <use xlink:href="#Roboto-Regular-6c" x="556.884766"/>
     </g>
    </g>
    <g id="line2d_25">
     <path d="M 149.335151 166.292885 
L 157.335151 166.292885 
L 165.335151 166.292885 
" style="fill: none; stroke: #f0ebf5; stroke-width: 2; stroke-linecap: square"/>
    </g>
    <g id="text_21">
     <!-- TIP3P -->
     <g transform="translate(171.735151 169.092885)scale(0.08 -0.08)">
      <defs>
       <path id="Roboto-Regular-54" d="M 156 4056 
L 156 4550 
L 3672 4550 
L 3672 4056 
L 2209 4056 
L 2209 0 
L 1616 0 
L 1616 4056 
L 156 4056 
z
" transform="scale(0.015625)"/>
       <path id="Roboto-Regular-49" d="M 1175 4550 
L 1175 0 
L 572 0 
L 572 4550 
L 1175 4550 
z
" transform="scale(0.015625)"/>
       <path id="Roboto-Regular-50" d="M 1131 1784 
L 1131 0 
L 528 0 
L 528 4550 
L 2206 4550 
Q 2981 4550 3392 4159 
Q 3803 3769 3803 3163 
Q 3803 2503 3392 2143 
Q 2981 1784 2206 1784 
L 1131 1784 
z
M 1131 4056 
L 1131 2275 
L 2206 2275 
Q 2738 2275 2969 2522 
Q 3200 2769 3200 3156 
Q 3200 3506 2969 3781 
Q 2738 4056 2206 4056 
L 1131 4056 
z
" transform="scale(0.015625)"/>
      </defs>
      <use xlink:href="#Roboto-Regular-54"/>
      <use xlink:href="#Roboto-Regular-49" x="59.667969"/>
      <use xlink:href="#Roboto-Regular-50" x="86.865234"/>
      <use xlink:href="#Roboto-Regular-33" x="149.951172"/>
      <use xlink:href="#Roboto-Regular-50" x="206.152344"/>
     </g>
    </g>
    <g id="line2d_26">
     <path d="M 149.335151 177.917885 
L 157.335151 177.917885 
L 165.335151 177.917885 
" style="fill: none; stroke: #e2d7ea; stroke-width: 2; stroke-linecap: square"/>
    </g>
    <g id="text_22">
     <!-- TIP4P -->
     <g transform="translate(171.735151 180.717885)scale(0.08 -0.08)">
      <use xlink:href="#Roboto-Regular-54"/>
      <use xlink:href="#Roboto-Regular-49" x="59.667969"/>
      <use xlink:href="#Roboto-Regular-50" x="86.865234"/>
      <use xlink:href="#Roboto-Regular-34" x="149.951172"/>
      <use xlink:href="#Roboto-Regular-50" x="206.152344"/>
     </g>
    </g>
    <g id="line2d_27">
     <path d="M 149.335151 189.542885 
L 157.335151 189.542885 
L 165.335151 189.542885 
" style="fill: none; stroke: #c5b0d4; stroke-width: 2; stroke-linecap: square"/>
    </g>
    <g id="text_23">
     <!-- TIP5P -->
     <g transform="translate(171.735151 192.342885)scale(0.08 -0.08)">
      <use xlink:href="#Roboto-Regular-54"/>
      <use xlink:href="#Roboto-Regular-49" x="59.667969"/>
      <use xlink:href="#Roboto-Regular-50" x="86.865234"/>
      <use xlink:href="#Roboto-Regular-35" x="149.951172"/>
      <use xlink:href="#Roboto-Regular-50" x="206.152344"/>
     </g>
    </g>
   </g>
  </g>
 </g>
 <defs>
  <clipPath id="p0db1923393">
   <rect x="31.794928" y="3.00024" width="193.637723" height="198.167645"/>
  </clipPath>
 </defs>
</svg>
