<?xml version="1.0" encoding="utf-8" standalone="no"?>
<!DOCTYPE svg PUBLIC "-//W3C//DTD SVG 1.1//EN"
  "http://www.w3.org/Graphics/SVG/1.1/DTD/svg11.dtd">
<svg xmlns:xlink="http://www.w3.org/1999/xlink" width="230.4pt" height="230.4pt" viewBox="0 0 230.4 230.4" xmlns="http://www.w3.org/2000/svg" version="1.1">
 <metadata>
  <rdf:RDF xmlns:dc="http://purl.org/dc/elements/1.1/" xmlns:cc="http://creativecommons.org/ns#" xmlns:rdf="http://www.w3.org/1999/02/22-rdf-syntax-ns#">
   <cc:Work>
    <dc:type rdf:resource="http://purl.org/dc/dcmitype/StillImage"/>
    <dc:date>2022-12-23T09:43:59.643765</dc:date>
    <dc:format>image/svg+xml</dc:format>
    <dc:creator>
     <cc:Agent>
      <dc:title>Matplotlib v3.5.2, https://matplotlib.org/</dc:title>
     </cc:Agent>
    </dc:creator>
   </cc:Work>
  </rdf:RDF>
 </metadata>
 <defs>
  <style type="text/css">*{stroke-linejoin: round; stroke-linecap: butt}</style>
 </defs>
 <g id="figure_1">
  <g id="patch_1">
   <path d="M 0 230.4 
L 230.4 230.4 
L 230.4 0 
L 0 0 
z
" style="fill: #ffffff"/>
  </g>
  <g id="axes_1">
   <g id="patch_2">
    <path d="M 31.874927 201.167885 
L 225.432651 201.167885 
L 225.432651 3.00024 
L 31.874927 3.00024 
z
" style="fill: #ffffff"/>
   </g>
   <g id="line2d_1">
    <path d="M 31.874927 201.167885 
L 70.014383 201.167885 
L 72.874842 200.361746 
L 74.066693 192.300206 
L 75.258554 185.850999 
L 75.973669 177.789478 
L 76.212037 168.115659 
L 76.688783 160.054156 
L 76.927151 151.186477 
L 77.403898 142.318816 
L 77.642266 134.257294 
L 77.880645 124.583475 
L 78.357381 116.521972 
L 78.834128 108.460451 
L 79.310874 99.59279 
L 79.549242 91.531268 
L 80.025989 83.469746 
L 80.264357 76.214382 
L 80.741104 68.152879 
L 81.21784 59.2852 
L 83.83993 62.509812 
L 84.555045 71.377473 
L 85.27016 80.245152 
L 85.746907 89.918971 
L 86.938757 98.786632 
L 87.653872 108.460451 
L 88.130619 116.521972 
L 89.084101 125.389633 
L 90.037595 134.257294 
L 90.991077 143.124973 
L 92.182939 151.186477 
L 93.851536 159.247998 
L 95.996891 164.084908 
L 98.142235 167.30952 
L 100.287579 165.697204 
L 102.432923 160.860295 
L 104.10151 154.411089 
L 105.293382 147.961883 
L 106.485233 139.094203 
L 107.438726 129.420385 
L 108.392198 121.358882 
L 109.107313 114.103518 
L 109.822427 104.429699 
L 110.775921 96.368177 
L 111.491036 86.694359 
L 112.444529 77.826698 
L 112.921265 69.765176 
L 113.874758 61.703654 
L 114.589873 52.835994 
L 115.543345 46.386787 
L 116.735217 39.131414 
L 118.403804 32.682199 
L 120.310791 28.651447 
L 122.456135 31.069902 
L 124.601479 35.100653 
L 126.270065 41.549878 
L 128.177052 47.999084 
L 129.607282 53.642151 
L 131.514247 59.2852 
L 133.421212 66.540564 
L 135.328199 73.795928 
L 137.473543 77.826698 
L 139.857244 81.051292 
L 142.240967 82.663607 
L 145.339805 84.275904 
L 147.961885 84.275904 
L 151.060722 85.082062 
L 153.921181 85.888201 
L 156.304882 86.694359 
L 159.165341 86.694359 
L 161.787443 87.500516 
L 164.647902 87.500516 
L 167.50836 87.500516 
L 170.607176 86.694359 
L 173.467635 85.888201 
L 176.566473 85.082062 
L 179.426931 83.469746 
L 182.28739 82.663607 
L 185.147849 81.857449 
L 188.723422 81.051292 
L 192.060617 81.857449 
L 195.397833 81.857449 
L 198.496649 81.051292 
L 200.641993 81.857449 
L 203.740831 82.663607 
L 207.078026 82.663607 
L 210.176863 82.663607 
L 213.514058 81.857449 
L 216.612895 82.663607 
L 219.711733 81.857449 
L 222.572192 81.051292 
L 225.432651 81.051292 
L 228.531466 81.857449 
L 231.391925 81.051292 
L 231.4 81.051292 
" clip-path="url(#p324322d92c)" style="fill: none; stroke: #f0ebf5; stroke-width: 2; stroke-linecap: square"/>
   </g>
   <g id="line2d_2">
    <path d="M 31.874927 201.167885 
L 72.874842 201.167885 
L 74.066693 192.501768 
L 75.258554 183.634089 
L 75.973669 174.766409 
L 76.212037 165.898767 
L 76.450416 154.612633 
L 76.927151 143.326499 
L 77.403898 133.65268 
L 77.403898 123.978862 
L 77.880645 113.498904 
L 78.357381 103.018946 
L 78.59576 92.538951 
L 79.310874 81.252854 
L 79.549242 70.772859 
L 80.025989 61.099041 
L 80.264357 51.425222 
L 80.741104 43.363719 
L 81.21784 33.6899 
L 83.124816 43.363719 
L 84.316677 49.006768 
L 84.793413 61.099041 
L 85.27016 71.579017 
L 85.985274 81.252854 
L 86.700389 90.926673 
L 87.177136 103.018946 
L 87.892251 111.886588 
L 88.607365 123.172722 
L 89.560848 132.846541 
L 90.275963 141.71422 
L 91.467824 151.388039 
L 92.421307 160.255682 
L 94.566662 168.317222 
L 96.712006 173.96027 
L 98.85735 176.378725 
L 101.002694 174.766409 
L 103.148038 169.123361 
L 104.578267 161.867997 
L 105.770118 153.806494 
L 106.961969 144.938814 
L 107.677083 136.071135 
L 108.868956 126.397316 
L 109.58407 117.529674 
L 110.537542 106.24354 
L 111.0143 97.375861 
L 111.967771 89.314357 
L 112.444529 81.252854 
L 112.921265 72.385175 
L 113.63638 63.517495 
L 114.351494 55.455992 
L 115.066609 47.394471 
L 116.020103 39.332949 
L 116.735217 31.271446 
L 119.595676 21.597627 
L 121.74102 25.628379 
L 123.886364 32.883743 
L 125.554951 40.139107 
L 127.223559 47.394471 
L 128.653788 55.455992 
L 130.322396 61.905199 
L 132.46774 68.354405 
L 134.136327 74.803629 
L 136.758429 78.8344 
L 139.380509 81.252854 
L 142.002588 82.865133 
L 145.339805 82.865133 
L 148.677 82.058993 
L 151.29908 83.671309 
L 154.636296 83.671309 
L 157.973491 84.477448 
L 160.833949 84.477448 
L 163.456029 85.283587 
L 166.554867 84.477448 
L 169.415326 85.283587 
L 171.799049 83.671309 
L 174.421129 84.477448 
L 176.804851 82.865133 
L 179.66531 82.865133 
L 182.764126 82.865133 
L 185.624585 82.865133 
L 188.008308 83.671309 
L 191.345502 83.671309 
L 193.729225 84.477448 
L 196.589684 84.477448 
L 198.973407 85.283587 
L 202.072223 85.283587 
L 204.694325 84.477448 
L 207.554783 84.477448 
L 210.176863 83.671309 
L 212.798943 82.865133 
L 215.659402 82.058993 
L 218.281504 81.252854 
L 221.141962 80.446678 
L 223.525664 79.640539 
L 226.386122 79.640539 
L 229.246581 79.640539 
L 231.4 79.640539 
" clip-path="url(#p324322d92c)" style="fill: none; stroke: #e2d7ea; stroke-width: 2; stroke-linecap: square"/>
   </g>
   <g id="line2d_3">
    <path d="M 31.874927 201.167885 
L 70.252751 201.167885 
L 72.159727 198.74943 
L 74.066693 190.68789 
L 74.543439 181.820248 
L 75.258554 172.146429 
L 75.973669 163.27875 
L 76.212037 153.604931 
L 76.688783 144.737252 
L 76.688783 135.063433 
L 77.16553 124.583475 
L 77.403898 114.909657 
L 77.642266 105.235838 
L 78.119013 97.174335 
L 78.59576 87.500516 
L 78.834128 78.632837 
L 79.310874 68.959018 
L 79.78761 60.091339 
L 80.025989 51.223697 
L 82.171333 47.999066 
L 83.124816 56.060606 
L 83.83993 64.928248 
L 84.793413 75.408243 
L 85.508528 85.888201 
L 86.223642 96.368159 
L 86.700389 106.041977 
L 87.653872 116.521972 
L 88.607365 125.389615 
L 89.560848 135.063433 
L 90.514331 144.737252 
L 91.706192 153.604931 
L 93.136421 161.666434 
L 95.281776 168.115659 
L 97.665477 172.146429 
L 99.334086 172.952568 
L 101.241051 169.727975 
L 103.148038 165.697204 
L 104.816624 158.441841 
L 106.246854 151.186477 
L 106.961969 142.318797 
L 108.153841 134.257294 
L 109.107313 126.195791 
L 109.58407 118.134251 
L 110.299185 109.266608 
L 111.0143 102.011244 
L 111.491036 93.143565 
L 112.20615 85.082062 
L 112.921265 74.602067 
L 113.398001 65.734425 
L 114.113115 56.866745 
L 114.82823 48.805242 
L 115.066609 41.549878 
L 116.020103 34.294514 
L 117.211953 27.03915 
L 118.642182 21.396065 
L 119.834033 18.171471 
L 121.502641 21.396065 
L 123.171249 27.845289 
L 124.601479 35.100653 
L 125.793329 43.162157 
L 127.223559 51.223697 
L 128.892167 58.479061 
L 130.322396 65.734425 
L 132.46774 70.571334 
L 134.613085 75.408243 
L 137.235164 77.826698 
L 139.618887 79.438976 
L 142.956082 81.051292 
L 145.816541 81.857431 
L 148.438621 83.469746 
L 151.537458 84.275886 
L 154.874653 84.275886 
L 157.973491 84.275886 
L 162.740915 84.275886 
L 165.124638 83.469746 
L 168.461832 82.663607 
L 171.799049 81.857431 
L 176.328094 81.051292 
L 180.380425 81.051292 
L 183.240884 81.857431 
L 186.101342 82.663607 
L 189.915273 83.469746 
L 193.014111 84.275886 
L 196.112948 84.275886 
L 199.926879 85.082062 
L 203.502452 84.275886 
L 206.362911 84.275886 
L 209.461749 83.469746 
L 212.322207 82.663607 
L 215.182666 82.663607 
L 217.804746 81.857431 
L 221.141962 81.051292 
L 223.525664 80.245152 
L 226.147765 79.438976 
L 229.48496 78.632837 
L 231.4 78.632837 
" clip-path="url(#p324322d92c)" style="fill: none; stroke: #c5b0d4; stroke-width: 2; stroke-linecap: square"/>
   </g>
   <g id="line2d_4">
    <path d="M 31.874927 81.051292 
L 225.432651 81.051292 
" clip-path="url(#p324322d92c)" style="fill: none; stroke-dasharray: 1.5,6; stroke-dashoffset: 0; stroke: #c0c0c0; stroke-width: 1.5"/>
   </g>
   <g id="line2d_5">
    <path d="M 33.257483 201.167885 
L 36.022593 201.167885 
L 38.787703 201.167885 
L 41.552814 201.167885 
L 44.317924 201.167885 
L 47.083034 201.167885 
L 49.848145 201.167885 
L 52.613255 201.167885 
L 55.378365 201.167885 
L 58.143476 201.167885 
L 60.908586 201.167885 
L 63.673696 201.167885 
L 66.438807 201.167885 
L 69.203917 201.050342 
L 71.969027 198.827923 
L 74.734138 179.292596 
L 77.499248 121.319031 
L 80.264358 61.833671 
L 83.029469 51.088308 
L 85.794579 78.488323 
L 88.559689 114.703651 
L 91.3248 142.736602 
L 94.08991 162.225399 
L 96.85502 171.456746 
L 99.620131 173.725854 
L 102.385241 172.370662 
L 105.150351 165.949716 
L 107.915462 151.047183 
L 110.680572 126.527081 
L 113.445682 92.706555 
L 116.210793 56.892693 
L 118.975903 26.824001 
L 121.741013 12.436795 
L 124.506124 16.212357 
L 127.271234 29.536279 
L 130.036344 45.050684 
L 132.801455 59.806022 
L 135.566565 69.668009 
L 138.331675 74.832569 
L 141.096786 79.573792 
L 143.861896 82.174125 
L 146.627006 83.09949 
L 149.392117 84.602558 
L 152.157227 86.525385 
L 154.922337 86.755444 
L 157.687448 88.838121 
L 160.452558 88.531867 
L 163.217668 86.932012 
L 165.982779 86.200665 
L 168.747889 86.875727 
L 171.512999 86.363028 
L 174.27811 85.739304 
L 177.04322 84.952561 
L 179.80833 83.347931 
L 182.573441 82.362916 
L 185.338551 82.466525 
L 188.103661 82.176694 
L 190.868771 82.732777 
L 193.633882 83.134842 
L 196.398992 83.150119 
L 199.164102 83.427964 
L 201.929213 83.843077 
L 204.694323 83.03816 
L 207.459433 81.848388 
L 210.224544 81.574131 
L 212.989654 81.580944 
L 215.754764 81.174544 
L 218.519875 79.968292 
L 221.284985 79.596528 
L 224.050095 79.112767 
" clip-path="url(#p324322d92c)" style="fill: none; stroke: #4abbf3; stroke-width: 2; stroke-linecap: square"/>
   </g>
   <g id="line2d_6">
    <path d="M 31.874927 201.167885 
L 64.226718 201.05978 
L 65.056251 200.903628 
L 65.885785 200.567302 
L 66.715318 199.918672 
L 67.544851 198.705495 
L 68.374384 196.699548 
L 69.203917 193.636575 
L 70.03345 189.432494 
L 70.862983 184.111329 
L 71.692516 177.709114 
L 73.351582 162.430284 
L 75.010649 144.701074 
L 79.158314 97.375137 
L 79.987847 89.567558 
L 80.81738 83.381554 
L 81.646913 78.949251 
L 82.476447 76.306686 
L 83.30598 75.994383 
L 84.135513 77.615957 
L 84.965046 81.267502 
L 85.794579 86.480562 
L 86.624112 92.966858 
L 88.283178 108.582015 
L 90.771778 133.554255 
L 92.430844 148.148421 
L 93.260377 154.466554 
L 94.08991 159.907835 
L 94.919443 164.484277 
L 95.748976 168.26795 
L 96.578509 171.222818 
L 97.408042 173.468999 
L 98.237575 174.958444 
L 99.067109 175.79926 
L 99.896642 175.907365 
L 100.726175 175.318794 
L 101.555708 174.069582 
L 102.385241 172.075646 
L 103.214774 169.252906 
L 104.044307 165.697455 
L 104.87384 161.361246 
L 105.703373 156.148186 
L 107.36244 143.475885 
L 109.021506 128.08895 
L 111.510105 101.723357 
L 114.828237 66.168846 
L 116.487304 50.769899 
L 117.316837 44.115439 
L 118.14637 38.385878 
L 118.975903 33.497132 
L 119.805436 29.617366 
L 120.634969 26.722557 
L 121.464502 24.824714 
L 122.294035 23.983898 
L 123.123568 24.116026 
L 123.953102 25.221099 
L 124.782635 27.10693 
L 125.612168 29.71346 
L 127.271234 36.59614 
L 132.248432 60.691529 
L 133.907499 66.99765 
L 135.566565 71.850361 
L 136.396098 73.748203 
L 137.225631 75.357765 
L 138.884697 77.820155 
L 139.71423 78.709018 
L 141.373297 80.030301 
L 143.032363 80.907152 
L 144.691429 81.519746 
L 148.009561 82.372574 
L 152.98676 83.549717 
L 157.134425 84.498638 
L 160.452558 84.991116 
L 162.941157 85.039163 
L 164.600223 84.931058 
L 167.088823 84.546685 
L 169.577422 83.922078 
L 172.895554 82.901087 
L 177.04322 81.627851 
L 179.531819 81.003245 
L 182.020418 80.630884 
L 184.509018 80.594849 
L 186.168084 80.714965 
L 187.82715 80.979222 
L 191.974816 82.108318 
L 193.633882 82.636831 
L 197.781547 83.78995 
L 200.270147 84.198346 
L 202.758746 84.282428 
L 206.076878 83.898055 
L 209.395011 83.105285 
L 221.008474 79.669951 
L 223.497073 79.189484 
L 225.985673 78.841146 
L 229.303805 78.600913 
L 231.4 78.546537 
L 231.4 78.546537 
" clip-path="url(#p324322d92c)" style="fill: none; stroke-dasharray: 10,8; stroke-dashoffset: 0; stroke: #6c757d; stroke-width: 2"/>
   </g>
   <g id="matplotlib.axis_1">
    <g id="xtick_1">
     <g id="line2d_7">
      <defs>
       <path id="mc5e4fbe33e" d="M 0 0 
L 0 3.5 
" style="stroke: #c2c1c1; stroke-width: 0.8"/>
      </defs>
      <g>
       <use xlink:href="#mc5e4fbe33e" x="31.874927" y="201.167885" style="fill: #c2c1c1; stroke: #c2c1c1; stroke-width: 0.8"/>
      </g>
     </g>
     <g id="text_1">
      <!-- 0 -->
      <g style="fill: #191919" transform="translate(29.907818 213.417885)scale(0.07 -0.07)">
       <defs>
        <path id="Roboto-Regular-30" d="M 3234 1944 
Q 3234 825 2848 381 
Q 2463 -63 1800 -63 
Q 1156 -63 764 368 
Q 372 800 359 1872 
L 359 2638 
Q 359 3753 750 4183 
Q 1141 4613 1794 4613 
Q 2447 4613 2834 4195 
Q 3222 3778 3234 2709 
L 3234 1944 
z
M 2653 2734 
Q 2653 3503 2434 3822 
Q 2216 4141 1794 4141 
Q 1388 4141 1167 3831 
Q 947 3522 941 2778 
L 941 1850 
Q 941 1088 1164 750 
Q 1388 413 1800 413 
Q 2222 413 2436 745 
Q 2650 1078 2653 1825 
L 2653 2734 
z
" transform="scale(0.015625)"/>
       </defs>
       <use xlink:href="#Roboto-Regular-30"/>
      </g>
     </g>
    </g>
    <g id="xtick_2">
     <g id="line2d_8">
      <g>
       <use xlink:href="#mc5e4fbe33e" x="59.526031" y="201.167885" style="fill: #c2c1c1; stroke: #c2c1c1; stroke-width: 0.8"/>
      </g>
     </g>
     <g id="text_2">
      <!-- 1 -->
      <g style="fill: #191919" transform="translate(57.558921 213.417885)scale(0.07 -0.07)">
       <defs>
        <path id="Roboto-Regular-31" d="M 2278 4575 
L 2278 0 
L 1700 0 
L 1700 3853 
L 534 3428 
L 534 3950 
L 2188 4575 
L 2278 4575 
z
" transform="scale(0.015625)"/>
       </defs>
       <use xlink:href="#Roboto-Regular-31"/>
      </g>
     </g>
    </g>
    <g id="xtick_3">
     <g id="line2d_9">
      <g>
       <use xlink:href="#mc5e4fbe33e" x="87.177134" y="201.167885" style="fill: #c2c1c1; stroke: #c2c1c1; stroke-width: 0.8"/>
      </g>
     </g>
     <g id="text_3">
      <!-- 2 -->
      <g style="fill: #191919" transform="translate(85.210025 213.417885)scale(0.07 -0.07)">
       <defs>
        <path id="Roboto-Regular-32" d="M 3359 475 
L 3359 0 
L 381 0 
L 381 416 
L 1925 2134 
Q 2306 2566 2439 2819 
Q 2572 3072 2572 3328 
Q 2572 3663 2364 3900 
Q 2156 4138 1778 4138 
Q 1322 4138 1097 3878 
Q 872 3619 872 3213 
L 294 3213 
Q 294 3788 672 4200 
Q 1050 4613 1778 4613 
Q 2422 4613 2786 4278 
Q 3150 3944 3150 3397 
Q 3150 2997 2903 2592 
Q 2656 2188 2297 1797 
L 1078 475 
L 3359 475 
z
" transform="scale(0.015625)"/>
       </defs>
       <use xlink:href="#Roboto-Regular-32"/>
      </g>
     </g>
    </g>
    <g id="xtick_4">
     <g id="line2d_10">
      <g>
       <use xlink:href="#mc5e4fbe33e" x="114.828237" y="201.167885" style="fill: #c2c1c1; stroke: #c2c1c1; stroke-width: 0.8"/>
      </g>
     </g>
     <g id="text_4">
      <!-- 3 -->
      <g style="fill: #191919" transform="translate(112.861128 213.417885)scale(0.07 -0.07)">
       <defs>
        <path id="Roboto-Regular-33" d="M 1222 2084 
L 1222 2559 
L 1647 2559 
Q 2094 2563 2312 2784 
Q 2531 3006 2531 3338 
Q 2531 4138 1738 4138 
Q 1369 4138 1141 3927 
Q 913 3716 913 3359 
L 334 3359 
Q 334 3881 720 4247 
Q 1106 4613 1738 4613 
Q 2353 4613 2733 4286 
Q 3113 3959 3113 3325 
Q 3113 3072 2942 2784 
Q 2772 2497 2397 2338 
Q 2850 2191 3015 1884 
Q 3181 1578 3181 1269 
Q 3181 631 2768 284 
Q 2356 -63 1741 -63 
Q 1147 -63 722 267 
Q 297 597 297 1203 
L 875 1203 
Q 875 844 1108 628 
Q 1341 413 1741 413 
Q 2138 413 2369 622 
Q 2600 831 2600 1256 
Q 2600 1681 2337 1882 
Q 2075 2084 1634 2084 
L 1222 2084 
z
" transform="scale(0.015625)"/>
       </defs>
       <use xlink:href="#Roboto-Regular-33"/>
      </g>
     </g>
    </g>
    <g id="xtick_5">
     <g id="line2d_11">
      <g>
       <use xlink:href="#mc5e4fbe33e" x="142.479341" y="201.167885" style="fill: #c2c1c1; stroke: #c2c1c1; stroke-width: 0.8"/>
      </g>
     </g>
     <g id="text_5">
      <!-- 4 -->
      <g style="fill: #191919" transform="translate(140.512231 213.417885)scale(0.07 -0.07)">
       <defs>
        <path id="Roboto-Regular-34" d="M 166 1397 
L 2203 4550 
L 2819 4550 
L 2819 1531 
L 3453 1531 
L 3453 1056 
L 2819 1056 
L 2819 0 
L 2241 0 
L 2241 1056 
L 166 1056 
L 166 1397 
z
M 822 1531 
L 2241 1531 
L 2241 3766 
L 2169 3638 
L 822 1531 
z
" transform="scale(0.015625)"/>
       </defs>
       <use xlink:href="#Roboto-Regular-34"/>
      </g>
     </g>
    </g>
    <g id="xtick_6">
     <g id="line2d_12">
      <g>
       <use xlink:href="#mc5e4fbe33e" x="170.130444" y="201.167885" style="fill: #c2c1c1; stroke: #c2c1c1; stroke-width: 0.8"/>
      </g>
     </g>
     <g id="text_6">
      <!-- 5 -->
      <g style="fill: #191919" transform="translate(168.163335 213.417885)scale(0.07 -0.07)">
       <defs>
        <path id="Roboto-Regular-35" d="M 1109 2166 
L 647 2284 
L 875 4550 
L 3209 4550 
L 3209 4016 
L 1366 4016 
L 1228 2778 
Q 1572 2975 1988 2975 
Q 2616 2975 2980 2561 
Q 3344 2147 3344 1450 
Q 3344 797 2987 367 
Q 2631 -63 1903 -63 
Q 1350 -63 947 248 
Q 544 559 481 1197 
L 1031 1197 
Q 1141 413 1903 413 
Q 2313 413 2538 691 
Q 2763 969 2763 1444 
Q 2763 1872 2527 2164 
Q 2291 2456 1853 2456 
Q 1563 2456 1413 2378 
Q 1263 2300 1109 2166 
z
" transform="scale(0.015625)"/>
       </defs>
       <use xlink:href="#Roboto-Regular-35"/>
      </g>
     </g>
    </g>
    <g id="xtick_7">
     <g id="line2d_13">
      <g>
       <use xlink:href="#mc5e4fbe33e" x="197.781547" y="201.167885" style="fill: #c2c1c1; stroke: #c2c1c1; stroke-width: 0.8"/>
      </g>
     </g>
     <g id="text_7">
      <!-- 6 -->
      <g style="fill: #191919" transform="translate(195.814438 213.417885)scale(0.07 -0.07)">
       <defs>
        <path id="Roboto-Regular-36" d="M 3291 1484 
Q 3291 838 2930 387 
Q 2569 -63 1878 -63 
Q 1388 -63 1063 198 
Q 738 459 577 861 
Q 416 1263 416 1684 
L 416 1956 
Q 416 2597 595 3194 
Q 775 3791 1247 4173 
Q 1719 4556 2597 4556 
L 2647 4556 
L 2647 4066 
Q 2041 4066 1705 3853 
Q 1369 3641 1205 3302 
Q 1041 2963 1006 2575 
Q 1369 2984 1984 2984 
Q 2438 2984 2727 2765 
Q 3016 2547 3153 2201 
Q 3291 1856 3291 1484 
z
M 997 1666 
Q 997 1059 1267 737 
Q 1538 416 1878 416 
Q 2278 416 2498 708 
Q 2719 1000 2719 1456 
Q 2719 1863 2516 2184 
Q 2313 2506 1891 2506 
Q 1588 2506 1341 2325 
Q 1094 2144 997 1884 
L 997 1666 
z
" transform="scale(0.015625)"/>
       </defs>
       <use xlink:href="#Roboto-Regular-36"/>
      </g>
     </g>
    </g>
    <g id="xtick_8">
     <g id="line2d_14">
      <g>
       <use xlink:href="#mc5e4fbe33e" x="225.432651" y="201.167885" style="fill: #c2c1c1; stroke: #c2c1c1; stroke-width: 0.8"/>
      </g>
     </g>
     <g id="text_8">
      <!-- 7 -->
      <g style="fill: #191919" transform="translate(223.465541 213.417885)scale(0.07 -0.07)">
       <defs>
        <path id="Roboto-Regular-37" d="M 3319 4550 
L 3319 4225 
L 1434 0 
L 825 0 
L 2706 4075 
L 244 4075 
L 244 4550 
L 3319 4550 
z
" transform="scale(0.015625)"/>
       </defs>
       <use xlink:href="#Roboto-Regular-37"/>
      </g>
     </g>
    </g>
    <g id="text_9">
     <!-- r $\left( \mathbf{\AA} \right)$ -->
     <g style="fill: #191919" transform="translate(119.973789 225.77476)scale(0.08 -0.08)">
      <defs>
       <path id="Roboto-Bold-72" d="M 1922 2563 
Q 1413 2563 1253 2216 
L 1253 0 
L 347 0 
L 347 3381 
L 1200 3381 
L 1228 2978 
Q 1494 3444 1981 3444 
Q 2153 3444 2259 3403 
L 2250 2538 
L 1922 2563 
z
" transform="scale(0.015625)"/>
       <path id="Roboto-Bold-20" transform="scale(0.015625)"/>
       <path id="DejaVuSans-28" d="M 1984 4856 
Q 1566 4138 1362 3434 
Q 1159 2731 1159 2009 
Q 1159 1288 1364 580 
Q 1569 -128 1984 -844 
L 1484 -844 
Q 1016 -109 783 600 
Q 550 1309 550 2009 
Q 550 2706 781 3412 
Q 1013 4119 1484 4856 
L 1984 4856 
z
" transform="scale(0.015625)"/>
       <path id="DejaVuSans-Bold-c5" d="M 3225 4575 
L 4922 0 
L 3713 0 
L 3419 850 
L 1538 850 
L 1241 0 
L 31 0 
L 1728 4575 
Q 1656 4681 1622 4798 
Q 1588 4916 1588 5050 
Q 1588 5416 1848 5678 
Q 2109 5941 2478 5941 
Q 2841 5941 3103 5678 
Q 3366 5416 3366 5050 
Q 3366 4903 3331 4784 
Q 3297 4666 3225 4575 
z
M 2069 5050 
Q 2069 4881 2189 4761 
Q 2309 4641 2478 4641 
Q 2647 4641 2767 4761 
Q 2888 4881 2888 5050 
Q 2888 5219 2766 5339 
Q 2644 5459 2478 5459 
Q 2309 5459 2189 5339 
Q 2069 5219 2069 5050 
z
M 1838 1716 
L 3116 1716 
L 2478 3572 
L 1838 1716 
z
" transform="scale(0.015625)"/>
       <path id="DejaVuSans-29" d="M 513 4856 
L 1013 4856 
Q 1481 4119 1714 3412 
Q 1947 2706 1947 2009 
Q 1947 1309 1714 600 
Q 1481 -109 1013 -844 
L 513 -844 
Q 928 -128 1133 580 
Q 1338 1288 1338 2009 
Q 1338 2731 1133 3434 
Q 928 4138 513 4856 
z
" transform="scale(0.015625)"/>
      </defs>
      <use xlink:href="#Roboto-Bold-72" transform="translate(0 0.171875)"/>
      <use xlink:href="#Roboto-Bold-20" transform="translate(36.523438 0.171875)"/>
      <use xlink:href="#DejaVuSans-28" transform="translate(61.425781 0.171875)"/>
      <use xlink:href="#DejaVuSans-Bold-c5" transform="translate(100.439453 0.171875)"/>
      <use xlink:href="#DejaVuSans-29" transform="translate(177.832031 0.171875)"/>
     </g>
    </g>
   </g>
   <g id="matplotlib.axis_2">
    <g id="ytick_1">
     <g id="line2d_15">
      <defs>
       <path id="m532b54245f" d="M 0 0 
L -3.5 0 
" style="stroke: #c2c1c1; stroke-width: 0.8"/>
      </defs>
      <g>
       <use xlink:href="#m532b54245f" x="31.874927" y="201.167885" style="fill: #c2c1c1; stroke: #c2c1c1; stroke-width: 0.8"/>
      </g>
     </g>
     <g id="text_10">
      <!-- 0.0 -->
      <g style="fill: #191919" transform="translate(15.16024 203.792885)scale(0.07 -0.07)">
       <defs>
        <path id="Roboto-Regular-2e" d="M 450 306 
Q 450 453 542 554 
Q 634 656 809 656 
Q 984 656 1076 554 
Q 1169 453 1169 306 
Q 1169 163 1076 62 
Q 984 -38 809 -38 
Q 634 -38 542 62 
Q 450 163 450 306 
z
" transform="scale(0.015625)"/>
       </defs>
       <use xlink:href="#Roboto-Regular-30"/>
       <use xlink:href="#Roboto-Regular-2e" x="56.201172"/>
       <use xlink:href="#Roboto-Regular-30" x="82.568359"/>
      </g>
     </g>
    </g>
    <g id="ytick_2">
     <g id="line2d_16">
      <g>
       <use xlink:href="#m532b54245f" x="31.874927" y="177.144566" style="fill: #c2c1c1; stroke: #c2c1c1; stroke-width: 0.8"/>
      </g>
     </g>
     <g id="text_11">
      <!-- 0.2 -->
      <g style="fill: #191919" transform="translate(15.16024 179.769566)scale(0.07 -0.07)">
       <use xlink:href="#Roboto-Regular-30"/>
       <use xlink:href="#Roboto-Regular-2e" x="56.201172"/>
       <use xlink:href="#Roboto-Regular-32" x="82.568359"/>
      </g>
     </g>
    </g>
    <g id="ytick_3">
     <g id="line2d_17">
      <g>
       <use xlink:href="#m532b54245f" x="31.874927" y="153.121248" style="fill: #c2c1c1; stroke: #c2c1c1; stroke-width: 0.8"/>
      </g>
     </g>
     <g id="text_12">
      <!-- 0.4 -->
      <g style="fill: #191919" transform="translate(15.16024 155.746248)scale(0.07 -0.07)">
       <use xlink:href="#Roboto-Regular-30"/>
       <use xlink:href="#Roboto-Regular-2e" x="56.201172"/>
       <use xlink:href="#Roboto-Regular-34" x="82.568359"/>
      </g>
     </g>
    </g>
    <g id="ytick_4">
     <g id="line2d_18">
      <g>
       <use xlink:href="#m532b54245f" x="31.874927" y="129.097929" style="fill: #c2c1c1; stroke: #c2c1c1; stroke-width: 0.8"/>
      </g>
     </g>
     <g id="text_13">
      <!-- 0.6 -->
      <g style="fill: #191919" transform="translate(15.16024 131.722929)scale(0.07 -0.07)">
       <use xlink:href="#Roboto-Regular-30"/>
       <use xlink:href="#Roboto-Regular-2e" x="56.201172"/>
       <use xlink:href="#Roboto-Regular-36" x="82.568359"/>
      </g>
     </g>
    </g>
    <g id="ytick_5">
     <g id="line2d_19">
      <g>
       <use xlink:href="#m532b54245f" x="31.874927" y="105.07461" style="fill: #c2c1c1; stroke: #c2c1c1; stroke-width: 0.8"/>
      </g>
     </g>
     <g id="text_14">
      <!-- 0.8 -->
      <g style="fill: #191919" transform="translate(15.16024 107.69961)scale(0.07 -0.07)">
       <defs>
        <path id="Roboto-Regular-38" d="M 3244 1231 
Q 3244 606 2826 271 
Q 2409 -63 1796 -63 
Q 1184 -63 767 271 
Q 350 606 350 1231 
Q 350 1613 554 1905 
Q 759 2197 1109 2347 
Q 806 2494 629 2762 
Q 453 3031 453 3366 
Q 453 3963 833 4288 
Q 1213 4613 1794 4613 
Q 2378 4613 2758 4288 
Q 3138 3963 3138 3366 
Q 3138 3028 2956 2761 
Q 2775 2494 2472 2347 
Q 2825 2197 3034 1903 
Q 3244 1609 3244 1231 
z
M 2559 3356 
Q 2559 3697 2346 3917 
Q 2134 4138 1793 4138 
Q 1453 4138 1243 3927 
Q 1034 3716 1034 3356 
Q 1034 3003 1243 2790 
Q 1453 2578 1797 2578 
Q 2138 2578 2348 2790 
Q 2559 3003 2559 3356 
z
M 2663 1244 
Q 2663 1625 2420 1865 
Q 2178 2106 1791 2106 
Q 1394 2106 1161 1865 
Q 928 1625 928 1244 
Q 928 850 1161 631 
Q 1394 413 1797 413 
Q 2200 413 2431 631 
Q 2663 850 2663 1244 
z
" transform="scale(0.015625)"/>
       </defs>
       <use xlink:href="#Roboto-Regular-30"/>
       <use xlink:href="#Roboto-Regular-2e" x="56.201172"/>
       <use xlink:href="#Roboto-Regular-38" x="82.568359"/>
      </g>
     </g>
    </g>
    <g id="ytick_6">
     <g id="line2d_20">
      <g>
       <use xlink:href="#m532b54245f" x="31.874927" y="81.051292" style="fill: #c2c1c1; stroke: #c2c1c1; stroke-width: 0.8"/>
      </g>
     </g>
     <g id="text_15">
      <!-- 1.0 -->
      <g style="fill: #191919" transform="translate(15.16024 83.676292)scale(0.07 -0.07)">
       <use xlink:href="#Roboto-Regular-31"/>
       <use xlink:href="#Roboto-Regular-2e" x="56.201172"/>
       <use xlink:href="#Roboto-Regular-30" x="82.568359"/>
      </g>
     </g>
    </g>
    <g id="ytick_7">
     <g id="line2d_21">
      <g>
       <use xlink:href="#m532b54245f" x="31.874927" y="57.027973" style="fill: #c2c1c1; stroke: #c2c1c1; stroke-width: 0.8"/>
      </g>
     </g>
     <g id="text_16">
      <!-- 1.2 -->
      <g style="fill: #191919" transform="translate(15.16024 59.652973)scale(0.07 -0.07)">
       <use xlink:href="#Roboto-Regular-31"/>
       <use xlink:href="#Roboto-Regular-2e" x="56.201172"/>
       <use xlink:href="#Roboto-Regular-32" x="82.568359"/>
      </g>
     </g>
    </g>
    <g id="ytick_8">
     <g id="line2d_22">
      <g>
       <use xlink:href="#m532b54245f" x="31.874927" y="33.004654" style="fill: #c2c1c1; stroke: #c2c1c1; stroke-width: 0.8"/>
      </g>
     </g>
     <g id="text_17">
      <!-- 1.4 -->
      <g style="fill: #191919" transform="translate(15.16024 35.629654)scale(0.07 -0.07)">
       <use xlink:href="#Roboto-Regular-31"/>
       <use xlink:href="#Roboto-Regular-2e" x="56.201172"/>
       <use xlink:href="#Roboto-Regular-34" x="82.568359"/>
      </g>
     </g>
    </g>
    <g id="ytick_9">
     <g id="line2d_23">
      <g>
       <use xlink:href="#m532b54245f" x="31.874927" y="8.981336" style="fill: #c2c1c1; stroke: #c2c1c1; stroke-width: 0.8"/>
      </g>
     </g>
     <g id="text_18">
      <!-- 1.6 -->
      <g style="fill: #191919" transform="translate(15.16024 11.606336)scale(0.07 -0.07)">
       <use xlink:href="#Roboto-Regular-31"/>
       <use xlink:href="#Roboto-Regular-2e" x="56.201172"/>
       <use xlink:href="#Roboto-Regular-36" x="82.568359"/>
      </g>
     </g>
    </g>
    <g id="text_19">
     <!-- g$\mathregular{_{OH}}$(r) -->
     <g style="fill: #191919" transform="translate(9.32024 112.724062)rotate(-90)scale(0.08 -0.08)">
      <defs>
       <path id="Roboto-Bold-67" d="M 1681 -1331 
Q 1375 -1331 1008 -1203 
Q 641 -1075 422 -803 
L 822 -253 
Q 1156 -628 1644 -628 
Q 2003 -628 2203 -436 
Q 2403 -244 2403 113 
L 2403 294 
Q 2084 -63 1581 -63 
Q 953 -63 587 418 
Q 222 900 216 1625 
L 216 1716 
Q 216 2488 583 2966 
Q 950 3444 1588 3444 
Q 2147 3444 2456 3063 
L 2491 3381 
L 3309 3381 
L 3309 116 
Q 3309 -581 2857 -956 
Q 2406 -1331 1681 -1331 
z
M 1119 1650 
Q 1119 1244 1286 958 
Q 1453 672 1809 672 
Q 2222 672 2403 984 
L 2403 2403 
Q 2225 2713 1816 2713 
Q 1463 2713 1291 2423 
Q 1119 2134 1119 1716 
L 1119 1650 
z
" transform="scale(0.015625)"/>
       <path id="Roboto-Bold-4f" d="M 4147 2172 
Q 4147 1131 3608 534 
Q 3069 -63 2212 -63 
Q 1356 -63 812 534 
Q 269 1131 269 2172 
L 269 2375 
Q 269 3416 809 4014 
Q 1350 4613 2206 4613 
Q 3063 4613 3605 4014 
Q 4147 3416 4147 2375 
L 4147 2172 
z
M 3197 2381 
Q 3197 3094 2937 3466 
Q 2678 3838 2206 3838 
Q 1734 3838 1478 3470 
Q 1222 3103 1219 2397 
L 1219 2172 
Q 1219 1463 1478 1086 
Q 1738 709 2213 709 
Q 2684 709 2939 1081 
Q 3194 1453 3197 2156 
L 3197 2381 
z
" transform="scale(0.015625)"/>
       <path id="Roboto-Bold-48" d="M 3175 0 
L 3175 1950 
L 1347 1950 
L 1347 0 
L 406 0 
L 406 4550 
L 1347 4550 
L 1347 2706 
L 3175 2706 
L 3175 4550 
L 4113 4550 
L 4113 0 
L 3175 0 
z
" transform="scale(0.015625)"/>
       <path id="Roboto-Bold-28" d="M 391 1850 
Q 391 2731 633 3392 
Q 875 4053 1234 4473 
Q 1594 4894 1947 5053 
L 2122 4566 
Q 1772 4303 1465 3661 
Q 1159 3019 1153 1906 
L 1153 1772 
Q 1153 628 1461 -23 
Q 1769 -675 2122 -944 
L 1947 -1422 
Q 1594 -1266 1234 -845 
Q 875 -425 633 237 
Q 391 900 391 1778 
L 391 1850 
z
" transform="scale(0.015625)"/>
       <path id="Roboto-Bold-29" d="M 1906 1778 
Q 1906 928 1656 264 
Q 1406 -400 1034 -833 
Q 663 -1266 300 -1422 
L 125 -944 
Q 472 -684 780 -37 
Q 1088 609 1094 1722 
L 1094 1856 
Q 1094 3000 780 3656 
Q 466 4313 125 4572 
L 300 5053 
Q 663 4894 1034 4461 
Q 1406 4028 1656 3364 
Q 1906 2700 1906 1847 
L 1906 1778 
z
" transform="scale(0.015625)"/>
      </defs>
      <use xlink:href="#Roboto-Bold-67" transform="translate(0 0.046875)"/>
      <use xlink:href="#Roboto-Bold-4f" transform="translate(58.053398 -15.801563)scale(0.7)"/>
      <use xlink:href="#Roboto-Bold-48" transform="translate(106.383477 -15.801563)scale(0.7)"/>
      <use xlink:href="#Roboto-Bold-28" transform="translate(158.51707 0.046875)"/>
      <use xlink:href="#Roboto-Bold-72" transform="translate(193.624492 0.046875)"/>
      <use xlink:href="#Roboto-Bold-29" transform="translate(230.14793 0.046875)"/>
     </g>
    </g>
   </g>
   <g id="patch_3">
    <path d="M 31.874927 201.167885 
L 31.874927 3.00024 
" style="fill: none; stroke: #c2c1c1; stroke-width: 0.8; stroke-linejoin: miter; stroke-linecap: square"/>
   </g>
   <g id="patch_4">
    <path d="M 225.432651 201.167885 
L 225.432651 3.00024 
" style="fill: none; stroke: #c2c1c1; stroke-width: 0.8; stroke-linejoin: miter; stroke-linecap: square"/>
   </g>
   <g id="patch_5">
    <path d="M 31.874927 201.167885 
L 225.432651 201.167885 
" style="fill: none; stroke: #c2c1c1; stroke-width: 0.8; stroke-linejoin: miter; stroke-linecap: square"/>
   </g>
   <g id="patch_6">
    <path d="M 31.874927 3.00024 
L 225.432651 3.00024 
" style="fill: none; stroke: #c2c1c1; stroke-width: 0.8; stroke-linejoin: miter; stroke-linecap: square"/>
   </g>
   <g id="legend_1">
    <g id="line2d_24">
     <path d="M 149.335151 13.40024 
L 157.335151 13.40024 
L 165.335151 13.40024 
" style="fill: none; stroke: #4abbf3; stroke-width: 2; stroke-linecap: square"/>
    </g>
    <g id="text_20">
     <!-- mbGDML -->
     <g transform="translate(171.735151 16.20024)scale(0.08 -0.08)">
      <defs>
       <path id="Roboto-Regular-6d" d="M 1794 2956 
Q 1225 2956 1016 2478 
L 1016 0 
L 434 0 
L 434 3381 
L 984 3381 
L 1000 3013 
Q 1366 3444 2000 3444 
Q 2325 3444 2579 3314 
Q 2834 3184 2969 2900 
Q 3138 3144 3408 3294 
Q 3678 3444 4044 3444 
Q 4588 3444 4883 3153 
Q 5178 2863 5178 2222 
L 5178 0 
L 4597 0 
L 4597 2228 
Q 4597 2653 4401 2804 
Q 4206 2956 3875 2956 
Q 3525 2956 3325 2748 
Q 3125 2541 3094 2244 
L 3094 0 
L 2516 0 
L 2516 2225 
Q 2516 2622 2319 2789 
Q 2122 2956 1794 2956 
z
" transform="scale(0.015625)"/>
       <path id="Roboto-Regular-62" d="M 3303 1653 
Q 3303 913 2959 425 
Q 2616 -63 1988 -63 
Q 1347 -63 1000 391 
L 969 0 
L 438 0 
L 438 4800 
L 1019 4800 
L 1019 3016 
Q 1363 3444 1981 3444 
Q 2619 3444 2961 2969 
Q 3303 2494 3303 1719 
L 3303 1653 
z
M 1838 2956 
Q 1522 2956 1325 2804 
Q 1128 2653 1019 2431 
L 1019 959 
Q 1131 734 1331 581 
Q 1531 428 1844 428 
Q 2313 428 2517 789 
Q 2722 1150 2722 1653 
L 2722 1719 
Q 2722 2222 2526 2589 
Q 2331 2956 1838 2956 
z
" transform="scale(0.015625)"/>
       <path id="Roboto-Regular-47" d="M 3891 2266 
L 3891 600 
Q 3763 413 3403 175 
Q 3044 -63 2281 -63 
Q 1450 -63 915 507 
Q 381 1078 381 2100 
L 381 2453 
Q 381 3469 856 4041 
Q 1331 4613 2213 4613 
Q 2994 4613 3398 4219 
Q 3803 3825 3891 3219 
L 3288 3219 
Q 3225 3588 2979 3853 
Q 2734 4119 2213 4119 
Q 1584 4119 1287 3676 
Q 991 3234 988 2475 
L 988 2100 
Q 988 1313 1344 870 
Q 1700 428 2284 428 
Q 2769 428 2984 542 
Q 3200 656 3291 759 
L 3291 1778 
L 2238 1778 
L 2238 2266 
L 3891 2266 
z
" transform="scale(0.015625)"/>
       <path id="Roboto-Regular-44" d="M 528 0 
L 528 4550 
L 1816 4550 
Q 2713 4550 3267 3973 
Q 3822 3397 3822 2409 
L 3822 2138 
Q 3822 1150 3264 575 
Q 2706 0 1759 0 
L 528 0 
z
M 1131 4056 
L 1131 491 
L 1759 491 
Q 2488 491 2856 941 
Q 3225 1391 3225 2138 
L 3225 2416 
Q 3225 3200 2856 3628 
Q 2488 4056 1816 4056 
L 1131 4056 
z
" transform="scale(0.015625)"/>
       <path id="Roboto-Regular-4d" d="M 2794 841 
L 4281 4550 
L 5056 4550 
L 5056 0 
L 4456 0 
L 4456 1775 
L 4516 3678 
L 3019 0 
L 2563 0 
L 1069 3684 
L 1128 1775 
L 1128 0 
L 528 0 
L 528 4550 
L 1303 4550 
L 2794 841 
z
" transform="scale(0.015625)"/>
       <path id="Roboto-Regular-4c" d="M 3288 491 
L 3288 0 
L 528 0 
L 528 4550 
L 1131 4550 
L 1131 491 
L 3288 491 
z
" transform="scale(0.015625)"/>
      </defs>
      <use xlink:href="#Roboto-Regular-6d"/>
      <use xlink:href="#Roboto-Regular-62" x="87.695312"/>
      <use xlink:href="#Roboto-Regular-47" x="143.847656"/>
      <use xlink:href="#Roboto-Regular-44" x="211.962891"/>
      <use xlink:href="#Roboto-Regular-4d" x="277.587891"/>
      <use xlink:href="#Roboto-Regular-4c" x="364.892578"/>
     </g>
    </g>
    <g id="line2d_25">
     <path d="M 149.335151 25.02524 
L 157.335151 25.02524 
L 165.335151 25.02524 
" style="fill: none; stroke-dasharray: 10,8; stroke-dashoffset: 0; stroke: #6c757d; stroke-width: 2"/>
    </g>
    <g id="text_21">
     <!-- Experimental -->
     <g transform="translate(171.735151 27.82524)scale(0.08 -0.08)">
      <defs>
       <path id="Roboto-Regular-45" d="M 528 0 
L 528 4550 
L 3388 4550 
L 3388 4056 
L 1131 4056 
L 1131 2594 
L 3100 2594 
L 3100 2103 
L 1131 2103 
L 1131 491 
L 3419 491 
L 3419 0 
L 528 0 
z
" transform="scale(0.015625)"/>
       <path id="Roboto-Regular-78" d="M 831 3381 
L 1572 2150 
L 2322 3381 
L 3000 3381 
L 1894 1713 
L 3034 0 
L 2366 0 
L 1584 1269 
L 803 0 
L 131 0 
L 1269 1713 
L 166 3381 
L 831 3381 
z
" transform="scale(0.015625)"/>
       <path id="Roboto-Regular-70" d="M 1984 -63 
Q 1375 -63 1019 328 
L 1019 -1300 
L 438 -1300 
L 438 3381 
L 969 3381 
L 997 3009 
Q 1353 3444 1975 3444 
Q 2616 3444 2956 2969 
Q 3297 2494 3297 1719 
L 3297 1653 
Q 3297 913 2955 425 
Q 2613 -63 1984 -63 
z
M 1806 2956 
Q 1281 2956 1019 2491 
L 1019 872 
Q 1284 413 1813 413 
Q 2281 413 2498 781 
Q 2716 1150 2716 1653 
L 2716 1719 
Q 2716 2222 2498 2589 
Q 2281 2956 1806 2956 
z
" transform="scale(0.015625)"/>
       <path id="Roboto-Regular-65" d="M 3116 591 
Q 2950 341 2647 139 
Q 2344 -63 1844 -63 
Q 1138 -63 714 396 
Q 291 856 291 1572 
L 291 1703 
Q 291 2256 502 2645 
Q 713 3034 1050 3239 
Q 1388 3444 1769 3444 
Q 2494 3444 2826 2970 
Q 3159 2497 3159 1788 
L 3159 1528 
L 872 1528 
Q 884 1063 1148 736 
Q 1413 409 1875 409 
Q 2181 409 2393 534 
Q 2606 659 2766 869 
L 3116 591 
z
M 1769 2969 
Q 1425 2969 1187 2719 
Q 950 2469 891 2000 
L 2581 2000 
L 2581 2044 
Q 2559 2381 2386 2675 
Q 2213 2969 1769 2969 
z
" transform="scale(0.015625)"/>
       <path id="Roboto-Regular-72" d="M 1791 2888 
Q 1225 2888 1019 2400 
L 1019 0 
L 441 0 
L 441 3381 
L 1003 3381 
L 1016 2994 
Q 1294 3444 1819 3444 
Q 1981 3444 2075 3400 
L 2072 2863 
Q 1944 2888 1791 2888 
z
" transform="scale(0.015625)"/>
       <path id="Roboto-Regular-69" d="M 444 4278 
Q 444 4419 530 4516 
Q 616 4613 784 4613 
Q 950 4613 1039 4516 
Q 1128 4419 1128 4278 
Q 1128 4144 1039 4048 
Q 950 3953 784 3953 
Q 616 3953 530 4048 
Q 444 4144 444 4278 
z
M 1069 3381 
L 1069 0 
L 488 0 
L 488 3381 
L 1069 3381 
z
" transform="scale(0.015625)"/>
       <path id="Roboto-Regular-6e" d="M 1844 2956 
Q 1566 2956 1353 2806 
Q 1141 2656 1019 2416 
L 1019 0 
L 441 0 
L 441 3381 
L 988 3381 
L 1006 2959 
Q 1391 3444 2016 3444 
Q 2513 3444 2805 3166 
Q 3097 2888 3100 2231 
L 3100 0 
L 2519 0 
L 2519 2222 
Q 2519 2619 2345 2787 
Q 2172 2956 1844 2956 
z
" transform="scale(0.015625)"/>
       <path id="Roboto-Regular-74" d="M 1872 0 
Q 1675 -63 1425 -63 
Q 1103 -63 875 134 
Q 647 331 647 841 
L 647 2938 
L 28 2938 
L 28 3381 
L 647 3381 
L 647 4203 
L 1225 4203 
L 1225 3381 
L 1856 3381 
L 1856 2938 
L 1225 2938 
L 1225 838 
Q 1225 578 1337 506 
Q 1450 434 1597 434 
Q 1706 434 1869 472 
L 1872 0 
z
" transform="scale(0.015625)"/>
       <path id="Roboto-Regular-61" d="M 2528 0 
Q 2472 122 2447 356 
Q 2284 184 2040 60 
Q 1797 -63 1484 -63 
Q 966 -63 653 228 
Q 341 519 341 941 
Q 341 1484 753 1767 
Q 1166 2050 1863 2050 
L 2434 2050 
L 2434 2319 
Q 2434 2619 2254 2798 
Q 2075 2978 1722 2978 
Q 1394 2978 1192 2817 
Q 991 2656 991 2444 
L 413 2444 
Q 413 2806 778 3125 
Q 1144 3444 1756 3444 
Q 2306 3444 2659 3162 
Q 3013 2881 3013 2313 
L 3013 794 
Q 3013 325 3131 50 
L 3131 0 
L 2528 0 
z
M 1569 444 
Q 1881 444 2111 600 
Q 2341 756 2434 947 
L 2434 1644 
L 1897 1644 
Q 922 1625 922 1019 
Q 922 778 1084 611 
Q 1247 444 1569 444 
z
" transform="scale(0.015625)"/>
       <path id="Roboto-Regular-6c" d="M 1069 4800 
L 1069 0 
L 488 0 
L 488 4800 
L 1069 4800 
z
" transform="scale(0.015625)"/>
      </defs>
      <use xlink:href="#Roboto-Regular-45"/>
      <use xlink:href="#Roboto-Regular-78" x="56.835938"/>
      <use xlink:href="#Roboto-Regular-70" x="106.445312"/>
      <use xlink:href="#Roboto-Regular-65" x="162.597656"/>
      <use xlink:href="#Roboto-Regular-72" x="215.625"/>
      <use xlink:href="#Roboto-Regular-69" x="249.511719"/>
      <use xlink:href="#Roboto-Regular-6d" x="273.828125"/>
      <use xlink:href="#Roboto-Regular-65" x="361.523438"/>
      <use xlink:href="#Roboto-Regular-6e" x="414.550781"/>
      <use xlink:href="#Roboto-Regular-74" x="469.775391"/>
      <use xlink:href="#Roboto-Regular-61" x="502.490234"/>
      <use xlink:href="#Roboto-Regular-6c" x="556.884766"/>
     </g>
    </g>
    <g id="line2d_26">
     <path d="M 149.335151 36.65024 
L 157.335151 36.65024 
L 165.335151 36.65024 
" style="fill: none; stroke: #f0ebf5; stroke-width: 2; stroke-linecap: square"/>
    </g>
    <g id="text_22">
     <!-- TIP3P -->
     <g transform="translate(171.735151 39.45024)scale(0.08 -0.08)">
      <defs>
       <path id="Roboto-Regular-54" d="M 156 4056 
L 156 4550 
L 3672 4550 
L 3672 4056 
L 2209 4056 
L 2209 0 
L 1616 0 
L 1616 4056 
L 156 4056 
z
" transform="scale(0.015625)"/>
       <path id="Roboto-Regular-49" d="M 1175 4550 
L 1175 0 
L 572 0 
L 572 4550 
L 1175 4550 
z
" transform="scale(0.015625)"/>
       <path id="Roboto-Regular-50" d="M 1131 1784 
L 1131 0 
L 528 0 
L 528 4550 
L 2206 4550 
Q 2981 4550 3392 4159 
Q 3803 3769 3803 3163 
Q 3803 2503 3392 2143 
Q 2981 1784 2206 1784 
L 1131 1784 
z
M 1131 4056 
L 1131 2275 
L 2206 2275 
Q 2738 2275 2969 2522 
Q 3200 2769 3200 3156 
Q 3200 3506 2969 3781 
Q 2738 4056 2206 4056 
L 1131 4056 
z
" transform="scale(0.015625)"/>
      </defs>
      <use xlink:href="#Roboto-Regular-54"/>
      <use xlink:href="#Roboto-Regular-49" x="59.667969"/>
      <use xlink:href="#Roboto-Regular-50" x="86.865234"/>
      <use xlink:href="#Roboto-Regular-33" x="149.951172"/>
      <use xlink:href="#Roboto-Regular-50" x="206.152344"/>
     </g>
    </g>
    <g id="line2d_27">
     <path d="M 149.335151 48.27524 
L 157.335151 48.27524 
L 165.335151 48.27524 
" style="fill: none; stroke: #e2d7ea; stroke-width: 2; stroke-linecap: square"/>
    </g>
    <g id="text_23">
     <!-- TIP4P -->
     <g transform="translate(171.735151 51.07524)scale(0.08 -0.08)">
      <use xlink:href="#Roboto-Regular-54"/>
      <use xlink:href="#Roboto-Regular-49" x="59.667969"/>
      <use xlink:href="#Roboto-Regular-50" x="86.865234"/>
      <use xlink:href="#Roboto-Regular-34" x="149.951172"/>
      <use xlink:href="#Roboto-Regular-50" x="206.152344"/>
     </g>
    </g>
    <g id="line2d_28">
     <path d="M 149.335151 59.90024 
L 157.335151 59.90024 
L 165.335151 59.90024 
" style="fill: none; stroke: #c5b0d4; stroke-width: 2; stroke-linecap: square"/>
    </g>
    <g id="text_24">
     <!-- TIP5P -->
     <g transform="translate(171.735151 62.70024)scale(0.08 -0.08)">
      <use xlink:href="#Roboto-Regular-54"/>
      <use xlink:href="#Roboto-Regular-49" x="59.667969"/>
      <use xlink:href="#Roboto-Regular-50" x="86.865234"/>
      <use xlink:href="#Roboto-Regular-35" x="149.951172"/>
      <use xlink:href="#Roboto-Regular-50" x="206.152344"/>
     </g>
    </g>
   </g>
  </g>
 </g>
 <defs>
  <clipPath id="p324322d92c">
   <rect x="31.874927" y="3.00024" width="193.557723" height="198.167645"/>
  </clipPath>
 </defs>
</svg>
