<?xml version="1.0" encoding="utf-8" standalone="no"?>
<!DOCTYPE svg PUBLIC "-//W3C//DTD SVG 1.1//EN"
  "http://www.w3.org/Graphics/SVG/1.1/DTD/svg11.dtd">
<svg height="252pt" version="1.1" viewBox="0 0 432 252" width="432pt" xmlns="http://www.w3.org/2000/svg" xmlns:xlink="http://www.w3.org/1999/xlink">
 <metadata>
  <rdf:RDF xmlns:cc="http://creativecommons.org/ns#" xmlns:dc="http://purl.org/dc/elements/1.1/" xmlns:rdf="http://www.w3.org/1999/02/22-rdf-syntax-ns#">
   <cc:Work>
    <dc:type rdf:resource="http://purl.org/dc/dcmitype/StillImage"/>
    <dc:date>2022-01-12T09:26:05.359113</dc:date>
    <dc:format>image/svg+xml</dc:format>
    <dc:creator>
     <cc:Agent>
      <dc:title>Matplotlib v3.4.3, https://matplotlib.org/</dc:title>
     </cc:Agent>
    </dc:creator>
   </cc:Work>
  </rdf:RDF>
 </metadata>
 <defs>
  <style type="text/css">*{stroke-linecap:butt;stroke-linejoin:round;}</style>
 </defs>
 <g id="figure_1">
  <g id="patch_1">
   <path d="M 0 252 
L 432 252 
L 432 0 
L 0 0 
z
" style="fill:#ffffff;"/>
  </g>
  <g id="axes_1">
   <g id="patch_2">
    <path d="M 26.83274 237.25726 
L 148.828093 237.25726 
L 148.828093 3.00024 
L 26.83274 3.00024 
z
" style="fill:#ffffff;"/>
   </g>
   <g id="line2d_1">
    <path clip-path="url(#p292f88f0a2)" d="M 26.83274 223.789836 
L 50.06995 210.838231 
L 73.30716 209.764898 
L 96.54437 71.405506 
L 119.781581 30.629418 
L 143.018791 16.704539 
" style="fill:none;stroke:#c0c0c0;stroke-dasharray:5.55,2.4;stroke-dashoffset:0;stroke-width:1.5;"/>
    <defs>
     <path d="M -2.5 2.5 
L 2.5 2.5 
L 2.5 -2.5 
L -2.5 -2.5 
z
" id="me85d3ecb08"/>
    </defs>
    <g clip-path="url(#p292f88f0a2)">
     <use style="fill:#c0c0c0;" x="26.83274" xlink:href="#me85d3ecb08" y="223.789836"/>
     <use style="fill:#c0c0c0;" x="50.06995" xlink:href="#me85d3ecb08" y="210.838231"/>
     <use style="fill:#c0c0c0;" x="73.30716" xlink:href="#me85d3ecb08" y="209.764898"/>
     <use style="fill:#c0c0c0;" x="96.54437" xlink:href="#me85d3ecb08" y="71.405506"/>
     <use style="fill:#c0c0c0;" x="119.781581" xlink:href="#me85d3ecb08" y="30.629418"/>
     <use style="fill:#c0c0c0;" x="143.018791" xlink:href="#me85d3ecb08" y="16.704539"/>
    </g>
   </g>
   <g id="line2d_2">
    <path clip-path="url(#p292f88f0a2)" d="M 26.83274 226.609214 
L 50.06995 209.52916 
L 73.30716 208.31352 
L 96.54437 71.479866 
L 119.781581 31.137901 
L 143.018791 13.648286 
" style="fill:none;stroke:#bfe5da;stroke-dasharray:5.55,2.4;stroke-dashoffset:0;stroke-width:1.5;"/>
    <defs>
     <path d="M -2.5 2.5 
L 2.5 2.5 
L 2.5 -2.5 
L -2.5 -2.5 
z
" id="m05d52e7e61"/>
    </defs>
    <g clip-path="url(#p292f88f0a2)">
     <use style="fill:#bfe5da;" x="26.83274" xlink:href="#m05d52e7e61" y="226.609214"/>
     <use style="fill:#bfe5da;" x="50.06995" xlink:href="#m05d52e7e61" y="209.52916"/>
     <use style="fill:#bfe5da;" x="73.30716" xlink:href="#m05d52e7e61" y="208.31352"/>
     <use style="fill:#bfe5da;" x="96.54437" xlink:href="#m05d52e7e61" y="71.479866"/>
     <use style="fill:#bfe5da;" x="119.781581" xlink:href="#m05d52e7e61" y="31.137901"/>
     <use style="fill:#bfe5da;" x="143.018791" xlink:href="#m05d52e7e61" y="13.648286"/>
    </g>
   </g>
   <g id="matplotlib.axis_1">
    <g id="text_1">
     <!-- 4mer Isomers -->
     <g transform="translate(60.215417 247.33601)scale(0.08 -0.08)">
      <defs>
       <path d="M 2419 4116 
L 825 1625 
L 2419 1625 
L 2419 4116 
z
M 2253 4666 
L 3047 4666 
L 3047 1625 
L 3713 1625 
L 3713 1100 
L 3047 1100 
L 3047 0 
L 2419 0 
L 2419 1100 
L 313 1100 
L 313 1709 
L 2253 4666 
z
" id="DejaVuSans-34" transform="scale(0.015625)"/>
       <path d="M 3328 2828 
Q 3544 3216 3844 3400 
Q 4144 3584 4550 3584 
Q 5097 3584 5394 3201 
Q 5691 2819 5691 2113 
L 5691 0 
L 5113 0 
L 5113 2094 
Q 5113 2597 4934 2840 
Q 4756 3084 4391 3084 
Q 3944 3084 3684 2787 
Q 3425 2491 3425 1978 
L 3425 0 
L 2847 0 
L 2847 2094 
Q 2847 2600 2669 2842 
Q 2491 3084 2119 3084 
Q 1678 3084 1418 2786 
Q 1159 2488 1159 1978 
L 1159 0 
L 581 0 
L 581 3500 
L 1159 3500 
L 1159 2956 
Q 1356 3278 1631 3431 
Q 1906 3584 2284 3584 
Q 2666 3584 2933 3390 
Q 3200 3197 3328 2828 
z
" id="DejaVuSans-6d" transform="scale(0.015625)"/>
       <path d="M 3597 1894 
L 3597 1613 
L 953 1613 
Q 991 1019 1311 708 
Q 1631 397 2203 397 
Q 2534 397 2845 478 
Q 3156 559 3463 722 
L 3463 178 
Q 3153 47 2828 -22 
Q 2503 -91 2169 -91 
Q 1331 -91 842 396 
Q 353 884 353 1716 
Q 353 2575 817 3079 
Q 1281 3584 2069 3584 
Q 2775 3584 3186 3129 
Q 3597 2675 3597 1894 
z
M 3022 2063 
Q 3016 2534 2758 2815 
Q 2500 3097 2075 3097 
Q 1594 3097 1305 2825 
Q 1016 2553 972 2059 
L 3022 2063 
z
" id="DejaVuSans-65" transform="scale(0.015625)"/>
       <path d="M 2631 2963 
Q 2534 3019 2420 3045 
Q 2306 3072 2169 3072 
Q 1681 3072 1420 2755 
Q 1159 2438 1159 1844 
L 1159 0 
L 581 0 
L 581 3500 
L 1159 3500 
L 1159 2956 
Q 1341 3275 1631 3429 
Q 1922 3584 2338 3584 
Q 2397 3584 2469 3576 
Q 2541 3569 2628 3553 
L 2631 2963 
z
" id="DejaVuSans-72" transform="scale(0.015625)"/>
       <path id="DejaVuSans-20" transform="scale(0.015625)"/>
       <path d="M 628 4666 
L 1259 4666 
L 1259 0 
L 628 0 
L 628 4666 
z
" id="DejaVuSans-49" transform="scale(0.015625)"/>
       <path d="M 2834 3397 
L 2834 2853 
Q 2591 2978 2328 3040 
Q 2066 3103 1784 3103 
Q 1356 3103 1142 2972 
Q 928 2841 928 2578 
Q 928 2378 1081 2264 
Q 1234 2150 1697 2047 
L 1894 2003 
Q 2506 1872 2764 1633 
Q 3022 1394 3022 966 
Q 3022 478 2636 193 
Q 2250 -91 1575 -91 
Q 1294 -91 989 -36 
Q 684 19 347 128 
L 347 722 
Q 666 556 975 473 
Q 1284 391 1588 391 
Q 1994 391 2212 530 
Q 2431 669 2431 922 
Q 2431 1156 2273 1281 
Q 2116 1406 1581 1522 
L 1381 1569 
Q 847 1681 609 1914 
Q 372 2147 372 2553 
Q 372 3047 722 3315 
Q 1072 3584 1716 3584 
Q 2034 3584 2315 3537 
Q 2597 3491 2834 3397 
z
" id="DejaVuSans-73" transform="scale(0.015625)"/>
       <path d="M 1959 3097 
Q 1497 3097 1228 2736 
Q 959 2375 959 1747 
Q 959 1119 1226 758 
Q 1494 397 1959 397 
Q 2419 397 2687 759 
Q 2956 1122 2956 1747 
Q 2956 2369 2687 2733 
Q 2419 3097 1959 3097 
z
M 1959 3584 
Q 2709 3584 3137 3096 
Q 3566 2609 3566 1747 
Q 3566 888 3137 398 
Q 2709 -91 1959 -91 
Q 1206 -91 779 398 
Q 353 888 353 1747 
Q 353 2609 779 3096 
Q 1206 3584 1959 3584 
z
" id="DejaVuSans-6f" transform="scale(0.015625)"/>
      </defs>
      <use xlink:href="#DejaVuSans-34"/>
      <use x="63.623047" xlink:href="#DejaVuSans-6d"/>
      <use x="161.035156" xlink:href="#DejaVuSans-65"/>
      <use x="222.558594" xlink:href="#DejaVuSans-72"/>
      <use x="263.671875" xlink:href="#DejaVuSans-20"/>
      <use x="295.458984" xlink:href="#DejaVuSans-49"/>
      <use x="324.951172" xlink:href="#DejaVuSans-73"/>
      <use x="377.050781" xlink:href="#DejaVuSans-6f"/>
      <use x="438.232422" xlink:href="#DejaVuSans-6d"/>
      <use x="535.644531" xlink:href="#DejaVuSans-65"/>
      <use x="597.167969" xlink:href="#DejaVuSans-72"/>
      <use x="638.28125" xlink:href="#DejaVuSans-73"/>
     </g>
    </g>
   </g>
   <g id="matplotlib.axis_2">
    <g id="ytick_1">
     <g id="line2d_3">
      <defs>
       <path d="M 0 0 
L -3.5 0 
" id="mf0d1e99bf3" style="stroke:#000000;stroke-width:0.8;"/>
      </defs>
      <g>
       <use style="stroke:#000000;stroke-width:0.8;" x="26.83274" xlink:href="#mf0d1e99bf3" y="223.789836"/>
      </g>
     </g>
     <g id="text_2">
      <!-- 0 -->
      <g transform="translate(14.74274 226.829211)scale(0.08 -0.08)">
       <defs>
        <path d="M 2034 4250 
Q 1547 4250 1301 3770 
Q 1056 3291 1056 2328 
Q 1056 1369 1301 889 
Q 1547 409 2034 409 
Q 2525 409 2770 889 
Q 3016 1369 3016 2328 
Q 3016 3291 2770 3770 
Q 2525 4250 2034 4250 
z
M 2034 4750 
Q 2819 4750 3233 4129 
Q 3647 3509 3647 2328 
Q 3647 1150 3233 529 
Q 2819 -91 2034 -91 
Q 1250 -91 836 529 
Q 422 1150 422 2328 
Q 422 3509 836 4129 
Q 1250 4750 2034 4750 
z
" id="DejaVuSans-30" transform="scale(0.015625)"/>
       </defs>
       <use xlink:href="#DejaVuSans-30"/>
      </g>
     </g>
    </g>
    <g id="ytick_2">
     <g id="line2d_4">
      <g>
       <use style="stroke:#000000;stroke-width:0.8;" x="26.83274" xlink:href="#mf0d1e99bf3" y="193.090119"/>
      </g>
     </g>
     <g id="text_3">
      <!-- 1 -->
      <g transform="translate(14.74274 196.129494)scale(0.08 -0.08)">
       <defs>
        <path d="M 794 531 
L 1825 531 
L 1825 4091 
L 703 3866 
L 703 4441 
L 1819 4666 
L 2450 4666 
L 2450 531 
L 3481 531 
L 3481 0 
L 794 0 
L 794 531 
z
" id="DejaVuSans-31" transform="scale(0.015625)"/>
       </defs>
       <use xlink:href="#DejaVuSans-31"/>
      </g>
     </g>
    </g>
    <g id="ytick_3">
     <g id="line2d_5">
      <g>
       <use style="stroke:#000000;stroke-width:0.8;" x="26.83274" xlink:href="#mf0d1e99bf3" y="162.390402"/>
      </g>
     </g>
     <g id="text_4">
      <!-- 2 -->
      <g transform="translate(14.74274 165.429777)scale(0.08 -0.08)">
       <defs>
        <path d="M 1228 531 
L 3431 531 
L 3431 0 
L 469 0 
L 469 531 
Q 828 903 1448 1529 
Q 2069 2156 2228 2338 
Q 2531 2678 2651 2914 
Q 2772 3150 2772 3378 
Q 2772 3750 2511 3984 
Q 2250 4219 1831 4219 
Q 1534 4219 1204 4116 
Q 875 4013 500 3803 
L 500 4441 
Q 881 4594 1212 4672 
Q 1544 4750 1819 4750 
Q 2544 4750 2975 4387 
Q 3406 4025 3406 3419 
Q 3406 3131 3298 2873 
Q 3191 2616 2906 2266 
Q 2828 2175 2409 1742 
Q 1991 1309 1228 531 
z
" id="DejaVuSans-32" transform="scale(0.015625)"/>
       </defs>
       <use xlink:href="#DejaVuSans-32"/>
      </g>
     </g>
    </g>
    <g id="ytick_4">
     <g id="line2d_6">
      <g>
       <use style="stroke:#000000;stroke-width:0.8;" x="26.83274" xlink:href="#mf0d1e99bf3" y="131.690685"/>
      </g>
     </g>
     <g id="text_5">
      <!-- 3 -->
      <g transform="translate(14.74274 134.73006)scale(0.08 -0.08)">
       <defs>
        <path d="M 2597 2516 
Q 3050 2419 3304 2112 
Q 3559 1806 3559 1356 
Q 3559 666 3084 287 
Q 2609 -91 1734 -91 
Q 1441 -91 1130 -33 
Q 819 25 488 141 
L 488 750 
Q 750 597 1062 519 
Q 1375 441 1716 441 
Q 2309 441 2620 675 
Q 2931 909 2931 1356 
Q 2931 1769 2642 2001 
Q 2353 2234 1838 2234 
L 1294 2234 
L 1294 2753 
L 1863 2753 
Q 2328 2753 2575 2939 
Q 2822 3125 2822 3475 
Q 2822 3834 2567 4026 
Q 2313 4219 1838 4219 
Q 1578 4219 1281 4162 
Q 984 4106 628 3988 
L 628 4550 
Q 988 4650 1302 4700 
Q 1616 4750 1894 4750 
Q 2613 4750 3031 4423 
Q 3450 4097 3450 3541 
Q 3450 3153 3228 2886 
Q 3006 2619 2597 2516 
z
" id="DejaVuSans-33" transform="scale(0.015625)"/>
       </defs>
       <use xlink:href="#DejaVuSans-33"/>
      </g>
     </g>
    </g>
    <g id="ytick_5">
     <g id="line2d_7">
      <g>
       <use style="stroke:#000000;stroke-width:0.8;" x="26.83274" xlink:href="#mf0d1e99bf3" y="100.990968"/>
      </g>
     </g>
     <g id="text_6">
      <!-- 4 -->
      <g transform="translate(14.74274 104.030343)scale(0.08 -0.08)">
       <use xlink:href="#DejaVuSans-34"/>
      </g>
     </g>
    </g>
    <g id="ytick_6">
     <g id="line2d_8">
      <g>
       <use style="stroke:#000000;stroke-width:0.8;" x="26.83274" xlink:href="#mf0d1e99bf3" y="70.291251"/>
      </g>
     </g>
     <g id="text_7">
      <!-- 5 -->
      <g transform="translate(14.74274 73.330626)scale(0.08 -0.08)">
       <defs>
        <path d="M 691 4666 
L 3169 4666 
L 3169 4134 
L 1269 4134 
L 1269 2991 
Q 1406 3038 1543 3061 
Q 1681 3084 1819 3084 
Q 2600 3084 3056 2656 
Q 3513 2228 3513 1497 
Q 3513 744 3044 326 
Q 2575 -91 1722 -91 
Q 1428 -91 1123 -41 
Q 819 9 494 109 
L 494 744 
Q 775 591 1075 516 
Q 1375 441 1709 441 
Q 2250 441 2565 725 
Q 2881 1009 2881 1497 
Q 2881 1984 2565 2268 
Q 2250 2553 1709 2553 
Q 1456 2553 1204 2497 
Q 953 2441 691 2322 
L 691 4666 
z
" id="DejaVuSans-35" transform="scale(0.015625)"/>
       </defs>
       <use xlink:href="#DejaVuSans-35"/>
      </g>
     </g>
    </g>
    <g id="ytick_7">
     <g id="line2d_9">
      <g>
       <use style="stroke:#000000;stroke-width:0.8;" x="26.83274" xlink:href="#mf0d1e99bf3" y="39.591534"/>
      </g>
     </g>
     <g id="text_8">
      <!-- 6 -->
      <g transform="translate(14.74274 42.630909)scale(0.08 -0.08)">
       <defs>
        <path d="M 2113 2584 
Q 1688 2584 1439 2293 
Q 1191 2003 1191 1497 
Q 1191 994 1439 701 
Q 1688 409 2113 409 
Q 2538 409 2786 701 
Q 3034 994 3034 1497 
Q 3034 2003 2786 2293 
Q 2538 2584 2113 2584 
z
M 3366 4563 
L 3366 3988 
Q 3128 4100 2886 4159 
Q 2644 4219 2406 4219 
Q 1781 4219 1451 3797 
Q 1122 3375 1075 2522 
Q 1259 2794 1537 2939 
Q 1816 3084 2150 3084 
Q 2853 3084 3261 2657 
Q 3669 2231 3669 1497 
Q 3669 778 3244 343 
Q 2819 -91 2113 -91 
Q 1303 -91 875 529 
Q 447 1150 447 2328 
Q 447 3434 972 4092 
Q 1497 4750 2381 4750 
Q 2619 4750 2861 4703 
Q 3103 4656 3366 4563 
z
" id="DejaVuSans-36" transform="scale(0.015625)"/>
       </defs>
       <use xlink:href="#DejaVuSans-36"/>
      </g>
     </g>
    </g>
    <g id="ytick_8">
     <g id="line2d_10">
      <g>
       <use style="stroke:#000000;stroke-width:0.8;" x="26.83274" xlink:href="#mf0d1e99bf3" y="8.891818"/>
      </g>
     </g>
     <g id="text_9">
      <!-- 7 -->
      <g transform="translate(14.74274 11.931193)scale(0.08 -0.08)">
       <defs>
        <path d="M 525 4666 
L 3525 4666 
L 3525 4397 
L 1831 0 
L 1172 0 
L 2766 4134 
L 525 4134 
L 525 4666 
z
" id="DejaVuSans-37" transform="scale(0.015625)"/>
       </defs>
       <use xlink:href="#DejaVuSans-37"/>
      </g>
     </g>
    </g>
    <g id="ytick_9">
     <g id="line2d_11">
      <defs>
       <path d="M 0 0 
L -2 0 
" id="m14af61b8dd" style="stroke:#000000;stroke-width:0.6;"/>
      </defs>
      <g>
       <use style="stroke:#000000;stroke-width:0.6;" x="26.83274" xlink:href="#m14af61b8dd" y="208.439977"/>
      </g>
     </g>
    </g>
    <g id="ytick_10">
     <g id="line2d_12">
      <g>
       <use style="stroke:#000000;stroke-width:0.6;" x="26.83274" xlink:href="#m14af61b8dd" y="177.74026"/>
      </g>
     </g>
    </g>
    <g id="ytick_11">
     <g id="line2d_13">
      <g>
       <use style="stroke:#000000;stroke-width:0.6;" x="26.83274" xlink:href="#m14af61b8dd" y="147.040543"/>
      </g>
     </g>
    </g>
    <g id="ytick_12">
     <g id="line2d_14">
      <g>
       <use style="stroke:#000000;stroke-width:0.6;" x="26.83274" xlink:href="#m14af61b8dd" y="116.340827"/>
      </g>
     </g>
    </g>
    <g id="ytick_13">
     <g id="line2d_15">
      <g>
       <use style="stroke:#000000;stroke-width:0.6;" x="26.83274" xlink:href="#m14af61b8dd" y="85.64111"/>
      </g>
     </g>
    </g>
    <g id="ytick_14">
     <g id="line2d_16">
      <g>
       <use style="stroke:#000000;stroke-width:0.6;" x="26.83274" xlink:href="#m14af61b8dd" y="54.941393"/>
      </g>
     </g>
    </g>
    <g id="ytick_15">
     <g id="line2d_17">
      <g>
       <use style="stroke:#000000;stroke-width:0.6;" x="26.83274" xlink:href="#m14af61b8dd" y="24.241676"/>
      </g>
     </g>
    </g>
    <g id="text_10">
     <!-- $\Delta$E (kcal/mol) -->
     <g transform="translate(9.07899 146.68875)rotate(-90)scale(0.08 -0.08)">
      <defs>
       <path d="M 2188 4044 
L 906 525 
L 3472 525 
L 2188 4044 
z
M 50 0 
L 1831 4666 
L 2547 4666 
L 4325 0 
L 50 0 
z
" id="DejaVuSans-394" transform="scale(0.015625)"/>
       <path d="M 628 4666 
L 3578 4666 
L 3578 4134 
L 1259 4134 
L 1259 2753 
L 3481 2753 
L 3481 2222 
L 1259 2222 
L 1259 531 
L 3634 531 
L 3634 0 
L 628 0 
L 628 4666 
z
" id="DejaVuSans-45" transform="scale(0.015625)"/>
       <path d="M 1984 4856 
Q 1566 4138 1362 3434 
Q 1159 2731 1159 2009 
Q 1159 1288 1364 580 
Q 1569 -128 1984 -844 
L 1484 -844 
Q 1016 -109 783 600 
Q 550 1309 550 2009 
Q 550 2706 781 3412 
Q 1013 4119 1484 4856 
L 1984 4856 
z
" id="DejaVuSans-28" transform="scale(0.015625)"/>
       <path d="M 581 4863 
L 1159 4863 
L 1159 1991 
L 2875 3500 
L 3609 3500 
L 1753 1863 
L 3688 0 
L 2938 0 
L 1159 1709 
L 1159 0 
L 581 0 
L 581 4863 
z
" id="DejaVuSans-6b" transform="scale(0.015625)"/>
       <path d="M 3122 3366 
L 3122 2828 
Q 2878 2963 2633 3030 
Q 2388 3097 2138 3097 
Q 1578 3097 1268 2742 
Q 959 2388 959 1747 
Q 959 1106 1268 751 
Q 1578 397 2138 397 
Q 2388 397 2633 464 
Q 2878 531 3122 666 
L 3122 134 
Q 2881 22 2623 -34 
Q 2366 -91 2075 -91 
Q 1284 -91 818 406 
Q 353 903 353 1747 
Q 353 2603 823 3093 
Q 1294 3584 2113 3584 
Q 2378 3584 2631 3529 
Q 2884 3475 3122 3366 
z
" id="DejaVuSans-63" transform="scale(0.015625)"/>
       <path d="M 2194 1759 
Q 1497 1759 1228 1600 
Q 959 1441 959 1056 
Q 959 750 1161 570 
Q 1363 391 1709 391 
Q 2188 391 2477 730 
Q 2766 1069 2766 1631 
L 2766 1759 
L 2194 1759 
z
M 3341 1997 
L 3341 0 
L 2766 0 
L 2766 531 
Q 2569 213 2275 61 
Q 1981 -91 1556 -91 
Q 1019 -91 701 211 
Q 384 513 384 1019 
Q 384 1609 779 1909 
Q 1175 2209 1959 2209 
L 2766 2209 
L 2766 2266 
Q 2766 2663 2505 2880 
Q 2244 3097 1772 3097 
Q 1472 3097 1187 3025 
Q 903 2953 641 2809 
L 641 3341 
Q 956 3463 1253 3523 
Q 1550 3584 1831 3584 
Q 2591 3584 2966 3190 
Q 3341 2797 3341 1997 
z
" id="DejaVuSans-61" transform="scale(0.015625)"/>
       <path d="M 603 4863 
L 1178 4863 
L 1178 0 
L 603 0 
L 603 4863 
z
" id="DejaVuSans-6c" transform="scale(0.015625)"/>
       <path d="M 1625 4666 
L 2156 4666 
L 531 -594 
L 0 -594 
L 1625 4666 
z
" id="DejaVuSans-2f" transform="scale(0.015625)"/>
       <path d="M 513 4856 
L 1013 4856 
Q 1481 4119 1714 3412 
Q 1947 2706 1947 2009 
Q 1947 1309 1714 600 
Q 1481 -109 1013 -844 
L 513 -844 
Q 928 -128 1133 580 
Q 1338 1288 1338 2009 
Q 1338 2731 1133 3434 
Q 928 4138 513 4856 
z
" id="DejaVuSans-29" transform="scale(0.015625)"/>
      </defs>
      <use transform="translate(0 0.015625)" xlink:href="#DejaVuSans-394"/>
      <use transform="translate(68.408203 0.015625)" xlink:href="#DejaVuSans-45"/>
      <use transform="translate(131.591797 0.015625)" xlink:href="#DejaVuSans-20"/>
      <use transform="translate(163.378906 0.015625)" xlink:href="#DejaVuSans-28"/>
      <use transform="translate(202.392578 0.015625)" xlink:href="#DejaVuSans-6b"/>
      <use transform="translate(260.302734 0.015625)" xlink:href="#DejaVuSans-63"/>
      <use transform="translate(315.283203 0.015625)" xlink:href="#DejaVuSans-61"/>
      <use transform="translate(376.5625 0.015625)" xlink:href="#DejaVuSans-6c"/>
      <use transform="translate(404.345703 0.015625)" xlink:href="#DejaVuSans-2f"/>
      <use transform="translate(438.037109 0.015625)" xlink:href="#DejaVuSans-6d"/>
      <use transform="translate(535.449219 0.015625)" xlink:href="#DejaVuSans-6f"/>
      <use transform="translate(596.630859 0.015625)" xlink:href="#DejaVuSans-6c"/>
      <use transform="translate(624.414062 0.015625)" xlink:href="#DejaVuSans-29"/>
     </g>
    </g>
   </g>
   <g id="line2d_18">
    <path clip-path="url(#p292f88f0a2)" d="M 26.83274 220.380767 
L 50.06995 207.356943 
L 73.30716 207.23555 
L 96.54437 61.838301 
L 119.781581 31.132798 
L 143.018791 14.31759 
" style="fill:none;stroke:#61bfa3;stroke-linecap:square;stroke-width:1.5;"/>
    <defs>
     <path d="M 0 2.5 
C 0.663008 2.5 1.29895 2.236584 1.767767 1.767767 
C 2.236584 1.29895 2.5 0.663008 2.5 0 
C 2.5 -0.663008 2.236584 -1.29895 1.767767 -1.767767 
C 1.29895 -2.236584 0.663008 -2.5 0 -2.5 
C -0.663008 -2.5 -1.29895 -2.236584 -1.767767 -1.767767 
C -2.236584 -1.29895 -2.5 -0.663008 -2.5 0 
C -2.5 0.663008 -2.236584 1.29895 -1.767767 1.767767 
C -1.29895 2.236584 -0.663008 2.5 0 2.5 
z
" id="m4bf8a6076d"/>
    </defs>
    <g clip-path="url(#p292f88f0a2)">
     <use style="fill:#61bfa3;" x="26.83274" xlink:href="#m4bf8a6076d" y="220.380767"/>
     <use style="fill:#61bfa3;" x="50.06995" xlink:href="#m4bf8a6076d" y="207.356943"/>
     <use style="fill:#61bfa3;" x="73.30716" xlink:href="#m4bf8a6076d" y="207.23555"/>
     <use style="fill:#61bfa3;" x="96.54437" xlink:href="#m4bf8a6076d" y="61.838301"/>
     <use style="fill:#61bfa3;" x="119.781581" xlink:href="#m4bf8a6076d" y="31.132798"/>
     <use style="fill:#61bfa3;" x="143.018791" xlink:href="#m4bf8a6076d" y="14.31759"/>
    </g>
   </g>
   <g id="patch_3">
    <path d="M 26.83274 237.25726 
L 26.83274 3.00024 
" style="fill:none;stroke:#000000;stroke-linecap:square;stroke-linejoin:miter;stroke-width:0.8;"/>
   </g>
   <g id="patch_4">
    <path d="M 148.828093 237.25726 
L 148.828093 3.00024 
" style="fill:none;stroke:#000000;stroke-linecap:square;stroke-linejoin:miter;stroke-width:0.8;"/>
   </g>
   <g id="patch_5">
    <path d="M 26.83274 237.25726 
L 148.828093 237.25726 
" style="fill:none;stroke:#000000;stroke-linecap:square;stroke-linejoin:miter;stroke-width:0.8;"/>
   </g>
   <g id="patch_6">
    <path d="M 26.83274 3.00024 
L 148.828093 3.00024 
" style="fill:none;stroke:#000000;stroke-linecap:square;stroke-linejoin:miter;stroke-width:0.8;"/>
   </g>
   <g id="text_11">
    <!-- A -->
    <g transform="translate(35.49441 15.884376)scale(0.096 -0.096)">
     <defs>
      <path d="M 3419 850 
L 1538 850 
L 1241 0 
L 31 0 
L 1759 4666 
L 3194 4666 
L 4922 0 
L 3713 0 
L 3419 850 
z
M 1838 1716 
L 3116 1716 
L 2478 3572 
L 1838 1716 
z
" id="DejaVuSans-Bold-41" transform="scale(0.015625)"/>
     </defs>
     <use xlink:href="#DejaVuSans-Bold-41"/>
    </g>
   </g>
   <g id="legend_1">
    <g id="line2d_19">
     <path d="M 31.252694 23.388034 
L 47.252694 23.388034 
" style="fill:none;stroke:#c0c0c0;stroke-dasharray:5.55,2.4;stroke-dashoffset:0;stroke-width:1.5;"/>
    </g>
    <g id="line2d_20">
     <g>
      <use style="fill:#c0c0c0;" x="39.252694" xlink:href="#me85d3ecb08" y="23.388034"/>
     </g>
    </g>
    <g id="text_12">
     <!-- MP2 -->
     <g transform="translate(53.652694 26.188034)scale(0.08 -0.08)">
      <defs>
       <path d="M 628 4666 
L 1569 4666 
L 2759 1491 
L 3956 4666 
L 4897 4666 
L 4897 0 
L 4281 0 
L 4281 4097 
L 3078 897 
L 2444 897 
L 1241 4097 
L 1241 0 
L 628 0 
L 628 4666 
z
" id="DejaVuSans-4d" transform="scale(0.015625)"/>
       <path d="M 1259 4147 
L 1259 2394 
L 2053 2394 
Q 2494 2394 2734 2622 
Q 2975 2850 2975 3272 
Q 2975 3691 2734 3919 
Q 2494 4147 2053 4147 
L 1259 4147 
z
M 628 4666 
L 2053 4666 
Q 2838 4666 3239 4311 
Q 3641 3956 3641 3272 
Q 3641 2581 3239 2228 
Q 2838 1875 2053 1875 
L 1259 1875 
L 1259 0 
L 628 0 
L 628 4666 
z
" id="DejaVuSans-50" transform="scale(0.015625)"/>
      </defs>
      <use xlink:href="#DejaVuSans-4d"/>
      <use x="86.279297" xlink:href="#DejaVuSans-50"/>
      <use x="146.582031" xlink:href="#DejaVuSans-32"/>
     </g>
    </g>
    <g id="line2d_21">
     <path d="M 31.252694 35.130534 
L 47.252694 35.130534 
" style="fill:none;stroke:#bfe5da;stroke-dasharray:5.55,2.4;stroke-dashoffset:0;stroke-width:1.5;"/>
    </g>
    <g id="line2d_22">
     <g>
      <use style="fill:#bfe5da;" x="39.252694" xlink:href="#m05d52e7e61" y="35.130534"/>
     </g>
    </g>
    <g id="text_13">
     <!-- MBE -->
     <g transform="translate(53.652694 37.930534)scale(0.08 -0.08)">
      <defs>
       <path d="M 1259 2228 
L 1259 519 
L 2272 519 
Q 2781 519 3026 730 
Q 3272 941 3272 1375 
Q 3272 1813 3026 2020 
Q 2781 2228 2272 2228 
L 1259 2228 
z
M 1259 4147 
L 1259 2741 
L 2194 2741 
Q 2656 2741 2882 2914 
Q 3109 3088 3109 3444 
Q 3109 3797 2882 3972 
Q 2656 4147 2194 4147 
L 1259 4147 
z
M 628 4666 
L 2241 4666 
Q 2963 4666 3353 4366 
Q 3744 4066 3744 3513 
Q 3744 3084 3544 2831 
Q 3344 2578 2956 2516 
Q 3422 2416 3680 2098 
Q 3938 1781 3938 1306 
Q 3938 681 3513 340 
Q 3088 0 2303 0 
L 628 0 
L 628 4666 
z
" id="DejaVuSans-42" transform="scale(0.015625)"/>
      </defs>
      <use xlink:href="#DejaVuSans-4d"/>
      <use x="86.279297" xlink:href="#DejaVuSans-42"/>
      <use x="154.882812" xlink:href="#DejaVuSans-45"/>
     </g>
    </g>
    <g id="line2d_23">
     <path d="M 31.252694 46.873034 
L 47.252694 46.873034 
" style="fill:none;stroke:#61bfa3;stroke-linecap:square;stroke-width:1.5;"/>
    </g>
    <g id="line2d_24">
     <g>
      <use style="fill:#61bfa3;" x="39.252694" xlink:href="#m4bf8a6076d" y="46.873034"/>
     </g>
    </g>
    <g id="text_14">
     <!-- mbGDML -->
     <g transform="translate(53.652694 49.673034)scale(0.08 -0.08)">
      <defs>
       <path d="M 3116 1747 
Q 3116 2381 2855 2742 
Q 2594 3103 2138 3103 
Q 1681 3103 1420 2742 
Q 1159 2381 1159 1747 
Q 1159 1113 1420 752 
Q 1681 391 2138 391 
Q 2594 391 2855 752 
Q 3116 1113 3116 1747 
z
M 1159 2969 
Q 1341 3281 1617 3432 
Q 1894 3584 2278 3584 
Q 2916 3584 3314 3078 
Q 3713 2572 3713 1747 
Q 3713 922 3314 415 
Q 2916 -91 2278 -91 
Q 1894 -91 1617 61 
Q 1341 213 1159 525 
L 1159 0 
L 581 0 
L 581 4863 
L 1159 4863 
L 1159 2969 
z
" id="DejaVuSans-62" transform="scale(0.015625)"/>
       <path d="M 3809 666 
L 3809 1919 
L 2778 1919 
L 2778 2438 
L 4434 2438 
L 4434 434 
Q 4069 175 3628 42 
Q 3188 -91 2688 -91 
Q 1594 -91 976 548 
Q 359 1188 359 2328 
Q 359 3472 976 4111 
Q 1594 4750 2688 4750 
Q 3144 4750 3555 4637 
Q 3966 4525 4313 4306 
L 4313 3634 
Q 3963 3931 3569 4081 
Q 3175 4231 2741 4231 
Q 1884 4231 1454 3753 
Q 1025 3275 1025 2328 
Q 1025 1384 1454 906 
Q 1884 428 2741 428 
Q 3075 428 3337 486 
Q 3600 544 3809 666 
z
" id="DejaVuSans-47" transform="scale(0.015625)"/>
       <path d="M 1259 4147 
L 1259 519 
L 2022 519 
Q 2988 519 3436 956 
Q 3884 1394 3884 2338 
Q 3884 3275 3436 3711 
Q 2988 4147 2022 4147 
L 1259 4147 
z
M 628 4666 
L 1925 4666 
Q 3281 4666 3915 4102 
Q 4550 3538 4550 2338 
Q 4550 1131 3912 565 
Q 3275 0 1925 0 
L 628 0 
L 628 4666 
z
" id="DejaVuSans-44" transform="scale(0.015625)"/>
       <path d="M 628 4666 
L 1259 4666 
L 1259 531 
L 3531 531 
L 3531 0 
L 628 0 
L 628 4666 
z
" id="DejaVuSans-4c" transform="scale(0.015625)"/>
      </defs>
      <use xlink:href="#DejaVuSans-6d"/>
      <use x="97.412109" xlink:href="#DejaVuSans-62"/>
      <use x="160.888672" xlink:href="#DejaVuSans-47"/>
      <use x="238.378906" xlink:href="#DejaVuSans-44"/>
      <use x="315.380859" xlink:href="#DejaVuSans-4d"/>
      <use x="401.660156" xlink:href="#DejaVuSans-4c"/>
     </g>
    </g>
   </g>
  </g>
  <g id="axes_2">
   <g id="patch_7">
    <path d="M 166.918573 237.25726 
L 288.913927 237.25726 
L 288.913927 3.00024 
L 166.918573 3.00024 
z
" style="fill:#ffffff;"/>
   </g>
   <g id="line2d_25">
    <path clip-path="url(#pd9e67c29e1)" d="M 166.918573 214.849666 
L 174.180202 214.469172 
L 181.44183 204.536151 
L 188.703458 204.530616 
L 195.965086 204.528414 
L 203.226714 175.712279 
L 210.488342 173.627984 
L 217.749971 172.541138 
L 225.011599 169.115382 
L 232.273227 169.078481 
L 239.534855 168.76542 
L 246.796483 137.063946 
L 254.058111 134.356028 
L 261.31974 128.795267 
L 268.581368 119.20953 
L 275.842996 74.999721 
L 283.104624 14.454794 
" style="fill:none;stroke:#c0c0c0;stroke-dasharray:5.55,2.4;stroke-dashoffset:0;stroke-width:1.5;"/>
    <g clip-path="url(#pd9e67c29e1)">
     <use style="fill:#c0c0c0;" x="166.918573" xlink:href="#me85d3ecb08" y="214.849666"/>
     <use style="fill:#c0c0c0;" x="174.180202" xlink:href="#me85d3ecb08" y="214.469172"/>
     <use style="fill:#c0c0c0;" x="181.44183" xlink:href="#me85d3ecb08" y="204.536151"/>
     <use style="fill:#c0c0c0;" x="188.703458" xlink:href="#me85d3ecb08" y="204.530616"/>
     <use style="fill:#c0c0c0;" x="195.965086" xlink:href="#me85d3ecb08" y="204.528414"/>
     <use style="fill:#c0c0c0;" x="203.226714" xlink:href="#me85d3ecb08" y="175.712279"/>
     <use style="fill:#c0c0c0;" x="210.488342" xlink:href="#me85d3ecb08" y="173.627984"/>
     <use style="fill:#c0c0c0;" x="217.749971" xlink:href="#me85d3ecb08" y="172.541138"/>
     <use style="fill:#c0c0c0;" x="225.011599" xlink:href="#me85d3ecb08" y="169.115382"/>
     <use style="fill:#c0c0c0;" x="232.273227" xlink:href="#me85d3ecb08" y="169.078481"/>
     <use style="fill:#c0c0c0;" x="239.534855" xlink:href="#me85d3ecb08" y="168.76542"/>
     <use style="fill:#c0c0c0;" x="246.796483" xlink:href="#me85d3ecb08" y="137.063946"/>
     <use style="fill:#c0c0c0;" x="254.058111" xlink:href="#me85d3ecb08" y="134.356028"/>
     <use style="fill:#c0c0c0;" x="261.31974" xlink:href="#me85d3ecb08" y="128.795267"/>
     <use style="fill:#c0c0c0;" x="268.581368" xlink:href="#me85d3ecb08" y="119.20953"/>
     <use style="fill:#c0c0c0;" x="275.842996" xlink:href="#me85d3ecb08" y="74.999721"/>
     <use style="fill:#c0c0c0;" x="283.104624" xlink:href="#me85d3ecb08" y="14.454794"/>
    </g>
   </g>
   <g id="line2d_26">
    <path clip-path="url(#pd9e67c29e1)" d="M 166.918573 213.842931 
L 174.180202 226.609214 
L 181.44183 215.634342 
L 188.703458 215.657256 
L 195.965086 215.577801 
L 203.226714 188.424699 
L 210.488342 186.137866 
L 217.749971 186.717862 
L 225.011599 161.735772 
L 232.273227 178.587025 
L 239.534855 178.339373 
L 246.796483 131.714115 
L 254.058111 128.457447 
L 261.31974 128.572553 
L 268.581368 127.00945 
L 275.842996 80.173739 
L 283.104624 14.779045 
" style="fill:none;stroke:#bfe5da;stroke-dasharray:5.55,2.4;stroke-dashoffset:0;stroke-width:1.5;"/>
    <g clip-path="url(#pd9e67c29e1)">
     <use style="fill:#bfe5da;" x="166.918573" xlink:href="#m05d52e7e61" y="213.842931"/>
     <use style="fill:#bfe5da;" x="174.180202" xlink:href="#m05d52e7e61" y="226.609214"/>
     <use style="fill:#bfe5da;" x="181.44183" xlink:href="#m05d52e7e61" y="215.634342"/>
     <use style="fill:#bfe5da;" x="188.703458" xlink:href="#m05d52e7e61" y="215.657256"/>
     <use style="fill:#bfe5da;" x="195.965086" xlink:href="#m05d52e7e61" y="215.577801"/>
     <use style="fill:#bfe5da;" x="203.226714" xlink:href="#m05d52e7e61" y="188.424699"/>
     <use style="fill:#bfe5da;" x="210.488342" xlink:href="#m05d52e7e61" y="186.137866"/>
     <use style="fill:#bfe5da;" x="217.749971" xlink:href="#m05d52e7e61" y="186.717862"/>
     <use style="fill:#bfe5da;" x="225.011599" xlink:href="#m05d52e7e61" y="161.735772"/>
     <use style="fill:#bfe5da;" x="232.273227" xlink:href="#m05d52e7e61" y="178.587025"/>
     <use style="fill:#bfe5da;" x="239.534855" xlink:href="#m05d52e7e61" y="178.339373"/>
     <use style="fill:#bfe5da;" x="246.796483" xlink:href="#m05d52e7e61" y="131.714115"/>
     <use style="fill:#bfe5da;" x="254.058111" xlink:href="#m05d52e7e61" y="128.457447"/>
     <use style="fill:#bfe5da;" x="261.31974" xlink:href="#m05d52e7e61" y="128.572553"/>
     <use style="fill:#bfe5da;" x="268.581368" xlink:href="#m05d52e7e61" y="127.00945"/>
     <use style="fill:#bfe5da;" x="275.842996" xlink:href="#m05d52e7e61" y="80.173739"/>
     <use style="fill:#bfe5da;" x="283.104624" xlink:href="#m05d52e7e61" y="14.779045"/>
    </g>
   </g>
   <g id="matplotlib.axis_3">
    <g id="text_15">
     <!-- 5mer Isomers -->
     <g transform="translate(200.30125 247.33601)scale(0.08 -0.08)">
      <use xlink:href="#DejaVuSans-35"/>
      <use x="63.623047" xlink:href="#DejaVuSans-6d"/>
      <use x="161.035156" xlink:href="#DejaVuSans-65"/>
      <use x="222.558594" xlink:href="#DejaVuSans-72"/>
      <use x="263.671875" xlink:href="#DejaVuSans-20"/>
      <use x="295.458984" xlink:href="#DejaVuSans-49"/>
      <use x="324.951172" xlink:href="#DejaVuSans-73"/>
      <use x="377.050781" xlink:href="#DejaVuSans-6f"/>
      <use x="438.232422" xlink:href="#DejaVuSans-6d"/>
      <use x="535.644531" xlink:href="#DejaVuSans-65"/>
      <use x="597.167969" xlink:href="#DejaVuSans-72"/>
      <use x="638.28125" xlink:href="#DejaVuSans-73"/>
     </g>
    </g>
   </g>
   <g id="matplotlib.axis_4">
    <g id="ytick_16">
     <g id="line2d_27">
      <g>
       <use style="stroke:#000000;stroke-width:0.8;" x="166.918573" xlink:href="#mf0d1e99bf3" y="214.849666"/>
      </g>
     </g>
     <g id="text_16">
      <!-- 0 -->
      <g transform="translate(154.828573 217.889041)scale(0.08 -0.08)">
       <use xlink:href="#DejaVuSans-30"/>
      </g>
     </g>
    </g>
    <g id="ytick_17">
     <g id="line2d_28">
      <g>
       <use style="stroke:#000000;stroke-width:0.8;" x="166.918573" xlink:href="#mf0d1e99bf3" y="120.00281"/>
      </g>
     </g>
     <g id="text_17">
      <!-- 1 -->
      <g transform="translate(154.828573 123.042185)scale(0.08 -0.08)">
       <use xlink:href="#DejaVuSans-31"/>
      </g>
     </g>
    </g>
    <g id="ytick_18">
     <g id="line2d_29">
      <g>
       <use style="stroke:#000000;stroke-width:0.8;" x="166.918573" xlink:href="#mf0d1e99bf3" y="25.155953"/>
      </g>
     </g>
     <g id="text_18">
      <!-- 2 -->
      <g transform="translate(154.828573 28.195328)scale(0.08 -0.08)">
       <use xlink:href="#DejaVuSans-32"/>
      </g>
     </g>
    </g>
    <g id="ytick_19">
     <g id="line2d_30">
      <g>
       <use style="stroke:#000000;stroke-width:0.6;" x="166.918573" xlink:href="#m14af61b8dd" y="167.426238"/>
      </g>
     </g>
    </g>
    <g id="ytick_20">
     <g id="line2d_31">
      <g>
       <use style="stroke:#000000;stroke-width:0.6;" x="166.918573" xlink:href="#m14af61b8dd" y="72.579381"/>
      </g>
     </g>
    </g>
   </g>
   <g id="line2d_32">
    <path clip-path="url(#pd9e67c29e1)" d="M 166.918573 208.87469 
L 174.180202 204.876904 
L 181.44183 197.802075 
L 188.703458 199.812222 
L 195.965086 201.199656 
L 203.226714 167.01782 
L 210.488342 168.322369 
L 217.749971 172.443731 
L 225.011599 146.651743 
L 232.273227 177.582669 
L 239.534855 172.648924 
L 246.796483 134.2688 
L 254.058111 135.705032 
L 261.31974 109.898865 
L 268.581368 102.465907 
L 275.842996 82.202314 
L 283.104624 13.648286 
" style="fill:none;stroke:#61bfa3;stroke-linecap:square;stroke-width:1.5;"/>
    <g clip-path="url(#pd9e67c29e1)">
     <use style="fill:#61bfa3;" x="166.918573" xlink:href="#m4bf8a6076d" y="208.87469"/>
     <use style="fill:#61bfa3;" x="174.180202" xlink:href="#m4bf8a6076d" y="204.876904"/>
     <use style="fill:#61bfa3;" x="181.44183" xlink:href="#m4bf8a6076d" y="197.802075"/>
     <use style="fill:#61bfa3;" x="188.703458" xlink:href="#m4bf8a6076d" y="199.812222"/>
     <use style="fill:#61bfa3;" x="195.965086" xlink:href="#m4bf8a6076d" y="201.199656"/>
     <use style="fill:#61bfa3;" x="203.226714" xlink:href="#m4bf8a6076d" y="167.01782"/>
     <use style="fill:#61bfa3;" x="210.488342" xlink:href="#m4bf8a6076d" y="168.322369"/>
     <use style="fill:#61bfa3;" x="217.749971" xlink:href="#m4bf8a6076d" y="172.443731"/>
     <use style="fill:#61bfa3;" x="225.011599" xlink:href="#m4bf8a6076d" y="146.651743"/>
     <use style="fill:#61bfa3;" x="232.273227" xlink:href="#m4bf8a6076d" y="177.582669"/>
     <use style="fill:#61bfa3;" x="239.534855" xlink:href="#m4bf8a6076d" y="172.648924"/>
     <use style="fill:#61bfa3;" x="246.796483" xlink:href="#m4bf8a6076d" y="134.2688"/>
     <use style="fill:#61bfa3;" x="254.058111" xlink:href="#m4bf8a6076d" y="135.705032"/>
     <use style="fill:#61bfa3;" x="261.31974" xlink:href="#m4bf8a6076d" y="109.898865"/>
     <use style="fill:#61bfa3;" x="268.581368" xlink:href="#m4bf8a6076d" y="102.465907"/>
     <use style="fill:#61bfa3;" x="275.842996" xlink:href="#m4bf8a6076d" y="82.202314"/>
     <use style="fill:#61bfa3;" x="283.104624" xlink:href="#m4bf8a6076d" y="13.648286"/>
    </g>
   </g>
   <g id="patch_8">
    <path d="M 166.918573 237.25726 
L 166.918573 3.00024 
" style="fill:none;stroke:#000000;stroke-linecap:square;stroke-linejoin:miter;stroke-width:0.8;"/>
   </g>
   <g id="patch_9">
    <path d="M 288.913927 237.25726 
L 288.913927 3.00024 
" style="fill:none;stroke:#000000;stroke-linecap:square;stroke-linejoin:miter;stroke-width:0.8;"/>
   </g>
   <g id="patch_10">
    <path d="M 166.918573 237.25726 
L 288.913927 237.25726 
" style="fill:none;stroke:#000000;stroke-linecap:square;stroke-linejoin:miter;stroke-width:0.8;"/>
   </g>
   <g id="patch_11">
    <path d="M 166.918573 3.00024 
L 288.913927 3.00024 
" style="fill:none;stroke:#000000;stroke-linecap:square;stroke-linejoin:miter;stroke-width:0.8;"/>
   </g>
   <g id="text_19">
    <!-- B -->
    <g transform="translate(175.580243 15.884376)scale(0.096 -0.096)">
     <defs>
      <path d="M 2456 2859 
Q 2741 2859 2887 2984 
Q 3034 3109 3034 3353 
Q 3034 3594 2887 3720 
Q 2741 3847 2456 3847 
L 1791 3847 
L 1791 2859 
L 2456 2859 
z
M 2497 819 
Q 2859 819 3042 972 
Q 3225 1125 3225 1434 
Q 3225 1738 3044 1889 
Q 2863 2041 2497 2041 
L 1791 2041 
L 1791 819 
L 2497 819 
z
M 3616 2497 
Q 4003 2384 4215 2081 
Q 4428 1778 4428 1338 
Q 4428 663 3972 331 
Q 3516 0 2584 0 
L 588 0 
L 588 4666 
L 2394 4666 
Q 3366 4666 3802 4372 
Q 4238 4078 4238 3431 
Q 4238 3091 4078 2852 
Q 3919 2613 3616 2497 
z
" id="DejaVuSans-Bold-42" transform="scale(0.015625)"/>
     </defs>
     <use xlink:href="#DejaVuSans-Bold-42"/>
    </g>
   </g>
  </g>
  <g id="axes_3">
   <g id="patch_12">
    <path d="M 307.004407 237.25726 
L 428.99976 237.25726 
L 428.99976 3.00024 
L 307.004407 3.00024 
z
" style="fill:#ffffff;"/>
   </g>
   <g id="line2d_33">
    <path clip-path="url(#p77496d8d0b)" d="M 307.004407 209.234621 
L 313.119462 208.230934 
L 319.234517 208.199177 
L 325.349573 197.03156 
L 331.464628 195.375947 
L 337.579683 174.813299 
L 343.694738 173.232877 
L 349.809794 173.230872 
L 355.924849 158.034583 
L 362.039904 156.317319 
L 368.15496 137.073541 
L 374.270015 108.713094 
L 380.38507 104.795274 
L 386.500126 99.582674 
L 392.615181 86.451962 
L 398.730236 66.083798 
L 404.845292 52.929312 
L 410.960347 40.462942 
L 417.075402 35.097462 
L 423.190457 14.843105 
" style="fill:none;stroke:#c0c0c0;stroke-dasharray:5.55,2.4;stroke-dashoffset:0;stroke-width:1.5;"/>
    <g clip-path="url(#p77496d8d0b)">
     <use style="fill:#c0c0c0;" x="307.004407" xlink:href="#me85d3ecb08" y="209.234621"/>
     <use style="fill:#c0c0c0;" x="313.119462" xlink:href="#me85d3ecb08" y="208.230934"/>
     <use style="fill:#c0c0c0;" x="319.234517" xlink:href="#me85d3ecb08" y="208.199177"/>
     <use style="fill:#c0c0c0;" x="325.349573" xlink:href="#me85d3ecb08" y="197.03156"/>
     <use style="fill:#c0c0c0;" x="331.464628" xlink:href="#me85d3ecb08" y="195.375947"/>
     <use style="fill:#c0c0c0;" x="337.579683" xlink:href="#me85d3ecb08" y="174.813299"/>
     <use style="fill:#c0c0c0;" x="343.694738" xlink:href="#me85d3ecb08" y="173.232877"/>
     <use style="fill:#c0c0c0;" x="349.809794" xlink:href="#me85d3ecb08" y="173.230872"/>
     <use style="fill:#c0c0c0;" x="355.924849" xlink:href="#me85d3ecb08" y="158.034583"/>
     <use style="fill:#c0c0c0;" x="362.039904" xlink:href="#me85d3ecb08" y="156.317319"/>
     <use style="fill:#c0c0c0;" x="368.15496" xlink:href="#me85d3ecb08" y="137.073541"/>
     <use style="fill:#c0c0c0;" x="374.270015" xlink:href="#me85d3ecb08" y="108.713094"/>
     <use style="fill:#c0c0c0;" x="380.38507" xlink:href="#me85d3ecb08" y="104.795274"/>
     <use style="fill:#c0c0c0;" x="386.500126" xlink:href="#me85d3ecb08" y="99.582674"/>
     <use style="fill:#c0c0c0;" x="392.615181" xlink:href="#me85d3ecb08" y="86.451962"/>
     <use style="fill:#c0c0c0;" x="398.730236" xlink:href="#me85d3ecb08" y="66.083798"/>
     <use style="fill:#c0c0c0;" x="404.845292" xlink:href="#me85d3ecb08" y="52.929312"/>
     <use style="fill:#c0c0c0;" x="410.960347" xlink:href="#me85d3ecb08" y="40.462942"/>
     <use style="fill:#c0c0c0;" x="417.075402" xlink:href="#me85d3ecb08" y="35.097462"/>
     <use style="fill:#c0c0c0;" x="423.190457" xlink:href="#me85d3ecb08" y="14.843105"/>
    </g>
   </g>
   <g id="line2d_34">
    <path clip-path="url(#p77496d8d0b)" d="M 307.004407 215.831189 
L 313.119462 226.561515 
L 319.234517 214.850327 
L 325.349573 190.884029 
L 331.464628 189.471785 
L 337.579683 182.570794 
L 343.694738 186.590288 
L 349.809794 186.592117 
L 355.924849 168.894049 
L 362.039904 163.546787 
L 368.15496 139.668869 
L 374.270015 120.052019 
L 380.38507 115.651927 
L 386.500126 101.793499 
L 392.615181 93.582923 
L 398.730236 71.797978 
L 404.845292 54.689834 
L 410.960347 35.075834 
L 417.075402 48.591962 
L 423.190457 24.460897 
" style="fill:none;stroke:#bfe5da;stroke-dasharray:5.55,2.4;stroke-dashoffset:0;stroke-width:1.5;"/>
    <g clip-path="url(#p77496d8d0b)">
     <use style="fill:#bfe5da;" x="307.004407" xlink:href="#m05d52e7e61" y="215.831189"/>
     <use style="fill:#bfe5da;" x="313.119462" xlink:href="#m05d52e7e61" y="226.561515"/>
     <use style="fill:#bfe5da;" x="319.234517" xlink:href="#m05d52e7e61" y="214.850327"/>
     <use style="fill:#bfe5da;" x="325.349573" xlink:href="#m05d52e7e61" y="190.884029"/>
     <use style="fill:#bfe5da;" x="331.464628" xlink:href="#m05d52e7e61" y="189.471785"/>
     <use style="fill:#bfe5da;" x="337.579683" xlink:href="#m05d52e7e61" y="182.570794"/>
     <use style="fill:#bfe5da;" x="343.694738" xlink:href="#m05d52e7e61" y="186.590288"/>
     <use style="fill:#bfe5da;" x="349.809794" xlink:href="#m05d52e7e61" y="186.592117"/>
     <use style="fill:#bfe5da;" x="355.924849" xlink:href="#m05d52e7e61" y="168.894049"/>
     <use style="fill:#bfe5da;" x="362.039904" xlink:href="#m05d52e7e61" y="163.546787"/>
     <use style="fill:#bfe5da;" x="368.15496" xlink:href="#m05d52e7e61" y="139.668869"/>
     <use style="fill:#bfe5da;" x="374.270015" xlink:href="#m05d52e7e61" y="120.052019"/>
     <use style="fill:#bfe5da;" x="380.38507" xlink:href="#m05d52e7e61" y="115.651927"/>
     <use style="fill:#bfe5da;" x="386.500126" xlink:href="#m05d52e7e61" y="101.793499"/>
     <use style="fill:#bfe5da;" x="392.615181" xlink:href="#m05d52e7e61" y="93.582923"/>
     <use style="fill:#bfe5da;" x="398.730236" xlink:href="#m05d52e7e61" y="71.797978"/>
     <use style="fill:#bfe5da;" x="404.845292" xlink:href="#m05d52e7e61" y="54.689834"/>
     <use style="fill:#bfe5da;" x="410.960347" xlink:href="#m05d52e7e61" y="35.075834"/>
     <use style="fill:#bfe5da;" x="417.075402" xlink:href="#m05d52e7e61" y="48.591962"/>
     <use style="fill:#bfe5da;" x="423.190457" xlink:href="#m05d52e7e61" y="24.460897"/>
    </g>
   </g>
   <g id="matplotlib.axis_5">
    <g id="text_20">
     <!-- 6mer Isomers -->
     <g transform="translate(340.387083 247.33601)scale(0.08 -0.08)">
      <use xlink:href="#DejaVuSans-36"/>
      <use x="63.623047" xlink:href="#DejaVuSans-6d"/>
      <use x="161.035156" xlink:href="#DejaVuSans-65"/>
      <use x="222.558594" xlink:href="#DejaVuSans-72"/>
      <use x="263.671875" xlink:href="#DejaVuSans-20"/>
      <use x="295.458984" xlink:href="#DejaVuSans-49"/>
      <use x="324.951172" xlink:href="#DejaVuSans-73"/>
      <use x="377.050781" xlink:href="#DejaVuSans-6f"/>
      <use x="438.232422" xlink:href="#DejaVuSans-6d"/>
      <use x="535.644531" xlink:href="#DejaVuSans-65"/>
      <use x="597.167969" xlink:href="#DejaVuSans-72"/>
      <use x="638.28125" xlink:href="#DejaVuSans-73"/>
     </g>
    </g>
   </g>
   <g id="matplotlib.axis_6">
    <g id="ytick_21">
     <g id="line2d_35">
      <g>
       <use style="stroke:#000000;stroke-width:0.8;" x="307.004407" xlink:href="#mf0d1e99bf3" y="209.234621"/>
      </g>
     </g>
     <g id="text_21">
      <!-- 0 -->
      <g transform="translate(294.914407 212.273996)scale(0.08 -0.08)">
       <use xlink:href="#DejaVuSans-30"/>
      </g>
     </g>
    </g>
    <g id="ytick_22">
     <g id="line2d_36">
      <g>
       <use style="stroke:#000000;stroke-width:0.8;" x="307.004407" xlink:href="#mf0d1e99bf3" y="153.189342"/>
      </g>
     </g>
     <g id="text_22">
      <!-- 1 -->
      <g transform="translate(294.914407 156.228717)scale(0.08 -0.08)">
       <use xlink:href="#DejaVuSans-31"/>
      </g>
     </g>
    </g>
    <g id="ytick_23">
     <g id="line2d_37">
      <g>
       <use style="stroke:#000000;stroke-width:0.8;" x="307.004407" xlink:href="#mf0d1e99bf3" y="97.144064"/>
      </g>
     </g>
     <g id="text_23">
      <!-- 2 -->
      <g transform="translate(294.914407 100.183439)scale(0.08 -0.08)">
       <use xlink:href="#DejaVuSans-32"/>
      </g>
     </g>
    </g>
    <g id="ytick_24">
     <g id="line2d_38">
      <g>
       <use style="stroke:#000000;stroke-width:0.8;" x="307.004407" xlink:href="#mf0d1e99bf3" y="41.098785"/>
      </g>
     </g>
     <g id="text_24">
      <!-- 3 -->
      <g transform="translate(294.914407 44.13816)scale(0.08 -0.08)">
       <use xlink:href="#DejaVuSans-33"/>
      </g>
     </g>
    </g>
    <g id="ytick_25">
     <g id="line2d_39">
      <g>
       <use style="stroke:#000000;stroke-width:0.6;" x="307.004407" xlink:href="#m14af61b8dd" y="237.25726"/>
      </g>
     </g>
    </g>
    <g id="ytick_26">
     <g id="line2d_40">
      <g>
       <use style="stroke:#000000;stroke-width:0.6;" x="307.004407" xlink:href="#m14af61b8dd" y="181.211982"/>
      </g>
     </g>
    </g>
    <g id="ytick_27">
     <g id="line2d_41">
      <g>
       <use style="stroke:#000000;stroke-width:0.6;" x="307.004407" xlink:href="#m14af61b8dd" y="125.166703"/>
      </g>
     </g>
    </g>
    <g id="ytick_28">
     <g id="line2d_42">
      <g>
       <use style="stroke:#000000;stroke-width:0.6;" x="307.004407" xlink:href="#m14af61b8dd" y="69.121425"/>
      </g>
     </g>
    </g>
    <g id="ytick_29">
     <g id="line2d_43">
      <g>
       <use style="stroke:#000000;stroke-width:0.6;" x="307.004407" xlink:href="#m14af61b8dd" y="13.076146"/>
      </g>
     </g>
    </g>
   </g>
   <g id="line2d_44">
    <path clip-path="url(#p77496d8d0b)" d="M 307.004407 207.091784 
L 313.119462 200.191447 
L 319.234517 216.206223 
L 325.349573 205.608003 
L 331.464628 210.926108 
L 337.579683 164.535482 
L 343.694738 183.578565 
L 349.809794 177.939843 
L 355.924849 159.486627 
L 362.039904 158.669129 
L 368.15496 147.072649 
L 374.270015 109.434748 
L 380.38507 103.596786 
L 386.500126 85.968912 
L 392.615181 96.542858 
L 398.730236 70.813553 
L 404.845292 42.884935 
L 410.960347 25.109174 
L 417.075402 40.849242 
L 423.190457 13.646015 
" style="fill:none;stroke:#61bfa3;stroke-linecap:square;stroke-width:1.5;"/>
    <g clip-path="url(#p77496d8d0b)">
     <use style="fill:#61bfa3;" x="307.004407" xlink:href="#m4bf8a6076d" y="207.091784"/>
     <use style="fill:#61bfa3;" x="313.119462" xlink:href="#m4bf8a6076d" y="200.191447"/>
     <use style="fill:#61bfa3;" x="319.234517" xlink:href="#m4bf8a6076d" y="216.206223"/>
     <use style="fill:#61bfa3;" x="325.349573" xlink:href="#m4bf8a6076d" y="205.608003"/>
     <use style="fill:#61bfa3;" x="331.464628" xlink:href="#m4bf8a6076d" y="210.926108"/>
     <use style="fill:#61bfa3;" x="337.579683" xlink:href="#m4bf8a6076d" y="164.535482"/>
     <use style="fill:#61bfa3;" x="343.694738" xlink:href="#m4bf8a6076d" y="183.578565"/>
     <use style="fill:#61bfa3;" x="349.809794" xlink:href="#m4bf8a6076d" y="177.939843"/>
     <use style="fill:#61bfa3;" x="355.924849" xlink:href="#m4bf8a6076d" y="159.486627"/>
     <use style="fill:#61bfa3;" x="362.039904" xlink:href="#m4bf8a6076d" y="158.669129"/>
     <use style="fill:#61bfa3;" x="368.15496" xlink:href="#m4bf8a6076d" y="147.072649"/>
     <use style="fill:#61bfa3;" x="374.270015" xlink:href="#m4bf8a6076d" y="109.434748"/>
     <use style="fill:#61bfa3;" x="380.38507" xlink:href="#m4bf8a6076d" y="103.596786"/>
     <use style="fill:#61bfa3;" x="386.500126" xlink:href="#m4bf8a6076d" y="85.968912"/>
     <use style="fill:#61bfa3;" x="392.615181" xlink:href="#m4bf8a6076d" y="96.542858"/>
     <use style="fill:#61bfa3;" x="398.730236" xlink:href="#m4bf8a6076d" y="70.813553"/>
     <use style="fill:#61bfa3;" x="404.845292" xlink:href="#m4bf8a6076d" y="42.884935"/>
     <use style="fill:#61bfa3;" x="410.960347" xlink:href="#m4bf8a6076d" y="25.109174"/>
     <use style="fill:#61bfa3;" x="417.075402" xlink:href="#m4bf8a6076d" y="40.849242"/>
     <use style="fill:#61bfa3;" x="423.190457" xlink:href="#m4bf8a6076d" y="13.646015"/>
    </g>
   </g>
   <g id="patch_13">
    <path d="M 307.004407 237.25726 
L 307.004407 3.00024 
" style="fill:none;stroke:#000000;stroke-linecap:square;stroke-linejoin:miter;stroke-width:0.8;"/>
   </g>
   <g id="patch_14">
    <path d="M 428.99976 237.25726 
L 428.99976 3.00024 
" style="fill:none;stroke:#000000;stroke-linecap:square;stroke-linejoin:miter;stroke-width:0.8;"/>
   </g>
   <g id="patch_15">
    <path d="M 307.004407 237.25726 
L 428.99976 237.25726 
" style="fill:none;stroke:#000000;stroke-linecap:square;stroke-linejoin:miter;stroke-width:0.8;"/>
   </g>
   <g id="patch_16">
    <path d="M 307.004407 3.00024 
L 428.99976 3.00024 
" style="fill:none;stroke:#000000;stroke-linecap:square;stroke-linejoin:miter;stroke-width:0.8;"/>
   </g>
   <g id="text_25">
    <!-- C -->
    <g transform="translate(315.666077 15.884376)scale(0.096 -0.096)">
     <defs>
      <path d="M 4288 256 
Q 3956 84 3597 -3 
Q 3238 -91 2847 -91 
Q 1681 -91 1000 561 
Q 319 1213 319 2328 
Q 319 3447 1000 4098 
Q 1681 4750 2847 4750 
Q 3238 4750 3597 4662 
Q 3956 4575 4288 4403 
L 4288 3438 
Q 3953 3666 3628 3772 
Q 3303 3878 2944 3878 
Q 2300 3878 1931 3465 
Q 1563 3053 1563 2328 
Q 1563 1606 1931 1193 
Q 2300 781 2944 781 
Q 3303 781 3628 887 
Q 3953 994 4288 1222 
L 4288 256 
z
" id="DejaVuSans-Bold-43" transform="scale(0.015625)"/>
     </defs>
     <use xlink:href="#DejaVuSans-Bold-43"/>
    </g>
   </g>
  </g>
 </g>
 <defs>
  <clipPath id="p292f88f0a2">
   <rect height="234.25702" width="121.995353" x="26.83274" y="3.00024"/>
  </clipPath>
  <clipPath id="pd9e67c29e1">
   <rect height="234.25702" width="121.995353" x="166.918573" y="3.00024"/>
  </clipPath>
  <clipPath id="p77496d8d0b">
   <rect height="234.25702" width="121.995353" x="307.004407" y="3.00024"/>
  </clipPath>
 </defs>
</svg>
