<?xml version="1.0" encoding="utf-8" standalone="no"?>
<!DOCTYPE svg PUBLIC "-//W3C//DTD SVG 1.1//EN"
  "http://www.w3.org/Graphics/SVG/1.1/DTD/svg11.dtd">
<svg height="252pt" version="1.1" viewBox="0 0 432 252" width="432pt" xmlns="http://www.w3.org/2000/svg" xmlns:xlink="http://www.w3.org/1999/xlink">
 <metadata>
  <rdf:RDF xmlns:cc="http://creativecommons.org/ns#" xmlns:dc="http://purl.org/dc/elements/1.1/" xmlns:rdf="http://www.w3.org/1999/02/22-rdf-syntax-ns#">
   <cc:Work>
    <dc:type rdf:resource="http://purl.org/dc/dcmitype/StillImage"/>
    <dc:date>2022-01-12T09:26:05.633395</dc:date>
    <dc:format>image/svg+xml</dc:format>
    <dc:creator>
     <cc:Agent>
      <dc:title>Matplotlib v3.4.3, https://matplotlib.org/</dc:title>
     </cc:Agent>
    </dc:creator>
   </cc:Work>
  </rdf:RDF>
 </metadata>
 <defs>
  <style type="text/css">*{stroke-linecap:butt;stroke-linejoin:round;}</style>
 </defs>
 <g id="figure_1">
  <g id="patch_1">
   <path d="M 0 252 
L 432 252 
L 432 0 
L 0 0 
z
" style="fill:#ffffff;"/>
  </g>
  <g id="axes_1">
   <g id="patch_2">
    <path d="M 31.92274 237.25726 
L 148.828093 237.25726 
L 148.828093 3.00024 
L 31.92274 3.00024 
z
" style="fill:#ffffff;"/>
   </g>
   <g id="line2d_1">
    <path clip-path="url(#pe0891c945b)" d="M 31.92274 237.25726 
L 42.044416 219.665999 
L 52.166091 216.970042 
L 62.287767 198.029497 
L 72.409442 93.860431 
L 82.531118 87.43976 
L 92.652794 71.049515 
L 102.774469 70.767244 
L 112.896145 66.675096 
L 123.017821 64.393834 
L 133.139496 43.731415 
L 143.261172 27.695032 
" style="fill:none;stroke:#c0c0c0;stroke-dasharray:5.55,2.4;stroke-dashoffset:0;stroke-width:1.5;"/>
    <defs>
     <path d="M -2.5 2.5 
L 2.5 2.5 
L 2.5 -2.5 
L -2.5 -2.5 
z
" id="m2e222dc3bf"/>
    </defs>
    <g clip-path="url(#pe0891c945b)">
     <use style="fill:#c0c0c0;" x="31.92274" xlink:href="#m2e222dc3bf" y="237.25726"/>
     <use style="fill:#c0c0c0;" x="42.044416" xlink:href="#m2e222dc3bf" y="219.665999"/>
     <use style="fill:#c0c0c0;" x="52.166091" xlink:href="#m2e222dc3bf" y="216.970042"/>
     <use style="fill:#c0c0c0;" x="62.287767" xlink:href="#m2e222dc3bf" y="198.029497"/>
     <use style="fill:#c0c0c0;" x="72.409442" xlink:href="#m2e222dc3bf" y="93.860431"/>
     <use style="fill:#c0c0c0;" x="82.531118" xlink:href="#m2e222dc3bf" y="87.43976"/>
     <use style="fill:#c0c0c0;" x="92.652794" xlink:href="#m2e222dc3bf" y="71.049515"/>
     <use style="fill:#c0c0c0;" x="102.774469" xlink:href="#m2e222dc3bf" y="70.767244"/>
     <use style="fill:#c0c0c0;" x="112.896145" xlink:href="#m2e222dc3bf" y="66.675096"/>
     <use style="fill:#c0c0c0;" x="123.017821" xlink:href="#m2e222dc3bf" y="64.393834"/>
     <use style="fill:#c0c0c0;" x="133.139496" xlink:href="#m2e222dc3bf" y="43.731415"/>
     <use style="fill:#c0c0c0;" x="143.261172" xlink:href="#m2e222dc3bf" y="27.695032"/>
    </g>
   </g>
   <g id="line2d_2">
    <path clip-path="url(#pe0891c945b)" d="M 31.92274 223.082424 
L 42.044416 206.005127 
L 52.166091 203.30305 
L 62.287767 185.493575 
L 72.409442 91.681211 
L 82.531118 86.974731 
L 92.652794 70.838373 
L 102.774469 63.601286 
L 112.896145 67.044204 
L 123.017821 64.145822 
L 133.139496 44.184164 
L 143.261172 28.401261 
" style="fill:none;stroke:#ffe1e3;stroke-dasharray:5.55,2.4;stroke-dashoffset:0;stroke-width:1.5;"/>
    <defs>
     <path d="M -2.5 2.5 
L 2.5 2.5 
L 2.5 -2.5 
L -2.5 -2.5 
z
" id="m608b6d5124"/>
    </defs>
    <g clip-path="url(#pe0891c945b)">
     <use style="fill:#ffe1e3;" x="31.92274" xlink:href="#m608b6d5124" y="223.082424"/>
     <use style="fill:#ffe1e3;" x="42.044416" xlink:href="#m608b6d5124" y="206.005127"/>
     <use style="fill:#ffe1e3;" x="52.166091" xlink:href="#m608b6d5124" y="203.30305"/>
     <use style="fill:#ffe1e3;" x="62.287767" xlink:href="#m608b6d5124" y="185.493575"/>
     <use style="fill:#ffe1e3;" x="72.409442" xlink:href="#m608b6d5124" y="91.681211"/>
     <use style="fill:#ffe1e3;" x="82.531118" xlink:href="#m608b6d5124" y="86.974731"/>
     <use style="fill:#ffe1e3;" x="92.652794" xlink:href="#m608b6d5124" y="70.838373"/>
     <use style="fill:#ffe1e3;" x="102.774469" xlink:href="#m608b6d5124" y="63.601286"/>
     <use style="fill:#ffe1e3;" x="112.896145" xlink:href="#m608b6d5124" y="67.044204"/>
     <use style="fill:#ffe1e3;" x="123.017821" xlink:href="#m608b6d5124" y="64.145822"/>
     <use style="fill:#ffe1e3;" x="133.139496" xlink:href="#m608b6d5124" y="44.184164"/>
     <use style="fill:#ffe1e3;" x="143.261172" xlink:href="#m608b6d5124" y="28.401261"/>
    </g>
   </g>
   <g id="matplotlib.axis_1">
    <g id="text_1">
     <!-- 4mer Isomers -->
     <g transform="translate(62.760417 247.33601)scale(0.08 -0.08)">
      <defs>
       <path d="M 2419 4116 
L 825 1625 
L 2419 1625 
L 2419 4116 
z
M 2253 4666 
L 3047 4666 
L 3047 1625 
L 3713 1625 
L 3713 1100 
L 3047 1100 
L 3047 0 
L 2419 0 
L 2419 1100 
L 313 1100 
L 313 1709 
L 2253 4666 
z
" id="DejaVuSans-34" transform="scale(0.015625)"/>
       <path d="M 3328 2828 
Q 3544 3216 3844 3400 
Q 4144 3584 4550 3584 
Q 5097 3584 5394 3201 
Q 5691 2819 5691 2113 
L 5691 0 
L 5113 0 
L 5113 2094 
Q 5113 2597 4934 2840 
Q 4756 3084 4391 3084 
Q 3944 3084 3684 2787 
Q 3425 2491 3425 1978 
L 3425 0 
L 2847 0 
L 2847 2094 
Q 2847 2600 2669 2842 
Q 2491 3084 2119 3084 
Q 1678 3084 1418 2786 
Q 1159 2488 1159 1978 
L 1159 0 
L 581 0 
L 581 3500 
L 1159 3500 
L 1159 2956 
Q 1356 3278 1631 3431 
Q 1906 3584 2284 3584 
Q 2666 3584 2933 3390 
Q 3200 3197 3328 2828 
z
" id="DejaVuSans-6d" transform="scale(0.015625)"/>
       <path d="M 3597 1894 
L 3597 1613 
L 953 1613 
Q 991 1019 1311 708 
Q 1631 397 2203 397 
Q 2534 397 2845 478 
Q 3156 559 3463 722 
L 3463 178 
Q 3153 47 2828 -22 
Q 2503 -91 2169 -91 
Q 1331 -91 842 396 
Q 353 884 353 1716 
Q 353 2575 817 3079 
Q 1281 3584 2069 3584 
Q 2775 3584 3186 3129 
Q 3597 2675 3597 1894 
z
M 3022 2063 
Q 3016 2534 2758 2815 
Q 2500 3097 2075 3097 
Q 1594 3097 1305 2825 
Q 1016 2553 972 2059 
L 3022 2063 
z
" id="DejaVuSans-65" transform="scale(0.015625)"/>
       <path d="M 2631 2963 
Q 2534 3019 2420 3045 
Q 2306 3072 2169 3072 
Q 1681 3072 1420 2755 
Q 1159 2438 1159 1844 
L 1159 0 
L 581 0 
L 581 3500 
L 1159 3500 
L 1159 2956 
Q 1341 3275 1631 3429 
Q 1922 3584 2338 3584 
Q 2397 3584 2469 3576 
Q 2541 3569 2628 3553 
L 2631 2963 
z
" id="DejaVuSans-72" transform="scale(0.015625)"/>
       <path id="DejaVuSans-20" transform="scale(0.015625)"/>
       <path d="M 628 4666 
L 1259 4666 
L 1259 0 
L 628 0 
L 628 4666 
z
" id="DejaVuSans-49" transform="scale(0.015625)"/>
       <path d="M 2834 3397 
L 2834 2853 
Q 2591 2978 2328 3040 
Q 2066 3103 1784 3103 
Q 1356 3103 1142 2972 
Q 928 2841 928 2578 
Q 928 2378 1081 2264 
Q 1234 2150 1697 2047 
L 1894 2003 
Q 2506 1872 2764 1633 
Q 3022 1394 3022 966 
Q 3022 478 2636 193 
Q 2250 -91 1575 -91 
Q 1294 -91 989 -36 
Q 684 19 347 128 
L 347 722 
Q 666 556 975 473 
Q 1284 391 1588 391 
Q 1994 391 2212 530 
Q 2431 669 2431 922 
Q 2431 1156 2273 1281 
Q 2116 1406 1581 1522 
L 1381 1569 
Q 847 1681 609 1914 
Q 372 2147 372 2553 
Q 372 3047 722 3315 
Q 1072 3584 1716 3584 
Q 2034 3584 2315 3537 
Q 2597 3491 2834 3397 
z
" id="DejaVuSans-73" transform="scale(0.015625)"/>
       <path d="M 1959 3097 
Q 1497 3097 1228 2736 
Q 959 2375 959 1747 
Q 959 1119 1226 758 
Q 1494 397 1959 397 
Q 2419 397 2687 759 
Q 2956 1122 2956 1747 
Q 2956 2369 2687 2733 
Q 2419 3097 1959 3097 
z
M 1959 3584 
Q 2709 3584 3137 3096 
Q 3566 2609 3566 1747 
Q 3566 888 3137 398 
Q 2709 -91 1959 -91 
Q 1206 -91 779 398 
Q 353 888 353 1747 
Q 353 2609 779 3096 
Q 1206 3584 1959 3584 
z
" id="DejaVuSans-6f" transform="scale(0.015625)"/>
      </defs>
      <use xlink:href="#DejaVuSans-34"/>
      <use x="63.623047" xlink:href="#DejaVuSans-6d"/>
      <use x="161.035156" xlink:href="#DejaVuSans-65"/>
      <use x="222.558594" xlink:href="#DejaVuSans-72"/>
      <use x="263.671875" xlink:href="#DejaVuSans-20"/>
      <use x="295.458984" xlink:href="#DejaVuSans-49"/>
      <use x="324.951172" xlink:href="#DejaVuSans-73"/>
      <use x="377.050781" xlink:href="#DejaVuSans-6f"/>
      <use x="438.232422" xlink:href="#DejaVuSans-6d"/>
      <use x="535.644531" xlink:href="#DejaVuSans-65"/>
      <use x="597.167969" xlink:href="#DejaVuSans-72"/>
      <use x="638.28125" xlink:href="#DejaVuSans-73"/>
     </g>
    </g>
   </g>
   <g id="matplotlib.axis_2">
    <g id="ytick_1">
     <g id="line2d_3">
      <defs>
       <path d="M 0 0 
L -3.5 0 
" id="m926cb245bc" style="stroke:#000000;stroke-width:0.8;"/>
      </defs>
      <g>
       <use style="stroke:#000000;stroke-width:0.8;" x="31.92274" xlink:href="#m926cb245bc" y="237.25726"/>
      </g>
     </g>
     <g id="text_2">
      <!-- 0 -->
      <g transform="translate(19.83274 240.296635)scale(0.08 -0.08)">
       <defs>
        <path d="M 2034 4250 
Q 1547 4250 1301 3770 
Q 1056 3291 1056 2328 
Q 1056 1369 1301 889 
Q 1547 409 2034 409 
Q 2525 409 2770 889 
Q 3016 1369 3016 2328 
Q 3016 3291 2770 3770 
Q 2525 4250 2034 4250 
z
M 2034 4750 
Q 2819 4750 3233 4129 
Q 3647 3509 3647 2328 
Q 3647 1150 3233 529 
Q 2819 -91 2034 -91 
Q 1250 -91 836 529 
Q 422 1150 422 2328 
Q 422 3509 836 4129 
Q 1250 4750 2034 4750 
z
" id="DejaVuSans-30" transform="scale(0.015625)"/>
       </defs>
       <use xlink:href="#DejaVuSans-30"/>
      </g>
     </g>
    </g>
    <g id="ytick_2">
     <g id="line2d_4">
      <g>
       <use style="stroke:#000000;stroke-width:0.8;" x="31.92274" xlink:href="#m926cb245bc" y="193.91083"/>
      </g>
     </g>
     <g id="text_3">
      <!-- 2 -->
      <g transform="translate(19.83274 196.950205)scale(0.08 -0.08)">
       <defs>
        <path d="M 1228 531 
L 3431 531 
L 3431 0 
L 469 0 
L 469 531 
Q 828 903 1448 1529 
Q 2069 2156 2228 2338 
Q 2531 2678 2651 2914 
Q 2772 3150 2772 3378 
Q 2772 3750 2511 3984 
Q 2250 4219 1831 4219 
Q 1534 4219 1204 4116 
Q 875 4013 500 3803 
L 500 4441 
Q 881 4594 1212 4672 
Q 1544 4750 1819 4750 
Q 2544 4750 2975 4387 
Q 3406 4025 3406 3419 
Q 3406 3131 3298 2873 
Q 3191 2616 2906 2266 
Q 2828 2175 2409 1742 
Q 1991 1309 1228 531 
z
" id="DejaVuSans-32" transform="scale(0.015625)"/>
       </defs>
       <use xlink:href="#DejaVuSans-32"/>
      </g>
     </g>
    </g>
    <g id="ytick_3">
     <g id="line2d_5">
      <g>
       <use style="stroke:#000000;stroke-width:0.8;" x="31.92274" xlink:href="#m926cb245bc" y="150.5644"/>
      </g>
     </g>
     <g id="text_4">
      <!-- 4 -->
      <g transform="translate(19.83274 153.603775)scale(0.08 -0.08)">
       <use xlink:href="#DejaVuSans-34"/>
      </g>
     </g>
    </g>
    <g id="ytick_4">
     <g id="line2d_6">
      <g>
       <use style="stroke:#000000;stroke-width:0.8;" x="31.92274" xlink:href="#m926cb245bc" y="107.217971"/>
      </g>
     </g>
     <g id="text_5">
      <!-- 6 -->
      <g transform="translate(19.83274 110.257346)scale(0.08 -0.08)">
       <defs>
        <path d="M 2113 2584 
Q 1688 2584 1439 2293 
Q 1191 2003 1191 1497 
Q 1191 994 1439 701 
Q 1688 409 2113 409 
Q 2538 409 2786 701 
Q 3034 994 3034 1497 
Q 3034 2003 2786 2293 
Q 2538 2584 2113 2584 
z
M 3366 4563 
L 3366 3988 
Q 3128 4100 2886 4159 
Q 2644 4219 2406 4219 
Q 1781 4219 1451 3797 
Q 1122 3375 1075 2522 
Q 1259 2794 1537 2939 
Q 1816 3084 2150 3084 
Q 2853 3084 3261 2657 
Q 3669 2231 3669 1497 
Q 3669 778 3244 343 
Q 2819 -91 2113 -91 
Q 1303 -91 875 529 
Q 447 1150 447 2328 
Q 447 3434 972 4092 
Q 1497 4750 2381 4750 
Q 2619 4750 2861 4703 
Q 3103 4656 3366 4563 
z
" id="DejaVuSans-36" transform="scale(0.015625)"/>
       </defs>
       <use xlink:href="#DejaVuSans-36"/>
      </g>
     </g>
    </g>
    <g id="ytick_5">
     <g id="line2d_7">
      <g>
       <use style="stroke:#000000;stroke-width:0.8;" x="31.92274" xlink:href="#m926cb245bc" y="63.871541"/>
      </g>
     </g>
     <g id="text_6">
      <!-- 8 -->
      <g transform="translate(19.83274 66.910916)scale(0.08 -0.08)">
       <defs>
        <path d="M 2034 2216 
Q 1584 2216 1326 1975 
Q 1069 1734 1069 1313 
Q 1069 891 1326 650 
Q 1584 409 2034 409 
Q 2484 409 2743 651 
Q 3003 894 3003 1313 
Q 3003 1734 2745 1975 
Q 2488 2216 2034 2216 
z
M 1403 2484 
Q 997 2584 770 2862 
Q 544 3141 544 3541 
Q 544 4100 942 4425 
Q 1341 4750 2034 4750 
Q 2731 4750 3128 4425 
Q 3525 4100 3525 3541 
Q 3525 3141 3298 2862 
Q 3072 2584 2669 2484 
Q 3125 2378 3379 2068 
Q 3634 1759 3634 1313 
Q 3634 634 3220 271 
Q 2806 -91 2034 -91 
Q 1263 -91 848 271 
Q 434 634 434 1313 
Q 434 1759 690 2068 
Q 947 2378 1403 2484 
z
M 1172 3481 
Q 1172 3119 1398 2916 
Q 1625 2713 2034 2713 
Q 2441 2713 2670 2916 
Q 2900 3119 2900 3481 
Q 2900 3844 2670 4047 
Q 2441 4250 2034 4250 
Q 1625 4250 1398 4047 
Q 1172 3844 1172 3481 
z
" id="DejaVuSans-38" transform="scale(0.015625)"/>
       </defs>
       <use xlink:href="#DejaVuSans-38"/>
      </g>
     </g>
    </g>
    <g id="ytick_6">
     <g id="line2d_8">
      <g>
       <use style="stroke:#000000;stroke-width:0.8;" x="31.92274" xlink:href="#m926cb245bc" y="20.525111"/>
      </g>
     </g>
     <g id="text_7">
      <!-- 10 -->
      <g transform="translate(14.74274 23.564486)scale(0.08 -0.08)">
       <defs>
        <path d="M 794 531 
L 1825 531 
L 1825 4091 
L 703 3866 
L 703 4441 
L 1819 4666 
L 2450 4666 
L 2450 531 
L 3481 531 
L 3481 0 
L 794 0 
L 794 531 
z
" id="DejaVuSans-31" transform="scale(0.015625)"/>
       </defs>
       <use xlink:href="#DejaVuSans-31"/>
       <use x="63.623047" xlink:href="#DejaVuSans-30"/>
      </g>
     </g>
    </g>
    <g id="ytick_7">
     <g id="line2d_9">
      <defs>
       <path d="M 0 0 
L -2 0 
" id="m37d47a7bdc" style="stroke:#000000;stroke-width:0.6;"/>
      </defs>
      <g>
       <use style="stroke:#000000;stroke-width:0.6;" x="31.92274" xlink:href="#m37d47a7bdc" y="215.584045"/>
      </g>
     </g>
    </g>
    <g id="ytick_8">
     <g id="line2d_10">
      <g>
       <use style="stroke:#000000;stroke-width:0.6;" x="31.92274" xlink:href="#m37d47a7bdc" y="172.237615"/>
      </g>
     </g>
    </g>
    <g id="ytick_9">
     <g id="line2d_11">
      <g>
       <use style="stroke:#000000;stroke-width:0.6;" x="31.92274" xlink:href="#m37d47a7bdc" y="128.891186"/>
      </g>
     </g>
    </g>
    <g id="ytick_10">
     <g id="line2d_12">
      <g>
       <use style="stroke:#000000;stroke-width:0.6;" x="31.92274" xlink:href="#m37d47a7bdc" y="85.544756"/>
      </g>
     </g>
    </g>
    <g id="ytick_11">
     <g id="line2d_13">
      <g>
       <use style="stroke:#000000;stroke-width:0.6;" x="31.92274" xlink:href="#m37d47a7bdc" y="42.198326"/>
      </g>
     </g>
    </g>
    <g id="text_8">
     <!-- $\Delta$E (kcal/mol) -->
     <g transform="translate(9.07899 146.68875)rotate(-90)scale(0.08 -0.08)">
      <defs>
       <path d="M 2188 4044 
L 906 525 
L 3472 525 
L 2188 4044 
z
M 50 0 
L 1831 4666 
L 2547 4666 
L 4325 0 
L 50 0 
z
" id="DejaVuSans-394" transform="scale(0.015625)"/>
       <path d="M 628 4666 
L 3578 4666 
L 3578 4134 
L 1259 4134 
L 1259 2753 
L 3481 2753 
L 3481 2222 
L 1259 2222 
L 1259 531 
L 3634 531 
L 3634 0 
L 628 0 
L 628 4666 
z
" id="DejaVuSans-45" transform="scale(0.015625)"/>
       <path d="M 1984 4856 
Q 1566 4138 1362 3434 
Q 1159 2731 1159 2009 
Q 1159 1288 1364 580 
Q 1569 -128 1984 -844 
L 1484 -844 
Q 1016 -109 783 600 
Q 550 1309 550 2009 
Q 550 2706 781 3412 
Q 1013 4119 1484 4856 
L 1984 4856 
z
" id="DejaVuSans-28" transform="scale(0.015625)"/>
       <path d="M 581 4863 
L 1159 4863 
L 1159 1991 
L 2875 3500 
L 3609 3500 
L 1753 1863 
L 3688 0 
L 2938 0 
L 1159 1709 
L 1159 0 
L 581 0 
L 581 4863 
z
" id="DejaVuSans-6b" transform="scale(0.015625)"/>
       <path d="M 3122 3366 
L 3122 2828 
Q 2878 2963 2633 3030 
Q 2388 3097 2138 3097 
Q 1578 3097 1268 2742 
Q 959 2388 959 1747 
Q 959 1106 1268 751 
Q 1578 397 2138 397 
Q 2388 397 2633 464 
Q 2878 531 3122 666 
L 3122 134 
Q 2881 22 2623 -34 
Q 2366 -91 2075 -91 
Q 1284 -91 818 406 
Q 353 903 353 1747 
Q 353 2603 823 3093 
Q 1294 3584 2113 3584 
Q 2378 3584 2631 3529 
Q 2884 3475 3122 3366 
z
" id="DejaVuSans-63" transform="scale(0.015625)"/>
       <path d="M 2194 1759 
Q 1497 1759 1228 1600 
Q 959 1441 959 1056 
Q 959 750 1161 570 
Q 1363 391 1709 391 
Q 2188 391 2477 730 
Q 2766 1069 2766 1631 
L 2766 1759 
L 2194 1759 
z
M 3341 1997 
L 3341 0 
L 2766 0 
L 2766 531 
Q 2569 213 2275 61 
Q 1981 -91 1556 -91 
Q 1019 -91 701 211 
Q 384 513 384 1019 
Q 384 1609 779 1909 
Q 1175 2209 1959 2209 
L 2766 2209 
L 2766 2266 
Q 2766 2663 2505 2880 
Q 2244 3097 1772 3097 
Q 1472 3097 1187 3025 
Q 903 2953 641 2809 
L 641 3341 
Q 956 3463 1253 3523 
Q 1550 3584 1831 3584 
Q 2591 3584 2966 3190 
Q 3341 2797 3341 1997 
z
" id="DejaVuSans-61" transform="scale(0.015625)"/>
       <path d="M 603 4863 
L 1178 4863 
L 1178 0 
L 603 0 
L 603 4863 
z
" id="DejaVuSans-6c" transform="scale(0.015625)"/>
       <path d="M 1625 4666 
L 2156 4666 
L 531 -594 
L 0 -594 
L 1625 4666 
z
" id="DejaVuSans-2f" transform="scale(0.015625)"/>
       <path d="M 513 4856 
L 1013 4856 
Q 1481 4119 1714 3412 
Q 1947 2706 1947 2009 
Q 1947 1309 1714 600 
Q 1481 -109 1013 -844 
L 513 -844 
Q 928 -128 1133 580 
Q 1338 1288 1338 2009 
Q 1338 2731 1133 3434 
Q 928 4138 513 4856 
z
" id="DejaVuSans-29" transform="scale(0.015625)"/>
      </defs>
      <use transform="translate(0 0.015625)" xlink:href="#DejaVuSans-394"/>
      <use transform="translate(68.408203 0.015625)" xlink:href="#DejaVuSans-45"/>
      <use transform="translate(131.591797 0.015625)" xlink:href="#DejaVuSans-20"/>
      <use transform="translate(163.378906 0.015625)" xlink:href="#DejaVuSans-28"/>
      <use transform="translate(202.392578 0.015625)" xlink:href="#DejaVuSans-6b"/>
      <use transform="translate(260.302734 0.015625)" xlink:href="#DejaVuSans-63"/>
      <use transform="translate(315.283203 0.015625)" xlink:href="#DejaVuSans-61"/>
      <use transform="translate(376.5625 0.015625)" xlink:href="#DejaVuSans-6c"/>
      <use transform="translate(404.345703 0.015625)" xlink:href="#DejaVuSans-2f"/>
      <use transform="translate(438.037109 0.015625)" xlink:href="#DejaVuSans-6d"/>
      <use transform="translate(535.449219 0.015625)" xlink:href="#DejaVuSans-6f"/>
      <use transform="translate(596.630859 0.015625)" xlink:href="#DejaVuSans-6c"/>
      <use transform="translate(624.414062 0.015625)" xlink:href="#DejaVuSans-29"/>
     </g>
    </g>
   </g>
   <g id="line2d_14">
    <path clip-path="url(#pe0891c945b)" d="M 31.92274 192.286428 
L 42.044416 179.678022 
L 52.166091 176.105692 
L 62.287767 161.570914 
L 72.409442 70.122247 
L 82.531118 65.525289 
L 92.652794 51.891057 
L 102.774469 49.879687 
L 112.896145 44.340299 
L 123.017821 40.306977 
L 133.139496 24.223325 
L 143.261172 14.155336 
" style="fill:none;stroke:#ffb5ba;stroke-linecap:square;stroke-width:1.5;"/>
    <defs>
     <path d="M 0 2.5 
C 0.663008 2.5 1.29895 2.236584 1.767767 1.767767 
C 2.236584 1.29895 2.5 0.663008 2.5 0 
C 2.5 -0.663008 2.236584 -1.29895 1.767767 -1.767767 
C 1.29895 -2.236584 0.663008 -2.5 0 -2.5 
C -0.663008 -2.5 -1.29895 -2.236584 -1.767767 -1.767767 
C -2.236584 -1.29895 -2.5 -0.663008 -2.5 0 
C -2.5 0.663008 -2.236584 1.29895 -1.767767 1.767767 
C -1.29895 2.236584 -0.663008 2.5 0 2.5 
z
" id="me16ceda00a"/>
    </defs>
    <g clip-path="url(#pe0891c945b)">
     <use style="fill:#ffb5ba;" x="31.92274" xlink:href="#me16ceda00a" y="192.286428"/>
     <use style="fill:#ffb5ba;" x="42.044416" xlink:href="#me16ceda00a" y="179.678022"/>
     <use style="fill:#ffb5ba;" x="52.166091" xlink:href="#me16ceda00a" y="176.105692"/>
     <use style="fill:#ffb5ba;" x="62.287767" xlink:href="#me16ceda00a" y="161.570914"/>
     <use style="fill:#ffb5ba;" x="72.409442" xlink:href="#me16ceda00a" y="70.122247"/>
     <use style="fill:#ffb5ba;" x="82.531118" xlink:href="#me16ceda00a" y="65.525289"/>
     <use style="fill:#ffb5ba;" x="92.652794" xlink:href="#me16ceda00a" y="51.891057"/>
     <use style="fill:#ffb5ba;" x="102.774469" xlink:href="#me16ceda00a" y="49.879687"/>
     <use style="fill:#ffb5ba;" x="112.896145" xlink:href="#me16ceda00a" y="44.340299"/>
     <use style="fill:#ffb5ba;" x="123.017821" xlink:href="#me16ceda00a" y="40.306977"/>
     <use style="fill:#ffb5ba;" x="133.139496" xlink:href="#me16ceda00a" y="24.223325"/>
     <use style="fill:#ffb5ba;" x="143.261172" xlink:href="#me16ceda00a" y="14.155336"/>
    </g>
   </g>
   <g id="patch_3">
    <path d="M 31.92274 237.25726 
L 31.92274 3.00024 
" style="fill:none;stroke:#000000;stroke-linecap:square;stroke-linejoin:miter;stroke-width:0.8;"/>
   </g>
   <g id="patch_4">
    <path d="M 148.828093 237.25726 
L 148.828093 3.00024 
" style="fill:none;stroke:#000000;stroke-linecap:square;stroke-linejoin:miter;stroke-width:0.8;"/>
   </g>
   <g id="patch_5">
    <path d="M 31.92274 237.25726 
L 148.828093 237.25726 
" style="fill:none;stroke:#000000;stroke-linecap:square;stroke-linejoin:miter;stroke-width:0.8;"/>
   </g>
   <g id="patch_6">
    <path d="M 31.92274 3.00024 
L 148.828093 3.00024 
" style="fill:none;stroke:#000000;stroke-linecap:square;stroke-linejoin:miter;stroke-width:0.8;"/>
   </g>
   <g id="text_9">
    <!-- A -->
    <g transform="translate(40.22302 15.884376)scale(0.096 -0.096)">
     <defs>
      <path d="M 3419 850 
L 1538 850 
L 1241 0 
L 31 0 
L 1759 4666 
L 3194 4666 
L 4922 0 
L 3713 0 
L 3419 850 
z
M 1838 1716 
L 3116 1716 
L 2478 3572 
L 1838 1716 
z
" id="DejaVuSans-Bold-41" transform="scale(0.015625)"/>
     </defs>
     <use xlink:href="#DejaVuSans-Bold-41"/>
    </g>
   </g>
   <g id="legend_1">
    <g id="line2d_15">
     <path d="M 36.291794 23.388034 
L 52.291794 23.388034 
" style="fill:none;stroke:#c0c0c0;stroke-dasharray:5.55,2.4;stroke-dashoffset:0;stroke-width:1.5;"/>
    </g>
    <g id="line2d_16">
     <g>
      <use style="fill:#c0c0c0;" x="44.291794" xlink:href="#m2e222dc3bf" y="23.388034"/>
     </g>
    </g>
    <g id="text_10">
     <!-- MP2 -->
     <g transform="translate(58.691794 26.188034)scale(0.08 -0.08)">
      <defs>
       <path d="M 628 4666 
L 1569 4666 
L 2759 1491 
L 3956 4666 
L 4897 4666 
L 4897 0 
L 4281 0 
L 4281 4097 
L 3078 897 
L 2444 897 
L 1241 4097 
L 1241 0 
L 628 0 
L 628 4666 
z
" id="DejaVuSans-4d" transform="scale(0.015625)"/>
       <path d="M 1259 4147 
L 1259 2394 
L 2053 2394 
Q 2494 2394 2734 2622 
Q 2975 2850 2975 3272 
Q 2975 3691 2734 3919 
Q 2494 4147 2053 4147 
L 1259 4147 
z
M 628 4666 
L 2053 4666 
Q 2838 4666 3239 4311 
Q 3641 3956 3641 3272 
Q 3641 2581 3239 2228 
Q 2838 1875 2053 1875 
L 1259 1875 
L 1259 0 
L 628 0 
L 628 4666 
z
" id="DejaVuSans-50" transform="scale(0.015625)"/>
      </defs>
      <use xlink:href="#DejaVuSans-4d"/>
      <use x="86.279297" xlink:href="#DejaVuSans-50"/>
      <use x="146.582031" xlink:href="#DejaVuSans-32"/>
     </g>
    </g>
    <g id="line2d_17">
     <path d="M 36.291794 35.130534 
L 52.291794 35.130534 
" style="fill:none;stroke:#ffe1e3;stroke-dasharray:5.55,2.4;stroke-dashoffset:0;stroke-width:1.5;"/>
    </g>
    <g id="line2d_18">
     <g>
      <use style="fill:#ffe1e3;" x="44.291794" xlink:href="#m608b6d5124" y="35.130534"/>
     </g>
    </g>
    <g id="text_11">
     <!-- MBE -->
     <g transform="translate(58.691794 37.930534)scale(0.08 -0.08)">
      <defs>
       <path d="M 1259 2228 
L 1259 519 
L 2272 519 
Q 2781 519 3026 730 
Q 3272 941 3272 1375 
Q 3272 1813 3026 2020 
Q 2781 2228 2272 2228 
L 1259 2228 
z
M 1259 4147 
L 1259 2741 
L 2194 2741 
Q 2656 2741 2882 2914 
Q 3109 3088 3109 3444 
Q 3109 3797 2882 3972 
Q 2656 4147 2194 4147 
L 1259 4147 
z
M 628 4666 
L 2241 4666 
Q 2963 4666 3353 4366 
Q 3744 4066 3744 3513 
Q 3744 3084 3544 2831 
Q 3344 2578 2956 2516 
Q 3422 2416 3680 2098 
Q 3938 1781 3938 1306 
Q 3938 681 3513 340 
Q 3088 0 2303 0 
L 628 0 
L 628 4666 
z
" id="DejaVuSans-42" transform="scale(0.015625)"/>
      </defs>
      <use xlink:href="#DejaVuSans-4d"/>
      <use x="86.279297" xlink:href="#DejaVuSans-42"/>
      <use x="154.882812" xlink:href="#DejaVuSans-45"/>
     </g>
    </g>
    <g id="line2d_19">
     <path d="M 36.291794 46.873034 
L 52.291794 46.873034 
" style="fill:none;stroke:#ffb5ba;stroke-linecap:square;stroke-width:1.5;"/>
    </g>
    <g id="line2d_20">
     <g>
      <use style="fill:#ffb5ba;" x="44.291794" xlink:href="#me16ceda00a" y="46.873034"/>
     </g>
    </g>
    <g id="text_12">
     <!-- mbGDML -->
     <g transform="translate(58.691794 49.673034)scale(0.08 -0.08)">
      <defs>
       <path d="M 3116 1747 
Q 3116 2381 2855 2742 
Q 2594 3103 2138 3103 
Q 1681 3103 1420 2742 
Q 1159 2381 1159 1747 
Q 1159 1113 1420 752 
Q 1681 391 2138 391 
Q 2594 391 2855 752 
Q 3116 1113 3116 1747 
z
M 1159 2969 
Q 1341 3281 1617 3432 
Q 1894 3584 2278 3584 
Q 2916 3584 3314 3078 
Q 3713 2572 3713 1747 
Q 3713 922 3314 415 
Q 2916 -91 2278 -91 
Q 1894 -91 1617 61 
Q 1341 213 1159 525 
L 1159 0 
L 581 0 
L 581 4863 
L 1159 4863 
L 1159 2969 
z
" id="DejaVuSans-62" transform="scale(0.015625)"/>
       <path d="M 3809 666 
L 3809 1919 
L 2778 1919 
L 2778 2438 
L 4434 2438 
L 4434 434 
Q 4069 175 3628 42 
Q 3188 -91 2688 -91 
Q 1594 -91 976 548 
Q 359 1188 359 2328 
Q 359 3472 976 4111 
Q 1594 4750 2688 4750 
Q 3144 4750 3555 4637 
Q 3966 4525 4313 4306 
L 4313 3634 
Q 3963 3931 3569 4081 
Q 3175 4231 2741 4231 
Q 1884 4231 1454 3753 
Q 1025 3275 1025 2328 
Q 1025 1384 1454 906 
Q 1884 428 2741 428 
Q 3075 428 3337 486 
Q 3600 544 3809 666 
z
" id="DejaVuSans-47" transform="scale(0.015625)"/>
       <path d="M 1259 4147 
L 1259 519 
L 2022 519 
Q 2988 519 3436 956 
Q 3884 1394 3884 2338 
Q 3884 3275 3436 3711 
Q 2988 4147 2022 4147 
L 1259 4147 
z
M 628 4666 
L 1925 4666 
Q 3281 4666 3915 4102 
Q 4550 3538 4550 2338 
Q 4550 1131 3912 565 
Q 3275 0 1925 0 
L 628 0 
L 628 4666 
z
" id="DejaVuSans-44" transform="scale(0.015625)"/>
       <path d="M 628 4666 
L 1259 4666 
L 1259 531 
L 3531 531 
L 3531 0 
L 628 0 
L 628 4666 
z
" id="DejaVuSans-4c" transform="scale(0.015625)"/>
      </defs>
      <use xlink:href="#DejaVuSans-6d"/>
      <use x="97.412109" xlink:href="#DejaVuSans-62"/>
      <use x="160.888672" xlink:href="#DejaVuSans-47"/>
      <use x="238.378906" xlink:href="#DejaVuSans-44"/>
      <use x="315.380859" xlink:href="#DejaVuSans-4d"/>
      <use x="401.660156" xlink:href="#DejaVuSans-4c"/>
     </g>
    </g>
   </g>
  </g>
  <g id="axes_2">
   <g id="patch_7">
    <path d="M 172.008573 237.25726 
L 288.913927 237.25726 
L 288.913927 3.00024 
L 172.008573 3.00024 
z
" style="fill:#ffffff;"/>
   </g>
   <g id="line2d_21">
    <path clip-path="url(#p194f06630a)" d="M 172.008573 237.25726 
L 180.573068 226.797097 
L 189.137563 226.583812 
L 197.702058 182.143546 
L 206.266552 180.601425 
L 214.831047 157.433802 
L 223.395542 155.784541 
L 231.960037 150.696498 
L 240.524531 148.498908 
L 249.089026 130.606264 
L 257.653521 93.567346 
L 266.218016 67.642093 
L 274.78251 64.88934 
L 283.347005 28.397594 
" style="fill:none;stroke:#c0c0c0;stroke-dasharray:5.55,2.4;stroke-dashoffset:0;stroke-width:1.5;"/>
    <g clip-path="url(#p194f06630a)">
     <use style="fill:#c0c0c0;" x="172.008573" xlink:href="#m2e222dc3bf" y="237.25726"/>
     <use style="fill:#c0c0c0;" x="180.573068" xlink:href="#m2e222dc3bf" y="226.797097"/>
     <use style="fill:#c0c0c0;" x="189.137563" xlink:href="#m2e222dc3bf" y="226.583812"/>
     <use style="fill:#c0c0c0;" x="197.702058" xlink:href="#m2e222dc3bf" y="182.143546"/>
     <use style="fill:#c0c0c0;" x="206.266552" xlink:href="#m2e222dc3bf" y="180.601425"/>
     <use style="fill:#c0c0c0;" x="214.831047" xlink:href="#m2e222dc3bf" y="157.433802"/>
     <use style="fill:#c0c0c0;" x="223.395542" xlink:href="#m2e222dc3bf" y="155.784541"/>
     <use style="fill:#c0c0c0;" x="231.960037" xlink:href="#m2e222dc3bf" y="150.696498"/>
     <use style="fill:#c0c0c0;" x="240.524531" xlink:href="#m2e222dc3bf" y="148.498908"/>
     <use style="fill:#c0c0c0;" x="249.089026" xlink:href="#m2e222dc3bf" y="130.606264"/>
     <use style="fill:#c0c0c0;" x="257.653521" xlink:href="#m2e222dc3bf" y="93.567346"/>
     <use style="fill:#c0c0c0;" x="266.218016" xlink:href="#m2e222dc3bf" y="67.642093"/>
     <use style="fill:#c0c0c0;" x="274.78251" xlink:href="#m2e222dc3bf" y="64.88934"/>
     <use style="fill:#c0c0c0;" x="283.347005" xlink:href="#m2e222dc3bf" y="28.397594"/>
    </g>
   </g>
   <g id="line2d_22">
    <path clip-path="url(#p194f06630a)" d="M 172.008573 215.248225 
L 180.573068 210.771015 
L 189.137563 206.226866 
L 197.702058 170.034994 
L 206.266552 168.730182 
L 214.831047 149.392229 
L 223.395542 146.459671 
L 231.960037 139.940211 
L 240.524531 139.159725 
L 249.089026 121.838359 
L 257.653521 92.708508 
L 266.218016 63.972732 
L 274.78251 61.268795 
L 283.347005 29.009677 
" style="fill:none;stroke:#ffe1e3;stroke-dasharray:5.55,2.4;stroke-dashoffset:0;stroke-width:1.5;"/>
    <g clip-path="url(#p194f06630a)">
     <use style="fill:#ffe1e3;" x="172.008573" xlink:href="#m608b6d5124" y="215.248225"/>
     <use style="fill:#ffe1e3;" x="180.573068" xlink:href="#m608b6d5124" y="210.771015"/>
     <use style="fill:#ffe1e3;" x="189.137563" xlink:href="#m608b6d5124" y="206.226866"/>
     <use style="fill:#ffe1e3;" x="197.702058" xlink:href="#m608b6d5124" y="170.034994"/>
     <use style="fill:#ffe1e3;" x="206.266552" xlink:href="#m608b6d5124" y="168.730182"/>
     <use style="fill:#ffe1e3;" x="214.831047" xlink:href="#m608b6d5124" y="149.392229"/>
     <use style="fill:#ffe1e3;" x="223.395542" xlink:href="#m608b6d5124" y="146.459671"/>
     <use style="fill:#ffe1e3;" x="231.960037" xlink:href="#m608b6d5124" y="139.940211"/>
     <use style="fill:#ffe1e3;" x="240.524531" xlink:href="#m608b6d5124" y="139.159725"/>
     <use style="fill:#ffe1e3;" x="249.089026" xlink:href="#m608b6d5124" y="121.838359"/>
     <use style="fill:#ffe1e3;" x="257.653521" xlink:href="#m608b6d5124" y="92.708508"/>
     <use style="fill:#ffe1e3;" x="266.218016" xlink:href="#m608b6d5124" y="63.972732"/>
     <use style="fill:#ffe1e3;" x="274.78251" xlink:href="#m608b6d5124" y="61.268795"/>
     <use style="fill:#ffe1e3;" x="283.347005" xlink:href="#m608b6d5124" y="29.009677"/>
    </g>
   </g>
   <g id="matplotlib.axis_3">
    <g id="text_13">
     <!-- 5mer Isomers -->
     <g transform="translate(202.84625 247.33601)scale(0.08 -0.08)">
      <defs>
       <path d="M 691 4666 
L 3169 4666 
L 3169 4134 
L 1269 4134 
L 1269 2991 
Q 1406 3038 1543 3061 
Q 1681 3084 1819 3084 
Q 2600 3084 3056 2656 
Q 3513 2228 3513 1497 
Q 3513 744 3044 326 
Q 2575 -91 1722 -91 
Q 1428 -91 1123 -41 
Q 819 9 494 109 
L 494 744 
Q 775 591 1075 516 
Q 1375 441 1709 441 
Q 2250 441 2565 725 
Q 2881 1009 2881 1497 
Q 2881 1984 2565 2268 
Q 2250 2553 1709 2553 
Q 1456 2553 1204 2497 
Q 953 2441 691 2322 
L 691 4666 
z
" id="DejaVuSans-35" transform="scale(0.015625)"/>
      </defs>
      <use xlink:href="#DejaVuSans-35"/>
      <use x="63.623047" xlink:href="#DejaVuSans-6d"/>
      <use x="161.035156" xlink:href="#DejaVuSans-65"/>
      <use x="222.558594" xlink:href="#DejaVuSans-72"/>
      <use x="263.671875" xlink:href="#DejaVuSans-20"/>
      <use x="295.458984" xlink:href="#DejaVuSans-49"/>
      <use x="324.951172" xlink:href="#DejaVuSans-73"/>
      <use x="377.050781" xlink:href="#DejaVuSans-6f"/>
      <use x="438.232422" xlink:href="#DejaVuSans-6d"/>
      <use x="535.644531" xlink:href="#DejaVuSans-65"/>
      <use x="597.167969" xlink:href="#DejaVuSans-72"/>
      <use x="638.28125" xlink:href="#DejaVuSans-73"/>
     </g>
    </g>
   </g>
   <g id="matplotlib.axis_4">
    <g id="ytick_12">
     <g id="line2d_23">
      <g>
       <use style="stroke:#000000;stroke-width:0.8;" x="172.008573" xlink:href="#m926cb245bc" y="237.25726"/>
      </g>
     </g>
     <g id="text_14">
      <!-- 0 -->
      <g transform="translate(159.918573 240.296635)scale(0.08 -0.08)">
       <use xlink:href="#DejaVuSans-30"/>
      </g>
     </g>
    </g>
    <g id="ytick_13">
     <g id="line2d_24">
      <g>
       <use style="stroke:#000000;stroke-width:0.8;" x="172.008573" xlink:href="#m926cb245bc" y="204.605175"/>
      </g>
     </g>
     <g id="text_15">
      <!-- 2 -->
      <g transform="translate(159.918573 207.64455)scale(0.08 -0.08)">
       <use xlink:href="#DejaVuSans-32"/>
      </g>
     </g>
    </g>
    <g id="ytick_14">
     <g id="line2d_25">
      <g>
       <use style="stroke:#000000;stroke-width:0.8;" x="172.008573" xlink:href="#m926cb245bc" y="171.953089"/>
      </g>
     </g>
     <g id="text_16">
      <!-- 4 -->
      <g transform="translate(159.918573 174.992464)scale(0.08 -0.08)">
       <use xlink:href="#DejaVuSans-34"/>
      </g>
     </g>
    </g>
    <g id="ytick_15">
     <g id="line2d_26">
      <g>
       <use style="stroke:#000000;stroke-width:0.8;" x="172.008573" xlink:href="#m926cb245bc" y="139.301004"/>
      </g>
     </g>
     <g id="text_17">
      <!-- 6 -->
      <g transform="translate(159.918573 142.340379)scale(0.08 -0.08)">
       <use xlink:href="#DejaVuSans-36"/>
      </g>
     </g>
    </g>
    <g id="ytick_16">
     <g id="line2d_27">
      <g>
       <use style="stroke:#000000;stroke-width:0.8;" x="172.008573" xlink:href="#m926cb245bc" y="106.648919"/>
      </g>
     </g>
     <g id="text_18">
      <!-- 8 -->
      <g transform="translate(159.918573 109.688294)scale(0.08 -0.08)">
       <use xlink:href="#DejaVuSans-38"/>
      </g>
     </g>
    </g>
    <g id="ytick_17">
     <g id="line2d_28">
      <g>
       <use style="stroke:#000000;stroke-width:0.8;" x="172.008573" xlink:href="#m926cb245bc" y="73.996834"/>
      </g>
     </g>
     <g id="text_19">
      <!-- 10 -->
      <g transform="translate(154.828573 77.036209)scale(0.08 -0.08)">
       <use xlink:href="#DejaVuSans-31"/>
       <use x="63.623047" xlink:href="#DejaVuSans-30"/>
      </g>
     </g>
    </g>
    <g id="ytick_18">
     <g id="line2d_29">
      <g>
       <use style="stroke:#000000;stroke-width:0.8;" x="172.008573" xlink:href="#m926cb245bc" y="41.344748"/>
      </g>
     </g>
     <g id="text_20">
      <!-- 12 -->
      <g transform="translate(154.828573 44.384123)scale(0.08 -0.08)">
       <use xlink:href="#DejaVuSans-31"/>
       <use x="63.623047" xlink:href="#DejaVuSans-32"/>
      </g>
     </g>
    </g>
    <g id="ytick_19">
     <g id="line2d_30">
      <g>
       <use style="stroke:#000000;stroke-width:0.8;" x="172.008573" xlink:href="#m926cb245bc" y="8.692663"/>
      </g>
     </g>
     <g id="text_21">
      <!-- 14 -->
      <g transform="translate(154.828573 11.732038)scale(0.08 -0.08)">
       <use xlink:href="#DejaVuSans-31"/>
       <use x="63.623047" xlink:href="#DejaVuSans-34"/>
      </g>
     </g>
    </g>
    <g id="ytick_20">
     <g id="line2d_31">
      <g>
       <use style="stroke:#000000;stroke-width:0.6;" x="172.008573" xlink:href="#m37d47a7bdc" y="220.931217"/>
      </g>
     </g>
    </g>
    <g id="ytick_21">
     <g id="line2d_32">
      <g>
       <use style="stroke:#000000;stroke-width:0.6;" x="172.008573" xlink:href="#m37d47a7bdc" y="188.279132"/>
      </g>
     </g>
    </g>
    <g id="ytick_22">
     <g id="line2d_33">
      <g>
       <use style="stroke:#000000;stroke-width:0.6;" x="172.008573" xlink:href="#m37d47a7bdc" y="155.627047"/>
      </g>
     </g>
    </g>
    <g id="ytick_23">
     <g id="line2d_34">
      <g>
       <use style="stroke:#000000;stroke-width:0.6;" x="172.008573" xlink:href="#m37d47a7bdc" y="122.974962"/>
      </g>
     </g>
    </g>
    <g id="ytick_24">
     <g id="line2d_35">
      <g>
       <use style="stroke:#000000;stroke-width:0.6;" x="172.008573" xlink:href="#m37d47a7bdc" y="90.322876"/>
      </g>
     </g>
    </g>
    <g id="ytick_25">
     <g id="line2d_36">
      <g>
       <use style="stroke:#000000;stroke-width:0.6;" x="172.008573" xlink:href="#m37d47a7bdc" y="57.670791"/>
      </g>
     </g>
    </g>
    <g id="ytick_26">
     <g id="line2d_37">
      <g>
       <use style="stroke:#000000;stroke-width:0.6;" x="172.008573" xlink:href="#m37d47a7bdc" y="25.018706"/>
      </g>
     </g>
    </g>
   </g>
   <g id="line2d_38">
    <path clip-path="url(#p194f06630a)" d="M 172.008573 192.677457 
L 180.573068 195.46044 
L 189.137563 188.720441 
L 197.702058 147.849272 
L 206.266552 144.566682 
L 214.831047 125.283501 
L 223.395542 122.59809 
L 231.960037 119.603167 
L 240.524531 126.201667 
L 249.089026 107.016022 
L 257.653521 69.653881 
L 266.218016 41.923208 
L 274.78251 47.713321 
L 283.347005 14.155336 
" style="fill:none;stroke:#ffb5ba;stroke-linecap:square;stroke-width:1.5;"/>
    <g clip-path="url(#p194f06630a)">
     <use style="fill:#ffb5ba;" x="172.008573" xlink:href="#me16ceda00a" y="192.677457"/>
     <use style="fill:#ffb5ba;" x="180.573068" xlink:href="#me16ceda00a" y="195.46044"/>
     <use style="fill:#ffb5ba;" x="189.137563" xlink:href="#me16ceda00a" y="188.720441"/>
     <use style="fill:#ffb5ba;" x="197.702058" xlink:href="#me16ceda00a" y="147.849272"/>
     <use style="fill:#ffb5ba;" x="206.266552" xlink:href="#me16ceda00a" y="144.566682"/>
     <use style="fill:#ffb5ba;" x="214.831047" xlink:href="#me16ceda00a" y="125.283501"/>
     <use style="fill:#ffb5ba;" x="223.395542" xlink:href="#me16ceda00a" y="122.59809"/>
     <use style="fill:#ffb5ba;" x="231.960037" xlink:href="#me16ceda00a" y="119.603167"/>
     <use style="fill:#ffb5ba;" x="240.524531" xlink:href="#me16ceda00a" y="126.201667"/>
     <use style="fill:#ffb5ba;" x="249.089026" xlink:href="#me16ceda00a" y="107.016022"/>
     <use style="fill:#ffb5ba;" x="257.653521" xlink:href="#me16ceda00a" y="69.653881"/>
     <use style="fill:#ffb5ba;" x="266.218016" xlink:href="#me16ceda00a" y="41.923208"/>
     <use style="fill:#ffb5ba;" x="274.78251" xlink:href="#me16ceda00a" y="47.713321"/>
     <use style="fill:#ffb5ba;" x="283.347005" xlink:href="#me16ceda00a" y="14.155336"/>
    </g>
   </g>
   <g id="patch_8">
    <path d="M 172.008573 237.25726 
L 172.008573 3.00024 
" style="fill:none;stroke:#000000;stroke-linecap:square;stroke-linejoin:miter;stroke-width:0.8;"/>
   </g>
   <g id="patch_9">
    <path d="M 288.913927 237.25726 
L 288.913927 3.00024 
" style="fill:none;stroke:#000000;stroke-linecap:square;stroke-linejoin:miter;stroke-width:0.8;"/>
   </g>
   <g id="patch_10">
    <path d="M 172.008573 237.25726 
L 288.913927 237.25726 
" style="fill:none;stroke:#000000;stroke-linecap:square;stroke-linejoin:miter;stroke-width:0.8;"/>
   </g>
   <g id="patch_11">
    <path d="M 172.008573 3.00024 
L 288.913927 3.00024 
" style="fill:none;stroke:#000000;stroke-linecap:square;stroke-linejoin:miter;stroke-width:0.8;"/>
   </g>
   <g id="text_22">
    <!-- B -->
    <g transform="translate(180.308853 15.884376)scale(0.096 -0.096)">
     <defs>
      <path d="M 2456 2859 
Q 2741 2859 2887 2984 
Q 3034 3109 3034 3353 
Q 3034 3594 2887 3720 
Q 2741 3847 2456 3847 
L 1791 3847 
L 1791 2859 
L 2456 2859 
z
M 2497 819 
Q 2859 819 3042 972 
Q 3225 1125 3225 1434 
Q 3225 1738 3044 1889 
Q 2863 2041 2497 2041 
L 1791 2041 
L 1791 819 
L 2497 819 
z
M 3616 2497 
Q 4003 2384 4215 2081 
Q 4428 1778 4428 1338 
Q 4428 663 3972 331 
Q 3516 0 2584 0 
L 588 0 
L 588 4666 
L 2394 4666 
Q 3366 4666 3802 4372 
Q 4238 4078 4238 3431 
Q 4238 3091 4078 2852 
Q 3919 2613 3616 2497 
z
" id="DejaVuSans-Bold-42" transform="scale(0.015625)"/>
     </defs>
     <use xlink:href="#DejaVuSans-Bold-42"/>
    </g>
   </g>
  </g>
  <g id="axes_3">
   <g id="patch_12">
    <path d="M 312.094407 237.25726 
L 428.99976 237.25726 
L 428.99976 3.00024 
L 312.094407 3.00024 
z
" style="fill:#ffffff;"/>
   </g>
   <g id="line2d_39">
    <path clip-path="url(#pfa0f027416)" d="M 312.094407 237.25726 
L 330.650812 208.925792 
L 349.207217 176.992655 
L 367.763623 137.409752 
L 386.320028 105.293432 
L 404.876433 80.994067 
L 423.432838 29.38574 
" style="fill:none;stroke:#c0c0c0;stroke-dasharray:5.55,2.4;stroke-dashoffset:0;stroke-width:1.5;"/>
    <g clip-path="url(#pfa0f027416)">
     <use style="fill:#c0c0c0;" x="312.094407" xlink:href="#m2e222dc3bf" y="237.25726"/>
     <use style="fill:#c0c0c0;" x="330.650812" xlink:href="#m2e222dc3bf" y="208.925792"/>
     <use style="fill:#c0c0c0;" x="349.207217" xlink:href="#m2e222dc3bf" y="176.992655"/>
     <use style="fill:#c0c0c0;" x="367.763623" xlink:href="#m2e222dc3bf" y="137.409752"/>
     <use style="fill:#c0c0c0;" x="386.320028" xlink:href="#m2e222dc3bf" y="105.293432"/>
     <use style="fill:#c0c0c0;" x="404.876433" xlink:href="#m2e222dc3bf" y="80.994067"/>
     <use style="fill:#c0c0c0;" x="423.432838" xlink:href="#m2e222dc3bf" y="29.38574"/>
    </g>
   </g>
   <g id="line2d_40">
    <path clip-path="url(#pfa0f027416)" d="M 312.094407 210.894098 
L 330.650812 190.602102 
L 349.207217 163.904771 
L 367.763623 130.11776 
L 386.320028 103.158093 
L 404.876433 78.620438 
L 423.432838 28.534692 
" style="fill:none;stroke:#ffe1e3;stroke-dasharray:5.55,2.4;stroke-dashoffset:0;stroke-width:1.5;"/>
    <g clip-path="url(#pfa0f027416)">
     <use style="fill:#ffe1e3;" x="312.094407" xlink:href="#m608b6d5124" y="210.894098"/>
     <use style="fill:#ffe1e3;" x="330.650812" xlink:href="#m608b6d5124" y="190.602102"/>
     <use style="fill:#ffe1e3;" x="349.207217" xlink:href="#m608b6d5124" y="163.904771"/>
     <use style="fill:#ffe1e3;" x="367.763623" xlink:href="#m608b6d5124" y="130.11776"/>
     <use style="fill:#ffe1e3;" x="386.320028" xlink:href="#m608b6d5124" y="103.158093"/>
     <use style="fill:#ffe1e3;" x="404.876433" xlink:href="#m608b6d5124" y="78.620438"/>
     <use style="fill:#ffe1e3;" x="423.432838" xlink:href="#m608b6d5124" y="28.534692"/>
    </g>
   </g>
   <g id="matplotlib.axis_5">
    <g id="text_23">
     <!-- 6mer Isomers -->
     <g transform="translate(342.932083 247.33601)scale(0.08 -0.08)">
      <use xlink:href="#DejaVuSans-36"/>
      <use x="63.623047" xlink:href="#DejaVuSans-6d"/>
      <use x="161.035156" xlink:href="#DejaVuSans-65"/>
      <use x="222.558594" xlink:href="#DejaVuSans-72"/>
      <use x="263.671875" xlink:href="#DejaVuSans-20"/>
      <use x="295.458984" xlink:href="#DejaVuSans-49"/>
      <use x="324.951172" xlink:href="#DejaVuSans-73"/>
      <use x="377.050781" xlink:href="#DejaVuSans-6f"/>
      <use x="438.232422" xlink:href="#DejaVuSans-6d"/>
      <use x="535.644531" xlink:href="#DejaVuSans-65"/>
      <use x="597.167969" xlink:href="#DejaVuSans-72"/>
      <use x="638.28125" xlink:href="#DejaVuSans-73"/>
     </g>
    </g>
   </g>
   <g id="matplotlib.axis_6">
    <g id="ytick_27">
     <g id="line2d_41">
      <g>
       <use style="stroke:#000000;stroke-width:0.8;" x="312.094407" xlink:href="#m926cb245bc" y="237.25726"/>
      </g>
     </g>
     <g id="text_24">
      <!-- 0 -->
      <g transform="translate(300.004407 240.296635)scale(0.08 -0.08)">
       <use xlink:href="#DejaVuSans-30"/>
      </g>
     </g>
    </g>
    <g id="ytick_28">
     <g id="line2d_42">
      <g>
       <use style="stroke:#000000;stroke-width:0.8;" x="312.094407" xlink:href="#m926cb245bc" y="209.818449"/>
      </g>
     </g>
     <g id="text_25">
      <!-- 2 -->
      <g transform="translate(300.004407 212.857824)scale(0.08 -0.08)">
       <use xlink:href="#DejaVuSans-32"/>
      </g>
     </g>
    </g>
    <g id="ytick_29">
     <g id="line2d_43">
      <g>
       <use style="stroke:#000000;stroke-width:0.8;" x="312.094407" xlink:href="#m926cb245bc" y="182.379637"/>
      </g>
     </g>
     <g id="text_26">
      <!-- 4 -->
      <g transform="translate(300.004407 185.419012)scale(0.08 -0.08)">
       <use xlink:href="#DejaVuSans-34"/>
      </g>
     </g>
    </g>
    <g id="ytick_30">
     <g id="line2d_44">
      <g>
       <use style="stroke:#000000;stroke-width:0.8;" x="312.094407" xlink:href="#m926cb245bc" y="154.940826"/>
      </g>
     </g>
     <g id="text_27">
      <!-- 6 -->
      <g transform="translate(300.004407 157.980201)scale(0.08 -0.08)">
       <use xlink:href="#DejaVuSans-36"/>
      </g>
     </g>
    </g>
    <g id="ytick_31">
     <g id="line2d_45">
      <g>
       <use style="stroke:#000000;stroke-width:0.8;" x="312.094407" xlink:href="#m926cb245bc" y="127.502014"/>
      </g>
     </g>
     <g id="text_28">
      <!-- 8 -->
      <g transform="translate(300.004407 130.541389)scale(0.08 -0.08)">
       <use xlink:href="#DejaVuSans-38"/>
      </g>
     </g>
    </g>
    <g id="ytick_32">
     <g id="line2d_46">
      <g>
       <use style="stroke:#000000;stroke-width:0.8;" x="312.094407" xlink:href="#m926cb245bc" y="100.063203"/>
      </g>
     </g>
     <g id="text_29">
      <!-- 10 -->
      <g transform="translate(294.914407 103.102578)scale(0.08 -0.08)">
       <use xlink:href="#DejaVuSans-31"/>
       <use x="63.623047" xlink:href="#DejaVuSans-30"/>
      </g>
     </g>
    </g>
    <g id="ytick_33">
     <g id="line2d_47">
      <g>
       <use style="stroke:#000000;stroke-width:0.8;" x="312.094407" xlink:href="#m926cb245bc" y="72.624392"/>
      </g>
     </g>
     <g id="text_30">
      <!-- 12 -->
      <g transform="translate(294.914407 75.663767)scale(0.08 -0.08)">
       <use xlink:href="#DejaVuSans-31"/>
       <use x="63.623047" xlink:href="#DejaVuSans-32"/>
      </g>
     </g>
    </g>
    <g id="ytick_34">
     <g id="line2d_48">
      <g>
       <use style="stroke:#000000;stroke-width:0.8;" x="312.094407" xlink:href="#m926cb245bc" y="45.18558"/>
      </g>
     </g>
     <g id="text_31">
      <!-- 14 -->
      <g transform="translate(294.914407 48.224955)scale(0.08 -0.08)">
       <use xlink:href="#DejaVuSans-31"/>
       <use x="63.623047" xlink:href="#DejaVuSans-34"/>
      </g>
     </g>
    </g>
    <g id="ytick_35">
     <g id="line2d_49">
      <g>
       <use style="stroke:#000000;stroke-width:0.8;" x="312.094407" xlink:href="#m926cb245bc" y="17.746769"/>
      </g>
     </g>
     <g id="text_32">
      <!-- 16 -->
      <g transform="translate(294.914407 20.786144)scale(0.08 -0.08)">
       <use xlink:href="#DejaVuSans-31"/>
       <use x="63.623047" xlink:href="#DejaVuSans-36"/>
      </g>
     </g>
    </g>
    <g id="ytick_36">
     <g id="line2d_50">
      <g>
       <use style="stroke:#000000;stroke-width:0.6;" x="312.094407" xlink:href="#m37d47a7bdc" y="223.537854"/>
      </g>
     </g>
    </g>
    <g id="ytick_37">
     <g id="line2d_51">
      <g>
       <use style="stroke:#000000;stroke-width:0.6;" x="312.094407" xlink:href="#m37d47a7bdc" y="196.099043"/>
      </g>
     </g>
    </g>
    <g id="ytick_38">
     <g id="line2d_52">
      <g>
       <use style="stroke:#000000;stroke-width:0.6;" x="312.094407" xlink:href="#m37d47a7bdc" y="168.660232"/>
      </g>
     </g>
    </g>
    <g id="ytick_39">
     <g id="line2d_53">
      <g>
       <use style="stroke:#000000;stroke-width:0.6;" x="312.094407" xlink:href="#m37d47a7bdc" y="141.22142"/>
      </g>
     </g>
    </g>
    <g id="ytick_40">
     <g id="line2d_54">
      <g>
       <use style="stroke:#000000;stroke-width:0.6;" x="312.094407" xlink:href="#m37d47a7bdc" y="113.782609"/>
      </g>
     </g>
    </g>
    <g id="ytick_41">
     <g id="line2d_55">
      <g>
       <use style="stroke:#000000;stroke-width:0.6;" x="312.094407" xlink:href="#m37d47a7bdc" y="86.343797"/>
      </g>
     </g>
    </g>
    <g id="ytick_42">
     <g id="line2d_56">
      <g>
       <use style="stroke:#000000;stroke-width:0.6;" x="312.094407" xlink:href="#m37d47a7bdc" y="58.904986"/>
      </g>
     </g>
    </g>
    <g id="ytick_43">
     <g id="line2d_57">
      <g>
       <use style="stroke:#000000;stroke-width:0.6;" x="312.094407" xlink:href="#m37d47a7bdc" y="31.466175"/>
      </g>
     </g>
    </g>
    <g id="ytick_44">
     <g id="line2d_58">
      <g>
       <use style="stroke:#000000;stroke-width:0.6;" x="312.094407" xlink:href="#m37d47a7bdc" y="4.027363"/>
      </g>
     </g>
    </g>
   </g>
   <g id="line2d_59">
    <path clip-path="url(#pfa0f027416)" d="M 312.094407 187.26215 
L 330.650812 167.822877 
L 349.207217 150.644594 
L 367.763623 110.875162 
L 386.320028 74.859911 
L 404.876433 65.50539 
L 423.432838 14.155336 
" style="fill:none;stroke:#ffb5ba;stroke-linecap:square;stroke-width:1.5;"/>
    <g clip-path="url(#pfa0f027416)">
     <use style="fill:#ffb5ba;" x="312.094407" xlink:href="#me16ceda00a" y="187.26215"/>
     <use style="fill:#ffb5ba;" x="330.650812" xlink:href="#me16ceda00a" y="167.822877"/>
     <use style="fill:#ffb5ba;" x="349.207217" xlink:href="#me16ceda00a" y="150.644594"/>
     <use style="fill:#ffb5ba;" x="367.763623" xlink:href="#me16ceda00a" y="110.875162"/>
     <use style="fill:#ffb5ba;" x="386.320028" xlink:href="#me16ceda00a" y="74.859911"/>
     <use style="fill:#ffb5ba;" x="404.876433" xlink:href="#me16ceda00a" y="65.50539"/>
     <use style="fill:#ffb5ba;" x="423.432838" xlink:href="#me16ceda00a" y="14.155336"/>
    </g>
   </g>
   <g id="patch_13">
    <path d="M 312.094407 237.25726 
L 312.094407 3.00024 
" style="fill:none;stroke:#000000;stroke-linecap:square;stroke-linejoin:miter;stroke-width:0.8;"/>
   </g>
   <g id="patch_14">
    <path d="M 428.99976 237.25726 
L 428.99976 3.00024 
" style="fill:none;stroke:#000000;stroke-linecap:square;stroke-linejoin:miter;stroke-width:0.8;"/>
   </g>
   <g id="patch_15">
    <path d="M 312.094407 237.25726 
L 428.99976 237.25726 
" style="fill:none;stroke:#000000;stroke-linecap:square;stroke-linejoin:miter;stroke-width:0.8;"/>
   </g>
   <g id="patch_16">
    <path d="M 312.094407 3.00024 
L 428.99976 3.00024 
" style="fill:none;stroke:#000000;stroke-linecap:square;stroke-linejoin:miter;stroke-width:0.8;"/>
   </g>
   <g id="text_33">
    <!-- C -->
    <g transform="translate(320.394687 15.884376)scale(0.096 -0.096)">
     <defs>
      <path d="M 4288 256 
Q 3956 84 3597 -3 
Q 3238 -91 2847 -91 
Q 1681 -91 1000 561 
Q 319 1213 319 2328 
Q 319 3447 1000 4098 
Q 1681 4750 2847 4750 
Q 3238 4750 3597 4662 
Q 3956 4575 4288 4403 
L 4288 3438 
Q 3953 3666 3628 3772 
Q 3303 3878 2944 3878 
Q 2300 3878 1931 3465 
Q 1563 3053 1563 2328 
Q 1563 1606 1931 1193 
Q 2300 781 2944 781 
Q 3303 781 3628 887 
Q 3953 994 4288 1222 
L 4288 256 
z
" id="DejaVuSans-Bold-43" transform="scale(0.015625)"/>
     </defs>
     <use xlink:href="#DejaVuSans-Bold-43"/>
    </g>
   </g>
  </g>
 </g>
 <defs>
  <clipPath id="pe0891c945b">
   <rect height="234.25702" width="116.905353" x="31.92274" y="3.00024"/>
  </clipPath>
  <clipPath id="p194f06630a">
   <rect height="234.25702" width="116.905353" x="172.008573" y="3.00024"/>
  </clipPath>
  <clipPath id="pfa0f027416">
   <rect height="234.25702" width="116.905353" x="312.094407" y="3.00024"/>
  </clipPath>
 </defs>
</svg>
