<?xml version="1.0" encoding="utf-8" standalone="no"?>
<!DOCTYPE svg PUBLIC "-//W3C//DTD SVG 1.1//EN"
  "http://www.w3.org/Graphics/SVG/1.1/DTD/svg11.dtd">
<svg xmlns:xlink="http://www.w3.org/1999/xlink" width="432pt" height="252pt" viewBox="0 0 432 252" xmlns="http://www.w3.org/2000/svg" version="1.1">
 <metadata>
  <rdf:RDF xmlns:dc="http://purl.org/dc/elements/1.1/" xmlns:cc="http://creativecommons.org/ns#" xmlns:rdf="http://www.w3.org/1999/02/22-rdf-syntax-ns#">
   <cc:Work>
    <dc:type rdf:resource="http://purl.org/dc/dcmitype/StillImage"/>
    <dc:date>2022-10-04T16:46:51.273828</dc:date>
    <dc:format>image/svg+xml</dc:format>
    <dc:creator>
     <cc:Agent>
      <dc:title>Matplotlib v3.6.0, https://matplotlib.org/</dc:title>
     </cc:Agent>
    </dc:creator>
   </cc:Work>
  </rdf:RDF>
 </metadata>
 <defs>
  <style type="text/css">*{stroke-linejoin: round; stroke-linecap: butt}</style>
 </defs>
 <g id="figure_1">
  <g id="patch_1">
   <path d="M 0 252 
L 432 252 
L 432 0 
L 0 0 
z
" style="fill: #ffffff"/>
  </g>
  <g id="axes_1">
   <g id="patch_2">
    <path d="M 26.094459 233.87476 
L 149.106427 233.87476 
L 149.106427 3.00024 
L 26.094459 3.00024 
z
" style="fill: #ffffff"/>
   </g>
   <g id="line2d_1">
    <path d="M 26.094459 233.87476 
L 84.671586 180.075913 
L 143.248714 39.032018 
" clip-path="url(#pcdef374f25)" style="fill: none; stroke-dasharray: 5.55,2.4; stroke-dashoffset: 0; stroke: #c0c0c0; stroke-width: 1.5"/>
    <defs>
     <path id="md7ca5ec763" d="M -2.5 2.5 
L 2.5 2.5 
L 2.5 -2.5 
L -2.5 -2.5 
z
"/>
    </defs>
    <g clip-path="url(#pcdef374f25)">
     <use xlink:href="#md7ca5ec763" x="26.094459" y="233.87476" style="fill: #c0c0c0"/>
     <use xlink:href="#md7ca5ec763" x="84.671586" y="180.075913" style="fill: #c0c0c0"/>
     <use xlink:href="#md7ca5ec763" x="143.248714" y="39.032018" style="fill: #c0c0c0"/>
    </g>
   </g>
   <g id="line2d_2">
    <path d="M 26.094459 205.701155 
L 84.671586 153.152663 
L 143.248714 29.789971 
" clip-path="url(#pcdef374f25)" style="fill: none; stroke-dasharray: 5.55,2.4; stroke-dashoffset: 0; stroke: #b6e3fa; stroke-width: 1.5"/>
    <defs>
     <path id="m6c1ceddf41" d="M -2.5 2.5 
L 2.5 2.5 
L 2.5 -2.5 
L -2.5 -2.5 
z
"/>
    </defs>
    <g clip-path="url(#pcdef374f25)">
     <use xlink:href="#m6c1ceddf41" x="26.094459" y="205.701155" style="fill: #b6e3fa"/>
     <use xlink:href="#m6c1ceddf41" x="84.671586" y="153.152663" style="fill: #b6e3fa"/>
     <use xlink:href="#m6c1ceddf41" x="143.248714" y="29.789971" style="fill: #b6e3fa"/>
    </g>
   </g>
   <g id="matplotlib.axis_1">
    <g id="text_1">
     <!-- 4mer Isomers -->
     <g style="fill: #191919" transform="translate(62.589193 247.37476) scale(0.08 -0.08)">
      <defs>
       <path id="Roboto-Bold-34" d="M 175 1553 
L 2072 4550 
L 2984 4550 
L 2984 1713 
L 3500 1713 
L 3500 984 
L 2984 984 
L 2984 0 
L 2081 0 
L 2081 984 
L 216 984 
L 175 1553 
z
M 1072 1713 
L 2081 1713 
L 2081 3328 
L 2019 3219 
L 1072 1713 
z
" transform="scale(0.015625)"/>
       <path id="Roboto-Bold-6d" d="M 1806 2713 
Q 1431 2713 1253 2394 
L 1253 0 
L 347 0 
L 347 3381 
L 1197 3381 
L 1228 3009 
Q 1581 3444 2197 3444 
Q 2850 3444 3094 2928 
Q 3441 3444 4109 3444 
Q 4597 3444 4894 3156 
Q 5191 2869 5194 2169 
L 5194 0 
L 4288 0 
L 4288 2156 
Q 4288 2494 4152 2603 
Q 4016 2713 3781 2713 
Q 3381 2713 3222 2334 
L 3222 0 
L 2319 0 
L 2319 2150 
Q 2319 2484 2181 2598 
Q 2044 2713 1806 2713 
z
" transform="scale(0.015625)"/>
       <path id="Roboto-Bold-65" d="M 3225 550 
Q 3063 319 2731 128 
Q 2400 -63 1906 -63 
Q 1119 -63 675 414 
Q 231 891 228 1566 
L 228 1697 
Q 228 2463 654 2953 
Q 1081 3444 1806 3444 
Q 2534 3444 2915 2987 
Q 3297 2531 3297 1781 
L 3297 1397 
L 1144 1397 
Q 1191 1069 1403 867 
Q 1616 666 1963 666 
Q 2478 666 2778 1044 
L 3225 550 
z
M 1800 2716 
Q 1513 2716 1356 2522 
Q 1200 2328 1153 2016 
L 2409 2016 
L 2409 2084 
Q 2403 2356 2258 2536 
Q 2113 2716 1800 2716 
z
" transform="scale(0.015625)"/>
       <path id="Roboto-Bold-72" d="M 1922 2563 
Q 1413 2563 1253 2216 
L 1253 0 
L 347 0 
L 347 3381 
L 1200 3381 
L 1228 2978 
Q 1494 3444 1981 3444 
Q 2153 3444 2259 3403 
L 2250 2538 
L 1922 2563 
z
" transform="scale(0.015625)"/>
       <path id="Roboto-Bold-20" transform="scale(0.015625)"/>
       <path id="Roboto-Bold-49" d="M 1403 4550 
L 1403 0 
L 466 0 
L 466 4550 
L 1403 4550 
z
" transform="scale(0.015625)"/>
       <path id="Roboto-Bold-73" d="M 2178 938 
Q 2178 1081 2045 1179 
Q 1913 1278 1475 1372 
Q 953 1484 618 1721 
Q 284 1959 284 2394 
Q 284 2816 642 3130 
Q 1000 3444 1631 3444 
Q 2291 3444 2669 3134 
Q 3047 2825 3047 2353 
L 2144 2353 
Q 2144 2547 2019 2675 
Q 1894 2803 1628 2803 
Q 1403 2803 1276 2698 
Q 1150 2594 1150 2438 
Q 1150 2294 1284 2200 
Q 1419 2106 1781 2034 
Q 2331 1925 2693 1700 
Q 3056 1475 3056 972 
Q 3056 525 2672 231 
Q 2288 -63 1634 -63 
Q 925 -63 550 301 
Q 175 666 175 1078 
L 1034 1078 
Q 1047 813 1230 697 
Q 1413 581 1653 581 
Q 2178 581 2178 938 
z
" transform="scale(0.015625)"/>
       <path id="Roboto-Bold-6f" d="M 206 1722 
Q 206 2459 625 2951 
Q 1044 3444 1806 3444 
Q 2578 3444 2993 2951 
Q 3409 2459 3409 1722 
L 3409 1656 
Q 3409 919 2993 428 
Q 2578 -63 1813 -63 
Q 1053 -63 636 415 
Q 219 894 206 1616 
L 206 1722 
z
M 1113 1656 
Q 1113 1244 1270 955 
Q 1428 666 1813 666 
Q 2191 666 2348 953 
Q 2506 1241 2506 1722 
Q 2506 2125 2348 2420 
Q 2191 2716 1806 2716 
Q 1425 2716 1269 2422 
Q 1113 2128 1113 1656 
z
" transform="scale(0.015625)"/>
      </defs>
      <use xlink:href="#Roboto-Bold-34"/>
      <use xlink:href="#Roboto-Bold-6d" x="57.373047"/>
      <use xlink:href="#Roboto-Bold-65" x="143.945312"/>
      <use xlink:href="#Roboto-Bold-72" x="197.998047"/>
      <use xlink:href="#Roboto-Bold-20" x="234.521484"/>
      <use xlink:href="#Roboto-Bold-49" x="259.423828"/>
      <use xlink:href="#Roboto-Bold-73" x="288.623047"/>
      <use xlink:href="#Roboto-Bold-6f" x="340.087891"/>
      <use xlink:href="#Roboto-Bold-6d" x="396.630859"/>
      <use xlink:href="#Roboto-Bold-65" x="483.203125"/>
      <use xlink:href="#Roboto-Bold-72" x="537.255859"/>
      <use xlink:href="#Roboto-Bold-73" x="573.779297"/>
     </g>
    </g>
   </g>
   <g id="matplotlib.axis_2">
    <g id="ytick_1">
     <g id="line2d_3">
      <defs>
       <path id="maac48aceec" d="M 0 0 
L -3.5 0 
" style="stroke: #c2c1c1; stroke-width: 0.8"/>
      </defs>
      <g>
       <use xlink:href="#maac48aceec" x="26.094459" y="233.87476" style="fill: #c2c1c1; stroke: #c2c1c1; stroke-width: 0.8"/>
      </g>
     </g>
     <g id="text_2">
      <!-- 0 -->
      <g style="fill: #191919" transform="translate(15.16024 236.49976) scale(0.07 -0.07)">
       <defs>
        <path id="Roboto-Regular-30" d="M 3234 1944 
Q 3234 825 2848 381 
Q 2463 -63 1800 -63 
Q 1156 -63 764 368 
Q 372 800 359 1872 
L 359 2638 
Q 359 3753 750 4183 
Q 1141 4613 1794 4613 
Q 2447 4613 2834 4195 
Q 3222 3778 3234 2709 
L 3234 1944 
z
M 2653 2734 
Q 2653 3503 2434 3822 
Q 2216 4141 1794 4141 
Q 1388 4141 1167 3831 
Q 947 3522 941 2778 
L 941 1850 
Q 941 1088 1164 750 
Q 1388 413 1800 413 
Q 2222 413 2436 745 
Q 2650 1078 2653 1825 
L 2653 2734 
z
" transform="scale(0.015625)"/>
       </defs>
       <use xlink:href="#Roboto-Regular-30"/>
      </g>
     </g>
    </g>
    <g id="ytick_2">
     <g id="line2d_4">
      <g>
       <use xlink:href="#maac48aceec" x="26.094459" y="186.023653" style="fill: #c2c1c1; stroke: #c2c1c1; stroke-width: 0.8"/>
      </g>
     </g>
     <g id="text_3">
      <!-- 1 -->
      <g style="fill: #191919" transform="translate(15.16024 188.648653) scale(0.07 -0.07)">
       <defs>
        <path id="Roboto-Regular-31" d="M 2278 4575 
L 2278 0 
L 1700 0 
L 1700 3853 
L 534 3428 
L 534 3950 
L 2188 4575 
L 2278 4575 
z
" transform="scale(0.015625)"/>
       </defs>
       <use xlink:href="#Roboto-Regular-31"/>
      </g>
     </g>
    </g>
    <g id="ytick_3">
     <g id="line2d_5">
      <g>
       <use xlink:href="#maac48aceec" x="26.094459" y="138.172545" style="fill: #c2c1c1; stroke: #c2c1c1; stroke-width: 0.8"/>
      </g>
     </g>
     <g id="text_4">
      <!-- 2 -->
      <g style="fill: #191919" transform="translate(15.16024 140.797545) scale(0.07 -0.07)">
       <defs>
        <path id="Roboto-Regular-32" d="M 3359 475 
L 3359 0 
L 381 0 
L 381 416 
L 1925 2134 
Q 2306 2566 2439 2819 
Q 2572 3072 2572 3328 
Q 2572 3663 2364 3900 
Q 2156 4138 1778 4138 
Q 1322 4138 1097 3878 
Q 872 3619 872 3213 
L 294 3213 
Q 294 3788 672 4200 
Q 1050 4613 1778 4613 
Q 2422 4613 2786 4278 
Q 3150 3944 3150 3397 
Q 3150 2997 2903 2592 
Q 2656 2188 2297 1797 
L 1078 475 
L 3359 475 
z
" transform="scale(0.015625)"/>
       </defs>
       <use xlink:href="#Roboto-Regular-32"/>
      </g>
     </g>
    </g>
    <g id="ytick_4">
     <g id="line2d_6">
      <g>
       <use xlink:href="#maac48aceec" x="26.094459" y="90.321438" style="fill: #c2c1c1; stroke: #c2c1c1; stroke-width: 0.8"/>
      </g>
     </g>
     <g id="text_5">
      <!-- 3 -->
      <g style="fill: #191919" transform="translate(15.16024 92.946438) scale(0.07 -0.07)">
       <defs>
        <path id="Roboto-Regular-33" d="M 1222 2084 
L 1222 2559 
L 1647 2559 
Q 2094 2563 2312 2784 
Q 2531 3006 2531 3338 
Q 2531 4138 1738 4138 
Q 1369 4138 1141 3927 
Q 913 3716 913 3359 
L 334 3359 
Q 334 3881 720 4247 
Q 1106 4613 1738 4613 
Q 2353 4613 2733 4286 
Q 3113 3959 3113 3325 
Q 3113 3072 2942 2784 
Q 2772 2497 2397 2338 
Q 2850 2191 3015 1884 
Q 3181 1578 3181 1269 
Q 3181 631 2768 284 
Q 2356 -63 1741 -63 
Q 1147 -63 722 267 
Q 297 597 297 1203 
L 875 1203 
Q 875 844 1108 628 
Q 1341 413 1741 413 
Q 2138 413 2369 622 
Q 2600 831 2600 1256 
Q 2600 1681 2337 1882 
Q 2075 2084 1634 2084 
L 1222 2084 
z
" transform="scale(0.015625)"/>
       </defs>
       <use xlink:href="#Roboto-Regular-33"/>
      </g>
     </g>
    </g>
    <g id="ytick_5">
     <g id="line2d_7">
      <g>
       <use xlink:href="#maac48aceec" x="26.094459" y="42.47033" style="fill: #c2c1c1; stroke: #c2c1c1; stroke-width: 0.8"/>
      </g>
     </g>
     <g id="text_6">
      <!-- 4 -->
      <g style="fill: #191919" transform="translate(15.16024 45.09533) scale(0.07 -0.07)">
       <defs>
        <path id="Roboto-Regular-34" d="M 166 1397 
L 2203 4550 
L 2819 4550 
L 2819 1531 
L 3453 1531 
L 3453 1056 
L 2819 1056 
L 2819 0 
L 2241 0 
L 2241 1056 
L 166 1056 
L 166 1397 
z
M 822 1531 
L 2241 1531 
L 2241 3766 
L 2169 3638 
L 822 1531 
z
" transform="scale(0.015625)"/>
       </defs>
       <use xlink:href="#Roboto-Regular-34"/>
      </g>
     </g>
    </g>
    <g id="ytick_6">
     <g id="line2d_8">
      <defs>
       <path id="m952f7a1dff" d="M 0 0 
L -2 0 
" style="stroke: #c2c1c1; stroke-width: 0.6"/>
      </defs>
      <g>
       <use xlink:href="#m952f7a1dff" x="26.094459" y="209.949206" style="fill: #c2c1c1; stroke: #c2c1c1; stroke-width: 0.6"/>
      </g>
     </g>
    </g>
    <g id="ytick_7">
     <g id="line2d_9">
      <g>
       <use xlink:href="#m952f7a1dff" x="26.094459" y="162.098099" style="fill: #c2c1c1; stroke: #c2c1c1; stroke-width: 0.6"/>
      </g>
     </g>
    </g>
    <g id="ytick_8">
     <g id="line2d_10">
      <g>
       <use xlink:href="#m952f7a1dff" x="26.094459" y="114.246991" style="fill: #c2c1c1; stroke: #c2c1c1; stroke-width: 0.6"/>
      </g>
     </g>
    </g>
    <g id="ytick_9">
     <g id="line2d_11">
      <g>
       <use xlink:href="#m952f7a1dff" x="26.094459" y="66.395884" style="fill: #c2c1c1; stroke: #c2c1c1; stroke-width: 0.6"/>
      </g>
     </g>
    </g>
    <g id="ytick_10">
     <g id="line2d_12">
      <g>
       <use xlink:href="#m952f7a1dff" x="26.094459" y="18.544776" style="fill: #c2c1c1; stroke: #c2c1c1; stroke-width: 0.6"/>
      </g>
     </g>
    </g>
    <g id="text_7">
     <!-- $\Delta$E (kcal/mol) -->
     <g style="fill: #191919" transform="translate(9.32024 142.9575) rotate(-90) scale(0.08 -0.08)">
      <defs>
       <path id="DejaVuSans-394" d="M 2188 4044 
L 906 525 
L 3472 525 
L 2188 4044 
z
M 50 0 
L 1831 4666 
L 2547 4666 
L 4325 0 
L 50 0 
z
" transform="scale(0.015625)"/>
       <path id="Roboto-Bold-45" d="M 406 0 
L 406 4550 
L 3450 4550 
L 3450 3791 
L 1347 3791 
L 1347 2706 
L 3144 2706 
L 3144 1972 
L 1347 1972 
L 1347 756 
L 3459 756 
L 3459 0 
L 406 0 
z
" transform="scale(0.015625)"/>
       <path id="Roboto-Bold-28" d="M 391 1850 
Q 391 2731 633 3392 
Q 875 4053 1234 4473 
Q 1594 4894 1947 5053 
L 2122 4566 
Q 1772 4303 1465 3661 
Q 1159 3019 1153 1906 
L 1153 1772 
Q 1153 628 1461 -23 
Q 1769 -675 2122 -944 
L 1947 -1422 
Q 1594 -1266 1234 -845 
Q 875 -425 633 237 
Q 391 900 391 1778 
L 391 1850 
z
" transform="scale(0.015625)"/>
       <path id="Roboto-Bold-6b" d="M 2444 0 
L 1575 1356 
L 1253 1034 
L 1253 0 
L 350 0 
L 350 4803 
L 1253 4803 
L 1253 2144 
L 1428 2369 
L 2291 3381 
L 3375 3381 
L 2156 1975 
L 3484 0 
L 2444 0 
z
" transform="scale(0.015625)"/>
       <path id="Roboto-Bold-63" d="M 1753 666 
Q 2000 666 2159 802 
Q 2319 938 2322 1169 
L 3172 1169 
Q 3166 631 2761 284 
Q 2356 -63 1769 -63 
Q 984 -63 595 432 
Q 206 928 206 1647 
L 206 1734 
Q 206 2450 593 2947 
Q 981 3444 1766 3444 
Q 2388 3444 2777 3087 
Q 3166 2731 3172 2122 
L 2322 2122 
Q 2319 2369 2172 2542 
Q 2025 2716 1750 2716 
Q 1356 2716 1234 2420 
Q 1113 2125 1113 1647 
Q 1113 1256 1233 961 
Q 1353 666 1753 666 
z
" transform="scale(0.015625)"/>
       <path id="Roboto-Bold-61" d="M 2306 0 
Q 2250 119 2216 303 
Q 1888 -63 1363 -63 
Q 878 -63 547 223 
Q 216 509 216 950 
Q 216 1481 609 1773 
Q 1003 2066 1775 2066 
L 2178 2066 
L 2178 2263 
Q 2178 2497 2058 2636 
Q 1938 2775 1678 2775 
Q 1194 2775 1194 2369 
L 291 2369 
Q 291 2809 681 3126 
Q 1072 3444 1728 3444 
Q 2313 3444 2698 3147 
Q 3084 2850 3084 2256 
L 3084 750 
Q 3091 300 3219 53 
L 3219 0 
L 2306 0 
z
M 1559 628 
Q 1788 628 1948 729 
Q 2109 831 2178 953 
L 2178 1541 
L 1809 1541 
Q 1450 1541 1284 1389 
Q 1119 1238 1119 1016 
Q 1119 847 1236 737 
Q 1353 628 1559 628 
z
" transform="scale(0.015625)"/>
       <path id="Roboto-Bold-6c" d="M 1303 4800 
L 1303 0 
L 397 0 
L 397 4800 
L 1303 4800 
z
" transform="scale(0.015625)"/>
       <path id="Roboto-Bold-2f" d="M 2306 4550 
L 631 -391 
L -41 -391 
L 1634 4550 
L 2306 4550 
z
" transform="scale(0.015625)"/>
       <path id="Roboto-Bold-29" d="M 1906 1778 
Q 1906 928 1656 264 
Q 1406 -400 1034 -833 
Q 663 -1266 300 -1422 
L 125 -944 
Q 472 -684 780 -37 
Q 1088 609 1094 1722 
L 1094 1856 
Q 1094 3000 780 3656 
Q 466 4313 125 4572 
L 300 5053 
Q 663 4894 1034 4461 
Q 1406 4028 1656 3364 
Q 1906 2700 1906 1847 
L 1906 1778 
z
" transform="scale(0.015625)"/>
      </defs>
      <use xlink:href="#DejaVuSans-394" transform="translate(0 0.046875)"/>
      <use xlink:href="#Roboto-Bold-45" transform="translate(68.408203 0.046875)"/>
      <use xlink:href="#Roboto-Bold-20" transform="translate(124.658203 0.046875)"/>
      <use xlink:href="#Roboto-Bold-28" transform="translate(149.560547 0.046875)"/>
      <use xlink:href="#Roboto-Bold-6b" transform="translate(184.667969 0.046875)"/>
      <use xlink:href="#Roboto-Bold-63" transform="translate(238.085938 0.046875)"/>
      <use xlink:href="#Roboto-Bold-61" transform="translate(290.283203 0.046875)"/>
      <use xlink:href="#Roboto-Bold-6c" transform="translate(343.896484 0.046875)"/>
      <use xlink:href="#Roboto-Bold-2f" transform="translate(370.410156 0.046875)"/>
      <use xlink:href="#Roboto-Bold-6d" transform="translate(407.8125 0.046875)"/>
      <use xlink:href="#Roboto-Bold-6f" transform="translate(494.384766 0.046875)"/>
      <use xlink:href="#Roboto-Bold-6c" transform="translate(550.927734 0.046875)"/>
      <use xlink:href="#Roboto-Bold-29" transform="translate(577.441406 0.046875)"/>
     </g>
    </g>
   </g>
   <g id="line2d_13">
    <path d="M 26.094459 186.003884 
L 84.671586 139.169334 
L 143.248714 13.994265 
" clip-path="url(#pcdef374f25)" style="fill: none; stroke: #4abbf3; stroke-width: 1.5; stroke-linecap: square"/>
    <defs>
     <path id="m0c1a616580" d="M 0 2.5 
C 0.663008 2.5 1.29895 2.236584 1.767767 1.767767 
C 2.236584 1.29895 2.5 0.663008 2.5 0 
C 2.5 -0.663008 2.236584 -1.29895 1.767767 -1.767767 
C 1.29895 -2.236584 0.663008 -2.5 0 -2.5 
C -0.663008 -2.5 -1.29895 -2.236584 -1.767767 -1.767767 
C -2.236584 -1.29895 -2.5 -0.663008 -2.5 0 
C -2.5 0.663008 -2.236584 1.29895 -1.767767 1.767767 
C -1.29895 2.236584 -0.663008 2.5 0 2.5 
z
"/>
    </defs>
    <g clip-path="url(#pcdef374f25)">
     <use xlink:href="#m0c1a616580" x="26.094459" y="186.003884" style="fill: #4abbf3"/>
     <use xlink:href="#m0c1a616580" x="84.671586" y="139.169334" style="fill: #4abbf3"/>
     <use xlink:href="#m0c1a616580" x="143.248714" y="13.994265" style="fill: #4abbf3"/>
    </g>
   </g>
   <g id="patch_3">
    <path d="M 26.094459 233.87476 
L 26.094459 3.00024 
" style="fill: none; stroke: #c2c1c1; stroke-width: 0.8; stroke-linejoin: miter; stroke-linecap: square"/>
   </g>
   <g id="patch_4">
    <path d="M 149.106427 233.87476 
L 149.106427 3.00024 
" style="fill: none; stroke: #c2c1c1; stroke-width: 0.8; stroke-linejoin: miter; stroke-linecap: square"/>
   </g>
   <g id="patch_5">
    <path d="M 26.094459 233.87476 
L 149.106427 233.87476 
" style="fill: none; stroke: #c2c1c1; stroke-width: 0.8; stroke-linejoin: miter; stroke-linecap: square"/>
   </g>
   <g id="patch_6">
    <path d="M 26.094459 3.00024 
L 149.106427 3.00024 
" style="fill: none; stroke: #c2c1c1; stroke-width: 0.8; stroke-linejoin: miter; stroke-linecap: square"/>
   </g>
   <g id="text_8">
    <!-- A -->
    <g transform="translate(34.828308 15.698339) scale(0.096 -0.096)">
     <defs>
      <path id="Roboto-Bold-41" d="M 25 0 
L 1719 4550 
L 2588 4550 
L 4291 0 
L 3291 0 
L 2978 938 
L 1331 938 
L 1019 0 
L 25 0 
z
M 1584 1697 
L 2725 1697 
L 2156 3406 
L 1584 1697 
z
" transform="scale(0.015625)"/>
     </defs>
     <use xlink:href="#Roboto-Bold-41"/>
    </g>
   </g>
   <g id="legend_1">
    <g id="line2d_14">
     <path d="M 30.524578 22.917634 
L 38.524578 22.917634 
L 46.524578 22.917634 
" style="fill: none; stroke-dasharray: 5.55,2.4; stroke-dashoffset: 0; stroke: #c0c0c0; stroke-width: 1.5"/>
     <g>
      <use xlink:href="#md7ca5ec763" x="38.524578" y="22.917634" style="fill: #c0c0c0"/>
     </g>
    </g>
    <g id="text_9">
     <!-- MP2 -->
     <g transform="translate(52.924578 25.717634) scale(0.08 -0.08)">
      <defs>
       <path id="Roboto-Regular-4d" d="M 2794 841 
L 4281 4550 
L 5056 4550 
L 5056 0 
L 4456 0 
L 4456 1775 
L 4516 3678 
L 3019 0 
L 2563 0 
L 1069 3684 
L 1128 1775 
L 1128 0 
L 528 0 
L 528 4550 
L 1303 4550 
L 2794 841 
z
" transform="scale(0.015625)"/>
       <path id="Roboto-Regular-50" d="M 1131 1784 
L 1131 0 
L 528 0 
L 528 4550 
L 2206 4550 
Q 2981 4550 3392 4159 
Q 3803 3769 3803 3163 
Q 3803 2503 3392 2143 
Q 2981 1784 2206 1784 
L 1131 1784 
z
M 1131 4056 
L 1131 2275 
L 2206 2275 
Q 2738 2275 2969 2522 
Q 3200 2769 3200 3156 
Q 3200 3506 2969 3781 
Q 2738 4056 2206 4056 
L 1131 4056 
z
" transform="scale(0.015625)"/>
      </defs>
      <use xlink:href="#Roboto-Regular-4d"/>
      <use xlink:href="#Roboto-Regular-50" x="87.304688"/>
      <use xlink:href="#Roboto-Regular-32" x="150.390625"/>
     </g>
    </g>
    <g id="line2d_15">
     <path d="M 30.524578 34.542634 
L 38.524578 34.542634 
L 46.524578 34.542634 
" style="fill: none; stroke-dasharray: 5.55,2.4; stroke-dashoffset: 0; stroke: #b6e3fa; stroke-width: 1.5"/>
     <g>
      <use xlink:href="#m6c1ceddf41" x="38.524578" y="34.542634" style="fill: #b6e3fa"/>
     </g>
    </g>
    <g id="text_10">
     <!-- MBE -->
     <g transform="translate(52.924578 37.342634) scale(0.08 -0.08)">
      <defs>
       <path id="Roboto-Regular-42" d="M 3625 1313 
Q 3625 675 3214 337 
Q 2803 0 2122 0 
L 528 0 
L 528 4550 
L 2019 4550 
Q 2719 4550 3111 4261 
Q 3503 3972 3503 3338 
Q 3503 3022 3323 2776 
Q 3144 2531 2831 2397 
Q 3216 2291 3420 1994 
Q 3625 1697 3625 1313 
z
M 1131 4056 
L 1131 2613 
L 2038 2613 
Q 2425 2613 2662 2806 
Q 2900 3000 2900 3344 
Q 2900 4041 2056 4056 
L 1131 4056 
z
M 3025 1306 
Q 3025 1688 2817 1908 
Q 2609 2128 2150 2128 
L 1131 2128 
L 1131 491 
L 2122 491 
Q 2550 491 2787 711 
Q 3025 931 3025 1306 
z
" transform="scale(0.015625)"/>
       <path id="Roboto-Regular-45" d="M 528 0 
L 528 4550 
L 3388 4550 
L 3388 4056 
L 1131 4056 
L 1131 2594 
L 3100 2594 
L 3100 2103 
L 1131 2103 
L 1131 491 
L 3419 491 
L 3419 0 
L 528 0 
z
" transform="scale(0.015625)"/>
      </defs>
      <use xlink:href="#Roboto-Regular-4d"/>
      <use xlink:href="#Roboto-Regular-42" x="87.304688"/>
      <use xlink:href="#Roboto-Regular-45" x="149.609375"/>
     </g>
    </g>
    <g id="line2d_16">
     <path d="M 30.524578 46.167634 
L 38.524578 46.167634 
L 46.524578 46.167634 
" style="fill: none; stroke: #4abbf3; stroke-width: 1.5; stroke-linecap: square"/>
     <g>
      <use xlink:href="#m0c1a616580" x="38.524578" y="46.167634" style="fill: #4abbf3"/>
     </g>
    </g>
    <g id="text_11">
     <!-- mbGDML -->
     <g transform="translate(52.924578 48.967634) scale(0.08 -0.08)">
      <defs>
       <path id="Roboto-Regular-6d" d="M 1794 2956 
Q 1225 2956 1016 2478 
L 1016 0 
L 434 0 
L 434 3381 
L 984 3381 
L 1000 3013 
Q 1366 3444 2000 3444 
Q 2325 3444 2579 3314 
Q 2834 3184 2969 2900 
Q 3138 3144 3408 3294 
Q 3678 3444 4044 3444 
Q 4588 3444 4883 3153 
Q 5178 2863 5178 2222 
L 5178 0 
L 4597 0 
L 4597 2228 
Q 4597 2653 4401 2804 
Q 4206 2956 3875 2956 
Q 3525 2956 3325 2748 
Q 3125 2541 3094 2244 
L 3094 0 
L 2516 0 
L 2516 2225 
Q 2516 2622 2319 2789 
Q 2122 2956 1794 2956 
z
" transform="scale(0.015625)"/>
       <path id="Roboto-Regular-62" d="M 3303 1653 
Q 3303 913 2959 425 
Q 2616 -63 1988 -63 
Q 1347 -63 1000 391 
L 969 0 
L 438 0 
L 438 4800 
L 1019 4800 
L 1019 3016 
Q 1363 3444 1981 3444 
Q 2619 3444 2961 2969 
Q 3303 2494 3303 1719 
L 3303 1653 
z
M 1838 2956 
Q 1522 2956 1325 2804 
Q 1128 2653 1019 2431 
L 1019 959 
Q 1131 734 1331 581 
Q 1531 428 1844 428 
Q 2313 428 2517 789 
Q 2722 1150 2722 1653 
L 2722 1719 
Q 2722 2222 2526 2589 
Q 2331 2956 1838 2956 
z
" transform="scale(0.015625)"/>
       <path id="Roboto-Regular-47" d="M 3891 2266 
L 3891 600 
Q 3763 413 3403 175 
Q 3044 -63 2281 -63 
Q 1450 -63 915 507 
Q 381 1078 381 2100 
L 381 2453 
Q 381 3469 856 4041 
Q 1331 4613 2213 4613 
Q 2994 4613 3398 4219 
Q 3803 3825 3891 3219 
L 3288 3219 
Q 3225 3588 2979 3853 
Q 2734 4119 2213 4119 
Q 1584 4119 1287 3676 
Q 991 3234 988 2475 
L 988 2100 
Q 988 1313 1344 870 
Q 1700 428 2284 428 
Q 2769 428 2984 542 
Q 3200 656 3291 759 
L 3291 1778 
L 2238 1778 
L 2238 2266 
L 3891 2266 
z
" transform="scale(0.015625)"/>
       <path id="Roboto-Regular-44" d="M 528 0 
L 528 4550 
L 1816 4550 
Q 2713 4550 3267 3973 
Q 3822 3397 3822 2409 
L 3822 2138 
Q 3822 1150 3264 575 
Q 2706 0 1759 0 
L 528 0 
z
M 1131 4056 
L 1131 491 
L 1759 491 
Q 2488 491 2856 941 
Q 3225 1391 3225 2138 
L 3225 2416 
Q 3225 3200 2856 3628 
Q 2488 4056 1816 4056 
L 1131 4056 
z
" transform="scale(0.015625)"/>
       <path id="Roboto-Regular-4c" d="M 3288 491 
L 3288 0 
L 528 0 
L 528 4550 
L 1131 4550 
L 1131 491 
L 3288 491 
z
" transform="scale(0.015625)"/>
      </defs>
      <use xlink:href="#Roboto-Regular-6d"/>
      <use xlink:href="#Roboto-Regular-62" x="87.695312"/>
      <use xlink:href="#Roboto-Regular-47" x="143.847656"/>
      <use xlink:href="#Roboto-Regular-44" x="211.962891"/>
      <use xlink:href="#Roboto-Regular-4d" x="277.587891"/>
      <use xlink:href="#Roboto-Regular-4c" x="364.892578"/>
     </g>
    </g>
   </g>
  </g>
  <g id="axes_2">
   <g id="patch_7">
    <path d="M 166.041125 233.87476 
L 289.053093 233.87476 
L 289.053093 3.00024 
L 166.041125 3.00024 
z
" style="fill: #ffffff"/>
   </g>
   <g id="line2d_17">
    <path d="M 166.041125 233.87476 
L 185.566835 176.574621 
L 205.092544 166.031424 
L 224.618253 153.976225 
L 244.143962 124.775646 
L 263.669671 84.361785 
L 283.195381 48.80073 
" clip-path="url(#p348d3fcf58)" style="fill: none; stroke-dasharray: 5.55,2.4; stroke-dashoffset: 0; stroke: #c0c0c0; stroke-width: 1.5"/>
    <g clip-path="url(#p348d3fcf58)">
     <use xlink:href="#md7ca5ec763" x="166.041125" y="233.87476" style="fill: #c0c0c0"/>
     <use xlink:href="#md7ca5ec763" x="185.566835" y="176.574621" style="fill: #c0c0c0"/>
     <use xlink:href="#md7ca5ec763" x="205.092544" y="166.031424" style="fill: #c0c0c0"/>
     <use xlink:href="#md7ca5ec763" x="224.618253" y="153.976225" style="fill: #c0c0c0"/>
     <use xlink:href="#md7ca5ec763" x="244.143962" y="124.775646" style="fill: #c0c0c0"/>
     <use xlink:href="#md7ca5ec763" x="263.669671" y="84.361785" style="fill: #c0c0c0"/>
     <use xlink:href="#md7ca5ec763" x="283.195381" y="48.80073" style="fill: #c0c0c0"/>
    </g>
   </g>
   <g id="line2d_18">
    <path d="M 166.041125 179.843407 
L 185.566835 138.803986 
L 205.092544 131.036641 
L 224.618253 128.276044 
L 244.143962 100.444748 
L 263.669671 69.438716 
L 283.195381 37.473013 
" clip-path="url(#p348d3fcf58)" style="fill: none; stroke-dasharray: 5.55,2.4; stroke-dashoffset: 0; stroke: #b6e3fa; stroke-width: 1.5"/>
    <g clip-path="url(#p348d3fcf58)">
     <use xlink:href="#m6c1ceddf41" x="166.041125" y="179.843407" style="fill: #b6e3fa"/>
     <use xlink:href="#m6c1ceddf41" x="185.566835" y="138.803986" style="fill: #b6e3fa"/>
     <use xlink:href="#m6c1ceddf41" x="205.092544" y="131.036641" style="fill: #b6e3fa"/>
     <use xlink:href="#m6c1ceddf41" x="224.618253" y="128.276044" style="fill: #b6e3fa"/>
     <use xlink:href="#m6c1ceddf41" x="244.143962" y="100.444748" style="fill: #b6e3fa"/>
     <use xlink:href="#m6c1ceddf41" x="263.669671" y="69.438716" style="fill: #b6e3fa"/>
     <use xlink:href="#m6c1ceddf41" x="283.195381" y="37.473013" style="fill: #b6e3fa"/>
    </g>
   </g>
   <g id="matplotlib.axis_3">
    <g id="text_12">
     <!-- 5mer Isomers -->
     <g style="fill: #191919" transform="translate(202.535859 247.37476) scale(0.08 -0.08)">
      <defs>
       <path id="Roboto-Bold-35" d="M 1166 2063 
L 447 2238 
L 706 4550 
L 3256 4550 
L 3256 3800 
L 1450 3800 
L 1338 2819 
Q 1650 2991 2019 2991 
Q 2681 2991 3043 2587 
Q 3406 2184 3406 1463 
Q 3406 856 3031 396 
Q 2656 -63 1872 -63 
Q 1281 -63 814 287 
Q 347 638 331 1269 
L 1225 1269 
Q 1284 666 1866 666 
Q 2206 666 2354 911 
Q 2503 1156 2503 1513 
Q 2503 1872 2325 2092 
Q 2147 2313 1772 2313 
Q 1525 2313 1390 2233 
Q 1256 2153 1166 2063 
z
" transform="scale(0.015625)"/>
      </defs>
      <use xlink:href="#Roboto-Bold-35"/>
      <use xlink:href="#Roboto-Bold-6d" x="57.373047"/>
      <use xlink:href="#Roboto-Bold-65" x="143.945312"/>
      <use xlink:href="#Roboto-Bold-72" x="197.998047"/>
      <use xlink:href="#Roboto-Bold-20" x="234.521484"/>
      <use xlink:href="#Roboto-Bold-49" x="259.423828"/>
      <use xlink:href="#Roboto-Bold-73" x="288.623047"/>
      <use xlink:href="#Roboto-Bold-6f" x="340.087891"/>
      <use xlink:href="#Roboto-Bold-6d" x="396.630859"/>
      <use xlink:href="#Roboto-Bold-65" x="483.203125"/>
      <use xlink:href="#Roboto-Bold-72" x="537.255859"/>
      <use xlink:href="#Roboto-Bold-73" x="573.779297"/>
     </g>
    </g>
   </g>
   <g id="matplotlib.axis_4">
    <g id="ytick_11">
     <g id="line2d_19">
      <g>
       <use xlink:href="#maac48aceec" x="166.041125" y="233.87476" style="fill: #c2c1c1; stroke: #c2c1c1; stroke-width: 0.8"/>
      </g>
     </g>
     <g id="text_13">
      <!-- 0 -->
      <g style="fill: #191919" transform="translate(155.106907 236.49976) scale(0.07 -0.07)">
       <use xlink:href="#Roboto-Regular-30"/>
      </g>
     </g>
    </g>
    <g id="ytick_12">
     <g id="line2d_20">
      <g>
       <use xlink:href="#maac48aceec" x="166.041125" y="190.153361" style="fill: #c2c1c1; stroke: #c2c1c1; stroke-width: 0.8"/>
      </g>
     </g>
     <g id="text_14">
      <!-- 1 -->
      <g style="fill: #191919" transform="translate(155.106907 192.778361) scale(0.07 -0.07)">
       <use xlink:href="#Roboto-Regular-31"/>
      </g>
     </g>
    </g>
    <g id="ytick_13">
     <g id="line2d_21">
      <g>
       <use xlink:href="#maac48aceec" x="166.041125" y="146.431962" style="fill: #c2c1c1; stroke: #c2c1c1; stroke-width: 0.8"/>
      </g>
     </g>
     <g id="text_15">
      <!-- 2 -->
      <g style="fill: #191919" transform="translate(155.106907 149.056962) scale(0.07 -0.07)">
       <use xlink:href="#Roboto-Regular-32"/>
      </g>
     </g>
    </g>
    <g id="ytick_14">
     <g id="line2d_22">
      <g>
       <use xlink:href="#maac48aceec" x="166.041125" y="102.710563" style="fill: #c2c1c1; stroke: #c2c1c1; stroke-width: 0.8"/>
      </g>
     </g>
     <g id="text_16">
      <!-- 3 -->
      <g style="fill: #191919" transform="translate(155.106907 105.335563) scale(0.07 -0.07)">
       <use xlink:href="#Roboto-Regular-33"/>
      </g>
     </g>
    </g>
    <g id="ytick_15">
     <g id="line2d_23">
      <g>
       <use xlink:href="#maac48aceec" x="166.041125" y="58.989164" style="fill: #c2c1c1; stroke: #c2c1c1; stroke-width: 0.8"/>
      </g>
     </g>
     <g id="text_17">
      <!-- 4 -->
      <g style="fill: #191919" transform="translate(155.106907 61.614164) scale(0.07 -0.07)">
       <use xlink:href="#Roboto-Regular-34"/>
      </g>
     </g>
    </g>
    <g id="ytick_16">
     <g id="line2d_24">
      <g>
       <use xlink:href="#maac48aceec" x="166.041125" y="15.267765" style="fill: #c2c1c1; stroke: #c2c1c1; stroke-width: 0.8"/>
      </g>
     </g>
     <g id="text_18">
      <!-- 5 -->
      <g style="fill: #191919" transform="translate(155.106907 17.892765) scale(0.07 -0.07)">
       <defs>
        <path id="Roboto-Regular-35" d="M 1109 2166 
L 647 2284 
L 875 4550 
L 3209 4550 
L 3209 4016 
L 1366 4016 
L 1228 2778 
Q 1572 2975 1988 2975 
Q 2616 2975 2980 2561 
Q 3344 2147 3344 1450 
Q 3344 797 2987 367 
Q 2631 -63 1903 -63 
Q 1350 -63 947 248 
Q 544 559 481 1197 
L 1031 1197 
Q 1141 413 1903 413 
Q 2313 413 2538 691 
Q 2763 969 2763 1444 
Q 2763 1872 2527 2164 
Q 2291 2456 1853 2456 
Q 1563 2456 1413 2378 
Q 1263 2300 1109 2166 
z
" transform="scale(0.015625)"/>
       </defs>
       <use xlink:href="#Roboto-Regular-35"/>
      </g>
     </g>
    </g>
    <g id="ytick_17">
     <g id="line2d_25">
      <g>
       <use xlink:href="#m952f7a1dff" x="166.041125" y="212.01406" style="fill: #c2c1c1; stroke: #c2c1c1; stroke-width: 0.6"/>
      </g>
     </g>
    </g>
    <g id="ytick_18">
     <g id="line2d_26">
      <g>
       <use xlink:href="#m952f7a1dff" x="166.041125" y="168.292661" style="fill: #c2c1c1; stroke: #c2c1c1; stroke-width: 0.6"/>
      </g>
     </g>
    </g>
    <g id="ytick_19">
     <g id="line2d_27">
      <g>
       <use xlink:href="#m952f7a1dff" x="166.041125" y="124.571262" style="fill: #c2c1c1; stroke: #c2c1c1; stroke-width: 0.6"/>
      </g>
     </g>
    </g>
    <g id="ytick_20">
     <g id="line2d_28">
      <g>
       <use xlink:href="#m952f7a1dff" x="166.041125" y="80.849863" style="fill: #c2c1c1; stroke: #c2c1c1; stroke-width: 0.6"/>
      </g>
     </g>
    </g>
    <g id="ytick_21">
     <g id="line2d_29">
      <g>
       <use xlink:href="#m952f7a1dff" x="166.041125" y="37.128464" style="fill: #c2c1c1; stroke: #c2c1c1; stroke-width: 0.6"/>
      </g>
     </g>
    </g>
   </g>
   <g id="line2d_30">
    <path d="M 166.041125 164.569628 
L 185.566835 119.187658 
L 205.092544 124.826821 
L 224.618253 103.800069 
L 244.143962 85.752339 
L 263.669671 43.406767 
L 283.195381 13.994265 
" clip-path="url(#p348d3fcf58)" style="fill: none; stroke: #4abbf3; stroke-width: 1.5; stroke-linecap: square"/>
    <g clip-path="url(#p348d3fcf58)">
     <use xlink:href="#m0c1a616580" x="166.041125" y="164.569628" style="fill: #4abbf3"/>
     <use xlink:href="#m0c1a616580" x="185.566835" y="119.187658" style="fill: #4abbf3"/>
     <use xlink:href="#m0c1a616580" x="205.092544" y="124.826821" style="fill: #4abbf3"/>
     <use xlink:href="#m0c1a616580" x="224.618253" y="103.800069" style="fill: #4abbf3"/>
     <use xlink:href="#m0c1a616580" x="244.143962" y="85.752339" style="fill: #4abbf3"/>
     <use xlink:href="#m0c1a616580" x="263.669671" y="43.406767" style="fill: #4abbf3"/>
     <use xlink:href="#m0c1a616580" x="283.195381" y="13.994265" style="fill: #4abbf3"/>
    </g>
   </g>
   <g id="patch_8">
    <path d="M 166.041125 233.87476 
L 166.041125 3.00024 
" style="fill: none; stroke: #c2c1c1; stroke-width: 0.8; stroke-linejoin: miter; stroke-linecap: square"/>
   </g>
   <g id="patch_9">
    <path d="M 289.053093 233.87476 
L 289.053093 3.00024 
" style="fill: none; stroke: #c2c1c1; stroke-width: 0.8; stroke-linejoin: miter; stroke-linecap: square"/>
   </g>
   <g id="patch_10">
    <path d="M 166.041125 233.87476 
L 289.053093 233.87476 
" style="fill: none; stroke: #c2c1c1; stroke-width: 0.8; stroke-linejoin: miter; stroke-linecap: square"/>
   </g>
   <g id="patch_11">
    <path d="M 166.041125 3.00024 
L 289.053093 3.00024 
" style="fill: none; stroke: #c2c1c1; stroke-width: 0.8; stroke-linejoin: miter; stroke-linecap: square"/>
   </g>
   <g id="text_19">
    <!-- B -->
    <g transform="translate(174.774975 15.698339) scale(0.096 -0.096)">
     <defs>
      <path id="Roboto-Bold-42" d="M 3788 1341 
Q 3788 684 3369 345 
Q 2950 6 2175 0 
L 406 0 
L 406 4550 
L 2003 4550 
Q 2794 4550 3241 4247 
Q 3688 3944 3688 3306 
Q 3688 2997 3531 2737 
Q 3375 2478 3038 2344 
Q 3438 2244 3613 1956 
Q 3788 1669 3788 1341 
z
M 1347 3791 
L 1347 2647 
L 2003 2647 
Q 2747 2647 2747 3209 
Q 2747 3778 2034 3791 
L 1347 3791 
z
M 2850 1350 
Q 2850 1963 2231 1984 
L 1347 1984 
L 1347 756 
L 2147 756 
Q 2506 756 2678 925 
Q 2850 1094 2850 1350 
z
" transform="scale(0.015625)"/>
     </defs>
     <use xlink:href="#Roboto-Bold-42"/>
    </g>
   </g>
  </g>
  <g id="axes_3">
   <g id="patch_12">
    <path d="M 305.987792 233.87476 
L 428.99976 233.87476 
L 428.99976 3.00024 
L 305.987792 3.00024 
z
" style="fill: #ffffff"/>
   </g>
   <g id="line2d_31">
    <path d="M 305.987792 233.87476 
L 322.724114 215.227299 
L 339.460436 201.069045 
L 356.196759 183.43771 
L 372.933081 164.404548 
L 389.669403 154.691034 
L 406.405725 106.387898 
L 423.142047 104.523687 
" clip-path="url(#pd7b944f575)" style="fill: none; stroke-dasharray: 5.55,2.4; stroke-dashoffset: 0; stroke: #c0c0c0; stroke-width: 1.5"/>
    <g clip-path="url(#pd7b944f575)">
     <use xlink:href="#md7ca5ec763" x="305.987792" y="233.87476" style="fill: #c0c0c0"/>
     <use xlink:href="#md7ca5ec763" x="322.724114" y="215.227299" style="fill: #c0c0c0"/>
     <use xlink:href="#md7ca5ec763" x="339.460436" y="201.069045" style="fill: #c0c0c0"/>
     <use xlink:href="#md7ca5ec763" x="356.196759" y="183.43771" style="fill: #c0c0c0"/>
     <use xlink:href="#md7ca5ec763" x="372.933081" y="164.404548" style="fill: #c0c0c0"/>
     <use xlink:href="#md7ca5ec763" x="389.669403" y="154.691034" style="fill: #c0c0c0"/>
     <use xlink:href="#md7ca5ec763" x="406.405725" y="106.387898" style="fill: #c0c0c0"/>
     <use xlink:href="#md7ca5ec763" x="423.142047" y="104.523687" style="fill: #c0c0c0"/>
    </g>
   </g>
   <g id="line2d_32">
    <path d="M 305.987792 180.272209 
L 322.724114 174.246057 
L 339.460436 148.761954 
L 356.196759 134.203327 
L 372.933081 85.339466 
L 389.669403 93.837922 
L 406.405725 35.621071 
L 423.142047 32.658784 
" clip-path="url(#pd7b944f575)" style="fill: none; stroke-dasharray: 5.55,2.4; stroke-dashoffset: 0; stroke: #b6e3fa; stroke-width: 1.5"/>
    <g clip-path="url(#pd7b944f575)">
     <use xlink:href="#m6c1ceddf41" x="305.987792" y="180.272209" style="fill: #b6e3fa"/>
     <use xlink:href="#m6c1ceddf41" x="322.724114" y="174.246057" style="fill: #b6e3fa"/>
     <use xlink:href="#m6c1ceddf41" x="339.460436" y="148.761954" style="fill: #b6e3fa"/>
     <use xlink:href="#m6c1ceddf41" x="356.196759" y="134.203327" style="fill: #b6e3fa"/>
     <use xlink:href="#m6c1ceddf41" x="372.933081" y="85.339466" style="fill: #b6e3fa"/>
     <use xlink:href="#m6c1ceddf41" x="389.669403" y="93.837922" style="fill: #b6e3fa"/>
     <use xlink:href="#m6c1ceddf41" x="406.405725" y="35.621071" style="fill: #b6e3fa"/>
     <use xlink:href="#m6c1ceddf41" x="423.142047" y="32.658784" style="fill: #b6e3fa"/>
    </g>
   </g>
   <g id="matplotlib.axis_5">
    <g id="text_20">
     <!-- 6mer Isomers -->
     <g style="fill: #191919" transform="translate(342.482526 247.37476) scale(0.08 -0.08)">
      <defs>
       <path id="Roboto-Bold-36" d="M 3450 1500 
Q 3450 838 3033 387 
Q 2616 -63 1916 -63 
Q 1188 -63 752 443 
Q 316 950 316 1750 
L 316 2097 
Q 316 3200 925 3898 
Q 1534 4597 2634 4597 
L 2763 4597 
L 2763 3853 
L 2672 3853 
Q 2050 3844 1688 3538 
Q 1313 3219 1238 2675 
Q 1603 3047 2156 3047 
Q 2800 3047 3125 2589 
Q 3450 2131 3450 1500 
z
M 1219 1631 
Q 1219 1150 1408 909 
Q 1597 669 1900 669 
Q 2194 669 2370 901 
Q 2547 1134 2547 1491 
Q 2547 1853 2370 2087 
Q 2194 2322 1881 2322 
Q 1641 2322 1469 2198 
Q 1297 2075 1219 1903 
L 1219 1631 
z
" transform="scale(0.015625)"/>
      </defs>
      <use xlink:href="#Roboto-Bold-36"/>
      <use xlink:href="#Roboto-Bold-6d" x="57.373047"/>
      <use xlink:href="#Roboto-Bold-65" x="143.945312"/>
      <use xlink:href="#Roboto-Bold-72" x="197.998047"/>
      <use xlink:href="#Roboto-Bold-20" x="234.521484"/>
      <use xlink:href="#Roboto-Bold-49" x="259.423828"/>
      <use xlink:href="#Roboto-Bold-73" x="288.623047"/>
      <use xlink:href="#Roboto-Bold-6f" x="340.087891"/>
      <use xlink:href="#Roboto-Bold-6d" x="396.630859"/>
      <use xlink:href="#Roboto-Bold-65" x="483.203125"/>
      <use xlink:href="#Roboto-Bold-72" x="537.255859"/>
      <use xlink:href="#Roboto-Bold-73" x="573.779297"/>
     </g>
    </g>
   </g>
   <g id="matplotlib.axis_6">
    <g id="ytick_22">
     <g id="line2d_33">
      <g>
       <use xlink:href="#maac48aceec" x="305.987792" y="233.87476" style="fill: #c2c1c1; stroke: #c2c1c1; stroke-width: 0.8"/>
      </g>
     </g>
     <g id="text_21">
      <!-- 0 -->
      <g style="fill: #191919" transform="translate(295.053573 236.49976) scale(0.07 -0.07)">
       <use xlink:href="#Roboto-Regular-30"/>
      </g>
     </g>
    </g>
    <g id="ytick_23">
     <g id="line2d_34">
      <g>
       <use xlink:href="#maac48aceec" x="305.987792" y="188.996452" style="fill: #c2c1c1; stroke: #c2c1c1; stroke-width: 0.8"/>
      </g>
     </g>
     <g id="text_22">
      <!-- 1 -->
      <g style="fill: #191919" transform="translate(295.053573 191.621452) scale(0.07 -0.07)">
       <use xlink:href="#Roboto-Regular-31"/>
      </g>
     </g>
    </g>
    <g id="ytick_24">
     <g id="line2d_35">
      <g>
       <use xlink:href="#maac48aceec" x="305.987792" y="144.118144" style="fill: #c2c1c1; stroke: #c2c1c1; stroke-width: 0.8"/>
      </g>
     </g>
     <g id="text_23">
      <!-- 2 -->
      <g style="fill: #191919" transform="translate(295.053573 146.743144) scale(0.07 -0.07)">
       <use xlink:href="#Roboto-Regular-32"/>
      </g>
     </g>
    </g>
    <g id="ytick_25">
     <g id="line2d_36">
      <g>
       <use xlink:href="#maac48aceec" x="305.987792" y="99.239836" style="fill: #c2c1c1; stroke: #c2c1c1; stroke-width: 0.8"/>
      </g>
     </g>
     <g id="text_24">
      <!-- 3 -->
      <g style="fill: #191919" transform="translate(295.053573 101.864836) scale(0.07 -0.07)">
       <use xlink:href="#Roboto-Regular-33"/>
      </g>
     </g>
    </g>
    <g id="ytick_26">
     <g id="line2d_37">
      <g>
       <use xlink:href="#maac48aceec" x="305.987792" y="54.361528" style="fill: #c2c1c1; stroke: #c2c1c1; stroke-width: 0.8"/>
      </g>
     </g>
     <g id="text_25">
      <!-- 4 -->
      <g style="fill: #191919" transform="translate(295.053573 56.986528) scale(0.07 -0.07)">
       <use xlink:href="#Roboto-Regular-34"/>
      </g>
     </g>
    </g>
    <g id="ytick_27">
     <g id="line2d_38">
      <g>
       <use xlink:href="#maac48aceec" x="305.987792" y="9.48322" style="fill: #c2c1c1; stroke: #c2c1c1; stroke-width: 0.8"/>
      </g>
     </g>
     <g id="text_26">
      <!-- 5 -->
      <g style="fill: #191919" transform="translate(295.053573 12.10822) scale(0.07 -0.07)">
       <use xlink:href="#Roboto-Regular-35"/>
      </g>
     </g>
    </g>
    <g id="ytick_28">
     <g id="line2d_39">
      <g>
       <use xlink:href="#m952f7a1dff" x="305.987792" y="211.435606" style="fill: #c2c1c1; stroke: #c2c1c1; stroke-width: 0.6"/>
      </g>
     </g>
    </g>
    <g id="ytick_29">
     <g id="line2d_40">
      <g>
       <use xlink:href="#m952f7a1dff" x="305.987792" y="166.557298" style="fill: #c2c1c1; stroke: #c2c1c1; stroke-width: 0.6"/>
      </g>
     </g>
    </g>
    <g id="ytick_30">
     <g id="line2d_41">
      <g>
       <use xlink:href="#m952f7a1dff" x="305.987792" y="121.67899" style="fill: #c2c1c1; stroke: #c2c1c1; stroke-width: 0.6"/>
      </g>
     </g>
    </g>
    <g id="ytick_31">
     <g id="line2d_42">
      <g>
       <use xlink:href="#m952f7a1dff" x="305.987792" y="76.800682" style="fill: #c2c1c1; stroke: #c2c1c1; stroke-width: 0.6"/>
      </g>
     </g>
    </g>
    <g id="ytick_32">
     <g id="line2d_43">
      <g>
       <use xlink:href="#m952f7a1dff" x="305.987792" y="31.922374" style="fill: #c2c1c1; stroke: #c2c1c1; stroke-width: 0.6"/>
      </g>
     </g>
    </g>
   </g>
   <g id="line2d_44">
    <path d="M 305.987792 164.688958 
L 322.724114 156.855054 
L 339.460436 121.064692 
L 356.196759 109.973705 
L 372.933081 59.267752 
L 389.669403 83.717627 
L 406.405725 20.376038 
L 423.142047 13.994265 
" clip-path="url(#pd7b944f575)" style="fill: none; stroke: #4abbf3; stroke-width: 1.5; stroke-linecap: square"/>
    <g clip-path="url(#pd7b944f575)">
     <use xlink:href="#m0c1a616580" x="305.987792" y="164.688958" style="fill: #4abbf3"/>
     <use xlink:href="#m0c1a616580" x="322.724114" y="156.855054" style="fill: #4abbf3"/>
     <use xlink:href="#m0c1a616580" x="339.460436" y="121.064692" style="fill: #4abbf3"/>
     <use xlink:href="#m0c1a616580" x="356.196759" y="109.973705" style="fill: #4abbf3"/>
     <use xlink:href="#m0c1a616580" x="372.933081" y="59.267752" style="fill: #4abbf3"/>
     <use xlink:href="#m0c1a616580" x="389.669403" y="83.717627" style="fill: #4abbf3"/>
     <use xlink:href="#m0c1a616580" x="406.405725" y="20.376038" style="fill: #4abbf3"/>
     <use xlink:href="#m0c1a616580" x="423.142047" y="13.994265" style="fill: #4abbf3"/>
    </g>
   </g>
   <g id="patch_13">
    <path d="M 305.987792 233.87476 
L 305.987792 3.00024 
" style="fill: none; stroke: #c2c1c1; stroke-width: 0.8; stroke-linejoin: miter; stroke-linecap: square"/>
   </g>
   <g id="patch_14">
    <path d="M 428.99976 233.87476 
L 428.99976 3.00024 
" style="fill: none; stroke: #c2c1c1; stroke-width: 0.8; stroke-linejoin: miter; stroke-linecap: square"/>
   </g>
   <g id="patch_15">
    <path d="M 305.987792 233.87476 
L 428.99976 233.87476 
" style="fill: none; stroke: #c2c1c1; stroke-width: 0.8; stroke-linejoin: miter; stroke-linecap: square"/>
   </g>
   <g id="patch_16">
    <path d="M 305.987792 3.00024 
L 428.99976 3.00024 
" style="fill: none; stroke: #c2c1c1; stroke-width: 0.8; stroke-linejoin: miter; stroke-linecap: square"/>
   </g>
   <g id="text_27">
    <!-- C -->
    <g transform="translate(314.721642 15.698339) scale(0.096 -0.096)">
     <defs>
      <path id="Roboto-Bold-43" d="M 3044 1516 
L 3981 1516 
Q 3934 822 3461 379 
Q 2988 -63 2150 -63 
Q 1275 -63 772 526 
Q 269 1116 269 2125 
L 269 2422 
Q 269 3431 784 4023 
Q 1300 4616 2159 4616 
Q 3013 4616 3466 4161 
Q 3919 3706 3984 3006 
L 3047 3006 
Q 3016 3413 2820 3630 
Q 2625 3847 2159 3847 
Q 1247 3847 1222 2500 
L 1222 2125 
Q 1222 1419 1436 1062 
Q 1650 706 2150 706 
Q 2594 706 2801 907 
Q 3009 1109 3044 1516 
z
" transform="scale(0.015625)"/>
     </defs>
     <use xlink:href="#Roboto-Bold-43"/>
    </g>
   </g>
  </g>
 </g>
 <defs>
  <clipPath id="pcdef374f25">
   <rect x="26.094459" y="3.00024" width="123.011968" height="230.87452"/>
  </clipPath>
  <clipPath id="p348d3fcf58">
   <rect x="166.041125" y="3.00024" width="123.011968" height="230.87452"/>
  </clipPath>
  <clipPath id="pd7b944f575">
   <rect x="305.987792" y="3.00024" width="123.011968" height="230.87452"/>
  </clipPath>
 </defs>
</svg>
