<?xml version="1.0" encoding="utf-8" standalone="no"?>
<!DOCTYPE svg PUBLIC "-//W3C//DTD SVG 1.1//EN"
  "http://www.w3.org/Graphics/SVG/1.1/DTD/svg11.dtd">
<svg xmlns:xlink="http://www.w3.org/1999/xlink" width="432pt" height="252pt" viewBox="0 0 432 252" xmlns="http://www.w3.org/2000/svg" version="1.1">
 <metadata>
  <rdf:RDF xmlns:dc="http://purl.org/dc/elements/1.1/" xmlns:cc="http://creativecommons.org/ns#" xmlns:rdf="http://www.w3.org/1999/02/22-rdf-syntax-ns#">
   <cc:Work>
    <dc:type rdf:resource="http://purl.org/dc/dcmitype/StillImage"/>
    <dc:date>2022-10-04T16:46:53.225101</dc:date>
    <dc:format>image/svg+xml</dc:format>
    <dc:creator>
     <cc:Agent>
      <dc:title>Matplotlib v3.6.0, https://matplotlib.org/</dc:title>
     </cc:Agent>
    </dc:creator>
   </cc:Work>
  </rdf:RDF>
 </metadata>
 <defs>
  <style type="text/css">*{stroke-linejoin: round; stroke-linecap: butt}</style>
 </defs>
 <g id="figure_1">
  <g id="patch_1">
   <path d="M 0 252 
L 432 252 
L 432 0 
L 0 0 
z
" style="fill: #ffffff"/>
  </g>
  <g id="axes_1">
   <g id="patch_2">
    <path d="M 30.028678 233.87476 
L 149.106427 233.87476 
L 149.106427 3.00024 
L 30.028678 3.00024 
z
" style="fill: #ffffff"/>
   </g>
   <g id="line2d_1">
    <path d="M 30.028678 233.87476 
L 40.338439 216.595957 
L 50.648201 213.947886 
L 60.957963 195.343765 
L 71.267725 93.02496 
L 81.577487 86.718334 
L 91.887248 70.619214 
L 102.19701 70.341957 
L 112.506772 66.322494 
L 122.816534 64.081752 
L 133.126296 43.786341 
L 143.436058 28.034798 
" clip-path="url(#p1e7832f243)" style="fill: none; stroke-dasharray: 5.55,2.4; stroke-dashoffset: 0; stroke: #c0c0c0; stroke-width: 1.5"/>
    <defs>
     <path id="m5e5d7f8d53" d="M -2.5 2.5 
L 2.5 2.5 
L 2.5 -2.5 
L -2.5 -2.5 
z
"/>
    </defs>
    <g clip-path="url(#p1e7832f243)">
     <use xlink:href="#m5e5d7f8d53" x="30.028678" y="233.87476" style="fill: #c0c0c0"/>
     <use xlink:href="#m5e5d7f8d53" x="40.338439" y="216.595957" style="fill: #c0c0c0"/>
     <use xlink:href="#m5e5d7f8d53" x="50.648201" y="213.947886" style="fill: #c0c0c0"/>
     <use xlink:href="#m5e5d7f8d53" x="60.957963" y="195.343765" style="fill: #c0c0c0"/>
     <use xlink:href="#m5e5d7f8d53" x="71.267725" y="93.02496" style="fill: #c0c0c0"/>
     <use xlink:href="#m5e5d7f8d53" x="81.577487" y="86.718334" style="fill: #c0c0c0"/>
     <use xlink:href="#m5e5d7f8d53" x="91.887248" y="70.619214" style="fill: #c0c0c0"/>
     <use xlink:href="#m5e5d7f8d53" x="102.19701" y="70.341957" style="fill: #c0c0c0"/>
     <use xlink:href="#m5e5d7f8d53" x="112.506772" y="66.322494" style="fill: #c0c0c0"/>
     <use xlink:href="#m5e5d7f8d53" x="122.816534" y="64.081752" style="fill: #c0c0c0"/>
     <use xlink:href="#m5e5d7f8d53" x="133.126296" y="43.786341" style="fill: #c0c0c0"/>
     <use xlink:href="#m5e5d7f8d53" x="143.436058" y="28.034798" style="fill: #c0c0c0"/>
    </g>
   </g>
   <g id="line2d_2">
    <path d="M 30.028678 219.951699 
L 40.338439 203.177731 
L 50.648201 200.523648 
L 60.957963 183.030507 
L 71.267725 90.884448 
L 81.577487 86.261564 
L 91.887248 70.411822 
L 102.19701 63.303281 
L 112.506772 66.685046 
L 122.816534 63.838145 
L 133.126296 44.231049 
L 143.436058 28.728483 
" clip-path="url(#p1e7832f243)" style="fill: none; stroke-dasharray: 5.55,2.4; stroke-dashoffset: 0; stroke: #ffe1e3; stroke-width: 1.5"/>
    <defs>
     <path id="mc8ff6296c0" d="M -2.5 2.5 
L 2.5 2.5 
L 2.5 -2.5 
L -2.5 -2.5 
z
"/>
    </defs>
    <g clip-path="url(#p1e7832f243)">
     <use xlink:href="#mc8ff6296c0" x="30.028678" y="219.951699" style="fill: #ffe1e3"/>
     <use xlink:href="#mc8ff6296c0" x="40.338439" y="203.177731" style="fill: #ffe1e3"/>
     <use xlink:href="#mc8ff6296c0" x="50.648201" y="200.523648" style="fill: #ffe1e3"/>
     <use xlink:href="#mc8ff6296c0" x="60.957963" y="183.030507" style="fill: #ffe1e3"/>
     <use xlink:href="#mc8ff6296c0" x="71.267725" y="90.884448" style="fill: #ffe1e3"/>
     <use xlink:href="#mc8ff6296c0" x="81.577487" y="86.261564" style="fill: #ffe1e3"/>
     <use xlink:href="#mc8ff6296c0" x="91.887248" y="70.411822" style="fill: #ffe1e3"/>
     <use xlink:href="#mc8ff6296c0" x="102.19701" y="63.303281" style="fill: #ffe1e3"/>
     <use xlink:href="#mc8ff6296c0" x="112.506772" y="66.685046" style="fill: #ffe1e3"/>
     <use xlink:href="#mc8ff6296c0" x="122.816534" y="63.838145" style="fill: #ffe1e3"/>
     <use xlink:href="#mc8ff6296c0" x="133.126296" y="44.231049" style="fill: #ffe1e3"/>
     <use xlink:href="#mc8ff6296c0" x="143.436058" y="28.728483" style="fill: #ffe1e3"/>
    </g>
   </g>
   <g id="matplotlib.axis_1">
    <g id="text_1">
     <!-- 4mer Isomers -->
     <g style="fill: #191919" transform="translate(64.556302 247.37476) scale(0.08 -0.08)">
      <defs>
       <path id="Roboto-Bold-34" d="M 175 1553 
L 2072 4550 
L 2984 4550 
L 2984 1713 
L 3500 1713 
L 3500 984 
L 2984 984 
L 2984 0 
L 2081 0 
L 2081 984 
L 216 984 
L 175 1553 
z
M 1072 1713 
L 2081 1713 
L 2081 3328 
L 2019 3219 
L 1072 1713 
z
" transform="scale(0.015625)"/>
       <path id="Roboto-Bold-6d" d="M 1806 2713 
Q 1431 2713 1253 2394 
L 1253 0 
L 347 0 
L 347 3381 
L 1197 3381 
L 1228 3009 
Q 1581 3444 2197 3444 
Q 2850 3444 3094 2928 
Q 3441 3444 4109 3444 
Q 4597 3444 4894 3156 
Q 5191 2869 5194 2169 
L 5194 0 
L 4288 0 
L 4288 2156 
Q 4288 2494 4152 2603 
Q 4016 2713 3781 2713 
Q 3381 2713 3222 2334 
L 3222 0 
L 2319 0 
L 2319 2150 
Q 2319 2484 2181 2598 
Q 2044 2713 1806 2713 
z
" transform="scale(0.015625)"/>
       <path id="Roboto-Bold-65" d="M 3225 550 
Q 3063 319 2731 128 
Q 2400 -63 1906 -63 
Q 1119 -63 675 414 
Q 231 891 228 1566 
L 228 1697 
Q 228 2463 654 2953 
Q 1081 3444 1806 3444 
Q 2534 3444 2915 2987 
Q 3297 2531 3297 1781 
L 3297 1397 
L 1144 1397 
Q 1191 1069 1403 867 
Q 1616 666 1963 666 
Q 2478 666 2778 1044 
L 3225 550 
z
M 1800 2716 
Q 1513 2716 1356 2522 
Q 1200 2328 1153 2016 
L 2409 2016 
L 2409 2084 
Q 2403 2356 2258 2536 
Q 2113 2716 1800 2716 
z
" transform="scale(0.015625)"/>
       <path id="Roboto-Bold-72" d="M 1922 2563 
Q 1413 2563 1253 2216 
L 1253 0 
L 347 0 
L 347 3381 
L 1200 3381 
L 1228 2978 
Q 1494 3444 1981 3444 
Q 2153 3444 2259 3403 
L 2250 2538 
L 1922 2563 
z
" transform="scale(0.015625)"/>
       <path id="Roboto-Bold-20" transform="scale(0.015625)"/>
       <path id="Roboto-Bold-49" d="M 1403 4550 
L 1403 0 
L 466 0 
L 466 4550 
L 1403 4550 
z
" transform="scale(0.015625)"/>
       <path id="Roboto-Bold-73" d="M 2178 938 
Q 2178 1081 2045 1179 
Q 1913 1278 1475 1372 
Q 953 1484 618 1721 
Q 284 1959 284 2394 
Q 284 2816 642 3130 
Q 1000 3444 1631 3444 
Q 2291 3444 2669 3134 
Q 3047 2825 3047 2353 
L 2144 2353 
Q 2144 2547 2019 2675 
Q 1894 2803 1628 2803 
Q 1403 2803 1276 2698 
Q 1150 2594 1150 2438 
Q 1150 2294 1284 2200 
Q 1419 2106 1781 2034 
Q 2331 1925 2693 1700 
Q 3056 1475 3056 972 
Q 3056 525 2672 231 
Q 2288 -63 1634 -63 
Q 925 -63 550 301 
Q 175 666 175 1078 
L 1034 1078 
Q 1047 813 1230 697 
Q 1413 581 1653 581 
Q 2178 581 2178 938 
z
" transform="scale(0.015625)"/>
       <path id="Roboto-Bold-6f" d="M 206 1722 
Q 206 2459 625 2951 
Q 1044 3444 1806 3444 
Q 2578 3444 2993 2951 
Q 3409 2459 3409 1722 
L 3409 1656 
Q 3409 919 2993 428 
Q 2578 -63 1813 -63 
Q 1053 -63 636 415 
Q 219 894 206 1616 
L 206 1722 
z
M 1113 1656 
Q 1113 1244 1270 955 
Q 1428 666 1813 666 
Q 2191 666 2348 953 
Q 2506 1241 2506 1722 
Q 2506 2125 2348 2420 
Q 2191 2716 1806 2716 
Q 1425 2716 1269 2422 
Q 1113 2128 1113 1656 
z
" transform="scale(0.015625)"/>
      </defs>
      <use xlink:href="#Roboto-Bold-34"/>
      <use xlink:href="#Roboto-Bold-6d" x="57.373047"/>
      <use xlink:href="#Roboto-Bold-65" x="143.945312"/>
      <use xlink:href="#Roboto-Bold-72" x="197.998047"/>
      <use xlink:href="#Roboto-Bold-20" x="234.521484"/>
      <use xlink:href="#Roboto-Bold-49" x="259.423828"/>
      <use xlink:href="#Roboto-Bold-73" x="288.623047"/>
      <use xlink:href="#Roboto-Bold-6f" x="340.087891"/>
      <use xlink:href="#Roboto-Bold-6d" x="396.630859"/>
      <use xlink:href="#Roboto-Bold-65" x="483.203125"/>
      <use xlink:href="#Roboto-Bold-72" x="537.255859"/>
      <use xlink:href="#Roboto-Bold-73" x="573.779297"/>
     </g>
    </g>
   </g>
   <g id="matplotlib.axis_2">
    <g id="ytick_1">
     <g id="line2d_3">
      <defs>
       <path id="mf0a2bdceb4" d="M 0 0 
L -3.5 0 
" style="stroke: #c2c1c1; stroke-width: 0.8"/>
      </defs>
      <g>
       <use xlink:href="#mf0a2bdceb4" x="30.028678" y="233.87476" style="fill: #c2c1c1; stroke: #c2c1c1; stroke-width: 0.8"/>
      </g>
     </g>
     <g id="text_2">
      <!-- 0 -->
      <g style="fill: #191919" transform="translate(19.094459 236.49976) scale(0.07 -0.07)">
       <defs>
        <path id="Roboto-Regular-30" d="M 3234 1944 
Q 3234 825 2848 381 
Q 2463 -63 1800 -63 
Q 1156 -63 764 368 
Q 372 800 359 1872 
L 359 2638 
Q 359 3753 750 4183 
Q 1141 4613 1794 4613 
Q 2447 4613 2834 4195 
Q 3222 3778 3234 2709 
L 3234 1944 
z
M 2653 2734 
Q 2653 3503 2434 3822 
Q 2216 4141 1794 4141 
Q 1388 4141 1167 3831 
Q 947 3522 941 2778 
L 941 1850 
Q 941 1088 1164 750 
Q 1388 413 1800 413 
Q 2222 413 2436 745 
Q 2650 1078 2653 1825 
L 2653 2734 
z
" transform="scale(0.015625)"/>
       </defs>
       <use xlink:href="#Roboto-Regular-30"/>
      </g>
     </g>
    </g>
    <g id="ytick_2">
     <g id="line2d_4">
      <g>
       <use xlink:href="#mf0a2bdceb4" x="30.028678" y="191.298254" style="fill: #c2c1c1; stroke: #c2c1c1; stroke-width: 0.8"/>
      </g>
     </g>
     <g id="text_3">
      <!-- 2 -->
      <g style="fill: #191919" transform="translate(19.094459 193.923254) scale(0.07 -0.07)">
       <defs>
        <path id="Roboto-Regular-32" d="M 3359 475 
L 3359 0 
L 381 0 
L 381 416 
L 1925 2134 
Q 2306 2566 2439 2819 
Q 2572 3072 2572 3328 
Q 2572 3663 2364 3900 
Q 2156 4138 1778 4138 
Q 1322 4138 1097 3878 
Q 872 3619 872 3213 
L 294 3213 
Q 294 3788 672 4200 
Q 1050 4613 1778 4613 
Q 2422 4613 2786 4278 
Q 3150 3944 3150 3397 
Q 3150 2997 2903 2592 
Q 2656 2188 2297 1797 
L 1078 475 
L 3359 475 
z
" transform="scale(0.015625)"/>
       </defs>
       <use xlink:href="#Roboto-Regular-32"/>
      </g>
     </g>
    </g>
    <g id="ytick_3">
     <g id="line2d_5">
      <g>
       <use xlink:href="#mf0a2bdceb4" x="30.028678" y="148.721748" style="fill: #c2c1c1; stroke: #c2c1c1; stroke-width: 0.8"/>
      </g>
     </g>
     <g id="text_4">
      <!-- 4 -->
      <g style="fill: #191919" transform="translate(19.094459 151.346748) scale(0.07 -0.07)">
       <defs>
        <path id="Roboto-Regular-34" d="M 166 1397 
L 2203 4550 
L 2819 4550 
L 2819 1531 
L 3453 1531 
L 3453 1056 
L 2819 1056 
L 2819 0 
L 2241 0 
L 2241 1056 
L 166 1056 
L 166 1397 
z
M 822 1531 
L 2241 1531 
L 2241 3766 
L 2169 3638 
L 822 1531 
z
" transform="scale(0.015625)"/>
       </defs>
       <use xlink:href="#Roboto-Regular-34"/>
      </g>
     </g>
    </g>
    <g id="ytick_4">
     <g id="line2d_6">
      <g>
       <use xlink:href="#mf0a2bdceb4" x="30.028678" y="106.145242" style="fill: #c2c1c1; stroke: #c2c1c1; stroke-width: 0.8"/>
      </g>
     </g>
     <g id="text_5">
      <!-- 6 -->
      <g style="fill: #191919" transform="translate(19.094459 108.770242) scale(0.07 -0.07)">
       <defs>
        <path id="Roboto-Regular-36" d="M 3291 1484 
Q 3291 838 2930 387 
Q 2569 -63 1878 -63 
Q 1388 -63 1063 198 
Q 738 459 577 861 
Q 416 1263 416 1684 
L 416 1956 
Q 416 2597 595 3194 
Q 775 3791 1247 4173 
Q 1719 4556 2597 4556 
L 2647 4556 
L 2647 4066 
Q 2041 4066 1705 3853 
Q 1369 3641 1205 3302 
Q 1041 2963 1006 2575 
Q 1369 2984 1984 2984 
Q 2438 2984 2727 2765 
Q 3016 2547 3153 2201 
Q 3291 1856 3291 1484 
z
M 997 1666 
Q 997 1059 1267 737 
Q 1538 416 1878 416 
Q 2278 416 2498 708 
Q 2719 1000 2719 1456 
Q 2719 1863 2516 2184 
Q 2313 2506 1891 2506 
Q 1588 2506 1341 2325 
Q 1094 2144 997 1884 
L 997 1666 
z
" transform="scale(0.015625)"/>
       </defs>
       <use xlink:href="#Roboto-Regular-36"/>
      </g>
     </g>
    </g>
    <g id="ytick_5">
     <g id="line2d_7">
      <g>
       <use xlink:href="#mf0a2bdceb4" x="30.028678" y="63.568736" style="fill: #c2c1c1; stroke: #c2c1c1; stroke-width: 0.8"/>
      </g>
     </g>
     <g id="text_6">
      <!-- 8 -->
      <g style="fill: #191919" transform="translate(19.094459 66.193736) scale(0.07 -0.07)">
       <defs>
        <path id="Roboto-Regular-38" d="M 3244 1231 
Q 3244 606 2826 271 
Q 2409 -63 1796 -63 
Q 1184 -63 767 271 
Q 350 606 350 1231 
Q 350 1613 554 1905 
Q 759 2197 1109 2347 
Q 806 2494 629 2762 
Q 453 3031 453 3366 
Q 453 3963 833 4288 
Q 1213 4613 1794 4613 
Q 2378 4613 2758 4288 
Q 3138 3963 3138 3366 
Q 3138 3028 2956 2761 
Q 2775 2494 2472 2347 
Q 2825 2197 3034 1903 
Q 3244 1609 3244 1231 
z
M 2559 3356 
Q 2559 3697 2346 3917 
Q 2134 4138 1793 4138 
Q 1453 4138 1243 3927 
Q 1034 3716 1034 3356 
Q 1034 3003 1243 2790 
Q 1453 2578 1797 2578 
Q 2138 2578 2348 2790 
Q 2559 3003 2559 3356 
z
M 2663 1244 
Q 2663 1625 2420 1865 
Q 2178 2106 1791 2106 
Q 1394 2106 1161 1865 
Q 928 1625 928 1244 
Q 928 850 1161 631 
Q 1394 413 1797 413 
Q 2200 413 2431 631 
Q 2663 850 2663 1244 
z
" transform="scale(0.015625)"/>
       </defs>
       <use xlink:href="#Roboto-Regular-38"/>
      </g>
     </g>
    </g>
    <g id="ytick_6">
     <g id="line2d_8">
      <g>
       <use xlink:href="#mf0a2bdceb4" x="30.028678" y="20.99223" style="fill: #c2c1c1; stroke: #c2c1c1; stroke-width: 0.8"/>
      </g>
     </g>
     <g id="text_7">
      <!-- 10 -->
      <g style="fill: #191919" transform="translate(15.16024 23.61723) scale(0.07 -0.07)">
       <defs>
        <path id="Roboto-Regular-31" d="M 2278 4575 
L 2278 0 
L 1700 0 
L 1700 3853 
L 534 3428 
L 534 3950 
L 2188 4575 
L 2278 4575 
z
" transform="scale(0.015625)"/>
       </defs>
       <use xlink:href="#Roboto-Regular-31"/>
       <use xlink:href="#Roboto-Regular-30" x="56.201172"/>
      </g>
     </g>
    </g>
    <g id="ytick_7">
     <g id="line2d_9">
      <defs>
       <path id="m2e26c6f0fe" d="M 0 0 
L -2 0 
" style="stroke: #c2c1c1; stroke-width: 0.6"/>
      </defs>
      <g>
       <use xlink:href="#m2e26c6f0fe" x="30.028678" y="212.586507" style="fill: #c2c1c1; stroke: #c2c1c1; stroke-width: 0.6"/>
      </g>
     </g>
    </g>
    <g id="ytick_8">
     <g id="line2d_10">
      <g>
       <use xlink:href="#m2e26c6f0fe" x="30.028678" y="170.010001" style="fill: #c2c1c1; stroke: #c2c1c1; stroke-width: 0.6"/>
      </g>
     </g>
    </g>
    <g id="ytick_9">
     <g id="line2d_11">
      <g>
       <use xlink:href="#m2e26c6f0fe" x="30.028678" y="127.433495" style="fill: #c2c1c1; stroke: #c2c1c1; stroke-width: 0.6"/>
      </g>
     </g>
    </g>
    <g id="ytick_10">
     <g id="line2d_12">
      <g>
       <use xlink:href="#m2e26c6f0fe" x="30.028678" y="84.856989" style="fill: #c2c1c1; stroke: #c2c1c1; stroke-width: 0.6"/>
      </g>
     </g>
    </g>
    <g id="ytick_11">
     <g id="line2d_13">
      <g>
       <use xlink:href="#m2e26c6f0fe" x="30.028678" y="42.280483" style="fill: #c2c1c1; stroke: #c2c1c1; stroke-width: 0.6"/>
      </g>
     </g>
    </g>
    <g id="text_8">
     <!-- $\Delta$E (kcal/mol) -->
     <g style="fill: #191919" transform="translate(9.32024 142.9575) rotate(-90) scale(0.08 -0.08)">
      <defs>
       <path id="DejaVuSans-394" d="M 2188 4044 
L 906 525 
L 3472 525 
L 2188 4044 
z
M 50 0 
L 1831 4666 
L 2547 4666 
L 4325 0 
L 50 0 
z
" transform="scale(0.015625)"/>
       <path id="Roboto-Bold-45" d="M 406 0 
L 406 4550 
L 3450 4550 
L 3450 3791 
L 1347 3791 
L 1347 2706 
L 3144 2706 
L 3144 1972 
L 1347 1972 
L 1347 756 
L 3459 756 
L 3459 0 
L 406 0 
z
" transform="scale(0.015625)"/>
       <path id="Roboto-Bold-28" d="M 391 1850 
Q 391 2731 633 3392 
Q 875 4053 1234 4473 
Q 1594 4894 1947 5053 
L 2122 4566 
Q 1772 4303 1465 3661 
Q 1159 3019 1153 1906 
L 1153 1772 
Q 1153 628 1461 -23 
Q 1769 -675 2122 -944 
L 1947 -1422 
Q 1594 -1266 1234 -845 
Q 875 -425 633 237 
Q 391 900 391 1778 
L 391 1850 
z
" transform="scale(0.015625)"/>
       <path id="Roboto-Bold-6b" d="M 2444 0 
L 1575 1356 
L 1253 1034 
L 1253 0 
L 350 0 
L 350 4803 
L 1253 4803 
L 1253 2144 
L 1428 2369 
L 2291 3381 
L 3375 3381 
L 2156 1975 
L 3484 0 
L 2444 0 
z
" transform="scale(0.015625)"/>
       <path id="Roboto-Bold-63" d="M 1753 666 
Q 2000 666 2159 802 
Q 2319 938 2322 1169 
L 3172 1169 
Q 3166 631 2761 284 
Q 2356 -63 1769 -63 
Q 984 -63 595 432 
Q 206 928 206 1647 
L 206 1734 
Q 206 2450 593 2947 
Q 981 3444 1766 3444 
Q 2388 3444 2777 3087 
Q 3166 2731 3172 2122 
L 2322 2122 
Q 2319 2369 2172 2542 
Q 2025 2716 1750 2716 
Q 1356 2716 1234 2420 
Q 1113 2125 1113 1647 
Q 1113 1256 1233 961 
Q 1353 666 1753 666 
z
" transform="scale(0.015625)"/>
       <path id="Roboto-Bold-61" d="M 2306 0 
Q 2250 119 2216 303 
Q 1888 -63 1363 -63 
Q 878 -63 547 223 
Q 216 509 216 950 
Q 216 1481 609 1773 
Q 1003 2066 1775 2066 
L 2178 2066 
L 2178 2263 
Q 2178 2497 2058 2636 
Q 1938 2775 1678 2775 
Q 1194 2775 1194 2369 
L 291 2369 
Q 291 2809 681 3126 
Q 1072 3444 1728 3444 
Q 2313 3444 2698 3147 
Q 3084 2850 3084 2256 
L 3084 750 
Q 3091 300 3219 53 
L 3219 0 
L 2306 0 
z
M 1559 628 
Q 1788 628 1948 729 
Q 2109 831 2178 953 
L 2178 1541 
L 1809 1541 
Q 1450 1541 1284 1389 
Q 1119 1238 1119 1016 
Q 1119 847 1236 737 
Q 1353 628 1559 628 
z
" transform="scale(0.015625)"/>
       <path id="Roboto-Bold-6c" d="M 1303 4800 
L 1303 0 
L 397 0 
L 397 4800 
L 1303 4800 
z
" transform="scale(0.015625)"/>
       <path id="Roboto-Bold-2f" d="M 2306 4550 
L 631 -391 
L -41 -391 
L 1634 4550 
L 2306 4550 
z
" transform="scale(0.015625)"/>
       <path id="Roboto-Bold-29" d="M 1906 1778 
Q 1906 928 1656 264 
Q 1406 -400 1034 -833 
Q 663 -1266 300 -1422 
L 125 -944 
Q 472 -684 780 -37 
Q 1088 609 1094 1722 
L 1094 1856 
Q 1094 3000 780 3656 
Q 466 4313 125 4572 
L 300 5053 
Q 663 4894 1034 4461 
Q 1406 4028 1656 3364 
Q 1906 2700 1906 1847 
L 1906 1778 
z
" transform="scale(0.015625)"/>
      </defs>
      <use xlink:href="#DejaVuSans-394" transform="translate(0 0.046875)"/>
      <use xlink:href="#Roboto-Bold-45" transform="translate(68.408203 0.046875)"/>
      <use xlink:href="#Roboto-Bold-20" transform="translate(124.658203 0.046875)"/>
      <use xlink:href="#Roboto-Bold-28" transform="translate(149.560547 0.046875)"/>
      <use xlink:href="#Roboto-Bold-6b" transform="translate(184.667969 0.046875)"/>
      <use xlink:href="#Roboto-Bold-63" transform="translate(238.085938 0.046875)"/>
      <use xlink:href="#Roboto-Bold-61" transform="translate(290.283203 0.046875)"/>
      <use xlink:href="#Roboto-Bold-6c" transform="translate(343.896484 0.046875)"/>
      <use xlink:href="#Roboto-Bold-2f" transform="translate(370.410156 0.046875)"/>
      <use xlink:href="#Roboto-Bold-6d" transform="translate(407.8125 0.046875)"/>
      <use xlink:href="#Roboto-Bold-6f" transform="translate(494.384766 0.046875)"/>
      <use xlink:href="#Roboto-Bold-6c" transform="translate(550.927734 0.046875)"/>
      <use xlink:href="#Roboto-Bold-29" transform="translate(577.441406 0.046875)"/>
     </g>
    </g>
   </g>
   <g id="line2d_14">
    <path d="M 30.028678 187.805294 
L 40.338439 174.425501 
L 50.648201 170.341785 
L 60.957963 158.437086 
L 71.267725 69.344404 
L 81.577487 67.767193 
L 91.887248 52.181707 
L 102.19701 46.035182 
L 112.506772 46.942322 
L 122.816534 43.721331 
L 133.126296 29.871335 
L 143.436058 13.994265 
" clip-path="url(#p1e7832f243)" style="fill: none; stroke: #ffb5ba; stroke-width: 1.5; stroke-linecap: square"/>
    <defs>
     <path id="m5f5f7a58b4" d="M 0 2.5 
C 0.663008 2.5 1.29895 2.236584 1.767767 1.767767 
C 2.236584 1.29895 2.5 0.663008 2.5 0 
C 2.5 -0.663008 2.236584 -1.29895 1.767767 -1.767767 
C 1.29895 -2.236584 0.663008 -2.5 0 -2.5 
C -0.663008 -2.5 -1.29895 -2.236584 -1.767767 -1.767767 
C -2.236584 -1.29895 -2.5 -0.663008 -2.5 0 
C -2.5 0.663008 -2.236584 1.29895 -1.767767 1.767767 
C -1.29895 2.236584 -0.663008 2.5 0 2.5 
z
"/>
    </defs>
    <g clip-path="url(#p1e7832f243)">
     <use xlink:href="#m5f5f7a58b4" x="30.028678" y="187.805294" style="fill: #ffb5ba"/>
     <use xlink:href="#m5f5f7a58b4" x="40.338439" y="174.425501" style="fill: #ffb5ba"/>
     <use xlink:href="#m5f5f7a58b4" x="50.648201" y="170.341785" style="fill: #ffb5ba"/>
     <use xlink:href="#m5f5f7a58b4" x="60.957963" y="158.437086" style="fill: #ffb5ba"/>
     <use xlink:href="#m5f5f7a58b4" x="71.267725" y="69.344404" style="fill: #ffb5ba"/>
     <use xlink:href="#m5f5f7a58b4" x="81.577487" y="67.767193" style="fill: #ffb5ba"/>
     <use xlink:href="#m5f5f7a58b4" x="91.887248" y="52.181707" style="fill: #ffb5ba"/>
     <use xlink:href="#m5f5f7a58b4" x="102.19701" y="46.035182" style="fill: #ffb5ba"/>
     <use xlink:href="#m5f5f7a58b4" x="112.506772" y="46.942322" style="fill: #ffb5ba"/>
     <use xlink:href="#m5f5f7a58b4" x="122.816534" y="43.721331" style="fill: #ffb5ba"/>
     <use xlink:href="#m5f5f7a58b4" x="133.126296" y="29.871335" style="fill: #ffb5ba"/>
     <use xlink:href="#m5f5f7a58b4" x="143.436058" y="13.994265" style="fill: #ffb5ba"/>
    </g>
   </g>
   <g id="patch_3">
    <path d="M 30.028678 233.87476 
L 30.028678 3.00024 
" style="fill: none; stroke: #c2c1c1; stroke-width: 0.8; stroke-linejoin: miter; stroke-linecap: square"/>
   </g>
   <g id="patch_4">
    <path d="M 149.106427 233.87476 
L 149.106427 3.00024 
" style="fill: none; stroke: #c2c1c1; stroke-width: 0.8; stroke-linejoin: miter; stroke-linecap: square"/>
   </g>
   <g id="patch_5">
    <path d="M 30.028678 233.87476 
L 149.106427 233.87476 
" style="fill: none; stroke: #c2c1c1; stroke-width: 0.8; stroke-linejoin: miter; stroke-linecap: square"/>
   </g>
   <g id="patch_6">
    <path d="M 30.028678 3.00024 
L 149.106427 3.00024 
" style="fill: none; stroke: #c2c1c1; stroke-width: 0.8; stroke-linejoin: miter; stroke-linecap: square"/>
   </g>
   <g id="text_9">
    <!-- A -->
    <g transform="translate(38.483198 15.698339) scale(0.096 -0.096)">
     <defs>
      <path id="Roboto-Bold-41" d="M 25 0 
L 1719 4550 
L 2588 4550 
L 4291 0 
L 3291 0 
L 2978 938 
L 1331 938 
L 1019 0 
L 25 0 
z
M 1584 1697 
L 2725 1697 
L 2156 3406 
L 1584 1697 
z
" transform="scale(0.015625)"/>
     </defs>
     <use xlink:href="#Roboto-Bold-41"/>
    </g>
   </g>
   <g id="legend_1">
    <g id="line2d_15">
     <path d="M 34.419455 22.917634 
L 42.419455 22.917634 
L 50.419455 22.917634 
" style="fill: none; stroke-dasharray: 5.55,2.4; stroke-dashoffset: 0; stroke: #c0c0c0; stroke-width: 1.5"/>
     <g>
      <use xlink:href="#m5e5d7f8d53" x="42.419455" y="22.917634" style="fill: #c0c0c0"/>
     </g>
    </g>
    <g id="text_10">
     <!-- MP2 -->
     <g transform="translate(56.819455 25.717634) scale(0.08 -0.08)">
      <defs>
       <path id="Roboto-Regular-4d" d="M 2794 841 
L 4281 4550 
L 5056 4550 
L 5056 0 
L 4456 0 
L 4456 1775 
L 4516 3678 
L 3019 0 
L 2563 0 
L 1069 3684 
L 1128 1775 
L 1128 0 
L 528 0 
L 528 4550 
L 1303 4550 
L 2794 841 
z
" transform="scale(0.015625)"/>
       <path id="Roboto-Regular-50" d="M 1131 1784 
L 1131 0 
L 528 0 
L 528 4550 
L 2206 4550 
Q 2981 4550 3392 4159 
Q 3803 3769 3803 3163 
Q 3803 2503 3392 2143 
Q 2981 1784 2206 1784 
L 1131 1784 
z
M 1131 4056 
L 1131 2275 
L 2206 2275 
Q 2738 2275 2969 2522 
Q 3200 2769 3200 3156 
Q 3200 3506 2969 3781 
Q 2738 4056 2206 4056 
L 1131 4056 
z
" transform="scale(0.015625)"/>
      </defs>
      <use xlink:href="#Roboto-Regular-4d"/>
      <use xlink:href="#Roboto-Regular-50" x="87.304688"/>
      <use xlink:href="#Roboto-Regular-32" x="150.390625"/>
     </g>
    </g>
    <g id="line2d_16">
     <path d="M 34.419455 34.542634 
L 42.419455 34.542634 
L 50.419455 34.542634 
" style="fill: none; stroke-dasharray: 5.55,2.4; stroke-dashoffset: 0; stroke: #ffe1e3; stroke-width: 1.5"/>
     <g>
      <use xlink:href="#mc8ff6296c0" x="42.419455" y="34.542634" style="fill: #ffe1e3"/>
     </g>
    </g>
    <g id="text_11">
     <!-- MBE -->
     <g transform="translate(56.819455 37.342634) scale(0.08 -0.08)">
      <defs>
       <path id="Roboto-Regular-42" d="M 3625 1313 
Q 3625 675 3214 337 
Q 2803 0 2122 0 
L 528 0 
L 528 4550 
L 2019 4550 
Q 2719 4550 3111 4261 
Q 3503 3972 3503 3338 
Q 3503 3022 3323 2776 
Q 3144 2531 2831 2397 
Q 3216 2291 3420 1994 
Q 3625 1697 3625 1313 
z
M 1131 4056 
L 1131 2613 
L 2038 2613 
Q 2425 2613 2662 2806 
Q 2900 3000 2900 3344 
Q 2900 4041 2056 4056 
L 1131 4056 
z
M 3025 1306 
Q 3025 1688 2817 1908 
Q 2609 2128 2150 2128 
L 1131 2128 
L 1131 491 
L 2122 491 
Q 2550 491 2787 711 
Q 3025 931 3025 1306 
z
" transform="scale(0.015625)"/>
       <path id="Roboto-Regular-45" d="M 528 0 
L 528 4550 
L 3388 4550 
L 3388 4056 
L 1131 4056 
L 1131 2594 
L 3100 2594 
L 3100 2103 
L 1131 2103 
L 1131 491 
L 3419 491 
L 3419 0 
L 528 0 
z
" transform="scale(0.015625)"/>
      </defs>
      <use xlink:href="#Roboto-Regular-4d"/>
      <use xlink:href="#Roboto-Regular-42" x="87.304688"/>
      <use xlink:href="#Roboto-Regular-45" x="149.609375"/>
     </g>
    </g>
    <g id="line2d_17">
     <path d="M 34.419455 46.167634 
L 42.419455 46.167634 
L 50.419455 46.167634 
" style="fill: none; stroke: #ffb5ba; stroke-width: 1.5; stroke-linecap: square"/>
     <g>
      <use xlink:href="#m5f5f7a58b4" x="42.419455" y="46.167634" style="fill: #ffb5ba"/>
     </g>
    </g>
    <g id="text_12">
     <!-- mbGDML -->
     <g transform="translate(56.819455 48.967634) scale(0.08 -0.08)">
      <defs>
       <path id="Roboto-Regular-6d" d="M 1794 2956 
Q 1225 2956 1016 2478 
L 1016 0 
L 434 0 
L 434 3381 
L 984 3381 
L 1000 3013 
Q 1366 3444 2000 3444 
Q 2325 3444 2579 3314 
Q 2834 3184 2969 2900 
Q 3138 3144 3408 3294 
Q 3678 3444 4044 3444 
Q 4588 3444 4883 3153 
Q 5178 2863 5178 2222 
L 5178 0 
L 4597 0 
L 4597 2228 
Q 4597 2653 4401 2804 
Q 4206 2956 3875 2956 
Q 3525 2956 3325 2748 
Q 3125 2541 3094 2244 
L 3094 0 
L 2516 0 
L 2516 2225 
Q 2516 2622 2319 2789 
Q 2122 2956 1794 2956 
z
" transform="scale(0.015625)"/>
       <path id="Roboto-Regular-62" d="M 3303 1653 
Q 3303 913 2959 425 
Q 2616 -63 1988 -63 
Q 1347 -63 1000 391 
L 969 0 
L 438 0 
L 438 4800 
L 1019 4800 
L 1019 3016 
Q 1363 3444 1981 3444 
Q 2619 3444 2961 2969 
Q 3303 2494 3303 1719 
L 3303 1653 
z
M 1838 2956 
Q 1522 2956 1325 2804 
Q 1128 2653 1019 2431 
L 1019 959 
Q 1131 734 1331 581 
Q 1531 428 1844 428 
Q 2313 428 2517 789 
Q 2722 1150 2722 1653 
L 2722 1719 
Q 2722 2222 2526 2589 
Q 2331 2956 1838 2956 
z
" transform="scale(0.015625)"/>
       <path id="Roboto-Regular-47" d="M 3891 2266 
L 3891 600 
Q 3763 413 3403 175 
Q 3044 -63 2281 -63 
Q 1450 -63 915 507 
Q 381 1078 381 2100 
L 381 2453 
Q 381 3469 856 4041 
Q 1331 4613 2213 4613 
Q 2994 4613 3398 4219 
Q 3803 3825 3891 3219 
L 3288 3219 
Q 3225 3588 2979 3853 
Q 2734 4119 2213 4119 
Q 1584 4119 1287 3676 
Q 991 3234 988 2475 
L 988 2100 
Q 988 1313 1344 870 
Q 1700 428 2284 428 
Q 2769 428 2984 542 
Q 3200 656 3291 759 
L 3291 1778 
L 2238 1778 
L 2238 2266 
L 3891 2266 
z
" transform="scale(0.015625)"/>
       <path id="Roboto-Regular-44" d="M 528 0 
L 528 4550 
L 1816 4550 
Q 2713 4550 3267 3973 
Q 3822 3397 3822 2409 
L 3822 2138 
Q 3822 1150 3264 575 
Q 2706 0 1759 0 
L 528 0 
z
M 1131 4056 
L 1131 491 
L 1759 491 
Q 2488 491 2856 941 
Q 3225 1391 3225 2138 
L 3225 2416 
Q 3225 3200 2856 3628 
Q 2488 4056 1816 4056 
L 1131 4056 
z
" transform="scale(0.015625)"/>
       <path id="Roboto-Regular-4c" d="M 3288 491 
L 3288 0 
L 528 0 
L 528 4550 
L 1131 4550 
L 1131 491 
L 3288 491 
z
" transform="scale(0.015625)"/>
      </defs>
      <use xlink:href="#Roboto-Regular-6d"/>
      <use xlink:href="#Roboto-Regular-62" x="87.695312"/>
      <use xlink:href="#Roboto-Regular-47" x="143.847656"/>
      <use xlink:href="#Roboto-Regular-44" x="211.962891"/>
      <use xlink:href="#Roboto-Regular-4d" x="277.587891"/>
      <use xlink:href="#Roboto-Regular-4c" x="364.892578"/>
     </g>
    </g>
   </g>
  </g>
  <g id="axes_2">
   <g id="patch_7">
    <path d="M 169.975344 233.87476 
L 289.053093 233.87476 
L 289.053093 3.00024 
L 169.975344 3.00024 
z
" style="fill: #ffffff"/>
   </g>
   <g id="line2d_18">
    <path d="M 169.975344 233.87476 
L 178.698989 223.518009 
L 187.422633 223.306833 
L 196.146278 179.305916 
L 204.869923 177.779041 
L 213.593567 154.840459 
L 222.317212 153.207503 
L 231.040857 148.169762 
L 239.764501 145.993898 
L 248.488146 128.278145 
L 257.21179 91.605404 
L 265.935435 65.936456 
L 274.65908 63.210917 
L 283.382724 27.079939 
" clip-path="url(#pe4a8a251a8)" style="fill: none; stroke-dasharray: 5.55,2.4; stroke-dashoffset: 0; stroke: #c0c0c0; stroke-width: 1.5"/>
    <g clip-path="url(#pe4a8a251a8)">
     <use xlink:href="#m5e5d7f8d53" x="169.975344" y="233.87476" style="fill: #c0c0c0"/>
     <use xlink:href="#m5e5d7f8d53" x="178.698989" y="223.518009" style="fill: #c0c0c0"/>
     <use xlink:href="#m5e5d7f8d53" x="187.422633" y="223.306833" style="fill: #c0c0c0"/>
     <use xlink:href="#m5e5d7f8d53" x="196.146278" y="179.305916" style="fill: #c0c0c0"/>
     <use xlink:href="#m5e5d7f8d53" x="204.869923" y="177.779041" style="fill: #c0c0c0"/>
     <use xlink:href="#m5e5d7f8d53" x="213.593567" y="154.840459" style="fill: #c0c0c0"/>
     <use xlink:href="#m5e5d7f8d53" x="222.317212" y="153.207503" style="fill: #c0c0c0"/>
     <use xlink:href="#m5e5d7f8d53" x="231.040857" y="148.169762" style="fill: #c0c0c0"/>
     <use xlink:href="#m5e5d7f8d53" x="239.764501" y="145.993898" style="fill: #c0c0c0"/>
     <use xlink:href="#m5e5d7f8d53" x="248.488146" y="128.278145" style="fill: #c0c0c0"/>
     <use xlink:href="#m5e5d7f8d53" x="257.21179" y="91.605404" style="fill: #c0c0c0"/>
     <use xlink:href="#m5e5d7f8d53" x="265.935435" y="65.936456" style="fill: #c0c0c0"/>
     <use xlink:href="#m5e5d7f8d53" x="274.65908" y="63.210917" style="fill: #c0c0c0"/>
     <use xlink:href="#m5e5d7f8d53" x="283.382724" y="27.079939" style="fill: #c0c0c0"/>
    </g>
   </g>
   <g id="line2d_19">
    <path d="M 169.975344 212.083313 
L 178.698989 207.650365 
L 187.422633 203.151141 
L 196.146278 167.317072 
L 204.869923 166.02516 
L 213.593567 146.878387 
L 222.317212 143.974821 
L 231.040857 137.519814 
L 239.764501 136.747045 
L 248.488146 119.596922 
L 257.21179 90.755057 
L 265.935435 62.303371 
L 274.65908 59.626166 
L 283.382724 27.68597 
" clip-path="url(#pe4a8a251a8)" style="fill: none; stroke-dasharray: 5.55,2.4; stroke-dashoffset: 0; stroke: #ffe1e3; stroke-width: 1.5"/>
    <g clip-path="url(#pe4a8a251a8)">
     <use xlink:href="#mc8ff6296c0" x="169.975344" y="212.083313" style="fill: #ffe1e3"/>
     <use xlink:href="#mc8ff6296c0" x="178.698989" y="207.650365" style="fill: #ffe1e3"/>
     <use xlink:href="#mc8ff6296c0" x="187.422633" y="203.151141" style="fill: #ffe1e3"/>
     <use xlink:href="#mc8ff6296c0" x="196.146278" y="167.317072" style="fill: #ffe1e3"/>
     <use xlink:href="#mc8ff6296c0" x="204.869923" y="166.02516" style="fill: #ffe1e3"/>
     <use xlink:href="#mc8ff6296c0" x="213.593567" y="146.878387" style="fill: #ffe1e3"/>
     <use xlink:href="#mc8ff6296c0" x="222.317212" y="143.974821" style="fill: #ffe1e3"/>
     <use xlink:href="#mc8ff6296c0" x="231.040857" y="137.519814" style="fill: #ffe1e3"/>
     <use xlink:href="#mc8ff6296c0" x="239.764501" y="136.747045" style="fill: #ffe1e3"/>
     <use xlink:href="#mc8ff6296c0" x="248.488146" y="119.596922" style="fill: #ffe1e3"/>
     <use xlink:href="#mc8ff6296c0" x="257.21179" y="90.755057" style="fill: #ffe1e3"/>
     <use xlink:href="#mc8ff6296c0" x="265.935435" y="62.303371" style="fill: #ffe1e3"/>
     <use xlink:href="#mc8ff6296c0" x="274.65908" y="59.626166" style="fill: #ffe1e3"/>
     <use xlink:href="#mc8ff6296c0" x="283.382724" y="27.68597" style="fill: #ffe1e3"/>
    </g>
   </g>
   <g id="matplotlib.axis_3">
    <g id="text_13">
     <!-- 5mer Isomers -->
     <g style="fill: #191919" transform="translate(204.502969 247.37476) scale(0.08 -0.08)">
      <defs>
       <path id="Roboto-Bold-35" d="M 1166 2063 
L 447 2238 
L 706 4550 
L 3256 4550 
L 3256 3800 
L 1450 3800 
L 1338 2819 
Q 1650 2991 2019 2991 
Q 2681 2991 3043 2587 
Q 3406 2184 3406 1463 
Q 3406 856 3031 396 
Q 2656 -63 1872 -63 
Q 1281 -63 814 287 
Q 347 638 331 1269 
L 1225 1269 
Q 1284 666 1866 666 
Q 2206 666 2354 911 
Q 2503 1156 2503 1513 
Q 2503 1872 2325 2092 
Q 2147 2313 1772 2313 
Q 1525 2313 1390 2233 
Q 1256 2153 1166 2063 
z
" transform="scale(0.015625)"/>
      </defs>
      <use xlink:href="#Roboto-Bold-35"/>
      <use xlink:href="#Roboto-Bold-6d" x="57.373047"/>
      <use xlink:href="#Roboto-Bold-65" x="143.945312"/>
      <use xlink:href="#Roboto-Bold-72" x="197.998047"/>
      <use xlink:href="#Roboto-Bold-20" x="234.521484"/>
      <use xlink:href="#Roboto-Bold-49" x="259.423828"/>
      <use xlink:href="#Roboto-Bold-73" x="288.623047"/>
      <use xlink:href="#Roboto-Bold-6f" x="340.087891"/>
      <use xlink:href="#Roboto-Bold-6d" x="396.630859"/>
      <use xlink:href="#Roboto-Bold-65" x="483.203125"/>
      <use xlink:href="#Roboto-Bold-72" x="537.255859"/>
      <use xlink:href="#Roboto-Bold-73" x="573.779297"/>
     </g>
    </g>
   </g>
   <g id="matplotlib.axis_4">
    <g id="ytick_12">
     <g id="line2d_20">
      <g>
       <use xlink:href="#mf0a2bdceb4" x="169.975344" y="233.87476" style="fill: #c2c1c1; stroke: #c2c1c1; stroke-width: 0.8"/>
      </g>
     </g>
     <g id="text_14">
      <!-- 0 -->
      <g style="fill: #191919" transform="translate(159.041125 236.49976) scale(0.07 -0.07)">
       <use xlink:href="#Roboto-Regular-30"/>
      </g>
     </g>
    </g>
    <g id="ytick_13">
     <g id="line2d_21">
      <g>
       <use xlink:href="#mf0a2bdceb4" x="169.975344" y="201.545482" style="fill: #c2c1c1; stroke: #c2c1c1; stroke-width: 0.8"/>
      </g>
     </g>
     <g id="text_15">
      <!-- 2 -->
      <g style="fill: #191919" transform="translate(159.041125 204.170482) scale(0.07 -0.07)">
       <use xlink:href="#Roboto-Regular-32"/>
      </g>
     </g>
    </g>
    <g id="ytick_14">
     <g id="line2d_22">
      <g>
       <use xlink:href="#mf0a2bdceb4" x="169.975344" y="169.216205" style="fill: #c2c1c1; stroke: #c2c1c1; stroke-width: 0.8"/>
      </g>
     </g>
     <g id="text_16">
      <!-- 4 -->
      <g style="fill: #191919" transform="translate(159.041125 171.841205) scale(0.07 -0.07)">
       <use xlink:href="#Roboto-Regular-34"/>
      </g>
     </g>
    </g>
    <g id="ytick_15">
     <g id="line2d_23">
      <g>
       <use xlink:href="#mf0a2bdceb4" x="169.975344" y="136.886927" style="fill: #c2c1c1; stroke: #c2c1c1; stroke-width: 0.8"/>
      </g>
     </g>
     <g id="text_17">
      <!-- 6 -->
      <g style="fill: #191919" transform="translate(159.041125 139.511927) scale(0.07 -0.07)">
       <use xlink:href="#Roboto-Regular-36"/>
      </g>
     </g>
    </g>
    <g id="ytick_16">
     <g id="line2d_24">
      <g>
       <use xlink:href="#mf0a2bdceb4" x="169.975344" y="104.557649" style="fill: #c2c1c1; stroke: #c2c1c1; stroke-width: 0.8"/>
      </g>
     </g>
     <g id="text_18">
      <!-- 8 -->
      <g style="fill: #191919" transform="translate(159.041125 107.182649) scale(0.07 -0.07)">
       <use xlink:href="#Roboto-Regular-38"/>
      </g>
     </g>
    </g>
    <g id="ytick_17">
     <g id="line2d_25">
      <g>
       <use xlink:href="#mf0a2bdceb4" x="169.975344" y="72.228371" style="fill: #c2c1c1; stroke: #c2c1c1; stroke-width: 0.8"/>
      </g>
     </g>
     <g id="text_19">
      <!-- 10 -->
      <g style="fill: #191919" transform="translate(155.106907 74.853371) scale(0.07 -0.07)">
       <use xlink:href="#Roboto-Regular-31"/>
       <use xlink:href="#Roboto-Regular-30" x="56.201172"/>
      </g>
     </g>
    </g>
    <g id="ytick_18">
     <g id="line2d_26">
      <g>
       <use xlink:href="#mf0a2bdceb4" x="169.975344" y="39.899094" style="fill: #c2c1c1; stroke: #c2c1c1; stroke-width: 0.8"/>
      </g>
     </g>
     <g id="text_20">
      <!-- 12 -->
      <g style="fill: #191919" transform="translate(155.106907 42.524094) scale(0.07 -0.07)">
       <use xlink:href="#Roboto-Regular-31"/>
       <use xlink:href="#Roboto-Regular-32" x="56.201172"/>
      </g>
     </g>
    </g>
    <g id="ytick_19">
     <g id="line2d_27">
      <g>
       <use xlink:href="#mf0a2bdceb4" x="169.975344" y="7.569816" style="fill: #c2c1c1; stroke: #c2c1c1; stroke-width: 0.8"/>
      </g>
     </g>
     <g id="text_21">
      <!-- 14 -->
      <g style="fill: #191919" transform="translate(155.106907 10.194816) scale(0.07 -0.07)">
       <use xlink:href="#Roboto-Regular-31"/>
       <use xlink:href="#Roboto-Regular-34" x="56.201172"/>
      </g>
     </g>
    </g>
    <g id="ytick_20">
     <g id="line2d_28">
      <g>
       <use xlink:href="#m2e26c6f0fe" x="169.975344" y="217.710121" style="fill: #c2c1c1; stroke: #c2c1c1; stroke-width: 0.6"/>
      </g>
     </g>
    </g>
    <g id="ytick_21">
     <g id="line2d_29">
      <g>
       <use xlink:href="#m2e26c6f0fe" x="169.975344" y="185.380843" style="fill: #c2c1c1; stroke: #c2c1c1; stroke-width: 0.6"/>
      </g>
     </g>
    </g>
    <g id="ytick_22">
     <g id="line2d_30">
      <g>
       <use xlink:href="#m2e26c6f0fe" x="169.975344" y="153.051566" style="fill: #c2c1c1; stroke: #c2c1c1; stroke-width: 0.6"/>
      </g>
     </g>
    </g>
    <g id="ytick_23">
     <g id="line2d_31">
      <g>
       <use xlink:href="#m2e26c6f0fe" x="169.975344" y="120.722288" style="fill: #c2c1c1; stroke: #c2c1c1; stroke-width: 0.6"/>
      </g>
     </g>
    </g>
    <g id="ytick_24">
     <g id="line2d_32">
      <g>
       <use xlink:href="#m2e26c6f0fe" x="169.975344" y="88.39301" style="fill: #c2c1c1; stroke: #c2c1c1; stroke-width: 0.6"/>
      </g>
     </g>
    </g>
    <g id="ytick_25">
     <g id="line2d_33">
      <g>
       <use xlink:href="#m2e26c6f0fe" x="169.975344" y="56.063733" style="fill: #c2c1c1; stroke: #c2c1c1; stroke-width: 0.6"/>
      </g>
     </g>
    </g>
    <g id="ytick_26">
     <g id="line2d_34">
      <g>
       <use xlink:href="#m2e26c6f0fe" x="169.975344" y="23.734455" style="fill: #c2c1c1; stroke: #c2c1c1; stroke-width: 0.6"/>
      </g>
     </g>
    </g>
   </g>
   <g id="line2d_35">
    <path d="M 169.975344 188.909389 
L 178.698989 189.040073 
L 187.422633 186.483574 
L 196.146278 148.13127 
L 204.869923 149.21104 
L 213.593567 122.672089 
L 222.317212 119.494244 
L 231.040857 114.756181 
L 239.764501 118.218288 
L 248.488146 103.977512 
L 257.21179 68.404135 
L 265.935435 38.893057 
L 274.65908 45.360689 
L 283.382724 13.994265 
" clip-path="url(#pe4a8a251a8)" style="fill: none; stroke: #ffb5ba; stroke-width: 1.5; stroke-linecap: square"/>
    <g clip-path="url(#pe4a8a251a8)">
     <use xlink:href="#m5f5f7a58b4" x="169.975344" y="188.909389" style="fill: #ffb5ba"/>
     <use xlink:href="#m5f5f7a58b4" x="178.698989" y="189.040073" style="fill: #ffb5ba"/>
     <use xlink:href="#m5f5f7a58b4" x="187.422633" y="186.483574" style="fill: #ffb5ba"/>
     <use xlink:href="#m5f5f7a58b4" x="196.146278" y="148.13127" style="fill: #ffb5ba"/>
     <use xlink:href="#m5f5f7a58b4" x="204.869923" y="149.21104" style="fill: #ffb5ba"/>
     <use xlink:href="#m5f5f7a58b4" x="213.593567" y="122.672089" style="fill: #ffb5ba"/>
     <use xlink:href="#m5f5f7a58b4" x="222.317212" y="119.494244" style="fill: #ffb5ba"/>
     <use xlink:href="#m5f5f7a58b4" x="231.040857" y="114.756181" style="fill: #ffb5ba"/>
     <use xlink:href="#m5f5f7a58b4" x="239.764501" y="118.218288" style="fill: #ffb5ba"/>
     <use xlink:href="#m5f5f7a58b4" x="248.488146" y="103.977512" style="fill: #ffb5ba"/>
     <use xlink:href="#m5f5f7a58b4" x="257.21179" y="68.404135" style="fill: #ffb5ba"/>
     <use xlink:href="#m5f5f7a58b4" x="265.935435" y="38.893057" style="fill: #ffb5ba"/>
     <use xlink:href="#m5f5f7a58b4" x="274.65908" y="45.360689" style="fill: #ffb5ba"/>
     <use xlink:href="#m5f5f7a58b4" x="283.382724" y="13.994265" style="fill: #ffb5ba"/>
    </g>
   </g>
   <g id="patch_8">
    <path d="M 169.975344 233.87476 
L 169.975344 3.00024 
" style="fill: none; stroke: #c2c1c1; stroke-width: 0.8; stroke-linejoin: miter; stroke-linecap: square"/>
   </g>
   <g id="patch_9">
    <path d="M 289.053093 233.87476 
L 289.053093 3.00024 
" style="fill: none; stroke: #c2c1c1; stroke-width: 0.8; stroke-linejoin: miter; stroke-linecap: square"/>
   </g>
   <g id="patch_10">
    <path d="M 169.975344 233.87476 
L 289.053093 233.87476 
" style="fill: none; stroke: #c2c1c1; stroke-width: 0.8; stroke-linejoin: miter; stroke-linecap: square"/>
   </g>
   <g id="patch_11">
    <path d="M 169.975344 3.00024 
L 289.053093 3.00024 
" style="fill: none; stroke: #c2c1c1; stroke-width: 0.8; stroke-linejoin: miter; stroke-linecap: square"/>
   </g>
   <g id="text_22">
    <!-- B -->
    <g transform="translate(178.429864 15.698339) scale(0.096 -0.096)">
     <defs>
      <path id="Roboto-Bold-42" d="M 3788 1341 
Q 3788 684 3369 345 
Q 2950 6 2175 0 
L 406 0 
L 406 4550 
L 2003 4550 
Q 2794 4550 3241 4247 
Q 3688 3944 3688 3306 
Q 3688 2997 3531 2737 
Q 3375 2478 3038 2344 
Q 3438 2244 3613 1956 
Q 3788 1669 3788 1341 
z
M 1347 3791 
L 1347 2647 
L 2003 2647 
Q 2747 2647 2747 3209 
Q 2747 3778 2034 3791 
L 1347 3791 
z
M 2850 1350 
Q 2850 1963 2231 1984 
L 1347 1984 
L 1347 756 
L 2147 756 
Q 2506 756 2678 925 
Q 2850 1094 2850 1350 
z
" transform="scale(0.015625)"/>
     </defs>
     <use xlink:href="#Roboto-Bold-42"/>
    </g>
   </g>
  </g>
  <g id="axes_3">
   <g id="patch_12">
    <path d="M 309.922011 233.87476 
L 428.99976 233.87476 
L 428.99976 3.00024 
L 309.922011 3.00024 
z
" style="fill: #ffffff"/>
   </g>
   <g id="line2d_36">
    <path d="M 309.922011 233.87476 
L 328.823241 205.318899 
L 347.724471 173.132844 
L 366.625701 133.236434 
L 385.526931 100.865744 
L 404.428161 76.373922 
L 423.329391 24.356844 
" clip-path="url(#p9aae7dc995)" style="fill: none; stroke-dasharray: 5.55,2.4; stroke-dashoffset: 0; stroke: #c0c0c0; stroke-width: 1.5"/>
    <g clip-path="url(#p9aae7dc995)">
     <use xlink:href="#m5e5d7f8d53" x="309.922011" y="233.87476" style="fill: #c0c0c0"/>
     <use xlink:href="#m5e5d7f8d53" x="328.823241" y="205.318899" style="fill: #c0c0c0"/>
     <use xlink:href="#m5e5d7f8d53" x="347.724471" y="173.132844" style="fill: #c0c0c0"/>
     <use xlink:href="#m5e5d7f8d53" x="366.625701" y="133.236434" style="fill: #c0c0c0"/>
     <use xlink:href="#m5e5d7f8d53" x="385.526931" y="100.865744" style="fill: #c0c0c0"/>
     <use xlink:href="#m5e5d7f8d53" x="404.428161" y="76.373922" style="fill: #c0c0c0"/>
     <use xlink:href="#m5e5d7f8d53" x="423.329391" y="24.356844" style="fill: #c0c0c0"/>
    </g>
   </g>
   <g id="line2d_37">
    <path d="M 309.922011 207.302794 
L 328.823241 186.850081 
L 347.724471 159.9413 
L 366.625701 125.886687 
L 385.526931 98.713493 
L 404.428161 73.981493 
L 423.329391 23.499055 
" clip-path="url(#p9aae7dc995)" style="fill: none; stroke-dasharray: 5.55,2.4; stroke-dashoffset: 0; stroke: #ffe1e3; stroke-width: 1.5"/>
    <g clip-path="url(#p9aae7dc995)">
     <use xlink:href="#mc8ff6296c0" x="309.922011" y="207.302794" style="fill: #ffe1e3"/>
     <use xlink:href="#mc8ff6296c0" x="328.823241" y="186.850081" style="fill: #ffe1e3"/>
     <use xlink:href="#mc8ff6296c0" x="347.724471" y="159.9413" style="fill: #ffe1e3"/>
     <use xlink:href="#mc8ff6296c0" x="366.625701" y="125.886687" style="fill: #ffe1e3"/>
     <use xlink:href="#mc8ff6296c0" x="385.526931" y="98.713493" style="fill: #ffe1e3"/>
     <use xlink:href="#mc8ff6296c0" x="404.428161" y="73.981493" style="fill: #ffe1e3"/>
     <use xlink:href="#mc8ff6296c0" x="423.329391" y="23.499055" style="fill: #ffe1e3"/>
    </g>
   </g>
   <g id="matplotlib.axis_5">
    <g id="text_23">
     <!-- 6mer Isomers -->
     <g style="fill: #191919" transform="translate(344.449635 247.37476) scale(0.08 -0.08)">
      <defs>
       <path id="Roboto-Bold-36" d="M 3450 1500 
Q 3450 838 3033 387 
Q 2616 -63 1916 -63 
Q 1188 -63 752 443 
Q 316 950 316 1750 
L 316 2097 
Q 316 3200 925 3898 
Q 1534 4597 2634 4597 
L 2763 4597 
L 2763 3853 
L 2672 3853 
Q 2050 3844 1688 3538 
Q 1313 3219 1238 2675 
Q 1603 3047 2156 3047 
Q 2800 3047 3125 2589 
Q 3450 2131 3450 1500 
z
M 1219 1631 
Q 1219 1150 1408 909 
Q 1597 669 1900 669 
Q 2194 669 2370 901 
Q 2547 1134 2547 1491 
Q 2547 1853 2370 2087 
Q 2194 2322 1881 2322 
Q 1641 2322 1469 2198 
Q 1297 2075 1219 1903 
L 1219 1631 
z
" transform="scale(0.015625)"/>
      </defs>
      <use xlink:href="#Roboto-Bold-36"/>
      <use xlink:href="#Roboto-Bold-6d" x="57.373047"/>
      <use xlink:href="#Roboto-Bold-65" x="143.945312"/>
      <use xlink:href="#Roboto-Bold-72" x="197.998047"/>
      <use xlink:href="#Roboto-Bold-20" x="234.521484"/>
      <use xlink:href="#Roboto-Bold-49" x="259.423828"/>
      <use xlink:href="#Roboto-Bold-73" x="288.623047"/>
      <use xlink:href="#Roboto-Bold-6f" x="340.087891"/>
      <use xlink:href="#Roboto-Bold-6d" x="396.630859"/>
      <use xlink:href="#Roboto-Bold-65" x="483.203125"/>
      <use xlink:href="#Roboto-Bold-72" x="537.255859"/>
      <use xlink:href="#Roboto-Bold-73" x="573.779297"/>
     </g>
    </g>
   </g>
   <g id="matplotlib.axis_6">
    <g id="ytick_27">
     <g id="line2d_38">
      <g>
       <use xlink:href="#mf0a2bdceb4" x="309.922011" y="233.87476" style="fill: #c2c1c1; stroke: #c2c1c1; stroke-width: 0.8"/>
      </g>
     </g>
     <g id="text_24">
      <!-- 0 -->
      <g style="fill: #191919" transform="translate(298.987792 236.49976) scale(0.07 -0.07)">
       <use xlink:href="#Roboto-Regular-30"/>
      </g>
     </g>
    </g>
    <g id="ytick_28">
     <g id="line2d_39">
      <g>
       <use xlink:href="#mf0a2bdceb4" x="309.922011" y="206.218626" style="fill: #c2c1c1; stroke: #c2c1c1; stroke-width: 0.8"/>
      </g>
     </g>
     <g id="text_25">
      <!-- 2 -->
      <g style="fill: #191919" transform="translate(298.987792 208.843626) scale(0.07 -0.07)">
       <use xlink:href="#Roboto-Regular-32"/>
      </g>
     </g>
    </g>
    <g id="ytick_29">
     <g id="line2d_40">
      <g>
       <use xlink:href="#mf0a2bdceb4" x="309.922011" y="178.562492" style="fill: #c2c1c1; stroke: #c2c1c1; stroke-width: 0.8"/>
      </g>
     </g>
     <g id="text_26">
      <!-- 4 -->
      <g style="fill: #191919" transform="translate(298.987792 181.187492) scale(0.07 -0.07)">
       <use xlink:href="#Roboto-Regular-34"/>
      </g>
     </g>
    </g>
    <g id="ytick_30">
     <g id="line2d_41">
      <g>
       <use xlink:href="#mf0a2bdceb4" x="309.922011" y="150.906358" style="fill: #c2c1c1; stroke: #c2c1c1; stroke-width: 0.8"/>
      </g>
     </g>
     <g id="text_27">
      <!-- 6 -->
      <g style="fill: #191919" transform="translate(298.987792 153.531358) scale(0.07 -0.07)">
       <use xlink:href="#Roboto-Regular-36"/>
      </g>
     </g>
    </g>
    <g id="ytick_31">
     <g id="line2d_42">
      <g>
       <use xlink:href="#mf0a2bdceb4" x="309.922011" y="123.250224" style="fill: #c2c1c1; stroke: #c2c1c1; stroke-width: 0.8"/>
      </g>
     </g>
     <g id="text_28">
      <!-- 8 -->
      <g style="fill: #191919" transform="translate(298.987792 125.875224) scale(0.07 -0.07)">
       <use xlink:href="#Roboto-Regular-38"/>
      </g>
     </g>
    </g>
    <g id="ytick_32">
     <g id="line2d_43">
      <g>
       <use xlink:href="#mf0a2bdceb4" x="309.922011" y="95.59409" style="fill: #c2c1c1; stroke: #c2c1c1; stroke-width: 0.8"/>
      </g>
     </g>
     <g id="text_29">
      <!-- 10 -->
      <g style="fill: #191919" transform="translate(295.053573 98.21909) scale(0.07 -0.07)">
       <use xlink:href="#Roboto-Regular-31"/>
       <use xlink:href="#Roboto-Regular-30" x="56.201172"/>
      </g>
     </g>
    </g>
    <g id="ytick_33">
     <g id="line2d_44">
      <g>
       <use xlink:href="#mf0a2bdceb4" x="309.922011" y="67.937956" style="fill: #c2c1c1; stroke: #c2c1c1; stroke-width: 0.8"/>
      </g>
     </g>
     <g id="text_30">
      <!-- 12 -->
      <g style="fill: #191919" transform="translate(295.053573 70.562956) scale(0.07 -0.07)">
       <use xlink:href="#Roboto-Regular-31"/>
       <use xlink:href="#Roboto-Regular-32" x="56.201172"/>
      </g>
     </g>
    </g>
    <g id="ytick_34">
     <g id="line2d_45">
      <g>
       <use xlink:href="#mf0a2bdceb4" x="309.922011" y="40.281822" style="fill: #c2c1c1; stroke: #c2c1c1; stroke-width: 0.8"/>
      </g>
     </g>
     <g id="text_31">
      <!-- 14 -->
      <g style="fill: #191919" transform="translate(295.053573 42.906822) scale(0.07 -0.07)">
       <use xlink:href="#Roboto-Regular-31"/>
       <use xlink:href="#Roboto-Regular-34" x="56.201172"/>
      </g>
     </g>
    </g>
    <g id="ytick_35">
     <g id="line2d_46">
      <g>
       <use xlink:href="#mf0a2bdceb4" x="309.922011" y="12.625688" style="fill: #c2c1c1; stroke: #c2c1c1; stroke-width: 0.8"/>
      </g>
     </g>
     <g id="text_32">
      <!-- 16 -->
      <g style="fill: #191919" transform="translate(295.053573 15.250688) scale(0.07 -0.07)">
       <use xlink:href="#Roboto-Regular-31"/>
       <use xlink:href="#Roboto-Regular-36" x="56.201172"/>
      </g>
     </g>
    </g>
    <g id="ytick_36">
     <g id="line2d_47">
      <g>
       <use xlink:href="#m2e26c6f0fe" x="309.922011" y="220.046693" style="fill: #c2c1c1; stroke: #c2c1c1; stroke-width: 0.6"/>
      </g>
     </g>
    </g>
    <g id="ytick_37">
     <g id="line2d_48">
      <g>
       <use xlink:href="#m2e26c6f0fe" x="309.922011" y="192.390559" style="fill: #c2c1c1; stroke: #c2c1c1; stroke-width: 0.6"/>
      </g>
     </g>
    </g>
    <g id="ytick_38">
     <g id="line2d_49">
      <g>
       <use xlink:href="#m2e26c6f0fe" x="309.922011" y="164.734425" style="fill: #c2c1c1; stroke: #c2c1c1; stroke-width: 0.6"/>
      </g>
     </g>
    </g>
    <g id="ytick_39">
     <g id="line2d_50">
      <g>
       <use xlink:href="#m2e26c6f0fe" x="309.922011" y="137.078291" style="fill: #c2c1c1; stroke: #c2c1c1; stroke-width: 0.6"/>
      </g>
     </g>
    </g>
    <g id="ytick_40">
     <g id="line2d_51">
      <g>
       <use xlink:href="#m2e26c6f0fe" x="309.922011" y="109.422157" style="fill: #c2c1c1; stroke: #c2c1c1; stroke-width: 0.6"/>
      </g>
     </g>
    </g>
    <g id="ytick_41">
     <g id="line2d_52">
      <g>
       <use xlink:href="#m2e26c6f0fe" x="309.922011" y="81.766023" style="fill: #c2c1c1; stroke: #c2c1c1; stroke-width: 0.6"/>
      </g>
     </g>
    </g>
    <g id="ytick_42">
     <g id="line2d_53">
      <g>
       <use xlink:href="#m2e26c6f0fe" x="309.922011" y="54.109889" style="fill: #c2c1c1; stroke: #c2c1c1; stroke-width: 0.6"/>
      </g>
     </g>
    </g>
    <g id="ytick_43">
     <g id="line2d_54">
      <g>
       <use xlink:href="#m2e26c6f0fe" x="309.922011" y="26.453755" style="fill: #c2c1c1; stroke: #c2c1c1; stroke-width: 0.6"/>
      </g>
     </g>
    </g>
   </g>
   <g id="line2d_55">
    <path d="M 309.922011 179.954558 
L 328.823241 166.310064 
L 347.724471 144.802895 
L 366.625701 108.447809 
L 385.526931 74.700153 
L 404.428161 56.731641 
L 423.329391 13.994265 
" clip-path="url(#p9aae7dc995)" style="fill: none; stroke: #ffb5ba; stroke-width: 1.5; stroke-linecap: square"/>
    <g clip-path="url(#p9aae7dc995)">
     <use xlink:href="#m5f5f7a58b4" x="309.922011" y="179.954558" style="fill: #ffb5ba"/>
     <use xlink:href="#m5f5f7a58b4" x="328.823241" y="166.310064" style="fill: #ffb5ba"/>
     <use xlink:href="#m5f5f7a58b4" x="347.724471" y="144.802895" style="fill: #ffb5ba"/>
     <use xlink:href="#m5f5f7a58b4" x="366.625701" y="108.447809" style="fill: #ffb5ba"/>
     <use xlink:href="#m5f5f7a58b4" x="385.526931" y="74.700153" style="fill: #ffb5ba"/>
     <use xlink:href="#m5f5f7a58b4" x="404.428161" y="56.731641" style="fill: #ffb5ba"/>
     <use xlink:href="#m5f5f7a58b4" x="423.329391" y="13.994265" style="fill: #ffb5ba"/>
    </g>
   </g>
   <g id="patch_13">
    <path d="M 309.922011 233.87476 
L 309.922011 3.00024 
" style="fill: none; stroke: #c2c1c1; stroke-width: 0.8; stroke-linejoin: miter; stroke-linecap: square"/>
   </g>
   <g id="patch_14">
    <path d="M 428.99976 233.87476 
L 428.99976 3.00024 
" style="fill: none; stroke: #c2c1c1; stroke-width: 0.8; stroke-linejoin: miter; stroke-linecap: square"/>
   </g>
   <g id="patch_15">
    <path d="M 309.922011 233.87476 
L 428.99976 233.87476 
" style="fill: none; stroke: #c2c1c1; stroke-width: 0.8; stroke-linejoin: miter; stroke-linecap: square"/>
   </g>
   <g id="patch_16">
    <path d="M 309.922011 3.00024 
L 428.99976 3.00024 
" style="fill: none; stroke: #c2c1c1; stroke-width: 0.8; stroke-linejoin: miter; stroke-linecap: square"/>
   </g>
   <g id="text_33">
    <!-- C -->
    <g transform="translate(318.376531 15.698339) scale(0.096 -0.096)">
     <defs>
      <path id="Roboto-Bold-43" d="M 3044 1516 
L 3981 1516 
Q 3934 822 3461 379 
Q 2988 -63 2150 -63 
Q 1275 -63 772 526 
Q 269 1116 269 2125 
L 269 2422 
Q 269 3431 784 4023 
Q 1300 4616 2159 4616 
Q 3013 4616 3466 4161 
Q 3919 3706 3984 3006 
L 3047 3006 
Q 3016 3413 2820 3630 
Q 2625 3847 2159 3847 
Q 1247 3847 1222 2500 
L 1222 2125 
Q 1222 1419 1436 1062 
Q 1650 706 2150 706 
Q 2594 706 2801 907 
Q 3009 1109 3044 1516 
z
" transform="scale(0.015625)"/>
     </defs>
     <use xlink:href="#Roboto-Bold-43"/>
    </g>
   </g>
  </g>
 </g>
 <defs>
  <clipPath id="p1e7832f243">
   <rect x="30.028678" y="3.00024" width="119.077749" height="230.87452"/>
  </clipPath>
  <clipPath id="pe4a8a251a8">
   <rect x="169.975344" y="3.00024" width="119.077749" height="230.87452"/>
  </clipPath>
  <clipPath id="p9aae7dc995">
   <rect x="309.922011" y="3.00024" width="119.077749" height="230.87452"/>
  </clipPath>
 </defs>
</svg>
