<?xml version="1.0" encoding="utf-8" standalone="no"?>
<!DOCTYPE svg PUBLIC "-//W3C//DTD SVG 1.1//EN"
  "http://www.w3.org/Graphics/SVG/1.1/DTD/svg11.dtd">
<svg xmlns:xlink="http://www.w3.org/1999/xlink" width="432pt" height="252pt" viewBox="0 0 432 252" xmlns="http://www.w3.org/2000/svg" version="1.1">
 <metadata>
  <rdf:RDF xmlns:dc="http://purl.org/dc/elements/1.1/" xmlns:cc="http://creativecommons.org/ns#" xmlns:rdf="http://www.w3.org/1999/02/22-rdf-syntax-ns#">
   <cc:Work>
    <dc:type rdf:resource="http://purl.org/dc/dcmitype/StillImage"/>
    <dc:date>2022-09-24T16:50:38.822822</dc:date>
    <dc:format>image/svg+xml</dc:format>
    <dc:creator>
     <cc:Agent>
      <dc:title>Matplotlib v3.5.1, https://matplotlib.org/</dc:title>
     </cc:Agent>
    </dc:creator>
   </cc:Work>
  </rdf:RDF>
 </metadata>
 <defs>
  <style type="text/css">*{stroke-linejoin: round; stroke-linecap: butt}</style>
 </defs>
 <g id="figure_1">
  <g id="patch_1">
   <path d="M 0 252 
L 432 252 
L 432 0 
L 0 0 
z
" style="fill: #ffffff"/>
  </g>
  <g id="axes_1">
   <g id="patch_2">
    <path d="M 26.83274 237.25726 
L 148.828093 237.25726 
L 148.828093 3.00024 
L 26.83274 3.00024 
z
" style="fill: #ffffff"/>
   </g>
   <g id="line2d_1">
    <path d="M 26.83274 223.789836 
L 50.06995 210.838231 
L 73.30716 209.764898 
L 96.54437 71.405506 
L 119.781581 30.629418 
L 143.018791 16.704539 
" clip-path="url(#pfec21dba60)" style="fill: none; stroke-dasharray: 5.55,2.4; stroke-dashoffset: 0; stroke: #c0c0c0; stroke-width: 1.5"/>
    <defs>
     <path id="m91344de5ad" d="M -2.5 2.5 
L 2.5 2.5 
L 2.5 -2.5 
L -2.5 -2.5 
z
"/>
    </defs>
    <g clip-path="url(#pfec21dba60)">
     <use xlink:href="#m91344de5ad" x="26.83274" y="223.789836" style="fill: #c0c0c0"/>
     <use xlink:href="#m91344de5ad" x="50.06995" y="210.838231" style="fill: #c0c0c0"/>
     <use xlink:href="#m91344de5ad" x="73.30716" y="209.764898" style="fill: #c0c0c0"/>
     <use xlink:href="#m91344de5ad" x="96.54437" y="71.405506" style="fill: #c0c0c0"/>
     <use xlink:href="#m91344de5ad" x="119.781581" y="30.629418" style="fill: #c0c0c0"/>
     <use xlink:href="#m91344de5ad" x="143.018791" y="16.704539" style="fill: #c0c0c0"/>
    </g>
   </g>
   <g id="line2d_2">
    <path d="M 26.83274 226.609214 
L 50.06995 209.52916 
L 73.30716 208.31352 
L 96.54437 71.479866 
L 119.781581 31.137901 
L 143.018791 13.648286 
" clip-path="url(#pfec21dba60)" style="fill: none; stroke-dasharray: 5.55,2.4; stroke-dashoffset: 0; stroke: #bfe5da; stroke-width: 1.5"/>
    <defs>
     <path id="ma25efe820c" d="M -2.5 2.5 
L 2.5 2.5 
L 2.5 -2.5 
L -2.5 -2.5 
z
"/>
    </defs>
    <g clip-path="url(#pfec21dba60)">
     <use xlink:href="#ma25efe820c" x="26.83274" y="226.609214" style="fill: #bfe5da"/>
     <use xlink:href="#ma25efe820c" x="50.06995" y="209.52916" style="fill: #bfe5da"/>
     <use xlink:href="#ma25efe820c" x="73.30716" y="208.31352" style="fill: #bfe5da"/>
     <use xlink:href="#ma25efe820c" x="96.54437" y="71.479866" style="fill: #bfe5da"/>
     <use xlink:href="#ma25efe820c" x="119.781581" y="31.137901" style="fill: #bfe5da"/>
     <use xlink:href="#ma25efe820c" x="143.018791" y="13.648286" style="fill: #bfe5da"/>
    </g>
   </g>
   <g id="matplotlib.axis_1">
    <g id="text_1">
     <!-- 4mer Isomers -->
     <g transform="translate(60.215417 247.33601)scale(0.08 -0.08)">
      <defs>
       <path id="DejaVuSans-34" d="M 2419 4116 
L 825 1625 
L 2419 1625 
L 2419 4116 
z
M 2253 4666 
L 3047 4666 
L 3047 1625 
L 3713 1625 
L 3713 1100 
L 3047 1100 
L 3047 0 
L 2419 0 
L 2419 1100 
L 313 1100 
L 313 1709 
L 2253 4666 
z
" transform="scale(0.015625)"/>
       <path id="DejaVuSans-6d" d="M 3328 2828 
Q 3544 3216 3844 3400 
Q 4144 3584 4550 3584 
Q 5097 3584 5394 3201 
Q 5691 2819 5691 2113 
L 5691 0 
L 5113 0 
L 5113 2094 
Q 5113 2597 4934 2840 
Q 4756 3084 4391 3084 
Q 3944 3084 3684 2787 
Q 3425 2491 3425 1978 
L 3425 0 
L 2847 0 
L 2847 2094 
Q 2847 2600 2669 2842 
Q 2491 3084 2119 3084 
Q 1678 3084 1418 2786 
Q 1159 2488 1159 1978 
L 1159 0 
L 581 0 
L 581 3500 
L 1159 3500 
L 1159 2956 
Q 1356 3278 1631 3431 
Q 1906 3584 2284 3584 
Q 2666 3584 2933 3390 
Q 3200 3197 3328 2828 
z
" transform="scale(0.015625)"/>
       <path id="DejaVuSans-65" d="M 3597 1894 
L 3597 1613 
L 953 1613 
Q 991 1019 1311 708 
Q 1631 397 2203 397 
Q 2534 397 2845 478 
Q 3156 559 3463 722 
L 3463 178 
Q 3153 47 2828 -22 
Q 2503 -91 2169 -91 
Q 1331 -91 842 396 
Q 353 884 353 1716 
Q 353 2575 817 3079 
Q 1281 3584 2069 3584 
Q 2775 3584 3186 3129 
Q 3597 2675 3597 1894 
z
M 3022 2063 
Q 3016 2534 2758 2815 
Q 2500 3097 2075 3097 
Q 1594 3097 1305 2825 
Q 1016 2553 972 2059 
L 3022 2063 
z
" transform="scale(0.015625)"/>
       <path id="DejaVuSans-72" d="M 2631 2963 
Q 2534 3019 2420 3045 
Q 2306 3072 2169 3072 
Q 1681 3072 1420 2755 
Q 1159 2438 1159 1844 
L 1159 0 
L 581 0 
L 581 3500 
L 1159 3500 
L 1159 2956 
Q 1341 3275 1631 3429 
Q 1922 3584 2338 3584 
Q 2397 3584 2469 3576 
Q 2541 3569 2628 3553 
L 2631 2963 
z
" transform="scale(0.015625)"/>
       <path id="DejaVuSans-20" transform="scale(0.015625)"/>
       <path id="DejaVuSans-49" d="M 628 4666 
L 1259 4666 
L 1259 0 
L 628 0 
L 628 4666 
z
" transform="scale(0.015625)"/>
       <path id="DejaVuSans-73" d="M 2834 3397 
L 2834 2853 
Q 2591 2978 2328 3040 
Q 2066 3103 1784 3103 
Q 1356 3103 1142 2972 
Q 928 2841 928 2578 
Q 928 2378 1081 2264 
Q 1234 2150 1697 2047 
L 1894 2003 
Q 2506 1872 2764 1633 
Q 3022 1394 3022 966 
Q 3022 478 2636 193 
Q 2250 -91 1575 -91 
Q 1294 -91 989 -36 
Q 684 19 347 128 
L 347 722 
Q 666 556 975 473 
Q 1284 391 1588 391 
Q 1994 391 2212 530 
Q 2431 669 2431 922 
Q 2431 1156 2273 1281 
Q 2116 1406 1581 1522 
L 1381 1569 
Q 847 1681 609 1914 
Q 372 2147 372 2553 
Q 372 3047 722 3315 
Q 1072 3584 1716 3584 
Q 2034 3584 2315 3537 
Q 2597 3491 2834 3397 
z
" transform="scale(0.015625)"/>
       <path id="DejaVuSans-6f" d="M 1959 3097 
Q 1497 3097 1228 2736 
Q 959 2375 959 1747 
Q 959 1119 1226 758 
Q 1494 397 1959 397 
Q 2419 397 2687 759 
Q 2956 1122 2956 1747 
Q 2956 2369 2687 2733 
Q 2419 3097 1959 3097 
z
M 1959 3584 
Q 2709 3584 3137 3096 
Q 3566 2609 3566 1747 
Q 3566 888 3137 398 
Q 2709 -91 1959 -91 
Q 1206 -91 779 398 
Q 353 888 353 1747 
Q 353 2609 779 3096 
Q 1206 3584 1959 3584 
z
" transform="scale(0.015625)"/>
      </defs>
      <use xlink:href="#DejaVuSans-34"/>
      <use xlink:href="#DejaVuSans-6d" x="63.623047"/>
      <use xlink:href="#DejaVuSans-65" x="161.035156"/>
      <use xlink:href="#DejaVuSans-72" x="222.558594"/>
      <use xlink:href="#DejaVuSans-20" x="263.671875"/>
      <use xlink:href="#DejaVuSans-49" x="295.458984"/>
      <use xlink:href="#DejaVuSans-73" x="324.951172"/>
      <use xlink:href="#DejaVuSans-6f" x="377.050781"/>
      <use xlink:href="#DejaVuSans-6d" x="438.232422"/>
      <use xlink:href="#DejaVuSans-65" x="535.644531"/>
      <use xlink:href="#DejaVuSans-72" x="597.167969"/>
      <use xlink:href="#DejaVuSans-73" x="638.28125"/>
     </g>
    </g>
   </g>
   <g id="matplotlib.axis_2">
    <g id="ytick_1">
     <g id="line2d_3">
      <defs>
       <path id="mcb0303604e" d="M 0 0 
L -3.5 0 
" style="stroke: #000000; stroke-width: 0.8"/>
      </defs>
      <g>
       <use xlink:href="#mcb0303604e" x="26.83274" y="223.789836" style="stroke: #000000; stroke-width: 0.8"/>
      </g>
     </g>
     <g id="text_2">
      <!-- 0 -->
      <g transform="translate(14.74274 226.829211)scale(0.08 -0.08)">
       <defs>
        <path id="DejaVuSans-30" d="M 2034 4250 
Q 1547 4250 1301 3770 
Q 1056 3291 1056 2328 
Q 1056 1369 1301 889 
Q 1547 409 2034 409 
Q 2525 409 2770 889 
Q 3016 1369 3016 2328 
Q 3016 3291 2770 3770 
Q 2525 4250 2034 4250 
z
M 2034 4750 
Q 2819 4750 3233 4129 
Q 3647 3509 3647 2328 
Q 3647 1150 3233 529 
Q 2819 -91 2034 -91 
Q 1250 -91 836 529 
Q 422 1150 422 2328 
Q 422 3509 836 4129 
Q 1250 4750 2034 4750 
z
" transform="scale(0.015625)"/>
       </defs>
       <use xlink:href="#DejaVuSans-30"/>
      </g>
     </g>
    </g>
    <g id="ytick_2">
     <g id="line2d_4">
      <g>
       <use xlink:href="#mcb0303604e" x="26.83274" y="193.090119" style="stroke: #000000; stroke-width: 0.8"/>
      </g>
     </g>
     <g id="text_3">
      <!-- 1 -->
      <g transform="translate(14.74274 196.129494)scale(0.08 -0.08)">
       <defs>
        <path id="DejaVuSans-31" d="M 794 531 
L 1825 531 
L 1825 4091 
L 703 3866 
L 703 4441 
L 1819 4666 
L 2450 4666 
L 2450 531 
L 3481 531 
L 3481 0 
L 794 0 
L 794 531 
z
" transform="scale(0.015625)"/>
       </defs>
       <use xlink:href="#DejaVuSans-31"/>
      </g>
     </g>
    </g>
    <g id="ytick_3">
     <g id="line2d_5">
      <g>
       <use xlink:href="#mcb0303604e" x="26.83274" y="162.390402" style="stroke: #000000; stroke-width: 0.8"/>
      </g>
     </g>
     <g id="text_4">
      <!-- 2 -->
      <g transform="translate(14.74274 165.429777)scale(0.08 -0.08)">
       <defs>
        <path id="DejaVuSans-32" d="M 1228 531 
L 3431 531 
L 3431 0 
L 469 0 
L 469 531 
Q 828 903 1448 1529 
Q 2069 2156 2228 2338 
Q 2531 2678 2651 2914 
Q 2772 3150 2772 3378 
Q 2772 3750 2511 3984 
Q 2250 4219 1831 4219 
Q 1534 4219 1204 4116 
Q 875 4013 500 3803 
L 500 4441 
Q 881 4594 1212 4672 
Q 1544 4750 1819 4750 
Q 2544 4750 2975 4387 
Q 3406 4025 3406 3419 
Q 3406 3131 3298 2873 
Q 3191 2616 2906 2266 
Q 2828 2175 2409 1742 
Q 1991 1309 1228 531 
z
" transform="scale(0.015625)"/>
       </defs>
       <use xlink:href="#DejaVuSans-32"/>
      </g>
     </g>
    </g>
    <g id="ytick_4">
     <g id="line2d_6">
      <g>
       <use xlink:href="#mcb0303604e" x="26.83274" y="131.690685" style="stroke: #000000; stroke-width: 0.8"/>
      </g>
     </g>
     <g id="text_5">
      <!-- 3 -->
      <g transform="translate(14.74274 134.73006)scale(0.08 -0.08)">
       <defs>
        <path id="DejaVuSans-33" d="M 2597 2516 
Q 3050 2419 3304 2112 
Q 3559 1806 3559 1356 
Q 3559 666 3084 287 
Q 2609 -91 1734 -91 
Q 1441 -91 1130 -33 
Q 819 25 488 141 
L 488 750 
Q 750 597 1062 519 
Q 1375 441 1716 441 
Q 2309 441 2620 675 
Q 2931 909 2931 1356 
Q 2931 1769 2642 2001 
Q 2353 2234 1838 2234 
L 1294 2234 
L 1294 2753 
L 1863 2753 
Q 2328 2753 2575 2939 
Q 2822 3125 2822 3475 
Q 2822 3834 2567 4026 
Q 2313 4219 1838 4219 
Q 1578 4219 1281 4162 
Q 984 4106 628 3988 
L 628 4550 
Q 988 4650 1302 4700 
Q 1616 4750 1894 4750 
Q 2613 4750 3031 4423 
Q 3450 4097 3450 3541 
Q 3450 3153 3228 2886 
Q 3006 2619 2597 2516 
z
" transform="scale(0.015625)"/>
       </defs>
       <use xlink:href="#DejaVuSans-33"/>
      </g>
     </g>
    </g>
    <g id="ytick_5">
     <g id="line2d_7">
      <g>
       <use xlink:href="#mcb0303604e" x="26.83274" y="100.990968" style="stroke: #000000; stroke-width: 0.8"/>
      </g>
     </g>
     <g id="text_6">
      <!-- 4 -->
      <g transform="translate(14.74274 104.030343)scale(0.08 -0.08)">
       <use xlink:href="#DejaVuSans-34"/>
      </g>
     </g>
    </g>
    <g id="ytick_6">
     <g id="line2d_8">
      <g>
       <use xlink:href="#mcb0303604e" x="26.83274" y="70.291251" style="stroke: #000000; stroke-width: 0.8"/>
      </g>
     </g>
     <g id="text_7">
      <!-- 5 -->
      <g transform="translate(14.74274 73.330626)scale(0.08 -0.08)">
       <defs>
        <path id="DejaVuSans-35" d="M 691 4666 
L 3169 4666 
L 3169 4134 
L 1269 4134 
L 1269 2991 
Q 1406 3038 1543 3061 
Q 1681 3084 1819 3084 
Q 2600 3084 3056 2656 
Q 3513 2228 3513 1497 
Q 3513 744 3044 326 
Q 2575 -91 1722 -91 
Q 1428 -91 1123 -41 
Q 819 9 494 109 
L 494 744 
Q 775 591 1075 516 
Q 1375 441 1709 441 
Q 2250 441 2565 725 
Q 2881 1009 2881 1497 
Q 2881 1984 2565 2268 
Q 2250 2553 1709 2553 
Q 1456 2553 1204 2497 
Q 953 2441 691 2322 
L 691 4666 
z
" transform="scale(0.015625)"/>
       </defs>
       <use xlink:href="#DejaVuSans-35"/>
      </g>
     </g>
    </g>
    <g id="ytick_7">
     <g id="line2d_9">
      <g>
       <use xlink:href="#mcb0303604e" x="26.83274" y="39.591534" style="stroke: #000000; stroke-width: 0.8"/>
      </g>
     </g>
     <g id="text_8">
      <!-- 6 -->
      <g transform="translate(14.74274 42.630909)scale(0.08 -0.08)">
       <defs>
        <path id="DejaVuSans-36" d="M 2113 2584 
Q 1688 2584 1439 2293 
Q 1191 2003 1191 1497 
Q 1191 994 1439 701 
Q 1688 409 2113 409 
Q 2538 409 2786 701 
Q 3034 994 3034 1497 
Q 3034 2003 2786 2293 
Q 2538 2584 2113 2584 
z
M 3366 4563 
L 3366 3988 
Q 3128 4100 2886 4159 
Q 2644 4219 2406 4219 
Q 1781 4219 1451 3797 
Q 1122 3375 1075 2522 
Q 1259 2794 1537 2939 
Q 1816 3084 2150 3084 
Q 2853 3084 3261 2657 
Q 3669 2231 3669 1497 
Q 3669 778 3244 343 
Q 2819 -91 2113 -91 
Q 1303 -91 875 529 
Q 447 1150 447 2328 
Q 447 3434 972 4092 
Q 1497 4750 2381 4750 
Q 2619 4750 2861 4703 
Q 3103 4656 3366 4563 
z
" transform="scale(0.015625)"/>
       </defs>
       <use xlink:href="#DejaVuSans-36"/>
      </g>
     </g>
    </g>
    <g id="ytick_8">
     <g id="line2d_10">
      <g>
       <use xlink:href="#mcb0303604e" x="26.83274" y="8.891817" style="stroke: #000000; stroke-width: 0.8"/>
      </g>
     </g>
     <g id="text_9">
      <!-- 7 -->
      <g transform="translate(14.74274 11.931192)scale(0.08 -0.08)">
       <defs>
        <path id="DejaVuSans-37" d="M 525 4666 
L 3525 4666 
L 3525 4397 
L 1831 0 
L 1172 0 
L 2766 4134 
L 525 4134 
L 525 4666 
z
" transform="scale(0.015625)"/>
       </defs>
       <use xlink:href="#DejaVuSans-37"/>
      </g>
     </g>
    </g>
    <g id="ytick_9">
     <g id="line2d_11">
      <defs>
       <path id="mc55523cc0d" d="M 0 0 
L -2 0 
" style="stroke: #000000; stroke-width: 0.6"/>
      </defs>
      <g>
       <use xlink:href="#mc55523cc0d" x="26.83274" y="208.439977" style="stroke: #000000; stroke-width: 0.6"/>
      </g>
     </g>
    </g>
    <g id="ytick_10">
     <g id="line2d_12">
      <g>
       <use xlink:href="#mc55523cc0d" x="26.83274" y="177.74026" style="stroke: #000000; stroke-width: 0.6"/>
      </g>
     </g>
    </g>
    <g id="ytick_11">
     <g id="line2d_13">
      <g>
       <use xlink:href="#mc55523cc0d" x="26.83274" y="147.040543" style="stroke: #000000; stroke-width: 0.6"/>
      </g>
     </g>
    </g>
    <g id="ytick_12">
     <g id="line2d_14">
      <g>
       <use xlink:href="#mc55523cc0d" x="26.83274" y="116.340827" style="stroke: #000000; stroke-width: 0.6"/>
      </g>
     </g>
    </g>
    <g id="ytick_13">
     <g id="line2d_15">
      <g>
       <use xlink:href="#mc55523cc0d" x="26.83274" y="85.64111" style="stroke: #000000; stroke-width: 0.6"/>
      </g>
     </g>
    </g>
    <g id="ytick_14">
     <g id="line2d_16">
      <g>
       <use xlink:href="#mc55523cc0d" x="26.83274" y="54.941393" style="stroke: #000000; stroke-width: 0.6"/>
      </g>
     </g>
    </g>
    <g id="ytick_15">
     <g id="line2d_17">
      <g>
       <use xlink:href="#mc55523cc0d" x="26.83274" y="24.241676" style="stroke: #000000; stroke-width: 0.6"/>
      </g>
     </g>
    </g>
    <g id="text_10">
     <!-- $\Delta$E (kcal/mol) -->
     <g transform="translate(9.07899 146.68875)rotate(-90)scale(0.08 -0.08)">
      <defs>
       <path id="DejaVuSans-394" d="M 2188 4044 
L 906 525 
L 3472 525 
L 2188 4044 
z
M 50 0 
L 1831 4666 
L 2547 4666 
L 4325 0 
L 50 0 
z
" transform="scale(0.015625)"/>
       <path id="DejaVuSans-45" d="M 628 4666 
L 3578 4666 
L 3578 4134 
L 1259 4134 
L 1259 2753 
L 3481 2753 
L 3481 2222 
L 1259 2222 
L 1259 531 
L 3634 531 
L 3634 0 
L 628 0 
L 628 4666 
z
" transform="scale(0.015625)"/>
       <path id="DejaVuSans-28" d="M 1984 4856 
Q 1566 4138 1362 3434 
Q 1159 2731 1159 2009 
Q 1159 1288 1364 580 
Q 1569 -128 1984 -844 
L 1484 -844 
Q 1016 -109 783 600 
Q 550 1309 550 2009 
Q 550 2706 781 3412 
Q 1013 4119 1484 4856 
L 1984 4856 
z
" transform="scale(0.015625)"/>
       <path id="DejaVuSans-6b" d="M 581 4863 
L 1159 4863 
L 1159 1991 
L 2875 3500 
L 3609 3500 
L 1753 1863 
L 3688 0 
L 2938 0 
L 1159 1709 
L 1159 0 
L 581 0 
L 581 4863 
z
" transform="scale(0.015625)"/>
       <path id="DejaVuSans-63" d="M 3122 3366 
L 3122 2828 
Q 2878 2963 2633 3030 
Q 2388 3097 2138 3097 
Q 1578 3097 1268 2742 
Q 959 2388 959 1747 
Q 959 1106 1268 751 
Q 1578 397 2138 397 
Q 2388 397 2633 464 
Q 2878 531 3122 666 
L 3122 134 
Q 2881 22 2623 -34 
Q 2366 -91 2075 -91 
Q 1284 -91 818 406 
Q 353 903 353 1747 
Q 353 2603 823 3093 
Q 1294 3584 2113 3584 
Q 2378 3584 2631 3529 
Q 2884 3475 3122 3366 
z
" transform="scale(0.015625)"/>
       <path id="DejaVuSans-61" d="M 2194 1759 
Q 1497 1759 1228 1600 
Q 959 1441 959 1056 
Q 959 750 1161 570 
Q 1363 391 1709 391 
Q 2188 391 2477 730 
Q 2766 1069 2766 1631 
L 2766 1759 
L 2194 1759 
z
M 3341 1997 
L 3341 0 
L 2766 0 
L 2766 531 
Q 2569 213 2275 61 
Q 1981 -91 1556 -91 
Q 1019 -91 701 211 
Q 384 513 384 1019 
Q 384 1609 779 1909 
Q 1175 2209 1959 2209 
L 2766 2209 
L 2766 2266 
Q 2766 2663 2505 2880 
Q 2244 3097 1772 3097 
Q 1472 3097 1187 3025 
Q 903 2953 641 2809 
L 641 3341 
Q 956 3463 1253 3523 
Q 1550 3584 1831 3584 
Q 2591 3584 2966 3190 
Q 3341 2797 3341 1997 
z
" transform="scale(0.015625)"/>
       <path id="DejaVuSans-6c" d="M 603 4863 
L 1178 4863 
L 1178 0 
L 603 0 
L 603 4863 
z
" transform="scale(0.015625)"/>
       <path id="DejaVuSans-2f" d="M 1625 4666 
L 2156 4666 
L 531 -594 
L 0 -594 
L 1625 4666 
z
" transform="scale(0.015625)"/>
       <path id="DejaVuSans-29" d="M 513 4856 
L 1013 4856 
Q 1481 4119 1714 3412 
Q 1947 2706 1947 2009 
Q 1947 1309 1714 600 
Q 1481 -109 1013 -844 
L 513 -844 
Q 928 -128 1133 580 
Q 1338 1288 1338 2009 
Q 1338 2731 1133 3434 
Q 928 4138 513 4856 
z
" transform="scale(0.015625)"/>
      </defs>
      <use xlink:href="#DejaVuSans-394" transform="translate(0 0.015625)"/>
      <use xlink:href="#DejaVuSans-45" transform="translate(68.408203 0.015625)"/>
      <use xlink:href="#DejaVuSans-20" transform="translate(131.591797 0.015625)"/>
      <use xlink:href="#DejaVuSans-28" transform="translate(163.378906 0.015625)"/>
      <use xlink:href="#DejaVuSans-6b" transform="translate(202.392578 0.015625)"/>
      <use xlink:href="#DejaVuSans-63" transform="translate(260.302734 0.015625)"/>
      <use xlink:href="#DejaVuSans-61" transform="translate(315.283203 0.015625)"/>
      <use xlink:href="#DejaVuSans-6c" transform="translate(376.5625 0.015625)"/>
      <use xlink:href="#DejaVuSans-2f" transform="translate(404.345703 0.015625)"/>
      <use xlink:href="#DejaVuSans-6d" transform="translate(438.037109 0.015625)"/>
      <use xlink:href="#DejaVuSans-6f" transform="translate(535.449219 0.015625)"/>
      <use xlink:href="#DejaVuSans-6c" transform="translate(596.630859 0.015625)"/>
      <use xlink:href="#DejaVuSans-29" transform="translate(624.414062 0.015625)"/>
     </g>
    </g>
   </g>
   <g id="line2d_18">
    <path d="M 26.83274 214.375298 
L 50.06995 198.878393 
L 73.30716 199.80995 
L 96.54437 60.925101 
L 119.781581 27.404509 
L 143.018791 13.785446 
" clip-path="url(#pfec21dba60)" style="fill: none; stroke: #61bfa3; stroke-width: 1.5; stroke-linecap: square"/>
    <defs>
     <path id="ma835986a77" d="M 0 2.5 
C 0.663008 2.5 1.29895 2.236584 1.767767 1.767767 
C 2.236584 1.29895 2.5 0.663008 2.5 0 
C 2.5 -0.663008 2.236584 -1.29895 1.767767 -1.767767 
C 1.29895 -2.236584 0.663008 -2.5 0 -2.5 
C -0.663008 -2.5 -1.29895 -2.236584 -1.767767 -1.767767 
C -2.236584 -1.29895 -2.5 -0.663008 -2.5 0 
C -2.5 0.663008 -2.236584 1.29895 -1.767767 1.767767 
C -1.29895 2.236584 -0.663008 2.5 0 2.5 
z
"/>
    </defs>
    <g clip-path="url(#pfec21dba60)">
     <use xlink:href="#ma835986a77" x="26.83274" y="214.375298" style="fill: #61bfa3"/>
     <use xlink:href="#ma835986a77" x="50.06995" y="198.878393" style="fill: #61bfa3"/>
     <use xlink:href="#ma835986a77" x="73.30716" y="199.80995" style="fill: #61bfa3"/>
     <use xlink:href="#ma835986a77" x="96.54437" y="60.925101" style="fill: #61bfa3"/>
     <use xlink:href="#ma835986a77" x="119.781581" y="27.404509" style="fill: #61bfa3"/>
     <use xlink:href="#ma835986a77" x="143.018791" y="13.785446" style="fill: #61bfa3"/>
    </g>
   </g>
   <g id="patch_3">
    <path d="M 26.83274 237.25726 
L 26.83274 3.00024 
" style="fill: none; stroke: #000000; stroke-width: 0.8; stroke-linejoin: miter; stroke-linecap: square"/>
   </g>
   <g id="patch_4">
    <path d="M 148.828093 237.25726 
L 148.828093 3.00024 
" style="fill: none; stroke: #000000; stroke-width: 0.8; stroke-linejoin: miter; stroke-linecap: square"/>
   </g>
   <g id="patch_5">
    <path d="M 26.83274 237.25726 
L 148.828093 237.25726 
" style="fill: none; stroke: #000000; stroke-width: 0.8; stroke-linejoin: miter; stroke-linecap: square"/>
   </g>
   <g id="patch_6">
    <path d="M 26.83274 3.00024 
L 148.828093 3.00024 
" style="fill: none; stroke: #000000; stroke-width: 0.8; stroke-linejoin: miter; stroke-linecap: square"/>
   </g>
   <g id="text_11">
    <!-- A -->
    <g transform="translate(35.49441 15.884376)scale(0.096 -0.096)">
     <defs>
      <path id="DejaVuSans-Bold-41" d="M 3419 850 
L 1538 850 
L 1241 0 
L 31 0 
L 1759 4666 
L 3194 4666 
L 4922 0 
L 3713 0 
L 3419 850 
z
M 1838 1716 
L 3116 1716 
L 2478 3572 
L 1838 1716 
z
" transform="scale(0.015625)"/>
     </defs>
     <use xlink:href="#DejaVuSans-Bold-41"/>
    </g>
   </g>
   <g id="legend_1">
    <g id="line2d_19">
     <path d="M 31.252694 23.388034 
L 39.252694 23.388034 
L 47.252694 23.388034 
" style="fill: none; stroke-dasharray: 5.55,2.4; stroke-dashoffset: 0; stroke: #c0c0c0; stroke-width: 1.5"/>
     <g>
      <use xlink:href="#m91344de5ad" x="39.252694" y="23.388034" style="fill: #c0c0c0"/>
     </g>
    </g>
    <g id="text_12">
     <!-- MP2 -->
     <g transform="translate(53.652694 26.188034)scale(0.08 -0.08)">
      <defs>
       <path id="DejaVuSans-4d" d="M 628 4666 
L 1569 4666 
L 2759 1491 
L 3956 4666 
L 4897 4666 
L 4897 0 
L 4281 0 
L 4281 4097 
L 3078 897 
L 2444 897 
L 1241 4097 
L 1241 0 
L 628 0 
L 628 4666 
z
" transform="scale(0.015625)"/>
       <path id="DejaVuSans-50" d="M 1259 4147 
L 1259 2394 
L 2053 2394 
Q 2494 2394 2734 2622 
Q 2975 2850 2975 3272 
Q 2975 3691 2734 3919 
Q 2494 4147 2053 4147 
L 1259 4147 
z
M 628 4666 
L 2053 4666 
Q 2838 4666 3239 4311 
Q 3641 3956 3641 3272 
Q 3641 2581 3239 2228 
Q 2838 1875 2053 1875 
L 1259 1875 
L 1259 0 
L 628 0 
L 628 4666 
z
" transform="scale(0.015625)"/>
      </defs>
      <use xlink:href="#DejaVuSans-4d"/>
      <use xlink:href="#DejaVuSans-50" x="86.279297"/>
      <use xlink:href="#DejaVuSans-32" x="146.582031"/>
     </g>
    </g>
    <g id="line2d_20">
     <path d="M 31.252694 35.130534 
L 39.252694 35.130534 
L 47.252694 35.130534 
" style="fill: none; stroke-dasharray: 5.55,2.4; stroke-dashoffset: 0; stroke: #bfe5da; stroke-width: 1.5"/>
     <g>
      <use xlink:href="#ma25efe820c" x="39.252694" y="35.130534" style="fill: #bfe5da"/>
     </g>
    </g>
    <g id="text_13">
     <!-- MBE -->
     <g transform="translate(53.652694 37.930534)scale(0.08 -0.08)">
      <defs>
       <path id="DejaVuSans-42" d="M 1259 2228 
L 1259 519 
L 2272 519 
Q 2781 519 3026 730 
Q 3272 941 3272 1375 
Q 3272 1813 3026 2020 
Q 2781 2228 2272 2228 
L 1259 2228 
z
M 1259 4147 
L 1259 2741 
L 2194 2741 
Q 2656 2741 2882 2914 
Q 3109 3088 3109 3444 
Q 3109 3797 2882 3972 
Q 2656 4147 2194 4147 
L 1259 4147 
z
M 628 4666 
L 2241 4666 
Q 2963 4666 3353 4366 
Q 3744 4066 3744 3513 
Q 3744 3084 3544 2831 
Q 3344 2578 2956 2516 
Q 3422 2416 3680 2098 
Q 3938 1781 3938 1306 
Q 3938 681 3513 340 
Q 3088 0 2303 0 
L 628 0 
L 628 4666 
z
" transform="scale(0.015625)"/>
      </defs>
      <use xlink:href="#DejaVuSans-4d"/>
      <use xlink:href="#DejaVuSans-42" x="86.279297"/>
      <use xlink:href="#DejaVuSans-45" x="154.882812"/>
     </g>
    </g>
    <g id="line2d_21">
     <path d="M 31.252694 46.873034 
L 39.252694 46.873034 
L 47.252694 46.873034 
" style="fill: none; stroke: #61bfa3; stroke-width: 1.5; stroke-linecap: square"/>
     <g>
      <use xlink:href="#ma835986a77" x="39.252694" y="46.873034" style="fill: #61bfa3"/>
     </g>
    </g>
    <g id="text_14">
     <!-- mbGDML -->
     <g transform="translate(53.652694 49.673034)scale(0.08 -0.08)">
      <defs>
       <path id="DejaVuSans-62" d="M 3116 1747 
Q 3116 2381 2855 2742 
Q 2594 3103 2138 3103 
Q 1681 3103 1420 2742 
Q 1159 2381 1159 1747 
Q 1159 1113 1420 752 
Q 1681 391 2138 391 
Q 2594 391 2855 752 
Q 3116 1113 3116 1747 
z
M 1159 2969 
Q 1341 3281 1617 3432 
Q 1894 3584 2278 3584 
Q 2916 3584 3314 3078 
Q 3713 2572 3713 1747 
Q 3713 922 3314 415 
Q 2916 -91 2278 -91 
Q 1894 -91 1617 61 
Q 1341 213 1159 525 
L 1159 0 
L 581 0 
L 581 4863 
L 1159 4863 
L 1159 2969 
z
" transform="scale(0.015625)"/>
       <path id="DejaVuSans-47" d="M 3809 666 
L 3809 1919 
L 2778 1919 
L 2778 2438 
L 4434 2438 
L 4434 434 
Q 4069 175 3628 42 
Q 3188 -91 2688 -91 
Q 1594 -91 976 548 
Q 359 1188 359 2328 
Q 359 3472 976 4111 
Q 1594 4750 2688 4750 
Q 3144 4750 3555 4637 
Q 3966 4525 4313 4306 
L 4313 3634 
Q 3963 3931 3569 4081 
Q 3175 4231 2741 4231 
Q 1884 4231 1454 3753 
Q 1025 3275 1025 2328 
Q 1025 1384 1454 906 
Q 1884 428 2741 428 
Q 3075 428 3337 486 
Q 3600 544 3809 666 
z
" transform="scale(0.015625)"/>
       <path id="DejaVuSans-44" d="M 1259 4147 
L 1259 519 
L 2022 519 
Q 2988 519 3436 956 
Q 3884 1394 3884 2338 
Q 3884 3275 3436 3711 
Q 2988 4147 2022 4147 
L 1259 4147 
z
M 628 4666 
L 1925 4666 
Q 3281 4666 3915 4102 
Q 4550 3538 4550 2338 
Q 4550 1131 3912 565 
Q 3275 0 1925 0 
L 628 0 
L 628 4666 
z
" transform="scale(0.015625)"/>
       <path id="DejaVuSans-4c" d="M 628 4666 
L 1259 4666 
L 1259 531 
L 3531 531 
L 3531 0 
L 628 0 
L 628 4666 
z
" transform="scale(0.015625)"/>
      </defs>
      <use xlink:href="#DejaVuSans-6d"/>
      <use xlink:href="#DejaVuSans-62" x="97.412109"/>
      <use xlink:href="#DejaVuSans-47" x="160.888672"/>
      <use xlink:href="#DejaVuSans-44" x="238.378906"/>
      <use xlink:href="#DejaVuSans-4d" x="315.380859"/>
      <use xlink:href="#DejaVuSans-4c" x="401.660156"/>
     </g>
    </g>
   </g>
  </g>
  <g id="axes_2">
   <g id="patch_7">
    <path d="M 166.918573 237.25726 
L 288.913927 237.25726 
L 288.913927 3.00024 
L 166.918573 3.00024 
z
" style="fill: #ffffff"/>
   </g>
   <g id="line2d_22">
    <path d="M 166.918573 215.724976 
L 174.180202 215.372803 
L 181.44183 206.179136 
L 188.703458 206.174013 
L 195.965086 206.171975 
L 203.226714 179.500739 
L 210.488342 177.571586 
L 217.749971 176.565639 
L 225.011599 173.394875 
L 232.273227 173.360721 
L 239.534855 173.070962 
L 246.796483 143.729154 
L 254.058111 141.222797 
L 261.31974 136.075946 
L 268.581368 127.203713 
L 275.842996 86.284615 
L 283.104624 30.246286 
" clip-path="url(#pa2138ecb17)" style="fill: none; stroke-dasharray: 5.55,2.4; stroke-dashoffset: 0; stroke: #c0c0c0; stroke-width: 1.5"/>
    <g clip-path="url(#pa2138ecb17)">
     <use xlink:href="#m91344de5ad" x="166.918573" y="215.724976" style="fill: #c0c0c0"/>
     <use xlink:href="#m91344de5ad" x="174.180202" y="215.372803" style="fill: #c0c0c0"/>
     <use xlink:href="#m91344de5ad" x="181.44183" y="206.179136" style="fill: #c0c0c0"/>
     <use xlink:href="#m91344de5ad" x="188.703458" y="206.174013" style="fill: #c0c0c0"/>
     <use xlink:href="#m91344de5ad" x="195.965086" y="206.171975" style="fill: #c0c0c0"/>
     <use xlink:href="#m91344de5ad" x="203.226714" y="179.500739" style="fill: #c0c0c0"/>
     <use xlink:href="#m91344de5ad" x="210.488342" y="177.571586" style="fill: #c0c0c0"/>
     <use xlink:href="#m91344de5ad" x="217.749971" y="176.565639" style="fill: #c0c0c0"/>
     <use xlink:href="#m91344de5ad" x="225.011599" y="173.394875" style="fill: #c0c0c0"/>
     <use xlink:href="#m91344de5ad" x="232.273227" y="173.360721" style="fill: #c0c0c0"/>
     <use xlink:href="#m91344de5ad" x="239.534855" y="173.070962" style="fill: #c0c0c0"/>
     <use xlink:href="#m91344de5ad" x="246.796483" y="143.729154" style="fill: #c0c0c0"/>
     <use xlink:href="#m91344de5ad" x="254.058111" y="141.222797" style="fill: #c0c0c0"/>
     <use xlink:href="#m91344de5ad" x="261.31974" y="136.075946" style="fill: #c0c0c0"/>
     <use xlink:href="#m91344de5ad" x="268.581368" y="127.203713" style="fill: #c0c0c0"/>
     <use xlink:href="#m91344de5ad" x="275.842996" y="86.284615" style="fill: #c0c0c0"/>
     <use xlink:href="#m91344de5ad" x="283.104624" y="30.246286" style="fill: #c0c0c0"/>
    </g>
   </g>
   <g id="line2d_23">
    <path d="M 166.918573 214.793176 
L 174.180202 226.609214 
L 181.44183 216.451245 
L 188.703458 216.472454 
L 195.965086 216.398913 
L 203.226714 191.266923 
L 210.488342 189.150308 
L 217.749971 189.687133 
L 225.011599 166.564559 
L 232.273227 182.161506 
L 239.534855 181.932288 
L 246.796483 138.777532 
L 254.058111 135.763271 
L 261.31974 135.869809 
L 268.581368 134.423054 
L 275.842996 91.07351 
L 283.104624 30.546401 
" clip-path="url(#pa2138ecb17)" style="fill: none; stroke-dasharray: 5.55,2.4; stroke-dashoffset: 0; stroke: #bfe5da; stroke-width: 1.5"/>
    <g clip-path="url(#pa2138ecb17)">
     <use xlink:href="#ma25efe820c" x="166.918573" y="214.793176" style="fill: #bfe5da"/>
     <use xlink:href="#ma25efe820c" x="174.180202" y="226.609214" style="fill: #bfe5da"/>
     <use xlink:href="#ma25efe820c" x="181.44183" y="216.451245" style="fill: #bfe5da"/>
     <use xlink:href="#ma25efe820c" x="188.703458" y="216.472454" style="fill: #bfe5da"/>
     <use xlink:href="#ma25efe820c" x="195.965086" y="216.398913" style="fill: #bfe5da"/>
     <use xlink:href="#ma25efe820c" x="203.226714" y="191.266923" style="fill: #bfe5da"/>
     <use xlink:href="#ma25efe820c" x="210.488342" y="189.150308" style="fill: #bfe5da"/>
     <use xlink:href="#ma25efe820c" x="217.749971" y="189.687133" style="fill: #bfe5da"/>
     <use xlink:href="#ma25efe820c" x="225.011599" y="166.564559" style="fill: #bfe5da"/>
     <use xlink:href="#ma25efe820c" x="232.273227" y="182.161506" style="fill: #bfe5da"/>
     <use xlink:href="#ma25efe820c" x="239.534855" y="181.932288" style="fill: #bfe5da"/>
     <use xlink:href="#ma25efe820c" x="246.796483" y="138.777532" style="fill: #bfe5da"/>
     <use xlink:href="#ma25efe820c" x="254.058111" y="135.763271" style="fill: #bfe5da"/>
     <use xlink:href="#ma25efe820c" x="261.31974" y="135.869809" style="fill: #bfe5da"/>
     <use xlink:href="#ma25efe820c" x="268.581368" y="134.423054" style="fill: #bfe5da"/>
     <use xlink:href="#ma25efe820c" x="275.842996" y="91.07351" style="fill: #bfe5da"/>
     <use xlink:href="#ma25efe820c" x="283.104624" y="30.546401" style="fill: #bfe5da"/>
    </g>
   </g>
   <g id="matplotlib.axis_3">
    <g id="text_15">
     <!-- 5mer Isomers -->
     <g transform="translate(200.30125 247.33601)scale(0.08 -0.08)">
      <use xlink:href="#DejaVuSans-35"/>
      <use xlink:href="#DejaVuSans-6d" x="63.623047"/>
      <use xlink:href="#DejaVuSans-65" x="161.035156"/>
      <use xlink:href="#DejaVuSans-72" x="222.558594"/>
      <use xlink:href="#DejaVuSans-20" x="263.671875"/>
      <use xlink:href="#DejaVuSans-49" x="295.458984"/>
      <use xlink:href="#DejaVuSans-73" x="324.951172"/>
      <use xlink:href="#DejaVuSans-6f" x="377.050781"/>
      <use xlink:href="#DejaVuSans-6d" x="438.232422"/>
      <use xlink:href="#DejaVuSans-65" x="535.644531"/>
      <use xlink:href="#DejaVuSans-72" x="597.167969"/>
      <use xlink:href="#DejaVuSans-73" x="638.28125"/>
     </g>
    </g>
   </g>
   <g id="matplotlib.axis_4">
    <g id="ytick_16">
     <g id="line2d_24">
      <g>
       <use xlink:href="#mcb0303604e" x="166.918573" y="215.724976" style="stroke: #000000; stroke-width: 0.8"/>
      </g>
     </g>
     <g id="text_16">
      <!-- 0 -->
      <g transform="translate(154.828573 218.764351)scale(0.08 -0.08)">
       <use xlink:href="#DejaVuSans-30"/>
      </g>
     </g>
    </g>
    <g id="ytick_17">
     <g id="line2d_25">
      <g>
       <use xlink:href="#mcb0303604e" x="166.918573" y="127.937946" style="stroke: #000000; stroke-width: 0.8"/>
      </g>
     </g>
     <g id="text_17">
      <!-- 1 -->
      <g transform="translate(154.828573 130.977321)scale(0.08 -0.08)">
       <use xlink:href="#DejaVuSans-31"/>
      </g>
     </g>
    </g>
    <g id="ytick_18">
     <g id="line2d_26">
      <g>
       <use xlink:href="#mcb0303604e" x="166.918573" y="40.150915" style="stroke: #000000; stroke-width: 0.8"/>
      </g>
     </g>
     <g id="text_18">
      <!-- 2 -->
      <g transform="translate(154.828573 43.19029)scale(0.08 -0.08)">
       <use xlink:href="#DejaVuSans-32"/>
      </g>
     </g>
    </g>
    <g id="ytick_19">
     <g id="line2d_27">
      <g>
       <use xlink:href="#mc55523cc0d" x="166.918573" y="171.831461" style="stroke: #000000; stroke-width: 0.6"/>
      </g>
     </g>
    </g>
    <g id="ytick_20">
     <g id="line2d_28">
      <g>
       <use xlink:href="#mc55523cc0d" x="166.918573" y="84.04443" style="stroke: #000000; stroke-width: 0.6"/>
      </g>
     </g>
    </g>
   </g>
   <g id="line2d_29">
    <path d="M 166.918573 183.036161 
L 174.180202 182.739216 
L 181.44183 178.653017 
L 188.703458 194.104559 
L 195.965086 185.514764 
L 203.226714 148.2451 
L 210.488342 148.445109 
L 217.749971 154.891978 
L 225.011599 128.910559 
L 232.273227 151.188301 
L 239.534855 144.665121 
L 246.796483 113.429072 
L 254.058111 103.413311 
L 261.31974 90.583005 
L 268.581368 101.424723 
L 275.842996 71.485503 
L 283.104624 13.648286 
" clip-path="url(#pa2138ecb17)" style="fill: none; stroke: #61bfa3; stroke-width: 1.5; stroke-linecap: square"/>
    <g clip-path="url(#pa2138ecb17)">
     <use xlink:href="#ma835986a77" x="166.918573" y="183.036161" style="fill: #61bfa3"/>
     <use xlink:href="#ma835986a77" x="174.180202" y="182.739216" style="fill: #61bfa3"/>
     <use xlink:href="#ma835986a77" x="181.44183" y="178.653017" style="fill: #61bfa3"/>
     <use xlink:href="#ma835986a77" x="188.703458" y="194.104559" style="fill: #61bfa3"/>
     <use xlink:href="#ma835986a77" x="195.965086" y="185.514764" style="fill: #61bfa3"/>
     <use xlink:href="#ma835986a77" x="203.226714" y="148.2451" style="fill: #61bfa3"/>
     <use xlink:href="#ma835986a77" x="210.488342" y="148.445109" style="fill: #61bfa3"/>
     <use xlink:href="#ma835986a77" x="217.749971" y="154.891978" style="fill: #61bfa3"/>
     <use xlink:href="#ma835986a77" x="225.011599" y="128.910559" style="fill: #61bfa3"/>
     <use xlink:href="#ma835986a77" x="232.273227" y="151.188301" style="fill: #61bfa3"/>
     <use xlink:href="#ma835986a77" x="239.534855" y="144.665121" style="fill: #61bfa3"/>
     <use xlink:href="#ma835986a77" x="246.796483" y="113.429072" style="fill: #61bfa3"/>
     <use xlink:href="#ma835986a77" x="254.058111" y="103.413311" style="fill: #61bfa3"/>
     <use xlink:href="#ma835986a77" x="261.31974" y="90.583005" style="fill: #61bfa3"/>
     <use xlink:href="#ma835986a77" x="268.581368" y="101.424723" style="fill: #61bfa3"/>
     <use xlink:href="#ma835986a77" x="275.842996" y="71.485503" style="fill: #61bfa3"/>
     <use xlink:href="#ma835986a77" x="283.104624" y="13.648286" style="fill: #61bfa3"/>
    </g>
   </g>
   <g id="patch_8">
    <path d="M 166.918573 237.25726 
L 166.918573 3.00024 
" style="fill: none; stroke: #000000; stroke-width: 0.8; stroke-linejoin: miter; stroke-linecap: square"/>
   </g>
   <g id="patch_9">
    <path d="M 288.913927 237.25726 
L 288.913927 3.00024 
" style="fill: none; stroke: #000000; stroke-width: 0.8; stroke-linejoin: miter; stroke-linecap: square"/>
   </g>
   <g id="patch_10">
    <path d="M 166.918573 237.25726 
L 288.913927 237.25726 
" style="fill: none; stroke: #000000; stroke-width: 0.8; stroke-linejoin: miter; stroke-linecap: square"/>
   </g>
   <g id="patch_11">
    <path d="M 166.918573 3.00024 
L 288.913927 3.00024 
" style="fill: none; stroke: #000000; stroke-width: 0.8; stroke-linejoin: miter; stroke-linecap: square"/>
   </g>
   <g id="text_19">
    <!-- B -->
    <g transform="translate(175.580243 15.884376)scale(0.096 -0.096)">
     <defs>
      <path id="DejaVuSans-Bold-42" d="M 2456 2859 
Q 2741 2859 2887 2984 
Q 3034 3109 3034 3353 
Q 3034 3594 2887 3720 
Q 2741 3847 2456 3847 
L 1791 3847 
L 1791 2859 
L 2456 2859 
z
M 2497 819 
Q 2859 819 3042 972 
Q 3225 1125 3225 1434 
Q 3225 1738 3044 1889 
Q 2863 2041 2497 2041 
L 1791 2041 
L 1791 819 
L 2497 819 
z
M 3616 2497 
Q 4003 2384 4215 2081 
Q 4428 1778 4428 1338 
Q 4428 663 3972 331 
Q 3516 0 2584 0 
L 588 0 
L 588 4666 
L 2394 4666 
Q 3366 4666 3802 4372 
Q 4238 4078 4238 3431 
Q 4238 3091 4078 2852 
Q 3919 2613 3616 2497 
z
" transform="scale(0.015625)"/>
     </defs>
     <use xlink:href="#DejaVuSans-Bold-42"/>
    </g>
   </g>
  </g>
  <g id="axes_3">
   <g id="patch_12">
    <path d="M 307.004407 237.25726 
L 428.99976 237.25726 
L 428.99976 3.00024 
L 307.004407 3.00024 
z
" style="fill: #ffffff"/>
   </g>
   <g id="line2d_30">
    <path d="M 307.004407 209.813032 
L 313.119462 208.840088 
L 319.234517 208.809303 
L 325.349573 197.983744 
L 331.464628 196.378841 
L 337.579683 176.446014 
L 343.694738 174.914 
L 349.809794 174.912057 
L 355.924849 160.18122 
L 362.039904 158.516555 
L 368.15496 139.862203 
L 374.270015 112.370419 
L 380.38507 108.5726 
L 386.500126 103.519658 
L 392.615181 90.791132 
L 398.730236 71.046833 
L 404.845292 58.295261 
L 410.960347 46.210728 
L 417.075402 41.00959 
L 423.190457 21.375612 
" clip-path="url(#p57c1fa0519)" style="fill: none; stroke-dasharray: 5.55,2.4; stroke-dashoffset: 0; stroke: #c0c0c0; stroke-width: 1.5"/>
    <g clip-path="url(#p57c1fa0519)">
     <use xlink:href="#m91344de5ad" x="307.004407" y="209.813032" style="fill: #c0c0c0"/>
     <use xlink:href="#m91344de5ad" x="313.119462" y="208.840088" style="fill: #c0c0c0"/>
     <use xlink:href="#m91344de5ad" x="319.234517" y="208.809303" style="fill: #c0c0c0"/>
     <use xlink:href="#m91344de5ad" x="325.349573" y="197.983744" style="fill: #c0c0c0"/>
     <use xlink:href="#m91344de5ad" x="331.464628" y="196.378841" style="fill: #c0c0c0"/>
     <use xlink:href="#m91344de5ad" x="337.579683" y="176.446014" style="fill: #c0c0c0"/>
     <use xlink:href="#m91344de5ad" x="343.694738" y="174.914" style="fill: #c0c0c0"/>
     <use xlink:href="#m91344de5ad" x="349.809794" y="174.912057" style="fill: #c0c0c0"/>
     <use xlink:href="#m91344de5ad" x="355.924849" y="160.18122" style="fill: #c0c0c0"/>
     <use xlink:href="#m91344de5ad" x="362.039904" y="158.516555" style="fill: #c0c0c0"/>
     <use xlink:href="#m91344de5ad" x="368.15496" y="139.862203" style="fill: #c0c0c0"/>
     <use xlink:href="#m91344de5ad" x="374.270015" y="112.370419" style="fill: #c0c0c0"/>
     <use xlink:href="#m91344de5ad" x="380.38507" y="108.5726" style="fill: #c0c0c0"/>
     <use xlink:href="#m91344de5ad" x="386.500126" y="103.519658" style="fill: #c0c0c0"/>
     <use xlink:href="#m91344de5ad" x="392.615181" y="90.791132" style="fill: #c0c0c0"/>
     <use xlink:href="#m91344de5ad" x="398.730236" y="71.046833" style="fill: #c0c0c0"/>
     <use xlink:href="#m91344de5ad" x="404.845292" y="58.295261" style="fill: #c0c0c0"/>
     <use xlink:href="#m91344de5ad" x="410.960347" y="46.210728" style="fill: #c0c0c0"/>
     <use xlink:href="#m91344de5ad" x="417.075402" y="41.00959" style="fill: #c0c0c0"/>
     <use xlink:href="#m91344de5ad" x="423.190457" y="21.375612" style="fill: #c0c0c0"/>
    </g>
   </g>
   <g id="line2d_31">
    <path d="M 307.004407 216.207551 
L 313.119462 226.609214 
L 319.234517 215.256733 
L 325.349573 192.024507 
L 331.464628 190.65552 
L 337.579683 183.965902 
L 343.694738 187.862281 
L 349.809794 187.864054 
L 355.924849 170.708068 
L 362.039904 165.524589 
L 368.15496 142.378037 
L 374.270015 123.362039 
L 380.38507 119.096719 
L 386.500126 105.662767 
L 392.615181 97.703676 
L 398.730236 76.585991 
L 404.845292 60.001859 
L 410.960347 40.988624 
L 417.075402 54.090761 
L 423.190457 30.698816 
" clip-path="url(#p57c1fa0519)" style="fill: none; stroke-dasharray: 5.55,2.4; stroke-dashoffset: 0; stroke: #bfe5da; stroke-width: 1.5"/>
    <g clip-path="url(#p57c1fa0519)">
     <use xlink:href="#ma25efe820c" x="307.004407" y="216.207551" style="fill: #bfe5da"/>
     <use xlink:href="#ma25efe820c" x="313.119462" y="226.609214" style="fill: #bfe5da"/>
     <use xlink:href="#ma25efe820c" x="319.234517" y="215.256733" style="fill: #bfe5da"/>
     <use xlink:href="#ma25efe820c" x="325.349573" y="192.024507" style="fill: #bfe5da"/>
     <use xlink:href="#ma25efe820c" x="331.464628" y="190.65552" style="fill: #bfe5da"/>
     <use xlink:href="#ma25efe820c" x="337.579683" y="183.965902" style="fill: #bfe5da"/>
     <use xlink:href="#ma25efe820c" x="343.694738" y="187.862281" style="fill: #bfe5da"/>
     <use xlink:href="#ma25efe820c" x="349.809794" y="187.864054" style="fill: #bfe5da"/>
     <use xlink:href="#ma25efe820c" x="355.924849" y="170.708068" style="fill: #bfe5da"/>
     <use xlink:href="#ma25efe820c" x="362.039904" y="165.524589" style="fill: #bfe5da"/>
     <use xlink:href="#ma25efe820c" x="368.15496" y="142.378037" style="fill: #bfe5da"/>
     <use xlink:href="#ma25efe820c" x="374.270015" y="123.362039" style="fill: #bfe5da"/>
     <use xlink:href="#ma25efe820c" x="380.38507" y="119.096719" style="fill: #bfe5da"/>
     <use xlink:href="#ma25efe820c" x="386.500126" y="105.662767" style="fill: #bfe5da"/>
     <use xlink:href="#ma25efe820c" x="392.615181" y="97.703676" style="fill: #bfe5da"/>
     <use xlink:href="#ma25efe820c" x="398.730236" y="76.585991" style="fill: #bfe5da"/>
     <use xlink:href="#ma25efe820c" x="404.845292" y="60.001859" style="fill: #bfe5da"/>
     <use xlink:href="#ma25efe820c" x="410.960347" y="40.988624" style="fill: #bfe5da"/>
     <use xlink:href="#ma25efe820c" x="417.075402" y="54.090761" style="fill: #bfe5da"/>
     <use xlink:href="#ma25efe820c" x="423.190457" y="30.698816" style="fill: #bfe5da"/>
    </g>
   </g>
   <g id="matplotlib.axis_5">
    <g id="text_20">
     <!-- 6mer Isomers -->
     <g transform="translate(340.387083 247.33601)scale(0.08 -0.08)">
      <use xlink:href="#DejaVuSans-36"/>
      <use xlink:href="#DejaVuSans-6d" x="63.623047"/>
      <use xlink:href="#DejaVuSans-65" x="161.035156"/>
      <use xlink:href="#DejaVuSans-72" x="222.558594"/>
      <use xlink:href="#DejaVuSans-20" x="263.671875"/>
      <use xlink:href="#DejaVuSans-49" x="295.458984"/>
      <use xlink:href="#DejaVuSans-73" x="324.951172"/>
      <use xlink:href="#DejaVuSans-6f" x="377.050781"/>
      <use xlink:href="#DejaVuSans-6d" x="438.232422"/>
      <use xlink:href="#DejaVuSans-65" x="535.644531"/>
      <use xlink:href="#DejaVuSans-72" x="597.167969"/>
      <use xlink:href="#DejaVuSans-73" x="638.28125"/>
     </g>
    </g>
   </g>
   <g id="matplotlib.axis_6">
    <g id="ytick_21">
     <g id="line2d_32">
      <g>
       <use xlink:href="#mcb0303604e" x="307.004407" y="209.813032" style="stroke: #000000; stroke-width: 0.8"/>
      </g>
     </g>
     <g id="text_21">
      <!-- 0 -->
      <g transform="translate(294.914407 212.852407)scale(0.08 -0.08)">
       <use xlink:href="#DejaVuSans-30"/>
      </g>
     </g>
    </g>
    <g id="ytick_22">
     <g id="line2d_33">
      <g>
       <use xlink:href="#mcb0303604e" x="307.004407" y="155.484386" style="stroke: #000000; stroke-width: 0.8"/>
      </g>
     </g>
     <g id="text_22">
      <!-- 1 -->
      <g transform="translate(294.914407 158.523761)scale(0.08 -0.08)">
       <use xlink:href="#DejaVuSans-31"/>
      </g>
     </g>
    </g>
    <g id="ytick_23">
     <g id="line2d_34">
      <g>
       <use xlink:href="#mcb0303604e" x="307.004407" y="101.155741" style="stroke: #000000; stroke-width: 0.8"/>
      </g>
     </g>
     <g id="text_23">
      <!-- 2 -->
      <g transform="translate(294.914407 104.195116)scale(0.08 -0.08)">
       <use xlink:href="#DejaVuSans-32"/>
      </g>
     </g>
    </g>
    <g id="ytick_24">
     <g id="line2d_35">
      <g>
       <use xlink:href="#mcb0303604e" x="307.004407" y="46.827096" style="stroke: #000000; stroke-width: 0.8"/>
      </g>
     </g>
     <g id="text_24">
      <!-- 3 -->
      <g transform="translate(294.914407 49.866471)scale(0.08 -0.08)">
       <use xlink:href="#DejaVuSans-33"/>
      </g>
     </g>
    </g>
    <g id="ytick_25">
     <g id="line2d_36">
      <g>
       <use xlink:href="#mc55523cc0d" x="307.004407" y="182.648709" style="stroke: #000000; stroke-width: 0.6"/>
      </g>
     </g>
    </g>
    <g id="ytick_26">
     <g id="line2d_37">
      <g>
       <use xlink:href="#mc55523cc0d" x="307.004407" y="128.320064" style="stroke: #000000; stroke-width: 0.6"/>
      </g>
     </g>
    </g>
    <g id="ytick_27">
     <g id="line2d_38">
      <g>
       <use xlink:href="#mc55523cc0d" x="307.004407" y="73.991419" style="stroke: #000000; stroke-width: 0.6"/>
      </g>
     </g>
    </g>
    <g id="ytick_28">
     <g id="line2d_39">
      <g>
       <use xlink:href="#mc55523cc0d" x="307.004407" y="19.662773" style="stroke: #000000; stroke-width: 0.6"/>
      </g>
     </g>
    </g>
   </g>
   <g id="line2d_40">
    <path d="M 307.004407 179.705953 
L 313.119462 191.665409 
L 319.234517 194.327845 
L 325.349573 169.191291 
L 331.464628 184.989435 
L 337.579683 157.080501 
L 343.694738 178.012627 
L 349.809794 163.260127 
L 355.924849 150.919069 
L 362.039904 149.177111 
L 368.15496 124.711856 
L 374.270015 87.446311 
L 380.38507 108.204648 
L 386.500126 81.386075 
L 392.615181 92.766233 
L 398.730236 36.798256 
L 404.845292 37.058266 
L 410.960347 19.439778 
L 417.075402 36.396975 
L 423.190457 13.648286 
" clip-path="url(#p57c1fa0519)" style="fill: none; stroke: #61bfa3; stroke-width: 1.5; stroke-linecap: square"/>
    <g clip-path="url(#p57c1fa0519)">
     <use xlink:href="#ma835986a77" x="307.004407" y="179.705953" style="fill: #61bfa3"/>
     <use xlink:href="#ma835986a77" x="313.119462" y="191.665409" style="fill: #61bfa3"/>
     <use xlink:href="#ma835986a77" x="319.234517" y="194.327845" style="fill: #61bfa3"/>
     <use xlink:href="#ma835986a77" x="325.349573" y="169.191291" style="fill: #61bfa3"/>
     <use xlink:href="#ma835986a77" x="331.464628" y="184.989435" style="fill: #61bfa3"/>
     <use xlink:href="#ma835986a77" x="337.579683" y="157.080501" style="fill: #61bfa3"/>
     <use xlink:href="#ma835986a77" x="343.694738" y="178.012627" style="fill: #61bfa3"/>
     <use xlink:href="#ma835986a77" x="349.809794" y="163.260127" style="fill: #61bfa3"/>
     <use xlink:href="#ma835986a77" x="355.924849" y="150.919069" style="fill: #61bfa3"/>
     <use xlink:href="#ma835986a77" x="362.039904" y="149.177111" style="fill: #61bfa3"/>
     <use xlink:href="#ma835986a77" x="368.15496" y="124.711856" style="fill: #61bfa3"/>
     <use xlink:href="#ma835986a77" x="374.270015" y="87.446311" style="fill: #61bfa3"/>
     <use xlink:href="#ma835986a77" x="380.38507" y="108.204648" style="fill: #61bfa3"/>
     <use xlink:href="#ma835986a77" x="386.500126" y="81.386075" style="fill: #61bfa3"/>
     <use xlink:href="#ma835986a77" x="392.615181" y="92.766233" style="fill: #61bfa3"/>
     <use xlink:href="#ma835986a77" x="398.730236" y="36.798256" style="fill: #61bfa3"/>
     <use xlink:href="#ma835986a77" x="404.845292" y="37.058266" style="fill: #61bfa3"/>
     <use xlink:href="#ma835986a77" x="410.960347" y="19.439778" style="fill: #61bfa3"/>
     <use xlink:href="#ma835986a77" x="417.075402" y="36.396975" style="fill: #61bfa3"/>
     <use xlink:href="#ma835986a77" x="423.190457" y="13.648286" style="fill: #61bfa3"/>
    </g>
   </g>
   <g id="patch_13">
    <path d="M 307.004407 237.25726 
L 307.004407 3.00024 
" style="fill: none; stroke: #000000; stroke-width: 0.8; stroke-linejoin: miter; stroke-linecap: square"/>
   </g>
   <g id="patch_14">
    <path d="M 428.99976 237.25726 
L 428.99976 3.00024 
" style="fill: none; stroke: #000000; stroke-width: 0.8; stroke-linejoin: miter; stroke-linecap: square"/>
   </g>
   <g id="patch_15">
    <path d="M 307.004407 237.25726 
L 428.99976 237.25726 
" style="fill: none; stroke: #000000; stroke-width: 0.8; stroke-linejoin: miter; stroke-linecap: square"/>
   </g>
   <g id="patch_16">
    <path d="M 307.004407 3.00024 
L 428.99976 3.00024 
" style="fill: none; stroke: #000000; stroke-width: 0.8; stroke-linejoin: miter; stroke-linecap: square"/>
   </g>
   <g id="text_25">
    <!-- C -->
    <g transform="translate(315.666077 15.884376)scale(0.096 -0.096)">
     <defs>
      <path id="DejaVuSans-Bold-43" d="M 4288 256 
Q 3956 84 3597 -3 
Q 3238 -91 2847 -91 
Q 1681 -91 1000 561 
Q 319 1213 319 2328 
Q 319 3447 1000 4098 
Q 1681 4750 2847 4750 
Q 3238 4750 3597 4662 
Q 3956 4575 4288 4403 
L 4288 3438 
Q 3953 3666 3628 3772 
Q 3303 3878 2944 3878 
Q 2300 3878 1931 3465 
Q 1563 3053 1563 2328 
Q 1563 1606 1931 1193 
Q 2300 781 2944 781 
Q 3303 781 3628 887 
Q 3953 994 4288 1222 
L 4288 256 
z
" transform="scale(0.015625)"/>
     </defs>
     <use xlink:href="#DejaVuSans-Bold-43"/>
    </g>
   </g>
  </g>
 </g>
 <defs>
  <clipPath id="pfec21dba60">
   <rect x="26.83274" y="3.00024" width="121.995353" height="234.25702"/>
  </clipPath>
  <clipPath id="pa2138ecb17">
   <rect x="166.918573" y="3.00024" width="121.995353" height="234.25702"/>
  </clipPath>
  <clipPath id="p57c1fa0519">
   <rect x="307.004407" y="3.00024" width="121.995353" height="234.25702"/>
  </clipPath>
 </defs>
</svg>
